<?xml version="1.0" encoding="UTF-8"?>
<svg id="Layer_1" xmlns="http://www.w3.org/2000/svg" version="1.1" viewBox="0 0 46.8 61.7">
  <!-- Generator: Adobe Illustrator 30.4.0, SVG Export Plug-In . SVG Version: 2.1.4 Build 226)  -->
  <defs>
    <style>
      .st0 {
        fill: #e078a5;
      }

      .st1 {
        fill: #68291e;
      }

      .st2 {
        fill: #a26d36;
      }

      .st3 {
        fill: #9b5131;
      }
    </style>
  </defs>
  <path class="st2" d="M41.6,19.1c-1.6-1.7-3.7-2.8-5.9-3.9-4.4-2.1-9.2-3.8-14.1-4s-10,1.1-13.8,4.3C1.4,20.9.2,30,0,38.3c-.2,8.5,2.4,21.1,12.3,23.1,2.1.4,4.3.3,6.4,0,1.8-.2,3.5-.5,5.2-1,8.5-2.7,14-11,18.1-18.4,3.9-7.2,6-16.5-.4-23h0Z"/>
  <path class="st3" d="M31.6,0c3.1.9,6.2,2.1,9.3,3.4-1.4,4.1-2.7,8.1-4.1,12.2-1,2.8-5.3-.4-5.8-2.2S31.9,0,31.6,0Z"/>
  <path class="st0" d="M32.6,53.5c-4.7-4.1-6.7-11.3-5-17.2h.5c.4,6.1,2.1,11.5,4.9,16.9l-.4.3h0Z"/>
  <path class="st0" d="M23.2,59.7c-5.1-7.3-7.2-16.7-6-25.5h.5c.6,6.6,1.8,12.9,3.8,19.1.7,2.1,1.4,4.1,2.1,6.2l-.5.2s.1,0,.1,0Z"/>
  <path class="st0" d="M10.8,60c-5.1-8.7-6.8-19.5-4.9-29.4h.5c0,7.5.9,14.8,2.8,22,.6,2.4,1.3,4.8,2,7.2l-.5.2h.1Z"/>
  <path class="st0" d="M0,37.1c6.7.2,13.1-.9,19.2-3.9l.3.4c-5,4.8-13.1,6.6-19.6,4v-.5h.1Z"/>
  <path class="st0" d="M1.3,46.1c5.1-.2,9.9-1.2,15-1.7,4.9-.5,9.6-2,14.1-4.4l.3.4c-6,5.3-14,6.2-21.7,6.6-2.5,0-5.1,0-7.7-.4v-.5h0Z"/>
  <path class="st0" d="M5.4,56.3c12.7.7,24.7-4.2,34.1-12.8l.4.3c-7.9,10.1-21.8,16-34.5,12.9v-.5h0Z"/>
  <path class="st1" d="M35.2,41c-10.9-4.8-21.9-9.5-32.4-15.1-.7-.4-1.5-.9-1.6-1.7,0-.5.2-.9.4-1.3,2-4,4.6-7.9,8.3-10.3,6.6-4.3,15.4-3.5,22.8-.8,3.8,1.4,7.5,3.3,10,6.5,3,3.9,4.1,8.1,4.2,12.9,0,1.9,0,3.9-.5,5.7s-1.8,4.6-3.4,5.7c-2.3,1.6-5.6-.6-7.7-1.5h0Z"/>
</svg>