<?xml version="1.0" encoding="UTF-8"?><svg id="Layer_1" xmlns="http://www.w3.org/2000/svg" viewBox="0 0 46.75 61.7"><defs><style>.cls-1{fill:#a07e52;}.cls-2{fill:#9b5131;}</style></defs><path class="cls-1" d="M41.56,19.09c-1.65-1.68-3.75-2.84-5.87-3.87-4.44-2.14-9.21-3.77-14.14-3.99s-10.04,1.09-13.8,4.28C1.42,20.87.17,30.04,0,38.32c-.16,8.5,2.37,21.12,12.28,23.1,2.1.42,4.26.3,6.39.07,1.76-.19,3.52-.45,5.21-.98,8.48-2.66,14.04-11,18.07-18.38s6.02-16.51-.4-23.04Z"/><path class="cls-2" d="M35.17,41.01c-10.93-4.76-21.88-9.52-32.41-15.11-.73-.39-1.55-.9-1.63-1.72-.05-.46.16-.9.36-1.32,1.98-4.01,4.59-7.86,8.32-10.32,6.59-4.34,15.39-3.54,22.79-.82,3.78,1.39,7.51,3.32,9.99,6.49,3.01,3.85,4.08,8.14,4.15,12.94.03,1.91,0,3.85-.48,5.71-.47,1.78-1.85,4.57-3.39,5.68-2.27,1.62-5.6-.62-7.7-1.53Z"/><path class="cls-2" d="M31.61,0c3.15.94,6.24,2.08,9.27,3.39-1.37,4.06-2.74,8.11-4.11,12.17-.96,2.84-5.28-.37-5.78-2.18-.36-1.29.87-13.31.62-13.38Z"/></svg>