<?xml version="1.0" encoding="UTF-8"?><svg id="Layer_1" xmlns="http://www.w3.org/2000/svg" viewBox="0 0 63.01 59.77"><defs><style>.cls-1{fill:#234270;}.cls-2{fill:#7498c5;}</style></defs><path class="cls-2" d="M5.9,47.85c8.08,10.47,23.28,14.65,35.69,10.09s21.23-17.35,21.41-30.58c.05-3.91-.6-7.88-2.37-11.36-3.1-6.08-10.74-12.72-17.27-14.63C38.74.02,33.84-.05,29.01.02c-3.29.04-6.64.15-9.74,1.26C.67,7.95-5.87,32.61,5.9,47.85Z"/><path class="cls-1" d="M30.21,8.48c-.5-1.02-1.2-1.72-2.36-2.13s-2.39-.41-3.48.11c-1.26.6-2.09,1.75-2.59,3.03-.25.66-.42,1.34-.54,2.04-.1.62-.07,1.47-.56,1.93-.05.05-.11.09-.18.11-.07.01-.15,0-.22-.03-.45-.15-.89-.34-1.3-.58-1.79-1.03-4.61-1-6.35.13-.99.64-1.54,1.76-1.7,2.9-.18,1.25.31,2.31,1.16,3.23.54.59,1.2,1.05,1.91,1.42.39.2,1.5.46,1.48,1.06,0,.24-.24.39-.42.54-1.09.88-1.25,2.57-1.02,3.85s.94,2.55,2.06,3.32c1.34.93,3.12,1.03,4.64.52.78-.26,1.51-.68,2.1-1.24.28-.26,1.14-1.61,1.49-1.59.12,0,.21.1.29.19,1.21,1.37,2.74,1.91,4.58,1.89,1.92-.02,3.88-1.12,4.62-2.9.4-.98.34-2.12-.09-3.08-.21-.46-.52-.92-.92-1.24-.2-.16-.95-.38-.69-.74.1-.14.3-.13.47-.12,1.37.1,2.77-.59,3.53-1.73.86-1.29.9-3.57-.17-4.77-.62-.68-1.51-.99-2.4-1.11s-1.69.18-2.48.07c-.07-.01-.15-.03-.2-.08-.05-.06-.05-.14-.05-.22,0-1.45.16-2.96-.38-4.3-.07-.17-.14-.33-.22-.48Z"/><path class="cls-2" d="M22.69,16.47s-.05.06-.07.09c-1.44,1.81-.59,4.46,1.73,4.87.96.17,2-.09,2.74-.65.22-.17.42-.36.55-.6.15-.28.2-.6.2-.91,0-.93-.42-1.86-1.14-2.53-1.15-1.07-2.88-1.58-4.01-.27Z"/></svg>