<?xml version="1.0" encoding="UTF-8"?><svg id="Layer_1" xmlns="http://www.w3.org/2000/svg" viewBox="0 0 312.06 172.08"><defs><style>.cls-1{fill:#27417e;}.cls-2{fill:#e79dbf;}.cls-3{fill:none;stroke:#94a8c1;stroke-miterlimit:10;stroke-width:2.97px;}.cls-4{fill:#647ab7;}.cls-5{fill:#fff;}.cls-6{fill:#dadf50;}</style></defs><polygon class="cls-5" points="213.02 134.66 291.93 83.36 290.3 112.06 213.09 162.99 213.02 134.66"/><polygon class="cls-6" points="215.25 133.82 291.93 83.36 225.61 79.6 169.31 131.1 215.25 133.82"/><polygon class="cls-5" points="209.05 129.38 269.96 82.11 273.55 49.91 208.51 100.83 209.05 129.38"/><path class="cls-6" d="M208.51,100.83c.34-.26,3.87-2.61,4.21-2.88,1.23-.95,2.46-1.9,3.68-2.85,1.94-1.5,3.89-3.01,5.83-4.51,2.47-1.91,4.93-3.82,7.4-5.73,2.8-2.17,5.6-4.33,8.4-6.5,2.94-2.28,5.88-4.55,8.82-6.83,2.89-2.24,5.78-4.48,8.68-6.72,2.65-2.05,5.3-4.11,7.96-6.16,2.22-1.72,4.44-3.44,6.66-5.16.89-.69,4.9-3.25,4.52-4.71-.21-.81-.86-1.15-1.5-1.19-.85-.05-1.7-.1-2.54-.14-2.8-.16-5.61-.32-8.41-.48-3.32-.19-6.64-.38-9.97-.56s-6.77-.38-10.15-.58c-2.98-.17-5.97-.34-8.95-.51-2.13-.12-4.26-.24-6.38-.36-.81-.05-1.62-.09-2.44-.14l-38.2,43.14,22.38,12.86Z"/><path class="cls-2" d="M113.62,127.37c29.56,1.9,59.12,3.79,88.68,5.69.75.05,1.51.12,2.26.13,3.24.02,3.81-.46,4.48-3.82,1.71-8.58,2.28-17.26,2.19-25.98-.05-5.25-.61-5.74-5.67-6.12-23.65-1.78-47.31-3.52-70.97-5.34-28.62-2.2-57.25-4.38-85.86-6.77-7.68-.64-15.36-1.3-23.04-1.82-5.06-.34-6.1.55-6.42,5.78-.52,8.54-1.02,17.08-1.45,25.63-.26,5.09.74,6.26,5.77,6.6,26.99,1.78,53.99,3.52,80.98,5.27,3.02.2,6.03.35,9.05.52,0,.08-.01.17-.02.25Z"/><polygon class="cls-5" points="201.66 96.67 259.22 40.09 260.05 19.36 202.39 77.62 201.66 96.67"/><path class="cls-1" d="M16.64,60.73c.63,2.24,3.22,2.35,5.35,2.5,15.67,1.15,31.34,2.33,47,3.45,42.04,3.02,84.08,6.01,126.11,9.05,1.54.11,3.27-.37,4.22,1.77.63,1.42,2.08,1.04,3.07.12,2.11-1.96,4.27-3.91,6.17-6.07,7.73-8.82,16.5-16.55,24.93-24.65,8.65-8.3,16.81-17.12,25.16-25.74.52-.53,1.03-1.14,1.39-1.79.64-1.15.56-2.11-.26-2.68L93.94,7.29c-.38.2-.74.42-1.11.68-11.98,8.26-24.05,16.42-35.99,24.74-12.07,8.41-24.18,16.75-36.74,24.41-1.45.88-4.1,1.41-3.46,3.61Z"/><path class="cls-1" d="M203.83,76.89c0,.05,0,.11,0,.17l-.2,2.64-1.04,13.9c-.14,3.61-.6,3.81-6.82,3.33-28.91-2.2-57.83-4.41-86.74-6.6v.03c-14.46-1.06-28.92-2.11-43.38-3.18-10.54-.78-21.09-1.54-31.63-2.33-4.97-.37-9.94-.76-14.9-1.24-3.5-.33-5.28-1.62-5.15-3.93.34-5.94.86-11.87,1.33-17.8.13-1.63,1.06-2.49,2.66-2.49,1.06,0,2.11.09,3.17.16,10.84.84,21.69,1.7,32.53,2.51,44.89,3.32,89.78,6.62,134.68,9.93,3.62.26,7.22.6,10.83.96,3.96.4,4.77.79,4.67,3.94Z"/><path class="cls-4" d="M213.9,80.82c-.02.32-.06.63-.09.95l.2-2.64c-.01.49-.05,1.05-.11,1.68Z"/><path class="cls-6" d="M215.36,152.23c-.35,2.74-.87,5.45-1.54,8.11-.19.75-.41,1.74-.73,2.65-.24.67-.53,1.31-.91,1.8l-79.87-3.66-.34-.02c-9.52-.52-19.04-1.07-28.55-1.75h.03c-.44-.01-.88-.04-1.31-.06-1.67-.09-3.34-.19-5.01-.28-2.67-.15-5.35-.3-8.02-.45-3.42-.19-6.84-.39-10.25-.58-3.9-.22-7.8-.44-11.7-.66-4.12-.23-8.25-.47-12.37-.7s-8.17-.46-12.26-.69c-3.79-.21-7.57-.43-11.36-.64-3.23-.18-6.45-.37-9.68-.55-2.86-.16-5.71-.27-8.54-.7-.83-.13-1.71-.35-2.3-1.09-.63-.79-.71-1.88-.65-2.96.29-5.39.61-10.78.92-16.17.19-3.33.38-6.66.57-9.99.25-4.39,2.08-4.62,9.14-4.16,45.54,2.95,91.08,5.88,136.61,8.84,17.34,1.13,34.68,2.27,52.02,3.44,2.67.18,5.23.26,5.91,4.03.95,5.3.9,10.87.21,16.27Z"/><path class="cls-4" d="M214.03,78.94l-.02.19c0-.06,0-.12,0-.17v-.03Z"/><line class="cls-3" x1="205.35" y1="73.3" x2="17.96" y2="59.39"/></svg>