<?xml version="1.0" encoding="UTF-8"?><svg id="Layer_1" xmlns="http://www.w3.org/2000/svg" viewBox="0 0 177.21 184.79"><defs><style>.cls-1{fill:#b3ced0;}.cls-2{fill:#8abab9;}.cls-3{fill:#37284d;}.cls-4{fill:#7db2a7;}</style></defs><path class="cls-2" d="M169.18,172.49c-.28.35-.58.69-.88,1.02-.33.37-.67.74-1.02,1.09-.16.17-.34.34-.5.5-.14.13-.28.27-.42.4-.92.86-1.88,1.67-2.89,2.41-.26.19-.51.37-.77.55-.02.02-.05.03-.07.05-.26.18-.53.36-.79.53-.03.03-.07.05-.11.07-.39.25-.77.49-1.17.72-.25.15-.51.3-.77.44-.73.4-1.48.78-2.25,1.13-.04.02-.08.04-.13.06-.27.12-.54.23-.82.35-.26.11-.52.21-.78.31-.04.02-.08.03-.12.04-.25.09-.51.19-.76.28-.28.09-.56.19-.85.28-.26.08-.52.16-.79.24-.08.03-.15.05-.23.07-.51.15-1.03.28-1.55.4-.01,0-.02,0-.03,0-.29.07-.59.13-.89.19-.28.06-.56.11-.85.16-.04,0-.08.02-.13.02-.27.05-.54.09-.82.13-.31.04-.61.08-.92.12-.24.03-.48.06-.73.08-.11.01-.21.02-.32.03-.26.02-.53.04-.79.05-.17.01-.33.02-.5.02-.17.01-.35.02-.53.02-.28,0-.56.01-.84.01H32.47c-.28,0-.57,0-.85-.01-.17,0-.35-.01-.53-.02-.17,0-.34-.01-.5-.02-.27-.01-.53-.03-.79-.05-.11-.01-.21-.02-.32-.03-.25-.02-.49-.05-.73-.08-.31-.03-.61-.07-.92-.12-.28-.04-.57-.08-.85-.13-.03,0-.06,0-.08-.01-.29-.05-.58-.11-.86-.16-.3-.06-.6-.12-.89-.19-.01,0-.02,0-.03,0-.53-.12-1.04-.26-1.55-.4-.08-.02-.16-.04-.23-.07-.27-.08-.53-.16-.79-.24-.28-.09-.56-.19-.85-.28-.28-.1-.56-.2-.84-.31-.27-.11-.55-.22-.82-.33-.27-.12-.55-.23-.82-.35-.04-.02-.09-.04-.13-.06-.77-.35-1.51-.72-2.25-1.13-1.19-.66-2.34-1.39-3.43-2.18-.56-.4-1.11-.83-1.64-1.27-.2-.16-.39-.33-.59-.5-.38-.33-.76-.68-1.13-1.03-.18-.17-.37-.35-.55-.54-.55-.55-1.08-1.12-1.59-1.71-.16-.18-.31-.37-.46-.55h0c-4.65-5.62-7.46-12.82-7.46-20.68V31.74C0,22.29,1.57,14.19,8.18,7.87c3.21-3.06,6.86-5.71,10.65-7.87h52.83c5.42.56,11.22.14,16.65.02.41,0,.83-.01,1.24-.02h49.63v125.02l14.39,22.78,15.6,24.69Z"/><path class="cls-2" d="M176.63,31.74v120.07c0,.28,0,.58-.01.86,0,.22-.02.45-.03.68,0,.16-.01.32-.02.48-.02.25-.03.5-.06.74-.02.29-.06.58-.08.87,0,.02,0,.03,0,.04-.03.31-.07.61-.12.91-.05.35-.11.69-.16,1.03-.12.67-.26,1.34-.41,1.99-.08.33-.17.66-.26.99-.17.66-.37,1.31-.6,1.96-.11.32-.23.65-.35.97-.12.32-.25.64-.38.96-.01.02-.02.04-.03.06-.12.28-.24.56-.37.84-.12.28-.26.56-.39.83-.1.21-.21.42-.32.64-.08.15-.16.28-.23.43-1.03,1.92-2.24,3.73-3.62,5.39-.28.35-.58.69-.88,1.02-.33.37-.67.74-1.02,1.09-.16.17-.34.34-.5.5-.14.13-.28.27-.42.4-.92.86-1.88,1.67-2.89,2.41-.26.19-.51.37-.77.55-.02.02-.05.03-.07.05-.26.18-.53.36-.79.53-.03.03-.07.05-.11.07-.39.25-.77.49-1.17.72-.25.15-.51.3-.77.44-.73.41-1.48.78-2.25,1.13-.04.02-.08.04-.13.06-.27.12-.54.23-.82.35-.26.11-.52.21-.78.31-.04.02-.08.03-.12.04-.25.09-.51.19-.76.28-.28.09-.56.19-.85.28-.26.08-.52.16-.79.24-.08.03-.15.05-.23.07-.51.15-1.03.28-1.55.4-.01,0-.02,0-.03,0-.29.07-.59.13-.89.19-.28.06-.56.11-.85.16-.04,0-.08.02-.13.02-.27.05-.54.09-.82.13-.31.04-.61.08-.92.12-.24.03-.48.06-.73.08-.11.01-.21.02-.32.03-.26.02-.53.04-.79.05-.17.01-.33.02-.5.02-.17.01-.35.02-.53.02-.28,0-.56.01-.84.01H32.47c-.28,0-.57,0-.85-.01-.17,0-.35-.01-.53-.02-.17,0-.34-.01-.5-.02-.27-.01-.53-.03-.79-.05-.11-.01-.21-.02-.32-.03-.25-.02-.49-.05-.73-.08-.31-.03-.61-.07-.92-.12-.28-.04-.57-.08-.85-.13-.03,0-.06,0-.08-.01-.29-.05-.58-.11-.86-.16-.3-.06-.6-.12-.89-.19-.01,0-.02,0-.03,0-.53-.12-1.04-.26-1.55-.4-.08-.02-.16-.04-.23-.07-.27-.08-.53-.16-.79-.24-.28-.09-.56-.19-.85-.28-.28-.1-.56-.2-.84-.31-.27-.11-.55-.22-.82-.33-.27-.12-.55-.23-.82-.35-.04-.02-.09-.04-.13-.06-.77-.35-1.51-.73-2.25-1.13-1.19-.66-2.34-1.39-3.43-2.18-.56-.41-1.11-.83-1.64-1.27-.2-.16-.39-.33-.59-.5-.38-.33-.76-.68-1.13-1.03-.18-.17-.37-.35-.55-.54-.55-.55-1.08-1.12-1.59-1.71-.16-.18-.31-.37-.46-.55h0s15.6-24.69,15.6-24.69l14.4-22.78V0h49.63c.41,0,.82.01,1.23.02,5.43.12,11.23.54,16.66-.02h44.68c1.08,0,2.13.02,3.16.13,1.21.13,2.39.39,3.58.91,2.01,1.25,3.98,2.63,5.84,4.15,1.06.84,2.08,1.74,3.06,2.68,6.62,6.31,11.34,14.42,11.34,23.88Z"/><path class="cls-4" d="M176.63,31.74v120.07c0,.28,0,.58-.01.86,0,.22-.02.45-.03.68,0,.16-.01.32-.02.48-.02.25-.03.5-.06.74-.02.29-.06.58-.08.87,0,.02,0,.03,0,.04-.03.31-.07.61-.12.91-.05.35-.11.69-.16,1.03-.12.67-.26,1.34-.41,1.99-.08.33-.17.66-.26.99-.18.66-.38,1.31-.6,1.96-.11.32-.23.65-.35.97-.12.32-.25.64-.38.96-.01.02-.02.04-.03.06-.12.28-.24.56-.37.84-.12.28-.26.56-.39.83-.1.21-.21.42-.32.64-.08.15-.16.28-.23.43-1.89,3.35-4.88,6.4-5.44.05-.25-2.75-.49-5.51-.73-8.27-.4-4.54-.85-9.26-3.22-13.16-.21-.35-.43-.69-.67-1.01-2.94-4.13-7.68-6.7-11.81-9.75-4.78-3.51-9.68-8.75-11.74-14.69-.74-2.13-1.11-4.36-.98-6.63.31-5.46.98-10.87.98-16.5V0h10.47c1.08,0,2.13.02,3.16.13,1.76,1.17,3.43,2.49,5.04,3.86,2.26,1.93,4.93,4.36,7.54,7.1.04.04.08.08.12.13,5.72,6.04,11.11,13.55,11.11,20.53Z"/><path class="cls-1" d="M165.52,16.43v121.36c0,2.68-1.06,5.12-2.78,6.92-1.82,1.91-4.39,3.09-7.23,3.09H21.1c-5.53,0-10-4.48-10-10.01V10c0-.73.08-1.44.23-2.13.97-4.5,4.98-7.87,9.77-7.87h128.55c1.08,0,2.13.02,3.16.13,1.21.13,2.39.39,3.58.91.34.15.68.32,1.01.51,1.73.98,3.43,2.18,4.83,3.64,1.35,1.39,2.4,3.02,2.94,4.92.02.05.03.1.04.15.07.27.13.55.18.83.29,1.73.12,3.61.12,5.35Z"/><path class="cls-3" d="M175.44,33.93c1.4,39.84,1.73,80.42,1.76,120.32,0,.43.01,1-.02,1.43-.53,5.14-2.04,10.08-4.55,14.64-5.79,10.86-17.53,15.4-28.65,14.32-30.46-.15-64.6-.48-95.06-1.22-10.56-.28-21.12-.48-31.69-.88,0,0,0-.68,0-.68,10.56-.4,21.12-.6,31.69-.88,18.21-.46,44.86-.81,63.37-1,10.59-.07,21.18-.2,31.77-.22,9.99.95,19.49-3.02,24.18-11.9,2.15-3.8,3.53-8.22,4.01-12.6.01-.75.03-5.55.04-6.41.15-23.79.53-49.41,1.1-73.13.34-13.93.74-27.86,1.34-41.8,0,0,.68,0,.68,0h0Z"/></svg>