<?xml version="1.0" encoding="UTF-8"?>
<svg id="Layer_1" xmlns="http://www.w3.org/2000/svg" version="1.1" viewBox="0 0 179.3 184.8">
  <!-- Generator: Adobe Illustrator 30.4.0, SVG Export Plug-In . SVG Version: 2.1.4 Build 226)  -->
  <defs>
    <style>
      .st0 {
        fill: #c45556;
      }

      .st1 {
        fill: #dd767a;
      }

      .st2 {
        fill: #37284d;
      }

      .st3 {
        fill: #b3454a;
      }
    </style>
  </defs>
  <path class="st0" d="M169.2,172.5c-.3.4-.6.7-.9,1-.3.4-.7.7-1,1.1-.2.2-.3.3-.5.5-.1.1-.3.3-.4.4-.9.9-1.9,1.7-2.9,2.4-.3.2-.5.4-.8.6,0,0,0,0,0,0-.3.2-.5.4-.8.5,0,0,0,0-.1,0-.4.2-.8.5-1.2.7-.2.1-.5.3-.8.4-.7.4-1.5.8-2.2,1.1,0,0,0,0-.1,0-.3.1-.5.2-.8.4-.3.1-.5.2-.8.3,0,0,0,0-.1,0-.2,0-.5.2-.8.3-.3,0-.6.2-.9.3-.3,0-.5.2-.8.2,0,0-.1,0-.2,0-.5.1-1,.3-1.6.4h0c-.3,0-.6.1-.9.2-.3,0-.6.1-.9.2,0,0,0,0-.1,0-.3,0-.5,0-.8.1-.3,0-.6,0-.9.1-.2,0-.5,0-.7,0-.1,0-.2,0-.3,0-.3,0-.5,0-.8,0-.2,0-.3,0-.5,0-.2,0-.4,0-.5,0-.3,0-.6,0-.8,0H32.5c-.3,0-.6,0-.9,0-.2,0-.4,0-.5,0-.2,0-.3,0-.5,0-.3,0-.5,0-.8,0-.1,0-.2,0-.3,0-.2,0-.5,0-.7,0-.3,0-.6,0-.9-.1-.3,0-.6,0-.9-.1,0,0,0,0,0,0-.3,0-.6-.1-.9-.2-.3,0-.6-.1-.9-.2h0c-.5-.1-1-.3-1.5-.4,0,0-.2,0-.2,0-.3,0-.5-.2-.8-.2-.3,0-.6-.2-.9-.3-.3-.1-.6-.2-.8-.3-.3-.1-.5-.2-.8-.3-.3-.1-.5-.2-.8-.4,0,0,0,0-.1,0-.8-.4-1.5-.7-2.2-1.1-1.2-.7-2.3-1.4-3.4-2.2-.6-.4-1.1-.8-1.6-1.3-.2-.2-.4-.3-.6-.5-.4-.3-.8-.7-1.1-1-.2-.2-.4-.4-.6-.5-.6-.6-1.1-1.1-1.6-1.7-.2-.2-.3-.4-.5-.6h0C2.8,166.9,0,159.7,0,151.8V31.7c0-9.4,1.6-17.6,8.2-23.9,3.2-3.1,6.9-5.7,10.6-7.9h52.8c5.4.6,11.2.1,16.7,0,.4,0,.8,0,1.2,0h49.6v125l14.4,22.8,15.6,24.7h0Z"/>
  <path class="st0" d="M176.6,31.7v120.1c0,.3,0,.6,0,.9,0,.2,0,.4,0,.7,0,.2,0,.3,0,.5,0,.2,0,.5,0,.7,0,.3,0,.6,0,.9h0c0,.3,0,.6-.1.9,0,.4-.1.7-.2,1-.1.7-.3,1.3-.4,2,0,.3-.2.7-.3,1-.2.7-.4,1.3-.6,2-.1.3-.2.6-.4,1-.1.3-.2.6-.4,1,0,0,0,0,0,0-.1.3-.2.6-.4.8-.1.3-.3.6-.4.8-.1.2-.2.4-.3.6,0,.1-.2.3-.2.4-1,1.9-2.2,3.7-3.6,5.4-.3.4-.6.7-.9,1-.3.4-.7.7-1,1.1-.2.2-.3.3-.5.5-.1.1-.3.3-.4.4-.9.9-1.9,1.7-2.9,2.4-.3.2-.5.4-.8.6,0,0,0,0,0,0-.3.2-.5.4-.8.5,0,0,0,0-.1,0-.4.2-.8.5-1.2.7-.2.1-.5.3-.8.4-.7.4-1.5.8-2.2,1.1,0,0,0,0-.1,0-.3.1-.5.2-.8.4-.3.1-.5.2-.8.3,0,0,0,0-.1,0-.2,0-.5.2-.8.3-.3,0-.6.2-.9.3-.3,0-.5.2-.8.2,0,0-.1,0-.2,0-.5.1-1,.3-1.6.4h0c-.3,0-.6.1-.9.2-.3,0-.6.1-.9.2,0,0,0,0-.1,0-.3,0-.5,0-.8.1-.3,0-.6,0-.9.1-.2,0-.5,0-.7,0-.1,0-.2,0-.3,0-.3,0-.5,0-.8,0-.2,0-.3,0-.5,0-.2,0-.4,0-.5,0-.3,0-.6,0-.8,0H32.5c-.3,0-.6,0-.9,0-.2,0-.4,0-.5,0-.2,0-.3,0-.5,0-.3,0-.5,0-.8,0-.1,0-.2,0-.3,0-.2,0-.5,0-.7,0-.3,0-.6,0-.9-.1-.3,0-.6,0-.9-.1,0,0,0,0,0,0-.3,0-.6-.1-.9-.2-.3,0-.6-.1-.9-.2h0c-.5-.1-1-.3-1.5-.4,0,0-.2,0-.2,0-.3,0-.5-.2-.8-.2-.3,0-.6-.2-.9-.3-.3-.1-.6-.2-.8-.3-.3-.1-.5-.2-.8-.3-.3-.1-.5-.2-.8-.4,0,0,0,0-.1,0-.8-.4-1.5-.7-2.2-1.1-1.2-.7-2.3-1.4-3.4-2.2-.6-.4-1.1-.8-1.6-1.3-.2-.2-.4-.3-.6-.5-.4-.3-.8-.7-1.1-1-.2-.2-.4-.4-.6-.5-.6-.6-1.1-1.1-1.6-1.7-.2-.2-.3-.4-.5-.6h0l15.6-24.7,14.4-22.8V0h49.6c.4,0,.8,0,1.2,0,5.4.1,11.2.5,16.7,0h44.7c1.1,0,2.1,0,3.2.1,1.2.1,2.4.4,3.6.9,2,1.2,4,2.6,5.8,4.2,1.1.8,2.1,1.7,3.1,2.7,6.6,6.3,11.3,14.4,11.3,23.9h0Z"/>
  <path class="st3" d="M176.6,31.7v120.1c0,.3,0,.6,0,.9,0,.2,0,.4,0,.7,0,.2,0,.3,0,.5,0,.2,0,.5,0,.7,0,.3,0,.6,0,.9h0c0,.3,0,.6-.1.9,0,.4-.1.7-.2,1-.1.7-.3,1.3-.4,2,0,.3-.2.7-.3,1-.2.7-.4,1.3-.6,2-.1.3-.2.6-.4,1-.1.3-.2.6-.4,1,0,0,0,0,0,0-.1.3-.2.6-.4.8-.1.3-.3.6-.4.8-.1.2-.2.4-.3.6,0,.1-.2.3-.2.4-1.9,3.4-4.9,6.4-5.4,0-.2-2.8-.5-5.5-.7-8.3-.4-4.5-.9-9.3-3.2-13.2-.2-.4-.4-.7-.7-1-2.9-4.1-7.7-6.7-11.8-9.8-4.8-3.5-9.7-8.8-11.7-14.7-.7-2.1-1.1-4.4-1-6.6.3-5.5,1-10.9,1-16.5V0h10.5c1.1,0,2.1,0,3.2.1,1.8,1.2,3.4,2.5,5,3.9,2.3,1.9,4.9,4.4,7.5,7.1,0,0,0,0,.1.1,5.7,6,11.1,13.6,11.1,20.5h0Z"/>
  <path class="st1" d="M165.5,16.4v121.4c0,2.7-1.1,5.1-2.8,6.9-1.8,1.9-4.4,3.1-7.2,3.1H21.1c-5.5,0-10-4.5-10-10V10c0-.7,0-1.4.2-2.1,1-4.5,5-7.9,9.8-7.9h128.6c1.1,0,2.1,0,3.2.1,1.2.1,2.4.4,3.6.9.3.1.7.3,1,.5,1.7,1,3.4,2.2,4.8,3.6,1.4,1.4,2.4,3,2.9,4.9,0,0,0,.1,0,.1,0,.3.1.6.2.8.3,1.7.1,3.6.1,5.4h0Z"/>
  <path class="st2" d="M177.6,33.9c1.4,39.8,1.7,80.4,1.8,120.3,0,.4,0,1,0,1.4-.5,5.1-2,10.1-4.6,14.6-5.8,10.9-17.5,15.4-28.6,14.3-30.5-.1-64.6-.5-95.1-1.2-10.6-.3-21.1-.5-31.7-.9v-.7c10.6-.4,21.1-.6,31.7-.9,18.2-.5,44.9-.8,63.4-1,10.6,0,21.2-.2,31.8-.2,10,.9,19.5-3,24.2-11.9,2.1-3.8,3.5-8.2,4-12.6,0-.8,0-5.6,0-6.4.1-23.8.5-49.4,1.1-73.1.3-13.9.7-27.9,1.3-41.8h.7Z"/>
</svg>