<?xml version="1.0" encoding="UTF-8"?>
<svg id="Layer_1" xmlns="http://www.w3.org/2000/svg" xmlns:xlink="http://www.w3.org/1999/xlink" version="1.1" viewBox="0 0 1036.4 521.7">
  <!-- Generator: Adobe Illustrator 30.4.0, SVG Export Plug-In . SVG Version: 2.1.4 Build 226)  -->
  <defs>
    <style>
      .st0, .st1, .st2, .st3, .st4 {
        fill: none;
      }

      .st5 {
        isolation: isolate;
        opacity: .8;
      }

      .st5, .st6 {
        fill: #9b3d32;
      }

      .st1 {
        stroke: #f5d7d5;
        stroke-width: 2.7px;
      }

      .st1, .st7, .st2, .st3 {
        stroke-miterlimit: 10;
      }

      .st8 {
        fill: #27417e;
      }

      .st9 {
        fill: #30797f;
      }

      .st7 {
        stroke: #732229;
        stroke-width: 5.8px;
      }

      .st7, .st10 {
        fill: #fff;
      }

      .st11 {
        fill: #7d8ac1;
      }

      .st12 {
        fill: #f1b443;
      }

      .st13 {
        fill: #b0b3d7;
      }

      .st14 {
        fill: #4f5fa6;
      }

      .st15 {
        fill: #732229;
      }

      .st16 {
        fill: #f1cbdd;
      }

      .st17 {
        fill: url(#linear-gradient);
      }

      .st18 {
        fill: #9bcec2;
      }

      .st19 {
        fill: #e79dbf;
      }

      .st2, .st3, .st4 {
        stroke: #27417e;
      }

      .st2, .st4 {
        stroke-width: 1.7px;
      }

      .st3 {
        stroke-width: 1px;
      }

      .st20 {
        clip-path: url(#clippath-1);
      }

      .st21 {
        fill: #4269ae;
      }

      .st22 {
        fill: #47909b;
      }

      .st23 {
        fill: #732228;
      }

      .st24 {
        fill: #11314b;
      }

      .st25 {
        fill: #93b8df;
      }

      .st26 {
        fill: #dadf50;
      }

      .st27 {
        fill: #de9dc0;
      }

      .st28 {
        fill: #67afe0;
      }

      .st4 {
        stroke-linecap: round;
        stroke-linejoin: round;
      }

      .st29 {
        fill: #edeae5;
      }

      .st30 {
        opacity: .2;
      }

      .st31 {
        fill: #e1908c;
      }

      .st32 {
        fill: #f9e6e1;
      }

      .st33 {
        fill: #f3f3f3;
      }

      .st34 {
        fill: #2f787f;
      }

      .st35 {
        fill: #eba6a0;
      }

      .st36 {
        fill: #7498c5;
      }

      .st37 {
        fill: #e58466;
      }

      .st38 {
        clip-path: url(#clippath);
      }
    </style>
    <clipPath id="clippath">
      <rect class="st0" x="-.3" y="-.2" width="1037" height="522.1"/>
    </clipPath>
    <linearGradient id="linear-gradient" x1="-2777.1" y1="-1390.3" x2="-2777.1" y2="-1626.9" gradientTransform="translate(-1839.0024 1619.7417) scale(-1 1)" gradientUnits="userSpaceOnUse">
      <stop offset="0" stop-color="#eba6a0" stop-opacity=".6"/>
      <stop offset=".3" stop-color="#cca6b3" stop-opacity=".8"/>
      <stop offset=".8" stop-color="#a9a7c9" stop-opacity=".9"/>
      <stop offset="1" stop-color="#9ca8d2"/>
    </linearGradient>
    <clipPath id="clippath-1">
      <rect class="st0" x="-.3" y="383.9" width="1037" height="138"/>
    </clipPath>
  </defs>
  <rect class="st13" x="-.3" y="-.2" width="1037" height="522.1"/>
  <g class="st38">
    <g>
      <rect class="st17" x="819.8" y="-16" width="236.6" height="364.8"/>
      <rect class="st33" x="819.8" y="-16" width="19.3" height="364.8"/>
      <rect class="st33" x="938.4" y="-16" width="6.2" height="364.8"/>
      <rect class="st33" x="819.8" y="-16" width="19.3" height="364.8"/>
      <rect class="st33" x="938.4" y="-16" width="6.2" height="364.8"/>
      <rect class="st33" x="819.8" y="166.4" width="236.7" height="19.3"/>
      <rect class="st33" x="819.8" y="329.5" width="236.6" height="19.3"/>
    </g>
  </g>
  <rect class="st5" x="-.3" y="383.9" width="1037" height="138"/>
  <g class="st20">
    <g>
      <g class="st30">
        <path class="st1" d="M-8.4,399.5c4.9,0,4.9-.1,9.7-.1s4.9.2,9.7.2,4.9-.5,9.7-.5,4.9.2,9.7.2,4.9.4,9.7.4,4.9-.5,9.7-.5,4.9,0,9.7,0,4.9.4,9.7.4,4.9-.5,9.7-.5,4.9.2,9.7.2,4.9-.2,9.7-.2,4.9,0,9.7,0,4.9,0,9.7,0,4.9.2,9.7.2,4.9-.2,9.7-.2,4.9.1,9.7.1,4.9.2,9.7.2,4.9-.2,9.7-.2,4.9.2,9.7.2,4.9-.6,9.7-.6,4.9.4,9.7.4,4.9-.2,9.7-.2,4.9,0,9.7,0,4.9,0,9.7,0,4.9.3,9.7.3,4.9.2,9.7.2,4.9-.2,9.7-.2,4.9-.3,9.7-.3,4.9.4,9.7.4,4.9-.4,9.7-.4,4.9,0,9.7,0,4.9.2,9.7.2,4.9.3,9.7.3,4.9,0,9.7,0,4.9-.3,9.7-.3,4.9.2,9.7.2,4.9,0,9.7,0,4.9,0,9.7,0,4.9-.1,9.7-.1,4.9-.1,9.7-.1,4.9.2,9.7.2,4.9,0,9.7,0,4.9-.4,9.7-.4,4.9.2,9.7.2,4.9.2,9.7.2,4.9-.5,9.7-.5,4.9.1,9.7.1,4.9.2,9.7.2h9.7c4.9,0,4.9-.5,9.7-.5s4.9,0,9.7,0,4.9,0,9.7,0,4.9.4,9.7.4,4.9-.5,9.7-.5,4.9.4,9.7.4,4.9-.3,9.7-.3,4.9.1,9.7.1,4.9,0,9.7,0,4.9,0,9.7,0,4.9.4,9.7.4,4.9-.6,9.7-.6,4.9,0,9.7,0,4.9.5,9.7.5,4.9-.3,9.7-.3,4.9.1,9.7.1,4.9-.1,9.7-.1,4.9-.2,9.7-.2,4.9.3,9.7.3,4.9-.3,9.7-.3,4.9.3,9.7.3,4.9-.1,9.7-.1,4.9,0,9.7,0,4.9.5,9.7.5,4.9-.3,9.7-.3,4.9-.2,9.7-.2,4.9.3,9.7.3,4.9-.3,9.7-.3,4.9,0,9.7,0,4.9.4,9.7.4,4.9-.2,9.7-.2h9.7c4.9,0,4.9.1,9.7.1s4.9,0,9.7,0,4.9-.3,9.7-.3h9.7c4.9,0,4.9-.2,9.7-.2s4.9,0,9.7,0,4.9,0,9.7,0h9.7c4.9,0,4.9.3,9.7.3s4.9-.2,9.7-.2,4.9.1,9.7.1,4.9-.2,9.7-.2,4.9.4,9.7.4,4.9-.5,9.7-.5,4.9.2,9.7.2,4.9-.1,9.7-.1,4.9.1,9.7.1,4.9.2,9.7.2,4.9-.5,9.7-.5,4.9.3,9.7.3,4.9,0,9.7,0,4.9.3,9.7.3,4.9-.2,9.7-.2,4.9.2,9.7.2,4.9.1,9.7.1,4.9-.5,9.7-.5,4.9,0,9.7,0,4.9.4,9.7.4,4.9-.1,9.7-.1,4.9-.5,9.7-.5,4.9.6,9.7.6,4.9,0,9.7,0"/>
      </g>
      <g class="st30">
        <path class="st1" d="M-8.4,420.8c4.9,0,4.9-.3,9.7-.3s4.9.1,9.7.1,4.9,0,9.7,0,4.9,0,9.7,0,4.9.4,9.7.4,4.9-.6,9.7-.6,4.9,0,9.7,0,4.9.5,9.7.5,4.9-.3,9.7-.3,4.9.1,9.7.1,4.9-.1,9.7-.1,4.9-.2,9.7-.2,4.9.3,9.7.3,4.9-.3,9.7-.3,4.9.3,9.7.3,4.9-.1,9.7-.1,4.9,0,9.7,0,4.9.5,9.7.5,4.9-.3,9.7-.3,4.9-.2,9.7-.2,4.9.3,9.7.3,4.9-.3,9.7-.3,4.9,0,9.7,0,4.9.4,9.7.4,4.9-.2,9.7-.2h9.7c4.9,0,4.9.1,9.7.1s4.9,0,9.7,0,4.9-.3,9.7-.3h9.7c4.9,0,4.9-.2,9.7-.2s4.9,0,9.7,0,4.9,0,9.7,0h9.7c4.9,0,4.9.3,9.7.3s4.9-.2,9.7-.2,4.9.1,9.7.1,4.9-.2,9.7-.2,4.9.4,9.7.4,4.9-.5,9.7-.5,4.9.2,9.7.2,4.9-.1,9.7-.1,4.9.1,9.7.1,4.9.2,9.7.2,4.9-.5,9.7-.5,4.9.3,9.7.3,4.9,0,9.7,0,4.9.3,9.7.3,4.9-.2,9.7-.2,4.9.2,9.7.2,4.9.1,9.7.1,4.9-.5,9.7-.5,4.9,0,9.7,0,4.9.4,9.7.4,4.9-.1,9.7-.1,4.9-.5,9.7-.5,4.9.6,9.7.6,4.9,0,9.7,0,4.9-.1,9.7-.1,4.9-.4,9.7-.4,4.9.3,9.7.3,4.9-.2,9.7-.2,4.9.3,9.7.3,4.9,0,9.7,0,4.9,0,9.7,0,4.9-.4,9.7-.4h9.7c4.9,0,4.9.1,9.7.1s4.9,0,9.7,0,4.9.4,9.7.4,4.9-.2,9.7-.2,4.9,0,9.7,0,4.9.1,9.7.1,4.9,0,9.7,0,4.9,0,9.7,0,4.9-.2,9.7-.2,4.9.4,9.7.4,4.9-.3,9.7-.3,4.9.3,9.7.3,4.9.1,9.7.1,4.9-.5,9.7-.5,4.9.3,9.7.3h9.7c4.9,0,4.9-.3,9.7-.3s4.9,0,9.7,0,4.9.4,9.7.4,4.9-.3,9.7-.3,4.9,0,9.7,0,4.9.2,9.7.2,4.9,0,9.7,0,4.9,0,9.7,0,4.9-.4,9.7-.4,4.9.2,9.7.2,4.9.2,9.7.2,4.9,0,9.7,0,4.9,0,9.7,0,4.9.2,9.7.2,4.9-.2,9.7-.2,4.9.1,9.7.1,4.9,0,9.7,0,4.9.4,9.7.4,4.9-.1,9.7-.1,4.9,0,9.7,0,4.9-.3,9.7-.3,4.9-.1,9.7-.1,4.9.3,9.7.3,4.9-.3,9.7-.3,4.9.4,9.7.4,4.9,0,9.7,0,4.9-.6,9.7-.6,4.9.1,9.7.1,4.9.2,9.7.2,4.9,0,9.7,0"/>
      </g>
      <g class="st30">
        <path class="st1" d="M-8.4,442c4.9,0,4.9.4,9.7.4s4.9-.3,9.7-.3,4.9-.3,9.7-.3,4.9.6,9.7.6,4.9-.5,9.7-.5,4.9.5,9.7.5,4.9-.2,9.7-.2,4.9-.2,9.7-.2,4.9-.1,9.7-.1,4.9,0,9.7,0,4.9.3,9.7.3,4.9-.3,9.7-.3,4.9.4,9.7.4,4.9-.2,9.7-.2,4.9-.3,9.7-.3,4.9.4,9.7.4h9.7c4.9,0,4.9,0,9.7,0h9.7c4.9,0,4.9-.2,9.7-.2s4.9.1,9.7.1,4.9.3,9.7.3,4.9-.4,9.7-.4,4.9,0,9.7,0,4.9.5,9.7.5,4.9-.4,9.7-.4,4.9-.1,9.7-.1,4.9.2,9.7.2,4.9.3,9.7.3,4.9-.6,9.7-.6,4.9.3,9.7.3,4.9,0,9.7,0,4.9-.1,9.7-.1,4.9,0,9.7,0,4.9.4,9.7.4,4.9-.4,9.7-.4,4.9.1,9.7.1,4.9-.2,9.7-.2,4.9.3,9.7.3,4.9-.4,9.7-.4,4.9.3,9.7.3,4.9-.3,9.7-.3,4.9.4,9.7.4,4.9.1,9.7.1,4.9-.3,9.7-.3,4.9,0,9.7,0,4.9.2,9.7.2,4.9,0,9.7,0,4.9-.3,9.7-.3,4.9,0,9.7,0,4.9-.1,9.7-.1,4.9.4,9.7.4h9.7c4.9,0,4.9,0,9.7,0s4.9-.5,9.7-.5,4.9.1,9.7.1,4.9-.1,9.7-.1,4.9,0,9.7,0,4.9.3,9.7.3,4.9,0,9.7,0,4.9-.4,9.7-.4,4.9.1,9.7.1,4.9,0,9.7,0,4.9.3,9.7.3,4.9-.4,9.7-.4,4.9.4,9.7.4,4.9-.3,9.7-.3,4.9,0,9.7,0,4.9,0,9.7,0,4.9.2,9.7.2,4.9.1,9.7.1,4.9-.2,9.7-.2,4.9-.2,9.7-.2,4.9-.2,9.7-.2,4.9.1,9.7.1,4.9,0,9.7,0,4.9.4,9.7.4,4.9-.2,9.7-.2,4.9-.1,9.7-.1,4.9.2,9.7.2,4.9-.2,9.7-.2,4.9,0,9.7,0,4.9.4,9.7.4,4.9-.2,9.7-.2,4.9,0,9.7,0,4.9.2,9.7.2h19.4c4.9,0,4.9-.1,9.7-.1s4.9,0,9.7,0,4.9,0,9.7,0,4.9-.4,9.7-.4,4.9-.2,9.7-.2,4.9.5,9.7.5,4.9,0,9.7,0,4.9-.5,9.7-.5,4.9.3,9.7.3,4.9-.3,9.7-.3,4.9.1,9.7.1,4.9.4,9.7.4,4.9,0,9.7,0,4.9,0,9.7,0,4.9-.3,9.7-.3,4.9-.1,9.7-.1,4.9.2,9.7.2,4.9.1,9.7.1,4.9-.1,9.7-.1,4.9,0,9.7,0,4.9,0,9.7,0,4.9.3,9.7.3,4.9,0,9.7,0,4.9,0,9.7,0,4.9.1,9.7.1"/>
      </g>
      <g class="st30">
        <path class="st1" d="M-8.4,463.4c4.9,0,4.9.4,9.7.4s4.9-.3,9.7-.3,4.9.1,9.7.1,4.9-.2,9.7-.2,4.9.1,9.7.1,4.9,0,9.7,0,4.9-.3,9.7-.3,4.9,0,9.7,0,4.9.4,9.7.4,4.9-.4,9.7-.4,4.9.4,9.7.4,4.9-.3,9.7-.3,4.9-.1,9.7-.1,4.9.3,9.7.3,4.9,0,9.7,0,4.9,0,9.7,0,4.9.1,9.7.1,4.9,0,9.7,0,4.9-.5,9.7-.5,4.9.4,9.7.4,4.9-.2,9.7-.2,4.9.4,9.7.4,4.9,0,9.7,0,4.9-.2,9.7-.2,4.9-.3,9.7-.3,4.9-.1,9.7-.1,4.9.2,9.7.2,4.9,0,9.7,0,4.9.1,9.7.1,4.9-.2,9.7-.2,4.9.6,9.7.6,4.9,0,9.7,0,4.9-.2,9.7-.2,4.9-.2,9.7-.2,4.9.5,9.7.5,4.9-.4,9.7-.4,4.9.2,9.7.2,4.9-.4,9.7-.4,4.9-.1,9.7-.1,4.9.3,9.7.3,4.9,0,9.7,0,4.9.2,9.7.2,4.9.2,9.7.2,4.9-.6,9.7-.6,4.9,0,9.7,0,4.9,0,9.7,0,4.9.2,9.7.2,4.9.2,9.7.2,4.9-.4,9.7-.4,4.9,0,9.7,0,4.9.3,9.7.3,4.9-.1,9.7-.1,4.9-.1,9.7-.1,4.9.4,9.7.4,4.9-.1,9.7-.1,4.9-.3,9.7-.3h9.7c4.9,0,4.9-.2,9.7-.2s4.9.3,9.7.3,4.9-.2,9.7-.2,4.9.5,9.7.5,4.9-.3,9.7-.3,4.9,0,9.7,0,4.9.3,9.7.3,4.9,0,9.7,0,4.9,0,9.7,0,4.9-.5,9.7-.5,4.9.4,9.7.4,4.9-.5,9.7-.5,4.9.1,9.7.1,4.9.4,9.7.4,4.9-.1,9.7-.1,4.9,0,9.7,0h9.7q4.9,0,9.7,0c4.9,0,4.9.3,9.7.3s4.9-.1,9.7-.1,4.9-.2,9.7-.2h9.7c4.9,0,4.9.3,9.7.3s4.9,0,9.7,0,4.9.1,9.7.1h9.7c4.9,0,4.9-.6,9.7-.6s4.9.5,9.7.5,4.9-.1,9.7-.1,4.9-.1,9.7-.1,4.9.2,9.7.2,4.9-.4,9.7-.4,4.9,0,9.7,0,4.9.3,9.7.3,4.9-.5,9.7-.5,4.9.2,9.7.2,4.9.2,9.7.2,4.9,0,9.7,0,4.9-.5,9.7-.5,4.9.5,9.7.5,4.9-.1,9.7-.1,4.9,0,9.7,0,4.9,0,9.7,0,4.9-.2,9.7-.2,4.9.2,9.7.2,4.9.3,9.7.3,4.9,0,9.7,0,4.9-.4,9.7-.4,4.9,0,9.7,0,4.9-.1,9.7-.1,4.9,0,9.7,0,4.9.4,9.7.4,4.9-.4,9.7-.4,4.9.2,9.7.2,4.9.2,9.7.2,4.9,0,9.7,0"/>
      </g>
      <g class="st30">
        <path class="st1" d="M-8.4,485c4.9,0,4.9-.3,9.7-.3h9.7c4.9,0,4.9-.2,9.7-.2s4.9.3,9.7.3,4.9-.2,9.7-.2,4.9.5,9.7.5,4.9-.3,9.7-.3,4.9,0,9.7,0,4.9.3,9.7.3,4.9,0,9.7,0,4.9,0,9.7,0,4.9-.5,9.7-.5,4.9.4,9.7.4,4.9-.5,9.7-.5,4.9.1,9.7.1,4.9.4,9.7.4,4.9-.1,9.7-.1,4.9,0,9.7,0h9.7q4.9,0,9.7,0c4.9,0,4.9.3,9.7.3s4.9-.1,9.7-.1,4.9-.2,9.7-.2h9.7c4.9,0,4.9.3,9.7.3s4.9,0,9.7,0,4.9.1,9.7.1h9.7c4.9,0,4.9-.6,9.7-.6s4.9.5,9.7.5,4.9-.1,9.7-.1,4.9-.1,9.7-.1,4.9.2,9.7.2,4.9-.4,9.7-.4,4.9,0,9.7,0,4.9.3,9.7.3,4.9-.5,9.7-.5,4.9.2,9.7.2,4.9.2,9.7.2,4.9,0,9.7,0,4.9-.5,9.7-.5,4.9.5,9.7.5,4.9-.1,9.7-.1,4.9,0,9.7,0,4.9,0,9.7,0,4.9-.2,9.7-.2,4.9.2,9.7.2,4.9.3,9.7.3,4.9,0,9.7,0,4.9-.4,9.7-.4,4.9,0,9.7,0,4.9-.1,9.7-.1,4.9,0,9.7,0,4.9.4,9.7.4,4.9-.4,9.7-.4,4.9.2,9.7.2,4.9.2,9.7.2,4.9,0,9.7,0,4.9,0,9.7,0,4.9-.1,9.7-.1,4.9.2,9.7.2,4.9-.5,9.7-.5,4.9.2,9.7.2,4.9.4,9.7.4,4.9-.5,9.7-.5,4.9,0,9.7,0,4.9.4,9.7.4,4.9-.5,9.7-.5,4.9.2,9.7.2,4.9-.2,9.7-.2,4.9,0,9.7,0,4.9,0,9.7,0,4.9.2,9.7.2,4.9-.2,9.7-.2,4.9.1,9.7.1,4.9.2,9.7.2,4.9-.2,9.7-.2,4.9.2,9.7.2,4.9-.6,9.7-.6,4.9.4,9.7.4,4.9-.2,9.7-.2,4.9,0,9.7,0,4.9,0,9.7,0,4.9.3,9.7.3,4.9.2,9.7.2,4.9-.2,9.7-.2,4.9-.3,9.7-.3,4.9.4,9.7.4,4.9-.4,9.7-.4,4.9,0,9.7,0,4.9.2,9.7.2,4.9.3,9.7.3,4.9,0,9.7,0,4.9-.3,9.7-.3,4.9.2,9.7.2,4.9,0,9.7,0,4.9,0,9.7,0,4.9-.1,9.7-.1,4.9-.1,9.7-.1,4.9.2,9.7.2,4.9,0,9.7,0,4.9-.4,9.7-.4,4.9.2,9.7.2,4.9.2,9.7.2,4.9-.5,9.7-.5,4.9.1,9.7.1,4.9.2,9.7.2h9.7c4.9,0,4.9-.5,9.7-.5s4.9,0,9.7,0,4.9,0,9.7,0,4.9.4,9.7.4,4.9-.5,9.7-.5"/>
      </g>
      <g class="st30">
        <path class="st1" d="M-8.4,506.2c4.9,0,4.9.2,9.7.2s4.9-.3,9.7-.3,4.9,0,9.7,0,4.9,0,9.7,0,4.9-.4,9.7-.4,4.9.6,9.7.6,4.9-.4,9.7-.4,4.9.1,9.7.1,4.9,0,9.7,0,4.9.3,9.7.3,4.9,0,9.7,0,4.9-.1,9.7-.1,4.9-.4,9.7-.4,4.9.4,9.7.4,4.9.1,9.7.1,4.9-.6,9.7-.6,4.9.5,9.7.5,4.9-.4,9.7-.4,4.9,0,9.7,0,4.9,0,9.7,0,4.9.5,9.7.5,4.9,0,9.7,0,4.9,0,9.7,0,4.9-.4,9.7-.4,4.9,0,9.7,0,4.9.2,9.7.2,4.9,0,9.7,0,4.9.3,9.7.3h9.7c4.9,0,4.9-.4,9.7-.4s4.9.2,9.7.2,4.9-.3,9.7-.3,4.9.4,9.7.4,4.9-.3,9.7-.3,4.9,0,9.7,0,4.9,0,9.7,0,4.9,0,9.7,0,4.9.2,9.7.2,4.9-.1,9.7-.1,4.9,0,9.7,0,4.9.4,9.7.4,4.9-.5,9.7-.5,4.9.5,9.7.5,4.9-.4,9.7-.4,4.9.1,9.7.1,4.9-.2,9.7-.2,4.9.3,9.7.3,4.9-.3,9.7-.3,4.9.3,9.7.3,4.9,0,9.7,0,4.9.2,9.7.2,4.9-.5,9.7-.5,4.9.4,9.7.4,4.9-.2,9.7-.2,4.9,0,9.7,0,4.9.2,9.7.2,4.9-.1,9.7-.1,4.9,0,9.7,0,4.9.3,9.7.3,4.9-.3,9.7-.3,4.9.4,9.7.4,4.9-.2,9.7-.2,4.9-.3,9.7-.3,4.9.2,9.7.2,4.9,0,9.7,0,4.9,0,9.7,0,4.9-.1,9.7-.1,4.9,0,9.7,0,4.9-.2,9.7-.2,4.9,0,9.7,0,4.9.4,9.7.4,4.9,0,9.7,0,4.9-.4,9.7-.4,4.9.3,9.7.3,4.9-.3,9.7-.3,4.9.4,9.7.4,4.9-.2,9.7-.2,4.9,0,9.7,0,4.9.1,9.7.1,4.9-.3,9.7-.3,4.9.3,9.7.3,4.9.1,9.7.1,4.9,0,9.7,0,4.9.2,9.7.2,4.9-.2,9.7-.2,4.9-.3,9.7-.3,4.9.1,9.7.1,4.9.4,9.7.4,4.9-.5,9.7-.5,4.9,0,9.7,0,4.9.2,9.7.2,4.9.4,9.7.4,4.9,0,9.7,0,4.9-.5,9.7-.5,4.9.3,9.7.3,4.9,0,9.7,0,4.9.3,9.7.3,4.9-.3,9.7-.3,4.9-.1,9.7-.1,4.9,0,9.7,0,4.9.3,9.7.3,4.9.2,9.7.2,4.9,0,9.7,0,4.9-.2,9.7-.2,4.9-.3,9.7-.3,4.9.4,9.7.4,4.9.2,9.7.2,4.9-.3,9.7-.3,4.9.3,9.7.3,4.9-.5,9.7-.5,4.9,0,9.7,0,4.9,0,9.7,0,4.9.6,9.7.6"/>
      </g>
    </g>
  </g>
  <rect class="st15" x="569.7" y="269.3" width="290.2" height="91.5"/>
  <polygon class="st37" points="589.4 435.9 583.5 435.9 580.5 360.9 594.4 360.9 589.4 435.9"/>
  <polygon class="st37" points="850.3 435.9 844.5 435.9 841.4 360.9 855.4 360.9 850.3 435.9"/>
  <rect class="st8" x="591.2" y="252.4" width="81.6" height="16.9"/>
  <rect class="st22" x="596.5" y="235.6" width="65.3" height="16.9"/>
  <rect class="st37" x="664.4" y="205" width="16.9" height="65.3" transform="translate(-28.7 368.2) rotate(-30)"/>
  <path class="st28" d="M581,280c.2,10,.6,24.6.7,34.8l-1.2-1.2c22.3-.2,44.7-.6,67-.7,44.7-.2,89.3-.1,134,.4,22.3.2,44.7.5,67,1v1c-89.3,1.8-178.6,1.9-268,.7h-1.2s0-1.2,0-1.2c.4-10.2.3-24.7.7-34.8h1Z"/>
  <path class="st28" d="M860.2,351c-.5-17.1-1-36.2-1.2-53.3l-.3-17.8,2.3,2.3c-81.3,1-164.1.8-245.5-.7-11.7-.2-23.4-.5-35.1-.8v-1.5c11.7-.4,23.4-.6,35.1-.8,82.2-1.6,165.7-1.7,247.8-.7-.2,17.4-.6,38.1-1.1,55.5-.1,5.9-.3,11.8-.5,17.8h-1.5Z"/>
  <rect class="st7" x="450.6" y="240.8" width="98.4" height="97.4"/>
  <rect class="st15" x="457.6" y="290" width="41.9" height="41.9"/>
  <path class="st29" d="M490.4,305.7c-.2-.4,0-.9.1-1.3.2-.5.3-.9.4-1.4.2-1,0-2.1-.4-3-.4-.9-1.2-1.7-2.2-2.1-.5-.2-1-.4-1.5-.5-1-.2-2.1,0-3.1.2-.5.1-.8.3-1.2.5-.3.2-.6.5-1,.4-.6,0-1-1-1.4-1.5-.9-1.4-2.6-2.3-4.4-2.3-.8,0-1.7.2-2.4.6-1.7.9-2.3,2.1-2.9,3.9-.2.7-.8.8-1.5.9-1.4,0-2.8.5-3.9,1.4-1.2.9-1.9,2.4-2.1,3.9-.2,1.6.2,3,1.1,4.3.1.2.3.5.2.7-.1.6-.6,1.2-.8,1.8-.8,1.8-.8,4.2,0,6,.5,1.2,1.7,2.1,2.9,2.6.6.2,1.3.2,1.9.4.2,0,.3,0,.4.2.2.2.1.6.2.9,0,.4.2.8.3,1.2.7,2.1,2.3,3.3,4.5,3.4,1.8,0,3.4-.7,4.7-2s.5-.5.7-.7c.8-.6,1.5-.1,2.1.4,3,2.9,7,1.7,8-2.4.2-.9.3-1.9.3-2.8s0-1,.3-1.4c.4-.5.9-.3,1.5-.5,1-.4,1.9-1.1,2.4-2,.9-1.4,1.1-3.2.8-4.8-.3-1.2-.9-2.5-1.9-3.3-.5-.4-.8-.6-1.4-.8-.5-.2-.9-.4-1.1-.9h0Z"/>
  <circle class="st27" cx="479.1" cy="310.8" r="6"/>
  <rect class="st22" x="457.6" y="248.1" width="41.9" height="41.9"/>
  <path class="st29" d="M490.4,263.8c-.2-.4,0-.9.1-1.3.2-.5.3-.9.4-1.4.2-1,0-2.1-.4-3-.4-.9-1.2-1.7-2.2-2.1-.5-.2-1-.4-1.5-.5-1-.2-2.1,0-3.1.2-.5.1-.8.3-1.2.5-.3.2-.6.5-1,.4-.6,0-1-1.1-1.4-1.5-.9-1.4-2.6-2.3-4.4-2.3-.8,0-1.7.2-2.4.6-1.7.9-2.3,2.1-2.9,3.9-.2.7-.8.8-1.5.9-1.4,0-2.8.5-3.9,1.4-1.2.9-1.9,2.4-2.1,3.9-.2,1.6.2,3,1.1,4.3.1.2.3.5.2.7-.1.6-.6,1.2-.8,1.8-.8,1.8-.8,4.2,0,6,.5,1.2,1.7,2.1,2.9,2.6.6.2,1.3.2,1.9.4.2,0,.3,0,.4.2.2.2.1.6.2.9,0,.4.2.8.3,1.2.7,2.1,2.3,3.3,4.5,3.4,1.8,0,3.4-.7,4.7-2s.5-.5.7-.7c.8-.6,1.5-.1,2.1.4,3,2.9,7,1.7,8-2.4.2-.9.3-1.9.3-2.8s0-1,.3-1.4c.4-.5.9-.3,1.5-.5,1-.4,1.9-1.1,2.4-2,.9-1.4,1.1-3.2.8-4.8-.3-1.2-.9-2.5-1.9-3.3-.5-.4-.8-.6-1.4-.8-.5-.2-.9-.4-1.1-.9h0Z"/>
  <circle class="st37" cx="479.1" cy="268.9" r="6"/>
  <rect class="st27" x="499.5" y="290" width="41.9" height="41.9"/>
  <path class="st22" d="M532.3,305.7c-.2-.4,0-.9.1-1.3.2-.5.3-.9.4-1.4.2-1,0-2.1-.3-3-.4-.9-1.2-1.7-2.2-2.1-.5-.2-1-.4-1.5-.5-1-.2-2.1,0-3.1.2-.5.1-.8.3-1.2.5-.3.2-.6.5-1,.4-.6,0-1-1-1.3-1.5-.9-1.4-2.6-2.3-4.3-2.3-.8,0-1.7.2-2.4.6-1.7.9-2.3,2.1-2.8,3.9-.2.7-.8.8-1.5.9-1.4,0-2.8.5-3.9,1.4-1.2.9-1.9,2.4-2.1,3.9-.2,1.6.2,3,1.1,4.3.1.2.3.5.2.7-.1.6-.6,1.2-.8,1.8-.8,1.8-.8,4.2,0,6,.5,1.2,1.7,2.1,2.9,2.6.6.2,1.3.2,1.9.4.2,0,.3,0,.4.2.2.2.1.6.2.9,0,.4.2.8.3,1.2.7,2.1,2.3,3.3,4.5,3.4,1.8,0,3.4-.7,4.7-2,.2-.2.5-.5.7-.7.8-.6,1.5-.1,2.1.4,3,2.9,7,1.7,8-2.4.2-.9.3-1.9.3-2.8,0-.5,0-1,.3-1.4.4-.5.9-.3,1.5-.5,1-.4,1.9-1.1,2.4-2,.9-1.4,1.1-3.2.8-4.8-.3-1.2-.9-2.5-1.9-3.3-.5-.4-.8-.6-1.4-.8-.5-.2-.9-.4-1.1-.9h0Z"/>
  <circle class="st37" cx="521" cy="310.8" r="6"/>
  <rect class="st37" x="499.5" y="248.1" width="41.9" height="41.9"/>
  <path class="st15" d="M532.3,263.8c-.2-.4,0-.9.1-1.3.2-.5.3-.9.4-1.4.2-1,0-2.1-.3-3-.4-.9-1.2-1.7-2.2-2.1-.5-.2-1-.4-1.5-.5-1-.2-2.1,0-3.1.2-.5.1-.8.3-1.2.5-.3.2-.6.5-1,.4-.6,0-1-1.1-1.3-1.5-.9-1.4-2.6-2.3-4.3-2.3-.8,0-1.7.2-2.4.6-1.7.9-2.3,2.1-2.8,3.9-.2.7-.8.8-1.5.9-1.4,0-2.8.5-3.9,1.4-1.2.9-1.9,2.4-2.1,3.9-.2,1.6.2,3,1.1,4.3.1.2.3.5.2.7-.1.6-.6,1.2-.8,1.8-.8,1.8-.8,4.2,0,6,.5,1.2,1.7,2.1,2.9,2.6.6.2,1.3.2,1.9.4.2,0,.3,0,.4.2.2.2.1.6.2.9,0,.4.2.8.3,1.2.7,2.1,2.3,3.3,4.5,3.4,1.8,0,3.4-.7,4.7-2,.2-.2.5-.5.7-.7.8-.6,1.5-.1,2.1.4,3,2.9,7,1.7,8-2.4.2-.9.3-1.9.3-2.8,0-.5,0-1,.3-1.4.4-.5.9-.3,1.5-.5,1-.4,1.9-1.1,2.4-2,.9-1.4,1.1-3.2.8-4.8-.3-1.2-.9-2.5-1.9-3.3-.5-.4-.8-.6-1.4-.8-.5-.2-.9-.4-1.1-.9h0Z"/>
  <circle class="st29" cx="521" cy="268.9" r="6"/>
  <rect class="st10" x="602.6" y="37.3" width="108.4" height="144.3"/>
  <rect class="st9" x="629.3" y="101.3" width="46.2" height="25"/>
  <path class="st16" d="M683.4,64.8l-4.8,47.2c-2.7,1-5.9,2.2-8.8,2.5-2.9.3-6-.3-8.3-2.2v-47.5h21.8Z"/>
  <path class="st16" d="M621.9,64.8l4.8,46.2c2.7,1,5.9,2.2,8.8,2.4,2.9.3,6-.3,8.3-2.1v-46.5h-21.8Z"/>
  <path class="st6" d="M663.1,64.8h-21.8l1.2,47.2s8.1,7,19,.4l1.6-47.5h0Z"/>
  <path class="st16" d="M683.4,172.6l-4.8-47.2c-2.7-1-5.9-2.2-8.8-2.5-2.9-.3-6,.3-8.3,2.2v47.5h21.8Z"/>
  <path class="st16" d="M621.9,172.6l4.8-46.2c2.7-1,5.9-2.2,8.8-2.4,2.9-.3,6,.3,8.3,2.1v46.5h-21.8Z"/>
  <path class="st6" d="M663.1,172.6h-21.8l1.2-47.2s8.1-7,19-.4l1.6,47.5h0Z"/>
  <polygon class="st6" points="683.4 64.8 652.2 53.5 621.9 64.8 683.4 64.8"/>
  <path class="st9" d="M681.3,80.5c2-1.7,4.2-3.2,6.5-4.4,1.4-.7,2.8-1.4,4.4-1.4.7,0,1.4,0,2,.5.8.5,1.3,1.4,1.6,2.4,1,3.4-.4,7-2,10.2s-3.6,6.3-3.9,9.8c-.2,2.3.3,4.7-.4,6.9-.4,1.3-2.3,2.2-2.5,3.6-.1.8.3,1.5.7,2.1.6.8,1.2,1.5,2,2.2.2.2.5.4.8.4.4,0,.9-.2,1.2-.4,1.7-1.3,2.8-3.2,3.8-5.1,2.6-4.9,4.7-10,6.8-15.2,1.2-2.8,1.5-5.2,2.2-8.2.3-1.4.7-2.8.6-4.2-.1-3.6-2.5-6.7-4.8-9.5-1.6-1.9-3.3-4-5.7-4.7-1.1-.3-2.2-.4-3.3-.4-3.1,0-6.2.1-9.2-.1.3,5.1-.3,10.6-.8,15.7h0Z"/>
  <polygon class="st35" points="663.1 64.8 652.2 53.5 641.3 64.8 663.1 64.8"/>
  <polygon class="st9" points="624.8 92.7 608.6 67.2 621.9 64.8 624.8 92.7"/>
  <path class="st6" d="M633.3,130.7c-.7-.2-1.4.3-1.7.9-.5,1-.3,2.3.4,3.2s2,1.1,3.1.8c.8-.3,1.4-1,1.7-1.8s0-1.7-.6-2.4c-.7-.8-1.8-.9-2.9-.9"/>
  <path class="st9" d="M658.5,46.1c0-.3.2-.7.1-1,0-.7-.7-1.3-1.3-1.7-1.2-.7-2.5-.8-3.9-1-1.7-.1-3.8,0-4.8,1.4-1,1.3-.5,3.1-.2,4.7.3,1.3.5,6,1.2,6.5.4.3,1.1.3,1.6.3.9,0,1.8,0,2.8,0s2,.2,2.6-.9c.6-1.1.7-2.7.9-4,.3-1.5.7-3,1-4.5Z"/>
  <rect class="st10" x="429.7" y="117.8" width="161.9" height="105.6"/>
  <path class="st9" d="M440.2,186.8c5.9-12.1,24-3,18.3,8.8s-24.1,3.4-18.3-8.8ZM453.8,193.4h0c1.5-3.2.7-5.4-2.3-6.8-2.9-1.4-5.1-.7-6.6,2.5-1.5,3.1-.7,5.3,2.2,6.7,3,1.4,5.1.8,6.7-2.4h0Z"/>
  <path class="st9" d="M459.8,173.1l7.5,5.9-3.1,4-15-11.7,3.6-4.7c5.4,2.2,12.4,2.9,12.4,2.9l-9.1-7.1,3.1-4,15,11.7-3.3,4.2s-6.2,0-11.2-1.1h0Z"/>
  <path class="st9" d="M471.5,159.7c-3.7-5.7-1.3-13.8,6.8-15.2l3,4.6c-4.7-.4-8.1,3.8-5.5,7.8,2.7,4.2,7.8,2.5,9.4-1.8l2.9,4.5c-4.4,7-13.1,5.6-16.7.1h0Z"/>
  <path class="st9" d="M487.6,140.3l10.2-2.4,1,4.4-4.3,1c-.8.2-1.1.7-.9,1.6.2.9.7,1.3,1.5,1.1l4.1-.9,1,4.4-4.1.9c-.8.2-1.1.8-.9,1.7.2,1,.7,1.3,1.5,1.2l4.4-1,1,4.4-10.2,2.4-4.3-18.6h0Z"/>
  <path class="st9" d="M516.2,150.2l3.1-12.2,4.8,1.2-3.1,12.2c-.3,1.4.2,2.2,1.6,2.5h.1c1.5.4,2.3,0,2.7-1.4l3.1-12.2,4.9,1.2-3.1,12.2c-.6,2.2-2.2,6.6-8.6,5h-.3c-6.3-1.7-5.7-6.3-5.2-8.6h0Z"/>
  <path class="st9" d="M542,145.2l5.1,2.9c2.8,1.6,6.7,4.4,3.8,9.4-2.9,5.1-7.4,3.4-9.2,2.4l-1.9-1.1-3.1,5.4-4.3-2.5,9.5-16.5h0ZM543.4,156.1h.1c1.4.9,2.5.6,3.2-.7.8-1.4.4-2.5-.9-3.2h-.1c-1.4-.9-2.5-.6-3.2.7-.8,1.4-.5,2.4.9,3.2Z"/>
  <path class="st9" d="M565.9,161.7c9.1,9.9-6.1,23.4-15,13.7-8.9-9.7,5.9-23.7,15-13.7ZM554.8,171.9h0c2.3,2.6,4.7,2.7,7.1.4,2.4-2.2,2.5-4.5.1-7-2.3-2.5-4.7-2.7-7-.5-2.4,2.2-2.6,4.5-.3,7.1h0Z"/>
  <path class="st9" d="M570.2,185.6l-8.5,4.4-2.4-4.5,16.9-8.8,2.8,5.3c-4.2,4.1-7.8,10.1-7.8,10.1l10.2-5.3,2.4,4.5-16.9,8.8-2.5-4.7s2.7-5.7,5.7-9.7h0Z"/>
  <path class="st9" d="M440.2,186.8c5.9-12.1,24-3,18.3,8.8s-24.1,3.4-18.3-8.8ZM453.8,193.4h0c1.5-3.2.7-5.4-2.3-6.8-2.9-1.4-5.1-.7-6.6,2.5-1.5,3.1-.7,5.3,2.2,6.7,3,1.4,5.1.8,6.7-2.4h0Z"/>
  <path class="st36" d="M459.8,173.1l7.5,5.9-3.1,4-15-11.7,3.6-4.7c5.4,2.2,12.4,2.9,12.4,2.9l-9.1-7.1,3.1-4,15,11.7-3.3,4.2s-6.2,0-11.2-1.1h0Z"/>
  <path class="st27" d="M471.5,159.7c-3.7-5.7-1.3-13.8,6.8-15.2l3,4.6c-4.7-.4-8.1,3.8-5.5,7.8,2.7,4.2,7.8,2.5,9.4-1.8l2.9,4.5c-4.4,7-13.1,5.6-16.7.1h0Z"/>
  <path class="st15" d="M487.6,140.3l10.2-2.4,1,4.4-4.3,1c-.8.2-1.1.7-.9,1.6.2.9.7,1.3,1.5,1.1l4.1-.9,1,4.4-4.1.9c-.8.2-1.1.8-.9,1.7.2,1,.7,1.3,1.5,1.2l4.4-1,1,4.4-10.2,2.4-4.3-18.6h0Z"/>
  <path class="st37" d="M516.2,150.2l3.1-12.2,4.8,1.2-3.1,12.2c-.3,1.4.2,2.2,1.6,2.5h.1c1.5.4,2.3,0,2.7-1.4l3.1-12.2,4.9,1.2-3.1,12.2c-.6,2.2-2.2,6.6-8.6,5h-.3c-6.3-1.7-5.7-6.3-5.2-8.6h0Z"/>
  <path class="st27" d="M542,145.2l5.1,2.9c2.8,1.6,6.7,4.4,3.8,9.4-2.9,5.1-7.4,3.4-9.2,2.4l-1.9-1.1-3.1,5.4-4.3-2.5,9.5-16.5h0ZM543.4,156.1h.1c1.4.9,2.5.6,3.2-.7.8-1.4.4-2.5-.9-3.2h-.1c-1.4-.9-2.5-.6-3.2.7-.8,1.4-.5,2.4.9,3.2Z"/>
  <path class="st9" d="M565.9,161.7c9.1,9.9-6.1,23.4-15,13.7-8.9-9.7,5.9-23.7,15-13.7ZM554.8,171.9h0c2.3,2.6,4.7,2.7,7.1.4,2.4-2.2,2.5-4.5.1-7-2.3-2.5-4.7-2.7-7-.5-2.4,2.2-2.6,4.5-.3,7.1h0Z"/>
  <path class="st14" d="M570.2,185.6l-8.5,4.4-2.4-4.5,16.9-8.8,2.8,5.3c-4.2,4.1-7.8,10.1-7.8,10.1l10.2-5.3,2.4,4.5-16.9,8.8-2.5-4.7s2.7-5.7,5.7-9.7h0Z"/>
  <path class="st15" d="M466.8,180.8l3.3-3.5,19.2,9.4-3.3,3.5-1.8-.9c-.5-.2-.9-.4-1.4-.4-1,0-1.8.5-2.4,1.1h-.1c-.6.9-1.1,1.7-1,2.6,0,.5.2.9.5,1.4l1,1.8-3.3,3.5-10.6-18.6h0ZM478.6,186.5l-5.1-2.7,3,4.9,2.1-2.2Z"/>
  <path class="st9" d="M497.9,168.2l-3.4.5-.7-4.7,11.3-1.8.7,4.7-3.4.5,2.4,15.4-4.6.7-2.4-15.4Z"/>
  <path class="st27" d="M513.2,162.5l4.6.5-2.2,20.3-4.6-.5,2.2-20.3Z"/>
  <path class="st36" d="M527.6,164.6l5,2.2c-.6,3.7-.8,7.5-.7,11.2,2.4-2,5.2-4.7,7.9-8l5,2.3-8.3,18.6-4.2-1.9,4.2-9.3c-3.7,3.4-8,6.3-8,6.3,0,0-.7-5.2-.7-10.2l-4.2,9.3-4.2-1.9,8.3-18.6h0Z"/>
  <path class="st37" d="M552.6,178.1l7.2,6.3-3.2,3.6-3.1-2.7c-.6-.5-1.2-.4-1.8.4-.7.8-.7,1.4-.2,1.8l2.9,2.5-3.2,3.6-2.9-2.5c-.6-.5-1.2-.4-1.9.4-.7.8-.8,1.4-.2,1.9l3.1,2.7-3.2,3.6-7.2-6.3,13.4-15.4h0Z"/>
  <path class="st15" d="M468.2,39.2v55.5c0,2.1,2,3.6,4,2.9l78.7-26.5c2.7-.9,2.8-4.8,0-5.8l-78.7-29.1c-2-.7-4.1.7-4.1,2.9Z"/>
  <path class="st28" d="M463.6,32.5c1.8,17.1,1.7,34.4,1.1,51.6-.2,5.7-.5,11.5-1.1,17.2h-1c-1.6-17.1-1.8-34.4-1.2-51.6.2-5.7.6-11.5,1.2-17.2h1.1Z"/>
  <path class="st28" d="M472.7,85.2c5.6-3.1,10.1-10.3,10.4-16.7,0-1.3-.2-2.8-1.2-3.6-1.8-1.4-2.9,0-2.8,2-.1,4.8,1.3,13.4,8,11.2,4.7-1.9,8.8-5.8,11.4-10.2.9-1.5,2-3.6,1.2-5.2-.5-.7-1.4-.4-1.9.2-1.4,1.7-1.2,5.6-.5,7.7,1.4,4.5,6.9,3.4,10,1.4,3.7-2.4,7.5-6.7,5.9-11.3-.2-.4-.2-.6-.5-.6-1.3.8-1.2,2.9-1.1,4.3,1.4,10.4,11.8,5.7,16.4.3l.5.4c-3.4,4.1-9.3,8.7-14.9,5.9-3.6-2-5.1-8.3-3-11.7.6-1,2.2-1.7,3.3-.9,1,.8,1.1,1.6,1.4,2.7,1.8,8.1-9.1,17.5-16.9,14.4-3.5-1.5-4.5-5.9-4.2-9.3,0-1.8.3-3.7,1.7-5.2,1.5-1.8,4.8-2,6.1.2,1.1,2,.7,3.9,0,5.8-2.9,5.9-7.9,10.9-14.1,13.4-5.9,2.2-10.5-3.3-10.8-8.8-.1-2.6-.7-5.1.5-7.6,1.1-2.1,4-2.2,5.6-.6,3.1,3.4,1.4,8.5-.4,12.1-2.3,4.2-5.4,8.2-9.9,10.2l-.3-.7h0Z"/>
  <path class="st15" d="M765.5,102.2c3.1,41.6,2.9,83.4,1.9,125.1-.4,13.9-.9,27.8-2,41.7h-1.8c-2.6-38.2-2.9-76.4-2.4-114.7.3-17.4.9-34.8,2.3-52.1h1.8,0Z"/>
  <path class="st10" d="M764.5,33.7c-23.5,0-42.7,19.1-42.7,42.6s19.1,42.7,42.7,42.7,42.7-19.1,42.7-42.7-19.1-42.7-42.7-42.6ZM764.5,102.2c-14.3,0-25.8-11.6-25.8-25.8s11.6-25.8,25.8-25.8,25.8,11.6,25.8,25.8-11.6,25.8-25.8,25.8Z"/>
  <path class="st11" d="M794.9,232.1h-26.3c1.7,26.4-19,29.7-19,29.7v8h64.2v-8s-20.7-3.2-19-29.7h0Z"/>
  <path class="st11" d="M711.4,132.2h140c4.8,0,8.7,3.9,8.7,8.7v107.3h-157.3v-107.3c0-4.8,3.9-8.7,8.7-8.7h0Z"/>
  <line class="st3" x1="703.4" y1="234.1" x2="859.2" y2="234.1"/>
  <rect class="st32" x="711" y="140.4" width="140.8" height="87.6"/>
  <rect class="st8" x="711" y="140.4" width="140.8" height="7.1"/>
  <circle class="st26" cx="836.1" cy="144" r="1.9"/>
  <circle class="st19" cx="841.8" cy="144" r="1.9"/>
  <circle class="st25" cx="847.4" cy="144" r="1.9"/>
  <rect class="st21" x="711" y="147.3" width="60.5" height="40.2"/>
  <rect class="st32" x="771.5" y="147.3" width="60.5" height="40.2"/>
  <rect class="st26" x="711" y="187.5" width="60.5" height="40.2"/>
  <rect class="st15" x="771.5" y="187.5" width="60.5" height="40.2"/>
  <path class="st32" d="M745.8,171.1c-3-2.3-.9-6.2-1.9-9.2-.7-1.9-4-2.6-4.2-5-.7,1.8-5.3,3.2-5.5,3.4-.8,1,1.1,7.4.4,9.6-.5,1.7-2.5,1.3-2.7,1.5-.2.2.8,5.2,1.3,5.6,1.2,1,12.9.7,15.4,1.1.2-.2-.5-5.8-.7-6-.1-.2-1.5-.5-2.1-.9h0Z"/>
  <path class="st9" d="M766.8,228.3h-50.3c.2-.9.3-1.8.5-2.5,2-5.4,12-12.2,16.1-10.3,1.2.5,4.7,4.8,5.1,4.9.9.1,3.9-3.9,5.5-4.3,3.2-.9,15.6,4.3,18.6,6.7,1.3,1,3.1,3.8,4.5,5.5h0Z"/>
  <path class="st25" d="M832.1,147.3v40.2h-4.2c0-.1-.1-.2-.2-.3-5.3-6.9-9.9-14-19.4-15.4,1.6-3.9,3.1-6.1,3-10.8,0-4.5-3.8-10.7-8.7-10.8-9.3-.3-9.6,9.6-5.7,15.6,0,.3-.5,5.2-.6,6-10.1,1.1-17.2,5.5-19,15.7h-5.6c-.1-13.4.1-26.8,0-40.2h60.5,0Z"/>
  <path class="st35" d="M810.1,158.6c-3.6.6-6.2,1.1-9.6-.6,0,3.4.8,4-3,3.6-.2,1.1.8,2.2.5,3.2-.2.7-1.1.9-1.1,1,0,.3-.5,5.2-.6,6-.4,7,10,7.1,11.7,2.4.3-.9.1-2,.3-2.4,1.6-3.9,3.1-6.1,3-10.8l-1.2-2.4h0Z"/>
  <path class="st24" d="M756.5,174.3c-1.7-1-6.1-2.3-6.8-3.2-2.6-3.5-1.2-16-6.8-18.3-.3-.1-4.9-1.3-5.2-1.3-4.8.4-6.4,8.1-6.6,11.9-.1,2.2,1.5,3.7-.3,6.4-1.2,1.8-3.6,1.7-5.3,2.6-6.4,3.2-6.5,9-6.7,15.3h45.1c-.4-6-2.4-10.2-7.6-13.2h0ZM748.6,178.1c-2.5-.3-14.1,0-15.4-1.1-.5-.4-1.5-5.4-1.3-5.6.2-.2,2.2.2,2.7-1.5.7-2.2-1.2-8.6-.4-9.6.2-.2,4.8-1.6,5.5-3.4.2,2.4,3.6,3,4.2,5,1,3-1.1,6.9,1.9,9.2.6.4,2,.7,2.1.9.2.3.9,5.8.6,6.1h0Z"/>
  <path class="st15" d="M798,164.9c.2-1-.7-2.1-.5-3.2,3.8.4,3-.2,3-3.6,3.4,1.7,6,1.2,9.6.6l1.2,2.4c0-4.5-3.8-10.7-8.7-10.8-9.3-.3-9.6,9.7-5.7,15.6,0,0,1-.3,1.1-1Z"/>
  <path class="st24" d="M731.1,212.2c1.2,1.8,4.9-.9,4.6-3.2,0-.2-2.3-1-1.2-3.4l3,.6c1-2.5-.2-5.4,2.5-6.9,1.2-.7,3.5-.4,4-1.9.4-1.1.3-4.4-.4-5.4-1.6-2-13.2.2-16.2-.2-1.8,1.1,2,10.4,2.5,12.6.4,1.7.8,6.9,1.3,7.7h0Z"/>
  <path class="st32" d="M810.2,211c1,.2,1.9.2,2.8.3-.9,0-1.8-.1-2.8-.3-5-.9-5.1-4.1-3.6-8.4.2-.5.8-1,.6-1.8.5,0,.9.1,1.2.4-.3-.2-.7-.4-1.2-.4.2.8-.4,1.3-.6,1.8-3.3-1.3-4.9-4.6-6.9-7.2-1.2,2.1-2.3,4.6-5.1,4.8.3,2.6,1.4,6.4,1.2,8.6-.2,2.7-1,2.1-3,2.2-.4,0-.8,0-1.2,0,.4,0,.8,0,1.2,0,.3,8.9,18.8,9.5,17.4,0h0Z"/>
  <path class="st25" d="M821.9,226.3c0,.5,0,1-.3,1.4,0,0,0,0,0,0h-43.5c.2-1.5.4-3.5.6-4.2.4-1.1.9-1.9,1.5-2.5,0,0,0,0,0,0,.3-.3.6-.6.9-.8.3-.2.6-.4.9-.6.2-.1.3-.3.4-.4.2-.4.2-.8.2-1.3,0-.3,0-.6,0-1,0-.2,0-.5,0-.7,0-.3,0-.5.2-.8,0-.4.2-.7.5-1.1.1-.2.2-.4.4-.6.2-.2.3-.4.4-.5.2-.2.4-.4.6-.5.2-.2.4-.3.7-.5.8-.4,1.6-.7,2.4-.9.4,0,.8-.1,1.2-.2.6,0,1.2,0,1.8-.1.2,0,.4,0,.6,0,.4,0,.8,0,1.2,0,.3,8.9,18.8,9.5,17.4,0,1,.2,1.9.2,2.8.3.2,0,.5,0,.7,0h0c.6,0,1.3.2,1.9.4h0c.8.3,1.6.7,2.4,1.3,0,0,0,0,0,0,.1.1.3.2.4.4,1.5,1.6.8,3.7,1.9,5.4,0,0,0,0,0,0,.2.3.4.5.8.7.4.3.8.4,1,1.1.4,1.5-.1,4-.1,5.6h0Z"/>
  <path class="st12" d="M799.7,195.4c2,2.6,3.6,5.9,6.9,7.2.2-.5.8-1,.6-1.8.5,0,.9.1,1.2.4.1,0,.2.2.3.2.5.3.9.7,1.7.6.2,0,.4,0,.6-.1,0,0,0,0,.1,0,.1,0,.3-.1.4-.2.8-.6,1.4-1.9,1.6-3.2,0-.3,0-.6,0-.8,0-.6,0-1.1-.1-1.7,0-.5-.3-1.1-.5-1.5-.2-.5-.5-.9-.9-1.2-.4-.3-.8-.6-1.4-.7-.6-.1-1.3-.2-2-.2-.4,0-.8,0-1.2.2-.5.1-.8.4-1.1.8-.2.3-.3.6-.2,1,0,.1,0,.3,0,.4h0c-.5-.2-.9-.4-1.3-.6-.3-.2-.6-.4-.9-.5-.2-.1-.3-.2-.5-.3-.5-.3-1-.5-1.7-.7-.3,0-.5-.1-.8-.1-2.4-.3-4.4.4-5.5,1.9-.2.2-.4.5-.5.8-.4.8-.7,1.8-.7,2.9,0,1,.6,1.6.6,2.1h0c2.8-.2,3.9-2.7,5.1-4.8h0Z"/>
  <rect class="st5" x="34.5" y="24.2" width="187" height="383.7"/>
  <rect class="st35" x="32.6" y="116.5" width="190.9" height="10.8"/>
  <path class="st15" d="M221.5,122.5c-63.6,2.3-127.3,2-190.9,0v-1.1c39.8-1.5,79.6-1.7,119.3-1.6,23.9.2,47.7.5,71.6,1.5v1.1h0Z"/>
  <path class="st31" d="M240.1,209.3V10.6H15.9v212.2h0v198.7h224.2v-212.2h0ZM34.5,24.2h187v185.1H34.5V24.2ZM221.5,408H34.5v-185.1h187v185.1Z"/>
  <rect class="st35" x="32.6" y="315.2" width="190.9" height="10.9"/>
  <path class="st15" d="M223.5,322.6c-63.6,2.3-127.3,2-190.9,0v-1.1c39.8-1.5,79.6-1.7,119.3-1.5,23.9.2,47.7.5,71.6,1.5v1.1h0Z"/>
  <path class="st15" d="M221.5,217.3c-63.6,2.3-127.3,2-190.9,0v-1.1c39.8-1.5,79.6-1.7,119.3-1.6,23.9.2,47.7.5,71.6,1.5v1.1h0Z"/>
  <rect class="st36" x="257.5" y="93.6" width="161.4" height="222.1"/>
  <rect class="st2" x="268.5" y="119.3" width="138.6" height="181.3"/>
  <line class="st2" x1="407.1" y1="130" x2="268.5" y2="130"/>
  <line class="st2" x1="407.1" y1="140.7" x2="268.5" y2="140.7"/>
  <line class="st2" x1="407.1" y1="151.5" x2="268.5" y2="151.5"/>
  <line class="st2" x1="407.1" y1="171.3" x2="268.5" y2="171.3"/>
  <line class="st2" x1="407.1" y1="187" x2="268.5" y2="187"/>
  <line class="st2" x1="407.1" y1="209.9" x2="268.5" y2="209.9"/>
  <line class="st2" x1="407.1" y1="220.9" x2="268.5" y2="220.9"/>
  <line class="st2" x1="407.1" y1="248.5" x2="268.5" y2="248.5"/>
  <line class="st2" x1="407.1" y1="258" x2="268.5" y2="258"/>
  <line class="st2" x1="407.1" y1="280.7" x2="268.5" y2="280.7"/>
  <polyline class="st2" points="321.6 140.7 321.6 151.5 321.6 171.3"/>
  <line class="st2" x1="377.8" y1="151.5" x2="377.8" y2="171.3"/>
  <line class="st2" x1="321.6" y1="220.9" x2="321.6" y2="248.5"/>
  <line class="st2" x1="359.2" y1="258" x2="359.2" y2="300.5"/>
  <line class="st2" x1="359.2" y1="209.9" x2="359.2" y2="171.3"/>
  <line class="st2" x1="321.6" y1="239.6" x2="268.5" y2="239.6"/>
  <line class="st2" x1="407.1" y1="269.6" x2="359.2" y2="269.6"/>
  <line class="st2" x1="407.1" y1="198.8" x2="359.2" y2="198.8"/>
  <path class="st8" d="M328.6,165.5c3.7-.8,7.9-2.3,10.7-4.9,1-.9,1.3-2.5-.1-3.2s-2.6.2-3.4,1.4c-.9,1.3-1.5,3-.6,4.5.8,1.1,2.2,1.5,3.5,1.5,1.8,0,3.7-.6,5.4-1.2,1.9-.6,3.9-1.4,5.6-2.6,1.1-.7,1.6-1.9.5-2.9s-2.6-.8-3.7.1c-1.9,1.6-1.6,4.8.9,5.7,2.7,1,14.3-1.1,11.5-5.5-1-1.6-2.9-.7-3.8.5s-1.2,2.9-.5,4.2c.9,1.8,2.9,1.7,4.6,1.4,2.5-.5,5-1.2,7.4-2.2,1-.4.6-2-.5-1.6-2.2.9-4.4,1.6-6.7,2.1-.9.2-2.5.7-3.2-.2-.6-.7-.3-1.9.2-2.6.3-.4,1-1,1.2-.3,0,.5-.7.9-1,1.1-.8.4-1.6.8-2.5,1-1.1.4-2.2.6-3.4.8-1,.1-2.5.2-3.2-.5-.4-.4-.5-1.1-.4-1.6.1-.5.7-1.2,1.3-1.3.3,0,.5-.1.5.2.1.4-.4.5-.7.6-2,1.1-4.2,1.9-6.4,2.5-1.3.4-4.2,1.2-5.2-.2-.4-.6,0-1.4.2-2,.2-.3.9-1.7,1.2-1.1.2.5-.8.9-1.2,1.2-.5.4-1.1.7-1.6,1-2.2,1.2-4.5,2-7,2.5-1.1.2-.6,1.8.5,1.6h0Z"/>
  <path class="st8" d="M281.7,202.2c2.6-.5,5.1-1.6,7.2-3.1,1.3-1,3.8-3,2.3-4.8-1.4-1.7-3.9-.3-5,1-1.2,1.5-1.7,3.8-.8,5.6,1,2.1,3.4,2.1,5.4,1.9,2.6-.2,5.2-.9,7.5-2,1.1-.5,2.1-1.2,3.1-1.9.9-.6,1.8-1.4,2.1-2.4.5-2.1-1.7-3.1-3.3-1.9-1.6,1.3-2.9,3.8-2,5.8.9,2.3,3.4,2.4,5.5,2.2,2.9-.2,5.7-1.1,8.4-2.1,1.7-.6,4-1.8,3.8-4s-2.8-2-3.9-.6c-1.4,1.7-1.8,4.2,0,5.7s4.9,1.8,7.1,1.6,4.7-1.5,6.4-3.1c1.1-1.1,3-3.7.9-4.8-1.9-1.1-3.7,1-4.1,2.8-.4,2.1.9,3.9,3,4.4,2.7.7,5.8-.2,8.2-1.5,1-.5.1-2-.9-1.4-1.4.7-2.9,1.2-4.5,1.4-1.2.1-3,.2-3.9-.9-.6-.7-.4-1.9,0-2.7.2-.3,1-1,1.3-.4.2.5-.8,1.4-1.1,1.7-2,2.1-4.7,3.1-7.6,2.9-1.3-.1-3.2-.4-4.2-1.4-.7-.8-.4-1.8,0-2.6.1-.2.3-.5.5-.7.3-.4.5-.4.9,0,0,.4-.2.6-.4.9-.8.9-2.2,1.2-3.3,1.6-1.6.5-3.1,1-4.8,1.3-1.4.3-3.1.6-4.6.3-1.8-.4-1.8-2.1-1.1-3.5,0,0,1.5-2.2,1.8-1.6.3.5-.9,1.3-1.2,1.6-1.2,1-2.6,1.8-4,2.4-2.4,1.1-5.8,2-8.5,1.4-1.5-.3-1.9-1.9-1.5-3.2.2-.7.6-1.4,1.1-1.9s2.4-1.3,1.8.2c-.3.6-1.3,1.2-1.8,1.6-.6.4-1.2.8-1.9,1.2-1.5.8-3.1,1.3-4.8,1.7-1.1.2-.6,1.8.5,1.6h0Z"/>
  <path class="st8" d="M288.8,273.6c2.8-.8,5.9-1.4,8.4-3.1,1.4-.9,3-3.2,1-4.5-1.6-1-4.2,0-5.2,1.4-1.3,1.8-1.1,4.8.8,6.1s5.1.7,7.3.3c2.5-.5,5.1-1.5,7-3.1,1.3-1.1,2.3-3.6.2-4.5-1.8-.8-3.6,1-4.2,2.5-.9,2.2-.3,4.5,2.1,5.3s5.6.1,7.9-.6c2-.6,4.3-1.7,5.7-3.3,1.2-1.4.7-3.2-1.3-3.4-2.1-.3-3.3,2-2.9,3.9s1.9,3,3.7,3.5c3.6.9,8.3-.4,10.7-3.3.7-.8,1.1-1.8.9-2.8s-1.2-1.9-2.3-1.9c-2.3,0-3.8,2.6-3.1,4.6,1.5,5,8.9,4.9,12.6,3,1-.5.1-1.9-.9-1.5-2.4,1.2-5.7,1.4-8.1.1-1-.5-2.1-1.6-2.1-2.9,0-1.3,2.6-2.6,2.4-.8-.1,1.2-1.9,2.2-2.8,2.7-.9.5-1.9.8-2.9,1-1.9.4-5,.5-6.1-1.5-.3-.6-.4-1.3-.1-1.9.2-.4,1.4-1.1,1.5-.5,0,.6-1.7,1.6-2.1,1.8-2.6,1.6-6.7,2.8-9.8,2.1-1.9-.5-2-2.6-.8-3.9.3-.3.9-.9,1.4-.8.9.2,0,1.3-.3,1.6-2.3,2.2-5.8,2.9-8.9,3.2-1.7.2-4,.3-4.4-1.9-.3-1.8,1-3.6,2.9-3.4,1,.1.3,1.1-.2,1.5-.5.5-1.2.8-1.9,1.1-2,1-4.2,1.5-6.4,2.1-1,.3-.6,1.9.5,1.6h0Z"/>
  <path class="st8" d="M371.2,294c2.6-.6,5.6-1.6,7.6-3.5,1.4-1.3,2.3-3.9.6-5.4s-4.4-.3-5.6,1.2c-1.4,1.7-1.2,4.3.2,5.9,3.4,3.9,9.2.6,11.6-2.7.5-.7.9-1.7.6-2.6s-1.3-1.4-2.2-1.2c-2.1.4-2.9,2.8-2.7,4.6.2,2.4,1.8,4.4,4.1,5,3.4.9,6.5-1.1,9.9-1.1,1.1,0,1.1-1.7,0-1.7-2.2,0-4.2.8-6.4,1.2-2,.4-4.2.2-5.4-1.6-.5-.8-.7-1.7-.7-2.6,0-.6.4-2.1,1.2-2.1,1.4,0-.6,2-.9,2.3-.7.7-1.5,1.4-2.4,1.8-1.6.9-3.8,1.1-5.2-.2-1.6-1.4-1.2-4,.7-5,1-.5,2.5-.5,2.4.9,0,1-.9,1.9-1.7,2.4-1.8,1.3-4,2-6.1,2.5-1,.2-.6,1.9.5,1.6h0Z"/>
  <line class="st4" x1="418" y1="107.1" x2="404.2" y2="94.6"/>
  <path class="st8" d="M308,114.2c3.2-1,6.6-1.8,9.5-3.7,1.6-1,3.9-3.8,1.4-5.3-2.1-1.2-5.1.3-6.2,2.2-1.2,2.3-.7,5.8,1.9,6.9,1.3.6,2.9.5,4.3.4,1.6-.2,3.3-.4,4.8-.9,2.6-.7,5.7-2.1,7.6-4.2,1.3-1.5,1.5-4.7-1.1-4.8-2.4-.1-4,2.3-4.4,4.4-.5,2.9,1.5,4.8,4.1,5.4s5.6,0,8.1-.9c1.3-.5,2.4-1.1,3.6-1.8,1.2-.7,2.4-1.4,3.2-2.7,1.2-2,.5-4.4-2.2-4.2-2.8.2-3.3,3.5-2.4,5.6,1.3,3,4.1,4.3,7.2,3.7,1.8-.3,3.5-1.1,5.1-1.9,1.8-.9,3.9-2,4.8-3.8.9-1.6.3-3.9-1.6-4.5-2.2-.7-4.5,1.6-4.6,3.7-.2,5.2,6.6,6.7,10.6,6.2,1.6-.2,3.1-.7,4.5-1.5,1-.5.1-2-.9-1.4-3,1.6-7.2,2-10.2.3-1.2-.7-2.6-2.1-2.3-3.7.2-1.4,2.8-3,3.2-.9.4,2.3-3.8,4-5.4,4.7-2.9,1.2-6.6,2.5-8.6-.8-.5-.8-.8-1.7-.6-2.6.1-.4.3-.8.7-1.1.3-.2,1.2-.3,1.5,0,.3.5-.4,1.5-.6,1.8-.7.9-1.8,1.4-2.8,1.9-3,1.7-6.9,3.2-10.3,2.1-.8-.3-1.8-.7-2.3-1.5-.5-.9-.2-2.2.2-3.1.3-.7.7-1.2,1.3-1.6.8-.4,1.7-.3,1.4.8-.4,1.4-2.4,2.4-3.6,3.1-2.1,1.2-4.4,1.8-6.8,2.2-2.1.3-5.3,1-6.2-1.5-.9-2.3.6-4.8,3.1-4.9,1.3,0,1.3.9.6,1.7-.6.7-1.5,1.2-2.3,1.6-2.5,1.3-5.2,2-7.8,2.8-1,.3-.6,1.9.5,1.6h0Z"/>
  <rect class="st36" x="34.5" y="192.1" width="81.6" height="16.9"/>
  <rect class="st33" x="39.8" y="175.2" width="65.3" height="16.9"/>
  <rect class="st37" x="107.7" y="144.6" width="16.9" height="65.3" transform="translate(-73.1 81.8) rotate(-30)"/>
  <rect class="st26" x="136.9" y="297.9" width="81.6" height="16.9"/>
  <rect class="st27" x="156.2" y="281" width="65.3" height="16.9"/>
  <rect class="st18" x="156.2" y="264.2" width="65.3" height="16.9"/>
  <rect class="st9" x="104.2" y="274.7" width="65.3" height="16.9" transform="translate(-176.7 260.1) rotate(-60)"/>
  <rect class="st15" x="169.2" y="35.2" width="16.9" height="81.6"/>
  <rect class="st27" x="186.1" y="51.5" width="16.9" height="65.3"/>
  <rect class="st8" x="203" y="51.5" width="16.9" height="65.3"/>
  <rect class="st28" x="118.6" y="44.2" width="16.9" height="72.6"/>
  <rect class="st27" x="135.5" y="53.6" width="16.9" height="63.2"/>
  <rect class="st33" x="152.4" y="44.2" width="16.9" height="72.6"/>
  <rect class="st15" x="34.5" y="99.7" width="81.6" height="16.9"/>
  <rect class="st22" x="52.9" y="65.9" width="63.2" height="16.9"/>
  <rect class="st18" x="34.5" y="82.8" width="72.6" height="16.9"/>
  <rect class="st15" x="69.1" y="344.5" width="16.9" height="63.2"/>
  <rect class="st9" x="35.4" y="327.4" width="16.9" height="80.3"/>
  <rect class="st8" x="119.7" y="344.4" width="16.9" height="63.2"/>
  <rect class="st10" x="102.9" y="344.4" width="16.9" height="63.2"/>
  <rect class="st37" x="86" y="335.1" width="16.9" height="72.6"/>
  <rect class="st15" x="139.1" y="390.6" width="81.6" height="16.9"/>
  <rect class="st16" x="160.5" y="373.7" width="60.2" height="16.9"/>
  <polygon class="st15" points="866 368.8 860.3 452.8 850.8 452.4 851.4 368.3 866 368.8"/>
  <path class="st10" d="M846.2,341c15.2,0,30.4.8,45.5,1.8,7.6.5,15.1,1.1,22.7,1.8s15.1,1.4,22.7,2.4v.2c-22.8-.2-45.6-1.6-68.2-3.5-7.6-.7-15.1-1.5-22.7-2.5v-.3h0Z"/>
  <path class="st28" d="M580.9,316.8c.3,11.6.5,23.2.7,34.8l-1.2-1.2c26-.4,54.8-.6,80.9-.6,25.1,0,56,.1,80.9.4,18,.2,36,.5,54,.9v.9c-53.2,1.2-108.6,1.4-161.9,1.3-18.4,0-36.8-.3-55.1-.5v-1.2c.2-11.6.4-23.2.7-34.8h.9Z"/>
  <g>
    <g>
      <polygon class="st23" points="966.2 366.9 979.7 464.3 969.3 466.1 950.2 369.6 966.2 366.9"/>
      <polygon class="st23" points="894.5 381 892.3 480.5 881.7 480.5 878.2 381.1 894.5 381"/>
    </g>
    <path class="st34" d="M984.6,240.9c1.1,7.2.7,15.2.8,20.6,0,2.2,0,4.4-.8,6.4-.9,2.1-2.6,3.8-3.7,5.8-1.3,2.3-1.6,5-2,7.7-1.7,13.3-4.6,27.2-3.9,40.6.8,17.1,4.6,32.1-9.2,45.4-12.5,12.1-29,14.7-45.7,15.8-2.7.2-5.7.5-8.4.6-24.8,1-51.9,1.1-76.7-4.6-5.5-1.3-10.8-2.8-16-4.7-7-2.5-14.6-6.5-16.6-13.7-2.2-7.9,3.7-16.1,11-19.8,15.7-8,74.2-7.7,67.3-39.5-1-4.4-4.4-8.5-11.3-11.6-3.6-1.6-7.7-3-9.8-6.3-1.1-1.7-1.5-3.7-1.9-5.6-1.8-9.5-3.1-19-3.8-28.6-.1-2-.2-4,.8-5.7,1.6-2.7,5.1-3.3,8.3-3.7,21.4-2.6,42.6-6.3,63.6-11.1,17.9-4.1,31.2-12,49.3-3.4,5.3,2.5,7.6,8.7,8.6,15.6Z"/>
    <path class="st23" d="M835,379.1l-5.4,94.7-10.6-.3v-99c5.3,1.9,10.6,3.4,16.1,4.7Z"/>
    <path class="st10" d="M807.5,348.1c15.8,1.8,31.6,3.1,47.4,3.1,14.9-.1,20.4-5.3,22.9-19.9.8-3.9,1.6-7.8,2.5-11.7,0,0,.2,0,.2,0-.4,4-.9,7.9-1.3,11.9-1.5,15.7-8.4,22.1-24.2,22.3-8.1,0-16-.4-24-1.3-7.9-.9-15.8-2.3-23.6-4.2,0,0,0-.3,0-.3h0Z"/>
  </g>
</svg>