<?xml version="1.0" encoding="UTF-8"?><svg id="Layer_1" xmlns="http://www.w3.org/2000/svg" viewBox="0 0 593.93 208.51"><defs><style>.cls-1{fill:#13133d;}.cls-2{fill:#b0b3d7;}.cls-3{fill:#732229;}.cls-4{fill:#c483a8;}.cls-5{fill:#f8f2e8;}.cls-6{fill:#31368f;opacity:.62;}.cls-7{fill:#741f23;}.cls-8{fill:#e99f97;}.cls-9{fill:#4d4d4e;}.cls-10{fill:#7498c5;}</style></defs><path class="cls-1" d="M378.49,54.57c-.62,5.04-1.24,10.08-1.86,15.12-.06.55-.13,1.11-.2,1.66-.01.05-.01.1-.02.15-.01.11-.03.23-.05.34-.11.81-.27,1.64-.59,2.36-.24.52-.56.99-1.01,1.35-.41.33-.87.53-1.37.64-.01.01-.02.01-.02.01-.91.21-1.93.12-2.87-.02-2.62-.38-6.39-.38-7.54-2.74-.11-.23-.2-.49-.26-.78-.25-1.2-.15-2.7.12-4.3.08-.47.17-.96.27-1.45h0c.17-.85.38-1.7.58-2.53.43-1.7.87-3.32,1.11-4.6.83-4.51,1.82-9.17,4.52-12.86.34-.46.72-.92,1.2-1.23.08-.05.16-.1.25-.14,1.12-.57,2.46-.19,3.65.2.86.29,1.73.58,2.44,1.15,2.12,1.68,1.98,4.94,1.64,7.67Z"/><path class="cls-8" d="M305.96,42.23c1-3.09,4.19-3.98,5.3-6.96,1.18-3.16.96-10.92.22-14.25-.4-1.8-1.5-4.77-2.93-5.93,1.5,6.21-1.41,7.37-3.8,11.92-3.45,6.57-.41,9.09,1.22,15.22Z"/><path class="cls-8" d="M313.13,32.53l-.65.38s.02.61.02.66c0,.39,0,.78-.04,1.17-.01.17-.03.33-.04.49-.04.38-.18.73-.21,1.1-.05.51.15,1.03.12,1.55-.04.6-.31,1.17-.69,1.63s-.86.84-1.34,1.2c-.76.55-1.5,1.08-2.26,1.63-.54.39-.92.99-1.06,1.64-.44,2.16-.44,4.27-.48,6.49l-14.49-5.29-2.16-13.88,9.51-8.55,7.56-7.39,1.96.54,1.67,2.21,1.22,4.85.07,2.44,2.26,6.15s.36.6-.96.97Z"/><path class="cls-7" d="M307.96,16.06c.3.27-1.68,4.09-1.91,4.5-.98,1.71-2.38,3.18-4.05,4.22-.73.46-1.52.85-2.11,1.48-1.39,1.5-1.26,3.98-2.63,5.49-.63.69-1.51,1.11-2.26,1.66-3.79,2.8-2.51,7.69-2.38,11.7,0,0-1.93.25-1.93.25-1.2-1.14-2.21-2.53-3.1-3.91-1.94-3.01-3.31-6.42-3.81-9.98-.32-2.24-.29-4.52.08-6.75.43-2.6,1.34-5.56,3.14-7.56,2.02-2.24,4.55-4.08,7.44-5.02,4.4-1.43,9-.4,12.91,1.88,0,0,4.46,2.7,4.86,7.1,0,0,.36,2.58-.37,4.28,0,0-.94-6.8-3.87-9.35Z"/><path class="cls-7" d="M312.6,34.51c-.01.14-.02.29-.03.43-.07.44-.05,1.01-.7,1.08-.44.05-.88-.13-1.25-.28-.38-.15-.78-.29-1.15-.46-.06-.03-.13-.07-.14-.12,0-.06.04-.11.1-.14s.13-.04.2-.05c.47-.06.9-.23,1.21-.54.19-.18.44-.32.73-.3.24.02.41.23.65.09.08-.05.14-.11.21-.16.02-.02.04-.03.07-.04.05-.01.1.02.12.06s0,.09,0,.13c-.02.09-.03.19-.03.28Z"/><path class="cls-7" d="M309.03,25.31c.02.1.01.21-.05.27-.15.16-.48.04-.67.04-.24.01-.47.04-.71.06-.51.05-1.02.1-1.51.25-.36.1-.7.26-1,.48-.15.12-.29.25-.4.4-.05.07-.25.48-.32.47-.04,0-.07-.05-.07-.08s0-.08.02-.12c.03-.09.05-.18.08-.27.07-.23.13-.46.24-.68.24-.47.73-.65,1.2-.81.54-.19,1.12-.33,1.69-.37.19-.01.39-.03.58-.04.26-.02.7.01.86.25.03.04.05.1.06.16Z"/><path class="cls-7" d="M306.21,26.69c-.19.18-.39.36-.56.55-.13.14-.26.31-.24.5.35-.21.69-.43,1.04-.64.26-.16.51-.3.8-.38.33-.09.65-.05.98-.08.28-.03.24-.4-.03-.42-.68-.06-1.47,0-1.99.47Z"/><circle class="cls-7" cx="307.28" cy="27.32" r=".77"/><path class="cls-7" d="M312.38,32.47c-.23-.09-.46-.17-.69-.26-.32-.12-.71-.32-1.07-.2-.13.04-.25.14-.26.27-.01.09.03.18.09.23s.15.09.24.09c.1,0,.19-.03.29-.05.32-.07.63.03.93.15.1.04.45.24.56.21,0,0,1.44-.41,1.81-.98,0,0,.04-.26-.02-.5l-2.1-5.36s-.2-.12-.18.34,1.6,5.15,1.6,5.15c0,0,.09.21-.08.37l-1,.56s-.03.02-.13-.02Z"/><path class="cls-8" d="M377,73.33c-.22.45-.79.69-1.23.87-.01,0-.03,0-.04.01-.49.2-1.76.24-1.83.31-.12.11.32.75.26,1.04-.06.29-.36.49-.77.63-.01.01-.02.01-.02.01-.93.34-2.37.42-2.83.76-2.08.08-4.23,1.02-6.11,1.83-2.08.9-2.82,1.33-4.58,2.75-.58.47-1.88.76-1.44,1.76-1.06-1.72-5.65-8.87-10.56-10.68.12,0,.25-.01.39-.06,1.13-.35,2.93-2.04,3.97-2.63.9-.5,1.85-1.05,2.75-1.52.93-.49,2.21-1.16,3.51-1.8,1.5-.75,3.05-1.47,4.13-1.87.28-.1.68-.24,1.08-.36.39-.12.78-.22,1.06-.25.09,1.27-.98,1.92-1.64,2.77h0c-.32.43-.54.9-.49,1.51.07-.02.15-.03.22-.05,1.46-.3,2.89-.6,4.36-.87.19-.03,1.14-.21,2.2-.36.97-.14,2.03-.27,2.69-.25.72.02,1.4.03,2.11.16.34.06.69.14.97.33.29.19.52.5.53.85,0,.12-.01.24-.06.35-.33.75-1.52.19-2.07.61-.01.01-.02.02-.02.03.08.12.24.06.36.06.41.01.82.07,1.22.12.33.05.66.06.99.13.19.03.37.08.53.17.03.01.06.02.09.04.19.11.35.27.44.47.17.41.08.76-.26,1.03-.11.09-.25.13-.38.2-.04.03-.08.05-.11.07-.2.14-.18.23-.05.34.05.04.1.08.17.12.43.28.73.87.47,1.37Z"/><path class="cls-10" d="M267.65,75.13c.47-.14.99.06,1.48,0-.33-.06-.67-.06-1-.07l.64-.34c-.11-.11-.2-.2-.2-.2,2.14-.68,3.97-1.92,6.26-2.14,1.38-.13,2.88.09,4.28,0,8.39-.45,22.68-1.73,29.8,2.24,4.52,2.52,6.42,5.4,8,10.34,3.12,9.81-.43,18.98,2.36,29.25,6.26-1.68,11.97-5.88,17.11-9.78,5.62-4.27,11.25-9.02,16.49-13.74,1-.91,2.09-1.82,3.06-2.75.81-.78,1.42-1.86,2.45-2.45,0,0-.01-.02-.04-.06-.09-.11-.14-.22-.18-.31-1.05-1.72-5.64-8.87-10.56-10.68-.4,0-.68-.19-.79-.23-.01,0-.02-.01-.04-.01-.71.17-1.57.92-2.45.92-.55.48-1.42.89-2.14.91-1.48.93-3.27,1.45-4.88,2.14-1.72.74-3.48,1.41-5.19,2.14-.91.39-1.82.83-2.75,1.23-1.88.79-5.06,3.4-6.85,1.28-.72-.85-.96-2-1.21-3.09-1.34-5.77-3.78-11.34-5.81-16.9-1.5-4.11-3.28-7.81-6.35-11-1.1-1.14-2.32-2.21-3.76-2.88-1.7-.79-3.62-.97-5.49-1.08-2.95-.17-5.94-.17-8.82.46-5.97,1.31-11.78,5.04-15.89,9.44-1.24,1.33-2.33,2.9-3.25,4.78-.69,1.41-3.54,12.36-4.26,12.57Z"/><path class="cls-3" d="M305.79,15.45c-.77-3.3-6.93-4.75-9.69-4.46-5.61.59-9.47,4.82-11.3,10.24-1.25,3.71-1.41,8.96-2.82,12.25-1.55,3.61-4.79,6.95-6.61,10.48-2.28,4.42-4.08,11.92-1.82,16.71.98,2.09,4.86,5.43,6.95,6.22,5.43,2.06,11.86-.1,16.43-3.24,1.98-1.36,3.91-2.6,4.31-5.05.43-2.64,1.61-5.35,1.34-8.06-.24-2.5-2.12-4.67-2.18-7.13-.04-1.79,1.2-3.41,1.18-5.2-.01-1.01-.43-1.97-.55-2.97-.24-2.11.09-5.45.54-7.53.49-2.29,2.55-3.35,3.63-5.27,1.17-2.08,1.13-4.73.6-6.99Z"/><polygon points="535.5 183.65 424.34 186.27 424.34 103.72 469.81 97.98 513.27 107.45 546.69 147.82 535.5 183.65"/><path d="M167.18,183.08s-103.65.39-108.33-4.68v-41.7s56.11-38.58,56.11-38.58l42.37,7.99,16.45,21.82-6.61,55.14Z"/><path class="cls-1" d="M.13,135.79c.11,2.36.35,4.7.67,7.03.91,6.54,2.58,12.94,4.63,19.27,4.08,12.66,59.56,18.55,59.56,18.55l-.35-9.15c.21-4.11.62-7.88,1.17-11.35,5.75-35.74,27.67-38.95,27.67-38.95,10.91-5.98,34.47-10.55,55.93,9.85,11,10.45,14.51,24.33,15.32,35.37.77,10.5-.9,18.44-.9,18.44l265.14,3.03c-.47-2.93-.62-6.49-.59-10.14.06-9.97,1.48-20.56,1.48-20.56,7.01-34.88,37.94-40.58,37.94-40.58,35.74-6.8,50,16.67,50,16.67,14.13,15.81,14.52,34.16,13.47,43.74-.44,4.11-1.15,6.6-1.15,6.6.02.98.15,2.71,1.14,2.64,2.45-.18,4.89-.36,7.34-.53,15.58-1.14,31.96-2.36,46.61-7.9,2.5-.94,5.79-2.12,6.74-4.93.18-.54.24-1.04.21-1.51-.1-1.88-1.55-3.32-1.99-5.21-.14-.6-.2-1.24-.2-1.91,0-1.74.36-3.61.6-5.16.95-5.94,1.65-11.9,2.12-17.9.32-4.26,1.31-8.57,1.23-12.86,0-.98-.08-1.94-.22-2.91-.93-6.22-5.24-11.29-9.89-15.24-.27-.23-.55-.46-.68-.79-.15-.37-.09-.79-.05-1.18.46-4.99-5.86-9.25-9.5-11.82-4.66-3.29-9.86-5.74-15.11-7.92-9.93-4.14-20.25-7.24-30.56-10.27-9.16-2.69-18.42-5.06-27.74-7.1-11.89-2.61-24.75-6.01-36.93-7.16-1-.1-2-.18-2.99-.24-2.62-.17-5.27-.17-7.85-.66-6.36-1.2-11.44-5.22-17.12-7.96-6.44-3.12-12.74-6.47-18.99-9.96-12.46-6.97-24.71-14.38-37.63-20.51-8.94-4.24-18.39-8.12-28.07-11.46-13.28-4.57-27-8.09-40.42-10.02-14.7-2.12-29.5-3.51-44.33-4.18-13.67-.63-26.88.17-40.61.5-27.01.66-52.92,6.04-78.91,13.45-25.39,7.25-49.92,17.51-72.91,30.49-5.46,3.09-11.04,6.58-17.23,7.98-5.4,1.22-11.04,1.94-16.49,3.21-7.82,1.82-15.68,3.47-23.62,4.64-2.45,2.95-.73,7.31-.25,11.11.5,4.03-1.99,7.7-2.71,11.7-.95,5.24.05,10.62.36,15.94.3,5.32-.26,11.09-3.72,15.14-1.9,2.23-4.54,3.76-6.39,6.04-3.64,4.48-3.53,10.84-3.24,16.61ZM127.54,56.62c-3.43-.52-7.84-.83-10.87-2.71-2.31-1.43-3-3.69-.43-5.29,0,0,29.02-18.42,37.57-19.58,1.05-.14,1.76.12,2.65.71s1.32,1.92.68,2.77c0,0-12.17,21-12.18,21.03-3.57,6.17-11.83,3.92-17.43,3.06ZM308.15,17.38c26.64,3.76,81.4,31.89,81.4,31.89l.87,3.53c-.48.27-.94.58-1.38.91-.46.34-.92.72-1.23,1.2-.32.5-.48,1.07-.63,1.64-.31,1.17-.54,2.23-.66,3.41-.2,1.87-.1,3.84-.17,5.57-.05,1.17.1,2.28.1,3.42,0,1.23.08,2.35.75,3.44,1.13,1.85,3.37,2.66,5.62,2.99l-114.66-7.36-10.5-54.84c9-.08,40.51,4.21,40.51,4.21ZM246.2,64.41c-.05.62-.59.85-1.19.98-1.23.26-36.94-1.69-50.51-2.32-6.36-.29-12.73-.59-19.09-.88-2.26-.11-4.52-.21-6.78-.31-.75-.04-2.21.15-2.84-.21-1.83-1.06-2.13-5.05-2.15-6.85-.05-5.43-.09-10.58,1.83-15.72,2.34-6.28,6.13-11.98,10.27-17.2.22-.27,1.48-.37,1.79-.45,1.66-.41,3.33-.81,4.99-1.2,6.14-1.42,12.31-2.7,18.51-3.82,7.63-1.38,15.31-2.54,23.05-3.19,3.93-.34,7.85-.32,11.78-.5,1.23-.06,2.45.02,3.68.16.73.08,1.79-.12,2.32.5.09.11.18.24.25.4.4.82.22,1.85.29,2.73.11,1.32.21,2.64.31,3.96.34,4.24.67,8.48,1.01,12.71.38,4.82.75,9.63,1.14,14.44.32,4.02.64,8.06.95,12.09.11,1.3.21,2.6.31,3.9.02.24.1.55.08.79Z"/><path class="cls-4" d="M18.6,73.33c2.02-1.48,4.53-2.14,6.99-2.6,6.98-1.31,14.13-1.32,21.18-.68,6.55.6,13.76,1.01,19.78,3.75.75.34,1.58.82,1.74,1.64.14.73-.32,1.42-.75,2.02-1.33,1.82-2.66,3.66-4.28,5.23-.52.5-1.08.98-1.72,1.3-2.94,1.44-6.36.91-9.44,1.77s-4.4,4.19-5.68,6.77c-1.02,2.05-2.24,4.17-4.28,5.2-2.55,1.3-6.67,1.45-9.46,1.22-3.81-.31-7.57-.45-11.2-1.77-4.22-1.53-8.95-4.95-8.78-9.82s1.93-11.1,5.92-14.02Z"/><path class="cls-2" d="M104.35,52.67c.02.86.66,1.57,1.3,2.13.05.05.11.1.16.14,4.73,4.12,11.16,5.82,17.22,6.73,6.44.98,12.9,1.85,19.39,2.56,7.01.77,14.12,1.48,21.19,1.28.36,0,.74-.06,1.1-.04l280.3,16.74S375.25,16.17,286.52,8.93c-1.89-.15-3.78-.34-5.67-.47-6.88-.48-13.77-.73-20.67-.82-10.42-.12-20.84.16-31.24.88-12.41.86-24.78,2.35-36.99,4.66-12.9,2.44-25.67,5.81-37.93,10.53-6.98,2.68-13.53,6.21-20.33,9.24-4.48,2-8.88,4.16-13.2,6.49-1.27.68-2.53,1.38-3.76,2.13-2.81,1.73-5.28,3.79-7.75,5.95-1.62,1.41-4.69,2.58-4.63,5.14ZM267.64,13.17c9-.08,40.51,4.21,40.51,4.21,26.64,3.76,81.4,31.89,81.4,31.89l.87,3.53c-.48.27-.94.58-1.38.91-.46.34-.92.72-1.23,1.2-.32.5-.48,1.07-.63,1.64-.31,1.17-.54,2.23-.66,3.41-.2,1.87-.1,3.84-.17,5.57-.05,1.17.1,2.28.1,3.42,0,1.23.08,2.35.75,3.44,1.13,1.85,3.37,2.66,5.62,2.99l-114.66-7.36-10.5-54.84ZM165.47,39.08c2.34-6.28,6.13-11.98,10.27-17.2.22-.27,1.48-.37,1.79-.45,1.66-.41,3.33-.81,4.99-1.2,6.14-1.42,12.31-2.7,18.51-3.82,7.63-1.38,15.31-2.54,23.05-3.19,3.93-.34,7.85-.32,11.78-.5,1.23-.06,2.45.02,3.68.16.73.08,1.79-.12,2.32.5.09.11.18.24.25.4.4.82.22,1.85.29,2.73.11,1.32.21,2.64.31,3.96.34,4.24.67,8.48,1.01,12.71.38,4.82.75,9.63,1.14,14.44.32,4.02.64,8.06.95,12.09.11,1.3.21,2.6.31,3.9.02.24.1.55.08.79-.05.62-.59.85-1.19.98-1.23.26-36.94-1.69-50.51-2.32-6.36-.29-12.73-.59-19.09-.88-2.26-.11-4.52-.21-6.78-.31-.75-.04-2.21.15-2.84-.21-1.83-1.06-2.13-5.05-2.15-6.85-.05-5.43-.09-10.58,1.83-15.72ZM116.24,48.63s29.02-18.42,37.57-19.58c1.05-.14,1.76.12,2.65.71s1.32,1.92.68,2.77c0,0-12.17,21-12.18,21.03-3.57,6.17-11.83,3.92-17.43,3.06-3.43-.52-7.84-.83-10.87-2.71-2.31-1.43-3-3.69-.43-5.29Z"/><path class="cls-5" d="M517.17,93.31s15.59,21.78,30.92,26.18c0,0,23,4.27,29.91,3.14,0,0,6.66-1.76.88-11.69,0,0-18.72-19.73-50.27-18.85,0,0-12.45-.13-11.44,1.22Z"/><path class="cls-6" d="M530.11,183.63c.02.98.15,2.71,1.14,2.64,2.45-.18,4.89-.36,7.34-.53,15.58-1.14,31.96-2.36,46.61-7.9,2.5-.95,5.79-2.12,6.74-4.93.18-.54.24-1.04.21-1.51-1.94.49-3.83.92-5.62,1.33-11.6,2.65-23.01,3.34-34.88,3.4-6.87.04-13.63.46-20.4.89-.44,4.11-1.15,6.6-1.15,6.6Z"/><path class="cls-6" d="M428.97,187.9c-.47-2.93-.62-6.49-.59-10.14-2.58-.1-5.16-.27-7.73-.38-37.7-1.55-75.49-3.32-113.1-3.85-7.69-.11-15.2-.9-22.77-1.2-32.8-1.3-65.58-2.76-98.37-4.63-7.23-.42-14.45-.84-21.68-1.27.77,10.5-.9,18.44-.9,18.44l265.14,3.03Z"/><path class="cls-6" d="M.8,142.81c.91,6.54,2.58,12.94,4.63,19.27,4.08,12.66,59.56,18.55,59.56,18.55l-.35-9.15c.21-4.11.62-7.88,1.17-11.35-11.97-.79-23.93-1.6-35.9-2.43l-5.56-5.33c-6.53-8.46-9.19-7.25-9.19-7.25l-14.36-2.32Z"/><path class="cls-3" d="M386.44,68.95c0,1.23.08,2.35.75,3.44,1.13,1.85,3.37,2.66,5.62,2.99l3.22.21-5.61-22.79c-.48.27-.94.58-1.38.91-.46.34-.92.72-1.23,1.2-.32.5-.48,1.07-.63,1.64-.31,1.17-.54,2.23-.66,3.41-.2,1.87-.1,3.84-.17,5.57-.05,1.17.1,2.28.1,3.42Z"/><path class="cls-1" d="M386.44,68.95c0,1.23.08,2.35.75,3.44,1.13,1.85,3.37,2.66,5.62,2.99,1.12.16,2.24.21,3.22.21,1.43,0,2.87-.08,4.31-.22,1.77-.18,3.89-.46,5.17-1.79.73-.77,1.23-1.72,1.69-2.68.66-1.39,1.25-2.8,1.78-4.25.66-1.84,1.21-3.75,1.14-5.71-.03-.9-.2-1.79-.5-2.64-.5-1.44-1.75-2.61-3.11-3.23-1.94-.88-3.93-1.68-5.86-2.53-1.91-.85-3.54-1.5-5.69-1.27-1.6.17-3.14.72-4.54,1.52-.48.27-.94.58-1.38.91-.46.34-.92.72-1.23,1.2-.32.5-.48,1.07-.63,1.64-.31,1.17-.54,2.23-.66,3.41-.2,1.87-.1,3.84-.17,5.57-.05,1.17.1,2.28.1,3.42Z"/><path class="cls-5" d="M552.55,166.11c.03-.45.18-.92.38-1.41,1.39-3.39,3.34-6.38,5.32-9.37,1.43-2.16,5.07-3.05,7.46-3.05h4.43c1.16,0,2.32-.22,3.48-.1.5.05,1.14.13,1.52.49.54.51.19,1.24,0,1.87-1.31,3.4-2.43,6.94-3.96,10.25-.33.71-.87,1.38-1.56,1.78-1.35.8-3.01.75-4.51.89l-4.03.36c-2.04.18-4.09.36-6.14.55-.5.04-1.06-.15-1.46-.43-.76-.53-.99-1.14-.94-1.82Z"/><ellipse class="cls-4" cx="556.16" cy="129.67" rx="9.46" ry="5.34"/><path class="cls-3" d="M580.49,164.15c.05.66.27,1.39.85,1.73.41.23.91.21,1.37.18,2.25-.17,4.8-.56,6.85-1.55.15-.07.29-.15.42-.24,0-1.74.36-3.61.6-5.16.95-5.94,1.65-11.9,2.12-17.9.32-4.26,1.31-8.57,1.23-12.86-.32-.23-.75-.29-1.04-.03-.14.13-.22.32-.29.5-4.09,10.26-8.19,20.52-11.39,31.09-.43,1.38-.83,2.8-.72,4.25Z"/><path class="cls-3" d="M183.31,167.41c-7.66-12.74-16.06-25.03-25.36-36.63-7.72-9.73-16.46-18.89-22.32-29.99-5.21-10.02-5.99-19.25.52-28.92,1.3-2.14,2.74-4.18,4.18-6.2,0,0,.48.32.48.32-2.58,4.23-5.27,8.46-6.8,13.07-5.59,17.64,15.93,37.2,25.68,50.34,6.15,7.85,11.77,16.11,16.92,24.64,2.52,4.3,4.98,8.63,7.21,13.08l-.52.29h0Z"/><path class="cls-3" d="M267.35,169.15c-1.15-15.67-1.72-32.12-1.97-47.82-.15-7.96-.23-15.98-.28-23.9-.27-7.92-1.91-15.78-2.74-23.68,0,0,.57-.08.57-.08,1.49,7.82,3.44,15.58,4,23.67.38,8.02.52,15.95.72,23.94.27,11.52.31,24.3.4,35.89-.03,3.99,0,7.98-.1,11.97,0,0-.6.02-.6.02h0Z"/><path class="cls-3" d="M415.18,82.14c2.02,5.93,4.08,12.49,5.94,18.5,2.2,9.32,1.65,19.09,1.23,28.54-.85,11.98-2.54,23.79-4.49,35.61-.76,3.94-1.37,7.89-2.7,11.7,0,0-.54-.19-.54-.19.93-3.81,1.4-7.78,1.88-11.71,1.39-11.81,2.75-23.71,3.58-35.55.39-9.32,1.02-18.8-.67-27.96-1.63-6.07-3.35-12.68-4.8-18.78,0,0,.57-.17.57-.17h0Z"/><path class="cls-3" d="M513.06,125.48c3.49-4.63,7.76-8.54,12.21-12.23,1.49-1.21,3.02-2.39,4.65-3.45l.39.42c-1.17,1.55-2.46,2.99-3.77,4.4-3.99,4.17-8.2,8.15-13.07,11.31,0,0-.41-.44-.41-.44h0Z"/><path class="cls-3" d="M517.02,93.57c-11.42-4.03-23.72-5.19-35.67-6.97-11.77-1.49-24.61-2.75-36.36-4.09,0,0,.03-.57.03-.57,21.37.44,43.01,1.91,63.68,7.71,2.96.94,5.89,1.86,8.62,3.41,0,0-.3.52-.3.52h0Z"/><path class="cls-3" d="M82.94,126.89c-10.75-3.63-21.32-7.49-31.57-12.36-7.12-3.56-8.31-11.05-7.88-18.26,0,0,.57-.02.57-.02,1.08,11.66,3.37,15.03,14.43,19.01,8.34,3.42,16.62,6.99,24.68,11.07l-.23.55h0Z"/><path d="M288.96,91.12c.79-3.08,3.59-5.15,6.69-5.52,2.93-.35,5.74.3,7.91,2.35,2.04,1.92,1.96,5.3.7,7.8-1.41,2.78-4.19,4.9-7.29,5.25-6.09.69-9.22-5.18-8.01-9.88Z"/><path class="cls-6" d="M284.36,95.18c-1.17-.06-2.38-.15-3.44-.66s-1.97-1.5-2.03-2.67c-.09-1.52,1.25-2.81,2.71-3.22s3.02-.17,4.52.05c5.82.81,11.71,1.01,17.59,1.01,2.73,0,7.2.36,7.38,3.98.03.55-.05,1.13-.34,1.6-.28.45-.74.76-1.21.99-1.1.54-2.38.71-3.59.48-1.18-.22-2.25-.8-3.44-1-1.11-.18-2.28-.27-3.41-.37-2.55-.22-5.12-.12-7.68-.11-2.36,0-4.71.03-7.07-.08Z"/><path d="M157.59,83.35c.79-3.08,3.59-5.15,6.69-5.52,2.93-.35,5.74.3,7.91,2.35,2.04,1.92,1.96,5.3.7,7.8-1.41,2.78-4.19,4.9-7.29,5.25-6.09.69-9.22-5.18-8.01-9.88Z"/><path class="cls-6" d="M152.99,87.41c-1.17-.06-2.38-.15-3.44-.66s-1.97-1.5-2.03-2.67c-.09-1.52,1.25-2.81,2.71-3.22s3.02-.17,4.52.05c5.82.81,11.71,1.01,17.59,1.01,2.73,0,7.2.36,7.38,3.98.03.55-.05,1.13-.34,1.6-.28.45-.74.76-1.21.99-1.1.54-2.38.71-3.59.48-1.18-.22-2.25-.8-3.44-1-1.11-.18-2.28-.27-3.41-.37-2.55-.22-5.12-.12-7.68-.11-2.36,0-4.71.03-7.07-.08Z"/><circle class="cls-9" cx="113.77" cy="164.86" r="43.64"/><circle class="cls-2" cx="113.77" cy="164.86" r="32.56"/><path d="M92.7,151.24c-.25-.16-.51-.32-.71-.55-.72-.79-.1-1.72.45-2.4,2.29-2.84,5.21-5.15,8.42-6.89,1.53-.83,3.15-1.54,4.88-1.71.51-.05,1,.34,1.22.81s.22,1.01.22,1.52c0,1.89.19,7.56.25,8.5.05.89.17,1.69-.05,2.58-.06.23-.21.37-.38.52-.76.67-1.62,1.29-2.63,1.43-2.19.31-4.74-.76-6.71-1.57-.98-.4-1.93-.88-2.91-1.27-.71-.28-1.37-.55-2.02-.96,0,0-.02-.01-.03-.02Z"/><path d="M120.38,140.96c.06-.29.12-.59.26-.86.49-.95,1.57-.69,2.41-.42,3.47,1.15,6.65,3.08,9.4,5.48,1.31,1.14,2.55,2.41,3.31,3.97.23.46.03,1.06-.33,1.43s-.87.56-1.35.74c-1.77.66-7.01,2.82-7.88,3.21-.82.36-1.52.75-2.43.86-.24.03-.42-.06-.62-.17-.89-.48-1.78-1.07-2.26-1.96-1.05-1.94-.94-4.7-.88-6.84.03-1.06.15-2.11.17-3.17.02-.77.03-1.47.19-2.23,0,0,0-.02,0-.03Z"/><path d="M138.76,164.07c.3-.02.6-.04.9.02,1.05.21,1.09,1.33,1.05,2.2-.17,3.65-1.17,7.23-2.74,10.53-.74,1.57-1.64,3.1-2.93,4.26-.39.34-1.01.32-1.46.07s-.77-.68-1.07-1.1c-1.11-1.53-4.61-5.99-5.21-6.72-.57-.69-1.13-1.26-1.48-2.11-.09-.22-.05-.42,0-.64.22-.99.55-2,1.28-2.7,1.58-1.54,4.27-2.18,6.35-2.69,1.03-.25,2.07-.43,3.1-.69.74-.19,1.43-.37,2.2-.42.01,0,.02,0,.03,0Z"/><path d="M122.55,187.64c.12.28.24.56.28.85.14,1.06-.9,1.47-1.74,1.72-3.5,1.04-7.22,1.27-10.85.88-1.73-.19-3.47-.52-4.99-1.37-.45-.25-.63-.85-.54-1.36s.39-.95.69-1.38c1.08-1.55,4.14-6.33,4.63-7.13.46-.76.82-1.48,1.5-2.09.18-.16.38-.19.61-.21,1-.12,2.07-.14,2.97.32,1.97.99,3.46,3.32,4.63,5.11.58.89,1.08,1.82,1.67,2.7.42.64.82,1.23,1.12,1.94,0,0,0,.02.01.03Z"/><path d="M94.41,180.05c-.23.19-.46.39-.74.51-.97.44-1.67-.43-2.15-1.16-2.01-3.05-3.31-6.54-3.98-10.13-.32-1.71-.5-3.47-.14-5.17.11-.51.63-.85,1.14-.91s1.02.1,1.52.26c1.8.58,7.25,2.13,8.17,2.37.86.22,1.66.36,2.44.83.2.12.29.31.38.52.41.93.73,1.94.56,2.94-.38,2.17-2.17,4.28-3.55,5.91-.68.81-1.43,1.57-2.1,2.38-.49.59-.94,1.14-1.53,1.64,0,0-.02.01-.02.02Z"/><circle class="cls-9" cx="478.31" cy="164.05" r="43.64"/><circle class="cls-2" cx="478.31" cy="164.05" r="32.56"/><path d="M457.24,150.43c-.25-.16-.51-.32-.71-.55-.72-.79-.1-1.72.45-2.4,2.29-2.84,5.21-5.15,8.42-6.89,1.53-.83,3.15-1.54,4.88-1.71.51-.05,1,.34,1.22.81s.22,1.01.22,1.52c0,1.89.19,7.56.25,8.5.05.89.17,1.69-.05,2.58-.06.23-.21.37-.38.52-.76.67-1.62,1.29-2.63,1.43-2.19.31-4.74-.76-6.71-1.57-.98-.4-1.93-.88-2.91-1.27-.71-.28-1.37-.55-2.02-.96,0,0-.02-.01-.03-.02Z"/><path d="M484.92,140.15c.06-.29.12-.59.26-.86.49-.95,1.57-.69,2.41-.42,3.47,1.15,6.65,3.08,9.4,5.48,1.31,1.14,2.55,2.41,3.31,3.97.23.46.03,1.06-.33,1.43s-.87.56-1.35.74c-1.77.66-7.01,2.82-7.88,3.21-.82.36-1.52.75-2.43.86-.24.03-.42-.06-.62-.17-.89-.48-1.78-1.07-2.26-1.96-1.05-1.94-.94-4.7-.88-6.84.03-1.06.15-2.11.17-3.17.02-.77.03-1.47.19-2.23,0,0,0-.02,0-.03Z"/><path d="M503.3,163.26c.3-.02.6-.04.9.02,1.05.21,1.09,1.33,1.05,2.2-.17,3.65-1.17,7.23-2.74,10.53-.74,1.57-1.64,3.1-2.93,4.26-.39.34-1.01.32-1.46.07s-.77-.68-1.07-1.1c-1.11-1.53-4.61-5.99-5.21-6.72-.57-.69-1.13-1.26-1.48-2.11-.09-.22-.05-.42,0-.64.22-.99.55-2,1.28-2.7,1.58-1.54,4.27-2.18,6.35-2.69,1.03-.25,2.07-.43,3.1-.69.74-.19,1.43-.37,2.2-.42.01,0,.02,0,.03,0Z"/><path d="M487.09,186.82c.12.28.24.56.28.85.14,1.06-.9,1.47-1.74,1.72-3.5,1.04-7.22,1.27-10.85.88-1.73-.19-3.47-.52-4.99-1.37-.45-.25-.63-.85-.54-1.36s.39-.95.69-1.38c1.08-1.55,4.14-6.33,4.63-7.13.46-.76.82-1.48,1.5-2.09.18-.16.38-.19.61-.21,1-.12,2.07-.14,2.97.32,1.97.99,3.46,3.32,4.63,5.11.58.89,1.08,1.82,1.67,2.7.42.64.82,1.23,1.12,1.94,0,0,0,.02.01.03Z"/><path d="M458.96,179.24c-.23.19-.46.39-.74.51-.97.44-1.67-.43-2.15-1.16-2.01-3.05-3.31-6.54-3.98-10.13-.32-1.71-.5-3.47-.14-5.17.11-.51.63-.85,1.14-.91s1.02.1,1.52.26c1.8.58,7.25,2.13,8.17,2.37.86.22,1.66.36,2.44.83.2.12.29.31.38.52.41.93.73,1.94.56,2.94-.38,2.17-2.17,4.28-3.55,5.91-.68.81-1.43,1.57-2.1,2.38-.49.59-.94,1.14-1.53,1.64,0,0-.02.01-.02.02Z"/></svg>