<?xml version="1.0" encoding="UTF-8"?>
<svg id="Layer_1" xmlns="http://www.w3.org/2000/svg" xmlns:xlink="http://www.w3.org/1999/xlink" version="1.1" viewBox="0 0 521.8 211.7">
  <!-- Generator: Adobe Illustrator 30.4.0, SVG Export Plug-In . SVG Version: 2.1.4 Build 226)  -->
  <defs>
    <style>
      .st0 {
        fill: #040507;
      }

      .st1 {
        fill: #6d1f19;
        isolation: isolate;
        opacity: .5;
      }

      .st2 {
        fill: #060b09;
      }

      .st3 {
        fill: url(#linear-gradient2);
      }

      .st4 {
        fill: url(#linear-gradient1);
      }

      .st5 {
        fill: url(#linear-gradient3);
      }

      .st6 {
        fill: #4758a1;
      }

      .st7 {
        fill: #040405;
      }

      .st8 {
        fill: #c280a6;
      }

      .st9 {
        fill: #4d4e4e;
      }

      .st10 {
        fill: #f3eee2;
      }

      .st11 {
        fill: url(#linear-gradient);
      }

      .st12 {
        fill: #050506;
      }

      .st13 {
        fill: #094f46;
      }

      .st14 {
        fill: #aeb1d6;
      }

      .st15 {
        fill: #0d574f;
      }

      .st16 {
        fill: #732228;
      }

      .st17 {
        fill: #075148;
      }

      .st18 {
        fill: #575856;
      }

      .st19 {
        fill: #020303;
      }

      .st20 {
        fill: #030504;
      }

      .st21 {
        fill: #060c0b;
      }

      .st22 {
        fill: #095049;
      }

      .st23 {
        fill: #090e0c;
      }

      .st24 {
        fill: #040505;
      }

      .st25 {
        opacity: .7;
      }

      .st26 {
        fill: #065249;
      }

      .st27 {
        fill: #030404;
      }

      .st28 {
        fill: #080f10;
      }

      .st29 {
        fill: #040304;
      }

      .st30 {
        fill: #040305;
      }

      .st31 {
        fill: #16745e;
      }

      .st32 {
        fill: #030505;
      }

      .st33 {
        fill: #408d7c;
      }
    </style>
    <linearGradient id="linear-gradient" x1="116.4" y1="146.5" x2="376.2" y2="146.5" gradientTransform="translate(0 214) scale(1 -1)" gradientUnits="userSpaceOnUse">
      <stop offset="0" stop-color="#e89f98" stop-opacity=".6"/>
      <stop offset=".3" stop-color="#c79fad" stop-opacity=".8"/>
      <stop offset=".8" stop-color="#a2a0c2" stop-opacity=".9"/>
      <stop offset="1" stop-color="#92a1ce"/>
    </linearGradient>
    <linearGradient id="linear-gradient1" x1="116.4" y1="146.7" x2="376.2" y2="146.7" gradientTransform="translate(0 214) scale(1 -1)" gradientUnits="userSpaceOnUse">
      <stop offset="0" stop-color="#e89f98" stop-opacity=".6"/>
      <stop offset=".3" stop-color="#c79fad" stop-opacity=".8"/>
      <stop offset=".8" stop-color="#a2a0c2" stop-opacity=".9"/>
      <stop offset="1" stop-color="#92a1ce"/>
    </linearGradient>
    <linearGradient id="linear-gradient2" x1="116.4" y1="146.1" x2="376.2" y2="146.1" gradientTransform="translate(0 214) scale(1 -1)" gradientUnits="userSpaceOnUse">
      <stop offset="0" stop-color="#e89f98" stop-opacity=".6"/>
      <stop offset=".3" stop-color="#c79fad" stop-opacity=".8"/>
      <stop offset=".8" stop-color="#a2a0c2" stop-opacity=".9"/>
      <stop offset="1" stop-color="#92a1ce"/>
    </linearGradient>
    <linearGradient id="linear-gradient3" x1="116.4" y1="147.9" x2="376.2" y2="147.9" gradientTransform="translate(0 214) scale(1 -1)" gradientUnits="userSpaceOnUse">
      <stop offset="0" stop-color="#e89f98" stop-opacity=".6"/>
      <stop offset=".3" stop-color="#c79fad" stop-opacity=".8"/>
      <stop offset=".8" stop-color="#a2a0c2" stop-opacity=".9"/>
      <stop offset="1" stop-color="#92a1ce"/>
    </linearGradient>
  </defs>
  <g class="st25">
    <g>
      <path class="st1" d="M371.6,87.7l-4.7-3.5-28.4-20.7-20.1-14-11.1-7.3-10.9,1.1c-.2,0-.4.3-.7.3l24.7,19.5,36.5,29.7c6.5,0,13,0,19.4-1.1-1-1.8-3-2.7-4.6-4h0Z"/>
      <path class="st1" d="M217.8,48.7c-.6-.5-1-.4-1.9-.4l-62.7,1.8c-2.2,4.4-4,8.6-5.9,13.2l2.8,20.6,72.4,2.4-4.2-35.9c-.1-.9-.2-1.3-.6-1.7h0Z"/>
      <path class="st1" d="M315.2,71.1l-26.3-21.2c-1.5-1.2-3.2-3.1-5.1-3.1l-22.9.4h-11.3c0,0-15.5.5-15.5.5-1.2,0-1.1,1.4-.9,2.1l4.4,18.7c.2.8.7,3.5,1,4.7l2,8.5c.3,1.2.6,2.8,1.1,3.7,0,.4-.2,1.3.2,1.4.8.3,1.4.2,1.9.2l25.4.7,23.8.8,17,.6h5.2c.3,0,.7,0,.7-.6v-6.8c.1-2.7.7-5,2.4-6.7-.1-2-1.6-2.9-3.1-4.1v.2Z"/>
      <path class="st1" d="M116.6,56.1c3.2,7.8,6.9,15,11.5,22,1.2,1.8,2.6,3.2,4.6,4.1l2.9-6.2,10.7-26-27,.8c-2.6,0-3.4,3.3-2.7,5.3Z"/>
    </g>
    <g>
      <path class="st11" d="M371.6,87.7l-4.7-3.5-28.4-20.7-20.1-14-11.1-7.3-10.9,1.1c-.2,0-.4.3-.7.3l24.7,19.5,36.5,29.7c6.5,0,13,0,19.4-1.1-1-1.8-3-2.7-4.6-4h0Z"/>
      <path class="st4" d="M217.8,48.7c-.6-.5-1-.4-1.9-.4l-62.7,1.8c-2.2,4.4-4,8.6-5.9,13.2l2.8,20.6,72.4,2.4-4.2-35.9c-.1-.9-.2-1.3-.6-1.7h0Z"/>
      <path class="st3" d="M315.2,71.1l-26.3-21.2c-1.5-1.2-3.2-3.1-5.1-3.1l-22.9.4h-11.3c0,0-15.5.5-15.5.5-1.2,0-1.1,1.4-.9,2.1l4.4,18.7c.2.8.7,3.5,1,4.7l2,8.5c.3,1.2.6,2.8,1.1,3.7,0,.4-.2,1.3.2,1.4.8.3,1.4.2,1.9.2l25.4.7,23.8.8,17,.6h5.2c.3,0,.7,0,.7-.6v-6.8c.1-2.7.7-5,2.4-6.7-.1-2-1.6-2.9-3.1-4.1v.2Z"/>
      <path class="st5" d="M116.6,56.1c3.2,7.8,6.9,15,11.5,22,1.2,1.8,2.6,3.2,4.6,4.1l2.9-6.2,10.7-26-27,.8c-2.6,0-3.4,3.3-2.7,5.3Z"/>
    </g>
  </g>
  <path class="st16" d="M301.3,83.3c-.3.7-.1,1.8-1.4,2.6l7.4-.5c1.6,0,2,2.2,1.5,3.7l-17-.6c-.1-.9.6-1.2,1.4-1.7l4.3-2.4c1.3-.7,2.5-1.4,3.7-1h.1Z"/>
  <path class="st15" d="M307.4,85.4l-7.4.5c1.2-.8,1.1-1.9,1.4-2.6l3.9-9.4c.5-1.3,2-1.7,3-1.5s2.3,1.5,1.8,3.2l-2.7,9.9h0Z"/>
  <g>
    <path class="st16" d="M263.8,60.5c-.2,0-.4.2-.5.3-.2.2-.3.4-.2.6,0,.3.2.4.2.7s-.7.7-.2,1.1h0c0,.3-.1.6-.2.9s0,.7-.1,1.1c-.1.5-.5.9-.8,1.2-.6.5-1.3.8-2,1.1-1.4.8-1.3,3.5-1.6,4.8,0,.3-5.4-1.3-5.8-1.4-.7-.2-2.2-.4-2.7-.9s0-2.1,0-2.8c0-1.3-.1-2.5,0-3.8,0-1.5.4-3.1,1.3-4.3s2.2-2.7,3.6-3.5c.8-.4,1.6-.3,2.1-.9,1.3-1.2,2.2-3.5,2.8-5.1,1.2.8,2,2,2.4,3.4.3.8.2,1.6.4,2.4v.2c.3,1,.5,2.1,1.1,3,.2.2.4.5.5.8,0,.3,0,.6-.1.8l-.2.3Z"/>
    <path class="st6" d="M259.4,51.8c-.2.3-.2.8-.1,1.1v.9c-.1.5-.5.8-.8,1.2-.9,1.2-.6,2.8-.6,4.2s0,.4-.2.6c-.2.2-.6,0-.8,0s-.4-.4-.7-.5c-.5-.2-1.1.3-1.3.9s0,1.2.2,1.7c.2.8.3,1.8-.3,2.4-.5.7-1.4.8-2.3.8s-2.2,0-3.1-.5c-.9-.6-1.5-1.6-2-2.6-1.1-2.2-1.1-5.1-1.5-7.5-.3-2.2,1.1-4.6,2.9-5.9.5-.4,1.2-.7,1.8-.4.2,0,.3.2.5.3.6.3,1.2-.2,1.7-.5.6-.4,1.4-.6,2.1-.6s.5,0,.7,0,.3.3.4.5c.4.4.9.4,1.4.3s1-.3,1.5-.2,1,.4,1,1v.5c0,.2.4.2.6.3.4.2.7.7.6,1.1-.3,1.4-1.3,0-1.8.8h.1Z"/>
    <path class="st6" d="M260.8,56.3h-.2v.2c.1.2,1.7,0,1.6-.3s-1.1,0-1.3,0h-.1Z"/>
    <path class="st17" d="M261.3,71.8c1.6.9,3,2.4,4.2,3.7,3.1,3.5,4.7,7.8,5.6,12.1-5.2,0-10.3-.3-15.5-.4s-6.8-.2-10.3-.3-2.4.2-3.1,0c-1.4-.6-.4-3.9,0-5.4.6-3.3,1.8-6.6,4.4-9.1.7-.7,1.5-1.3,1.9-2.1.2-.3.3-.7.6-.9.5-.4,1.2-.3,1.8,0,3,.7,6.6,1.1,9.5,2.2s.7.3,1,.5v-.2Z"/>
  </g>
  <path class="st31" d="M478,166.1c1.1-8.1,1.2-16,.4-24.2-.3-3.3-1.7-6-4.3-7.8.7-2.5-.7-5.4-2.8-7.2-2.6-2.2-3.5-4.9-3.9-8.2-.6-5-2.6-10.2-6.5-13.5-4.6-3.9-10.2-6.1-15.9-7.4l-23-5.1c-12.3-2.1-24.2-3.8-36.4-4.5l-13.9-.5c1.6,1.2,3.6,2.2,4.6,4-6.4,1-13,1.1-19.4,1.1l-36.5-29.7-24.7-19.5c.3,0,.5-.2.7-.3l10.9-1.1c-3-3.1-10.9-6.2-15.7-6.8-10.8-1.4-21.2-1.9-31.9-2.3-23.7-.8-47.1-1.2-71-.5l-68.3,2-36.2,1.6c-2.1,0-3.7.4-5,1.5-1.6,1.4-.7,3.7-1.4,5.2-6.2,13.4-9.9,27.7-12.9,41.9-3.4,7.8-3.7,16.8-2.4,25.5-.4,5-2.7,9.2-5.9,12.9-3.2,3.7-.9,9.7-3.2,10.7-1.9.8-3.6,2.4-3.9,4.9-.9,7.3-1.7,14.9,0,22.2.5,1.9,1.9,3.4,1.8,5.5-.2,4.6,2.9,6.9,6.4,9,6,3.7,12.5,6.2,19.7,6.7.6-.6.7-1.4,1-1.9-1.1,0-1.3-7,0-11.2l.3-3.3c2.2-7.4,5.5-14.5,11.4-20.1,9.3-9,22.2-12.7,35-10.9,18.4,2.5,32.7,16.6,35.1,35.1l.6,3.2.5,9.7c0,.3-.2.6-.4.7.3.2.5.8.7,1.5l109.5.4h84.4c1.4,0,.6,0,.9,0,1.4-.2.9-2.8.9-3.8v-7.5c1.2-15.6,10.3-29.9,24.8-36.4,13-5.8,27.5-5.4,40.3,2.6,10.4,6.4,18,18.5,19.3,31.5.4,3.8.7,8-.3,11.8-.5,1.8-.4,3.3,0,5.1,5.9-.3,12-.6,17.9-2.1,3.7-.9,1-4.5,4.3-5.1,4.9-.9,12.6-3.6,13.8-7,.6-1.7-.7-2.5-1.4-3.8-1-1.7.5-3.8,2.1-4.7h-.1ZM119.5,50.7l27-.8-10.7,26-2.9,6.2c-2.1-.9-3.5-2.3-4.6-4.1-4.5-7-8.3-14.2-11.5-22-.6-2,.2-5.2,2.7-5.3ZM218,48.6c.4.4.5.8.6,1.7l4.2,35.9-72.4-2.4-2.8-20.6c1.9-4.6,3.7-8.8,5.9-13.2l62.7-1.8c.9,0,1.3,0,1.9.4h0ZM315.5,70.9c1.5,1.2,3,2.2,3.1,4.1-1.8,1.7-2.3,4-2.3,6.7v6.8c0,.4-.5.6-.8.7h-5.2c0,0-17-.8-17-.8l-23.8-.8-25.4-.7c-.8,0-1.9.2-2.1-.7-.5-1.5-.8-3.2-1.1-4.7l-2-8.5c-.4-1.6-1.3-6.1-1.5-6.8-.4-1.7-.8-3.5-1.2-5.2-.8-3.5-1.6-6.9-2.5-10.4,0-.3-.1-.6-.2-.9-.2-.7-.3-2.1.9-2.1l15.5-.3h11.3c0,0,22.9-.6,22.9-.6,1.9,0,3.7,1.9,5.1,3.1l26.3,21.2h0Z"/>
  <path class="st17" d="M347.7,174.3h-.1c-.7,0-1.4,0-2.2-.2h0l-71.2-.8-36.4-.5h-2.1l-34.6-.3h-32.5c-1.2,0-7.9.4-7.9.4l.5,9.7c0,.3-.2.6-.4.7.3.2.5.8.7,1.5l109.5.4,85.4.4c1,0,.8-3.2.8-3.8v-7.5h-9.5,0Z"/>
  <path class="st17" d="M341.4,92.6c5.2,0,10.4,0,15.6,0l-36.5-29.7-24.7-19.5-31,.3-47.1,1.1-62,1.7c-12.7.3-24.7.4-37.2,1.4-2.1.2-4.1,1.1-4.7,2.9-.7,1.5-.5,2.9,0,4.7,3.4,9,8.1,17.3,13.3,25.2,1.1,1.7,2.5,2.9,4.5,4,.2,0,.4,0,.6.3,0,0,.2.2.3.2s.3.2.4.3h.3c.2,0,.4,0,.5.2l70.4,2.3h3.2c2.5,0,4.9,0,7.4.2s5.6.2,8.4.2,4.2,0,6.3.2c2.6,0,5.2,0,7.8.2s3.5.2,5.2.3,0,0,.1,0l75.1,2.3c-.3-.9-1.4-2.2-2.3-2.2h-5.2c0,0-17-.8-17-.8l-23.8-.8-25.4-.7c-.5,0-1.2,0-1.9-.2-.4-.2-.2-1.1-.2-1.4-.6-.9-.9-2.5-1.1-3.7l-2-8.5c-.3-1.2-.6-2.1,0-3.1-.6-.2-.8-.8-.9-1.6l-4.4-18.7c-.2-.7-.3-2.1.9-2.1l15.5-.3h11.3c0,0,22.9-.6,22.9-.6,1.9,0,3.7,1.9,5.1,3.1l26.3,21.2c1.5,1.2,3,2.2,3.1,4.1,1-1,7.9-.8,11.8,2.1,2.6,2,3.4,4.4,3.2,7.7-.3,4.3-3.6,7.8-8.3,7.5-1.4,0-2.5,0-3.6.7l-5.7,3.1c-2.3,1.3-4,2.8-4.7,5.2l2,2.2c4.4.5,8.8,0,12.4-2.1,3.1-1.8,4.6-4.9,6.6-7.8,1.1-1.6,3-1.4,4.9-1.3,1.4,0,2.7,0,4.1,0h.1ZM135.8,75.9l-2.9,6.2c-2.1-.9-3.5-2.3-4.6-4.1-4.5-7-8.3-14.2-11.5-22-.6-2,.2-5.2,2.7-5.3l27-.8-10.7,26ZM150.4,83.8l-2.8-20.6c1.9-4.6,3.7-8.8,5.9-13.2l62.7-1.8c.9,0,1.3,0,1.9.4.4.4.5.8.6,1.7l4.2,35.9-72.4-2.4h0Z"/>
  <path class="st22" d="M441.3,188.8c-.4-1.7-.5-3.3,0-5.1,1-3.8.7-8,.3-11.8l24.3-1.4.4-6.3c.2-4,2-6.5,3.6-9.7,2.3-4.4,1.9-9.8,2.6-14.6l1.6-6c2.6,1.8,3.9,4.6,4.3,7.8.8,8.2.7,16.1-.4,24.2-1.6.9-3.1,3-2.1,4.7s2,2.1,1.4,3.8c-1.2,3.5-8.9,6.1-13.8,7s-.6,4.2-4.3,5.1c-6,1.5-12,1.8-17.9,2.1v.2Z"/>
  <path class="st17" d="M53.4,133.9c1.5.1,2.4,1.4,2.7,3,.8,5.2,1.1,10.4,1.2,15.7,3.9,3.8,1.7,7.8,3.2,11.5l18.2,1.6-.3,3.3c-1.2,4.2-1,11.1,0,11.2-.3.5-.4,1.3-1,1.9-7.1-.6-13.7-3-19.7-6.7-3.4-2.1-6.6-4.4-6.4-9s-1.3-3.6-1.8-5.5c-1.9-7.3-1-14.9,0-22.2.3-2.5,2.1-4.1,3.9-4.9h0Z"/>
  <path class="st8" d="M64.5,87.2c3-14.3,6.7-28.6,12.9-41.9,2.8,1,5.8,2.1,7.4,4.8s2.6,5.3,2.6,8.3l.3,13.7v12.6l-.4,9.9c-.3,6.6-3.9,11.4-9,15.2l-6.9,5.1c-2.5,1.9-5,3.7-8.3,4.1-.5-2.2.9-3.9,1.4-5.7,1-3.8,1.1-7.5,1.4-11.2.5-6.1,2.2-13.5-1.4-14.8h0Z"/>
  <path class="st10" d="M420,107.2c.2-1.6,1.1-3.1,3.2-3.2,10.7-.4,21.3,0,32,1.6,3.6.6,7.1,2.7,8.7,5.6,4,7.2,2.4,16-1.1,16.3s-9.4.8-13.8-.8c-6.4-2.3-11.6-6.4-17.1-10.3-4.3-3-8.3-6-11.9-9.4v.2Z"/>
  <g>
    <path class="st33" d="M320.1,92.2l-2.9-.8-75.1-2.3-8.7-.5h-3.3l-26.4-.7-70.4-2.3-1.6-.8c-2.3-1.2-3.8-2.4-5-4.3-5.3-8-9.9-16.3-13.3-25.2-.2-.6-.3-1.1-.5-1.7,0-.2,0-.4-.3-.5h-.2c0,0-.2,0-.2.2,0,.4,0,1,0,1.4s0,1.1,0,1.7c0,1.1.4,2.2.5,3.4.4,2.4.9,4.7,1.6,7.1,1.2,4.5,2.8,8.9,4.6,13.2,1.9,4.7,4.8,8.9,9.4,11.2l1.9,1c3.5,1.7,7.3,2.2,11.4,2.4l11.5.5,62.5,2.5,17.5.6,2.2.2,75.5,3.1c.7-2.4,2.4-3.9,4.7-5.2l5.7-3.1c0-.5-.4-.7-1.1-.9v-.2Z"/>
    <path class="st33" d="M341.5,92.8c-2.6-.3-5.2-.9-8-.6-2.1.2-3.5,6.5-8.4,9.3.3.6.7.7,1.4.7l20.6.8c-1-3.8-2.8-7.2-5.5-10.2h-.1Z"/>
  </g>
  <path class="st8" d="M233.1,89.2c6.8,26.3,9.7,57,4.5,83.8h-.8c2-21,.7-42-1.5-62.8-.8-7-1.6-13.9-2.5-20.9h.4,0Z"/>
  <path class="st8" d="M166.5,171.7c-1.8-12.1-7.6-23.6-16.5-31.8-3-2.6-6.5-4.6-10-7-5.3-3.4-10.3-8.9-11-15.5-.7-6.3-1.1-12.5-.4-18.8.5-4.2,1.5-8.4,3.5-12.1l.8.4c-1.6,3.8-2.3,7.8-2.5,11.8-.2,4.1,0,8.1.5,12.2.4,4.1.6,8.2,2.5,11.5s4.9,6,8.2,8.2c3.4,2.2,7,4.4,10.2,7.3,3.2,2.9,5.7,6.3,7.9,9.9,4.4,7.2,7,15.5,7.2,23.8h-.4Z"/>
  <path class="st8" d="M347.2,174.5c.8-13.2,2-27.1,2.7-40.3.7-13.3.4-26.9-4.6-39.4l.8-.4c9.8,18.4,6.9,40.2,4.8,60.1-.8,6.7-1.9,13.4-3.2,20h-.5Z"/>
  <path class="st8" d="M417.9,108.4c-11.4.3-22.7,0-34.1-.7-11.3-.6-22.7-1.4-33.9-2.8v-.8c17.1,0,34.1.7,51,2.1,5.7.5,11.3,1.1,16.9,1.8v.4h.1Z"/>
  <path class="st13" d="M263.2,107.6l5.8.3c1.2,0,2,1.2,2.1,1.9s.2,2.8-1.1,2.8l-5.8.2-1,.8c.2-.3,0-1-.4-1l-9.8-.3c-.6,0-.9,0-1.1.7-.2-.2-.8-.8-1-.8l-6.5-.6c-1,0-1.4-2.3-1.1-2.9,1.5-2.7,4.9-.8,8.7-1.8.1,0,.4.2.6.4l10.7.2h-.1Z"/>
  <path class="st21" d="M263.1,113.7c-1.2,1.4-3.5,2.8-5.8,2.5s-4.3-1.4-5.6-3.1c.2-.6.6-.8,1.1-.7l9.8.3c.5,0,.6.7.4,1h.1Z"/>
  <path class="st28" d="M263.2,107.6l-10.7-.2c-.2-.2-.5-.4-.6-.4,1.2-2.1,3.5-2.9,5.9-2.7,2.4.2,4.3,1.2,5.4,3.4h0Z"/>
  <path class="st26" d="M159.4,104c1.1,0,2.9.6,4.5.3s2.4.3,2.9,1,.2,2.2-.2,2.9-1.6.9-2.7.9h-4.7l-11.3-.5-7.8-.8c-1.3,0-1.3-3.9,0-4l7.8-.3,11.5.4h0Z"/>
  <path class="st2" d="M159.4,104l-11.5-.4c1.2-2.4,3.6-3.4,6-3.4s4.7,1.3,5.6,3.8h-.1Z"/>
  <path class="st23" d="M159.2,109.3c-1,2.3-3.1,3.1-5.6,2.9-2.5,0-4.7-1.1-5.7-3.5l11.3.5h0Z"/>
  <g>
    <path class="st18" d="M152.3,183c-3.5,16.2-18.8,27.6-35.4,26.7-16.9-.6-30.1-13.1-33-29.8.4-.3.3-.7.2-1.7-1.3-15.7,8-30.7,23.2-35.6,7.7-2.5,15.7-2.5,23.2.2,16.5,5.9,25.6,23.4,21.9,40.2h0ZM111.9,200.2c9.7,2.6,19.7-.7,26.1-8,6.3-7.2,8.1-17.6,4.4-27s-13.5-15.6-23.6-15.7c-10.3-.2-19.8,5.6-24,15.2-6.4,14.9,1.3,31.3,17,35.5h.1Z"/>
    <path class="st9" d="M431.4,189.9c-6.5,13.2-20.1,20.9-34.7,19.7s-26.4-11.1-30.4-25.2c-.1-.5-.3-.7-.9-.7.3-.1.7-.3.6-.8-4-18.1,6.8-36.4,24.7-41,12.5-3.2,25.1.3,33.8,9.1,8.6,8.7,12.4,21.9,8.5,33.8l-1.7,5.1h.1ZM379.9,191.9c8.7,10.3,22.9,12,33.7,5.3,10.8-6.7,15-20.5,9.8-32.5-3.5-8.3-11.6-13.7-19.7-14.9-9.7-1.4-18.5,2.2-24.4,9.7-7.3,9.3-7.2,23.1.6,32.3h0Z"/>
    <path class="st20" d="M441.3,171.6c.4,3.8.7,8-.3,11.8s-.4,3.3,0,5.1.1,2-.1,3.3l-9.5-1.8,1.7-5.1c3.9-11.9,0-25.1-8.5-33.8-8.7-8.9-21.3-12.3-33.8-9.1-18,4.6-28.7,22.8-24.7,41,.1.5-.3.7-.6.8h-7.7c-1.1-.3-.9-1-.9-2.2v-7.5c1.2-15.6,10.3-29.9,24.8-36.4,13-5.8,27.5-5.4,40.3,2.6,10.4,6.4,18,18.5,19.3,31.5v-.2Z"/>
    <path class="st19" d="M160.4,172.7l.5,9.7c0,.3-.2.6-.4.7h-8.2c3.7-16.9-5.4-34.3-21.9-40.2-7.6-2.7-15.5-2.7-23.2-.2-15.2,4.9-24.4,19.9-23.2,35.6s.2,1.4-.2,1.7h-5.7c-1.1,0-1.3-6.9,0-11.1l.3-3.3c2.2-7.4,5.5-14.5,11.4-20.1,9.3-9,22.2-12.7,35-10.9,18.4,2.5,32.7,16.6,35.1,35.1l.6,3.2v-.2Z"/>
    <path class="st14" d="M111.9,200.2c-15.8-4.3-23.5-20.6-17-35.5,4.1-9.6,13.7-15.4,24-15.2,10.1.2,19.7,6,23.6,15.7s2,19.8-4.4,27c-6.4,7.3-16.4,10.7-26.1,8h-.1ZM126.9,167.5l7.8-2.7c.7-.2,1.3-.9,1.3-1.4.3-2.7-11.2-10.8-12-7.2-1.2,5.5-.6,12.6,2.9,11.3h0ZM113.8,163.8l-.6-7.6c-.2-2.8-9.3,1.9-12.5,7.7,3.2,2,6.7,3,10.3,3.7s3-2.1,2.9-3.7h-.1ZM108.3,181.7c1-1.2,1-2.8.5-3.7s-1.7-1.6-3-2l-6.4-1.8c-5.3-1.5.9,17.1,4.1,13.3l4.8-5.7h0ZM134.4,188.1c1.8,1.6,6.5-8.1,5.3-13.7-3.7.3-7,1.4-10,2.5s-2.3,2.4-1.8,3.3c1.6,3,3.8,5.5,6.5,7.9ZM125.3,193.2l-3.8-6c-1.1-1.7-4-3-5.2-1l-5.2,7.8c-1.7,2.6,17.2,3.8,14.3-.7h-.1Z"/>
    <path class="st14" d="M379.9,191.9c-7.8-9.2-7.9-23-.6-32.3,5.9-7.6,14.8-11.1,24.4-9.7,8.1,1.1,16.2,6.6,19.7,14.9,5.1,12,.9,25.8-9.8,32.5-10.8,6.7-25.1,4.9-33.7-5.3h0ZM408.2,167.6l7.4-2.5c.7-.2,2.5-1.4,1.7-2.4-2.9-4.1-9.9-8.6-11.7-7.2s-.7,1-.7,2v7.6c.1,1.4,1.9,3,3.3,2.5h0ZM395,163.5l-.3-6.9c-.2-3.8-9.5,1.5-12.7,7.1,3.1,2.3,6.4,2.9,9.6,3.8s2.1-.2,2.6-.7c.8-.9.8-1.9.8-3.4h0ZM390.2,180.6c1.3-1.7-.4-3.7-1.8-4.1l-7.4-2.3c-5.6-1.7.7,17.8,4.4,13l4.9-6.6h-.1ZM416,188.7c3.7-2.3,5.7-9.8,4.9-14.4l-9.7,2.6c-1.3.3-2.4,2.4-1.7,3.6,1.7,3.1,3.9,5.7,6.5,8.1h0ZM407.2,194.8c-1.6-3.8-3.6-6.2-5.4-8.9-2.2-1-3.8-.4-5,1.4s-3.3,4.5-4.4,7.6c4.8,1.9,10.3,2.4,14.8-.1Z"/>
    <path class="st7" d="M108.3,181.7l-4.8,5.7c-3.2,3.8-9.4-14.8-4.1-13.3l6.4,1.8c1.3.4,2.4.8,3,2s.5,2.5-.5,3.7h0Z"/>
    <path class="st29" d="M134.4,188.1c-2.6-2.4-4.8-4.9-6.5-7.9s.9-3,1.8-3.3c3-1.1,6.3-2.3,10-2.5,1.2,5.6-3.5,15.4-5.3,13.7Z"/>
    <path class="st24" d="M125.3,193.2c2.9,4.5-16,3.3-14.3.7l5.2-7.8c1.3-1.9,4.2-.6,5.2,1l3.8,6h.1Z"/>
    <path class="st30" d="M126.9,167.5c-3.6,1.2-4.1-5.9-2.9-11.3s12.3,4.5,12,7.2-.6,1.2-1.3,1.4l-7.8,2.7h0Z"/>
    <path class="st0" d="M113.8,163.8c0,1.7-.9,4.1-2.9,3.7-3.6-.7-7.1-1.7-10.3-3.7,3.3-5.8,12.3-10.5,12.5-7.7l.6,7.6h.1Z"/>
    <path class="st32" d="M416,188.7c-2.5-2.5-4.7-5-6.5-8.1s.4-3.3,1.7-3.6l9.7-2.6c.8,4.6-1.2,12.1-4.9,14.4h0Z"/>
    <path class="st27" d="M390.2,180.6l-4.9,6.6c-3.6,4.8-9.9-14.7-4.4-13l7.4,2.3c1.5.4,3.1,2.4,1.8,4.1h.1Z"/>
    <path class="st27" d="M408.2,167.6c-1.4.5-3.1-1.1-3.2-2.5v-7.6c-.1-1,0-1.5.6-2,1.8-1.5,8.8,3,11.7,7.2s-1.1,2.2-1.7,2.4l-7.4,2.5h0Z"/>
    <path d="M395,163.5c0,1.4,0,2.5-.8,3.4s-1.5,1.1-2.6.7c-3.3-.9-6.6-1.6-9.6-3.8,3.2-5.6,12.6-10.9,12.7-7.1l.3,6.9h0Z"/>
    <path class="st12" d="M407.2,194.8c-4.6,2.5-10,2-14.8.1,1.1-3.1,2.9-5.2,4.4-7.6s2.8-2.4,5-1.4c1.9,2.6,3.8,5,5.4,8.9Z"/>
  </g>
</svg>