<?xml version="1.0" encoding="UTF-8"?>
<svg id="Layer_1" xmlns="http://www.w3.org/2000/svg" version="1.1" viewBox="0 0 753.3 278">
  <!-- Generator: Adobe Illustrator 30.4.0, SVG Export Plug-In . SVG Version: 2.1.4 Build 226)  -->
  <defs>
    <style>
      .st0 {
        fill: #2b2f6a;
      }

      .st1 {
        fill: #404141;
      }

      .st2 {
        fill: #444445;
      }

      .st3 {
        fill: #444;
      }

      .st4 {
        fill: #dfdfdf;
      }

      .st5 {
        fill: #eaaec5;
      }

      .st6 {
        fill: #4d4e4e;
      }

      .st7 {
        fill: #7497c4;
      }

      .st8 {
        fill: #727378;
      }

      .st9 {
        fill: #fffdfd;
      }

      .st10 {
        fill: #4959a2;
      }

      .st11 {
        fill: #444344;
      }

      .st12 {
        fill: #4b484a;
      }

      .st13 {
        fill: #464646;
      }

      .st14 {
        fill: #fff;
      }

      .st15 {
        fill: #16143d;
      }

      .st16 {
        fill: #ebb0c6;
      }

      .st17 {
        fill: #424242;
      }

      .st18 {
        fill: #40413f;
      }

      .st19 {
        fill: #454445;
      }

      .st20 {
        fill: #4b4a4a;
      }

      .st21 {
        fill: #15133d;
      }

      .st22 {
        fill: #1c1036;
      }

      .st23 {
        fill: #434341;
      }
    </style>
  </defs>
  <path class="st4" d="M749.9,188.3c.1-2.3-1.1-2.6-1.7-3.6-1.1-1.6-1.2-5.5-3.7-5.7,2.7-3.6-2.3-11.5-6.6-13.7v-9.7c5.5-.7,3.9-14.8,2.8-24.6-.3-2.5-1.7-4.2-4.1-4.9,0-3.5-.8-13.7-1.5-15.9-1.5-4.9-7.6-7.3-11.9-9.3-5.3-2.5-11-4.1-16.8-5.3-41.7-8.4-83.7-13-125.9-16-.5,1.5-2.5,1.9-3.8,2.5l-1.2.5c-4.5,0-13.1,2.6-17.6-.6l-37.5-27.2c-14.9-10.8-29.6-20.5-45.4-29.8-.6-.7.2-1.9.6-2.1l2.2-.7c4.5-1.5,9.3-.3,13.8.4-8-5.4-17-9.3-26.9-10.5l-18.9-2.2c-35.1-2.1-69.7-3.7-105-3.9-16.7,0-32.7.6-48.6,3.5-8,1.4-11.7,7.1-13.3,14.4-4.4,19.7-7.3,39.3-9.2,59h-1.8s-183.8-2.3-183.8-2.3l-62.2-1c-3.2,0-3.5,4.1-4.4,5.7-1.6,2.7-.2,6-.6,9.2l-1,10.3c-1.9,10-2.6,20.3-2.3,30.5.2,5.2.6,10.3,1.3,15.4.7,4.8,2.1,9.4,2.7,14.2.2,1.8.4,3.7,1.2,5.3.4,1,1.5,1.8,1.7,2.9-1.9.6-3.9.6-5.8,1.4-1.7.7-3.4,1.5-4.9,2.6-3.5,2.6-4.3,6.3-4.2,10.4,0,6.4,1.6,13.6,7.4,15.3,6.6,1.8,13.2,2.1,19.6,3,.2-3.1-2.5-4.8-.9-6.7.3-.2,55.7,5.4,55.7,5.4l14.8.3c-.7,0,2.2-16.1,2.6-17.4,1.4-5.6,3.3-11.4,6-16.5,5-9.3,12.5-17.1,21.5-22.5,9.1-5.5,19.5-8.6,30-9.6,9.1-.8,17.2.3,26.1,2.6,6.1,1.6,12.1,4.1,17.5,7.5,6.5,4,12.2,9.2,16.7,15.4,2.3,3.1,4.9,6.6,6.5,10.1,1.8,3.9,2.8,8.2,4.1,12.1,4.1,12.5,2.2,25,4.8,26.9.9.7,140.3,3.6,140.3,3.6l179.4,3.5c.7,0,3,0,3.1-1.2.2-9.6,1.5-19.3,4-28.6,1.1-4.1,2.3-8.5,4.2-12.3,2-3.9,4.7-7.3,7-10.9,4-4.7,8.2-9.5,13.2-13,7.2-5.1,14.6-9.6,23.2-10.8l8.4-1.2c7.4-1.1,14-.3,21.5.9,31.5,5,49.6,33.1,52.9,63.1.3,2.5,0,4.6,1.9,7,12.6-.4,25.2-.7,37.8-1.1,1.9,0,4.1.2,5.9-.2,4.3-.8,6.3-6.8,6-10.6,3.9-2.2,2.8-9.4,3.1-13.2ZM329,86.5c-3.8-.1-7.4-1.3-10.9-2.9-3.2-1.5-8.3-3.3-9.7-7.1.1-14.9,1.6-29.2,3.6-43.7.6-4.1,3.8-7.5,8-7.6l24-.7c.9,0,1.3,0,1.6-.8.6.7,1.3.8,2.4.8h10.8c1.7,0,3.5-.2,5,.5l-1,48.2c-.1,4.8.3,9.6-1,14.7l-32.9-1.2ZM508,68.3c-4.6-.8-10.9,0-11.9,5.2-1.4,7.2-1.9,15.2-1.3,22.7.4,4.9,11.4,4.5,13.3,6.6l-34.9-.5c-3.1,0-6.3-.8-9-2.1l-14.2-6.9-5-2.1-9.1-1.7-16.9-.6-21.3-.7-1.3-34.2-.7-28.7,44,2.5,8.5,1.5c5.6,1,11.1,2.9,16,5.7l6.7,3.8,5.7,3.4,32.3,22.7c.6.4.5,3.7-.8,3.5Z"/>
  <g>
    <path class="st5" d="M16,158.5c-2.7-16.5-4.6-33.6-1.4-50,10,.2,35.8,0,37.2,1.2,2,1.9.8,11.2-.1,12.2l-9.7,10.2-1,20.3c0,1.8-.5,5.4-3,5.4l-20.1-.4c-1,0-1.5.5-1.9,1.1Z"/>
    <path class="st16" d="M705.6,116.7c.6,0,1.9.3,2.5.3h26.2c0,.1-.8,8.7-.8,8.7l-8.3.7c-3.1.3-4.7,2.2-4.7,5.3l.2,17.9c0,2.4,1.3,5.3,3.7,5.6l10.1,1.3.9,7.6c-6.9,1.4-15.2.9-22.5,1-14.8.2-7-17.1-11.2-25.3l-11.1-12.1c-1.9-2.1-2.7-8.9.6-10.2l14.4-.8Z"/>
  </g>
  <path class="st15" d="M507.8,102.8c0,0-.1,0-.2,0-1.8-.3-3.7-.7-5.4-1.3s-7-2.1-7.2-5.2c-.6-7.5-.1-15.5,1.3-22.7,1-4.8,5.8-5.2,9.8-5.6s9.9,0,13.6,3.1c2.8,2.3,5.7,4.6,8.5,6.9,7.5,5.3,8.3,13.9,7.6,22.4-.1,1.6-.4,3.2-2.1,3.8s-1.4.3-2.1.3c-.9,0-1.8,0-2.6.1-5,.3-10.1-.7-15.1-.8-4.1-.1-8.2-1.6-12.1-2.7-1-.3-2-.6-2.9-1-.8-.4-1.5-1-2.2-1.5-.2-.2-.5-.4-.6-.6s0-.6.2-.8"/>
  <path class="st15" d="M362,87.7c1.3-5,.9-9.8,1-14.7l1-48.2,31.7.4.7,28.7,1.3,34.2-35.7-.5Z"/>
  <path class="st10" d="M372.9,217.1c0-32.8,2.5-68.6,2.2-101.4-.5-7.5-1-15.9-1.3-23.4,0,0,1,0,1,0,1,7.5,1.9,15.8,2.8,23.3.9,13.1.5,26.1.2,39.2-.7,20.8-2,41.7-4.3,62.4,0,0-.5,0-.5,0h0Z"/>
  <path class="st10" d="M373.8,179.8c-17,.9-33.9.9-50.9.7-17-.2-33.9-.7-50.9-1.8,0,0,0-1,0-1,25.5-1,50.9-.7,76.4.1,8.5.3,17,.7,25.4,1.4v.5h0Z"/>
  <path class="st10" d="M565.3,179.7c-63.2,1.9-127.2,1.8-190.4.2,0,0,0-1,0-1,47.4-1.3,95.4-1.4,142.8-.8,13.9.2,33.9.5,47.6,1.1,0,0,0,.5,0,.5h0Z"/>
  <path class="st10" d="M266.5,177.9c-10.2,1.6-20.5,1.6-30.7,1.1-3.4-.2-6.8-.4-10.2-.9v-1c10.2-1.3,20.5-1.4,30.7-.8,3.4.2,6.8.5,10.2,1.1v.5h0Z"/>
  <path class="st10" d="M104.2,175.8c-20.4.9-40.9.3-61.3-.8-6.8-.4-13.6-.9-20.4-1.6,0,0,0-1,0-1,20.4-.7,40.9,0,61.3,1.1,6.8.4,13.6.9,20.4,1.7,0,0,0,.5,0,.5h0Z"/>
  <path class="st10" d="M530,219.5c5.5-28,9.7-56.4,10.9-84.9,0-9.5.7-19.1.7-28.5,0-12.6-3.4-25.2-15-31.6-13.5-9.1-32.7-22.3-45.9-31.4-5.6-4.1-11-8.4-16.8-12-5.8-3.5-12.4-5.1-19.1-6.3-13.6-2.4-27.3-3.6-41.1-3.2-18.8,0-63.9-.6-83.2-.7-8.7-.2-18.5,0-25.6,5.5-3.5,2.6-5.3,6.6-5.8,10.9-4.5,50.4-8.1,101.4-4.9,152.1.3,4.6.5,9.2,1.2,13.7.7,4.4,1.5,9.2,4,12.8,0,0-.8.6-.8.6-1.5-2-2.3-4.2-3-6.5-1.3-4.5-2-9.1-2.5-13.7-1-11.5-1.6-23.1-1.9-34.7-1.1-37,.5-74.1,4-110.9.7-8.9-.7-20.7,7.8-26.8,7.9-6,18.1-6.3,27.5-6.2,19.6.4,64.2.3,83.2.6,14-.4,28,1,41.7,3.4,6.9,1.3,14,3,20.1,6.8,5.9,3.7,11.4,8.2,16.9,12.2,12.8,8.9,32.8,22.7,45.5,31.5,12.4,7.1,16,20.5,15.9,33.9,0,9.7-.8,19-1,28.6-.7,15.9-2.9,31.7-5.3,47.4-2,12.6-4.3,25.1-7.1,37.5h-.5Z"/>
  <path class="st0" d="M690.5,138.9c-30.2-23.5-65.6-26.6-99.3-8.6-8.4,4.5-14.4,11.3-21.8,17.3,2.6-4,5.6-7.6,9.2-10.8,23.3-20.8,56.4-27.2,85.5-16,9.9,4.6,19.9,8.7,26.4,18.1Z"/>
  <path class="st22" d="M244.6,147c-18.4-23.8-48.7-36.8-78.6-33.6s-45.3,14.4-61.2,33.5c11.8-20,32.8-32.6,55.5-36.8s19.2-.5,28.7-.2c23.4,4.2,43.7,16.9,55.7,37.1Z"/>
  <path class="st21" d="M63,86l9.2.4,87.3.8s29.2.8,29.2.8c5.3.1,10.7,0,16,.1,12.1,0,24.2.2,36.3.3,5.2,0,10.5,0,15.7.1s8.8.9,11.9-1c.7-.4,1.4-1,1.7-1.8s.4-1.7-.1-2.4c-1-1.5-6.3-.9-8-.9-6.5,0-12.9-.2-19.4-.2-9.7-.1-19.5-.2-29.2-.4s-22.9-.3-34.3-.4c-11.6-.1-23.2-.3-34.8-.4s-20.4-.3-30.6-.4c-7.3,0-14.5-.2-21.8-.3s-5.5,0-8.3-.1l-62.2-1c-3.2,0-3.5,4.1-4.4,5.7l24,.5c7.3.1,14.3.3,21.7.6Z"/>
  <path class="st21" d="M25.9,173.1c-2.4-1.2-5.2-.8-7.8-.8,0,0-.1,0-.2,0l-11.4.2c-2.3,4.7-2.1,9.7-1.1,14.6.5-1.8.5-3.6.5-6.1l20.9,1,1.7.7c-.6-3.1-.6-6.1-2.2-9.5-.1,0-.2,0-.3-.1Z"/>
  <path class="st21" d="M745.1,208.6c-.9-2.4-3.1,3.1-5.3,3.2l-42.8,1.2c-2-2.4-1.6-4.5-1.9-7-1-9.1-3.7-17.6-7.3-25.9-.2-.4.7-1.4,1.5-1.4l48-1.4c1.3,0,3.3,2.2,4.5,1.5l-7-5.1c-2.6-1.8-6.6-.8-9.6-.4l-9.2.8-30.1.4c-8.8-16.6-24.9-28.6-43.7-31.5-7.5-1.2-14.2-1.9-21.5-.9l-8.5,1.2c-8.6,1.2-16,5.7-23.2,10.8-5,3.5-9.1,8.4-13.2,13l-6.7,10.6c-.2,1,.7,3.3-1.1,3.4-.5,0-.9.8-1.1,1.4-4.1,11.7-6,23.9-6.4,36.4,0,1.1-138.1-3-138.1-3,.2.2-131.3-1.3-131.3-1.3-1,.3-52.4-.9-53.4-1.6-2.6-1.9-2-7.6-2.1-10.5-.2-5.3-1.1-10.7-2.6-15.8-1.3-4.6-2.7-10.1-5.1-14.2-4.6-7.9-10.6-15-17.9-20.6-6.5-5-14-8.7-22-10.8-8.9-2.4-17-3.5-26.1-2.6-8.7.8-17.3,3-25.1,6.9s-14.6,9.1-20.1,15.7-6.1,8.2-7.9,12.9c-.3.9-.7,1.7-1,2.6-1.7,4.5-3.2,9-4.2,13.7-.2,1.1-2.3,14.2-1.8,14.2,0,0-19.5-1.4-19.5-1.4-7.9,0-50.7-4.5-51-4.3-1.7,1.9,1.1,3.6.9,6.7,8.1,1,16.2,2,24.3,3.1,12.2,1.5,24.4,3.1,36.6,4.6s6.9.7,10.3.3c2.8-.3,5.5-.8,8.3-1s2.8-1.4,3.5-3.7c7.5-26.7,32.9-43.5,59.9-40.1,27.2,3.4,48,26.6,48,54.2.3,0,.5.1.7.2,0,0-.2,0-.3-.1l58.9.3c1.1,3.8,3.8,5.5,7.6,5.6l132.1,1.8,103.8,1.5c9.3.1,20.6-.2,20.9-7,8,.5,15.6.6,23.4-.3,1.9-.2,3.1-1.3,3.4-3,.8-27.9,22.3-50.8,50.1-53.2,27.8-2.4,53.4,16.8,58.5,44.5.9,5,1.4,10.1.9,14.7,3.7,1.7,7.6,1.7,12,2.5l1,8.1c7,1,14,1.6,21,1.1,1.7-.1,2.8-1.5,3.6-2.1,1.4-1.1.4-3.2.4-4.7v-9.2c9.1-3.7,17.7-7.7,23.8-14.5Z"/>
  <path class="st6" d="M223.7,222.8c-.7,31.9-27.1,56.8-59.5,54.4s-54.8-31.3-49.9-62.8c.1-.7,0-1.6-.2-1.8s-1,0-1.4-.2c2.1,0,2.3-1.9,2.8-3.7,7.5-26.7,32.9-43.5,59.9-40.1,27.2,3.4,48,26.6,48,54.2,1.3.3,1.5.5.4,0ZM160,253.1c13.6,3.6,27.3-1.9,34.6-12.9s7.1-26.6-1.4-37c-8.6-10.5-22.4-15.2-35.5-10.2s-21.4,17.6-20.7,31.6c.7,12.9,9.7,25,22.9,28.5Z"/>
  <path class="st6" d="M683.3,227.5c-3,30-28.5,51.4-58.2,49.8-29.2-1.7-52.3-26.7-51.4-55.7.8-27.9,22.3-50.8,50.1-53.2,27.8-2.4,53.4,16.8,58.5,44.5.9,5,1.4,10.1.9,14.7ZM639.6,252.2c17.1-6.3,24.8-25.5,17.8-41.9-6.7-15.9-25.5-23.8-41.6-16.4-16,7.3-23,25.2-16.6,40.8,6.5,15.8,23.9,23.6,40.4,17.6Z"/>
  <path class="st8" d="M639.6,252.2c-16.5,6.1-33.9-1.8-40.4-17.6-6.4-15.6.6-33.5,16.6-40.8,16.1-7.4,34.9.6,41.6,16.4,6.9,16.4-.8,35.7-17.8,41.9ZM628.4,204c3.5,0,5.8-3.3,6.4-6.3-4.3-1.6-8.7-1.7-13-.2.7,3.2,3.1,6.6,6.7,6.5ZM610.3,215c4.3-2.4,3-8.3-.6-11-3.5,3-5.5,7.1-6.4,11.3,2.2.7,4.7.9,7-.4ZM653.7,215c-1.6-4.7-3.2-8.1-6.8-11-2,2-3.8,5.5-2.7,8.3s6.2,4.5,9.5,2.7ZM623.9,210.6c-7.4,2.6-9.6,10.6-7.1,17s9.7,9.2,15.9,7.1,9.9-9.9,7.9-16.3-9.7-10.3-16.7-7.9ZM647.7,240.8c3.7-3.4,5.5-7.2,6.1-11.5-3.4-1.3-7.8-.2-9.1,3.3s.4,7,3,8.2ZM612.3,232c-1.9-3.4-6.4-3.9-9-2.4,1.2,4.7,2.8,8.6,6.4,11.4,2.5-2.1,4.3-6,2.6-9.1ZM634.3,247.8c1.5-3-4-8.4-7.8-6.2s-4.5,3.7-4.3,6.6c3.4.6,8.5,2,12.1-.4Z"/>
  <path class="st19" d="M161.5,233.6c-5-3.4-7-9.2-5.2-15s6.6-8.8,12.4-8.7,11.2,4.2,12.1,10.1c.9,5.7-1,10.5-5.4,13.4s-9.6,3.1-13.9.1Z"/>
  <path class="st11" d="M149.4,241.3c-2.9-2.9-5.9-7.4-6-11.5,2-2.6,9.1-.4,9.4,3.7s-.2,5.9-3.4,7.7Z"/>
  <path class="st18" d="M143.6,215.5c-.1-3.9,2.5-8.1,6.1-11.2,2.7,1.2,3.9,5.5,3.2,7.6-1.2,3.6-4.7,5-9.3,3.6Z"/>
  <path class="st23" d="M193.3,214.8c-1.5,2.5-7.4,1.9-9.3-2.5-1.2-2.8,1.7-7.3,2.4-7.5,2.5-1,5.4,4.5,6.9,10Z"/>
  <path class="st1" d="M192.7,230.2c1.4,2.8-3,9.1-5.1,10.4-3.5-.8-3.9-6-3.2-8.2s6.7-5.4,8.3-2.2Z"/>
  <path class="st20" d="M174.2,248.3c-2.4,1.4-9.3,1.5-11.5-.3-1.5-2.9,2.8-6.7,5.9-6.6s7.1,3.8,5.6,6.9Z"/>
  <path class="st13" d="M174.8,197.5c-.3,3-2.9,6.6-6.4,6.5s-5.9-3.6-6.6-6.5c4.5-1.5,8.4-1.1,12.9,0Z"/>
  <path class="st3" d="M623.9,210.6c7-2.5,14.5.9,16.7,7.9s-.7,13.8-7.9,16.3-13.2-.5-15.9-7.1-.3-14.4,7.1-17Z"/>
  <path class="st2" d="M612.3,232c1.7,3.1-.1,7-2.6,9.1-3.6-2.8-5.3-6.7-6.4-11.4,2.7-1.5,7.2-1.1,9,2.4Z"/>
  <path class="st12" d="M634.3,247.8c-3.6,2.4-8.7,1-12.1.4-.2-2.9,1.8-5.2,4.3-6.6,3.8-2.2,9.3,3.2,7.8,6.2Z"/>
  <path class="st17" d="M647.7,240.8c-2.6-1.2-4.1-5.3-3-8.2s5.7-4.6,9.1-3.3c-.6,4.3-2.3,8.1-6.1,11.5Z"/>
  <path class="st0" d="M34.2,206.9l-6.1-24.9s-23.5-1.2-23.5-1.2c-.7,0,0,8,.1,8.4.3,1.8.8,3.4,1.2,5.2.7,2.8,1.7,6.6,4.4,8.2,2.6,1.6,5.9,2.2,8.9,2.4l14.9,1.8Z"/>
  <path class="st0" d="M698.1,213.1c-1.3-.2-2.3-1.3-2.8-2.4s-.6-2.4-.7-3.6c-.5-4.3-1.2-8.6-2.3-12.9s-2.8-7.8-4.3-11.8-.5-2.1,0-3,1.7-1.5,2.7-1.1l48.9-1c3.9,0,8.8,1.4,10.6,4.7,1.8,3.3,1.9,7.3,1.9,11,0,3.4,0,6.9-1,10.2s-2.9,6.5-5.9,8.3l-47.1,1.6Z"/>
  <path class="st7" d="M491.7,22.5c1.4.2,3,1.1,4.6,2,27.5,16.2,53.8,33.8,79.6,52.6l4.7,2.6c-.5,1.5-2.5,2-3.8,2.5l-1.2.5c-4.5,0-13.1,2.6-17.6-.7l-37.5-27.2c-14.9-10.8-29.7-20.5-45.4-29.8-.6-.7.2-1.9.6-2.1l2.2-.7c4.5-1.5,9.3-.3,13.8.3Z"/>
  <path class="st7" d="M448.2,29.3l-8.1,17.3-19.9,38.9c-.6,1.3-1.5,2.1-1.2,3.5l-21.3-.7-1.3-34.2-.7-28.7,44,2.5,8.5,1.5Z"/>
  <path class="st7" d="M508.9,64.8c.6.4.5,3.7-.8,3.5-4.6-.8-10.9,0-11.9,5.2s-1.9,15.2-1.3,22.7c.4,4.9,11.4,4.5,13.3,6.5l-35-.5c-3.1,0-6.3-.8-9-2.1l-14.1-6.9,26.6-51.1,32.3,22.7Z"/>
  <path class="st7" d="M345.7,23.6c.8,1.8,0,3-.8,4.7l-16.5,33.1-9.2,18.2c-.7,1.4-1.1,2.6-1,3.9-3.2-1.5-8.3-3.3-9.7-7.1.1-14.9,1.6-29.2,3.6-43.7.6-4.1,3.8-7.5,8-7.6l24-.7c.9,0,1.3,0,1.6-.8Z"/>
  <path class="st7" d="M364,24.9l-1,48.2c-.1,4.8.3,9.6-1,14.7l-33-1.2c-.2-2.1,1-3.7,2-5.6l27-53.4c.6-1.3,1.2-1.9.9-3.1,1.7,0,3.5-.3,5,.4Z"/>
  <path class="st14" d="M464.2,35c.4,1.7-.9,2.6-1.6,4.1l-25.2,49.5c-.8,0-1.4.2-1.5.9l-16.9-.6c-.3-1.3.5-2.2,1.2-3.5l19.9-38.9,8.1-17.3c5.6,1,11.1,2.9,16,5.7Z"/>
  <path class="st9" d="M359,24.5c.3,1.1-.3,1.8-.9,3.1l-27,53.4c-1,1.9-2.2,3.5-2,5.6-3.8-.1-7.4-1.3-10.9-2.9-.1-1.3.3-2.5,1-3.9l9.2-18.2,16.5-33.1c.9-1.7,1.6-2.9.8-4.7.6.7,1.3.8,2.4.8h10.8Z"/>
  <polygon class="st14" points="476.6 42.2 450 93.3 445 91.2 470.9 38.8 476.6 42.2"/>
  <path class="st7" d="M470.9,38.7l-26,52.5-9.1-1.7c.1-.7.7-.9,1.5-.9l25.2-49.5c.8-1.5,2.1-2.4,1.6-4.1l6.7,3.8Z"/>
  <path class="st10" d="M577.2,87.4c39.9,18.9,93.4-4.1,127,30.2,0,0-.7.7-.7.7-30.8-27.2-74.9-12.8-111.2-23.8-5.4-1.6-10.6-3.8-15.3-6.7l.2-.4h0Z"/>
  <path class="st18" d="M603.6,215.4c-.1-3.9,2.5-8.1,6.1-11.2,2.7,1.2,3.9,5.5,3.2,7.6-1.2,3.6-4.7,5-9.3,3.6Z"/>
  <path class="st23" d="M653.3,214.7c-1.5,2.5-7.4,1.9-9.3-2.5-1.2-2.8,1.7-7.3,2.4-7.5,2.5-1,5.4,4.5,6.9,10Z"/>
  <path class="st13" d="M634.8,197.4c-.3,3-2.9,6.6-6.4,6.5s-5.9-3.6-6.6-6.5c4.5-1.5,8.4-1.1,12.9,0Z"/>
</svg>