<?xml version="1.0" encoding="UTF-8"?><svg id="Layer_1" xmlns="http://www.w3.org/2000/svg" xmlns:xlink="http://www.w3.org/1999/xlink" viewBox="0 0 620.24 267.04"><defs><style>.cls-1{fill:#010101;}.cls-2{fill:#acaece;}.cls-3{fill:url(#linear-gradient-4);}.cls-4{fill:url(#linear-gradient-3);}.cls-5{fill:url(#linear-gradient-2);}.cls-6{fill:#4e4f4f;}.cls-7{fill:#09080e;}.cls-8{fill:#09090d;}.cls-9{fill:url(#linear-gradient);}.cls-10{fill:#c381a7;}.cls-11{fill:#050505;}.cls-12{fill:#9a3e31;}.cls-13{fill:#08080b;}.cls-14{fill:#5a2a3b;}.cls-15{fill:#abaecf;}.cls-16{fill:#050406;}.cls-17{fill:#040505;}.cls-18{fill:#030404;}.cls-19{fill:#2a2d67;}.cls-20{fill:#dadf55;}.cls-21{fill:#59283b;}.cls-22{fill:#2a2b66;}.cls-23{fill:#2a2b65;}</style><linearGradient id="linear-gradient" x1="60.07" y1="45.92" x2="160.09" y2="45.92" gradientUnits="userSpaceOnUse"><stop offset="0" stop-color="#eaa099" stop-opacity=".6"/><stop offset=".3" stop-color="#c8a0ae" stop-opacity=".8"/><stop offset=".8" stop-color="#a3a1c3" stop-opacity=".9"/><stop offset="1" stop-color="#94a2cf"/></linearGradient><linearGradient id="linear-gradient-2" x1="293.54" y1="49.7" x2="388.35" y2="49.7" xlink:href="#linear-gradient"/><linearGradient id="linear-gradient-3" x1="203.59" y1="47.19" x2="267.03" y2="47.19" xlink:href="#linear-gradient"/><linearGradient id="linear-gradient-4" x1="181.47" y1="46.51" x2="200.91" y2="46.51" xlink:href="#linear-gradient"/></defs><path class="cls-20" d="M19.08,159.88c1.53-1.23,5.18-1.78,9.27-1.85,0,0-6.14-2.8-9.27,1.85ZM578.39,110.52l-8.62-.38-19.71-1.66-47.78-2.98-34.5-1.87-35.73-1.49-20.58-.54-.63,45.68-.78,14.01c-.51,9.18-6.99,15.86-16.17,15.96l-29.3.29-50.58-.1c-16.08-.04-20.75-13.92-27.98-26.31-3.3-5.64-4.53-11.13-4.56-17.75l-.21-71.89-.44-51.91,10.17-.02,57.07,1.8,20.98,1.36c3.18.2,5.82,1.43,7.39,4.46l15.19,29.24c6.64,12.78,13.64,24.96,17.81,38.81l2.11,14.04,23.27.54c3.69.08,7.56.91,11.22.41,1.96-.27,2.34-14.11-1.44-21.36l-28.01-1.87-18.94-35.9-14.06-24.7c-3.05-5.37-7.45-9.52-13.7-10.09l-24.65-2.22L182.67.23,79.86,0c-8.56-.01-16.34.7-24.62,2.15-3.18.56-4.65,3.53-5.38,6.54-4.28,17.51-6.2,35-8.57,53.39l-4.71,34.92c3.61-.32,7.62,1,7.74,4.09.36,8.73.37,17.6-.69,26.73-2.37,2.56-9.17,2.28-11.33.93l-3.96,29.29c2.8-.06,5.82.12,8.5.43l2.81,1.72c9.85,1.12,19.48.95,29.14,1.04l.06-1.65-12.09-.23c-1.96-.02-3.72-1.5-2.89-3.43l4.32-10.04,10.64-21.65c2.97-6.03,8.63-9.16,15.16-10.32,11.9-2.11,23.86-1.92,36.09-1.44l20.16.78c24.15.94,31.72,4.4,44.94,23.95l20.08,29.7,8.88,15.19c-6.57,1.45-12.68,1.29-18.75,1.01l-.27,1.07,25.56.36,98.5.72,37.54.18,58.8.58c7.97.08,15.48.7,23.73-.5-1.91-1.24-4.71.56-6.24-2.31,11.32-21.49,24.11-41.4,38.72-60.52,5-6.55,12.93-9.3,21.03-10.04,18.33-1.68,36.14-.99,54.6.07,11.37.66,22.25,1.5,32.56,4.93.46-2.33-.76-5.06-1.51-7.1ZM60.13,66.95l4.15-37.7c.41-3.64.85-7.76,2.47-10.96,1.61-3.17,5.8-3.28,9.12-3.27l76.65.06c3.88.01,7.8,2.21,7.57,6.64l-2.56,47.56c-.2,3.79-3.28,7.57-7.14,7.53l-83.1-1.13c-5-.06-7.64-4.33-7.16-8.73ZM276.99,127.91l-.11,30.08c-.04,11.27-7.62,17.97-18.31,17.92l-34.25-.15c-6.51-.02-12.19-2.64-15.81-8.21l-11.48-17.65-12.08-17.25-8.07-10.49c-3.01-3.9-5.92-7.6-6.19-12.45l-.66-11.89-21.96-.37-39.07-.95-58.78-.61-10.53-.55c-.29-.01-.87-.82-.88-1.07-.01-.25.39-1.03.82-1.03l19.52.21,44.39.95,58.57.49c2.72.02,5.45,1.49,8.31.04l.82-24.16,1.6-32.44,1.3-28.99c.74-1.23,3.78-1.71,5.31-1.69l33.39.44,37.03.93,24.63.35c1.73.02,2.15,2.97,1.82,4.39-.52,2.29.26,3.66.27,5.77l.61,80.05-.21,28.34Z"/><path class="cls-18" d="M195.4,183.09l-.28,1.07c-.96,3.66-.11,8.07,1.79,11.65l86.73.4,92.62.88,69.77.36c5.31.03,4.89-4.73,4.79-11.69,3.12.44,4.53-1.64,5.89-3.76l12.94-20.27,15.19-21.95c5.5-7.95,14.22-10.64,23.81-10.48,13.44.22,26.46-.14,39.77,1.4,6.21.72,12.45.1,18.43,2.35,8.31,3.13,8.52,10.83,13.01,11.99,2.05.53,4.68.79,6.38.57l.65,7.12.08,4.35c1.64.93,2.83,1.96,2.36,4.06-1.44-.76-2.37-.5-2.94,0-1.04.92-1.51,2.48-1.09,4.01l4.73,17.33c1.17,4.28,3.93,6.29,8.14,5.97-1.91,6.84-6.41,12.07-12.77,14.58-.4.14-1.02.26-1.24.05-.89-.85-1.07-29.38-28.12-46.16-17.4-10.79-37.88-11.6-56.02-3.56-10.2,4.52-18.81,12.05-24.94,21.35-7.08,10.75-10.31,26.92-10.2,39.7-7.09-.86-124.16,0-124.16,0h-154.01c3.55-32.21-18.78-61.16-50.54-65.75s-62.25,17.37-67.31,49.73c-.12.78-.9,1.17-1.76.93-1.03.41-2.91-.87-3.93-.98l-19.9,4.75c-3.27-.06-6.59-4.43-8.22-6.9l13.12-4.48,6.78.63c1.26.12,3.88.73,4.93-.48l10.03-29.41c.22-.65-.6-1.25-1.11-1.22l.06-1.65c2.27-1.41,3-4.3,4.13-6.87l5.76-13.15c2.57-5.86,7.7-9.3,14.57-9.64,18.85-.95,37.68-.8,56.16,1.67,7.23.96,12.58,4.7,16.76,10.29l5.13,6.86,24.03,34.37Z"/><path class="cls-10" d="M579.91,117.62c7.24,2.4,13.42,15.76,16.37,24.53.47,1.38-.99,2.31-2.19,2.47l-7.84,1.01c-1.7.22-4.33-.05-6.38-.57-4.49-1.16-4.7-8.86-13.01-11.99-5.98-2.25-12.22-1.64-18.43-2.35-13.31-1.54-26.33-1.17-39.77-1.4-9.59-.16-18.31,2.53-23.81,10.48l-15.19,21.95-12.94,20.27c-1.35,2.12-2.77,4.2-5.89,3.76.09,6.97.52,11.72-4.79,11.69l-69.77-.36-92.62-.88-86.73-.4c-1.9-3.58-2.76-7.99-1.79-11.65l25.56.37,98.49.71,37.55.17,58.79.59c7.97.08,15.49.7,23.73-.5-1.9-1.25-4.71.56-6.23-2.32,11.31-21.49,24.11-41.39,38.72-60.52,5-6.55,12.93-9.31,21.03-10.05,18.33-1.68,36.14-.99,54.6.08,11.37.66,22.26,1.5,32.56,4.92ZM579.07,128.36c-3.09.73-4.11,3.78-3.66,5.98.55,2.72,3.17,4.34,5.62,3.76,2.64-.62,4.25-3.23,3.87-5.83-.35-2.37-2.65-4.66-5.82-3.91Z"/><path class="cls-6" d="M585.41,203.03c-.06.74-.65,1-1.56.99,1.7,24.89-12.8,47.79-34.8,57.68-23.28,10.46-50,5.16-67.58-13.31-9.42-9.9-15.67-22.64-16.25-35.93l-.34-7.69,1.83-11.22c.1-.64-.22-.96-.81-.87.32-.17.51-.86,1.2-.97,5.23-16.78,16.44-31.04,32.92-38.35,18.14-8.04,38.62-7.23,56.02,3.56,27.05,16.77,27.23,45.31,28.12,46.16.22.21.84.09,1.24-.05ZM563.85,199.21c-4.72-22.27-25.85-35.9-48.17-30.94-14.99,3.34-26.25,15.27-29.77,28.83-4.08,15.7.92,31.53,13.16,41.46,13.68,11.09,32.58,12.05,47.06,2.81,13.86-8.85,21.26-25.47,17.72-42.17Z"/><path class="cls-6" d="M186.72,214.41c-1.52,13.84-8.28,27.13-19,36.89-23.7,21.61-58.97,20.81-81.83-1.48-22.59-22.03-16.99-49.05-17.71-49.63l-1.08-.88c.86.24,1.64-.16,1.76-.93,5.06-32.35,35.22-54.36,67.31-49.73s54.09,33.53,50.54,65.76ZM100.17,236.72c9.63,8.86,22.77,12.95,36.51,9.82,10.82-2.46,21.49-10.02,26.87-21.41,8.1-17.14,4.06-37.11-10.92-49.18-14.42-11.61-35.67-11.51-49.95-.1-19.62,15.69-20.91,43.95-2.52,60.86Z"/><path class="cls-20" d="M577.63,108.1c-2.02.59-4.12-.2-6.36-.37l-19.04-1.43-24.83-1.61-26.81-1.66-33.91-1.91-17.12-.68-.51-16.03-2.14-5.4c30.28,2.55,60.4,5.59,90.67,10.35l27.71,5.56c6.33,2.25,11.15,6.87,12.34,13.18Z"/><path class="cls-21" d="M444.59,78.84l2.33.18,2.14,5.4.51,16.03,17.12.68,33.91,1.91,26.81,1.66,24.83,1.61,19.04,1.43c2.24.17,4.34.96,6.36.37,1.09.41.53,1.76.77,2.41l-8.63-.38-19.71-1.66-47.78-2.98-34.5-1.87-35.73-1.49-20.58-.54-.63,45.68-.78,14.01c-.51,9.19-6.99,15.86-16.16,15.96l-29.31.29-50.57-.1c-16.08-.03-20.76-13.91-27.99-26.3-3.29-5.64-4.53-11.13-4.55-17.75l-.22-71.89-.44-51.91,10.17-.02,57.07,1.79,20.98,1.37c3.18.21,5.82,1.44,7.39,4.46l15.2,29.25c6.64,12.78,13.64,24.96,17.8,38.8l2.11,14.05,23.27.53c3.69.08,7.56.9,11.22.4,1.96-.27,2.34-14.1-1.44-21.36ZM397.72,64.46l-1.45-3.16c-.98-2.14-1.78-4.76-3.02-7.17l-15.83-30.85c-1.23-2.4-3.04-6.67-5.63-7.51-7.88-2.55-15.71-1.91-23.66-2.15l-49.21-1.47c-5.35-.16-10.3-1.09-15.97-.38l.26,108.07.31,13.6c.12,5.31.67,10.06,3.33,14.52,6.27,10.51,12.63,27.36,24.03,27.37l82.14.04c8.4,0,14.52-6.64,14.79-14.57l.65-19.36.14-41.09-.6-9.64c-.45-7.26-6.05-20.15-10.28-26.23Z"/><path class="cls-20" d="M68.8,161.22c.5-.03,1.33.57,1.11,1.22l-10.03,29.41c-1.06,1.2-3.67.59-4.93.48l-6.78-.63-24.58-2.54c-4.19-.43-5.63-7.61-5.57-11.25l.3-16.66c.06-3.38,10.73-3.71,18.52-2.8l2.81,1.72c9.85,1.13,19.48.95,29.14,1.04Z"/><path class="cls-6" d="M598.17,188.55c-2.71-.47-5.12-1.47-6.8-3.05-2.03-1.91-2.98-4.69-3.81-7.35-2.66-8.51-4.92-17.47-3.52-26.28.13-.79.3-1.62.79-2.25.97-1.25,2.78-1.36,4.37-1.37,5-.01,9.99-.02,14.99-.03,1.71,0,3.47,0,5.04.67,1.63.69,2.9,2.02,4,3.41,5.55,7.08,8.9,18.85,5.87,27.62-2.35,6.8-12.95,10.02-20.92,8.64Z"/><path class="cls-9" d="M150.39,76.81l-83.1-1.12c-5-.07-7.65-4.34-7.16-8.74l4.15-37.7c.4-3.64.84-7.77,2.47-10.96,1.61-3.17,5.79-3.27,9.12-3.27l76.65.07c3.87,0,7.8,2.21,7.56,6.64l-2.55,47.56c-.2,3.8-3.28,7.57-7.14,7.52Z"/><path class="cls-20" d="M195.4,183.09l-24.03-34.37-5.13-6.86c-4.18-5.59-9.53-9.32-16.76-10.29-18.48-2.47-37.31-2.61-56.16-1.67-6.87.34-12,3.78-14.57,9.64l-5.76,13.15c-1.13,2.57-1.86,5.46-4.13,6.87l-12.09-.23c-1.96-.03-3.73-1.5-2.89-3.44l4.32-10.03,10.63-21.65c2.97-6.04,8.63-9.15,15.15-10.31,11.91-2.12,23.87-1.92,36.1-1.45l20.16.78c24.15.94,31.72,4.39,44.94,23.94l20.08,29.7,8.89,15.19c-6.57,1.45-12.69,1.29-18.75,1.02Z"/><path class="cls-14" d="M176.87,122.16c-3-3.9-5.91-7.6-6.18-12.46l-.66-11.89-21.95-.37-39.07-.95-58.78-.61-10.53-.55c-.29-.02-.88-.82-.89-1.07s.39-1.03.82-1.02l19.53.2,44.38.96,58.57.49c2.72.02,5.45,1.49,8.31.04l.82-24.17,1.6-32.44,1.3-28.99c.74-1.24,3.79-1.71,5.31-1.69l33.4.44,37.03.92,24.63.35c1.72.02,2.14,2.97,1.82,4.39-.52,2.29.27,3.67.28,5.77l.6,80.06-.22,28.33-.1,30.09c-.04,11.27-7.62,17.97-18.31,17.92l-34.25-.15c-6.51-.03-12.19-2.64-15.81-8.21l-11.49-17.65-12.08-17.24-8.08-10.49ZM222.73,173.54l35.09.34c4.86.05,10.6-1.42,13.54-5.55s3.75-10.39,3.73-15.93l-.15-63.27-.91-64.32c-.06-4.44-.52-8.43.45-13.3l-11.31-.52-86.65-.23-.76,6.66-.65,23.92-1.72,35.26-.7,28.15c-.12,4.92,1.26,9.64,4.46,13.74,12,15.42,22.66,31.14,32.99,47.43,2.76,4.34,7.44,7.59,12.59,7.64Z"/><path class="cls-10" d="M43.64,127.82c-2.49,2.7-9.9,2.24-11.64.69-.72-.64-1.3-2.22-1.26-3.82l.67-25.31c2.46-3.67,12.71-3.25,12.91,1.7.35,8.73.37,17.6-.69,26.73Z"/><path class="cls-12" d="M579.07,128.36c3.17-.75,5.46,1.55,5.82,3.91.39,2.6-1.22,5.21-3.87,5.83-2.45.57-5.07-1.05-5.62-3.76-.44-2.2.58-5.25,3.66-5.98Z"/><path class="cls-2" d="M563.85,199.21c3.54,16.7-3.86,33.32-17.72,42.17-14.48,9.24-33.38,8.28-47.06-2.81-12.24-9.93-17.24-25.76-13.16-41.46,3.52-13.55,14.78-25.49,29.77-28.83,22.32-4.97,43.45,8.67,48.17,30.94ZM540.66,194.37l9.16-3.84c7.58-3.18-17.44-19.9-17.49-12.82l-.08,12.71c-.01,2.12,1.46,3.54,2.59,4.32,1.77,1.21,3.6.56,5.82-.37ZM511.91,195.64c2.11.39,4.9-1.05,4.87-3.47l-.17-12.84c-.02-1.41-.58-2.57-1.44-2.92-3.36-1.36-14.61,6.21-17.81,12.29.05,2.1,3.48,2.83,4.71,3.34,3.58,1.48,6.19,2.93,9.84,3.6ZM509.23,210.68c-.66-1.15-2.03-1.91-3.59-2.3l-11.25-2.8c-4.24-1.06-3.16,9.07,1.51,18.13.72,1.4,2.13,3.79,3.78,3.62,5.34-5.15,12.17-12.06,9.54-16.64ZM547.34,226.4c5.38,7.39,15.27-23.05,7.13-20.5l-11.65,3.65c-1.86.58-2.7,2.38-3.08,3.59-.59,1.9.3,3.25,1.44,4.82l6.15,8.45ZM536.55,237.87l-7.52-12.46c-1.11-1.84-3.05-2.52-4.84-2.3-1.64.2-2.89,1.07-3.97,2.7l-5.99,9.04c-.51.77-1.03,1.87-.8,2.48,1.38,3.56,15.7,4.16,23.1.54Z"/><path class="cls-15" d="M100.17,236.72c-18.39-16.91-17.1-45.16,2.52-60.86,14.27-11.42,35.53-11.52,49.95.1,14.98,12.06,19.02,32.04,10.92,49.18-5.38,11.39-16.06,18.95-26.87,21.41-13.73,3.13-26.87-.97-36.51-9.82ZM111.49,194.53c2.46.95,7.47,1.2,7.98-2.34.66-4.52-.03-9.61-.36-14.14-.5-6.84-19.54,7.5-18.77,11.12.13.62.95,1.41,1.8,1.73l9.35,3.62ZM140.67,195.37c5.05-1.8,9.63-3.33,14.36-6.5-3.65-7.19-16.34-14.78-19.09-12.37-.63.55-.79,1.51-.78,2.81l.1,11.14c.02,2.72,3.03,5.76,5.41,4.92ZM104.69,225.24l6.83-8.74c1.62-2.07,1.53-6.39-1.19-7.38-4.51-1.64-9.11-3.16-13.96-3.74s2.11,27.81,8.32,19.86ZM150.84,226.55c3.55,4.57,10.89-10.64,9.35-20.75-5.46.3-9.35,2.15-14.09,3.41-2.48.66-5.63,3.98-3.78,6.37l8.52,10.97ZM139.1,237.45c-2.5-5.15-5.02-9.43-8.66-13.08-2.04-2.05-5.63-1.45-7.12.78l-6.41,9.55c-.56.84-.9,2.02-.64,2.68,1.25,3.22,16.28,4.18,22.83.07Z"/><path class="cls-20" d="M396.27,61.3c-1.81-2.52-4.75-3.46-7.92-3.69l-15.12-30.1c-2.03-4-4.47-7-9.6-7.28-21.26-1.19-42.38-1.58-63.78-1.6-2.88,0-6.38,2.01-6.3,4.89l1.33,50.53c.04,1.44.47,2.64,1,3.55.6,1.02,2.05,1.67,3.66,1.69l74.34,1.18,5.99,3.51,7.63.11c3.1.04-2.91,9.37,1.91,13.77,1.99,1.82,4.41,2.81,7.7,2.31,3.96-.6,6.28-3.83,6.04-7.49-.23-3.57-2.73-6.65-6.97-6.72-1.22-2.48.18-4.75.77-7.12,1.22-4.91.95-9.72.77-14.38,4.23,6.08,9.83,18.97,10.28,26.23l.6,9.64-.14,41.09-.65,19.36c-.27,7.93-6.39,14.58-14.79,14.57l-82.14-.04c-11.4,0-17.76-16.86-24.03-27.37-2.66-4.46-3.21-9.21-3.33-14.52l-.31-13.6-.26-108.07c5.67-.72,10.62.22,15.97.38l49.21,1.47c7.95.24,15.78-.4,23.66,2.15,2.6.84,4.4,5.12,5.63,7.51l15.83,30.85c1.24,2.42,2.04,5.03,3.02,7.17ZM299.13,96.28c-1.39-.1-3.12.74-4.74-.33-1.96-1.3-4.67-.54-5.93,1.34-1.19,1.76-1.14,4.24.77,5.76,1.76,1.4,3.71,1.05,6-.06,1.35-.65,3.52.07,4.59.06.21,2.9,2.43,4.4,5.43,4.49,3.57.11,6.58-1.18,7.83-4.51,2.56.34,6.21-.85,6.63-3.23.15-.85-.6-2.55-1.74-2.68l-5-.54c-1.19-3.32-3.77-4.73-7.27-4.49-2.65.18-5.42,1.33-6.56,4.19Z"/><path class="cls-20" d="M222.73,173.54c-5.15-.05-9.83-3.3-12.59-7.64-10.34-16.29-20.99-32.01-32.99-47.43-3.2-4.11-4.58-8.82-4.46-13.74l.7-28.15,1.72-35.26.65-23.92.76-6.66,86.65.23,11.31.52c-.98,4.87-.52,8.86-.45,13.3l.91,64.32.15,63.27c.01,5.54-.66,11.61-3.73,15.93s-8.68,5.6-13.54,5.55l-35.09-.34ZM185.63,75.86c4.54,1.03,9.4.81,14.04.45l1.24-59.9-13.33.27c-2.35.05-4.83,2.51-4.9,5.24l-1.21,46.62c-.08,3.12.81,6.55,4.16,7.32ZM266.1,73.59l.93-51.76c-1.24-2.91-3-4.81-6.12-4.65l-56.19-.62-1.13,60.09,59.11,1.17c1.99-.57,3.33-1.54,3.4-4.22ZM194.6,94.99c-5.36.1-7.96-2.51-10.27.2-1.25,1.46-1.54,3.55-.5,5.04,2.87,4.1,8.58-.9,10.87,1.54,1.46,2.77,3.56,4.32,6.54,4.22s5.94-1.09,7.14-4.01c.86-1.78,5.45-.13,6.56-2.31.61-1.2.23-3.51-1.29-4.46s-3.37-.5-4.84-.48c-.92-2.56-3.88-4.11-6.17-4.69-3.11-.79-8.5,2.18-8.04,4.95Z"/><path class="cls-16" d="M509.23,210.68c2.63,4.58-4.2,11.49-9.54,16.64-1.66.17-3.06-2.21-3.78-3.62-4.67-9.06-5.75-19.18-1.51-18.13l11.25,2.8c1.55.39,2.92,1.15,3.59,2.3Z"/><path class="cls-18" d="M536.55,237.87c-7.4,3.62-21.72,3.01-23.1-.54-.24-.61.29-1.71.8-2.48l5.99-9.04c1.08-1.62,2.33-2.5,3.97-2.7,1.78-.22,3.73.46,4.84,2.3l7.52,12.46Z"/><path class="cls-18" d="M547.34,226.4l-6.15-8.45c-1.14-1.56-2.03-2.91-1.44-4.82.38-1.21,1.22-3.01,3.08-3.59l11.65-3.65c8.14-2.55-1.75,27.89-7.13,20.5Z"/><path class="cls-11" d="M511.91,195.64c-3.65-.67-6.26-2.12-9.84-3.6-1.23-.51-4.66-1.24-4.71-3.34,3.2-6.08,14.45-13.65,17.81-12.29.86.35,1.42,1.51,1.44,2.92l.17,12.84c.03,2.42-2.76,3.86-4.87,3.47Z"/><path class="cls-18" d="M540.66,194.37c-2.22.93-4.05,1.58-5.82.37-1.14-.78-2.61-2.21-2.59-4.32l.08-12.71c.05-7.08,25.07,9.64,17.49,12.82l-9.16,3.84Z"/><path class="cls-17" d="M150.84,226.55l-8.52-10.97c-1.85-2.38,1.3-5.7,3.78-6.37,4.74-1.27,8.63-3.12,14.09-3.41,1.54,10.11-5.8,25.31-9.35,20.75Z"/><path class="cls-18" d="M104.69,225.24c-6.21,7.95-13.34-20.45-8.32-19.86s9.45,2.1,13.96,3.74c2.72.99,2.8,5.31,1.19,7.38l-6.83,8.74Z"/><path class="cls-18" d="M139.1,237.45c-6.55,4.11-21.58,3.15-22.83-.07-.26-.66.08-1.84.64-2.68l6.41-9.55c1.49-2.23,5.09-2.82,7.12-.78,3.64,3.65,6.16,7.93,8.66,13.08Z"/><path class="cls-1" d="M140.67,195.37c-2.38.85-5.39-2.2-5.41-4.92l-.1-11.14c-.01-1.3.15-2.26.78-2.81,2.75-2.41,15.45,5.18,19.09,12.37-4.73,3.17-9.31,4.71-14.36,6.5Z"/><path class="cls-17" d="M111.49,194.53l-9.35-3.62c-.84-.33-1.67-1.11-1.8-1.73-.77-3.62,18.26-17.96,18.77-11.12.33,4.53,1.02,9.62.36,14.14-.51,3.54-5.52,3.3-7.98,2.34Z"/><path class="cls-5" d="M388.35,57.62l-9.47-.68c-1.23-.09-2.47,1.67-2.76,2.87l-.06,20.84c-1.09.39-1.77-.34-2.18-.18l-74.34-1.18c-1.62-.03-3.06-.67-3.66-1.69-.53-.91-.97-2.11-1-3.55l-1.33-50.53c-.08-2.87,3.42-4.89,6.3-4.89,21.4.02,42.52.41,63.78,1.6,5.13.29,7.57,3.29,9.6,7.28l15.12,30.1Z"/><path class="cls-22" d="M299.13,96.28l7.13.52,6.71-.22,5,.54c1.14.12,1.89,1.83,1.74,2.68-.42,2.38-4.07,3.57-6.63,3.23-4.4-.59-8.82-.02-13.26.02-1.07.01-3.24-.72-4.59-.06-2.29,1.11-4.24,1.46-6,.06-1.91-1.52-1.96-4-.77-5.76,1.26-1.88,3.97-2.64,5.93-1.34,1.62,1.07,3.35.23,4.74.33Z"/><path class="cls-7" d="M313.08,103.03c-1.25,3.33-4.26,4.62-7.83,4.51-3-.09-5.22-1.58-5.43-4.49,4.44-.04,8.86-.61,13.26-.02Z"/><path class="cls-8" d="M312.97,96.58l-6.71.22-7.13-.52c1.14-2.86,3.91-4.01,6.56-4.19,3.5-.24,6.08,1.17,7.27,4.49Z"/><path class="cls-4" d="M266.1,73.59c-.07,2.68-1.41,3.65-3.4,4.22l-59.11-1.17,1.13-60.09,56.19.62c3.12-.16,4.88,1.74,6.12,4.65l-.93,51.76Z"/><path class="cls-3" d="M185.63,75.86c-3.34-.76-4.24-4.19-4.16-7.32l1.21-46.62c.07-2.73,2.55-5.19,4.9-5.24l13.33-.27-1.24,59.9c-4.64.37-9.51.59-14.04-.45Z"/><path class="cls-23" d="M194.6,94.99l14.21-.26c1.47-.03,3.33-.47,4.84.48s1.9,3.26,1.29,4.46c-1.11,2.18-5.69.52-6.56,2.31-.29-.64-.92-1.13-2.02-.9-4.15.16-8.17-.68-11.66.69-2.29-2.44-8,2.56-10.87-1.54-1.04-1.49-.76-3.57.5-5.04,2.32-2.7,4.91-.1,10.27-.2Z"/><path class="cls-13" d="M208.37,101.98c-1.2,2.92-4.15,3.91-7.14,4.01s-5.08-1.45-6.54-4.22c3.49-1.37,7.51-.53,11.66-.69,1.1-.23,1.73.27,2.02.9Z"/><path class="cls-8" d="M208.8,94.73l-14.21.26c-.46-2.77,4.93-5.74,8.04-4.95,2.29.58,5.25,2.13,6.17,4.69Z"/><path class="cls-19" d="M388.35,57.62c3.16.23,6.11,1.16,7.92,3.69l1.45,3.16c.18,4.67.45,9.47-.77,14.38-.59,2.37-1.99,4.64-.77,7.12,4.23.07,6.73,3.15,6.97,6.72.24,3.67-2.08,6.89-6.04,7.49-3.29.5-5.71-.49-7.7-2.31-1.6-1.46-1.84-3.1-1.57-5.07.32-2.37.31-4.58.21-7.01-1.83-.05-3.41,1.22-5.15,1.81-3.25,1.1-7.19-.55-8.67-3.64-.91-1.9-.94-4.09-.89-6.19.14-5.52.68-11.04,1.63-16.48.19-1.07.4-2.16.96-3.08,1.72-2.81,9.42-.81,12.42-.6Z"/><path class="cls-10" d="M31.42,99.38l-.68,25.32c-.04,1.59.54,3.17,1.26,3.82.08.07.19.16.3.23l-3.96,29.29s-6.14-2.8-9.27,1.85c-.48.39-.74.85-.75,1.37-3.65.01-7.98-.15-10.66-3.23-3.05-3.48-4.42-8.3-5.15-13.04C-.98,122.35-1.68,82.36,6.01,62.05c1.46-3.84,5.64-6.36,9.64-6.33l17.4.16c3.9.02,6.02,2.62,8.25,6.2l-4.71,34.92c-2.19.19-4.23,1-5.16,2.39Z"/><path class="cls-10" d="M19.08,159.88c-.29.41-.54.86-.75,1.37.01-.52.27-.98.75-1.37Z"/><path class="cls-10" d="M36.58,96.99l-4.28,31.75c-.11-.07-.21-.16-.3-.23-.73-.64-1.3-2.23-1.26-3.82l.68-25.32c.93-1.38,2.97-2.19,5.16-2.39Z"/></svg>