<?xml version="1.0" encoding="UTF-8"?><svg id="Layer_1" xmlns="http://www.w3.org/2000/svg" viewBox="0 0 284.24 326.2"><defs><style>.cls-1{fill:#7e1926;}.cls-2{fill:#6999c9;}.cls-3{fill:#356ab3;}.cls-4{fill:#d9df21;}.cls-5{fill:#f69a94;}.cls-6{fill:#7e141f;}</style></defs><path class="cls-2" d="M187.95,167.39c4.53-16.67-1.22-31.56,3.83-47.48,2.55-8.03,5.65-12.7,12.98-16.79,11.55-6.45,34.75-4.36,48.37-3.63,2.27.12,4.71-.23,6.95-.01,3.72.36,6.7,2.37,10.17,3.47l-.99.98c.74.14,1.84-.17,2.48,0,.45.13,6.38,5.49,6.93,6.19,4.15,5.28,5.2,11.09,5.47,17.61.36,8.82-.32,15.71-1.98,24.29-2.46,12.68-6.01,25.37-5.47,38.44.7,17.11,4.36,32.14-9.64,45.36-12.64,11.95-29.08,14.42-45.88,15.36-2.68.15-5.73.41-8.43.5-11.46.37-23.93-.22-35.44-1-11.73-.79-24.68-1.69-34.93-8.04-10.52-6.51-16.84-20.82-10.31-32.4,2.95-5.23,8.3-8.66,14.04-10.07,8.77-2.16,12.12-1.76,20.4-6.48,11.23-6.4,17.02-12.23,20.95-24.81.16-.5.35-.97.5-1.49Z"/><path class="cls-3" d="M187.45,168.88c-3.93,12.58-9.72,18.41-20.95,24.81-8.28,4.72-11.64,4.32-20.4,6.48-10.95,2.7-17.54,10.54-16.66,22.26-1.37-.31-.91.75-1.25,1.46-12.2,25.59-31.35,49.27-47.55,72.46-1.8,2.57-7.68,13.14-9.72,14.08-.6.28-1.02.35-1.68.26-.73-.11-6.13-2.87-7.24-3.47-.13-.07-.36-.67-.81-.91-8.05-4.4-15.84-9.25-23.99-13.47,17.82-30.59,33.09-63.24,51.15-93.87,18.61-28.14,57.52-29.12,87.91-30.1,3.72-.12,7.46.13,11.18.02Z"/><path class="cls-3" d="M129.44,224.41c.66,3.08,6.41,12.41,8.92,14.63,8.68,7.67,19.83,8.13,30.25,11.15l-46.61,64.95c-.47-1.58-24.01-14.52-26.78-17.35l-1.43-1.05,35.65-72.32Z"/><path class="cls-1" d="M62.01,307.2c-1.37,5.32-2.15,10.86-1.98,16.36L.03,323.06c-.2-.19.74-3.42.99-3.96,1.57-3.37,3.73-3.86,6.94-4.96,13.51-4.63,21.73-8.4,29.25-21.32,8.15,4.21,15.94,9.06,23.99,13.47.45.24.68.84.81.91Z"/><path class="cls-1" d="M122,315.13c.59,1.99-.44,6.59,0,8.93l-60-.5c.88-8.94,8.78-8.35,15.22-10.81,6.61-2.52,15-8.41,18-14.97,2.77,2.83,26.31,15.77,26.78,17.35Z"/><path class="cls-5" d="M203.82,52.37c-2.26-4.77-7.58-5.51-10-10.08-2.56-4.83-3.86-17.37-3.38-22.88.26-2.98,1.4-7.99,3.46-10.17-1.1,10.32,3.84,11.56,8.65,18.37,6.95,9.85,2.58,14.54,1.27,24.76Z"/><polygon class="cls-1" points="252.62 305.25 247.14 312.88 221.93 294.74 221.93 307.98 209.54 307.98 209.54 295.44 186.9 315.79 180.18 308.33 209.54 281.96 209.54 250.84 221.93 250.84 221.93 283.18 252.62 305.25"/><path class="cls-2" d="M246.04,307.26c.14-.2,3.7-2.4,4.11-2.58.28-.13,2.68-.87,2.83-.89,3.86-.3,9.48,2.85,10.3,6.81,2.97,14.42-18.19,15.5-18.74,2.84-.04-.91,1.14-5.67,1.5-6.17Z"/><path class="cls-2" d="M180.51,308.19c.64.2,5.12,4.25,5.45,4.96,2.18,4.58-1.05,12.05-6.23,12.86-15.24,2.37-15.62-17.89-2.94-18.21.33,0,3.54.34,3.72.39Z"/><path class="cls-2" d="M220.18,308.69c9.13,3.18,7.4,18.71-5.21,17.35-10.14-1.09-9.94-15.51-1.73-17.85,1.73-.49,5.23-.1,6.94.5Z"/><path class="cls-4" d="M271.74,103.93c-.77-.22-1.61.1-2.4,0,.53-.09,1.09-.09,1.63-.11l-1.04-.55c.18-.18.32-.33.32-.33-3.47-1.1-6.45-3.11-10.17-3.47-2.24-.21-4.68.14-6.95.01-13.62-.73-36.82-2.81-48.37,3.63-7.33,4.09-10.43,8.77-12.98,16.79-5.06,15.92.7,30.81-3.83,47.49-10.17-2.73-19.43-9.54-27.77-15.87-9.12-6.93-18.26-14.64-26.77-22.31-1.63-1.47-3.39-2.95-4.96-4.46-1.32-1.27-2.3-3.02-3.97-3.97,0,0,.02-.04.06-.1.14-.18.23-.35.3-.51,1.71-2.8,9.16-14.4,17.13-17.33h.01c.65,0,1.11-.31,1.28-.38.02-.01.04-.02.06-.02,1.15.27,2.55,1.49,3.97,1.49.89.78,2.31,1.45,3.47,1.48,2.4,1.51,5.31,2.35,7.93,3.47,2.8,1.2,5.65,2.29,8.43,3.47,1.48.64,2.96,1.35,4.47,1.99,2.65,1.12,5.23,2.39,7.93,3.47.76.3,4.66,2.24,4.95,1.98-.1-1.33,1.22-4.64.94-5.62-.18-.63-9.45-6.38-10.85-7.27-.82-.52-1.66-.98-2.48-1.49-.81-.5-.89-.87-1.98-1.48-1.81-1.02-3.73-1.93-5.68-2.78,2.01-3.95,8.33-15.8,13.21-18.93,2.6,1.46,4.92,2.87,6.52,3.94,2.78,1.86,3.91,3.98,7.95,3.92,1.92-.04,5.28-9.13,6.11-10.65,2.79-5.13,4.21-11.24,9.54-14.45,3.82-2.31,8.41-3.04,12.87-3.02,6.77.02,13.43,1.66,19.95,3.49,7.69,2.17,14.09,5.1,18.98,10.32,2.02,2.16,3.78,4.71,5.27,7.76,1.12,2.29,5.74,20.06,6.92,20.4Z"/><path class="cls-5" d="M190.22,38.28l1.13.47c.07.03.1.99.11,1.07.08.63.18,1.25.31,1.87h0c.05.27.11.53.17.79.17.72.41,1.41.65,2.09.12.35.25.7.37,1.05.32.96.73,1.86,1.29,2.71.38.58.82,1.12,1.3,1.62.77.79,1.64,1.46,2.52,2.12.43.32.83.6,1.16,1.02.38.49.82.95,1.22,1.42,1.04,1.22,2.08,2.44,3.12,3.65l1.14,7.58,22.19-11.59.53-22.79-17.12-11.74-13.73-10.28-3.04,1.28-2.22,3.91-.93,8.06.4,3.94-2.33,10.38s-.45,1.05,1.76,1.35Z"/><path class="cls-6" d="M195.04,10.67c-.43.51,3.58,6.23,4.03,6.83,1.94,2.54,4.5,4.61,7.41,5.94,1.27.58,2.63,1.04,3.7,1.93,2.56,2.13,2.87,6.13,5.41,8.28,1.16.98,2.66,1.46,3.99,2.2,6.7,3.7,5.67,11.84,6.32,18.32,0,0,3.16,0,3.16,0,1.69-2.09,3.02-4.54,4.16-6.95,2.49-5.26,3.96-11.03,4.02-16.87.04-3.67-.49-7.33-1.55-10.84-1.24-4.1-3.34-8.66-6.67-11.5-3.72-3.18-8.2-5.6-13.03-6.5-7.38-1.38-14.56,1.27-20.38,5.77,0,0-6.6,5.3-6.32,12.45,0,0-.03,4.23,1.51,6.82,0,0,.08-11.14,4.25-15.87Z"/><path class="cls-6" d="M191.8,41.69c.04.26.08.53.14.79.19.79.27,1.86,1.3,1.83.68-.02,1.33-.46,1.86-.82.55-.37,1.14-.72,1.67-1.13.09-.07.18-.15.18-.26,0-.11-.09-.2-.19-.24s-.21-.03-.32-.03c-.73,0-1.42-.21-1.97-.7-.32-.29-.74-.48-1.18-.37-.37.09-.58.53-.98.33-.13-.07-.24-.16-.36-.25-.03-.02-.07-.05-.12-.05-.08,0-.15.07-.17.15s0,.16.02.24c.04.17.08.34.11.51Z"/><path class="cls-6" d="M197.05,25.47c-.01.16.03.34.14.43.28.22.78-.04,1.08-.07.38-.03.77-.04,1.15-.05.83-.03,1.66-.05,2.48.08.6.09,1.19.26,1.71.57.27.15.51.34.73.56.1.1.5.71.61.68.06-.02.1-.09.1-.15s-.03-.13-.05-.19c-.06-.14-.12-.28-.19-.42-.16-.36-.32-.72-.54-1.04-.49-.71-1.31-.88-2.1-1.05-.92-.2-1.86-.29-2.8-.24-.31.02-.63.03-.94.05-.42.02-1.12.17-1.32.58-.04.07-.06.17-.07.27Z"/><path class="cls-6" d="M201.88,27.08c.35.25.7.5,1.03.77.24.2.48.44.49.75-.6-.27-1.2-.54-1.8-.81-.46-.2-.88-.37-1.37-.44-.55-.08-1.06.06-1.6.07-.46.01-.47-.59-.05-.68,1.08-.24,2.37-.32,3.31.34Z"/><circle class="cls-6" cx="200.29" cy="28.32" r="1.24"/><path class="cls-6" d="M191.41,38.03c.35-.19.7-.38,1.05-.57.49-.27,1.08-.66,1.67-.55.21.04.43.17.48.38.04.14,0,.29-.1.4s-.23.17-.37.19c-.16.02-.32-.02-.48-.03-.53-.04-1.01.18-1.46.44-.15.09-.68.48-.86.46,0,0-2.4-.35-3.12-1.2,0,0-.13-.41-.07-.81l2.24-9.07s.29-.23.36.52-1.48,8.62-1.48,8.62c0,0-.09.36.2.58l1.73.69s.06.02.2-.06Z"/><path class="cls-1" d="M198.41,9.24C198.95,3.76,208.54.13,213.05,0c9.15-.24,16.26,5.75,20.36,14.08,2.81,5.71,4.17,14.13,7.14,19.11,3.26,5.48,9.19,10.17,12.86,15.46,4.61,6.63,9.09,18.31,6.48,26.51-1.14,3.57-6.66,9.77-9.86,11.49-12.97,6.98-36.13-1.87-41.46-16.45-1.65-4.52-1.51-12.98-.92-17.85,1.23-10.21,5.29-14.91-1.18-24.76-4.48-6.81-9.09-8.06-8.06-18.37Z"/><path class="cls-5" d="M141.97,102.84c-7.97,2.93-15.42,14.53-17.13,17.33.7-1.62-1.4-2.1-2.34-2.86-2.87-2.3-4.06-3-7.44-4.46-3.05-1.31-6.55-2.84-9.92-2.97-1.09-.79-5.55-.74-5.87-2.28-.1-.47.61-1.51.42-1.69-.11-.1-2.18-.17-2.98-.5-3.21-1.31-1.78-2.19-2.48-3.47,3.64.16-.01-2.02.09-2.73.2-1.47,4.57-2,5.86-1.73.08-1-1.43-.29-1.98-.49-.12-.05-2.29-1.18-1.98-1.73.21-.43,3.44-1.66,3.96-1.75.72-.11,1.69.03,2.48,0,2.24-.06,3.81.2,5.95.5.82.12,1.39.39,1.99.5,2.5.45,4.95.97,7.43,1.48.26-3.04-3.69-3.86-3.47-6.94.9.1,2.57.66,3.47.99,3.28,1.22,9.15,4.24,12.4,5.95,1.46.77,3.01,1.67,4.46,2.48,1.69.95,4.62,3.7,6.45,4.27.23.07.44.1.63.1Z"/><path class="cls-5" d="M177.63,82.22c-4.88,3.13-11.2,14.98-13.21,18.93-1.74-.77-3.5-1.48-5.23-2.18-.82-.33-1.65-.67-2.48-.99-1.31-.52-2.64-1.03-3.97-1.49-1.51-.53-2.62-1.52-4.46-1.49-.93-.48-1.25-1.69-1.49-1.98l.5-.99c.35.15,3.41.26,4.46.49.66.15,1.28.35,1.98.5.76.16,1.75.93,2.98.49-.25-2.98-3.21-3.48-5.45-4.46-.63-.27-.86-.65-1.99-.99-.47-.14-.56-.4-1.49-.49-.9-1.29-2.62-.83-3.86-1.34-.62-.25-1.58-1.07-3.08-1.64-2.31-.88-3.79-.23-3.96-3.47.64-.16,1.35-1.17,2.33-1.39,1.64-.36,4.11.28,5.3-.06.54-.16-.03-1.9,2.14-2.4,2.16-.5,4.29.58,5.28.42.46-.08.44-1.04.8-1.28,1.6-1.07,5.11,1.43,5.97.74.08-.06-.86-1.37-.03-1.75.54-.34,2.32-.35,3-.23,3.79.68,10.49,3.97,15.96,7.05Z"/></svg>