<?xml version="1.0" encoding="UTF-8"?><svg id="Layer_1" xmlns="http://www.w3.org/2000/svg" viewBox="0 0 235.38 339.24"><defs><style>.cls-1{fill:#7e1926;}.cls-2{fill:#1e417e;}.cls-3{fill:#356ab3;}.cls-4{fill:#fff;}.cls-5{fill:#007b81;}.cls-6{fill:#f69a94;}.cls-7{fill:#7e141f;}.cls-8{fill:#6193c8;}</style></defs><path class="cls-6" d="M111.97,309.8c4.1,2.26,8.34,4.26,12.78,5.82,5.32,1.87,10.58,3.9,16.11,5.17,2.69.62,5.45.56,8.22.16.97-.14,1.25-.82.72-1.6-.22-.32-.51-.58-.78-.86-5.82-6.19-10.4-13.28-13.73-21.29-1.46-3.51-2.5-7.17-2.73-11.11-.16-2.82-.68-3.26-3.5-3.38-3.27-.13-6.55.29-9.82.52-1.36.09-2.7.22-4.04,0-1.53-.24-1.8.03-2.15,1.68-.96,4.6-2.77,8.93-4.66,13.25-.67,1.53-1.25,3.08-1.72,4.68-.51,1.75,0,3.09,1.19,4.18,1.23,1.12,2.57,2.08,4.11,2.75Z"/><path class="cls-1" d="M108.7,295.84c-1.04,1.82-2.76,3.67-4.12,5.77-1.53,2.36-2.99,4.71-3.69,7.5-1.41,5.64.23,10.8,4.63,13.95,3.36,2.4,7.18,3.87,11.06,5.21,5.97,2.06,12.17,3.44,18.29,5.06,3.6.95,7.18,1.96,10.74,3.02,3.78,1.12,7.67,1.84,11.58,2.47,1.55.25,3.14.15,4.73-.1,1.15-.18,2.21-.62,3.2-1.3,2.05-1.42,2.52-3.43,1.29-5.47-.5-.82-1.18-1.48-1.87-2.11-8.05-7.43-15.81-15.16-23.04-23.45-1.82-2.09-3.69-4.14-5.55-6.2-.41-.45-.84-.89-1.34-1.23-.78-.52-1.19-.38-1.53.61-.36,1.05-.94,1.91-1.69,2.7-1,1.05-2.17,1.41-3.45,1.08-2.13-.55-4.06-1.62-4.7-3.84-.85-2.96-2.75-4.42-5.46-5.22-1.86-.55-3.65-1.3-5.45-2.01-.76-.3-1.3-.08-1.75.62-.54.86-1.09,1.71-1.87,2.93Z"/><path class="cls-2" d="M103.52,303.54c-3.56,4.89-4.03,11.06-1.47,15.94.82,1.56,2.21,2.62,3.6,3.63,2.42,1.76,5.15,2.96,7.94,4.04,6.97,2.7,14.31,4.31,21.55,6.21,3.38.89,6.75,1.83,10.09,2.84,3.88,1.17,7.87,1.92,11.88,2.58,1.65.27,3.37.2,5.06-.14,1.61-.33,3.08-1.02,4.17-2.4.79-1,.73-1.44-.21-2.15-.85-.64-1.78-1.13-2.84-1.31-1.85-.31-3.48-1.11-5.03-2.07-1.28-.79-2.65-1.37-4.14-1.64-1.88-.34-3.65-.96-5.3-1.88-1.22-.68-2.53-1.1-3.9-1.38-1.82-.37-3.51-1.03-5.03-2.07-1.7-1.16-3.57-1.96-5.6-2.41-2.03-.45-3.89-1.28-5.56-2.49-1.21-.89-2.55-1.5-4.02-1.9-1.56-.42-2.98-1.16-4.28-2.12-1.7-1.27-3.55-2.19-5.73-2.43-1.78-.2-3.19-1.2-4.54-2.27-2.16-1.73-4.14-3.65-5.81-5.89-.2-.27-.39-.55-.83-.67Z"/><path class="cls-2" d="M67.45,157.95c-.88.39-1.75.8-2.32,1.74-2.98,4.93-5.97,9.86-8.42,15.1-2.33,4.99-5.05,12.37-4.43,18,.31,2.81,1.42,5.45,2.51,8.06,1.02,2.43,2.05,4.88,3.42,7.13,7.02,11.54,17.61,11.46,29.38,12.6,13.69,1.33,27.57,3.94,41.28,5.7,8.53,1.1,17.31,2.2,25.57,4.58,6.61,1.9,13.27,2.77,18.49-2.84,4.13-4.43,5.39-11.01,4.34-16.97-.44-2.51-1.56-5.73-3.25-7.66-1.13-1.28-2.53-2.29-3.91-3.29-6.6-4.73-14.23-7.3-21.71-10.37-7.88-3.24-15.98-6.43-24.05-9.14-3.83-1.28-7.65-2.59-11.5-3.83-.85-.27-1.17-.67-1.35-1.57-.8-3.96-1.33-7.98-2.49-11.86-.09-.28-.17-.57-.27-.85-.49-1.43-1.34-2.09-2.99-2.22-11.61-.95-23.22-1.75-34.86-2.03-1.13-.03-2.25-.18-3.44-.28Z"/><path class="cls-2" d="M175.56,169.12c-1.37.5-2.68,1.17-3.88,2.04-16.57,11.91-8.16,36.69-5.66,52.06,1.34,8.27,3.19,16.37,5.42,24.36,1.5,5.36,2.81,10.8,4.09,16.23.99,4.22,2.3,8.31,3.48,12.45.29,1.01.74,1.54,1.87,1.54,6.08,0,12.15.05,18.23.09.52,0,1.05-.04,1.57.02,1.02.13,1.22-.41,1.25-1.33.09-2.99.31-5.98.37-8.96.39-18.45.67-36.89.42-55.3-.02-1.22-.05-2.44-.02-3.66.22-8.57-.77-17.06-2.87-25.18-2.51-9.69-5.32-14.28-15.75-15.37-2.81-.29-5.76-.01-8.49.98Z"/><path class="cls-2" d="M145.08,158.45c-4.49.56-9.48,1.23-13.16-1.41-1.14-.82-2.1-1.93-3.4-2.45-1.59-.64-3.38-.31-5.05.07-7.71,1.75-15.27,4.18-22.54,7.28-.77.33-1.59.71-1.98,1.45-.48.89-.16,1.99.2,2.94,7.04,18.82,25.08,31.16,43.19,39.88,6.69,3.22,14,6.19,21.34,5.07,6.21-.94,11.63-4.72,16.29-8.93,9.06-8.18,24.48-23.6,11.95-34.69-11.84-10.49-32.09-11.03-46.83-9.2Z"/><polygon class="cls-1" points="19.58 230.01 7.54 323.88 18.02 325.6 35.62 232.63 19.58 230.01"/><polygon class="cls-1" points="92.06 244.64 95.07 339.24 105.69 339.24 108.31 244.64 92.06 244.64"/><path class="cls-3" d="M198.07,134.61c.12,2.71,1.43,5.26,3.28,6.38,1.14.69,2.41.86,3.66.97,7.93.72,15.95-.4,23.61-3.27,1.49-.56,3-1.21,4.2-2.53s2-3.45,1.63-5.46c-.53-2.85-2.98-4.12-5.11-4.87-6.2-2.19-12.86-3.79-19.19-1.64-4.34,1.48-12.41,2.37-12.06,10.41Z"/><path class="cls-6" d="M131.59,52.37c2.26-4.77,7.58-5.51,10-10.08,2.56-4.83,3.86-17.37,3.38-22.88-.26-2.98-1.4-7.99-3.46-10.17,1.1,10.32-3.84,11.56-8.65,18.37-6.95,9.85-2.58,14.54-1.27,24.76Z"/><path class="cls-6" d="M145.28,38.43c-.08.05-.15.1-.2.15-.78.77-1.2,1.89-1.4,2.94-.3,1.55-.28,3.19-.88,4.66-.98,2.4-2.84,2.91-5.04,3.67-1.9.66-2.52,1.72-3.54,3.31-2.23,3.47-3.06,8.57-3.53,12.6-7.38-3.86-14.8-7.73-22.19-11.6l-.53-22.79,17.12-11.74,13.73-10.28,3.04,1.28,2.22,3.91.93,8.06-.4,3.94s2.33,10.38,2.33,10.38c.33.77-1.04,1.13-1.67,1.51Z"/><path class="cls-7" d="M140.37,10.67c.43.51-3.58,6.23-4.03,6.83-1.94,2.54-4.5,4.61-7.41,5.94-1.27.58-2.63,1.04-3.7,1.93-2.56,2.13-2.87,6.13-5.41,8.28-1.16.98-2.66,1.46-3.99,2.2-6.7,3.7-5.67,11.84-6.32,18.32,0,0-3.16,0-3.16,0-1.69-2.09-3.02-4.54-4.16-6.95-2.49-5.26-3.96-11.03-4.02-16.87-.04-3.67.49-7.33,1.55-10.84,1.24-4.1,3.34-8.66,6.67-11.5,3.72-3.18,8.2-5.6,13.03-6.5,7.38-1.38,14.56,1.27,20.38,5.77,0,0,6.6,5.3,6.32,12.45,0,0,.03,4.23-1.51,6.82,0,0-.08-11.14-4.25-15.87Z"/><path class="cls-7" d="M143.76,42.05c-.09.59-.08,1.26-.59,1.62-.31.23-.74.24-1.12.19-1.21-.17-2.35-.95-3.17-1.81-.07-.08-.15-.18-.14-.29.01-.11.11-.19.21-.21s.21,0,.31,0c.7.1,1.39-.02,1.98-.43.35-.24.78-.38,1.18-.21.34.14.48.6.89.46.13-.05.25-.13.38-.2.04-.02.08-.04.12-.04.08,0,.13.09.14.17s-.02.16-.05.23c-.06.15-.1.32-.13.5Z"/><path class="cls-7" d="M140.35,25.19c0,.16-.04.34-.16.42-.29.21-.77-.08-1.08-.12-.38-.05-.77-.08-1.15-.11-.82-.08-1.65-.13-2.48-.05-.6.06-1.2.2-1.74.48-.27.14-.53.31-.76.52-.1.09-.54.69-.64.65-.06-.02-.09-.09-.09-.16s.03-.12.06-.18c.07-.14.14-.28.21-.41.17-.35.35-.7.59-1.01.53-.68,1.35-.82,2.15-.94.93-.15,1.88-.2,2.81-.1.31.03.62.07.94.1.42.04,1.11.22,1.29.65.03.07.05.17.05.28Z"/><path class="cls-7" d="M135.45,26.56c-.36.23-.72.46-1.06.72-.25.18-.5.42-.52.72.61-.24,1.23-.48,1.84-.72.47-.18.89-.33,1.39-.37.55-.05,1.05.11,1.59.15.45.03.5-.57.08-.68-1.07-.29-2.35-.44-3.32.17Z"/><circle class="cls-7" cx="136.97" cy="27.88" r="1.24"/><path class="cls-7" d="M144.01,38.03c-.35-.19-.7-.38-1.05-.57-.49-.27-1.08-.66-1.67-.55-.21.04-.43.17-.48.38-.04.14,0,.29.1.4s.23.17.37.19c.16.02.32-.02.48-.03.53-.04,1.01.18,1.46.44.15.09.68.48.86.46,0,0,2.4-.35,3.12-1.2,0,0,.13-.41.07-.81l-2.24-9.07s-.29-.23-.36.52,1.48,8.62,1.48,8.62c0,0,.09.36-.2.58l-1.73.69s-.06.02-.2-.06Z"/><path class="cls-6" d="M221.44,128.11c1.48.93,2.88,1.79,4.28,2.67.47.29.94.58,1.37.92.42.33.65.79.46,1.32-.19.55-.69.71-1.21.65-.6-.06-1.21-.15-1.79-.29-3.65-.9-7.28-1.84-10.93-2.74-6.4-1.58-12.84-2.63-19.49-2.54-5.53.07-11.03.47-16.55.7-6.11.26-12.23.42-18.34.22-5.13-.17-10.75.12-14.53-3.98-1.96-2.13-3.05-5.03-2.99-7.92.03-1.23.27-2.49.91-3.54,2.12-3.48,6.99-3.69,10.56-4.2,4.52-.65,9.1-.89,13.67-.68,8.9.41,17.71,1.57,26.49,2.98,3.36.54,6.6.29,9.84-.53,3.29-.83,6.61-1.31,10-1.17,1.11.05,2.21.12,3.27.48.63.21,1.36.41,1.7.97.64,1.05,1.63,1.25,2.69,1.34,1.97.15,3.5.96,4.34,2.82.25.55.71.82,1.21,1.07.69.35,1.38.7,1.99,1.19,1.25,1.03,1.82,2.32,1.62,3.94-.17,1.35-.1,1.48,1.09,2.02.55.25,1.14.43,1.71.63.47.17.95.31,1.4.52.6.28,1.28.6,1.16,1.42-.13.87-.86,1.1-1.6,1.16-1.43.12-2.86.22-4.3.25-2.26.06-4.53.06-6.79.08-.38,0-.78-.06-1.24.24Z"/><path class="cls-6" d="M159.85,27.55c.97-1.31,2.86.43,3.47,1.93.95,2.33,1.7,5.6,3.27,7.52.64-.35.84-.91,1-1.64.78-3.63,1.03-7.34,1.71-10.98.24-1.31,2.16-10.33,4.06-6.58.36.71.43,1.52.49,2.31.26,3.28.52,6.55.77,9.83,1.14-.39,1.49-1.78,1.73-2.96.49-2.35,1.21-4.66,2.16-6.87.18-.42.41-.88.84-1.05.56-.22,1.21.2,1.46.75s.2,1.18.15,1.79c-.26,3.03-.52,6.06-.78,9.09.63.33,1.16-.57,1.31-1.26.36-1.6.82-3.17,1.38-4.71.17-.46.41-.99.89-1.1.49-.12.98.27,1.15.74s.11.99.05,1.48c-.36,2.82-.72,5.64-1.07,8.45.54-1.19,1.08-2.38,1.61-3.56.11-.25.29-.54.56-.53.22,0,.38.22.48.42.77,1.59-.03,3.45-.71,5.08-3.2,7.68-5,14.69-4.04,23,1.04,8.99,3.77,17.75,3.86,26.85,0,.95-.11,2.08-.93,2.55-.37.21-.81.24-1.23.26-5.47.32-11.38.06-16.78.99-3.36.58-4.18,1.91-5.45-1.56-1.82-4.98.36-11.74.35-16.92-.03-14.45-.63-28.91-1.8-43.31Z"/><path class="cls-8" d="M144.8,101.96c-4.92-13.87-9.51-27.9-20.85-37.82-.31-.27-.66-.45-1.14-.27-4.89,1.74-9.7,1.1-14.49.25-1.71-.3-3.4-.72-4.98-1.36-.77-.31-1.24-.17-1.69.45-.17.24-.37.47-.54.71-2.99,4.32-7.26,7.08-12.26,8.91-3.05,1.12-3.16.84-2.47,3.96.88,3.95,1.91,7.86,2.73,11.82.76,3.64,1.32,7.3,1.68,11,.17,1.69.03,3.42-.46,5.08-.58,1.96-.12,3.66.66,5.39,7.78,17.17,15.6,34.24,37.06,38.82,13.79,2.94,28.99-.22,41.44-7.42,4.95-2.86,9.6-6.42,12.8-10.98,5.66-8.05,6.17-18.07,6.05-27.47-.18-5.07-.12-10.15-.38-15.21-.06-1.13-.17-2.37-1.02-3.14-.53-.47-1.26-.69-1.97-.88-7.44-2.03-25.3-6.54-29.52.2-2.36,3.76-1.69,12.61-2.25,16.93-.73,5.63-1.43,11.26-2.11,16.89-2.43-5.09-4.39-10.45-6.3-15.85Z"/><path class="cls-8" d="M87.89,65.69c-6.8,4.1-11.39,11.08-14.62,18.34-8.25,18.55-13.33,44.82-3.33,63.73,2.96,5.59,7.16,10.42,11.34,15.17,4.02,4.56,8.21,9.2,13.64,11.94,6.85,3.44,15.02,3.45,22.45,1.59s14.31-5.44,21.1-8.99c1.46-.76,2.99-1.59,3.82-3.01,1.28-2.18.46-5.03-.94-7.14s-3.33-3.85-4.53-6.08c-4.51-8.38,2.49-14.27,4.34-21.69,1.43-5.72.61-13.13.34-19.03-.53-11.56-2.67-23.16-6.53-34.08-5.95-16.82-32.84-19.32-47.07-10.74Z"/><path class="cls-1" d="M137,9.24C136.46,3.76,126.87.13,122.36,0c-9.15-.24-16.26,5.75-20.36,14.08-2.02,4.1-3.35,8.3-5.75,12.18s-4.57,8-5.06,12.58c-.17,1.59-.14,3.24-.71,4.74-1.44,3.8-6.18,5.45-7.84,9.15-1.29,2.88-.41,6.28-1.1,9.36-.72,3.19-3.07,5.76-4.3,8.79-3.3,8.14.33,19.7,8.83,22.79,1.98.72,5.93.91,7.3,2.47.73.84,1.14,1.89,1.72,2.83,1.56,2.5,4.33,4.04,7.19,4.75,7.01,1.73,17.02-1.18,19.91-8.52.47-1.19.73-2.49,1.48-3.52.82-1.12,2.1-1.77,3.2-2.61,4.27-3.26,5.45-9.91,2.56-14.44-1.46-2.3-3.87-4.27-3.97-6.99-.11-3.22,3.1-5.64,3.65-8.81,1.02-5.85-7.18-10.65-5.55-16.36.84-2.93,4.2-5.33,3.32-8.25-.31-1.03-1.12-1.83-1.5-2.84-1.91-5.09,5.92-8.19,8.57-11.05,3-3.22,3.49-6.67,3.05-11.11Z"/><path class="cls-6" d="M179.86,299.58c4.13,2.2,8.4,4.14,12.86,5.64,5.34,1.8,10.63,3.75,16.18,4.94,2.7.58,5.45.48,8.22.05.97-.15,1.24-.83.7-1.61-.22-.32-.52-.57-.79-.85-5.9-6.11-10.59-13.13-14.03-21.09-1.51-3.49-2.6-7.13-2.88-11.07-.2-2.82-.72-3.25-3.55-3.33-3.27-.08-6.54.38-9.82.66-1.35.11-2.69.25-4.04.06-1.53-.22-1.8.06-2.12,1.71-.9,4.61-2.64,8.97-4.47,13.31-.65,1.54-1.21,3.1-1.65,4.7-.49,1.76.05,3.09,1.25,4.17,1.24,1.11,2.6,2.05,4.15,2.7Z"/><path class="cls-1" d="M176.39,285.67c-1.01,1.83-2.7,3.71-4.04,5.83-1.5,2.38-2.92,4.75-3.58,7.55-1.33,5.66.38,10.8,4.83,13.89,3.39,2.35,7.23,3.77,11.13,5.05,6,1.98,12.22,3.26,18.36,4.8,3.61.9,7.2,1.86,10.78,2.86,3.8,1.07,7.7,1.73,11.61,2.31,1.55.23,3.14.1,4.73-.17,1.15-.2,2.2-.65,3.18-1.35,2.03-1.45,2.47-3.46,1.21-5.49-.51-.82-1.2-1.46-1.9-2.09-8.15-7.32-16.02-14.94-23.37-23.12-1.85-2.06-3.75-4.09-5.64-6.12-.41-.44-.86-.88-1.36-1.21-.78-.51-1.2-.36-1.52.63-.34,1.06-.91,1.92-1.66,2.72-.99,1.06-2.15,1.44-3.44,1.13-2.14-.52-4.08-1.56-4.75-3.77-.89-2.95-2.81-4.38-5.53-5.14-1.86-.52-3.66-1.25-5.48-1.93-.76-.29-1.3-.07-1.74.65-.53.87-1.07,1.73-1.83,2.96Z"/><path class="cls-2" d="M171.32,293.44c-3.49,4.94-3.88,11.12-1.24,15.96.85,1.55,2.25,2.59,3.65,3.58,2.45,1.73,5.2,2.89,8,3.92,7.01,2.6,14.37,4.11,21.63,5.91,3.39.84,6.77,1.73,10.12,2.69,3.89,1.12,7.89,1.81,11.91,2.42,1.66.25,3.37.15,5.06-.22,1.6-.35,3.06-1.07,4.14-2.46.78-1.01.7-1.45-.24-2.14-.85-.63-1.79-1.1-2.85-1.27-1.85-.29-3.49-1.06-5.06-2-1.29-.77-2.67-1.33-4.17-1.58-1.89-.32-3.66-.91-5.32-1.8-1.22-.66-2.55-1.07-3.92-1.32-1.83-.34-3.52-.98-5.06-2-1.72-1.14-3.6-1.9-5.63-2.33-2.03-.43-3.91-1.22-5.59-2.42-1.23-.87-2.58-1.46-4.05-1.84-1.57-.4-3-1.11-4.31-2.06-1.72-1.24-3.58-2.14-5.77-2.35-1.78-.17-3.21-1.16-4.57-2.21-2.19-1.69-4.19-3.59-5.9-5.81-.2-.26-.39-.54-.84-.66Z"/><path class="cls-2" d="M142.91,192.74c-1.3-.02-2.6.13-3.87.48-13.88,3.81-16.3,19.99-17.71,32.15-2.2,18.95-6.7,37.58-8.98,56.58-.53,4.44,18.08,9.41,21.36,10.67.45.17.91.3,1.33.52.84.44,1.15.05,1.42-.72.88-2.5,1.87-4.97,2.73-7.48,5.3-15.53,10.52-31.08,15.27-46.78.31-1.04.61-2.08.97-3.11,2.5-7.2,3.94-14.72,4.33-22.29.47-9.03-.7-13.83-9.32-18.12-2.32-1.15-4.92-1.87-7.53-1.9Z"/><path class="cls-5" d="M.68,100.5c-1.01,7.23-.58,15.24-.64,20.64-.03,2.16,0,4.39.85,6.38.9,2.11,2.63,3.75,3.73,5.76,1.28,2.32,1.66,5.02,2.02,7.64,1.82,13.26,4.84,27.13,4.29,40.57-.7,17.11-4.35,32.14,9.64,45.36,12.64,11.95,29.08,14.42,45.88,15.36,2.68.15,5.72.41,8.42.49,24.79.79,51.9.64,76.62-5.3,5.44-1.3,10.77-2.89,15.95-4.81,6.99-2.6,14.56-6.6,16.5-13.81,2.14-7.89-3.83-16.04-11.15-19.68-15.76-7.83-74.24-7.02-67.64-38.93.92-4.42,4.29-8.55,11.16-11.7,3.59-1.65,7.66-3.05,9.74-6.41,1.04-1.69,1.45-3.69,1.81-5.64,1.75-9.48,2.92-19.05,3.51-28.66.12-1.96.19-4.05-.81-5.73-1.6-2.7-5.17-3.3-8.29-3.64-21.41-2.37-42.7-5.91-63.74-10.57-17.9-3.96-31.33-11.76-49.37-2.94-5.25,2.56-7.51,8.74-8.47,15.63Z"/><path class="cls-1" d="M151.48,237.39l6.26,94.6,10.61-.39-.94-99.01c-5.16,1.91-10.49,3.5-15.93,4.8Z"/><path class="cls-4" d="M178.81,206.41c-15.5,3.97-31.46,5.82-47.48,5.94-15.8-.05-22.81-6.43-24.43-22.11-.48-3.96-1.03-7.9-1.45-11.86l.23-.04c.93,3.88,1.71,7.78,2.57,11.67,2.63,14.51,8.19,19.67,23.09,19.66,7.87-.06,15.83-.49,23.7-1.09,7.9-.62,15.79-1.49,23.7-2.45l.05.28h0Z"/></svg>