<?xml version="1.0" encoding="UTF-8"?><svg id="Layer_1" xmlns="http://www.w3.org/2000/svg" viewBox="0 0 223.17 361.5"><defs><style>.cls-1{fill:#1e417e;}.cls-2{fill:#fff;}.cls-3{fill:#f69a94;}.cls-4{fill:#7e141f;}.cls-5{fill:#f9c5dc;}.cls-6{fill:#6193c8;}</style></defs><path class="cls-3" d="M104.79,327.04s2.72,7.35,4.59,9.04c0,0,4.68,5.32.03,10.7,0,0-1.57,1.31-6.87,2.61,0,0-10.77,4.07-14.74,7.46l-5.92,3.67-1.06.62s-1.82,1.05-3.12-.49c0,0-.51-.7-1.89-.84-.85-.08-1.56-.37-2.04-1.09-.29-.43-.42-.77-.88-1.05-.42-.27-.92-.4-1.41-.46-.93-.11-1.76-1.46-1.76-1.46,0,0-.06-.43-1.04-.58-.97-.15-1.71-.45-2.33-1.76-.63-1.31-1.28-1.04-1.28-1.04,0,0-2.36.54-3.33-1.35-.98-1.88,1.02-2.86,1.02-2.86,0,0,13.26-6.82,16.68-10.41,3.41-3.59,4.91-5.15,4.27-9.32l21.1-1.39Z"/><path class="cls-1" d="M163.59,149.16c-1.19-6.02-5.86-12.63-9.45-16.93-3.76-4.51-7.91-8.49-12.05-12.49-.78-.76-1.67-.87-2.57-.95-1.01.53-1.95,1.1-2.93,1.54-10.13,4.51-20.06,9.55-29.94,14.75-1.4.74-1.95,1.73-1.93,3.37,0,.32.02.65.03.97,1.23,29.61-6.44,58.59-11.07,87.6-3.02,18.94-5.45,37.97-7.28,57.07-1.59,16.64-4.27,33.14-5.73,49.83-.05.53-.08,1.1.22,1.54.31.45.89.62,1.42.75,12.3,2.89,21.58-.41,33.1-3.76.71-.21,1.46-.44,1.94-1.01.61-.74.57-1.79.51-2.75-2.44-36.03,6.9-68.86,19.4-102.2,4.67-11.14,7.13-20.89,13.54-31.16,7.44-11.91,12.35-22.13,13.09-36.96.15-3.08.3-6.21-.29-9.21Z"/><path class="cls-1" d="M161.23,205.03c6.03.62,7.79,3.97,10.21,8.95,5.36,11.01,11.28,21.85,15.97,33.22,1.52,3.68,3.09,7.35,4.13,11.18,1.52,5.59,3.03,11.19,4.21,16.88,1.21,5.81,1.75,11.69,2.54,17.55.14,1.02-.2,1.8-1.14,2.35-1.24.73-2.45,1.5-3.78,2.05-3.08,1.27-5.95,2.9-8.6,4.92-1.02.78-1.35.71-2.13-.41-2.36-3.41-4.46-6.98-6.45-10.61-4-7.32-8.56-14.31-12.71-21.55-5.89-10.28-10.68-21.07-15.27-31.97-1.32-3.14-2.77-6.23-3.87-9.46-1.01-2.97-2.22-6.58-2.13-9.74.1-3.42,2.85-6.22,5.29-8.31.77-.66,1.62-1.23,2.48-1.77,2.21-1.39,4.57-2.65,7.13-3.15,1.21-.24,2.65-.29,4.11-.14Z"/><path class="cls-3" d="M207.77,313.74s6.53,4.34,9.03,4.6c0,0,6.91,1.54,6.33,8.63,0,0-.5,1.98-4.01,6.16,0,0-6.31,9.64-7.52,14.71l-2.62,6.46-.49,1.13s-.85,1.92-2.81,1.44c0,0-.82-.27-2.02.44-.74.43-1.47.62-2.3.32-.48-.18-.79-.37-1.33-.33-.5.04-.98.22-1.41.46-.82.46-2.28-.14-2.28-.14,0,0-.31-.31-1.18.14-.87.45-1.65.64-2.92-.05-1.28-.69-1.65-.09-1.65-.09,0,0-1.59,1.82-3.49.87s-.86-2.91-.86-2.91c0,0,6.7-13.32,7.35-18.23.65-4.91.94-7.06-2.03-10.05l16.23-13.55Z"/><path class="cls-1" d="M185.98,228.92c-.35-1.06-.7-2.12-1.04-3.17-3.49-10.81-5.68-22.03-6.51-33.36-1.04-14.25-5.01-27.25-7.43-41.17-.3-1.75-.62-3.53-1.47-5.09-.53-.98-1.25-1.83-2.08-2.57-.72-.65-1.53-1.22-2.36-1.71-8.33-4.95-19.76-2.98-26.87,3.6-9.2,8.52-9.93,21.2-7.98,32.85,1.31,7.81,3.32,15.48,5.58,23.06,1.13,3.79,2.32,7.57,3.52,11.34,1.13,3.57,2.03,6.98,5.08,9.43.08.07.18.13.26.2,5.64,35.43,17.16,69.91,33.98,101.6,14.63,1.96,29.79-.13,43.34-5.99-11.96-29.27-26-58.95-36.02-89.01Z"/><path class="cls-3" d="M110.76,36.76l1.08.25c.06.02.23.87.25.94.17.55.35,1.1.56,1.63h0c.09.23.18.46.27.68.26.62.57,1.2.89,1.78.16.3.32.59.48.89.43.81.93,1.56,1.56,2.23.43.46.9.88,1.41,1.26.81.59,1.69,1.06,2.57,1.52.43.23.83.41,1.19.74.42.38.87.73,1.31,1.09,1.11.93,2.22,1.87,3.34,2.81l2.15,6.62,18.14-13.68-2.92-20.48-17.07-7.96-13.82-7.16-2.53,1.6-1.4,3.83.36,7.36.94,3.47-.54,9.63s-.25,1.01,1.78.95Z"/><path class="cls-4" d="M128.6,54.05c.11-.11-.73-1.94-.79-2.11-.43-1.16-.87-2.32-1.3-3.48-.11-.29-.22-.58-.33-.88.06.17-1.98.39-2.18.38-.61-.01-1.22-.02-1.83-.06-.6-.04-1.21-.1-1.8-.22-.38-.08-.75-.16-1.12-.28-.25-.08-.48-.18-.72-.29-.1-.04-.2-.1-.3-.14s-.17,0-.27.05c-.31.13-.63.23-.92.39-.21.11-.42.23-.64.33-.07.04-.15.07-.22.1-1.33.77-2.44,1.92-3.12,3.28-.32.64-.55,1.32-.99,1.88-.8,1.03-2.13,1.48-3.15,2.29-1.08.86-1.8,2.14-1.97,3.5-.1.85,0,1.74-.27,2.56-.29.88-.98,1.57-1.52,2.34-1.04,1.51-1.46,3.47-1.03,5.25.2.84.23,1.26,1,1.01.45-.15.93-.56,1.33-.8,1.75-1.05,3.5-2.11,5.24-3.16,0,0,9.77-4.77,12.66-5.84,0,0,1.51-3.47,4.22-6.11Z"/><path class="cls-4" d="M110.96,11.33c-.31.52,4.13,5.04,4.63,5.51,2.11,1.98,4.72,3.45,7.52,4.21,1.22.33,2.51.54,3.6,1.18,2.61,1.52,3.48,5.06,6.07,6.61,1.19.71,2.6.91,3.9,1.37,6.55,2.32,6.84,9.75,8.38,15.45,0,0,2.83-.47,2.83-.47,1.2-2.12,2.02-4.51,2.69-6.84,1.44-5.08,1.9-10.46,1.09-15.69-.51-3.29-1.53-6.49-3.01-9.47-1.72-3.48-4.28-7.25-7.68-9.3C137.18,1.6,132.81.09,128.35,0c-6.81-.13-12.85,3.3-17.38,8.2,0,0-5.12,5.72-3.8,12.09,0,0,.61,3.79,2.36,5.88,0,0-1.59-9.98,1.44-14.84Z"/><path class="cls-3" d="M34.6,64.05l-4.19-6.33c-1.03-.81-2.06-1.61-3.09-2.42-1.49-1.17-3.31-2.29-4.42-3.85-.45-.64-.88-1.3-1.23-2-.7-1.42-3.52-6.21-3.17-9.31,0,0,.12-.48.46-.86,0,0-2.2-6.02-.47-8.04,0,0-3.08-5.51.87-7.17l4.31.71s-1.49-3.38.27-3.61l5.61,2.5s3.73,1.88,5.95,6.2c0,0,5.62,12.35,6.24,15.44l2.34,3.87-9.5,14.86Z"/><polygon class="cls-4" points="10.27 25.13 10.9 21.71 65.14 34.14 64.78 35.55 10.27 25.13"/><path class="cls-5" d="M10.9,21.71s-2.61-3.23-9.53-1.7c-.83.18-1.45.61-1.36,1.53.08.81.81,1.38,1.42,1.79,1.1.75,2.3,1.35,3.58,1.73,1.44.43,2.96.57,4.44.31l.82-.25.64-3.42Z"/><path class="cls-3" d="M17.97,19.14c.06.42.17.84.33,1.24.08.21.17.42.26.63.45.97.99,1.91,1.48,2.87.48.93.95,1.86,1.43,2.79.3.58.59,1.16.89,1.74.03.06.31.73.37.72l5.88-.05-.03-.05c-.71-1.2-1.41-2.4-2.12-3.6-.46-.79-.93-1.57-1.39-2.36-.19-.33-.37-.69-.62-.98-.41-.46-1.86-2.41-2.23-2.84-.19-.22-.36-.45-.54-.69-.56-.73-1.57-2.18-2.65-1.82-.93.31-1.17,1.56-1.06,2.4Z"/><path class="cls-6" d="M180.34,154.95c-.49-2.86-.97-5.72-1.37-8.6-.38-2.68-.58-5.36-.92-8.06-1.49-11.68-2.85-23.4-4.84-35.01-.96-5.6-2.08-11.16-3.5-16.65-1.31-5.06-2.69-10.11-3.32-15.31l-8.93-13.76c-.66-1.15-1.94-2.12-1.94-2.12l-4.08-2.88c1.14-.51.63-1.62.63-1.62l-1.26-4.97c-.58-1.13-2.01-.83-2.01-.83l-1.41.23-2.83.47c-2.37.7-4.77,1.36-7.13,2.11-3.76,1.19-6.36,3.71-9.37,6.13-1.84,1.43-3.47,5.11-3.47,5.11-4.59,1.21-16.32,8.45-16.32,8.45l-27.98,17.45-28.73-28.89-7.51-8.92-14.73,19.89,6.7,4,23.41,37.27c8.52,2.59,28.41,11.65,28.41,11.65l18.05-4.94c-2.97.8-.18,14.87-.34,17.43-.77,12.38-3.65,24.61-3.13,37.06.35,8.42,20.03,10.68,25.76,7.35,4.23-2.45,3.21-9.66,9-4.47,3.05,2.73,5.88,5.95,10.34,5.83,10.33-.28,22.54.41,30.89-6.84,1.91-1.66,4.02-4.22,3.59-6.82-.53-3.26-1.11-6.51-1.67-9.76Z"/><path class="cls-4" d="M112.69,39.58c.08.23.15.46.24.69.29.68.52,1.63,1.43,1.45.6-.12,1.12-.61,1.54-1.01.44-.41.91-.81,1.32-1.26.07-.07.14-.16.13-.26-.01-.1-.11-.17-.2-.18s-.19,0-.29.02c-.65.11-1.3.02-1.87-.33-.33-.21-.74-.32-1.11-.16-.32.14-.44.56-.83.44-.13-.04-.24-.11-.36-.17-.03-.02-.07-.03-.11-.03-.07,0-.12.08-.13.16s.03.14.06.21c.06.15.12.29.17.44Z"/><path class="cls-4" d="M114.97,24.27c.01.15.07.3.19.36.28.16.69-.15.96-.22.34-.09.68-.15,1.02-.22.73-.15,1.48-.29,2.23-.3.55,0,1.1.06,1.62.25.26.1.51.23.74.39.1.07.55.56.65.52.05-.03.08-.09.07-.15s-.04-.11-.07-.16c-.08-.12-.15-.23-.23-.35-.19-.3-.39-.59-.63-.85-.54-.56-1.3-.6-2.03-.63-.85-.04-1.71.01-2.54.2-.28.06-.56.12-.83.19-.37.08-.98.32-1.1.72-.02.07-.03.16-.02.25Z"/><path class="cls-4" d="M119.53,25c.35.17.7.34,1.03.54.24.14.5.32.55.6-.58-.15-1.16-.3-1.73-.46-.44-.12-.84-.2-1.3-.19-.5.01-.94.21-1.42.3-.41.08-.51-.46-.14-.6.94-.37,2.07-.64,3.01-.19Z"/><circle class="cls-4" cx="118.29" cy="26.34" r="1.13"/><path class="cls-4" d="M111.79,36.36c.29-.22.57-.44.86-.66.4-.31.87-.75,1.42-.74.2,0,.41.09.49.27.05.12.04.26-.03.37s-.18.19-.3.23c-.14.04-.29.03-.43.05-.48.05-.88.31-1.24.61-.12.1-.53.53-.7.54,0,0-2.2.04-2.97-.61,0,0-.17-.35-.19-.72l.65-8.45s.23-.25.4.41-.04,7.94-.04,7.94c0,0-.03.34.27.49l1.65.36s.06,0,.17-.08Z"/><path class="cls-4" d="M33.72,66.41s.01.07.02.1c.02.1,0-.03-.01-.03,0,0,.06.14.07.16,0,0,.04.09.05.09,0,0-.08-.11-.02-.03.04.05.08.1.13.15.07.08-.07-.04-.01-.01.02.01.04.04.06.05.02.01.04.03.05.04l.03.02s.04.02-.03-.01c0,.02.14.06.15.07.02,0,.04.01.06.02.09.03-.11-.01.02,0,.06,0,.11.02.17.02.1,0-.01.01-.02,0,0,0,.08,0,.09,0,.06,0,.11-.02.17-.03.07-.02-.12.05-.02,0,.03-.01.06-.02.09-.04s.06-.03.09-.05c.07-.04-.03.01-.03.02s.12-.09.13-.1c.02-.02.04-.04.06-.06.05-.04-.07.1-.01,0,.01-.01.12-.15.11-.16,0,0-.05.1-.01.03.01-.03.03-.06.04-.09,0-.02.02-.04.02-.06v-.03c.02-.05.02-.04,0,.03.02,0,.02-.15.02-.17,0-.02,0-.05,0-.07,0-.1.01.11,0-.02,0-.05-.01-.1-.02-.16v-.03c-.02-.05-.02-.04,0,.03-.01-.02-.02-.04-.02-.06-.02-.05-.05-.1-.07-.15-.05-.1.07.09,0,0-.02-.03-.04-.05-.06-.08-.02-.02-.04-.04-.06-.06-.07-.08.01.01.01,0,0,0-.12-.09-.13-.1l-.03-.02s-.04-.02,0,0h.03s-.04,0-.06-.01c-.02,0-.18-.08-.19-.07,0,0,.13.02.03,0-.03,0-.07-.01-.1-.01-.02,0-.04,0-.07,0-.03,0-.11-.03-.03,0h.03s-.05,0-.07,0c-.03,0-.06,0-.09.01s-.06.01-.09.02c-.11.02.09-.04,0,0-.06.03-.12.05-.18.09-.1.05.06-.06.01,0-.03.03-.06.05-.09.07-.02.01-.03.03-.05.04-.02.02-.03.03-.05.05.05-.06.06-.06.02-.02-.03.04-.06.09-.1.13-.07.09.04-.1,0,0-.01.03-.03.06-.04.09s-.02.06-.03.09c-.03.09.01-.1,0,0,0,.07-.02.13-.02.2,0,.08,0-.04,0-.03-.01,0,.01.12.02.14.04.26-.14.55-.42.58s-.54-.14-.58-.42c-.11-.75.24-1.46.89-1.83.61-.35,1.45-.27,1.98.19.56.49.79,1.28.52,1.99s-.97,1.13-1.72,1.12c-.83-.01-1.53-.68-1.67-1.47-.05-.26.15-.55.42-.58s.53.14.58.42Z"/><path class="cls-6" d="M18.08,19.13c.09.57.37,1.11.77,1.51.24.24.38.31.71.32s.7-.02,1.03-.13c.43-.15.82-.46.98-.89.13-.36.08-.78-.07-1.13-.15-.36-.39-.67-.65-.96-.32-.37-.68-.73-1.14-.86-.22-.07-.55,0-.76.07-.8.24-.96,1.26-.87,1.98,0,.03,0,.06.01.09Z"/><path class="cls-2" d="M142.92,121.22c3.69,3.79,6.74,8.03,9.82,12.29,1.01,1.43,2,2.87,2.91,4.41l-.12.11c-4.16-3.31-7.57-7.47-10.37-11.96-.92-1.51-1.75-3.07-2.4-4.74l.17-.11h0Z"/><path class="cls-2" d="M143.63,110.52c6.89,6.49,13.6,13.74,19.9,20.81,0,0-.11.12-.11.12-4.02-2.71-7.61-5.97-10.99-9.43-3.35-3.49-6.47-7.21-8.95-11.38,0,0,.15-.13.15-.13h0Z"/><path class="cls-2" d="M145.49,119.66c3.4,2.56,6.23,5.64,9.09,8.75.93,1.05,1.86,2.11,2.71,3.28l-.11.13c-3.78-2.02-6.98-5-9.6-8.37-.86-1.14-1.64-2.34-2.25-3.66l.15-.13h0Z"/><path class="cls-2" d="M97.44,88.15c5.9,2.69,11.36,6.12,16.79,9.61,1.8,1.18,3.59,2.38,5.31,3.71l-.08.15c-6.09-2.27-11.77-5.5-17.08-9.22-1.76-1.25-3.47-2.59-5.06-4.08l.11-.17h0Z"/><path class="cls-2" d="M103.3,86.63c3.01.89,5.61,2.55,8.12,4.37.82.61,1.64,1.26,2.39,2.03l-.08.15c-3.1-.6-5.93-2.11-8.37-4.08-.8-.67-1.55-1.41-2.18-2.3l.11-.16h0Z"/><path class="cls-2" d="M55.93,79.56c3.56,2.92,6.36,6.58,8.91,10.38.83,1.28,1.63,2.58,2.29,3.98l-.13.1c-3.49-2.99-6.39-6.54-8.96-10.32-.84-1.27-1.62-2.58-2.27-4.01l.15-.13h0Z"/><path class="cls-2" d="M59.47,80.37c2.68,1.06,4.79,2.96,6.65,5.1.61.72,1.18,1.47,1.65,2.35l-.11.13c-3.42-1.58-6.48-4.11-8.33-7.43,0,0,.14-.14.14-.14h0Z"/><path class="cls-2" d="M58.18,75.75c5.41,3.49,10.15,7.8,14.69,12.32,1.5,1.52,2.97,3.07,4.33,4.75l-.11.13c-5.34-3.56-10.19-7.78-14.75-12.28-1.51-1.51-2.97-3.08-4.3-4.77l.14-.15h0Z"/><path class="cls-2" d="M125.57,59.05c7.56-4.52,19.31-8.98,27.97-5.79,0,0-.04.16-.04.16-7.23-.64-14.1,1.68-20.91,3.75-2.27.75-4.58,1.48-6.95,2.06l-.08-.18h0Z"/><path class="cls-2" d="M39.09,71.01c2.17-4.19,5.21-7.78,8.46-11.17,1.09-1.11,2.22-2.19,3.48-3.17l.13.11c-2.25,4.13-5.18,7.81-8.4,11.21-1.09,1.12-2.23,2.19-3.5,3.15l-.15-.13h0Z"/><path class="cls-2" d="M106.98,115.29c7.76-3.27,15.95-6.43,23.74-9.69,0,0-.53.58-.53.58,2.11-7.66,3.84-15.67,2.52-23.57-.97-5.82-3.65-11.52-8.28-15.31-1.55-1.26-3.29-2.3-5.02-3.36l.08-.15c8.08,3.22,13.3,10,14.86,18.51,1.65,8.33-.19,16.84-2.58,24.8-5.95,2.26-12.51,4.7-18.58,6.5-2.04.63-4.08,1.28-6.14,1.87l-.07-.19h0Z"/><path class="cls-2" d="M138.15,82.22c6.52-3.03,13.44-5.05,20.39-6.81,2.32-.56,4.66-1.08,7.04-1.44l.04.16c-6.57,2.93-13.4,5.09-20.36,6.87-2.32.57-4.66,1.08-7.06,1.42l-.06-.19h0Z"/><path class="cls-2" d="M133.2,112.56c.6,8.95.64,17.88.53,26.82-.3,8.82-.12,18.31-1.32,26.8-.54-8.94-.61-17.88-.55-26.82.09-8.94.34-17.87,1.14-26.8h.2Z"/><path class="cls-5" d="M19.3,39.48c2.22,1.7,3.73,3.9,4.92,6.4,0,0-.11.12-.11.12-2.09-.64-3.7-2.33-4.55-4.29-.27-.66-.45-1.37-.43-2.15l.18-.09h0Z"/><path class="cls-5" d="M18.8,31.54c2.41,2.07,4.31,4.43,6.37,6.81.67.79,1.34,1.59,1.97,2.49l-.1.13c-3.99-1.6-7.36-5.12-8.41-9.33,0,0,.17-.1.17-.1h0Z"/><path class="cls-5" d="M21.46,27.04c2.41,2.07,4.31,4.43,6.37,6.81.67.79,1.34,1.59,1.97,2.49l-.1.13c-3.99-1.6-7.36-5.12-8.41-9.33,0,0,.17-.1.17-.1h0Z"/></svg>