<?xml version="1.0" encoding="UTF-8"?><svg id="Layer_1" xmlns="http://www.w3.org/2000/svg" viewBox="0 0 325.83 190.69"><defs><style>.cls-1{fill:#732229;}.cls-2{fill:#dadf50;}.cls-3{fill:#3c6fa6;}.cls-4{fill:#741f23;}.cls-5{fill:#e99f97;}.cls-6{fill:#7498c5;}</style></defs><path class="cls-5" d="M169.93,5.98c.05-.52.11-1.07.43-1.51s.97-.71,1.46-.46c.31.16.49.48.77.69.53.38,1.34.28,1.88.65.64.44.69,1.38,1.34,1.81.41.27.97.27,1.39.52.42.25.65.7.85,1.12.93,2.05,1.63,4.19,2.08,6.37,0-.4-8.73-1.68-9.59-2-2.29-.84-.79-5.3-.6-7.19Z"/><rect class="cls-1" x="153.86" y="11.34" width="34.97" height="22.44" rx="3.98" ry="3.98" transform="translate(337.9 68.72) rotate(-172.01)"/><rect class="cls-3" x="155.85" y="13.21" width="30.99" height="18.71" rx="3.42" ry="3.42" transform="translate(337.9 68.72) rotate(-172.01)"/><path class="cls-5" d="M165.93,33.58c-.87-2.1-2.17-4.1-2.35-6.36-.02-.24-.02-.51.15-.69.19-.21.53-.21.81-.14,1.88.42,2.91,2.37,4.19,3.82,3.21,3.62,8.53,4.27,13.35,4.68.23,1.67.47,3.36.2,5.03s-1.12,3.31-2.58,4.14c-1.15.65-2.54.73-3.86.73-1.84,0-7.79.47-8.71-1.55-.5-1.1.15-3.52.02-4.78-.17-1.67-.58-3.31-1.22-4.86Z"/><path class="cls-5" d="M112.09,40.85c-.49-1.99.24-4.24,1.82-5.55,1.04-.87,2.36-1.32,3.57-1.94s2.4-1.53,2.76-2.84c.19-.68.14-1.39.13-2.1,0-.84.08-1.67.23-2.49.14-.77.12-1.53.3-2.3.69-.38,1.73-.59,2.42-.97.24-.13.5-.28.62-.53.2-.4-.02-.87-.23-1.26-1.05-1.92-2.8-4.09-2.8-6.35,0-1.07,0-1.92-.38-2.94s-.86-1.89-1.42-2.76c-1.42-2.21-3.2-4.18-5.24-5.84-.05,1.17-.68,2.25-1.34,3.22-6.29,9.19-16.23,15.54-21.87,25.14-1.54,2.63-2.76,5.6-2.55,8.64.15,2.13.98,4.15,1.8,6.12.05.12.11.25.22.32.12.08.28.06.42.04,7.38-1.09,14.82-2.34,21.53-5.61Z"/><path class="cls-2" d="M41.29,171.28l-17.65-9.22c-.5-2.49.5-5.18,1.92-7.29,0,0,34.02-62.77,38.68-87.82v-8.94s17.28-14.21,17.28-14.21l33.13-5.39c.13-.02.63,3.03.7,3.27.54,1.88,1.01,3.12,2.95,4.05,1.6.76,3.39,1,5.06,1.6,4.39,1.58,7.49,5.49,10.03,9.41s4.87,8.14,8.57,10.99,9.31,3.89,12.95.97c1.63-1.31,2.65-3.21,3.51-5.11,2.94-6.45,4.55-13.4,6.14-20.31,0,0,18.43-1.48,18.43-1.48-.03.54-.07,1.08-.11,1.62-.7,9.74-2.14,19.51-4.54,28.98-1.47,5.79-3.05,11.88-6.82,16.64-3.75,4.73-9.03,8.15-14.69,10.16-2.76.98-5.65,1.65-8.58,1.7-8.26.13-16.94-5.43-21.11-12.37l4.06,29.25-6.66,13.23-50.96,26.66s-6.08-18.23-3.8-31.53c0,0-4.19,12.42-28.49,45.14Z"/><path class="cls-5" d="M295.02,166.61c-2.04,0-23.43-.47-23.43-.59-.06.6.4,1.1.83,1.52,1.78,1.73,3.87,3.37,5.09,5.49,1.29,2.25,2.31,4.82,3.04,7.31.93,3.22,1.56,7.02,4.45,8.7,2.82,1.64,5.91.16,8.83-.14,3.7-.38,7.33-1.19,11.08-1.08,5.24.16,10.41,1.84,15.63,1.37,1.86-.17,3.91-.75,4.83-2.38,1.06-1.85.13-4.33-1.51-5.69s-3.79-1.9-5.86-2.41c-3.94-.97-7.9-2.02-11.59-3.72s-7.13-4.1-9.54-7.38c-.25-.35-.51-.72-.91-.89-.29-.13-.62-.13-.95-.13Z"/><path class="cls-5" d="M239.66,170.51c1.95,3.52,3.92,7.07,5.04,10.93.91,3.15,1.52,6.86,4.36,8.51,2.76,1.6,5.78.16,8.64-.14,3.62-.37,7.17-1.16,10.83-1.05,5.12.16,10.18,1.79,15.28,1.34,1.82-.16,3.82-.74,4.73-2.32,1.03-1.81.12-4.23-1.48-5.56s-3.71-1.86-5.73-2.35c-3.86-.95-7.72-1.97-11.33-3.63s-6.98-4.01-9.32-7.21c-.25-.34-.5-.7-.89-.87-.29-.13-.61-.13-.92-.13-6.14,0-12.4,0-18.25,1.9"/><polygon class="cls-3" points="277.66 173.01 240.97 173.01 196.49 99.62 205.39 99.62 230.96 108.8 277.66 173.01"/><path class="cls-4" d="M120.92,25c0,.17,0,.35-.02.52-.06.53-.02,1.23-.68,1.3-.95.1-1.81-.74-2.42-1.37-.03-.03-.06-.06-.07-.1-.04-.11.05-.24.17-.27s.24-.01.35,0c.45.05.89-.07,1.26-.31.19-.13.2-.23.44-.23.22,0,.35.28.59.11.08-.05.14-.13.21-.19.02-.02.04-.04.07-.04.05-.01.1.03.12.08s.01.1,0,.16c-.01.11-.02.23-.02.34Z"/><path class="cls-4" d="M118.25,14.97c-.57-.25-1.18-.36-1.8-.26-.3.05-.59.15-.87.28-.25.11-.59.24-.79.43-.2.19-.15.47.16.31.24-.12.46-.27.7-.39.38-.19.8-.27,1.22-.25.06,0,.13.01.19.04.15.1.06.37.06.51,0,.18.08.37.22.49.25.21.67.23.92.01.14-.13.23-.27.33-.43,0,0,.01-.02.02-.03.02-.01.05,0,.07.02.08.06.17.11.27.13.14.04.17-.08.15-.19-.01-.08-.07-.15-.12-.21-.17-.18-.38-.31-.61-.42-.04-.02-.07-.04-.11-.05Z"/><path class="cls-4" d="M119.59,13.85c.03-.07.03-.15.03-.23,0-.13-.02-.25-.09-.36-.08-.14-.22-.22-.37-.28-1.62-.76-3.47-.11-4.91.73-.17.1-.33.2-.45.36-.04.05-.04.08-.09.14.08.1.23.11.35.08.12-.04.2-.11.3-.18.13-.08.27-.13.41-.19.28-.12.57-.23.86-.32.57-.18,1.16-.28,1.76-.25.57.04,1.1.29,1.61.54.1.05.2.1.3.1s.23-.03.28-.13Z"/><path class="cls-6" d="M80.09,155.97c-1.68.94,4.94,13.23,5.66,14.47,2.74,4.7,6.14,9.12,10.72,12.16,13.74,9.1,35.82,6.07,49.71-1.07,12.25-6.3,22.14-16.57,29.59-28.15l26.96-50.56,58.91,65.19,42.3-2.08c-1.06-3.94-2.12-7.84-3.18-11.77-.75-2.78-1.51-5.59-2.89-8.11-2.93-5.34-8.28-8.81-13.16-12.47s-9.74-8.17-10.86-14.16c-2.35-12.61-6.89-26.65-17.33-34.1-5.17-3.69-11.65-5.63-15.89-10.35-2.37-2.64-3.85-5.96-5.99-8.79-9.11-12.08-31.07-18.25-44.66-11.29-6.5,3.33-12.64,7.35-17.86,12.41-2.64,2.56-5.46,4.76-7.92,7.56-2.33,2.65-4.52,5.43-6.85,8.08-10.23,11.66-20.45,23.31-30.68,34.97-5.88,6.7-11.76,13.4-17.63,20.1,0,0-28.94,17.97-28.94,17.97Z"/><path class="cls-4" d="M71.6,58.49c2.4-.71,5.12-1.21,6.61-3.21.92-1.24,1.19-2.86,2.06-4.13,2.88-4.22,10.52-2.75,13.09-7.16,1.56-2.67.39-6.3,1.91-8.99,1.49-2.64,4.97-3.4,7.04-5.62,1.57-1.68,2.17-4.02,3.23-6.05,1.62-3.08,4.32-5.47,6.17-8.42,2.12-3.37,3.08-7.47,2.66-11.43.81-1.74-.36-1.14-1.99-2.15s-3.64-1.17-5.56-1.24c-3.9-.16-7.87-.11-11.62.97s-7.3,3.32-9.26,6.7c-2.42,4.17-2.27,9.74-5.64,13.19-3.2,3.28-8.66,3.62-11.61,7.11-5.2,6.15-.7,15.34-7.45,20.87-2.27,1.86-5.3,3.01-6.69,5.59-1.7,3.15-.29,7.23-1.74,10.5-2.22,4.99-10.03,6-11.35,11.3-1.01,4.04,2.55,8.09,1.86,12.2-.32,1.92-1.54,3.61-1.82,5.54-.35,2.45.9,4.91,2.7,6.61s4.07,2.79,6.31,3.85c.07.03,9.06-22.81,9.83-24.91,2.37-6.45,3.73-18.86,11.25-21.1Z"/><path class="cls-5" d="M7.25,174.28c-2.69,1.31-5.7,2.51-7.25,5.08,3.12,1.69,6.93.57,10.37-.29,5.88-1.48,11.97-2.13,18.04-1.92,1.63.06,3.28.18,4.83.68,3.47,1.12,6.59,4.11,10.19,3.49.53-1.86-.63-3.76-1.88-5.24s-2.71-2.99-2.91-4.91c-.15-1.42.39-2.98-.35-4.19-.51-.83-1.48-1.23-2.38-1.58-2.86-1.11-5.73-2.49-8.67-3.36-2.78-.82-4.15,1.34-6.29,3.07-3.75,3.05-8.9,7.98-13.7,9.18Z"/></svg>