<?xml version="1.0" encoding="UTF-8"?>
<svg id="Layer_1" xmlns="http://www.w3.org/2000/svg" xmlns:xlink="http://www.w3.org/1999/xlink" version="1.1" viewBox="0 0 1036.3 1493.6">
  <!-- Generator: Adobe Illustrator 30.4.0, SVG Export Plug-In . SVG Version: 2.1.4 Build 226)  -->
  <defs>
    <style>
      .st0, .st1, .st2, .st3, .st4, .st5, .st6 {
        fill: none;
      }

      .st1 {
        stroke-width: 3px;
      }

      .st1, .st2, .st3, .st4, .st5, .st6 {
        stroke-miterlimit: 10;
      }

      .st1, .st4, .st5 {
        stroke: #f0d2d0;
      }

      .st7 {
        fill: #eaa49d;
      }

      .st8 {
        fill: #7395c3;
      }

      .st2 {
        stroke-width: 2.7px;
      }

      .st2, .st3 {
        stroke: #7395c3;
      }

      .st3 {
        stroke-width: 2.6px;
      }

      .st9 {
        fill: #c06c63;
      }

      .st10 {
        fill: url(#linear-gradient2);
      }

      .st11 {
        fill: url(#linear-gradient1);
      }

      .st12 {
        fill: url(#linear-gradient3);
      }

      .st13 {
        fill: url(#linear-gradient6);
      }

      .st14 {
        fill: url(#linear-gradient7);
      }

      .st15 {
        fill: url(#linear-gradient5);
      }

      .st16 {
        fill: url(#linear-gradient4);
      }

      .st4 {
        stroke-width: 4px;
      }

      .st5 {
        stroke-width: 3.5px;
      }

      .st17 {
        fill: #545454;
      }

      .st18 {
        fill: #6283a8;
      }

      .st19 {
        fill: #d67063;
      }

      .st20 {
        fill: url(#linear-gradient);
      }

      .st21 {
        fill: #6a1c23;
      }

      .st22 {
        fill: #d2d3dc;
      }

      .st23 {
        fill: #aeb1d6;
      }

      .st24 {
        fill: #27797f;
      }

      .st25 {
        clip-path: url(#clippath-11);
      }

      .st26 {
        clip-path: url(#clippath-10);
      }

      .st27 {
        clip-path: url(#clippath-1);
      }

      .st28 {
        clip-path: url(#clippath-3);
      }

      .st29 {
        clip-path: url(#clippath-2);
      }

      .st30 {
        clip-path: url(#clippath-7);
      }

      .st31 {
        clip-path: url(#clippath-6);
      }

      .st32 {
        clip-path: url(#clippath-8);
      }

      .st33 {
        clip-path: url(#clippath-5);
      }

      .st34 {
        fill: #d8de52;
      }

      .st35 {
        fill: #faf5b4;
      }

      .st36 {
        fill: #fff;
      }

      .st37 {
        fill: #732228;
      }

      .st38 {
        fill: #df96bc;
      }

      .st39 {
        fill: #019f6b;
      }

      .st40 {
        fill: #009e6b;
      }

      .st41 {
        fill: #983d30;
      }

      .st42 {
        fill: #843a44;
      }

      .st43 {
        fill: #e2785a;
      }

      .st44 {
        fill: #3c3c48;
      }

      .st45 {
        fill: silver;
      }

      .st46 {
        opacity: .5;
      }

      .st47 {
        fill: #c1876a;
      }

      .st48 {
        fill: #a26258;
      }

      .st49 {
        fill: #cbcaca;
      }

      .st50 {
        fill: #257a57;
      }

      .st51 {
        fill: #2f787f;
      }

      .st52 {
        fill: #666767;
      }

      .st53 {
        fill: #a24b3d;
      }

      .st54 {
        fill: #dd9bbf;
      }

      .st55 {
        fill: #d8de51;
      }

      .st56 {
        fill: #246364;
      }

      .st57 {
        fill: #0095a0;
      }

      .st58 {
        clip-path: url(#clippath);
      }

      .st6 {
        stroke: #fff;
        stroke-width: 2.1px;
      }

      .st59 {
        fill: #b2b2b2;
      }
    </style>
    <clipPath id="clippath">
      <rect class="st59" y="968.5" width="1035.5" height="525.1"/>
    </clipPath>
    <clipPath id="clippath-1">
      <rect class="st43" x="710.1" y="238.4" width="325.2" height="666.8" transform="translate(1745.464 1143.5628) rotate(-180)"/>
    </clipPath>
    <clipPath id="clippath-2">
      <path class="st0" d="M660.5,733.9s0,0,0,0c-1,0-2-.1-2.9,0s-2.1,0-3.1,0c-2.8,0-5.6,0-8.3,0-3.2,0-6.3,0-9.5,0-2.1,0-4.3,0-6.4,0-1.1,0-2.8,0-3.1-1.7,0-.3,0-.6,0-.9,0-.9.3-1.9.8-2.3.8-.6,1.6-.9,2.5-1.2s1.7-.6,2.6-.7c2.4-.4,4.7-.8,7.1-1,4.7-.5,9.5-.5,14.2.4,2.2.4,4.6.7,6.6,2,1.1.7,3,2,2.4,4s-.1.4-.2.6c0,.1-.2.2-.3.3-.6.6-1.5.6-2.2.7Z"/>
    </clipPath>
    <clipPath id="clippath-3">
      <path class="st19" d="M660.5,733.9s0,0,0,0c-1,0-2-.1-2.9,0s-2.1,0-3.1,0c-2.8,0-5.6,0-8.3,0-3.2,0-6.3,0-9.5,0-2.1,0-4.3,0-6.4,0-1.1,0-2.8,0-3.1-1.7,0-.3,0-.6,0-.9,0-.9.3-1.9.8-2.3.8-.6,1.6-.9,2.5-1.2s1.7-.6,2.6-.7c2.4-.4,4.7-.8,7.1-1,4.7-.5,9.5-.5,14.2.4,2.2.4,4.6.7,6.6,2,1.1.7,3,2,2.4,4s-.1.4-.2.6c0,.1-.2.2-.3.3-.6.6-1.5.6-2.2.7Z"/>
    </clipPath>
    <clipPath id="clippath-5">
      <rect class="st36" x="765.6" y="30.2" width="214.2" height="147.1" transform="translate(1745.464 207.4892) rotate(-180)"/>
    </clipPath>
    <clipPath id="clippath-6">
      <rect class="st45" x="945.4" y="787.7" width="49.6" height="118.4"/>
    </clipPath>
    <clipPath id="clippath-7">
      <rect class="st57" x="274.1" y="128.8" width="201.2" height="502.2" transform="translate(749.4 759.8) rotate(-180)"/>
    </clipPath>
    <linearGradient id="linear-gradient" x1="278" y1="1001.5" x2="422.4" y2="288.4" gradientTransform="translate(653.3719 1522.3378) rotate(-180)" gradientUnits="userSpaceOnUse">
      <stop offset="0" stop-color="#2f787f"/>
      <stop offset=".2" stop-color="#32787e"/>
      <stop offset=".3" stop-color="#3b787c"/>
      <stop offset=".5" stop-color="#4c7878"/>
      <stop offset=".6" stop-color="#637874"/>
      <stop offset=".7" stop-color="#81786d"/>
      <stop offset=".9" stop-color="#a67866"/>
      <stop offset="1" stop-color="#d1785d"/>
      <stop offset="1" stop-color="#e2785a"/>
    </linearGradient>
    <clipPath id="clippath-8">
      <rect class="st52" x="1" y="342.1" width="229.4" height="837.6" transform="translate(231.3759 1521.7043) rotate(-180)"/>
    </clipPath>
    <linearGradient id="linear-gradient1" x1="716.9" y1="1088.3" x2="716.9" y2="1147.9" gradientUnits="userSpaceOnUse">
      <stop offset="0" stop-color="#eaa59e" stop-opacity=".6"/>
      <stop offset=".3" stop-color="#cba5b1" stop-opacity=".8"/>
      <stop offset=".8" stop-color="#a8a5c8" stop-opacity=".9"/>
      <stop offset="1" stop-color="#9ba6d1"/>
    </linearGradient>
    <linearGradient id="linear-gradient2" x1="805.4" y1="1053.1" x2="805.4" y2="1131.9" xlink:href="#linear-gradient1"/>
    <linearGradient id="linear-gradient3" x1="542.5" y1="1087.7" x2="542.5" y2="1147.9" xlink:href="#linear-gradient1"/>
    <linearGradient id="linear-gradient4" x1="627.9" y1="1087.7" x2="627.9" y2="1147.9" xlink:href="#linear-gradient1"/>
    <clipPath id="clippath-10">
      <path class="st55" d="M58.1,1040.6h17.3c17.3,0,31.3,14,31.3,31.3v107.9H30.7v-111.8c0-15.1,12.3-27.4,27.4-27.4Z"/>
    </clipPath>
    <clipPath id="clippath-11">
      <rect class="st53" x="30.7" y="1036.4" width="81.3" height="147.5"/>
    </clipPath>
    <linearGradient id="linear-gradient5" x1="593.9" y1="604.6" x2="618.8" y2="630.3" gradientUnits="userSpaceOnUse">
      <stop offset="0" stop-color="#d3d5dd"/>
      <stop offset=".6" stop-color="#adb5d4"/>
      <stop offset="1" stop-color="#9ba6d1"/>
    </linearGradient>
    <linearGradient id="linear-gradient6" x1="714.7" y1="709.1" x2="742.9" y2="738.2" xlink:href="#linear-gradient5"/>
    <linearGradient id="linear-gradient7" x1="658.2" y1="708.1" x2="680.7" y2="731.3" xlink:href="#linear-gradient5"/>
  </defs>
  <g>
    <g>
      <g>
        <rect class="st59" x=".6" y="0" width="1035.6" height="411.7"/>
        <rect class="st39" x=".6" y="80" width="1035.6" height="103.6"/>
        <rect class="st34" x=".6" y="272.2" width="1035.6" height="14.4"/>
        <g>
          <path class="st50" d="M968.6,133.3c1.3-.6,2.3-1.7,3.4-2.5,1.1-.8,2.6-1.7,3.9-2.6,2.4-1.6,4.9-3.2,6.9-5.4,2.1-2.4,4.6-7.7,0-9.1-4.7-1.4-8.8,3.8-10.7,6.7-3,4.3-4.4,9.5-3.3,12.9h-.1Z"/>
          <path class="st50" d="M963.2,135.3c-1.3-.6-2.3-1.7-3.4-2.5s-2.6-1.7-3.9-2.6c-2.4-1.6-4.9-3.2-6.9-5.4-2.1-2.4-4.6-7.7,0-9.1,4.7-1.4,8.8,3.8,10.7,6.7,3,4.3,4.4,9.5,3.3,12.9h.1Z"/>
          <path class="st50" d="M960.4,118.3c.3.9.9,1.6,1.7,2.2.3.2.6.4,1,.5,2,.2,6.6-4.8,7.5-6.4.9-1.6,1.2-3.4-.6-4.7-4.4-3.3-10.9,4-9.6,8.4h0Z"/>
        </g>
        <g>
          <path class="st50" d="M1007.2,175.5c1.3-.6,2.3-1.7,3.4-2.5,1.1-.8,2.6-1.7,3.9-2.6,2.4-1.6,4.9-3.2,6.9-5.4,2.1-2.4,4.6-7.7,0-9.1s-8.8,3.8-10.7,6.7c-3,4.3-4.4,9.5-3.3,12.9h-.1Z"/>
          <path class="st50" d="M1001.8,177.5c-1.3-.6-2.3-1.7-3.4-2.5s-2.6-1.7-3.9-2.6c-2.4-1.6-4.9-3.2-6.9-5.4-2.1-2.4-4.6-7.7,0-9.1s8.8,3.8,10.7,6.7c3,4.3,4.4,9.5,3.3,12.9h.1Z"/>
          <path class="st50" d="M999,160.4c.3.9.9,1.6,1.7,2.2.3.2.6.4,1,.5,2,.2,6.6-4.8,7.5-6.4.9-1.6,1.2-3.4-.6-4.7-4.4-3.3-10.9,4-9.6,8.4h0Z"/>
        </g>
        <g>
          <path class="st50" d="M885.6,118c1.3-.6,2.3-1.7,3.4-2.5s2.6-1.7,3.9-2.6c2.4-1.6,4.9-3.2,6.9-5.4,2.1-2.4,4.6-7.7,0-9.1s-8.8,3.8-10.7,6.7c-3,4.3-4.4,9.5-3.3,12.9h-.1Z"/>
          <path class="st50" d="M880.2,120c-1.3-.6-2.3-1.7-3.4-2.5s-2.6-1.7-3.9-2.6c-2.4-1.6-4.9-3.2-6.9-5.4-2.1-2.4-4.6-7.7,0-9.1,4.7-1.4,8.8,3.8,10.7,6.7,3,4.3,4.4,9.5,3.3,12.9h.1Z"/>
          <path class="st50" d="M877.4,103c.3.9.9,1.6,1.7,2.2.3.2.6.4,1,.5,2,.2,6.6-4.8,7.5-6.4.9-1.6,1.2-3.4-.6-4.7-4.4-3.3-10.9,4-9.6,8.4h0Z"/>
        </g>
        <g>
          <path class="st50" d="M803.2,166.8c1.3-.6,2.3-1.7,3.4-2.5s2.6-1.7,3.9-2.6c2.4-1.6,4.9-3.2,6.9-5.4,2.1-2.4,4.6-7.7,0-9.1-4.7-1.4-8.8,3.8-10.7,6.7-3,4.3-4.4,9.5-3.3,12.9h-.1Z"/>
          <path class="st50" d="M797.8,168.8c-1.3-.6-2.3-1.7-3.4-2.5s-2.6-1.7-3.9-2.6c-2.4-1.6-4.9-3.2-6.9-5.4-2.1-2.4-4.6-7.7,0-9.1,4.7-1.4,8.8,3.8,10.7,6.7,3,4.3,4.4,9.5,3.3,12.9h.1Z"/>
          <path class="st50" d="M795,151.8c.3.9.9,1.6,1.7,2.2.3.2.6.4,1,.5,2,.2,6.6-4.8,7.5-6.4s1.2-3.4-.6-4.7c-4.4-3.3-10.9,4-9.6,8.4h0Z"/>
        </g>
        <g>
          <path class="st50" d="M688.7,134.5c1.3-.6,2.3-1.7,3.4-2.5s2.6-1.7,3.9-2.6c2.4-1.6,4.9-3.2,6.9-5.4,2.1-2.4,4.6-7.7,0-9.1s-8.8,3.8-10.7,6.7c-3,4.3-4.4,9.5-3.3,12.9h-.1Z"/>
          <path class="st50" d="M683.3,136.5c-1.3-.6-2.3-1.7-3.4-2.5s-2.6-1.7-3.9-2.6c-2.4-1.6-4.9-3.2-6.9-5.4-2.1-2.4-4.6-7.7,0-9.1s8.8,3.8,10.7,6.7c3,4.3,4.4,9.5,3.3,12.9h.1Z"/>
          <path class="st50" d="M680.5,119.5c.3.9.9,1.6,1.7,2.2.3.2.6.4,1,.5,2,.2,6.6-4.8,7.5-6.4s1.2-3.4-.6-4.7c-4.4-3.3-10.9,4-9.6,8.4h0Z"/>
        </g>
        <g>
          <path class="st50" d="M607.5,166.8c1.3-.6,2.3-1.7,3.4-2.5s2.6-1.7,3.9-2.6c2.4-1.6,4.9-3.2,6.9-5.4,2.1-2.4,4.6-7.7,0-9.1s-8.8,3.8-10.7,6.7c-3,4.3-4.4,9.5-3.3,12.9h-.1Z"/>
          <path class="st50" d="M602.1,168.8c-1.3-.6-2.3-1.7-3.4-2.5s-2.6-1.7-3.9-2.6c-2.4-1.6-4.9-3.2-6.9-5.4-2.1-2.4-4.6-7.7,0-9.1s8.8,3.8,10.7,6.7c3,4.3,4.4,9.5,3.3,12.9h.1Z"/>
          <path class="st50" d="M599.3,151.8c.3.9.9,1.6,1.7,2.2.3.2.6.4,1,.5,2,.2,6.6-4.8,7.5-6.4s1.2-3.4-.6-4.7c-4.4-3.3-10.9,4-9.6,8.4h0Z"/>
        </g>
        <g>
          <path class="st50" d="M521.1,137.8c1.3-.6,2.3-1.7,3.4-2.5,1.1-.8,2.6-1.7,3.9-2.6,2.4-1.6,4.9-3.2,6.9-5.4,2.1-2.4,4.6-7.7,0-9.1-4.7-1.4-8.8,3.8-10.7,6.7-3,4.3-4.4,9.5-3.3,12.9h-.1Z"/>
          <path class="st50" d="M515.7,139.8c-1.3-.6-2.3-1.7-3.4-2.5s-2.6-1.7-3.9-2.6c-2.4-1.6-4.9-3.2-6.9-5.4-2.1-2.4-4.6-7.7.1-9.1,4.7-1.4,8.8,3.8,10.7,6.7,3,4.3,4.4,9.5,3.3,12.9h0Z"/>
          <path class="st50" d="M512.9,122.8c.3.9.9,1.6,1.7,2.2.3.2.6.4,1,.5,2,.2,6.6-4.8,7.5-6.4.9-1.6,1.2-3.4-.6-4.7-4.4-3.3-10.9,4-9.6,8.4h0Z"/>
        </g>
        <g>
          <path class="st50" d="M449.3,153.6c1.3-.6,2.3-1.7,3.4-2.5,1.1-.8,2.6-1.7,3.9-2.6,2.4-1.6,4.9-3.2,6.9-5.4,2.1-2.4,4.6-7.7-.1-9.1-4.7-1.4-8.8,3.8-10.7,6.7-3,4.3-4.4,9.5-3.3,12.9h0Z"/>
          <path class="st50" d="M443.8,155.6c-1.3-.6-2.3-1.7-3.4-2.5s-2.6-1.7-3.9-2.6c-2.4-1.6-4.9-3.2-6.9-5.4-2.1-2.4-4.6-7.7.1-9.1,4.7-1.4,8.8,3.8,10.7,6.7,3,4.3,4.4,9.5,3.3,12.9h0Z"/>
          <path class="st50" d="M441,138.6c.3.9.9,1.6,1.7,2.2.3.2.6.4,1,.5,2,.2,6.6-4.8,7.5-6.4s1.2-3.4-.6-4.7c-4.4-3.3-10.9,4-9.6,8.4Z"/>
        </g>
        <g>
          <path class="st50" d="M342.7,142.9c1.3-.6,2.3-1.7,3.4-2.5s2.6-1.7,3.9-2.6c2.4-1.6,4.9-3.2,6.9-5.4,2.1-2.4,4.6-7.7-.1-9.1s-8.8,3.8-10.7,6.7c-3,4.3-4.4,9.5-3.3,12.9h0Z"/>
          <path class="st50" d="M337.3,145c-1.3-.6-2.3-1.7-3.4-2.5s-2.6-1.7-3.9-2.6c-2.4-1.6-4.9-3.2-6.9-5.4-2.1-2.4-4.6-7.7.1-9.1s8.8,3.8,10.7,6.7c3,4.3,4.4,9.5,3.3,12.9h0Z"/>
          <path class="st50" d="M334.5,127.9c.3.9.9,1.6,1.7,2.2.3.2.6.4,1,.5,2,.2,6.6-4.8,7.5-6.4s1.2-3.4-.6-4.7c-4.4-3.3-10.9,4-9.6,8.4Z"/>
        </g>
        <g>
          <path class="st50" d="M229,111.4c1.3-.6,2.3-1.7,3.4-2.5s2.6-1.7,3.9-2.6c2.4-1.6,4.9-3.2,6.9-5.4,2.1-2.4,4.6-7.7-.1-9.1-4.7-1.4-8.8,3.8-10.7,6.7-3,4.3-4.4,9.5-3.3,12.9h0Z"/>
          <path class="st50" d="M223.6,113.5c-1.3-.6-2.3-1.7-3.4-2.5s-2.6-1.7-3.9-2.6c-2.4-1.6-4.9-3.2-6.9-5.4-2.1-2.4-4.6-7.7.1-9.1,4.7-1.4,8.8,3.8,10.7,6.7,3,4.3,4.4,9.5,3.3,12.9h0Z"/>
          <path class="st50" d="M220.8,96.4c.3.9.9,1.6,1.7,2.2.3.2.6.4,1,.5,2,.2,6.6-4.8,7.5-6.4s1.2-3.4-.6-4.7c-4.4-3.3-10.9,4-9.6,8.4h0Z"/>
        </g>
        <g>
          <path class="st50" d="M184.7,176.7c1.3-.6,2.3-1.7,3.4-2.5s2.6-1.7,3.9-2.6c2.4-1.6,4.9-3.2,6.9-5.4,2.1-2.4,4.6-7.7-.1-9.1-4.7-1.4-8.8,3.8-10.7,6.7-3,4.3-4.4,9.5-3.3,12.9h0Z"/>
          <path class="st50" d="M179.3,178.7c-1.3-.6-2.3-1.7-3.4-2.5-1.1-.8-2.6-1.7-3.9-2.6-2.4-1.6-4.9-3.2-6.9-5.4-2.1-2.4-4.6-7.7.1-9.1,4.7-1.4,8.8,3.8,10.7,6.7,3,4.3,4.4,9.5,3.3,12.9h0Z"/>
          <path class="st50" d="M176.5,161.6c.3.9.9,1.6,1.7,2.2.3.2.6.4,1,.5,2,.2,6.6-4.8,7.5-6.4s1.2-3.4-.6-4.7c-4.4-3.3-10.9,4-9.6,8.4h0Z"/>
        </g>
        <g>
          <path class="st50" d="M54.4,121.3c1.3-.6,2.3-1.7,3.4-2.5s2.6-1.7,3.9-2.6c2.4-1.6,4.9-3.2,6.9-5.4,2.1-2.4,4.6-7.7,0-9.1-4.7-1.4-8.8,3.8-10.7,6.7-3,4.3-4.4,9.5-3.3,12.9h-.1Z"/>
          <path class="st50" d="M49,123.3c-1.3-.6-2.3-1.7-3.4-2.5s-2.6-1.7-3.9-2.6c-2.4-1.6-4.9-3.2-6.9-5.4-2.1-2.4-4.6-7.7,0-9.1,4.7-1.4,8.8,3.8,10.7,6.7,3,4.3,4.4,9.5,3.3,12.9h.1Z"/>
          <path class="st50" d="M46.2,106.3c.3.9.9,1.6,1.7,2.2.3.2.6.4,1,.5,2,.2,6.6-4.8,7.5-6.4.9-1.6,1.2-3.4-.6-4.7-4.4-3.3-10.9,4-9.6,8.4Z"/>
        </g>
      </g>
      <rect class="st40" x=".6" y="411.7" width="1036.3" height="833.5"/>
    </g>
    <g>
      <rect class="st59" y="968.5" width="1035.5" height="525.1"/>
      <g class="st58">
        <g>
          <polygon class="st41" points="684.5 1310.2 684.5 2030.2 1210.8 2030.2 1210.8 1616.9 1034.9 1616.9 1034.9 1312.2 684.5 1310.2"/>
          <g>
            <rect class="st36" x="734.7" y="1670.2" width="89.5" height="32.1"/>
            <rect class="st44" x="744.6" y="1683.9" width="68" height="146.3"/>
            <path class="st36" d="M734.7,1829.9c14.3-2.5,28.7-2.9,43.2-2.8,14.5.2,28.9.8,43.2,3.1-21.5,3.2-43.2,3.7-64.8,2.7-7.2-.4-14.4-1.1-21.6-2.3v-.7h0Z"/>
            <path class="st36" d="M812.6,1757.4c-11.2,2.5-22.6,2.9-34,2.8-11.4-.2-22.7-.9-34-3.1,16.8-3.2,34-3.7,51-2.7,5.7.4,11.3,1,17,2.3v.7h0Z"/>
          </g>
          <g>
            <rect class="st36" x="734.7" y="1438.8" width="89.5" height="32.1"/>
            <rect class="st44" x="744.6" y="1452.5" width="68" height="146.3"/>
            <path class="st36" d="M734.7,1598.5c14.3-2.5,28.7-2.9,43.2-2.8,14.5.2,28.9.8,43.2,3.1-21.5,3.2-43.2,3.7-64.8,2.7-7.2-.4-14.4-1.1-21.6-2.3,0,0,0-.7,0-.7h0Z"/>
            <path class="st36" d="M812.6,1526.1c-11.2,2.5-22.6,2.9-34,2.8-11.4-.2-22.7-.9-34-3.1,16.8-3.2,34-3.7,51-2.7,5.7.4,11.3,1.1,17,2.3v.7h0Z"/>
          </g>
          <rect class="st36" x="878.3" y="1670.2" width="89.5" height="32.1"/>
          <rect class="st44" x="888.2" y="1683.9" width="68" height="146.3"/>
          <rect class="st44" x="888.2" y="1883.9" width="68" height="146.3"/>
          <rect class="st35" x="1080.5" y="1881.3" width="62.4" height="148.9"/>
          <rect class="st52" x="1088.3" y="1727.3" width="47.5" height="103"/>
          <path class="st36" d="M878.3,1829.9c14.3-2.5,28.7-2.9,43.2-2.8,14.5.2,28.9.8,43.2,3.1-21.5,3.2-43.2,3.7-64.8,2.7-7.2-.4-14.4-1.1-21.6-2.3v-.7h0Z"/>
          <path class="st36" d="M956.2,1757.4c-11.2,2.5-22.6,2.9-34,2.8-11.4-.2-22.7-.9-34-3.1,16.8-3.2,34-3.7,51-2.7,5.7.4,11.3,1,17,2.3v.7h0Z"/>
          <g>
            <rect class="st36" x="878.3" y="1438.8" width="89.5" height="32.1"/>
            <rect class="st44" x="888.2" y="1452.5" width="68" height="146.3"/>
            <path class="st36" d="M878.3,1598.5c14.3-2.5,28.7-2.9,43.2-2.8,14.5.2,28.9.8,43.2,3.1-21.5,3.2-43.2,3.7-64.8,2.7-7.2-.4-14.4-1.1-21.6-2.3v-.7h0Z"/>
            <path class="st36" d="M956.2,1526.1c-11.2,2.5-22.6,2.9-34,2.8-11.4-.2-22.7-.9-34-3.1,16.8-3.2,34-3.7,51-2.7,5.7.4,11.3,1.1,17,2.3v.7h0Z"/>
          </g>
          <path class="st44" d="M1031.4,1378.8c-50.1,2.2-101.6,2.7-151.8,2.8-64.9,0-130.3-.6-195.2-3.1,72-2.8,144.8-3.3,216.8-3.1,28,.1,58.6.6,86.7,1.3,14.5.4,28.9.8,43.4,1.5,0,0,0,.7,0,.7h0Z"/>
          <path class="st44" d="M1031.4,1397.4c-50.1,2.2-101.6,2.7-151.8,2.8-64.9,0-130.3-.6-195.2-3.1,72-2.8,144.8-3.3,216.8-3.1,28,.1,58.6.6,86.7,1.3,14.5.4,28.9.8,43.4,1.5v.7h0Z"/>
          <path class="st44" d="M762.1,2030.2v-111.5s-5.8-53.1-77.7-54.6v166.2h77.7Z"/>
          <rect class="st52" x="898.3" y="1895.4" width="46.8" height="28.8"/>
          <rect class="st52" x="1088.3" y="1888.7" width="47.5" height="29.8"/>
          <rect class="st52" x="1088.3" y="1930.1" width="47.5" height="65.1"/>
          <rect class="st35" x="1080.5" y="1830.3" width="62.4" height="3.7"/>
        </g>
        <g>
          <rect class="st47" x="244.4" y="1357" width="439.4" height="456.5"/>
          <g>
            <rect class="st36" x="416.9" y="1427.7" width="86.7" height="31"/>
            <rect class="st24" x="426.5" y="1441" width="65.9" height="141.7"/>
            <path class="st36" d="M416.9,1582.4c13.9-2.4,27.8-2.8,41.8-2.7,14,.2,27.9.8,41.8,3-20.8,3.1-41.8,3.6-62.7,2.6-7-.4-13.9-1-20.9-2.3,0,0,0-.7,0-.7h0Z"/>
            <path class="st36" d="M492.3,1512.2c-10.9,2.4-21.9,2.8-32.9,2.7-11-.2-22-.8-32.9-3,16.3-3.1,32.9-3.6,49.4-2.6,5.5.4,11,1,16.5,2.3v.7h0Z"/>
          </g>
          <g>
            <rect class="st36" x="281.5" y="1427.7" width="86.7" height="31"/>
            <rect class="st24" x="291" y="1441" width="65.9" height="141.7"/>
            <path class="st36" d="M281.5,1582.4c13.9-2.4,27.8-2.8,41.8-2.7,14,.2,27.9.8,41.8,3-20.8,3.1-41.8,3.6-62.7,2.6-7-.4-13.9-1-20.9-2.3,0,0,0-.7,0-.7h0Z"/>
            <path class="st36" d="M356.9,1512.2c-10.9,2.4-21.9,2.8-32.9,2.7-11-.2-22-.8-32.9-3,16.3-3.1,32.9-3.6,49.4-2.6,5.5.4,11,1,16.5,2.3v.7h0Z"/>
          </g>
          <g>
            <rect class="st36" x="547.9" y="1428.8" width="86.7" height="31"/>
            <rect class="st24" x="557.5" y="1442.1" width="65.9" height="141.7"/>
            <path class="st36" d="M547.9,1583.5c13.9-2.4,27.8-2.8,41.8-2.7,14,.2,27.9.8,41.8,3-20.8,3.1-41.8,3.6-62.7,2.6-7-.4-13.9-1-20.9-2.3v-.7h0Z"/>
            <path class="st36" d="M623.3,1513.3c-10.9,2.4-21.9,2.8-32.9,2.7-11-.2-22-.8-32.9-3,16.3-3.1,32.9-3.6,49.4-2.6,5.5.4,11,1,16.5,2.3v.7h0Z"/>
          </g>
        </g>
        <rect class="st43" x="-73.3" y="1328.4" width="317.7" height="213.7"/>
        <rect class="st7" x="148.6" y="1401.2" width="56.8" height="92.4"/>
        <rect class="st7" x="33.6" y="1401.2" width="56.8" height="92.4"/>
      </g>
    </g>
    <rect class="st49" x="1" y="916.2" width="681.1" height="52.3"/>
    <g>
      <g>
        <rect class="st43" x="710.1" y="238.4" width="325.2" height="666.8" transform="translate(1745.464 1143.5628) rotate(-180)"/>
        <g class="st27">
          <g class="st46">
            <path class="st24" d="M494.6,392h81.6c0,.1,65.1.2,65.1.2h83.7c0,.1,65.2.2,65.2.2h0s90.3.2,90.3.2h65.1c0,.1,81.6.2,81.6.2h65.1c0,.1,0,.1,0,.1h80c0,.1,65,.2,65,.2l86.4.2h64.8c0,.1,92.2.3,92.2.3,18.9-16.4,37.7-33,56.4-49.6l-87-.5-63.9-.4h0s-86.5-.6-86.5-.6l-64.1-.4-80.1-.5-64.3-.4-81.7-.5-64.2-.4-90.4-.6-64.3-.4-83.8-.5-64.2-.4-76.3-.5h-.1c-23.9,18-47.8,35.9-71.8,53.7Z"/>
            <path class="st24" d="M341.9,506.3l92,.2h66.3c0,.1,82.5.2,82.5.2h66.4c0,.1,89.1.3,89.1.3h66.3c0,.1,80.3.2,80.3.2h66.4c0,.1,78.8.3,78.8.3h66.2c0,.1,85.2.2,85.2.2h66.1c0,.1,96.4.3,96.4.3,19.5-16.7,39-33.5,58.9-49.7l-93.5-.6-65.2-.4-85.3-.5-65.3-.4-78.9-.5-65.5-.4h0s-80.4-.5-80.4-.5h0s-65.4-.4-65.4-.4l-89.1-.5h0s-65.5-.4-65.5-.4l-82.6-.5-65.4-.4-86.6-.5c-24,18-48.1,36-72.1,54Z"/>
            <path class="st24" d="M187.6,621.8l102.6.2h67.5c0,.1,81.2.2,81.2.2h0s67.7.1,67.7.1h87.8c0,.1,67.5.3,67.5.3h79.1c0,.1,67.6.2,67.6.2l228.9.4h0s67.3.1,67.3.1l99.7.2c8.3-7.5,16.7-14.9,25.3-22.1,4.4-3.7,8.6-7.9,13.2-11.3,7.2-5.3,14.3-10.7,21.4-16.2l-97.9-.6-66.4-.4-228.3-1.4-66.7-.4-79.3-.5-66.6-.4-87.9-.5-66.8-.4-81.4-.5-66.6-.4h0s-97.2-.6-97.2-.6h0c-13.4,10-26.7,20-40.1,30.1-10.6,8-21.3,15.9-31.9,23.9Z"/>
          </g>
        </g>
      </g>
      <polygon class="st9" points="667.6 396 667.6 905.2 1036.2 905.2 1036.2 612.9 913 612.9 913 397.4 667.6 396"/>
      <circle class="st41" cx="648.5" cy="749.9" r="49.3"/>
      <g>
        <g>
          <path class="st8" d="M624.6,767.3c-.9-2.1-.8-5.2-.8-7.8,0-3,0-5.9,0-8.9v-12.3c0-2.8-.7-8,1.1-9.8.6-.6,1.4-1,2.1-1.3,5.2-2.1,10.5-2.7,15.9-3,5.5-.4,11,.3,16.3,2.1,2.2.7,4.4,1.6,6.3,3.4,1.5,1.4,1.8,2.1,1.8,4.5,0,1.8,0,3.5,0,5.3v12.8c0,3.3,0,6.6,0,9.9,0,5-.9,7.2-4.6,8.2-8,2.1-16.3,2.7-24.4,1.7-3.8-.5-8.3-.7-11.9-2.6-.8-.4-1.4-1.2-1.8-2Z"/>
          <path class="st8" d="M670.4,741.9c.1,0,.2,0,.3,0,1.6-.2,3.1.9,3.9,2.3.8,1.4,1,3,1.1,4.6,0,1.5,0,3.1-.6,4.5s-2.1,2.5-3.6,2.4c-1,0-1.9-.7-2.8-1.1-3.5-1.4-4.4.8-2.4,3.6,1.9,2.6,4.5,4,7.1,3.7,2.6-.3,5.1-2.5,6.2-5.8.7-1.9.9-4,.8-6.1,0-4.5-1.3-9.4-4.2-11.5-.9-.6-1.8-1-2.8-1.1-3.1-.5-6.3,1.3-8.4,4.5-.5.7-.9,1.6-1,2.6-.2,2.4,1.7,2.8,2.7,1.3,1.1-1.6,1.5-3.5,3.5-3.9Z"/>
          <g class="st29">
            <rect class="st8" x="618.6" y="729.1" width="52.4" height="45.6"/>
          </g>
        </g>
        <g>
          <path class="st36" d="M624.6,767.3c-.9-2.1-.8-5.2-.8-7.8,0-3,0-5.9,0-8.9v-12.3c0-2.8-.7-8,1.1-9.8.6-.6,1.4-1,2.1-1.3,5.2-2.1,10.5-2.7,15.9-3,5.5-.4,11,.3,16.3,2.1,2.2.7,4.4,1.6,6.3,3.4,1.5,1.4,1.8,2.1,1.8,4.5,0,1.8,0,3.5,0,5.3v12.8c0,3.3,0,6.6,0,9.9,0,5-.9,7.2-4.6,8.2-8,2.1-16.3,2.7-24.4,1.7-3.8-.5-8.3-.7-11.9-2.6-.8-.4-1.4-1.2-1.8-2Z"/>
          <path class="st36" d="M670.4,741.9c.1,0,.2,0,.3,0,1.6-.2,3.1.9,3.9,2.3.8,1.4,1,3,1.1,4.6,0,1.5,0,3.1-.6,4.5s-2.1,2.5-3.6,2.4c-1,0-1.9-.7-2.8-1.1-3.5-1.4-4.4.8-2.4,3.6,1.9,2.6,4.5,4,7.1,3.7,2.6-.3,5.1-2.5,6.2-5.8.7-1.9.9-4,.8-6.1,0-4.5-1.3-9.4-4.2-11.5-.9-.6-1.8-1-2.8-1.1-3.1-.5-6.3,1.3-8.4,4.5-.5.7-.9,1.6-1,2.6-.2,2.4,1.7,2.8,2.7,1.3,1.1-1.6,1.5-3.5,3.5-3.9Z"/>
          <g>
            <path class="st19" d="M660.5,733.9s0,0,0,0c-1,0-2-.1-2.9,0s-2.1,0-3.1,0c-2.8,0-5.6,0-8.3,0-3.2,0-6.3,0-9.5,0-2.1,0-4.3,0-6.4,0-1.1,0-2.8,0-3.1-1.7,0-.3,0-.6,0-.9,0-.9.3-1.9.8-2.3.8-.6,1.6-.9,2.5-1.2s1.7-.6,2.6-.7c2.4-.4,4.7-.8,7.1-1,4.7-.5,9.5-.5,14.2.4,2.2.4,4.6.7,6.6,2,1.1.7,3,2,2.4,4s-.1.4-.2.6c0,.1-.2.2-.3.3-.6.6-1.5.6-2.2.7Z"/>
            <g class="st28">
              <rect class="st37" x="618.6" y="729.1" width="52.4" height="45.6"/>
            </g>
          </g>
        </g>
      </g>
      <g>
        <rect class="st21" x="790.7" y="132.4" width="13.3" height="105.4" transform="translate(1594.7814 370.2168) rotate(-180)"/>
        <rect class="st21" x="947.3" y="132.4" width="13.3" height="105.4" transform="translate(1907.8034 370.2168) rotate(-180)"/>
        <g>
          <rect class="st36" x="765.6" y="30.2" width="214.2" height="147.1" transform="translate(1745.464 207.4892) rotate(-180)"/>
          <g class="st33">
            <g>
              <path class="st51" d="M978.6,179.2c-27,19.5-64.5,31.6-105.8,31.6v-107l105.8,75.5Z"/>
              <path class="st55" d="M1022,103.7c0,29.4-16.6,56.1-43.4,75.5l-105.8-75.5h0s149.3,0,149.3,0Z"/>
              <path class="st35" d="M1022,103.7h-149.3s105.2-75.9,105.2-75.9c27.2,19.4,44,46.2,44,75.9Z"/>
              <path class="st7" d="M978,27.8l-105.2,75.9V-3.3c41.1,0,78.2,11.9,105.2,31.1Z"/>
              <path class="st54" d="M872.7-3.3v107h0l-105.8-75.5c27-19.5,64.5-31.6,105.9-31.6Z"/>
              <path class="st37" d="M872.7,103.7h-149.3c0-29.4,16.6-56.1,43.4-75.5l105.8,75.5Z"/>
              <path class="st23" d="M872.7,103.7l-105.2,75.9c-27.2-19.4-44-46.2-44-75.9h149.3Z"/>
              <path class="st8" d="M872.7,103.7v107c-41.1,0-78.2-11.9-105.2-31.1l105.2-75.9h0Z"/>
              <line class="st0" x1="767.5" y1="179.6" x2="767.5" y2="179.7"/>
              <line class="st0" x1="978.6" y1="179.2" x2="978.6" y2="179.2"/>
            </g>
          </g>
        </g>
      </g>
      <rect class="st47" x="914.5" y="612.9" width="121.7" height="292.3"/>
      <g>
        <rect class="st36" x="703.2" y="486.9" width="63.3" height="22.7"/>
        <rect class="st44" x="710.1" y="496.6" width="48.1" height="103.5"/>
        <path class="st36" d="M703.2,599.9c10.1-1.7,20.3-2,30.5-2,10.2.1,20.4.6,30.5,2.2-15.2,2.3-30.5,2.6-45.8,1.9-5.1-.3-10.2-.7-15.3-1.7,0,0,0-.5,0-.5h0Z"/>
        <path class="st36" d="M758.2,548.6c-8,1.7-16,2-24,2-8.1-.1-16.1-.6-24-2.2,11.9-2.3,24-2.6,36.1-1.9,4,.3,8,.7,12,1.7,0,0,0,.5,0,.5h0Z"/>
      </g>
      <g>
        <rect class="st36" x="703.2" y="649.3" width="63.3" height="22.7"/>
        <rect class="st44" x="710.1" y="659" width="48.1" height="103.5"/>
        <path class="st36" d="M703.2,762.2c10.1-1.7,20.3-2,30.5-2,10.2.1,20.4.6,30.5,2.2-15.2,2.3-30.5,2.6-45.8,1.9-5.1-.3-10.2-.7-15.3-1.7v-.5h0Z"/>
        <path class="st36" d="M758.2,711c-8,1.7-16,2-24,2-8.1-.1-16.1-.6-24-2.2,11.9-2.3,24-2.6,36.1-1.9,4,.3,8,.7,12,1.7v.5h0Z"/>
      </g>
      <rect class="st36" x="804.7" y="650.6" width="63.3" height="22.7"/>
      <rect class="st44" x="811.7" y="660.3" width="48.1" height="103.5"/>
      <rect class="st44" x="811.7" y="801.7" width="48.1" height="103.5"/>
      <rect class="st17" x="950" y="671.1" width="40.1" height="87.1"/>
      <path class="st36" d="M804.7,763.5c10.1-1.7,20.3-2,30.5-2,10.2.1,20.4.6,30.5,2.2-15.2,2.3-30.5,2.6-45.8,1.9-5.1-.3-10.2-.7-15.3-1.7,0,0,0-.5,0-.5h0Z"/>
      <path class="st36" d="M859.8,712.3c-8,1.7-16,2-24,2-8.1-.1-16.1-.6-24-2.2,11.9-2.3,24-2.6,36.1-1.9,4,.3,8,.7,12,1.7,0,0,0,.5,0,.5h0Z"/>
      <g>
        <rect class="st36" x="804.7" y="486.9" width="63.3" height="22.7"/>
        <rect class="st44" x="811.7" y="496.6" width="48.1" height="103.5"/>
        <path class="st36" d="M804.7,599.9c10.1-1.7,20.3-2,30.5-2,10.2.1,20.4.6,30.5,2.2-15.2,2.3-30.5,2.6-45.8,1.9-5.1-.3-10.2-.7-15.3-1.7v-.5h0Z"/>
        <path class="st36" d="M859.8,548.6c-8,1.7-16,2-24,2-8.1-.1-16.1-.6-24-2.2,11.9-2.3,24-2.6,36.1-1.9,4,.3,8,.7,12,1.7,0,0,0,.5,0,.5h0Z"/>
      </g>
      <path class="st44" d="M913,444.5c-5.1,2-10.2,2-15.3,2l-15.3.2c-47.8.2-105.7-.3-153.4-.6-20.5-.4-40.9,0-61.3-1.9,20.4-1.9,40.9-1.5,61.3-1.9,47.6-.2,105.6-.8,153.4-.6,0,0,15.3.2,15.3.2,5.1,0,10.2,0,15.3,2v.5h0Z"/>
      <path class="st44" d="M913,457.6c-5.1,2-10.2,2-15.3,2l-15.3.2c-47.8.2-105.7-.3-153.4-.6-20.5-.4-40.9,0-61.3-1.9,20.4-1.9,40.9-1.5,61.3-1.9,47.6-.2,105.6-.8,153.4-.6,0,0,15.3.2,15.3.2,5.1,0,10.2,0,15.3,2v.5h0Z"/>
      <path class="st44" d="M722.5,905.2v-78.9s-4.1-37.5-54.9-38.6v117.5h54.9Z"/>
      <rect class="st52" x="818.8" y="809.8" width="33.1" height="20.4"/>
      <rect class="st35" x="943.4" y="758.2" width="52.8" height="3.1"/>
      <g>
        <rect class="st45" x="945.4" y="787.7" width="49.6" height="118.4"/>
        <g class="st31">
          <g>
            <rect class="st8" x="945.4" y="889.6" width="43.8" height="9.3"/>
            <rect class="st8" x="949.6" y="880.3" width="39.5" height="9.3"/>
            <rect class="st8" x="953.9" y="871" width="35.3" height="9.3"/>
            <rect class="st8" x="958.1" y="862.1" width="31.1" height="9.3"/>
            <rect class="st8" x="962.4" y="853.1" width="26.8" height="9.3"/>
            <rect class="st8" x="966.6" y="844.2" width="26.8" height="9.3"/>
            <rect class="st8" x="970.9" y="835.3" width="26.8" height="9.3"/>
            <rect class="st8" x="975.1" y="826.4" width="26.8" height="9.3"/>
            <rect class="st8" x="979.3" y="817.4" width="26.8" height="9.3"/>
            <rect class="st8" x="983.6" y="810.3" width="26.8" height="9.3"/>
          </g>
          <line class="st2" x1="929.2" y1="878.2" x2="974.4" y2="802"/>
        </g>
      </g>
      <path class="st35" d="M945.2,787.7v118.4h49.6v-118.4h-49.6ZM989.1,878.2h-37.7v-51.8h37.7v51.8ZM989.1,817.3h-37.7v-23.7h37.7v23.7Z"/>
      <rect class="st49" x="659.8" y="906.7" width="377.2" height="61.8"/>
    </g>
    <g>
      <rect class="st36" x="-.6" y="1031.1" width="150.6" height="14.4"/>
      <rect class="st36" x="220.7" y="1031.1" width="150.6" height="14.4"/>
      <rect class="st36" x="442.1" y="1031.1" width="150.6" height="14.4"/>
      <rect class="st36" x="663.4" y="1031.1" width="150.6" height="14.4"/>
      <rect class="st36" x="884.7" y="1031.1" width="150.6" height="14.4"/>
    </g>
    <g>
      <rect class="st36" y="1270.7" width="150.3" height="14.4"/>
      <rect class="st36" x="220.9" y="1270.7" width="150.3" height="14.4"/>
      <rect class="st36" x="441.8" y="1270.7" width="150.3" height="14.4"/>
      <rect class="st36" x="662.7" y="1270.7" width="150.3" height="14.4"/>
      <rect class="st36" x="883.6" y="1270.7" width="150.3" height="14.4"/>
    </g>
    <g>
      <polygon class="st22" points="395.8 0 530.7 128.3 530.7 598.9 431.9 595.9 395.8 0"/>
      <polygon class="st8" points="274.1 128.8 395.8 0 474.1 128.8 274.1 128.8"/>
      <g>
        <rect class="st57" x="274.1" y="128.8" width="201.2" height="502.2" transform="translate(749.4 759.8) rotate(-180)"/>
        <g class="st30">
          <g class="st46">
            <path class="st56" d="M439.9,31.9v77.2c-.1,0-.2,61.6-.2,61.6v79.2c-.1,0-.2,61.7-.2,61.7h0s-.1,85.5-.1,85.5v61.6c0,0-.2,77.2-.2,77.2v61.6c0,0,0,0,0,0v75.7c-.1,0-.2,61.5-.2,61.5v81.7c-.1,0-.2,61.3-.2,61.3v87.2c11.9,17.9,24.1,35.6,36.3,53.4l.4-82.3.3-60.5h0s.4-81.9.4-81.9l.3-60.7.4-75.8.3-60.8.4-77.3.3-60.8.4-85.5.3-60.8.4-79.3.3-60.7.3-72.1h0c-13.2-22.7-26.3-45.4-39.4-68Z"/>
            <path class="st56" d="M356.1-112.6V-25.5c-.1,0-.2,62.7-.2,62.7v78.1c-.1,0-.2,62.9-.2,62.9v84.3c-.1,0-.2,62.7-.2,62.7v76c-.1,0-.2,62.8-.2,62.8v74.5c-.1,0-.2,62.6-.2,62.6v80.6c-.1,0-.2,62.5-.2,62.5v91.2c12.1,18.5,24.4,36.9,36.3,55.8l.4-88.5.3-61.6.4-80.7.3-61.8.4-74.6.3-61.9h0s.4-76.1.4-76.1h0s.3-61.9.3-61.9l.4-84.3h0s.3-62,.3-62l.4-78.2.3-61.8.4-82c-13.2-22.7-26.4-45.5-39.6-68.2Z"/>
            <path class="st56" d="M271.3-258.6v97.1c-.1,0-.2,63.9-.2,63.9V-20.7c-.1,0-.1,0-.1,0V43.3c-.1,0-.2,83.1-.2,83.1v63.9c-.1,0-.2,74.9-.2,74.9v64c0,0-.4,216.6-.4,216.6h0s0,63.7,0,63.7v94.3c5.4,7.9,10.8,15.8,16.1,23.9,2.7,4.2,5.8,8.1,8.3,12.5,3.9,6.8,7.8,13.6,11.9,20.3l.4-92.6.3-62.8,1-215.9.3-63.1.4-75,.3-63,.4-83.2.3-63.2.4-77,.3-63h0s.4-91.9.4-91.9h0c-7.4-12.7-14.7-25.3-22.1-38-5.9-10-11.7-20.1-17.5-30.2Z"/>
          </g>
        </g>
      </g>
      <rect class="st20" x="230.6" y="342.7" width="192.2" height="836.9" transform="translate(653.3719 1522.3378) rotate(-180)"/>
      <g>
        <rect class="st52" x="1" y="342.1" width="229.4" height="837.6" transform="translate(231.3759 1521.7043) rotate(-180)"/>
        <g class="st32">
          <g class="st46">
            <path class="st38" d="M-151.1,535.1l57.6.2h45.9c0,.1,59.1.3,59.1.3h46c0,.1,0,.1,0,.1l63.7.2h45.9c0,.1,57.6.3,57.6.3h46c0,.1,0,.1,0,.1l56.4.2h45.9c0,.1,61,.3,61,.3h45.7c0,.1,65,.4,65,.4,13.4-20.6,26.6-41.4,39.8-62.3l-61.4-.7-45.1-.5h0s-61-.7-61-.7l-45.2-.5-56.5-.6-45.4-.5-57.6-.6-45.3-.5-63.7-.7-45.4-.5-59.1-.7-45.3-.5-53.8-.6h0c-16.9,22.6-33.8,45.1-50.6,67.5Z"/>
            <path class="st38" d="M-258.8,678.6l64.9.2h46.8c0,.1,58.2.3,58.2.3l46.9.2,62.8.2h46.8c0,.1,56.7.3,56.7.3l46.9.2,55.6.2h46.7c0,.1,60.1.3,60.1.3h46.6c0,.1,68,.4,68,.4,13.8-21,27.5-42,41.6-62.4l-66-.7-46-.5-60.2-.7-46.1-.5-55.7-.6-46.2-.5h0s-56.8-.6-56.8-.6h0s-46.1-.5-46.1-.5l-62.9-.7h0s-46.2-.5-46.2-.5l-58.3-.6-46.1-.5-61.1-.7c-17,22.6-33.9,45.2-50.9,67.8Z"/>
            <path class="st38" d="M-367.7,823.7l72.4.2h47.6c0,.1,57.3.3,57.3.3h0s47.8.2,47.8.2l62,.2,47.6.2,55.8.2h47.7c0,.1,161.5.7,161.5.7h0s47.5.1,47.5.1l70.4.2c5.9-9.4,11.8-18.7,17.8-27.8,3.1-4.7,6-9.9,9.3-14.2,5.1-6.7,10.1-13.4,15.1-20.3l-69.1-.7-46.9-.5-161-1.7-47.1-.5-55.9-.6-47-.5-62-.7-47.1-.5-57.4-.6-47-.5h0s-68.5-.7-68.5-.7h0c-9.4,12.6-18.9,25.2-28.3,37.8-7.5,10-15,20-22.5,30Z"/>
          </g>
        </g>
      </g>
      <polygon class="st37" points="493.3 449.3 626.6 449.3 626.6 623.5 766.5 623.5 766.5 793.3 860.7 793.3 860.7 1179.7 757.2 1179.7 356.4 767.3 356.4 449.3 493.3 449.3"/>
      <polygon class="st41" points="756.2 984.4 756.2 793.3 621.3 793.3 621.3 623.5 489.9 623.5 489.9 449.3 352.5 449.3 352.5 1179.7 756.2 1179.7 756.2 984.4"/>
      <line class="st5" x1="256.4" y1="341.8" x2="256.4" y2="1180.5"/>
      <line class="st5" x1="284.3" y1="341.8" x2="284.3" y2="1180.5"/>
      <line class="st5" x1="312.1" y1="341.8" x2="312.1" y2="1180.5"/>
      <line class="st5" x1="339.9" y1="341.8" x2="339.9" y2="1180.5"/>
      <line class="st5" x1="370" y1="341.8" x2="370" y2="449.3"/>
      <line class="st5" x1="397" y1="341.8" x2="397" y2="449.3"/>
      <rect class="st43" x="475.5" y="954.8" width="397.2" height="72.9"/>
      <rect class="st44" x="488.9" y="1027.7" width="21" height="152.1"/>
      <rect class="st44" x="575.5" y="1027.7" width="21" height="152.1"/>
      <rect class="st44" x="660.5" y="1027.7" width="21" height="152.1"/>
      <rect class="st41" x="731" y="1027.7" width="141.7" height="152"/>
      <rect class="st11" x="688.7" y="1058.3" width="56.4" height="91.8"/>
      <rect class="st10" x="772.3" y="1058.3" width="66.2" height="121.5"/>
      <rect class="st37" x="782.1" y="1075.3" width="45.5" height="22.3"/>
      <rect class="st12" x="516.5" y="1057.3" width="52.1" height="92.8"/>
      <rect class="st16" x="601.4" y="1057.3" width="52.9" height="92.8"/>
      <rect class="st44" x="665.6" y="764.5" width="16.7" height="397.4" transform="translate(-289.1672 1637.2122) rotate(-90)"/>
      <g>
        <rect class="st56" x="654.3" y="844.9" width="52.7" height="90.2"/>
        <path class="st36" d="M707,890.2c-8.7,1.9-17.5,2.2-26.3,2.2-8.8-.2-17.6-.7-26.3-2.4,13-2.5,26.3-2.9,39.5-2.1,4.4.3,8.8.8,13.2,1.8v.5h0Z"/>
        <rect class="st36" x="650.9" y="928.8" width="60.3" height="8.5"/>
        <path class="st36" d="M693.1,835.9c-.8,3.3-2.2,6.5-4.5,9h-16.2c-2.1-3.2-4.2-7.5-3.8-11.4.4-3.7,3.6-7.7,7.5-4.6-.2-4.1,3.2-11.1,7.8-6.3,1.6,1.7,2.1,4.2,2.5,6.5.9-2.3,4.6-2.1,6-.1,1.5,2,1.2,4.7.7,7.1Z"/>
      </g>
      <g>
        <rect class="st56" x="519.8" y="844.9" width="52.7" height="90.2"/>
        <path class="st36" d="M572.5,890.2c-8.7,1.9-17.5,2.2-26.3,2.2-8.8-.2-17.6-.7-26.3-2.4,13-2.5,26.3-2.9,39.5-2.1,4.4.3,8.8.8,13.2,1.8v.5h0Z"/>
        <rect class="st36" x="516.5" y="928.8" width="60.3" height="8.5"/>
        <path class="st36" d="M558.7,835.9c-.8,3.3-2.2,6.5-4.5,9h-16.2c-2.1-3.2-4.2-7.5-3.8-11.4.4-3.7,3.6-7.7,7.5-4.6-.2-4.1,3.2-11.1,7.8-6.3,1.6,1.7,2.1,4.2,2.5,6.5.9-2.3,4.6-2.1,6-.1,1.5,2,1.2,4.7.7,7.1Z"/>
      </g>
      <g>
        <rect class="st56" x="519.8" y="677" width="52.7" height="90.2"/>
        <path class="st36" d="M572.5,722.4c-8.7,1.9-17.5,2.2-26.3,2.2-8.8-.2-17.6-.7-26.3-2.4,13-2.5,26.3-2.9,39.5-2.1,4.4.3,8.8.8,13.2,1.8v.5h0Z"/>
        <rect class="st36" x="516.5" y="761" width="60.3" height="8.5"/>
        <path class="st36" d="M558.7,668.1c-.8,3.3-2.2,6.5-4.5,9h-16.2c-2.1-3.2-4.2-7.5-3.8-11.4.4-3.7,3.6-7.7,7.5-4.6-.2-4.1,3.2-11.1,7.8-6.3,1.6,1.7,2.1,4.2,2.5,6.5.9-2.3,4.6-2.1,6-.1,1.5,2,1.2,4.7.7,7.1Z"/>
      </g>
      <g>
        <rect class="st56" x="389.8" y="677" width="52.7" height="90.2"/>
        <path class="st36" d="M442.4,722.4c-8.7,1.9-17.5,2.2-26.3,2.2-8.8-.2-17.6-.7-26.3-2.4,13-2.5,26.3-2.9,39.5-2.1,4.4.3,8.8.8,13.2,1.8v.5h0Z"/>
        <rect class="st36" x="386.4" y="761" width="60.3" height="8.5"/>
        <path class="st36" d="M428.6,668.1c-.8,3.3-2.2,6.5-4.5,9h-16.2c-2.1-3.2-4.2-7.5-3.8-11.4.4-3.7,3.6-7.7,7.5-4.6-.2-4.1,3.2-11.1,7.8-6.3,1.6,1.7,2.1,4.2,2.5,6.5.9-2.3,4.6-2.1,6-.1,1.5,2,1.2,4.7.7,7.1Z"/>
      </g>
      <g>
        <rect class="st56" x="389.8" y="502.2" width="52.7" height="90.2"/>
        <path class="st36" d="M442.4,547.6c-8.7,1.9-17.5,2.2-26.3,2.2-8.8-.2-17.6-.7-26.3-2.4,13-2.5,26.3-2.9,39.5-2.1,4.4.3,8.8.8,13.2,1.8v.5h0Z"/>
        <rect class="st36" x="386.4" y="586.2" width="60.3" height="8.5"/>
        <path class="st36" d="M428.6,493.3c-.8,3.3-2.2,6.5-4.5,9h-16.2c-2.1-3.2-4.2-7.5-3.8-11.4.4-3.7,3.6-7.7,7.5-4.6-.2-4.1,3.2-11.1,7.8-6.3,1.6,1.7,2.1,4.2,2.5,6.5.9-2.3,4.6-2.1,6-.1,1.5,2,1.2,4.7.7,7.1Z"/>
      </g>
      <g>
        <rect class="st56" x="389.8" y="844.9" width="52.7" height="90.2"/>
        <path class="st36" d="M442.4,890.2c-8.7,1.9-17.5,2.2-26.3,2.2-8.8-.2-17.6-.7-26.3-2.4,13-2.5,26.3-2.9,39.5-2.1,4.4.3,8.8.8,13.2,1.8v.5h0Z"/>
        <rect class="st36" x="386.4" y="928.8" width="60.3" height="8.5"/>
        <path class="st36" d="M428.6,835.9c-.8,3.3-2.2,6.5-4.5,9h-16.2c-2.1-3.2-4.2-7.5-3.8-11.4.4-3.7,3.6-7.7,7.5-4.6-.2-4.1,3.2-11.1,7.8-6.3,1.6,1.7,2.1,4.2,2.5,6.5.9-2.3,4.6-2.1,6-.1,1.5,2,1.2,4.7.7,7.1Z"/>
      </g>
      <rect class="st35" x="1" y="814.5" width="351.5" height="365.2"/>
      <path class="st55" d="M157.6,1040.6h17.3c17.3,0,31.3,14,31.3,31.3v107.9h-76v-111.8c0-15.1,12.3-27.4,27.4-27.4Z"/>
      <g>
        <path class="st55" d="M58.1,1040.6h17.3c17.3,0,31.3,14,31.3,31.3v107.9H30.7v-111.8c0-15.1,12.3-27.4,27.4-27.4Z"/>
        <g class="st26">
          <g>
            <g>
              <rect class="st53" x="30.7" y="1036.4" width="81.3" height="147.5"/>
              <g class="st25">
                <g>
                  <rect class="st8" x="38.7" y="1172.9" width="76.2" height="12.8"/>
                  <rect class="st8" x="46.1" y="1160.1" width="68.8" height="12.8"/>
                  <rect class="st8" x="53.5" y="1147.4" width="61.4" height="12.8"/>
                  <rect class="st8" x="60.9" y="1135.1" width="54" height="12.8"/>
                  <rect class="st8" x="68.3" y="1122.8" width="46.6" height="12.8"/>
                  <rect class="st8" x="75.6" y="1110.5" width="46.6" height="12.8"/>
                  <rect class="st8" x="83" y="1098.2" width="46.6" height="12.8"/>
                  <rect class="st8" x="90.4" y="1085.9" width="46.6" height="12.8"/>
                  <rect class="st8" x="97.8" y="1073.6" width="46.6" height="12.8"/>
                  <rect class="st8" x="105.2" y="1063.8" width="46.6" height="12.8"/>
                </g>
              </g>
            </g>
            <line class="st6" x1="112.1" y1="1076.1" x2="30.7" y2="1076.1"/>
          </g>
        </g>
      </g>
      <g>
        <rect class="st8" x="139" y="871.1" width="69.4" height="24.8"/>
        <rect class="st24" x="146.6" y="881.7" width="52.7" height="113.4"/>
        <line class="st3" x1="139" y1="995.1" x2="205.9" y2="995.1"/>
        <path class="st36" d="M199.3,938.7c-8.7,1.9-17.5,2.2-26.3,2.2-8.8-.2-17.6-.7-26.3-2.4,13-2.5,26.3-2.9,39.5-2.1,4.4.3,8.8.8,13.2,1.8,0,0,0,.5,0,.5h0Z"/>
      </g>
      <g>
        <rect class="st8" x="30.6" y="871.1" width="69.4" height="24.8"/>
        <rect class="st24" x="38.3" y="881.7" width="52.7" height="113.4"/>
        <path class="st8" d="M30.6,995c22.3-1.8,44.7-1.5,66.9.1-16.7,1.3-33.5,1.5-50.2,1.1-5.6-.2-11.2-.4-16.7-1v-.3h0Z"/>
        <path class="st36" d="M91,938.7c-8.7,1.9-17.5,2.2-26.3,2.2-8.8-.2-17.6-.7-26.3-2.4,13-2.5,26.3-2.9,39.5-2.1,4.4.3,8.8.8,13.2,1.8v.5h0Z"/>
      </g>
      <path class="st55" d="M262.4,1041.4h17.3c17.3,0,31.3,14,31.3,31.3v107.9h-76v-111.8c0-15.1,12.3-27.4,27.4-27.4Z"/>
      <g>
        <rect class="st8" x="243.8" y="871.9" width="69.4" height="24.8"/>
        <rect class="st24" x="251.4" y="882.6" width="52.7" height="113.4"/>
        <path class="st8" d="M243.8,995.8c22.3-1.8,44.7-1.5,66.9.1-16.7,1.3-33.5,1.5-50.2,1.1-5.6-.2-11.2-.4-16.7-1v-.3h0Z"/>
        <path class="st36" d="M304.1,939.5c-8.7,1.9-17.5,2.2-26.3,2.2-8.8-.2-17.6-.7-26.3-2.4,13-2.5,26.3-2.9,39.5-2.1,4.4.3,8.8.8,13.2,1.8,0,0,0,.5,0,.5h0Z"/>
      </g>
      <rect class="st22" x="496.7" y="128.6" width="16.4" height="320.7"/>
      <path class="st54" d="M211.6,536.2c0-.9-.2-1.8-.3-2.7-.4-2.9-1.3-5.7-2-8.6-2.7-11.7-7.9-21.8-13.2-32.4-2.9-5.9-12.8-20.2-13.9-21.7-6.1-9.1-12.9-17.7-20.3-25.8-7.4-8.1-15.5-15.6-24.1-22.4-4.3-3.4-8.7-6.6-13.2-9.7-4.8-3.2-9.7-6.2-14.5-9.2-8.3-5.2-16.9-9.5-25.9-13.3-.5-.2-1-.4-1.4-.6-3.9-1.6-7.9-2.6-12-3.6-3.2-.9-6.6-1.4-9.9-1.8-7.6-.9-16.5-.7-23,3.9-3.4,2.5-6.1,6.1-7.5,10.1-.7,1.8-1.4,3.7-1.7,5.6-.3,1.6-.3,3.2-.3,4.8s0,3.1,0,4.7c0,1.7.4,3.3.8,5,.4,1.8.8,3.7,1.3,5.5.8,2.6,1.6,5.1,2.5,7.6.4,1.2.8,2.5,1.3,3.6,1.8,4.2,3.8,8.5,5.9,12.5.4.8.8,1.6,1.2,2.4s.9,1.7,1.5,2.3c0,0,.1,0,.2.1.2,0,.4,0,.5,0,.5-.3.3-1,.2-1.4s-.3-1.1-.5-1.7c-.3-.8-.7-1.6-1-2.4-1.9-4.4-4.2-8.8-5.5-13.4-1.1-3.7-2.4-7.4-3.1-11.2-.6-3.3-.7-6.5-.7-9.8,0-1.7,0-3.4.2-5.1.3-3.4,1.2-6.8,3.5-9.4,2-2.3,4.3-3.9,6.9-5.3,1.5-.8,3.5-1.2,5.3-1.5s3.7-.4,5.5-.5c4.5-.3,8.9.7,13.2,1.8,1.6.4,3.2,1,4.8,1.5,2,.7,3.9,1.4,5.9,2.1,1.8.6,4.7,2.1,6.4,3,6.1,3.1,11.9,6.8,17.6,10.4,6.3,4,12.5,8.5,18.4,13.1,2.8,2.2,5.3,4.3,8.1,6.4,2.6,1.9,5.1,4.2,7.5,6.5,11.3,10.8,21.7,21.9,31.4,34,1,1.2,5.4,7.4,6.8,9.4,3.7,5.3,7.3,10.9,9.9,16.9,4.3,10.1,9,20.9,9.3,32.1.2,6.4-.8,16.7-7.8,19.6-1.7.7-3.6.7-5.4.6-11.7-.5-23-5.1-32.5-11,0,0,0,0,0,0-6.5-4.1-13.1-8.4-18.7-13.6-.7-.6-1.8-1.9-.8-2.8s2-.6,2.9-.8c1.7-.5,3.6-1.1,4.3-2.7.5-1.2.3-2.6-.4-3.6-.7-1.1-1.7-1.9-2.8-2.6-2.2-1.5-16.6-8.5-17-8.7-1-.6-1-.6-2.2-1.1-.4-.2-2.7-1.5-3-1.7-1.3-1-.9-2.5-1-3.9,0-2.1.2-4.3.4-6.4.3-4.2.6-8.4.7-12.5,0-1.6,0-3.3,0-4.9,0-1.3-.2-2.5-1.1-3.6-1.5-1.6-3.8-1.6-5.6-.4-1.6,1.1-2.8,2.8-4.2,4.1-3.2,3.1-6.2,6.4-9.4,9.5-1.6,1.6-3.3,3-4.9,4.6-1.4,1.4-2.2.8-3.9.3-.9-.3-1.4-.4-2.3-.8-6.2-2.4-12.3-5.5-18.6-7.5-1.8-.6-2.5-1.2-4.5-.6-3.2.9-3.3,5-2.2,7.5.6,1.3,1.2,2.5,1.9,3.7,1.9,3.2,6.5,12.8,7.2,14.2,1.1,2.1,2.9,4.4,1.2,6.5-2.8,3.5-5.5,7-8.2,10.5-1.4,1.8-2.8,3.6-4.2,5.4-1.3,1.7-2.6,3.1-3.5,5-.4.8-.7,1.7-.6,2.5.2,1.2,1.1,2.2,2.3,2.5.3,0,.7,0,1,0,1.5,0,7.8-.6,9.4-.8,2.8-.3,13.5-1.9,16.2-1.9.9,0,1.9.3,2.7.6,1.4.6,2.5,2.6,3.2,3.8.8,1.4,4.5,6.8,5.4,8.2s2.7,3.8,4,5.7,2.3,3.3,3.9,4.4c.5.3.9.6,1.5.7,1,.3,2.1,0,2.9-.5.9-.7,1.2-1.5,1.5-2.5,1-3.1,1.3-6.5,2.1-9.6.2-.8.6-1.8,1.5-1.7.3,0,.6.2.8.4,10.1,6.8,20.8,12.7,31.8,17.9,11.1,5.3,23,10.2,35.3,12.1,13,2,28.4-1.9,35-14.4.2-.3.3-.7.5-1,3.1-6.3,4-13.5,3.4-20.4Z"/>
      <polygon class="st15" points="536.9 623.2 612 595.9 660.5 595.9 591.9 623.2 536.9 623.2"/>
      <polygon class="st18" points="660.5 595.9 660.5 623.2 591.9 623.2 660.5 595.9"/>
      <rect class="st35" x="10" y="767.2" width="110.6" height="47.3"/>
      <path class="st8" d="M120.6,767.2s-24.1,20.5-55.3,19.1c0,0-37.7,2.2-55.3-19.1h110.6Z"/>
      <polyline class="st4" points="858.5 793.3 858.5 746.4 742.9 746.4 742.9 792.3"/>
      <rect class="st13" x="698" y="683.5" width="44.1" height="62.5"/>
      <rect class="st48" x="638.4" y="677" width="49.2" height="116.3"/>
      <rect class="st14" x="645.7" y="687" width="33.7" height="51.1"/>
      <line class="st1" x1="742.6" y1="769.5" x2="858.5" y2="769.5"/>
    </g>
  </g>
  <rect class="st49" x=".6" y="1175.8" width="1034.7" height="61.8"/>
  <rect class="st42" x="900" y="428.9" width="12.9" height="11" transform="translate(1813.0252 868.8511) rotate(-180)"/>
  <rect class="st48" x="900" y="402.6" width="12.9" height="11" transform="translate(1813.0252 816.2501) rotate(-180)"/>
  <rect class="st54" x="880.6" y="415.5" width="32.4" height="11"/>
</svg>