<?xml version="1.0" encoding="UTF-8"?>
<svg id="Layer_1" xmlns="http://www.w3.org/2000/svg" xmlns:xlink="http://www.w3.org/1999/xlink" version="1.1" viewBox="0 0 1036.3 1245.3">
  <!-- Generator: Adobe Illustrator 30.4.0, SVG Export Plug-In . SVG Version: 2.1.4 Build 226)  -->
  <defs>
    <style>
      .st0, .st1, .st2, .st3, .st4, .st5 {
        fill: none;
      }

      .st6 {
        fill: #eaa59e;
      }

      .st7 {
        fill: #e097bc;
      }

      .st8 {
        fill: #06a06b;
      }

      .st9 {
        fill: #28787f;
      }

      .st10 {
        fill: #0096a1;
      }

      .st11 {
        fill: #d9de50;
      }

      .st12 {
        fill: #c3896b;
      }

      .st13 {
        fill: #d67063;
      }

      .st14 {
        fill: #c1c1c1;
      }

      .st15 {
        fill: url(#linear-gradient);
      }

      .st16 {
        fill: #993d31;
      }

      .st17 {
        fill: #babed6;
      }

      .st18 {
        fill: #fcf6b4;
      }

      .st19 {
        fill: #d3d4dd;
      }

      .st20 {
        clip-path: url(#clippath-11);
      }

      .st21 {
        clip-path: url(#clippath-10);
      }

      .st22 {
        fill: #d9de51;
      }

      .st23 {
        fill: #6a1c22;
      }

      .st24 {
        clip-path: url(#clippath-1);
      }

      .st25 {
        clip-path: url(#clippath-3);
      }

      .st26 {
        clip-path: url(#clippath-2);
      }

      .st27 {
        clip-path: url(#clippath-6);
      }

      .st28 {
        clip-path: url(#clippath-9);
      }

      .st29 {
        clip-path: url(#clippath-8);
      }

      .st30 {
        clip-path: url(#clippath-5);
      }

      .st31 {
        fill: #3c3b48;
      }

      .st1 {
        stroke: #fff;
        stroke-width: 1.3px;
      }

      .st1, .st2, .st3, .st4, .st5 {
        stroke-miterlimit: 10;
      }

      .st32 {
        fill: #fff;
      }

      .st33 {
        fill: #732228;
      }

      .st34 {
        fill: #019f6b;
      }

      .st35 {
        fill: #cccbcb;
      }

      .st36 {
        fill: #afb2d6;
      }

      .st37 {
        fill: #666667;
      }

      .st2 {
        stroke-width: 2.2px;
      }

      .st2, .st3 {
        stroke: #7396c4;
      }

      .st38 {
        fill: #e2785a;
      }

      .st3, .st4 {
        stroke-width: 2px;
      }

      .st39 {
        opacity: .5;
      }

      .st40 {
        fill: #7396c4;
      }

      .st41 {
        fill: #27407a;
      }

      .st42 {
        fill: #a34b3d;
      }

      .st4 {
        stroke: #e2785a;
      }

      .st43 {
        fill: #257a57;
      }

      .st44 {
        fill: #2f787f;
      }

      .st45 {
        fill: #017177;
      }

      .st5 {
        stroke: #f2d3d1;
        stroke-width: 2.7px;
      }

      .st46 {
        fill: #dd9bbf;
      }

      .st47 {
        clip-path: url(#clippath);
      }

      .st48 {
        fill: #b2b2b2;
      }
    </style>
    <clipPath id="clippath">
      <rect class="st48" x="0" y="915" width="1036.3" height="330.3"/>
    </clipPath>
    <clipPath id="clippath-1">
      <rect class="st38" x="760" y="351.2" width="275" height="563.8" transform="translate(1794.9779 1266.1981) rotate(-180)"/>
    </clipPath>
    <clipPath id="clippath-2">
      <rect class="st10" x="210" y="120.8" width="155.3" height="387.6" transform="translate(575.4 629.2) rotate(-180)"/>
    </clipPath>
    <linearGradient id="linear-gradient" x1="213.1" y1="777.4" x2="324.5" y2="227" gradientTransform="translate(501.2638 1183.8184) rotate(-180)" gradientUnits="userSpaceOnUse">
      <stop offset="0" stop-color="#2f787f"/>
      <stop offset=".2" stop-color="#32787e"/>
      <stop offset=".3" stop-color="#3b787c"/>
      <stop offset=".5" stop-color="#4c7878"/>
      <stop offset=".6" stop-color="#637874"/>
      <stop offset=".7" stop-color="#81786d"/>
      <stop offset=".9" stop-color="#a67866"/>
      <stop offset="1" stop-color="#d1785d"/>
      <stop offset="1" stop-color="#e2785a"/>
    </linearGradient>
    <clipPath id="clippath-3">
      <rect class="st37" x="-.8" y="268.4" width="177.1" height="646.5" transform="translate(175.5487 1183.3295) rotate(-180)"/>
    </clipPath>
    <clipPath id="clippath-5">
      <path class="st0" d="M718.1,770.2s0,0,0,0c-.8,0-1.7-.1-2.5,0s-1.8,0-2.7,0c-2.4,0-4.7,0-7.1,0-2.7,0-5.4,0-8.1,0-1.8,0-3.6,0-5.4,0-.9,0-2.4,0-2.7-1.5,0-.3,0-.5,0-.8,0-.7.2-1.6.7-2,.6-.5,1.4-.7,2.1-1s1.5-.5,2.2-.6c2-.4,4-.7,6-.9,4-.4,8.1-.4,12,.3,1.8.3,3.9.6,5.5,1.6.9.6,2.5,1.7,2.1,3.4s-.1.4-.2.5c0,.1-.2.2-.2.3-.5.5-1.2.5-1.9.6Z"/>
    </clipPath>
    <clipPath id="clippath-6">
      <path class="st13" d="M718.1,770.2s0,0,0,0c-.8,0-1.7-.1-2.5,0s-1.8,0-2.7,0c-2.4,0-4.7,0-7.1,0-2.7,0-5.4,0-8.1,0-1.8,0-3.6,0-5.4,0-.9,0-2.4,0-2.7-1.5,0-.3,0-.5,0-.8,0-.7.2-1.6.7-2,.6-.5,1.4-.7,2.1-1s1.5-.5,2.2-.6c2-.4,4-.7,6-.9,4-.4,8.1-.4,12,.3,1.8.3,3.9.6,5.5,1.6.9.6,2.5,1.7,2.1,3.4s-.1.4-.2.5c0,.1-.2.2-.2.3-.5.5-1.2.5-1.9.6Z"/>
    </clipPath>
    <clipPath id="clippath-8">
      <rect class="st32" x="806.9" y="175.2" width="181.1" height="124.4" transform="translate(1794.9779 474.7188) rotate(-180)"/>
    </clipPath>
    <clipPath id="clippath-9">
      <path class="st11" d="M49.6,807.6h0c17.3,0,31.3,14,31.3,31.3v76.1H22.2v-80c0-15.1,12.3-27.4,27.4-27.4Z"/>
    </clipPath>
    <clipPath id="clippath-10">
      <rect class="st42" x="18" y="821.4" width="47.4" height="93.5"/>
    </clipPath>
    <clipPath id="clippath-11">
      <rect class="st14" x="958.9" y="815.6" width="42" height="100.1"/>
    </clipPath>
  </defs>
  <g>
    <rect class="st48" x="0" y="0" width="1035.6" height="411.7"/>
    <rect class="st8" x="0" y="80.1" width="1035.6" height="103.6"/>
    <rect class="st22" x="0" y="272.3" width="1035.6" height="14.4"/>
    <g>
      <path class="st43" d="M968,133.4c1.3-.6,2.3-1.7,3.4-2.5s2.6-1.7,3.9-2.6c2.4-1.6,4.9-3.2,6.9-5.4,2.1-2.4,4.6-7.7,0-9.1-4.7-1.4-8.8,3.8-10.7,6.7-3,4.3-4.4,9.5-3.3,12.9h-.1Z"/>
      <path class="st43" d="M962.6,135.4c-1.3-.6-2.3-1.7-3.4-2.5s-2.6-1.7-3.9-2.6c-2.4-1.6-4.9-3.2-6.9-5.4-2.1-2.4-4.6-7.7,0-9.1,4.7-1.4,8.8,3.8,10.7,6.7,3,4.3,4.4,9.5,3.3,12.9h.1Z"/>
      <path class="st43" d="M959.8,118.4c.3.9.9,1.6,1.7,2.2.3.2.6.4,1,.5,2,.2,6.6-4.8,7.5-6.4.9-1.6,1.2-3.4-.6-4.7-4.4-3.3-10.9,4-9.6,8.4h0Z"/>
    </g>
    <g>
      <path class="st43" d="M1006.6,175.6c1.3-.6,2.3-1.7,3.4-2.5,1.1-.8,2.6-1.7,3.9-2.6,2.4-1.6,4.9-3.2,6.9-5.4,2.1-2.4,4.6-7.7,0-9.1-4.7-1.4-8.8,3.8-10.7,6.7-3,4.3-4.4,9.5-3.3,12.9h-.1Z"/>
      <path class="st43" d="M1001.2,177.6c-1.3-.6-2.3-1.7-3.4-2.5s-2.6-1.7-3.9-2.6c-2.4-1.6-4.9-3.2-6.9-5.4-2.1-2.4-4.6-7.7,0-9.1,4.7-1.4,8.8,3.8,10.7,6.7,3,4.3,4.4,9.5,3.3,12.9h.1Z"/>
      <path class="st43" d="M998.4,160.5c.3.9.9,1.6,1.7,2.2.3.2.6.4,1,.5,2,.2,6.6-4.8,7.5-6.4s1.2-3.4-.6-4.7c-4.4-3.3-10.9,4-9.6,8.4h0Z"/>
    </g>
    <g>
      <path class="st43" d="M885,118.1c1.3-.6,2.3-1.7,3.4-2.5s2.6-1.7,3.9-2.6c2.4-1.6,4.9-3.2,6.9-5.4,2.1-2.4,4.6-7.7,0-9.1-4.7-1.4-8.8,3.8-10.7,6.7-3,4.3-4.4,9.5-3.3,12.9h-.1Z"/>
      <path class="st43" d="M879.6,120.1c-1.3-.6-2.3-1.7-3.4-2.5s-2.6-1.7-3.9-2.6c-2.4-1.6-4.9-3.2-6.9-5.4-2.1-2.4-4.6-7.7,0-9.1,4.7-1.4,8.8,3.8,10.7,6.7,3,4.3,4.4,9.5,3.3,12.9h.1Z"/>
      <path class="st43" d="M876.8,103.1c.3.9.9,1.6,1.7,2.2.3.2.6.4,1,.5,2,.2,6.6-4.8,7.5-6.4.9-1.6,1.2-3.4-.6-4.7-4.4-3.3-10.9,4-9.6,8.4h0Z"/>
    </g>
    <g>
      <path class="st43" d="M802.6,166.9c1.3-.6,2.3-1.7,3.4-2.5s2.6-1.7,3.9-2.6c2.4-1.6,4.9-3.2,6.9-5.4,2.1-2.4,4.6-7.7,0-9.1s-8.8,3.8-10.7,6.7c-3,4.3-4.4,9.5-3.3,12.9h-.1Z"/>
      <path class="st43" d="M797.2,168.9c-1.3-.6-2.3-1.7-3.4-2.5-1.1-.8-2.6-1.7-3.9-2.6-2.4-1.6-4.9-3.2-6.9-5.4-2.1-2.4-4.6-7.7,0-9.1,4.7-1.4,8.8,3.8,10.7,6.7,3,4.3,4.4,9.5,3.3,12.9h.1Z"/>
      <path class="st43" d="M794.4,151.9c.3.9.9,1.6,1.7,2.2.3.2.6.4,1,.5,2,.2,6.6-4.8,7.5-6.4s1.2-3.4-.6-4.7c-4.4-3.3-10.9,4-9.6,8.4h0Z"/>
    </g>
    <g>
      <path class="st43" d="M688.1,134.6c1.3-.6,2.3-1.7,3.4-2.5,1.1-.8,2.6-1.7,3.9-2.6,2.4-1.6,4.9-3.2,6.9-5.4,2.1-2.4,4.6-7.7,0-9.1-4.7-1.4-8.8,3.8-10.7,6.7-3,4.3-4.4,9.5-3.3,12.9h-.1Z"/>
      <path class="st43" d="M682.7,136.6c-1.3-.6-2.3-1.7-3.4-2.5s-2.6-1.7-3.9-2.6c-2.4-1.6-4.9-3.2-6.9-5.4-2.1-2.4-4.6-7.7,0-9.1,4.7-1.4,8.8,3.8,10.7,6.7,3,4.3,4.4,9.5,3.3,12.9h.1Z"/>
      <path class="st43" d="M679.9,119.6c.3.9.9,1.6,1.7,2.2.3.2.6.4,1,.5,2,.2,6.6-4.8,7.5-6.4s1.2-3.4-.6-4.7c-4.4-3.3-10.9,4-9.6,8.4h0Z"/>
    </g>
    <g>
      <path class="st43" d="M606.9,166.9c1.3-.6,2.3-1.7,3.4-2.5s2.6-1.7,3.9-2.6c2.4-1.6,4.9-3.2,6.9-5.4,2.1-2.4,4.6-7.7,0-9.1-4.7-1.4-8.8,3.8-10.7,6.7-3,4.3-4.4,9.5-3.3,12.9h-.1Z"/>
      <path class="st43" d="M601.5,168.9c-1.3-.6-2.3-1.7-3.4-2.5-1.1-.8-2.6-1.7-3.9-2.6-2.4-1.6-4.9-3.2-6.9-5.4-2.1-2.4-4.6-7.7,0-9.1,4.7-1.4,8.8,3.8,10.7,6.7,3,4.3,4.4,9.5,3.3,12.9h.1Z"/>
      <path class="st43" d="M598.7,151.9c.3.9.9,1.6,1.7,2.2.3.2.6.4,1,.5,2,.2,6.6-4.8,7.5-6.4s1.2-3.4-.6-4.7c-4.4-3.3-10.9,4-9.6,8.4h0Z"/>
    </g>
    <g>
      <path class="st43" d="M520.5,137.9c1.3-.6,2.3-1.7,3.4-2.5s2.6-1.7,3.9-2.6c2.4-1.6,4.9-3.2,6.9-5.4,2.1-2.4,4.6-7.7,0-9.1-4.7-1.4-8.8,3.8-10.7,6.7-3,4.3-4.4,9.5-3.3,12.9h-.1Z"/>
      <path class="st43" d="M515.1,139.9c-1.3-.6-2.3-1.7-3.4-2.5s-2.6-1.7-3.9-2.6c-2.4-1.6-4.9-3.2-6.9-5.4-2.1-2.4-4.6-7.7.1-9.1,4.7-1.4,8.8,3.8,10.7,6.7,3,4.3,4.4,9.5,3.3,12.9h0Z"/>
      <path class="st43" d="M512.3,122.9c.3.9.9,1.6,1.7,2.2.3.2.6.4,1,.5,2,.2,6.6-4.8,7.5-6.4.9-1.6,1.2-3.4-.6-4.7-4.4-3.3-10.9,4-9.6,8.4h0Z"/>
    </g>
    <g>
      <path class="st43" d="M448.7,153.7c1.3-.6,2.3-1.7,3.4-2.5,1.1-.8,2.6-1.7,3.9-2.6,2.4-1.6,4.9-3.2,6.9-5.4,2.1-2.4,4.6-7.7-.1-9.1-4.7-1.4-8.8,3.8-10.7,6.7-3,4.3-4.4,9.5-3.3,12.9h0Z"/>
      <path class="st43" d="M443.2,155.7c-1.3-.6-2.3-1.7-3.4-2.5s-2.6-1.7-3.9-2.6c-2.4-1.6-4.9-3.2-6.9-5.4-2.1-2.4-4.6-7.7.1-9.1,4.7-1.4,8.8,3.8,10.7,6.7,3,4.3,4.4,9.5,3.3,12.9h0Z"/>
      <path class="st43" d="M440.4,138.7c.3.9.9,1.6,1.7,2.2.3.2.6.4,1,.5,2,.2,6.6-4.8,7.5-6.4s1.2-3.4-.6-4.7c-4.4-3.3-10.9,4-9.6,8.4Z"/>
    </g>
    <g>
      <path class="st43" d="M342.1,143c1.3-.6,2.3-1.7,3.4-2.5s2.6-1.7,3.9-2.6c2.4-1.6,4.9-3.2,6.9-5.4,2.1-2.4,4.6-7.7-.1-9.1s-8.8,3.8-10.7,6.7c-3,4.3-4.4,9.5-3.3,12.9h0Z"/>
      <path class="st43" d="M336.7,145.1c-1.3-.6-2.3-1.7-3.4-2.5s-2.6-1.7-3.9-2.6c-2.4-1.6-4.9-3.2-6.9-5.4-2.1-2.4-4.6-7.7.1-9.1s8.8,3.8,10.7,6.7c3,4.3,4.4,9.5,3.3,12.9h0Z"/>
      <path class="st43" d="M333.9,128c.3.9.9,1.6,1.7,2.2.3.2.6.4,1,.5,2,.2,6.6-4.8,7.5-6.4s1.2-3.4-.6-4.7c-4.4-3.3-10.9,4-9.6,8.4Z"/>
    </g>
    <g>
      <path class="st43" d="M228.4,111.5c1.3-.6,2.3-1.7,3.4-2.5,1.1-.8,2.6-1.7,3.9-2.6,2.4-1.6,4.9-3.2,6.9-5.4,2.1-2.4,4.6-7.7-.1-9.1-4.7-1.4-8.8,3.8-10.7,6.7-3,4.3-4.4,9.5-3.3,12.9h0Z"/>
      <path class="st43" d="M223,113.6c-1.3-.6-2.3-1.7-3.4-2.5s-2.6-1.7-3.9-2.6c-2.4-1.6-4.9-3.2-6.9-5.4-2.1-2.4-4.6-7.7.1-9.1,4.7-1.4,8.8,3.8,10.7,6.7,3,4.3,4.4,9.5,3.3,12.9h0Z"/>
      <path class="st43" d="M220.2,96.5c.3.9.9,1.6,1.7,2.2.3.2.6.4,1,.5,2,.2,6.6-4.8,7.5-6.4s1.2-3.4-.6-4.7c-4.4-3.3-10.9,4-9.6,8.4h0Z"/>
    </g>
    <g>
      <path class="st43" d="M184.1,176.8c1.3-.6,2.3-1.7,3.4-2.5s2.6-1.7,3.9-2.6c2.4-1.6,4.9-3.2,6.9-5.4,2.1-2.4,4.6-7.7-.1-9.1-4.7-1.4-8.8,3.8-10.7,6.7-3,4.3-4.4,9.5-3.3,12.9h0Z"/>
      <path class="st43" d="M178.7,178.8c-1.3-.6-2.3-1.7-3.4-2.5-1.1-.8-2.6-1.7-3.9-2.6-2.4-1.6-4.9-3.2-6.9-5.4-2.1-2.4-4.6-7.7.1-9.1,4.7-1.4,8.8,3.8,10.7,6.7,3,4.3,4.4,9.5,3.3,12.9h0Z"/>
      <path class="st43" d="M175.9,161.7c.3.9.9,1.6,1.7,2.2.3.2.6.4,1,.5,2,.2,6.6-4.8,7.5-6.4s1.2-3.4-.6-4.7c-4.4-3.3-10.9,4-9.6,8.4h0Z"/>
    </g>
    <g>
      <path class="st43" d="M53.8,121.4c1.3-.6,2.3-1.7,3.4-2.5s2.6-1.7,3.9-2.6c2.4-1.6,4.9-3.2,6.9-5.4,2.1-2.4,4.6-7.7,0-9.1-4.7-1.4-8.8,3.8-10.7,6.7-3,4.3-4.4,9.5-3.3,12.9h-.1Z"/>
      <path class="st43" d="M48.4,123.4c-1.3-.6-2.3-1.7-3.4-2.5s-2.6-1.7-3.9-2.6c-2.4-1.6-4.9-3.2-6.9-5.4-2.1-2.4-4.6-7.7,0-9.1,4.7-1.4,8.8,3.8,10.7,6.7,3,4.3,4.4,9.5,3.3,12.9h.1Z"/>
      <path class="st43" d="M45.6,106.4c.3.9.9,1.6,1.7,2.2.3.2.6.4,1,.5,2,.2,6.6-4.8,7.5-6.4.9-1.6,1.2-3.4-.6-4.7-4.4-3.3-10.9,4-9.6,8.4Z"/>
    </g>
  </g>
  <rect class="st34" x="0" y="411.8" width="1036.3" height="833.5"/>
  <g>
    <rect class="st48" x="0" y="915" width="1036.3" height="330.3"/>
    <g class="st47">
      <g>
        <polygon class="st16" points="685.3 1061.9 685.3 1781.9 1211.6 1781.9 1211.6 1368.6 1035.7 1368.6 1035.7 1063.9 685.3 1061.9"/>
        <g>
          <rect class="st32" x="735.5" y="1421.9" width="89.5" height="32.1"/>
          <rect class="st31" x="745.4" y="1435.6" width="68" height="146.3"/>
          <path class="st32" d="M735.5,1581.6c14.3-2.5,28.7-2.9,43.2-2.8,14.5.2,28.9.8,43.2,3.1-21.5,3.2-43.2,3.7-64.8,2.7-7.2-.4-14.4-1-21.6-2.3v-.7h0Z"/>
          <path class="st32" d="M813.4,1509.1c-11.2,2.5-22.6,2.9-34,2.8-11.4-.2-22.7-.9-34-3.1,16.8-3.2,34-3.7,51-2.7,5.7.4,11.3,1,17,2.3v.7h0Z"/>
        </g>
        <g>
          <rect class="st32" x="735.5" y="1190.5" width="89.5" height="32.1"/>
          <rect class="st31" x="745.4" y="1204.2" width="68" height="146.3"/>
          <path class="st32" d="M735.5,1350.3c14.3-2.5,28.7-2.9,43.2-2.8,14.5.2,28.9.8,43.2,3.1-21.5,3.2-43.2,3.7-64.8,2.7-7.2-.4-14.4-1-21.6-2.3,0,0,0-.7,0-.7h0Z"/>
          <path class="st32" d="M813.4,1277.8c-11.2,2.5-22.6,2.9-34,2.8-11.4-.2-22.7-.9-34-3.1,16.8-3.2,34-3.7,51-2.7,5.7.4,11.3,1,17,2.3v.7h0Z"/>
        </g>
        <rect class="st32" x="879.1" y="1421.9" width="89.5" height="32.1"/>
        <rect class="st31" x="889" y="1435.6" width="68" height="146.3"/>
        <rect class="st31" x="889" y="1635.6" width="68" height="146.3"/>
        <rect class="st18" x="1081.3" y="1633" width="62.4" height="148.9"/>
        <rect class="st37" x="1089.1" y="1479" width="47.5" height="103"/>
        <path class="st32" d="M879.1,1581.6c14.3-2.5,28.7-2.9,43.2-2.8,14.5.2,28.9.8,43.2,3.1-21.5,3.2-43.2,3.7-64.8,2.7-7.2-.4-14.4-1-21.6-2.3v-.7h0Z"/>
        <path class="st32" d="M957,1509.1c-11.2,2.5-22.6,2.9-34,2.8-11.4-.2-22.7-.9-34-3.1,16.8-3.2,34-3.7,51-2.7,5.7.4,11.3,1,17,2.3v.7h0Z"/>
        <g>
          <rect class="st32" x="879.1" y="1190.5" width="89.5" height="32.1"/>
          <rect class="st31" x="889" y="1204.2" width="68" height="146.3"/>
          <path class="st32" d="M879.1,1350.3c14.3-2.5,28.7-2.9,43.2-2.8,14.5.2,28.9.8,43.2,3.1-21.5,3.2-43.2,3.7-64.8,2.7-7.2-.4-14.4-1-21.6-2.3v-.7h0Z"/>
          <path class="st32" d="M957,1277.8c-11.2,2.5-22.6,2.9-34,2.8-11.4-.2-22.7-.9-34-3.1,16.8-3.2,34-3.7,51-2.7,5.7.4,11.3,1,17,2.3v.7h0Z"/>
        </g>
        <path class="st31" d="M1032.2,1130.5c-50.1,2.2-101.6,2.7-151.8,2.8-64.9,0-130.3-.6-195.2-3.1,72-2.8,144.8-3.3,216.8-3.1,28,.1,58.6.6,86.7,1.3,14.5.4,28.9.8,43.4,1.5,0,0,0,.7,0,.7h0Z"/>
        <path class="st31" d="M1032.2,1149.1c-50.1,2.2-101.6,2.7-151.8,2.8-64.9,0-130.3-.6-195.2-3.1,72-2.8,144.8-3.3,216.8-3.1,28,.1,58.6.6,86.7,1.3,14.5.4,28.9.8,43.4,1.5v.7h0Z"/>
        <path class="st31" d="M762.9,1781.9v-111.5s-5.8-53.1-77.7-54.6v166.2h77.7Z"/>
        <rect class="st37" x="899.1" y="1647.1" width="46.8" height="28.8"/>
        <rect class="st37" x="1089.1" y="1640.4" width="47.5" height="29.8"/>
        <rect class="st37" x="1089.1" y="1681.8" width="47.5" height="65.1"/>
        <rect class="st18" x="1081.3" y="1582" width="62.4" height="3.7"/>
      </g>
      <g>
        <rect class="st12" x="245.2" y="1108.7" width="439.4" height="456.5"/>
        <g>
          <rect class="st32" x="417.7" y="1179.4" width="86.7" height="31"/>
          <rect class="st9" x="427.3" y="1192.7" width="65.9" height="141.7"/>
          <path class="st32" d="M417.7,1334.1c13.9-2.4,27.8-2.8,41.8-2.7,14,.2,27.9.8,41.8,3-20.8,3.1-41.8,3.6-62.7,2.6-7-.4-13.9-1-20.9-2.3v-.7h0Z"/>
          <path class="st32" d="M493.1,1263.9c-10.9,2.4-21.9,2.8-32.9,2.7-11-.2-22-.8-32.9-3,16.3-3.1,32.9-3.6,49.4-2.6,5.5.4,11,1,16.5,2.3,0,0,0,.7,0,.7h0Z"/>
        </g>
        <g>
          <rect class="st32" x="282.3" y="1179.4" width="86.7" height="31"/>
          <rect class="st9" x="291.8" y="1192.7" width="65.9" height="141.7"/>
          <path class="st32" d="M282.3,1334.1c13.9-2.4,27.8-2.8,41.8-2.7,14,.2,27.9.8,41.8,3-20.8,3.1-41.8,3.6-62.7,2.6-7-.4-13.9-1-20.9-2.3,0,0,0-.7,0-.7h0Z"/>
          <path class="st32" d="M357.7,1263.9c-10.9,2.4-21.9,2.8-32.9,2.7-11-.2-22-.8-32.9-3,16.3-3.1,32.9-3.6,49.4-2.6,5.5.4,11,1,16.5,2.3v.7h0Z"/>
        </g>
        <g>
          <rect class="st32" x="548.7" y="1180.5" width="86.7" height="31"/>
          <rect class="st9" x="558.2" y="1193.8" width="65.9" height="141.7"/>
          <path class="st32" d="M548.7,1335.2c13.9-2.4,27.8-2.8,41.8-2.7,14,.2,27.9.8,41.8,3-20.8,3.1-41.8,3.6-62.7,2.6-7-.4-13.9-1-20.9-2.3v-.7h0Z"/>
          <path class="st32" d="M624.1,1265c-10.9,2.4-21.9,2.8-32.9,2.7-11-.2-22-.8-32.9-3,16.3-3.1,32.9-3.6,49.4-2.6,5.5.4,11,1,16.5,2.3v.7h0Z"/>
        </g>
      </g>
      <rect class="st38" x="-72.5" y="1080.1" width="317.7" height="213.7"/>
      <rect class="st6" x="149.4" y="1152.9" width="56.8" height="92.4"/>
      <rect class="st6" x="34.4" y="1152.9" width="56.8" height="92.4"/>
    </g>
  </g>
  <rect class="st35" x=".4" y="916.3" width="681.1" height="52.3"/>
  <g>
    <g>
      <rect class="st38" x="760" y="351.2" width="275" height="563.8" transform="translate(1794.9779 1266.1981) rotate(-180)"/>
      <g class="st24">
        <g class="st39">
          <path class="st9" d="M577.8,481.1h69c0,.1,55,.2,55,.2h70.8c0,.1,55.1.2,55.1.2h0s76.3.1,76.3.1h55c0,0,69,.2,69,.2h55.1c0,0,0,0,0,0h67.6c0,.1,55,.2,55,.2h73.1c0,.1,54.8.2,54.8.2h77.9c16-13.7,31.9-27.7,47.7-41.8l-73.6-.4-54-.3h0s-73.1-.5-73.1-.5l-54.2-.3-67.7-.4-54.4-.3-69.1-.4-54.3-.3-76.4-.5-54.4-.3-70.9-.4-54.3-.3-64.5-.4h0c-20.2,15.2-40.5,30.3-60.7,45.4Z"/>
          <path class="st9" d="M448.7,577.7h77.8c0,.1,56,.2,56,.2h69.8c0,.1,56.2.2,56.2.2h75.3c0,.1,56.1.2,56.1.2h67.9c0,.1,56.2.2,56.2.2h66.6c0,.1,56,.2,56,.2h72c0,.1,55.9.2,55.9.2h81.5c16.5-14,33-28.2,49.8-41.8l-79.1-.5-55.1-.4-72.1-.4-55.2-.3-66.7-.4-55.4-.3h0s-68-.4-68-.4h0s-55.3-.4-55.3-.4l-75.3-.4h0s-55.4-.4-55.4-.4l-69.9-.4-55.3-.4-73.3-.4c-20.3,15.2-40.6,30.4-61,45.6Z"/>
          <path class="st9" d="M318.2,675.4h86.8c0,.1,57.1.2,57.1.2h68.7c0,.1,0,.1,0,.1h57.2c0,.1,74.3.2,74.3.2h57.1c0,.1,66.9.2,66.9.2h57.2c0,0,193.6.4,193.6.4h0s56.9,0,56.9,0h84.3c7-6.2,14.1-12.5,21.4-18.6,3.7-3.2,7.2-6.7,11.2-9.6,6.1-4.5,12.1-9,18.1-13.7l-82.8-.5-56.2-.4-193-1.2-56.4-.3-67-.4-56.3-.4-74.3-.4-56.5-.4-68.8-.4-56.3-.4h0s-82.1-.5-82.1-.5h0c-11.3,8.5-22.6,16.9-33.9,25.4-9,6.7-18,13.5-27,20.2Z"/>
        </g>
      </g>
    </g>
    <polygon class="st17" points="303.9 21.4 408.1 120.5 408.1 483.6 331.8 481.4 303.9 21.4"/>
    <polygon class="st40" points="210 120.8 303.9 21.4 364.4 120.8 210 120.8"/>
    <g>
      <rect class="st10" x="210" y="120.8" width="155.3" height="387.6" transform="translate(575.4 629.2) rotate(-180)"/>
      <g class="st26">
        <g class="st39">
          <path class="st41" d="M338.1,46v59.6c0,0-.1,47.5-.1,47.5v61.1c0,0-.1,47.6-.1,47.6h0s0,66,0,66v47.5c0,0-.1,59.6-.1,59.6v47.6c0,0,0,0,0,0v58.4c0,0-.1,47.5-.1,47.5v63.1c0,0-.2,47.3-.2,47.3v67.3c9.2,13.8,18.6,27.5,28,41.2l.3-63.5.2-46.7h0s.3-63.2.3-63.2l.2-46.8.3-58.5.2-46.9.3-59.7.2-46.9.3-66,.2-47,.3-61.2.2-46.9.3-55.7h0c-10.2-17.5-20.3-35-30.4-52.5Z"/>
          <path class="st41" d="M273.3-65.5V1.7c0,0-.2,48.4-.2,48.4v60.3c0,0-.2,48.5-.2,48.5v65c0,0-.1,48.4-.1,48.4v58.7c0,0-.2,48.5-.2,48.5v57.5c0,0-.1,48.3-.1,48.3v62.2c0,0-.1,48.3-.1,48.3v70.4c9.4,14.2,18.9,28.5,28,43l.3-68.3.2-47.6.3-62.3.2-47.7.3-57.6.2-47.8h0s.3-58.8.3-58.8h0s.2-47.8.2-47.8l.3-65.1h0s.2-47.9.2-47.9l.3-60.4.2-47.7.3-63.3c-10.2-17.6-20.4-35.1-30.6-52.6Z"/>
          <path class="st41" d="M207.9-178.2v74.9c0,0-.2,49.3-.2,49.3V5.4c0,0,0,0,0,0v49.4c0,0-.2,64.1-.2,64.1v49.3c0,0-.2,57.8-.2,57.8v49.4c0,0-.3,167.2-.3,167.2h0s0,49.1,0,49.1v72.8c4.1,6.1,8.3,12.2,12.4,18.5,2.1,3.2,4.5,6.2,6.4,9.7,3,5.3,6.1,10.5,9.2,15.6l.3-71.5.2-48.5.8-166.7.2-48.7.3-57.9.2-48.6.3-64.2.2-48.8.3-59.4.2-48.6h0s.3-71,.3-71h0c-5.7-9.8-11.3-19.6-17-29.3-4.5-7.8-9-15.5-13.5-23.3Z"/>
        </g>
      </g>
    </g>
    <rect class="st15" x="176.5" y="268.9" width="148.3" height="646" transform="translate(501.2638 1183.8184) rotate(-180)"/>
    <g>
      <rect class="st37" x="-.8" y="268.4" width="177.1" height="646.5" transform="translate(175.5487 1183.3295) rotate(-180)"/>
      <g class="st25">
        <g class="st39">
          <path class="st7" d="M-118.1,417.4h44.5c0,.1,35.4.2,35.4.2H7.3c0,.1,35.5.2,35.5.2h0s49.2.2,49.2.2h35.4c0,.1,44.4.2,44.4.2h35.5c0,.1,0,.1,0,.1h43.6c0,.1,35.4.2,35.4.2l47,.2h35.3c0,.1,50.2.3,50.2.3,10.3-15.9,20.5-32,30.7-48.1l-47.4-.5-34.8-.4h0s-47.1-.5-47.1-.5l-34.9-.4-43.6-.5-35-.4-44.5-.5-35-.4-49.2-.5-35-.4-45.6-.5-35-.4-41.5-.4h0c-13,17.4-26.1,34.8-39.1,52.1Z"/>
          <path class="st7" d="M-201.3,528.2l50.1.2h36.1c0,.1,44.9.2,44.9.2h36.2c0,.1,48.5.3,48.5.3h36.1c0,.1,43.8.2,43.8.2h36.2c0,.1,42.9.3,42.9.3h36.1c0,.1,46.4.2,46.4.2h36c0,.1,52.5.3,52.5.3,10.6-16.2,21.3-32.5,32.1-48.2l-50.9-.5-35.5-.4-46.4-.5-35.6-.4-43-.5-35.7-.4h0s-43.8-.5-43.8-.5h0s-35.6-.4-35.6-.4l-48.5-.5h0s-35.7-.4-35.7-.4l-45-.5-35.6-.4-47.2-.5c-13.1,17.5-26.2,34.9-39.3,52.3Z"/>
          <path class="st7" d="M-285.3,640.2l55.9.2h36.8c0,.1,44.2.2,44.2.2h0s36.9.1,36.9.1h47.8c0,.1,36.8.3,36.8.3H16.1c0,.1,36.8.2,36.8.2l124.7.4h0s36.6.1,36.6.1l54.3.2c4.5-7.3,9.1-14.5,13.8-21.4,2.4-3.6,4.7-7.7,7.2-11,3.9-5.1,7.8-10.4,11.7-15.7l-53.3-.6-36.2-.4-124.3-1.4-36.3-.4-43.2-.5-36.3-.4-47.9-.5-36.4-.4-44.3-.5-36.3-.4h0s-52.9-.6-52.9-.6h0c-7.3,9.7-14.6,19.4-21.9,29.1-5.8,7.7-11.6,15.4-17.4,23.2Z"/>
        </g>
      </g>
    </g>
    <polygon class="st33" points="379.2 351.2 479.7 351.2 479.7 485.6 582.9 485.6 582.9 616.7 662.8 616.7 662.8 915 582.9 915 273.6 596.6 273.6 351.2 379.2 351.2"/>
    <polygon class="st16" points="582.2 764.2 582.2 616.7 478 616.7 478 485.6 376.6 485.6 376.6 351.2 270.5 351.2 270.5 915 582.2 915 582.2 764.2"/>
    <polygon class="st16" points="724.1 484.4 724.1 915 1035.7 915 1035.7 667.9 931.5 667.9 931.5 485.7 724.1 484.4"/>
    <circle class="st16" cx="707.9" cy="783.7" r="41.7"/>
    <g>
      <g>
        <path class="st40" d="M687.7,798.5c-.8-1.8-.6-4.4-.7-6.6,0-2.5,0-5,0-7.5v-10.4c0-2.4-.6-6.8.9-8.3.5-.5,1.2-.8,1.8-1.1,4.4-1.8,8.9-2.3,13.4-2.6,4.6-.3,9.3.3,13.8,1.8,1.8.6,3.7,1.4,5.3,2.8,1.3,1.2,1.6,1.8,1.6,3.8s0,3,0,4.5v10.8c0,2.8,0,5.6,0,8.4,0,4.2-.7,6.1-3.9,6.9-6.8,1.8-13.7,2.2-20.6,1.4s-7.1-.6-10.1-2.2c-.7-.4-1.2-1-1.5-1.7Z"/>
        <path class="st40" d="M726.4,776.9c0,0,.2,0,.3,0,1.3-.1,2.6.7,3.3,1.9s.9,2.5.9,3.9c0,1.3,0,2.6-.5,3.8s-1.7,2.1-3,2c-.9,0-1.6-.6-2.4-.9-3-1.2-3.7.7-2.1,3,1.6,2.2,3.8,3.4,6,3.2,2.2-.3,4.3-2.1,5.3-4.9.6-1.6.7-3.4.7-5.2,0-3.8-1.1-7.9-3.5-9.7-.7-.5-1.5-.8-2.3-.9-2.6-.4-5.3,1.1-7.1,3.8-.4.6-.8,1.4-.8,2.2-.1,2,1.4,2.4,2.3,1.1.9-1.4,1.3-2.9,3-3.3Z"/>
        <g class="st30">
          <rect class="st40" x="682.6" y="766.1" width="44.3" height="38.6"/>
        </g>
      </g>
      <g>
        <path class="st32" d="M687.7,798.5c-.8-1.8-.6-4.4-.7-6.6,0-2.5,0-5,0-7.5v-10.4c0-2.4-.6-6.8.9-8.3.5-.5,1.2-.8,1.8-1.1,4.4-1.8,8.9-2.3,13.4-2.6,4.6-.3,9.3.3,13.8,1.8,1.8.6,3.7,1.4,5.3,2.8,1.3,1.2,1.6,1.8,1.6,3.8s0,3,0,4.5v10.8c0,2.8,0,5.6,0,8.4,0,4.2-.7,6.1-3.9,6.9-6.8,1.8-13.7,2.2-20.6,1.4s-7.1-.6-10.1-2.2c-.7-.4-1.2-1-1.5-1.7Z"/>
        <path class="st32" d="M726.4,776.9c0,0,.2,0,.3,0,1.3-.1,2.6.7,3.3,1.9s.9,2.5.9,3.9c0,1.3,0,2.6-.5,3.8s-1.7,2.1-3,2c-.9,0-1.6-.6-2.4-.9-3-1.2-3.7.7-2.1,3,1.6,2.2,3.8,3.4,6,3.2,2.2-.3,4.3-2.1,5.3-4.9.6-1.6.7-3.4.7-5.2,0-3.8-1.1-7.9-3.5-9.7-.7-.5-1.5-.8-2.3-.9-2.6-.4-5.3,1.1-7.1,3.8-.4.6-.8,1.4-.8,2.2-.1,2,1.4,2.4,2.3,1.1.9-1.4,1.3-2.9,3-3.3Z"/>
        <g>
          <path class="st13" d="M718.1,770.2s0,0,0,0c-.8,0-1.7-.1-2.5,0s-1.8,0-2.7,0c-2.4,0-4.7,0-7.1,0-2.7,0-5.4,0-8.1,0-1.8,0-3.6,0-5.4,0-.9,0-2.4,0-2.7-1.5,0-.3,0-.5,0-.8,0-.7.2-1.6.7-2,.6-.5,1.4-.7,2.1-1s1.5-.5,2.2-.6c2-.4,4-.7,6-.9,4-.4,8.1-.4,12,.3,1.8.3,3.9.6,5.5,1.6.9.6,2.5,1.7,2.1,3.4s-.1.4-.2.5c0,.1-.2.2-.2.3-.5.5-1.2.5-1.9.6Z"/>
          <g class="st27">
            <rect class="st33" x="682.6" y="766.1" width="44.3" height="38.6"/>
          </g>
        </g>
      </g>
    </g>
    <g>
      <rect class="st23" x="828.2" y="261.6" width="11.2" height="89.1" transform="translate(1667.5711 612.3101) rotate(-180)"/>
      <rect class="st23" x="960.5" y="261.6" width="11.2" height="89.1" transform="translate(1932.2409 612.3101) rotate(-180)"/>
      <g>
        <rect class="st32" x="806.9" y="175.2" width="181.1" height="124.4" transform="translate(1794.9779 474.7188) rotate(-180)"/>
        <g class="st29">
          <g>
            <path class="st44" d="M987,301.2c-22.8,16.5-54.5,26.7-89.5,26.7v-90.5l89.5,63.8Z"/>
            <path class="st11" d="M1023.7,237.4c0,24.9-14,47.4-36.7,63.8l-89.5-63.8h0s126.2,0,126.2,0Z"/>
            <path class="st18" d="M1023.7,237.4h-126.2s89-64.2,89-64.2c23,16.4,37.2,39.1,37.2,64.2Z"/>
            <path class="st6" d="M986.5,173.2l-89,64.2v-90.5c34.7,0,66.2,10.1,89,26.3Z"/>
            <path class="st46" d="M897.5,146.8v90.5h0l-89.5-63.8c22.9-16.5,54.5-26.7,89.5-26.7Z"/>
            <path class="st33" d="M897.5,237.4h-126.2c0-24.9,14-47.4,36.7-63.8l89.5,63.8Z"/>
            <path class="st36" d="M897.5,237.4l-89,64.2c-23-16.4-37.2-39.1-37.2-64.2h126.2Z"/>
            <path class="st40" d="M897.5,237.4v90.5c-34.7,0-66.2-10.1-89-26.3l89-64.2h0Z"/>
            <line class="st0" x1="808.5" y1="301.5" x2="808.5" y2="301.5"/>
            <line class="st0" x1="987" y1="301.2" x2="987" y2="301.2"/>
          </g>
        </g>
      </g>
    </g>
    <line class="st5" x1="196.4" y1="268.2" x2="196.4" y2="915.6"/>
    <line class="st5" x1="217.9" y1="268.2" x2="217.9" y2="915.6"/>
    <line class="st5" x1="239.4" y1="268.2" x2="239.4" y2="915.6"/>
    <line class="st5" x1="260.9" y1="268.2" x2="260.9" y2="915.6"/>
    <line class="st5" x1="284.1" y1="268.2" x2="284.1" y2="351.2"/>
    <line class="st5" x1="304.9" y1="268.2" x2="304.9" y2="351.2"/>
    <rect class="st38" x="365.5" y="741.4" width="297.3" height="56.3"/>
    <rect class="st12" x="932.8" y="667.9" width="102.9" height="247.1"/>
    <g>
      <rect class="st32" x="754.1" y="561.4" width="53.5" height="19.2"/>
      <rect class="st31" x="760" y="569.6" width="40.7" height="87.5"/>
      <path class="st32" d="M754.1,656.9c8.6-1.5,17.2-1.7,25.8-1.7,8.6.1,17.3.5,25.8,1.9-12.8,1.9-25.8,2.2-38.7,1.6-4.3-.3-8.6-.6-12.9-1.4v-.4h0Z"/>
      <path class="st32" d="M800.7,613.5c-6.7,1.5-13.5,1.7-20.3,1.7-6.8-.1-13.6-.5-20.3-1.9,10.1-1.9,20.3-2.2,30.5-1.6,3.4.3,6.8.6,10.2,1.4v.4h0Z"/>
    </g>
    <g>
      <rect class="st32" x="754.1" y="698.6" width="53.5" height="19.2"/>
      <rect class="st31" x="760" y="706.8" width="40.7" height="87.5"/>
      <path class="st32" d="M754.1,794.1c8.6-1.5,17.2-1.7,25.8-1.7,8.6.1,17.3.5,25.8,1.9-12.8,1.9-25.8,2.2-38.7,1.6-4.3-.3-8.6-.6-12.9-1.4v-.4h0Z"/>
      <path class="st32" d="M800.7,750.8c-6.7,1.5-13.5,1.7-20.3,1.7-6.8-.1-13.6-.5-20.3-1.9,10.1-1.9,20.3-2.2,30.5-1.6,3.4.3,6.8.6,10.2,1.4v.4h0Z"/>
    </g>
    <rect class="st32" x="840" y="699.7" width="53.5" height="19.2"/>
    <rect class="st31" x="845.9" y="707.9" width="40.7" height="87.5"/>
    <rect class="st31" x="845.9" y="827.5" width="40.7" height="87.5"/>
    <rect class="st37" x="962.8" y="717.1" width="33.9" height="73.7"/>
    <path class="st32" d="M840,795.2c8.6-1.5,17.2-1.7,25.8-1.7,8.6.1,17.3.5,25.8,1.9-12.8,1.9-25.8,2.2-38.7,1.6-4.3-.3-8.6-.6-12.9-1.4,0,0,0-.4,0-.4h0Z"/>
    <path class="st32" d="M886.5,751.9c-6.7,1.5-13.5,1.7-20.3,1.7-6.8-.1-13.6-.5-20.3-1.9,10.1-1.9,20.3-2.2,30.5-1.6,3.4.3,6.8.6,10.2,1.4,0,0,0,.4,0,.4h0Z"/>
    <g>
      <rect class="st32" x="840" y="561.4" width="53.5" height="19.2"/>
      <rect class="st31" x="845.9" y="569.6" width="40.7" height="87.5"/>
      <path class="st32" d="M840,656.9c8.6-1.5,17.2-1.7,25.8-1.7,8.6.1,17.3.5,25.8,1.9-12.8,1.9-25.8,2.2-38.7,1.6-4.3-.3-8.6-.6-12.9-1.4,0,0,0-.4,0-.4h0Z"/>
      <path class="st32" d="M886.5,613.5c-6.7,1.5-13.5,1.7-20.3,1.7-6.8-.1-13.6-.5-20.3-1.9,10.1-1.9,20.3-2.2,30.5-1.6,3.4.3,6.8.6,10.2,1.4v.4h0Z"/>
    </g>
    <path class="st31" d="M931.5,525.4c-69.1,2.6-138.3,2.1-207.5-.2,51.8-1.9,103.7-2.2,155.6-1.6,17.3.2,34.6.6,51.9,1.4v.4h0Z"/>
    <path class="st31" d="M931.5,536.6c-69.1,2.6-138.3,2.1-207.5-.2,51.8-1.9,103.7-2.2,155.6-1.6,17.3.2,34.6.6,51.9,1.4,0,0,0,.4,0,.4h0Z"/>
    <path class="st31" d="M770.5,915v-66.7s-3.5-31.7-46.4-32.7v99.4h46.4Z"/>
    <rect class="st37" x="851.9" y="834.4" width="28" height="17.2"/>
    <rect class="st31" x="375.8" y="797.6" width="16.2" height="117.4"/>
    <rect class="st31" x="442.7" y="797.6" width="16.2" height="117.4"/>
    <rect class="st31" x="508.3" y="797.6" width="16.2" height="117.4"/>
    <rect class="st16" x="562.7" y="797.6" width="100.1" height="117.4"/>
    <rect class="st17" x="530" y="821.2" width="43.6" height="70.9"/>
    <rect class="st17" x="594.6" y="821.2" width="51.1" height="93.8"/>
    <rect class="st37" x="602.1" y="834.4" width="35.1" height="17.2"/>
    <rect class="st17" x="397.1" y="820.5" width="40.2" height="71.6"/>
    <rect class="st17" x="462.7" y="820.5" width="40.8" height="71.6"/>
    <rect class="st31" x="507.6" y="599.1" width="12.9" height="297.5" transform="translate(-233.7511 1261.9245) rotate(-90)"/>
    <g>
      <rect class="st41" x="503.5" y="656.5" width="40.7" height="69.6"/>
      <path class="st32" d="M544.2,691.5c-6.7,1.5-13.5,1.7-20.3,1.7-6.8-.1-13.6-.5-20.3-1.9,10.1-1.9,20.3-2.2,30.5-1.6,3.4.3,6.8.6,10.2,1.4v.4h0Z"/>
      <rect class="st32" x="500.9" y="721.3" width="46.6" height="6.6"/>
      <path class="st32" d="M533.5,649.6c-.6,2.5-1.7,5-3.5,6.9h-12.5c-1.6-2.4-3.3-5.8-2.9-8.8.3-2.9,2.8-5.9,5.8-3.6-.2-3.1,2.5-8.6,6-4.9,1.2,1.3,1.6,3.2,1.9,5,.7-1.8,3.5-1.6,4.6-.1,1.1,1.5,1,3.6.5,5.5Z"/>
    </g>
    <g>
      <rect class="st41" x="399.7" y="656.5" width="40.7" height="69.6"/>
      <path class="st32" d="M440.4,691.5c-6.7,1.5-13.5,1.7-20.3,1.7-6.8-.1-13.6-.5-20.3-1.9,10.1-1.9,20.3-2.2,30.5-1.6,3.4.3,6.8.6,10.2,1.4v.4h0Z"/>
      <rect class="st32" x="397.1" y="721.3" width="46.6" height="6.6"/>
      <path class="st32" d="M429.7,649.6c-.6,2.5-1.7,5-3.5,6.9h-12.5c-1.6-2.4-3.3-5.8-2.9-8.8.3-2.9,2.8-5.9,5.8-3.6-.2-3.1,2.5-8.6,6-4.9,1.2,1.3,1.6,3.2,1.9,5,.7-1.8,3.5-1.6,4.6-.1,1.1,1.5,1,3.6.5,5.5Z"/>
    </g>
    <g>
      <rect class="st41" x="399.7" y="526.9" width="40.7" height="69.6"/>
      <path class="st32" d="M440.4,562c-6.7,1.5-13.5,1.7-20.3,1.7-6.8-.1-13.6-.5-20.3-1.9,10.1-1.9,20.3-2.2,30.5-1.6,3.4.3,6.8.6,10.2,1.4v.4h0Z"/>
      <rect class="st32" x="397.1" y="591.8" width="46.6" height="6.6"/>
      <path class="st32" d="M429.7,520c-.6,2.5-1.7,5-3.5,6.9h-12.5c-1.6-2.4-3.3-5.8-2.9-8.8.3-2.9,2.8-5.9,5.8-3.6-.2-3.1,2.5-8.6,6-4.9,1.2,1.3,1.6,3.2,1.9,5,.7-1.8,3.5-1.6,4.6-.1,1.1,1.5,1,3.6.5,5.5Z"/>
    </g>
    <g>
      <rect class="st41" x="299.3" y="526.9" width="40.7" height="69.6"/>
      <path class="st32" d="M340,562c-6.7,1.5-13.5,1.7-20.3,1.7-6.8-.1-13.6-.5-20.3-1.9,10.1-1.9,20.3-2.2,30.5-1.6,3.4.3,6.8.6,10.2,1.4v.4h0Z"/>
      <rect class="st32" x="296.7" y="591.8" width="46.6" height="6.6"/>
      <path class="st32" d="M329.3,520c-.6,2.5-1.7,5-3.5,6.9h-12.5c-1.6-2.4-3.3-5.8-2.9-8.8.3-2.9,2.8-5.9,5.8-3.6-.2-3.1,2.5-8.6,6-4.9,1.2,1.3,1.6,3.2,1.9,5,.7-1.8,3.5-1.6,4.6-.1,1.1,1.5,1,3.6.5,5.5Z"/>
    </g>
    <g>
      <rect class="st41" x="299.3" y="392" width="40.7" height="69.6"/>
      <path class="st32" d="M340,427c-6.7,1.5-13.5,1.7-20.3,1.7-6.8-.1-13.6-.5-20.3-1.9,10.1-1.9,20.3-2.2,30.5-1.6,3.4.3,6.8.6,10.2,1.4v.4h0Z"/>
      <rect class="st32" x="296.7" y="456.8" width="46.6" height="6.6"/>
      <path class="st32" d="M329.3,385.1c-.6,2.5-1.7,5-3.5,6.9h-12.5c-1.6-2.4-3.3-5.8-2.9-8.8.3-2.9,2.8-5.9,5.8-3.6-.2-3.1,2.5-8.6,6-4.9,1.2,1.3,1.6,3.2,1.9,5,.7-1.8,3.5-1.6,4.6-.1,1.1,1.5,1,3.6.5,5.5Z"/>
    </g>
    <g>
      <rect class="st41" x="299.3" y="656.5" width="40.7" height="69.6"/>
      <path class="st32" d="M340,691.5c-6.7,1.5-13.5,1.7-20.3,1.7-6.8-.1-13.6-.5-20.3-1.9,10.1-1.9,20.3-2.2,30.5-1.6,3.4.3,6.8.6,10.2,1.4v.4h0Z"/>
      <rect class="st32" x="296.7" y="721.3" width="46.6" height="6.6"/>
      <path class="st32" d="M329.3,649.6c-.6,2.5-1.7,5-3.5,6.9h-12.5c-1.6-2.4-3.3-5.8-2.9-8.8.3-2.9,2.8-5.9,5.8-3.6-.2-3.1,2.5-8.6,6-4.9,1.2,1.3,1.6,3.2,1.9,5,.7-1.8,3.5-1.6,4.6-.1,1.1,1.5,1,3.6.5,5.5Z"/>
    </g>
    <rect class="st18" x="957.2" y="790.8" width="44.6" height="2.6"/>
    <rect class="st18" x="-.8" y="633.1" width="271.3" height="281.9"/>
    <path class="st11" d="M126.4,807.6h0c17.3,0,31.3,14,31.3,31.3v76.1h-58.7v-80c0-15.1,12.3-27.4,27.4-27.4Z"/>
    <g>
      <path class="st11" d="M49.6,807.6h0c17.3,0,31.3,14,31.3,31.3v76.1H22.2v-80c0-15.1,12.3-27.4,27.4-27.4Z"/>
      <g class="st28">
        <g>
          <g>
            <rect class="st42" x="18" y="821.4" width="47.4" height="93.5"/>
            <g class="st21">
              <g>
                <rect class="st40" x="22.7" y="907.9" width="44.3" height="8.1"/>
                <rect class="st40" x="27" y="899.8" width="40" height="8.1"/>
                <rect class="st40" x="31.3" y="891.7" width="35.8" height="8.1"/>
                <rect class="st40" x="35.6" y="883.9" width="31.5" height="8.1"/>
                <rect class="st40" x="39.9" y="876.1" width="27.2" height="8.1"/>
                <rect class="st40" x="44.2" y="868.3" width="27.2" height="8.1"/>
                <rect class="st40" x="48.5" y="860.5" width="27.2" height="8.1"/>
                <rect class="st40" x="52.8" y="852.7" width="27.2" height="8.1"/>
                <rect class="st40" x="57.1" y="844.9" width="27.2" height="8.1"/>
                <rect class="st40" x="61.4" y="838.7" width="27.2" height="8.1"/>
              </g>
            </g>
          </g>
          <line class="st1" x1="65.4" y1="846.6" x2="18" y2="846.6"/>
        </g>
      </g>
    </g>
    <g>
      <rect class="st40" x="105.8" y="676.8" width="53.5" height="19.2"/>
      <rect class="st9" x="111.7" y="685" width="40.7" height="87.5"/>
      <line class="st3" x1="105.8" y1="772.5" x2="157.4" y2="772.5"/>
      <path class="st32" d="M152.3,728.9c-6.7,1.5-13.5,1.7-20.3,1.7-6.8-.1-13.6-.5-20.3-1.9,10.1-1.9,20.3-2.2,30.5-1.6,3.4.3,6.8.6,10.2,1.4v.4h0Z"/>
    </g>
    <g>
      <rect class="st40" x="22.1" y="676.8" width="53.5" height="19.2"/>
      <rect class="st9" x="28" y="685" width="40.7" height="87.5"/>
      <path class="st40" d="M22.1,772.4c17.2-1.4,34.5-1.1,51.6.1-12.9,1-25.8,1.2-38.7.8-4.3-.1-8.6-.3-12.9-.7,0,0,0-.2,0-.2h0Z"/>
      <path class="st32" d="M68.7,728.9c-6.7,1.5-13.5,1.7-20.3,1.7-6.8-.1-13.6-.5-20.3-1.9,10.1-1.9,20.3-2.2,30.5-1.6,3.4.3,6.8.6,10.2,1.4v.4h0Z"/>
    </g>
    <path class="st11" d="M207.3,808.2h0c17.3,0,31.3,14,31.3,31.3v76.1h-58.7v-80c0-15.1,12.3-27.4,27.4-27.4Z"/>
    <g>
      <rect class="st40" x="186.6" y="677.4" width="53.5" height="19.2"/>
      <rect class="st9" x="192.5" y="685.6" width="40.7" height="87.5"/>
      <path class="st40" d="M186.6,773c17.2-1.4,34.5-1.1,51.6.1-12.9,1-25.8,1.2-38.7.8-4.3-.1-8.6-.3-12.9-.7v-.2h0Z"/>
      <path class="st32" d="M233.2,729.6c-6.7,1.5-13.5,1.7-20.3,1.7-6.8-.1-13.6-.5-20.3-1.9,10.1-1.9,20.3-2.2,30.5-1.6,3.4.3,6.8.6,10.2,1.4,0,0,0,.4,0,.4h0Z"/>
    </g>
    <rect class="st34" x="561.2" y="937" width="117.9" height="31.5"/>
    <path class="st45" d="M587.1,730.4c-2.4,1.6-4.8,3.2-7.3,4.7-6.8,4.3-13.7,7-21.1,9.9-11.3,4.4-22.7,8.7-34,13.1-2.3.9-4.6,1.8-6.4,3.5-2.8,2.6-3.8,7.1-2.4,10.7,4.7,11.8,22.7,5.1,28.8-1.6,1.6,4.4,4.3,9.7,9,9.6,6.4-.2,7.7-8.6,12.3-11.4,1.9,4.1,2.1,9.3,8.9,7.6,3.5-.9,6.1-3.7,8.3-6.6,2.7-3.7,5-7.8,7.3-11.8,2.3-4.1,4.5-8.1,6.8-12.2,1.8-3.3,3.7-6.6,5.2-10,1.9-4.3,3.2-9.5.8-13.5-5.8,1.7-11,4.7-16.1,8Z"/>
    <path class="st16" d="M607.6,604.1c.3-1.7.7-3.4,1.2-5.1.4-1.5.9-3.1,2-4.3,1,.7,1.3,2.1,1.4,3.3,2.5,23.4,4,47.6,4,71.1v137.2c0,22.5.1,45,.5,67.4.3,20.2-.2,39.7,3.9,59.7,1.2,6,2.7,12.1,1.9,18.1-1.1,1.2-3,.7-4.4,0s-2.9-1.8-4.4-1.5c-1,.2-1.8,1-2.8,1.4-3.8,1.8-8-2.4-12.2-1.9-1.4.1-2.7.8-4.1,1s-3.1-.3-3.5-1.7c-.2-.8,0-1.7.3-2.4,3.5-9.9,6.5-18.7,7.9-29s2.8-24.5,3.5-36.8c1.4-24.7,1.2-49.4,1.5-74.1.2-19.6.2-39.2,0-58.8,0-13.1-.2-26.1-.3-39.2-.1-12.3-.9-24.7.8-36.8,3.1-22.4-1.8-45.3,2.8-67.6Z"/>
    <path class="st45" d="M630.2,677.4c2.3,1.5,4.5,3,6.8,4.4,6.4,4,12.8,6.6,19.7,9.2,10.6,4.1,21.1,8.1,31.7,12.2,2.1.8,4.3,1.7,6,3.2,2.6,2.5,3.6,6.6,2.2,9.9-4.4,11-21.2,4.8-26.8-1.5-1.5,4.1-4,9.1-8.4,9-5.9-.2-7.1-8-11.5-10.6-1.8,3.8-2,8.7-8.3,7.1-3.3-.8-5.7-3.5-7.7-6.2-2.6-3.5-4.7-7.2-6.8-11-2.1-3.8-4.2-7.6-6.3-11.3-1.7-3.1-3.4-6.1-4.8-9.3-1.7-4-3-8.8-.7-12.6,5.4,1.6,10.3,4.4,15,7.5Z"/>
    <path class="st45" d="M637.3,762.9c8.6,6.5,19,11.4,30,12.3,7.6.6,17-2.1,18.6-9.2,1-4.5-1.8-9.1-5.8-11.6-4-2.5-9.1-3.1-13.9-3,.8-3.4-.6-7.2-3.4-9.3-1.5-1.1-3.3-1.7-5.2-1.9-1.6-.1-4.1,1-5.5.3s-2.4-3.7-3.3-4.8c-1.4-1.7-3-3.2-5-4.2-2.5-1.3-5.4-1.6-8.1-2.3-7.8-2-14.6-6.4-21.1-10.9-2.7-1.8-8.9-6.8-12.2-3.5-1.6,1.5-.9,3.9-.1,5.9,2.1,5,4.9,9.7,8.3,14,3,3.9,5.8,7.7,9.1,11.4,5.4,6,11.2,11.8,17.7,16.8Z"/>
    <path class="st45" d="M600.8,608.8c-2.1,2.1-3.7,4.6-5.1,7.2-2.9,5.6-5.1,11.9-10,15.9-1.7,1.4-3.8,2.5-5.2,4.3-2.8,3.6-2.2,8.9-5.1,12.4-3.7,4.5-12.2,5-13,10.8-.2,1.4.2,2.9-.4,4.2-1.2,2.5-4.9,2.3-6.8,4.3-2.2,2.3-.8,6.5,1.9,8s6.2,1.2,9.3.5c6-1.4,11.8-3.8,17-7.2,1.8-1.2,10.4-6.7,10-9.6.2,1.2.5,2.7,1.2,3.7.8,1.1,2.4,1.8,3.6,1.2.5-.3.9-.7,1.2-1.1,4.8-6.2,5.2-13.9,6.8-21.3,1.4-6.8,1.4-14,3.3-20.7s1.9-10.7,0-17c-3.4.2-6.4,1.9-8.8,4.4Z"/>
    <path class="st45" d="M572.1,729.4c-7.8,6.2-17,11-26.9,11.8-6.8.6-15.2-1.9-16.6-8.6-.9-4.2,1.7-8.7,5.3-11,3.6-2.4,8.1-3,12.5-3-.7-3.2.5-6.8,3.1-8.9,1.3-1,2.9-1.7,4.6-1.8,1.5-.1,3.7.9,4.9.3s2.2-3.6,3-4.6c1.3-1.6,2.7-3,4.5-4,2.2-1.2,4.8-1.6,7.3-2.3,7-1.9,13.1-6.2,18.9-10.5,2.4-1.8,8-6.5,11-3.4,1.4,1.4.8,3.7,0,5.6-1.9,4.7-4.4,9.3-7.5,13.4-2.7,3.7-5.2,7.4-8.2,10.9-4.9,5.8-10,11.3-15.9,16Z"/>
    <path class="st45" d="M621.2,611.9c6.7,5.4,12.1,12.3,18.2,18.3,10.5,10.5,25.3,12.4,34.7,24,4.5,5.6,1.4,12-5.8,12.6s-12.4-3.6-15.8-8.1c-1.3,4.5-3.6,9.8-7.6,9.7-5.3-.2-6.4-8.7-10.3-11.5-2.3,6-6.5,12-12.3,4.5-4.5-5.7-6.7-16.5-8.6-23.5-2.1-7.6-4.9-17-3.8-24.9.2-1.5.6-3.1,1.7-4,2.1-1.8,5.4-.3,7.6,1.3.7.5,1.3,1,1.9,1.5Z"/>
    <path class="st45" d="M587.1,775.5c-2.4,1.6-4.8,3.2-7.3,4.7-6.8,4.3-13.7,7-21.1,9.9-11.3,4.4-22.7,8.7-34,13.1-2.3.9-4.6,1.8-6.4,3.5-2.8,2.6-3.8,7.1-2.4,10.7,4.7,11.8,22.7,5.1,28.8-1.6,1.6,4.4,4.3,9.7,9,9.6,6.4-.2,7.7-8.6,12.3-11.4,1.9,4.1,2.1,9.3,8.9,7.6,3.5-.9,6.1-3.7,8.3-6.6,2.7-3.7,5-7.8,7.3-11.8,2.3-4.1,4.5-8.1,6.8-12.2,1.8-3.3,3.7-6.6,5.2-10,1.9-4.3,3.2-9.5.8-13.5-5.8,1.7-11,4.7-16.1,8Z"/>
    <path class="st45" d="M614.2,803.4c.7,1.7,1.2,3.4,1.1,5.1-.1,1.3-.6,2.5-.5,3.8.2,1.8,1.5,3.2,2.9,4.4,5.3,4.7,11.4,5.6,17.6,8.6,4.6,2.2,9.5,4.5,14.6,3.9,2.2-.3,4.4-1.1,6.6-1.4,6.8-1.2,13.7,1.5,20.2,3.8,5.1,1.8,10.8,3.4,16.3,2.5s11.3-.6,15.2-3.3c3.8-2.7,4.8-8.2,2.3-12.1s-8-5.6-12.5-4.2c-1.8.6-3.5,1.5-5.4,1.2-3.7-.7-4.2-5.7-7.3-7.6-4.8-2.9-11.4,3.1-16.5.7-1.7-.8-2.7-2.4-4-3.6-2.3-2.3-5.7-3.6-9.1-3.5-2.6,0-5.1.9-7.7.6-4.1-.5-7.2-3.7-9.9-6.7-4.3-4.8-17.4-25.1-24.5-23.1-8.7,2.4-2.5,23.1-.3,28.5.3.8.7,1.7,1,2.5Z"/>
    <path class="st45" d="M627.4,840.2c14.9,5.7,32.2,4.9,45.8,13.1,2.7,1.6,5.3,3.8,6.4,6.7s.1,6.9-2.8,8.1c-4.5,1.9-9-3.3-13.9-3.4-5.5-.2-9.3,5.7-14.7,6.7-7.1,1.3-13.2-6.2-20.4-5.9-5.9.2-10.9,5.7-16.7,5-6.1-.8-9.9-8-16.1-8.5-2.1-.2-4.5.4-6.2-.9-.9-.7-1.4-1.8-1.9-2.9-2.5-5.8-4.9-12.9-1-17.9,1-1.3,2.4-2.2,3.3-3.5,5.1-6.9-3.7-27.1,10.5-19.3,10.4,5.7,15.1,17.9,27.6,22.7Z"/>
    <path class="st45" d="M570.3,830.7c-3.2,3.9-3.7,10-8.1,12.3-3.1,1.7-6.9.8-10.4.1-4.1-.7-8.6-1-12.2,1.2-2.6,1.5-4.6,4.1-7.6,4.5-1.2.2-2.5,0-3.5.5-.7.4-1.2,1.1-1.5,1.8-2.4,4.8.2,11.4,5.1,13.3,6.7,2.6,15-2.6,21.2,1,2.5,1.5,4.2,4.2,6.9,5.3,4.7,2,9.9-1.4,13.1-5.3,3.3-3.9,6.1-8.6,10.8-10.4,2.9-1.1,6.1-.9,8.9-2.2,7.7-3.5,10.9-18.5,5-24.8s-22.5-3.7-27.7,2.6Z"/>
    <g>
      <rect class="st14" x="958.9" y="815.6" width="42" height="100.1"/>
      <g class="st20">
        <g>
          <rect class="st40" x="958.9" y="901.8" width="37" height="7.8"/>
          <rect class="st40" x="962.5" y="893.9" width="33.4" height="7.8"/>
          <rect class="st40" x="966.1" y="886.1" width="29.8" height="7.8"/>
          <rect class="st40" x="969.7" y="878.5" width="26.3" height="7.8"/>
          <rect class="st40" x="973.3" y="871" width="22.7" height="7.8"/>
          <rect class="st40" x="976.9" y="863.4" width="22.7" height="7.8"/>
          <rect class="st40" x="980.5" y="855.9" width="22.7" height="7.8"/>
          <rect class="st40" x="984" y="848.3" width="22.7" height="7.8"/>
          <rect class="st40" x="987.6" y="840.8" width="22.7" height="7.8"/>
          <rect class="st40" x="991.2" y="834.8" width="22.7" height="7.8"/>
        </g>
        <line class="st2" x1="945.2" y1="892.2" x2="983.4" y2="827.7"/>
      </g>
    </g>
    <path class="st18" d="M958.7,815.6v100.1h42v-100.1h-42ZM995.9,892.2h-31.9v-43.8h31.9v43.8ZM995.9,840.7h-31.9v-20.1h31.9v20.1Z"/>
    <rect class="st19" x="384" y="122.3" width="12.6" height="228.9"/>
    <path class="st45" d="M593.5,629.9c-2.2,0-4.5-.8-6.9.4-1.4.8-2.5,2-3.6,3.1-1.9,1.9-4.1,3.4-6.5,4.7-1.3.7-2.8,1.3-4.1.8-1.8-.7-2.7-3.3-4.7-3.4-1.5,0-2.7,1.4-4.1,1.7-2.2.5-4.3-1.8-4.3-4.1s1.3-4.3,2.8-6.1c3.1-3.9,6.4-7.4,11.2-8.8s11.3-1.4,15.3-4.8c1.6-1.4,2.7-3.3,4.5-4.5,3-2.1,7.1-1.8,10-4,1.9-1.4,2.9-3.7,4-5.8s2.8-4.2,5.1-4.7c6.7-1.5,4.8,8.5,3.5,11.6-1.4,3.4-3.7,4-6.1,6.2s-2.4,5.5-4.4,7.7c-1,1.1-2.3,1.6-3.4,2.5-2.3,1.8-3.5,6.2-6.2,7.1s-1.4.3-2.1.3Z"/>
    <g>
      <path class="st43" d="M634.7,953.5c1.3-.6,2.3-1.7,3.4-2.5s2.6-1.7,3.9-2.6c2.4-1.6,4.9-3.2,6.9-5.4,2.1-2.4,4.6-7.7,0-9.1-4.7-1.4-8.8,3.8-10.7,6.7-3,4.3-4.4,9.5-3.3,12.9h-.1Z"/>
      <path class="st43" d="M629.3,955.5c-1.3-.6-2.3-1.7-3.4-2.5-1.1-.8-2.6-1.7-3.9-2.6-2.4-1.6-4.9-3.2-6.9-5.4-2.1-2.4-4.6-7.7,0-9.1,4.7-1.4,8.8,3.8,10.7,6.7,3,4.3,4.4,9.5,3.3,12.9h.1Z"/>
      <path class="st43" d="M626.5,938.5c.3.9.9,1.6,1.7,2.2.3.2.6.4,1,.5,2,.2,6.6-4.8,7.5-6.4s1.2-3.4-.6-4.7c-4.4-3.3-10.9,4-9.6,8.4h0Z"/>
    </g>
    <g>
      <path class="st43" d="M586.6,963.4c1.3-.6,2.3-1.7,3.4-2.5s2.6-1.7,3.9-2.6c2.4-1.6,4.9-3.2,6.9-5.4,2.1-2.4,4.6-7.7,0-9.1-4.7-1.4-8.8,3.8-10.7,6.7-3,4.3-4.4,9.5-3.3,12.9h-.1Z"/>
      <path class="st43" d="M581.2,965.4c-1.3-.6-2.3-1.7-3.4-2.5-1.1-.8-2.6-1.7-3.9-2.6-2.4-1.6-4.9-3.2-6.9-5.4-2.1-2.4-4.6-7.7,0-9.1,4.7-1.4,8.8,3.8,10.7,6.7,3,4.3,4.4,9.5,3.3,12.9h.1Z"/>
      <path class="st43" d="M578.4,948.4c.3.9.9,1.6,1.7,2.2.3.2.6.4,1,.5,2,.2,6.6-4.8,7.5-6.4s1.2-3.4-.6-4.7c-4.4-3.3-10.9,4-9.6,8.4h0Z"/>
    </g>
    <g>
      <path class="st43" d="M662.5,961.8c1-.4,1.7-1.3,2.5-1.9s1.9-1.3,2.9-1.9c1.8-1.2,3.7-2.4,5.2-4,1.6-1.8,3.4-5.8,0-6.8-3.5-1-6.6,2.8-8,5-2.2,3.2-3.3,7.1-2.5,9.6h0Z"/>
      <path class="st43" d="M658.4,963.3c-1-.4-1.7-1.3-2.5-1.9s-1.9-1.3-2.9-1.9c-1.8-1.2-3.7-2.4-5.2-4-1.6-1.8-3.4-5.8,0-6.8,3.5-1,6.6,2.8,8,5,2.2,3.2,3.3,7.1,2.5,9.6h0Z"/>
      <path class="st43" d="M656.3,950.6c.2.7.7,1.2,1.3,1.6.2.1.4.3.7.4,1.5.1,4.9-3.6,5.6-4.8s.9-2.5-.4-3.5c-3.3-2.5-8.1,3-7.2,6.3h0Z"/>
    </g>
  </g>
  <rect class="st35" x="717.4" y="916.3" width="318.9" height="52.3"/>
  <rect class="st32" x="-1.2" y="1031.2" width="150.6" height="14.4"/>
  <rect class="st32" x="220.1" y="1031.2" width="150.6" height="14.4"/>
  <rect class="st32" x="441.4" y="1031.2" width="150.6" height="14.4"/>
  <rect class="st32" x="662.8" y="1031.2" width="150.6" height="14.4"/>
  <rect class="st32" x="884.1" y="1031.2" width="150.6" height="14.4"/>
  <path class="st46" d="M161.8,418.3c0-.7-.1-1.4-.2-2.1-.3-2.3-1-4.4-1.5-6.6-2.1-9-6.1-16.8-10.2-25-2.3-4.5-9.9-15.6-10.7-16.8-4.7-7-9.9-13.7-15.7-19.9s-11.9-12-18.6-17.3-6.7-5.1-10.2-7.5-7.5-4.8-11.2-7.1c-6.4-4-13-7.3-20-10.3-.4-.2-.7-.3-1.1-.5-3-1.3-6.1-2-9.2-2.8-2.5-.7-5.1-1.1-7.6-1.4-5.8-.7-12.7-.5-17.7,3-2.7,1.9-4.7,4.7-5.8,7.8-.5,1.4-1.1,2.8-1.3,4.3s-.2,2.5-.2,3.7,0,2.4,0,3.6c0,1.3.3,2.6.6,3.9.3,1.4.6,2.8,1,4.2.6,2,1.3,3.9,1.9,5.8.3.9.6,1.9,1,2.8,1.4,3.2,3,6.6,4.5,9.7.3.6.6,1.3,1,1.9s.7,1.3,1.2,1.7c0,0,0,0,.1,0,.1,0,.3,0,.4,0,.4-.3.2-.7.1-1.1s-.3-.9-.4-1.3c-.2-.6-.5-1.2-.8-1.8-1.4-3.4-3.2-6.8-4.2-10.3s-1.8-5.7-2.4-8.7c-.5-2.5-.5-5-.6-7.6,0-1.3,0-2.6.1-4,.3-2.6.9-5.3,2.7-7.3,1.5-1.8,3.3-3,5.3-4.1,1.2-.6,2.7-.9,4.1-1.1s2.8-.3,4.3-.4c3.4-.2,6.9.6,10.2,1.4,1.2.3,2.5.7,3.7,1.1s3,1.1,4.6,1.6c1.4.5,3.6,1.6,5,2.3,4.7,2.4,9.2,5.2,13.6,8,4.9,3.1,9.7,6.5,14.2,10.1,2.1,1.7,4.1,3.3,6.3,4.9,2,1.5,3.9,3.3,5.8,5,8.7,8.3,16.7,16.9,24.3,26.2.7.9,4.2,5.7,5.2,7.2,2.9,4.1,5.7,8.4,7.6,13,3.3,7.8,7,16.1,7.2,24.7s-.6,12.9-6,15.1c-1.3.5-2.8.6-4.2.5-9-.4-17.8-3.9-25.1-8.5,0,0,0,0,0,0-5-3.1-10.1-6.5-14.5-10.5-.5-.5-1.4-1.5-.7-2.1s1.6-.4,2.2-.6c1.3-.4,2.8-.9,3.3-2.1.4-.9.2-2-.3-2.8s-1.3-1.5-2.1-2c-1.7-1.2-12.8-6.5-13.1-6.7-.8-.5-.8-.5-1.7-.8-.3-.1-2.1-1.1-2.3-1.3-1-.7-.7-1.9-.8-3,0-1.6.2-3.3.3-4.9.2-3.2.5-6.5.5-9.6,0-1.3,0-2.5,0-3.8,0-1-.1-2-.8-2.7-1.1-1.3-3-1.2-4.3-.3-1.3.8-2.2,2.1-3.3,3.2-2.5,2.4-4.8,4.9-7.3,7.4s-2.6,2.3-3.8,3.5-1.7.6-3,.2c-.7-.2-1.1-.3-1.8-.6-4.8-1.8-9.5-4.3-14.4-5.8-1.4-.4-1.9-.9-3.5-.5-2.5.7-2.5,3.9-1.7,5.8.4,1,.9,1.9,1.5,2.8,1.5,2.5,5,9.9,5.6,10.9.9,1.6,2.3,3.4.9,5-2.2,2.7-4.3,5.4-6.4,8.1s-2.1,2.8-3.2,4.2c-1,1.3-2,2.4-2.7,3.8-.3.6-.5,1.3-.4,1.9.2.9.8,1.7,1.8,1.9.3,0,.5,0,.8,0,1.2,0,6-.5,7.3-.6,2.1-.2,10.4-1.4,12.5-1.5.7,0,1.5.2,2.1.5,1.1.5,1.9,2,2.4,2.9.6,1.1,3.4,5.2,4.2,6.3,1,1.5,2,3,3.1,4.4s1.8,2.5,3,3.4c.4.2.7.4,1.1.6.8.2,1.6,0,2.3-.4.7-.5.9-1.2,1.2-1.9.8-2.4,1-5,1.6-7.4.1-.6.5-1.4,1.1-1.3.2,0,.4.2.6.3,7.8,5.2,16.1,9.8,24.6,13.9,8.6,4.1,17.8,7.9,27.2,9.4,10,1.6,21.9-1.5,27-11.1.1-.3.3-.5.4-.8,2.4-4.9,3.1-10.4,2.7-15.8Z"/>
  <path class="st38" d="M452.4,711.6c-2.8-3.8-5.9-7.7-10.4-9.3-7.1-2.4-14.6,2.1-20,7.3-15.2,14.4-24.7,35.9-25.3,56.8,0,2.9,0,5.9.8,8.7,2.2,7.4,7.3,6.4,13.8,7.2s15.8,1.9,23.7,2.7c15.6,1.5,31.2,2.6,46.8,3.2,7.4.3,27.3,3.5,20.7-9.9s-15.9-21.4-23.3-31.2c-8.9-11.8-17.8-23.6-26.8-35.4Z"/>
  <g id="Xf3wWb.tif">
    <g>
      <path class="st18" d="M447.2,720.5c0,.4.3.6.5.9l10.1,13.2c-2.6,1.5-3.1,4.9-1.2,7.2,1.3,1.6,2.8,3,4.4,4.5-2.6,1.2-4.7.3-5.4,2.5s.1,2,1,2.8c4.1,3.6,10.1,3.7,14.4.4.1,0,.3.1.4.3l2.2,2.9c-3.7,1.3-6.3,4.4-7.3,7.7-1.2,4-.3,8.1,2.3,11.2,2.4,2.9,5.9,4.4,9.2,4.4,4.1,0,7.5-1.9,9.9-4.9l7.8,10.3-79.5-7.1c2.1-22.4,13.3-42.8,31.3-56.4ZM428,755.6c-5.8,1.7-9.1,7.7-7.4,13.5,1.7,5.8,7.7,9.1,13.5,7.4s9.1-7.7,7.4-13.5c-1.7-5.8-7.7-9.1-13.5-7.4ZM434.5,738.6c-3.9,1.1-6.1,5.1-5,9s5.1,6.1,9,5c3.9-1.1,6.1-5.1,5-9-1.1-3.9-5.1-6.1-9-5ZM450.8,746.5c-2.3,1.1-4.1,2.5-5.3,4.4-2.6,3.9-1.2,8.2,1.5,11.9,4.8-1.9,7.8-5.5,6.6-10.6-.5-2-1.3-4-2.7-5.7ZM454.2,763.2c-3.9,1.1-6.1,5.1-5,9,1.1,3.9,5.1,6.1,9,5s6.1-5.1,5-9-5.1-6.1-9-5ZM449,729.3c-3.9-1.9-8.1-.5-11.6,2,.8,1.9,2,3.5,3.6,4.8,3.9,3.3,8.7,2,12.7-.8-.9-2.5-2.4-4.6-4.7-6Z"/>
      <path class="st6" d="M447.2,720.5c-18,13.6-29.2,34-31.3,56.4,0,.2-.3.3-.6.3l-10.5-.5c-.7,0-1.8,0-2.2-.6s-.5-1.9-.5-2.9c.2-9.9,2.3-19.7,6.1-28.9,2.4-6,5.7-11.4,9.9-16.4,3.9-4.6,8-8.7,12.8-12.5l6.6-5.2c1-.8,2.5-.6,3.2.5l6.2,8.7c.3.4.4.7.5,1.1Z"/>
      <path class="st38" d="M473.5,755.2l14.1,18.4c-2.5,3-5.9,4.9-9.9,4.9-3.3,0-6.8-1.5-9.2-4.4-2.6-3.1-3.5-7.1-2.3-11.2,1-3.4,3.7-6.5,7.3-7.7Z"/>
      <path class="st44" d="M457.8,734.6l12.6,16.5c.3.3.4.6.5,1-4.3,3.4-10.3,3.2-14.4-.4-.9-.8-1.4-1.7-1-2.8.7-2.2,2.9-1.3,5.4-2.5-1.5-1.5-3-2.9-4.4-4.5-1.9-2.3-1.4-5.7,1.2-7.2Z"/>
      <circle class="st38" cx="431.1" cy="766.1" r="10.9"/>
      <path class="st33" d="M454.2,763.2c3.9-1.1,7.9,1.1,9,5s-1.1,7.9-5,9-7.9-1.1-9-5c-1.1-3.9,1.1-7.9,5-9ZM455.2,766.7c-1.9.6-3,2.6-2.5,4.5.6,1.9,2.6,3,4.5,2.5s3-2.6,2.5-4.5c-.6-1.9-2.6-3-4.5-2.5Z"/>
      <path class="st11" d="M450.8,746.5c1.4,1.7,2.2,3.6,2.7,5.7,1.2,5.1-1.8,8.7-6.6,10.6-2.7-3.7-4.1-8-1.5-11.9,1.2-1.9,3.1-3.3,5.3-4.4Z"/>
      <path class="st44" d="M449,729.3c2.3,1.4,3.7,3.5,4.7,6-4,2.8-8.8,4.1-12.7.8-1.5-1.3-2.7-2.9-3.6-4.8,3.5-2.5,7.8-3.9,11.6-2Z"/>
      <circle class="st18" cx="456.2" cy="770.1" r="3.6"/>
      <g>
        <path class="st33" d="M434.5,738.6c3.9-1.1,7.9,1.1,9,5,1.1,3.9-1.1,7.9-5,9-3.9,1.1-7.9-1.1-9-5s1.1-7.9,5-9ZM435.5,742.1c-1.9.6-3,2.6-2.5,4.5.6,1.9,2.6,3,4.5,2.5,1.9-.6,3-2.6,2.5-4.5-.6-1.9-2.6-3-4.5-2.5Z"/>
        <circle class="st18" cx="436.5" cy="745.6" r="3.6"/>
      </g>
    </g>
  </g>
  <polygon class="st40" points="412.9 485.4 470.9 464.4 508.3 464.4 455.4 485.4 412.9 485.4"/>
  <polygon class="st44" points="508.3 464.4 508.3 485.4 455.4 485.4 508.3 464.4"/>
  <rect class="st18" x="6.2" y="596.6" width="85.4" height="36.5"/>
  <path class="st40" d="M91.6,596.6s-18.6,15.9-42.7,14.7c0,0-29.1,1.7-42.7-14.7h85.4Z"/>
  <polyline class="st4" points="662.8 616.7 662.8 580.5 573.6 580.5 573.6 615.9"/>
  <rect class="st40" x="537.2" y="553.6" width="29.2" height="38.3"/>
  <rect class="st31" x="499.5" y="547.6" width="29.2" height="69.1"/>
  <rect class="st40" x="503.8" y="553.6" width="20" height="30.4"/>
</svg>