<?xml version="1.0" encoding="UTF-8"?>
<svg id="Layer_1" xmlns="http://www.w3.org/2000/svg" version="1.1" viewBox="0 0 1136.1 332.8">
  <!-- Generator: Adobe Illustrator 30.4.0, SVG Export Plug-In . SVG Version: 2.1.4 Build 226)  -->
  <defs>
    <style>
      .st0 {
        fill: #fff;
      }
    </style>
  </defs>
  <path class="st0" d="M634.2,331.6c-209.1-10.2-354.9-.2-500.8.7-32,.2-64.6,3.1-95.7-8-34.7-12.4-47.1-47.7-30.3-82.2,8.4-17.3,22-27.9,38.4-35.1,39.1-17.2,75.7,1.3,107-37.3,17.4-21.5,28.5-48.2,48.7-67.1,18.2-17,42.9-25.6,67.7-25.3,24.8.3,53.8,12.5,73.7-8.5,5.2-5.5,8.7-12.2,13.1-18.3,22.9-31.8,66-41.2,105.2-42,8.2-.2,16.7,0,24.4,3,22,8.5,32.1,19.4,57.2,18.3,25.4-1.1,48.4-9.5,71.6-19.4,35.9-15.4,79.2-12,116-1.4,34.8,10.1,47.3,52.5,81.7,64.1,11.7,3.9,24.3,3.6,36.5,3.1,36.9-1.2,60.2-1.5,92.7,16.8,26.5,14.8,47.7,36.9,63.4,62.8,15,24.8,36.8,41.3,66.3,45.5,20.1,2.9,36.2,15.8,50,31.7,28.9,33.2,14.7,83.1-27.1,94.7-18.3,5.1-36.9,3.7-55.3,3.7-155.8.2-311.6.1-404.2.1h0Z"/>
</svg>