<?xml version="1.0" encoding="UTF-8"?><svg id="Layer_1" xmlns="http://www.w3.org/2000/svg" xmlns:xlink="http://www.w3.org/1999/xlink" viewBox="0 0 92.73 56.29"><defs><style>.cls-1{fill:none;}.cls-2{fill:#e7685d;}.cls-3{fill:#7e1926;}.cls-4{fill:#6999c9;}.cls-5{clip-path:url(#clippath-1);}.cls-6{fill:#fff;}.cls-7{clip-path:url(#clippath);}</style><clipPath id="clippath"><path class="cls-1" d="M60.17,11.36s-.03,0-.05,0c-1.59.11-3.21-.17-4.77-.04-1.69.14-3.43.06-5.13.06-4.54,0-9.08,0-13.61,0-5.18,0-10.35,0-15.53,0-3.49,0-6.98.03-10.47-.1-1.78-.07-4.54-.02-5.13-2.02-.1-.35-.12-.71-.11-1.07.05-1,.41-2.17,1.37-2.71,1.25-.71,2.69-1.03,4.09-1.35s2.81-.67,4.25-.86c3.87-.5,7.75-.92,11.64-1.2,7.73-.56,15.54-.58,23.24.41,3.53.45,7.44.8,10.7,2.27,1.8.81,4.82,2.32,3.98,4.71-.09.26-.2.52-.39.73-.13.14-.29.25-.45.36-1.03.65-2.41.73-3.62.81Z"/></clipPath><clipPath id="clippath-1"><path class="cls-2" d="M60.17,11.36s-.03,0-.05,0c-1.59.11-3.21-.17-4.77-.04-1.69.14-3.43.06-5.13.06-4.54,0-9.08,0-13.61,0-5.18,0-10.35,0-15.53,0-3.49,0-6.98.03-10.47-.1-1.78-.07-4.54-.02-5.13-2.02-.1-.35-.12-.71-.11-1.07.05-1,.41-2.17,1.37-2.71,1.25-.71,2.69-1.03,4.09-1.35s2.81-.67,4.25-.86c3.87-.5,7.75-.92,11.64-1.2,7.73-.56,15.54-.58,23.24.41,3.53.45,7.44.8,10.7,2.27,1.8.81,4.82,2.32,3.98,4.71-.09.26-.2.52-.39.73-.13.14-.29.25-.45.36-1.03.65-2.41.73-3.62.81Z"/></clipPath></defs><path class="cls-4" d="M1.58,50.3c-1.5-2.46-1.23-6.04-1.34-9.07-.13-3.44,0-6.92,0-10.37,0-4.78,0-9.55,0-14.33C.24,13.24-.96,7.18,2,5.1c1.03-.72,2.25-1.12,3.46-1.48C13.9,1.13,22.61.51,31.34.1c8.93-.41,17.93.4,26.63,2.45,3.55.83,7.15,1.9,10.23,3.9,2.52,1.64,3.01,2.43,3.01,5.27,0,2.06,0,4.11,0,6.17,0,4.96,0,9.91,0,14.87,0,3.84.04,7.68,0,11.52-.06,5.8-1.4,8.37-7.52,9.52-13.09,2.46-26.51,3.09-39.78,1.93-6.17-.54-13.61-.85-19.44-3.06-1.37-.52-2.29-1.35-2.91-2.36Z"/><path class="cls-4" d="M76.18,19.96c4.18-1.42,8.64,1.51,10.53,5.21.88,1.73,1.29,3.68,1.3,5.62s-.91,3.31-1.85,5.02c-.51.93-1.11,1.83-1.93,2.51-1.82,1.52-4.51,1.66-6.74.85s-4.07-2.44-5.66-4.19c-.43-.47-.88-.98-1.49-1.15-1.26-.35-2.49,1-2.47,2.3s.88,2.44,1.81,3.36c3.02,2.98,7.32,4.71,11.54,4.35,4.23-.36,8.27-2.93,10.13-6.74,1.07-2.19,1.41-4.66,1.38-7.1-.06-5.25-2.18-10.9-6.83-13.34-1.39-.73-2.94-1.14-4.5-1.31-5.03-.55-10.27,1.47-13.63,5.25-.78.87-1.48,1.89-1.58,3.05-.25,2.79,2.75,3.29,4.37,1.56,1.44-1.54,2.51-3.59,4.37-4.68.4-.24.82-.43,1.26-.58Z"/><g class="cls-7"><rect class="cls-4" x="-8.21" y="5.82" width="85.51" height="53.08"/></g><path class="cls-6" d="M1.58,50.3c-1.5-2.46-1.23-6.04-1.34-9.07-.13-3.44,0-6.92,0-10.37,0-4.78,0-9.55,0-14.33C.24,13.24-.96,7.18,2,5.1c1.03-.72,2.25-1.12,3.46-1.48C13.9,1.13,22.61.51,31.34.1c8.93-.41,17.93.4,26.63,2.45,3.55.83,7.15,1.9,10.23,3.9,2.52,1.64,3.01,2.43,3.01,5.27,0,2.06,0,4.11,0,6.17,0,4.96,0,9.91,0,14.87,0,3.84.04,7.68,0,11.52-.06,5.8-1.4,8.37-7.52,9.52-13.09,2.46-26.51,3.09-39.78,1.93-6.17-.54-13.61-.85-19.44-3.06-1.37-.52-2.29-1.35-2.91-2.36Z"/><path class="cls-6" d="M76.18,19.96c4.18-1.42,8.64,1.51,10.53,5.21.88,1.73,1.29,3.68,1.3,5.62s-.91,3.31-1.85,5.02c-.51.93-1.11,1.83-1.93,2.51-1.82,1.52-4.51,1.66-6.74.85s-4.07-2.44-5.66-4.19c-.43-.47-.88-.98-1.49-1.15-1.26-.35-2.49,1-2.47,2.3s.88,2.44,1.81,3.36c3.02,2.98,7.32,4.71,11.54,4.35,4.23-.36,8.27-2.93,10.13-6.74,1.07-2.19,1.41-4.66,1.38-7.1-.06-5.25-2.18-10.9-6.83-13.34-1.39-.73-2.94-1.14-4.5-1.31-5.03-.55-10.27,1.47-13.63,5.25-.78.87-1.48,1.89-1.58,3.05-.25,2.79,2.75,3.29,4.37,1.56,1.44-1.54,2.51-3.59,4.37-4.68.4-.24.82-.43,1.26-.58Z"/><path class="cls-2" d="M60.17,11.36s-.03,0-.05,0c-1.59.11-3.21-.17-4.77-.04-1.69.14-3.43.06-5.13.06-4.54,0-9.08,0-13.61,0-5.18,0-10.35,0-15.53,0-3.49,0-6.98.03-10.47-.1-1.78-.07-4.54-.02-5.13-2.02-.1-.35-.12-.71-.11-1.07.05-1,.41-2.17,1.37-2.71,1.25-.71,2.69-1.03,4.09-1.35s2.81-.67,4.25-.86c3.87-.5,7.75-.92,11.64-1.2,7.73-.56,15.54-.58,23.24.41,3.53.45,7.44.8,10.7,2.27,1.8.81,4.82,2.32,3.98,4.71-.09.26-.2.52-.39.73-.13.14-.29.25-.45.36-1.03.65-2.41.73-3.62.81Z"/><g class="cls-5"><rect class="cls-3" x="-8.21" y="5.82" width="85.51" height="53.08"/></g></svg>