<?xml version="1.0" encoding="UTF-8"?>
<svg id="Layer_1" xmlns="http://www.w3.org/2000/svg" version="1.1" viewBox="0 0 1035.6 237.9">
  <!-- Generator: Adobe Illustrator 30.4.0, SVG Export Plug-In . SVG Version: 2.1.4 Build 226)  -->
  <defs>
    <style>
      .st0 {
        fill: #07a16b;
      }

      .st1 {
        fill: #dadf50;
      }

      .st2 {
        fill: #257a57;
      }

      .st3 {
        fill: #b2b2b2;
      }
    </style>
  </defs>
  <rect class="st3" width="1035.6" height="237.9"/>
  <rect class="st0" width="1035.6" height="103.6"/>
  <rect class="st1" y="192.2" width="1035.6" height="14.4"/>
  <g>
    <path class="st2" d="M968,53.3c1.3-.6,2.3-1.7,3.4-2.5s2.6-1.7,3.9-2.6c2.4-1.6,4.9-3.2,6.9-5.4,2.1-2.4,4.6-7.7-.1-9.1s-8.8,3.8-10.7,6.7c-3,4.3-4.4,9.5-3.3,12.9Z"/>
    <path class="st2" d="M962.6,55.3c-1.3-.6-2.3-1.7-3.4-2.5s-2.6-1.7-3.9-2.6c-2.4-1.6-4.9-3.2-6.9-5.4-2.1-2.4-4.6-7.7.1-9.1s8.8,3.8,10.7,6.7c3,4.3,4.4,9.5,3.3,12.9Z"/>
    <path class="st2" d="M959.8,38.3c.3.9.9,1.6,1.7,2.2.3.2.6.4,1,.5,2,.2,6.6-4.8,7.5-6.4s1.2-3.4-.6-4.7c-4.4-3.3-10.9,4-9.6,8.4Z"/>
  </g>
  <g>
    <path class="st2" d="M1006.6,95.5c1.3-.6,2.3-1.7,3.4-2.5s2.6-1.7,3.9-2.6c2.4-1.6,4.9-3.2,6.9-5.4,2.1-2.4,4.6-7.7-.1-9.1s-8.8,3.8-10.7,6.7c-3,4.3-4.4,9.5-3.3,12.9Z"/>
    <path class="st2" d="M1001.2,97.5c-1.3-.6-2.3-1.7-3.4-2.5s-2.6-1.7-3.9-2.6c-2.4-1.6-4.9-3.2-6.9-5.4-2.1-2.4-4.6-7.7.1-9.1s8.8,3.8,10.7,6.7c3,4.3,4.4,9.5,3.3,12.9Z"/>
    <path class="st2" d="M998.4,80.4c.3.9.9,1.6,1.7,2.2.3.2.6.4,1,.5,2,.2,6.6-4.8,7.5-6.4s1.2-3.4-.6-4.7c-4.4-3.3-10.9,4-9.6,8.4Z"/>
  </g>
  <g>
    <path class="st2" d="M885,38c1.3-.6,2.3-1.7,3.4-2.5s2.6-1.7,3.9-2.6c2.4-1.6,4.9-3.2,6.9-5.4,2.1-2.4,4.6-7.7-.1-9.1s-8.8,3.8-10.7,6.7c-3,4.3-4.4,9.5-3.3,12.9Z"/>
    <path class="st2" d="M879.6,40c-1.3-.6-2.3-1.7-3.4-2.5s-2.6-1.7-3.9-2.6c-2.4-1.6-4.9-3.2-6.9-5.4-2.1-2.4-4.6-7.7.1-9.1s8.8,3.8,10.7,6.7c3,4.3,4.4,9.5,3.3,12.9Z"/>
    <path class="st2" d="M876.8,23c.3.9.9,1.6,1.7,2.2.3.2.6.4,1,.5,2,.2,6.6-4.8,7.5-6.4s1.2-3.4-.6-4.7c-4.4-3.3-10.9,4-9.6,8.4Z"/>
  </g>
  <g>
    <path class="st2" d="M802.6,86.8c1.3-.6,2.3-1.7,3.4-2.5s2.6-1.7,3.9-2.6c2.4-1.6,4.9-3.2,6.9-5.4,2.1-2.4,4.6-7.7-.1-9.1s-8.8,3.8-10.7,6.7c-3,4.3-4.4,9.5-3.3,12.9Z"/>
    <path class="st2" d="M797.2,88.8c-1.3-.6-2.3-1.7-3.4-2.5s-2.6-1.7-3.9-2.6c-2.4-1.6-4.9-3.2-6.9-5.4-2.1-2.4-4.6-7.7.1-9.1s8.8,3.8,10.7,6.7c3,4.3,4.4,9.5,3.3,12.9Z"/>
    <path class="st2" d="M794.4,71.8c.3.9.9,1.6,1.7,2.2.3.2.6.4,1,.5,2,.2,6.6-4.8,7.5-6.4s1.2-3.4-.6-4.7c-4.4-3.3-10.9,4-9.6,8.4Z"/>
  </g>
  <g>
    <path class="st2" d="M688.1,54.5c1.3-.6,2.3-1.7,3.4-2.5s2.6-1.7,3.9-2.6c2.4-1.6,4.9-3.2,6.9-5.4,2.1-2.4,4.6-7.7-.1-9.1s-8.8,3.8-10.7,6.7c-3,4.3-4.4,9.5-3.3,12.9Z"/>
    <path class="st2" d="M682.7,56.5c-1.3-.6-2.3-1.7-3.4-2.5s-2.6-1.7-3.9-2.6c-2.4-1.6-4.9-3.2-6.9-5.4-2.1-2.4-4.6-7.7.1-9.1s8.8,3.8,10.7,6.7c3,4.3,4.4,9.5,3.3,12.9Z"/>
    <path class="st2" d="M679.9,39.5c.3.9.9,1.6,1.7,2.2.3.2.6.4,1,.5,2,.2,6.6-4.8,7.5-6.4s1.2-3.4-.6-4.7c-4.4-3.3-10.9,4-9.6,8.4Z"/>
  </g>
  <g>
    <path class="st2" d="M606.9,86.8c1.3-.6,2.3-1.7,3.4-2.5s2.6-1.7,3.9-2.6c2.4-1.6,4.9-3.2,6.9-5.4,2.1-2.4,4.6-7.7-.1-9.1s-8.8,3.8-10.7,6.7c-3,4.3-4.4,9.5-3.3,12.9Z"/>
    <path class="st2" d="M601.5,88.8c-1.3-.6-2.3-1.7-3.4-2.5s-2.6-1.7-3.9-2.6c-2.4-1.6-4.9-3.2-6.9-5.4-2.1-2.4-4.6-7.7.1-9.1s8.8,3.8,10.7,6.7c3,4.3,4.4,9.5,3.3,12.9Z"/>
    <path class="st2" d="M598.7,71.8c.3.9.9,1.6,1.7,2.2.3.2.6.4,1,.5,2,.2,6.6-4.8,7.5-6.4s1.2-3.4-.6-4.7c-4.4-3.3-10.9,4-9.6,8.4Z"/>
  </g>
  <g>
    <path class="st2" d="M520.5,57.8c1.3-.6,2.3-1.7,3.4-2.5s2.6-1.7,3.9-2.6c2.4-1.6,4.9-3.2,6.9-5.4,2.1-2.4,4.6-7.7-.1-9.1s-8.8,3.8-10.7,6.7c-3,4.3-4.4,9.5-3.3,12.9Z"/>
    <path class="st2" d="M515.1,59.8c-1.3-.6-2.3-1.7-3.4-2.5s-2.6-1.7-3.9-2.6c-2.4-1.6-4.9-3.2-6.9-5.4-2.1-2.4-4.6-7.7.1-9.1s8.8,3.8,10.7,6.7c3,4.3,4.4,9.5,3.3,12.9Z"/>
    <path class="st2" d="M512.3,42.8c.3.9.9,1.6,1.7,2.2.3.2.6.4,1,.5,2,.2,6.6-4.8,7.5-6.4s1.2-3.4-.6-4.7c-4.4-3.3-10.9,4-9.6,8.4Z"/>
  </g>
  <g>
    <path class="st2" d="M448.7,73.6c1.3-.6,2.3-1.7,3.4-2.5s2.6-1.7,3.9-2.6c2.4-1.6,4.9-3.2,6.9-5.4,2.1-2.4,4.6-7.7-.1-9.1s-8.8,3.8-10.7,6.7c-3,4.3-4.4,9.5-3.3,12.9Z"/>
    <path class="st2" d="M443.2,75.6c-1.3-.6-2.3-1.7-3.4-2.5s-2.6-1.7-3.9-2.6c-2.4-1.6-4.9-3.2-6.9-5.4-2.1-2.4-4.6-7.7.1-9.1s8.8,3.8,10.7,6.7c3,4.3,4.4,9.5,3.3,12.9Z"/>
    <path class="st2" d="M440.4,58.6c.3.9.9,1.6,1.7,2.2.3.2.6.4,1,.5,2,.2,6.6-4.8,7.5-6.4s1.2-3.4-.6-4.7c-4.4-3.3-10.9,4-9.6,8.4Z"/>
  </g>
  <g>
    <path class="st2" d="M342.1,62.9c1.3-.6,2.3-1.7,3.4-2.5s2.6-1.7,3.9-2.6c2.4-1.6,4.9-3.2,6.9-5.4,2.1-2.4,4.6-7.7-.1-9.1s-8.8,3.8-10.7,6.7c-3,4.3-4.4,9.5-3.3,12.9Z"/>
    <path class="st2" d="M336.7,65c-1.3-.6-2.3-1.7-3.4-2.5s-2.6-1.7-3.9-2.6c-2.4-1.6-4.9-3.2-6.9-5.4-2.1-2.4-4.6-7.7.1-9.1s8.8,3.8,10.7,6.7c3,4.3,4.4,9.5,3.3,12.9Z"/>
    <path class="st2" d="M333.9,47.9c.3.9.9,1.6,1.7,2.2.3.2.6.4,1,.5,2,.2,6.6-4.8,7.5-6.4s1.2-3.4-.6-4.7c-4.4-3.3-10.9,4-9.6,8.4Z"/>
  </g>
  <g>
    <path class="st2" d="M228.4,31.4c1.3-.6,2.3-1.7,3.4-2.5s2.6-1.7,3.9-2.6c2.4-1.6,4.9-3.2,6.9-5.4,2.1-2.4,4.6-7.7-.1-9.1s-8.8,3.8-10.7,6.7c-3,4.3-4.4,9.5-3.3,12.9Z"/>
    <path class="st2" d="M223,33.5c-1.3-.6-2.3-1.7-3.4-2.5s-2.6-1.7-3.9-2.6c-2.4-1.6-4.9-3.2-6.9-5.4-2.1-2.4-4.6-7.7.1-9.1s8.8,3.8,10.7,6.7c3,4.3,4.4,9.5,3.3,12.9Z"/>
    <path class="st2" d="M220.2,16.4c.3.9.9,1.6,1.7,2.2.3.2.6.4,1,.5,2,.2,6.6-4.8,7.5-6.4s1.2-3.4-.6-4.7c-4.4-3.3-10.9,4-9.6,8.4Z"/>
  </g>
  <g>
    <path class="st2" d="M184.1,96.7c1.3-.6,2.3-1.7,3.4-2.5s2.6-1.7,3.9-2.6c2.4-1.6,4.9-3.2,6.9-5.4,2.1-2.4,4.6-7.7-.1-9.1s-8.8,3.8-10.7,6.7c-3,4.3-4.4,9.5-3.3,12.9Z"/>
    <path class="st2" d="M178.7,98.7c-1.3-.6-2.3-1.7-3.4-2.5s-2.6-1.7-3.9-2.6c-2.4-1.6-4.9-3.2-6.9-5.4-2.1-2.4-4.6-7.7.1-9.1s8.8,3.8,10.7,6.7c3,4.3,4.4,9.5,3.3,12.9Z"/>
    <path class="st2" d="M175.9,81.6c.3.9.9,1.6,1.7,2.2.3.2.6.4,1,.5,2,.2,6.6-4.8,7.5-6.4s1.2-3.4-.6-4.7c-4.4-3.3-10.9,4-9.6,8.4Z"/>
  </g>
  <g>
    <path class="st2" d="M53.8,41.3c1.3-.6,2.3-1.7,3.4-2.5s2.6-1.7,3.9-2.6c2.4-1.6,4.9-3.2,6.9-5.4,2.1-2.4,4.6-7.7-.1-9.1s-8.8,3.8-10.7,6.7c-3,4.3-4.4,9.5-3.3,12.9Z"/>
    <path class="st2" d="M48.4,43.3c-1.3-.6-2.3-1.7-3.4-2.5s-2.6-1.7-3.9-2.6c-2.4-1.6-4.9-3.2-6.9-5.4-2.1-2.4-4.6-7.7.1-9.1s8.8,3.8,10.7,6.7c3,4.3,4.4,9.5,3.3,12.9Z"/>
    <path class="st2" d="M45.6,26.3c.3.9.9,1.6,1.7,2.2.3.2.6.4,1,.5,2,.2,6.6-4.8,7.5-6.4s1.2-3.4-.6-4.7c-4.4-3.3-10.9,4-9.6,8.4Z"/>
  </g>
</svg>