<?xml version="1.0" encoding="UTF-8"?>
<svg id="Layer_1" xmlns="http://www.w3.org/2000/svg" version="1.1" viewBox="0 0 420.8 316.3">
  <!-- Generator: Adobe Illustrator 30.4.0, SVG Export Plug-In . SVG Version: 2.1.4 Build 226)  -->
  <defs>
    <style>
      .st0 {
        fill: #30797f;
      }

      .st1 {
        fill: #fdf7b4;
      }

      .st2 {
        fill: #996044;
      }

      .st3 {
        fill: #6c91c4;
      }

      .st4 {
        fill: #7498c5;
      }
    </style>
  </defs>
  <path class="st0" d="M384.5,145.1c-7.9-15-19.6-27.9-33.5-37.6-16.9-11.8-36.1-16.6-56.3-19.5-15-2.1-28.1-1.4-43,.6-2.4.3-4.8.6-7.1,0-4.6-1.4-7.6-10.9-10-14.9-4.2-6.7-8.4-13.4-12.6-20.1-.7-1.1-1.4-2.5-1-3.7.4-1.2,1.8-1.8,3.1-2.3,12.1-4.1,25.2-4,38-3.3,26,1.4,52.1,5.4,76.2,15s46.4,25.4,60.9,47c10.5,15.7,16.9,34.7,15,53.6-.8,8.3-3.5,17.1-7.3,24.6-4,7.9-9.5,14.6-18.5,16.8,2.2-16.8,4.3-40.4-3.8-55.9,0-.1-.1-.2-.2-.3h0Z"/>
  <path class="st0" d="M244.7,93.9c-.2-2.8-.6-5.5-1.2-8.2-3.9-16.6-20.9-34.6-35-43.2-27.3-16.6-64.2-13.8-91.9-.2-16.1,7.8-29.9,20.8-37,37.2-9.4,21.4-5,42.7,5,62.7,4.4,8.9,10.3,16.6,19.3,21.1,4.8,2.4,11.6,3.7,16.8,5.9,19.4,8,41.3,3.7,61.8-.9,20.4-4.5,36.9-12.4,49.4-30.3,8.4-12,13.8-28.8,12.9-44.1h0Z"/>
  <path class="st2" d="M148,101c-9.8,4.4-18.9,11-24.9,19.9-1.9,3.1-6.3,9.9-3.7,13.3,1.2,1.1,3.8,2.1,5.6,2.8,9.1,3.2,19.4,2.9,29,1.6,19.5-2.8,39.2-10.5,52.9-25.2,14.2-15.8,0-21.7-15.7-21.4-14.8-.2-29.6,2.9-43.2,9h0ZM144.8,93.9c14.6-6.5,30.5-9.6,46.5-8.8,5.5.2,10.9.8,16.1,2.8,5.7,1.9,11.3,7.4,11.1,13.9,0,6-3.9,11.1-7.7,15.2-11.2,11.4-25.5,19-40.7,23.3-10.1,3-20.5,4.9-31.1,4.9-6.6,0-13.7-1-20-3.7-7.7-2.8-8.7-10.2-5.8-17.1,5.5-14.2,18-24.5,31.6-30.6h0Z"/>
  <path class="st4" d="M420.2,153.3c1.7,24.1-.1,54-11,76.1-14.2,28.8-42.2,49.4-72.2,58.9-32.9,10.5-66.4,15.6-101,11.5h-1.1c-5.4-.8-11.6-1.4-15.4,2.4-19.2,19.6-48.6,15.3-72.3,7.8-24.6-7.8-48-22-63.9-42.6-7.1-9.2-14.2-18.5-19-29s-7.2-22.6-4.3-33.8c2.9-11.2,11.8-21.3,23.1-23.4,16.6-3.1,32.9-4.1,49.3-.4,16.8,3.8,34.1,9.2,46.3,21.4,6.5,6.5,11.3,14.6,17.6,21.3,9.4,9.9,22.8,17.7,25.5,31.1,17.6,2.1,34.6,9.3,52.2,7.4,8.2-.9,16.3-3,24.5-4.4,9-1.5,17.9-3.9,26.4-7.2,7.5-2.9,14.5-6.6,21.5-10.5,5.3-3,11.1-3.8,16.5-7,12.5-7.5,21.8-19.2,30.5-30.7,11.1-14.8,22.2-30.5,26.1-48.6"/>
  <path class="st2" d="M218.3,304.3c2.8-16.7,2.1-31.9-4.2-47.8l.8-.6c10.8,8.4,14.6,24.2,10.9,37.1-1.3,4.4-3.4,8.5-6.6,11.7l-.9-.5h0Z"/>
  <path class="st2" d="M200.8,283.2c2.4-25.5-18.6-45.9-38-59.1-16.2-10.9-34.1-20.6-53.4-24.1-9.4-1.6-19.6-1.3-27.8,3.9l-.7.5c-3.2,2.1-5.8,5.1-7.3,8.7-5.6,14.1,1.6,28.5,11.1,39,3.3,3.8,6.9,7.3,10.4,11l-.7.8c-8.1-6.3-16-12.9-21.7-21.7-7.5-11.2-9.3-27.6-.3-38.6,9.2-10.8,24.8-12.9,38-10.7,15.5,2.5,29.9,9.2,43.3,17.2,21.5,13.2,44,31.6,48.6,57.9.8,5.1.6,10.4-.7,15.5l-1-.2h0Z"/>
  <path class="st1" d="M229.9,137.8c-15.2.2-30.4,1.6-45.4,4.2-5.8-17.3-11.7-34.6-17.5-51.9-6.6,12.5-12.6,25.2-18.1,38.2-2.6-5.9-6.8-11-10.9-15.9-6.3-7.5-12.5-14.9-18.8-22.4.2,11.3.4,22.6.6,33.9-10.4-5.1-21.7-8-32.9-10.8,10.1,12.4,19.4,25.6,27.7,39.3,7.2-2.1,14.9-1.5,22.4-.3,16.6,2.6,32.8,8.1,47.6,16.1,10.1,5.5,12.5-2.9,19.6-8.8,8.6-7.1,17.2-14.3,25.9-21.5h0Z"/>
  <path class="st0" d="M243.9,218.3c-1.6-3.4-3.4-6.7-5.6-9.8-7.1-10.3-14-20-23.8-27.9-35.6-28.6-83.2-47.5-125.7-21-5.4,3.4-10.8,8.1-11.5,14.4,26.7-2.7,53.4,3.2,79,11.2,13.3,4.1,26.7,9,37.4,17.9,12.9,10.7,20.6,26.3,30.7,39.6,2.9,3.9,6.5,8.6,11,10.7,4.7,2.3,10.7,2.8,15.8,3.7.7-13.1-1.6-26.9-7.3-38.9h0Z"/>
  <path class="st3" d="M216.4,258c9.7,6.5,21.8,8.1,33.4,8.5,52.3,1.8,114.4-16.5,149.9-56.4,17.1-19.2,24-46.7,19.3-72-9.7-52.9-65.4-87.3-114.6-97.2-8.5-1.7-17.7-2.7-26.3-3-20.9-.7-41,1.5-61.6,4.3-2.4.3-4.7,1.1-7,1.7,5.4,3.8,10.5,8.1,15.3,12.7.2.2.5.5.8.5.7.2,2.1-.3,2.8-.5,28.5-11.2,61.7-9.9,90.5.1,24,8.3,49.4,19.9,67.2,38.6,14.1,14.9,22.2,34.2,23.5,54.6.9,14.4-4.1,28.8-12.1,40.8-8,12-18.9,21.8-30.6,30.3-13.3,9.8-27.8,18-43.3,23.7-17.2,6.3-35.5,9.4-53.8,9.3-9.1,0-18.4-.8-27.3-2.7-7.6-1.6-11.9-7.9-15.6-14.2-4-6.7-8.4-13.4-14-18.9-14.8-14.8-32.1-27.2-51.1-36.1-9.6-4.5-19.6-8.1-29.9-10.6-9.2-2.2-18.6-2.5-28-3.1-6.4-.4-13.6.1-20,1.5-3.5.7-5.6,2.3-8,4.8-2.5,2.7-4.9,7.2-3.7,11,9.6.4,19.2-.5,28.9.4,9.5.9,18.9,2.6,28.1,5.1,18.2,5,35.4,13.3,50.3,24.9,11.9,9.3,22.3,20.6,30.4,33.3,2,3.1,3.3,6.5,6.4,8.6h0Z"/>
</svg>