<?xml version="1.0" encoding="UTF-8"?><svg id="Layer_1" xmlns="http://www.w3.org/2000/svg" viewBox="0 0 420.81 316.3"><defs><style>.cls-1{fill:#30797f;}.cls-2{fill:#996044;}.cls-3{fill:#6c91c4;}.cls-4{fill:#7498c5;}</style></defs><path class="cls-1" d="M384.53,145.13c-7.9-14.97-19.64-27.93-33.5-37.59-16.93-11.8-36.09-16.57-56.29-19.46-14.96-2.14-28.13-1.44-42.99.58-2.35.32-4.78.63-7.05-.05-4.58-1.38-7.58-10.94-10.04-14.88-4.19-6.7-8.37-13.39-12.56-20.09-.71-1.13-1.44-2.47-1-3.73.43-1.24,1.8-1.84,3.05-2.26,12.13-4.08,25.23-4.04,38.01-3.35,25.99,1.4,52.09,5.37,76.25,15.05s46.37,25.39,60.89,46.99c10.55,15.69,16.87,34.73,15,53.55-.83,8.34-3.53,17.15-7.26,24.63-3.95,7.93-9.52,14.65-18.53,16.79,2.17-16.78,4.28-40.37-3.83-55.85-.05-.1-.11-.2-.16-.31Z"/><path class="cls-1" d="M244.66,93.86c-.17-2.78-.55-5.51-1.17-8.16-3.85-16.59-20.89-34.63-34.99-43.2-27.32-16.6-64.16-13.78-91.9-.25-16.06,7.83-29.87,20.84-37.05,37.21-9.38,21.38-5.03,42.72,4.96,62.72,4.42,8.85,10.32,16.63,19.34,21.1,4.77,2.36,11.61,3.71,16.8,5.85,19.36,7.96,41.33,3.69,61.76-.85,20.4-4.53,36.94-12.4,49.39-30.27,8.36-12,13.81-28.8,12.86-44.14Z"/><path class="cls-2" d="M148,100.97c-9.83,4.37-18.93,10.96-24.9,19.95-1.87,3.14-6.32,9.95-3.69,13.26,1.21,1.13,3.83,2.09,5.57,2.77,9.14,3.16,19.4,2.92,29.01,1.64,19.54-2.8,39.24-10.53,52.89-25.21,14.18-15.77-.09-21.71-15.73-21.42-14.81-.18-29.65,2.87-43.16,9h0ZM144.84,93.87c14.55-6.53,30.51-9.59,46.46-8.78,5.46.23,10.9.77,16.15,2.76,5.68,1.91,11.32,7.41,11.09,13.95-.06,5.99-3.89,11.14-7.73,15.24-11.18,11.4-25.5,18.98-40.72,23.31-10.08,2.98-20.46,4.88-31.05,4.92-6.65.02-13.68-1.01-19.98-3.73-7.65-2.75-8.65-10.21-5.8-17.06,5.51-14.2,18.01-24.52,31.59-30.6h0Z"/><path class="cls-4" d="M420.24,153.29c1.74,24.12-.13,54.02-11.03,76.05-14.22,28.75-42.17,49.38-72.25,58.94-32.9,10.45-66.42,15.65-100.97,11.45l-1.09-.14c-5.36-.68-11.6-1.29-15.38,2.57-19.25,19.64-48.57,15.33-72.3,7.84-24.64-7.78-48.02-21.96-63.9-42.64-7.05-9.18-14.17-18.47-18.98-29.01-4.81-10.54-7.18-22.59-4.29-33.8,2.89-11.22,11.76-21.26,23.14-23.39,16.59-3.11,32.87-4.11,49.34-.41,16.8,3.77,34.05,9.22,46.26,21.37,6.54,6.51,11.28,14.62,17.63,21.32,9.39,9.91,22.84,17.74,25.49,31.13,17.6,2.07,34.57,9.26,52.19,7.36,8.17-.88,16.34-3.05,24.49-4.42,9.02-1.51,17.88-3.95,26.4-7.25,7.5-2.9,14.53-6.57,21.51-10.54,5.33-3.04,11.13-3.79,16.45-6.97,12.51-7.48,21.81-19.24,30.45-30.72,11.15-14.81,22.18-30.48,26.12-48.6"/><path class="cls-1" d="M243.89,218.28c-1.59-3.4-3.45-6.67-5.57-9.76-7.1-10.34-13.96-19.98-23.82-27.89-35.62-28.57-83.25-47.5-125.69-21-5.4,3.37-10.85,8.05-11.51,14.38,26.65-2.73,53.44,3.21,79.01,11.17,13.3,4.14,26.74,9.01,37.43,17.94,12.87,10.73,20.56,26.27,30.68,39.62,2.93,3.87,6.5,8.55,10.98,10.73,4.71,2.29,10.67,2.82,15.75,3.72.72-13.15-1.65-26.86-7.28-38.9Z"/><path class="cls-3" d="M216.35,257.99c9.66,6.51,21.79,8.07,33.43,8.47,52.28,1.79,114.41-16.51,149.9-56.41,17.1-19.23,23.96-46.72,19.32-72.03-9.69-52.92-65.44-87.33-114.65-97.2-8.45-1.7-17.69-2.67-26.3-2.96-20.85-.69-40.99,1.52-61.59,4.32-2.4.33-4.68,1.11-7.01,1.74,5.4,3.85,10.52,8.09,15.3,12.69.24.23.5.47.82.55.71.16,2.1-.27,2.79-.54,28.47-11.22,61.74-9.86,90.48.13,23.99,8.34,49.4,19.89,67.17,38.62,14.1,14.86,22.18,34.22,23.45,54.62.89,14.4-4.11,28.76-12.13,40.75s-18.94,21.79-30.59,30.31c-13.34,9.75-27.84,18-43.33,23.73-17.16,6.34-35.5,9.45-53.79,9.29-9.08-.08-18.37-.8-27.27-2.71-7.59-1.63-11.85-7.94-15.56-14.2-3.98-6.73-8.44-13.42-13.98-18.94-14.83-14.78-32.14-27.19-51.1-36.11-9.57-4.51-19.58-8.12-29.87-10.6-9.17-2.21-18.62-2.53-28-3.08-6.44-.38-13.64.14-19.98,1.47-3.48.73-5.63,2.27-7.99,4.83-2.5,2.72-4.89,7.21-3.69,10.96,9.6.45,19.23-.54,28.91.35,9.49.88,18.9,2.55,28.09,5.07,18.17,4.98,35.44,13.3,50.33,24.89,11.95,9.29,22.26,20.62,30.44,33.35,2.02,3.15,3.26,6.53,6.36,8.62Z"/><path class="cls-2" d="M218.32,304.32c2.84-16.7,2.11-31.94-4.23-47.76,0,0,.8-.6.8-.6,10.79,8.43,14.61,24.16,10.93,37.09-1.27,4.36-3.41,8.51-6.61,11.72l-.89-.45h0Z"/><path class="cls-2" d="M200.75,283.19c2.38-25.51-18.56-45.85-38.04-59.05-16.25-10.87-34.08-20.56-53.39-24.14-9.45-1.64-19.62-1.32-27.8,3.91,0,0-.69.5-.69.5-3.25,2.11-5.75,5.09-7.26,8.7-5.61,14.1,1.58,28.46,11.13,39.04,3.27,3.77,6.86,7.34,10.4,10.95,0,0-.67.75-.67.75-8.05-6.33-16.05-12.93-21.71-21.69-7.5-11.2-9.27-27.55-.3-38.57,9.18-10.77,24.85-12.92,38.04-10.68,15.52,2.51,29.92,9.19,43.29,17.16,21.53,13.21,43.98,31.63,48.64,57.86.77,5.14.58,10.41-.66,15.45,0,0-.98-.18-.98-.18h0Z"/></svg>