<?xml version="1.0" encoding="UTF-8"?><svg id="Layer_1" xmlns="http://www.w3.org/2000/svg" viewBox="0 0 321.88 443.03"><defs><style>.cls-1{fill:#27417e;}.cls-2{stroke-miterlimit:10;}.cls-2,.cls-3{fill:none;stroke:#27417e;stroke-width:3.35px;}.cls-4{fill:#6991c1;}.cls-3{stroke-linecap:round;stroke-linejoin:round;}</style></defs><rect class="cls-4" width="321.88" height="443.03"/><rect class="cls-2" x="21.91" y="51.1" width="276.53" height="361.62"/><line class="cls-2" x1="298.44" y1="72.52" x2="21.91" y2="72.52"/><line class="cls-2" x1="298.44" y1="93.94" x2="21.91" y2="93.94"/><line class="cls-2" x1="298.44" y1="115.35" x2="21.91" y2="115.35"/><line class="cls-2" x1="298.44" y1="154.89" x2="21.91" y2="154.89"/><line class="cls-2" x1="298.44" y1="186.2" x2="21.91" y2="186.2"/><line class="cls-2" x1="298.44" y1="231.91" x2="21.91" y2="231.91"/><line class="cls-2" x1="298.44" y1="253.74" x2="21.91" y2="253.74"/><line class="cls-2" x1="298.44" y1="308.93" x2="21.91" y2="308.93"/><line class="cls-2" x1="298.44" y1="327.88" x2="21.91" y2="327.88"/><line class="cls-2" x1="298.44" y1="373.18" x2="21.91" y2="373.18"/><polyline class="cls-2" points="127.93 93.94 127.93 115.35 127.93 154.89"/><line class="cls-2" x1="239.96" y1="115.35" x2="239.96" y2="154.89"/><line class="cls-2" x1="127.93" y1="253.74" x2="127.93" y2="308.93"/><line class="cls-2" x1="202.89" y1="327.88" x2="202.89" y2="412.72"/><line class="cls-2" x1="202.89" y1="231.91" x2="202.89" y2="154.89"/><line class="cls-2" x1="127.93" y1="291.08" x2="21.91" y2="291.08"/><line class="cls-2" x1="298.44" y1="350.94" x2="202.89" y2="350.94"/><line class="cls-2" x1="298.44" y1="209.79" x2="202.89" y2="209.79"/><path class="cls-1" d="M141.72,143.29c7.09-1.41,13.9-4.31,19.78-8.53,1.27-.91,2.72-1.93,3.19-3.51.44-1.48-.1-3.01-1.36-3.88-2.88-1.99-5.85.23-7.44,2.69-1.78,2.76-2.96,6.45-.53,9.21,1.75,2,4.7,2.5,7.23,2.41,3.36-.13,6.77-1.17,9.93-2.23,3.57-1.19,7.04-2.7,10.34-4.52,1.37-.76,2.93-1.53,3.35-3.17.37-1.46-.46-2.86-1.62-3.69-2.58-1.82-5.99-.68-7.84,1.62-1.71,2.12-2.09,5.09-.84,7.53.89,1.74,2.68,2.81,4.54,3.25,4,.95,8.48,0,12.32-1.21,2.44-.76,5.07-1.71,7.22-3.08,2.4-1.53,3.99-4.52,2.25-7.19-2.03-3.12-5.95-1.17-7.64,1.18-1.56,2.16-2.2,5.24-1.18,7.75,1.26,3.12,4.49,3.94,7.57,3.54,3.76-.49,7.51-1.49,11.11-2.66,1.85-.6,3.67-1.27,5.47-2.01.84-.34,1.42-1.11,1.17-2.06-.21-.8-1.22-1.51-2.06-1.17-5.06,2.07-10.51,3.87-15.96,4.58-1.87.25-4.03.05-4.4-2.15-.27-1.63.44-3.56,1.67-4.66.52-.46,1.34-1.05,1.58-.19.22.77-.31,1.43-.87,1.87-1.58,1.24-3.8,1.96-5.67,2.63-2.55.91-5.26,1.58-7.96,1.77-2.14.15-5.41.16-6.32-1.98-.59-1.4-.11-3.12,1.06-4.13.62-.53,1.53-1,2.35-.75.18.05.68.23.74.44.08.26.05.03.05,0,0,.05-.62.38-.6.36-4.64,2.79-9.81,4.8-15.06,6.12-2.06.52-4.16,1.01-6.3.81-1.4-.13-3.2-.61-3.61-2.15-.39-1.42.49-2.92,1.21-4.08.47-.76,1.23-2.1,2.26-2.11,1.14,0,.44.73-.11,1.21-1.04.91-2.28,1.66-3.45,2.4-5.05,3.17-10.61,5.34-16.46,6.5-2.11.42-1.22,3.65.89,3.23h0Z"/><path class="cls-1" d="M48.24,216.53c4.63-.93,9.1-2.74,13.05-5.32,2.82-1.85,8.89-5.91,6.34-10.06s-8.49-.86-10.63,1.99c-2.25,2.99-2.99,7.24-1.33,10.68,2.05,4.24,6.99,4.18,11.06,3.85,4.66-.38,9.19-1.56,13.46-3.47,2.15-.96,4.21-2.12,6.14-3.46,1.75-1.21,3.75-2.55,4.93-4.37,1.05-1.62,1.17-3.99-.24-5.45-1.73-1.8-4.25-1.06-5.93.37-3.24,2.75-5.44,7.7-3.59,11.79,2.04,4.51,7.67,4.26,11.82,3.8,5.04-.55,9.87-2.03,14.64-3.71,3.71-1.31,9.77-3.85,8.53-8.88-.45-1.84-2.06-3.13-3.96-3.01-2.16.14-3.81,2-4.8,3.76-1.14,2.04-1.93,4.56-1.13,6.86.66,1.91,2.24,3.44,4.04,4.31,4.2,2.04,9.57,2.58,14.12,1.67,4.14-.83,8.17-3.21,11.18-6.12,2.13-2.06,5.26-6.22,2.38-9.01-1.33-1.28-3.52-1.2-5.09-.45-1.48.71-2.53,2.09-3.16,3.57-1.43,3.36-.82,7.18,2.31,9.32,3.55,2.41,8.64,1.91,12.59.99,2.38-.56,4.66-1.47,6.81-2.63,1.9-1.03.21-3.92-1.69-2.89-3.13,1.69-6.61,2.72-10.17,2.88-2.3.11-5.85-.11-6.98-2.56-.75-1.62-.1-4.17,1.24-5.31.33-.28,1.36-.84,1.79-.55.5.34-.22,1.65-.45,2.02-1.58,2.49-4.24,4.37-6.8,5.73-3,1.6-6.13,2.2-9.52,2.02-2.78-.15-6.71-.65-8.69-2.84-1.14-1.26-1.01-2.79-.39-4.28.32-.78,1.43-3.17,2.56-3.14,1.21.04.34,1.83-.07,2.3-1.02,1.19-2.55,1.9-3.98,2.45-3.36,1.3-6.85,2.42-10.36,3.26s-7.1,1.5-10.55,1.03c-1.39-.19-2.69-.75-3.26-2.12-.54-1.29-.34-2.78.19-4.04.58-1.37,1.61-2.94,2.81-3.85.18-.14.84-.67,1.11-.47.51.37-.07,1.34-.3,1.65-.92,1.21-2.39,2.16-3.62,3.01-1.37.95-2.79,1.8-4.27,2.56-2.95,1.52-6.11,2.61-9.36,3.29-1.62.34-3.25.56-4.9.67s-3.37.25-4.94-.11c-2.86-.65-3.44-3.88-2.82-6.36.35-1.4,1.1-2.68,2.13-3.7.73-.72,3.03-2.41,4.13-1.48,1.75,1.48-5.7,6.06-6.63,6.59-3.31,1.92-6.89,3.23-10.63,3.98-2.11.43-1.22,3.65.89,3.23h0Z"/><path class="cls-1" d="M62.48,358.93c5.27-1.42,10.68-2.73,15.48-5.41,1.71-.96,3.53-2.21,4.44-4.01s.71-4.35-1.14-5.57c-3.41-2.25-8.61-.01-10.65,3.05-2.56,3.85-1.81,10.19,2.57,12.41,2.09,1.06,4.53,1.14,6.83.97,2.5-.18,5.04-.48,7.5-.99,4.63-.95,9.35-2.94,13.08-5.89,1.57-1.24,3.02-2.91,3.17-4.99.14-1.94-.95-4.01-2.91-4.55-4.09-1.12-7.44,3.11-8.45,6.51-.62,2.1-.66,4.55.6,6.44s3.54,2.82,5.74,3.14c4.71.69,10.07-.25,14.53-1.77,3.79-1.29,7.9-3.2,10.68-6.2,1.11-1.2,2.1-2.79,1.54-4.48-.61-1.86-3-2.78-4.8-2.69-4.74.25-5.91,6.07-4.31,9.65,1.45,3.25,4.75,4.92,8.13,5.4,6.8.97,15.07-1.26,19.71-6.55,1.3-1.49,2.35-3.34,2.05-5.39s-1.81-3.77-3.82-4.18c-3.82-.78-7.82,3.28-7.58,7.01.55,8.47,10.94,11.25,17.94,10.4,2.65-.32,5.18-1.04,7.55-2.28,1.91-1,.22-3.89-1.69-2.89-5.13,2.67-12.75,2.94-17.6-.59-1.71-1.24-3.61-3.89-2.58-6.08.49-1.03,1.56-2.09,2.73-2.28.97-.16,1.77.66,1.77,1.63,0,1.25-1.16,2.39-2,3.17-1.01.94-2.15,1.73-3.35,2.4-2.06,1.16-4.41,1.81-6.73,2.2-4.06.68-10.97.6-11.89-4.65-.19-1.08.07-2.51.95-3.25.45-.38.96-.44,1.52-.3.27.07.48.21.73.3.12.04.24.25.1-.03,0,.02.02.05-.06.2.02-.03-.2.33-.27.42-.34.48-.79.89-1.23,1.28-.78.69-1.64,1.3-2.53,1.83-3.59,2.18-7.68,3.55-11.83,4.15-2.89.42-6.61,1.01-9.32-.37s-1.78-5.55-.03-7.52c.56-.63,1.89-1.66,2.81-1.43.8.21.58,1.4.28,1.97-.64,1.21-1.97,2.09-3.1,2.8-1.28.81-2.64,1.54-4.01,2.18-3.76,1.76-7.86,2.41-11.95,2.83-3.1.31-7.3.59-8.35-3.14-.92-3.25.85-6.52,4.18-7.21.64-.13,2.16-.4,2.6.24.63.91-.89,2.22-1.47,2.67-2.76,2.16-6.44,3.35-9.74,4.36-2.22.67-4.47,1.25-6.72,1.85-2.08.56-1.2,3.79.89,3.23h0Z"/><path class="cls-1" d="M226.69,399.69c4.76-1.12,9.89-2.83,13.81-5.84,3.2-2.46,6.26-7.65,2.98-11.33s-9.01-1.28-11.5,1.85c-2.84,3.57-2.62,8.85.47,12.21,2.92,3.18,7.84,3.86,11.84,2.66,4.33-1.31,8.51-4.71,11.1-8.38,1.22-1.73,1.98-4.11.65-5.99s-3.6-1.92-5.44-.93c-3.66,1.96-4.52,6.78-3.62,10.51,1.14,4.73,4.98,7.99,9.77,8.57,6.18.76,11.82-2.57,17.92-2.57,2.16,0,2.16-3.35,0-3.35-4.1,0-7.92,1.41-11.89,2.23-3.21.67-7.13.95-9.84-1.26-2.06-1.68-3.13-4.44-2.94-7.07.09-1.23.48-2.64,1.4-3.52.53-.51,2.21-1.52,1.96-.02s-1.71,2.72-2.69,3.7c-1.24,1.25-2.56,2.41-4.06,3.35-2.69,1.68-5.91,2.52-9.01,1.49s-4.82-4-4.18-7.08c.58-2.77,3.53-5.28,6.47-4.73,1.74.33,1.83,2.24,1.33,3.62-.61,1.68-2.05,2.98-3.5,3.94-3.55,2.34-7.8,3.75-11.91,4.71-2.1.49-1.21,3.72.89,3.23h0Z"/><line class="cls-3" x1="320.01" y1="26.8" x2="292.69" y2="1.92"/><path class="cls-1" d="M100.59,40.91c6.19-1.87,12.54-3.6,18.15-6.93,2-1.19,4.12-2.72,5.12-4.89s.61-4.97-1.58-6.25c-1.89-1.11-4.44-.83-6.45-.23-2.57.78-4.77,2.54-5.96,4.96-2.53,5.17-.66,12.36,5.26,14.07,2.74.79,5.68.46,8.46.08,3.06-.42,6.11-.88,9.07-1.76s5.79-2.16,8.48-3.7c2.05-1.18,4.14-2.47,5.78-4.2s2.79-3.97,2.15-6.38-2.67-3.79-5.11-3.43c-4.91.73-7.78,5.98-7.94,10.56-.19,5.63,5.21,8.61,10.14,9.3,5.18.72,10.56-.46,15.35-2.42,2.4-.98,4.59-2.27,6.86-3.51,2.41-1.32,4.57-2.87,5.92-5.32.96-1.74,1.65-4.06.57-5.91-1.2-2.07-4.21-2.62-6.35-1.93-2.31.75-3.83,2.94-4.25,5.26-.49,2.75.48,5.45,1.97,7.75,1.66,2.57,4,4.64,7.06,5.27,2.38.49,4.88.29,7.22-.33,3.49-.91,6.91-2.32,10.11-3.97s6.93-3.85,8.69-7.15.47-8.22-3.59-9.12c-4.68-1.03-9.22,4.22-8.6,8.65,1.36,9.65,13.23,12.19,21.31,11.05,3.08-.43,6.05-1.39,8.76-2.92,1.88-1.06.19-3.95-1.69-2.89-6.21,3.49-15.76,4.12-21.75-.3-2.27-1.68-4.41-5.09-2.77-7.85.68-1.15,1.92-2.31,3.3-2.5s2.18,1.02,2.45,2.05c.21.79,0,1.6-.52,2.47-.64,1.06-1.62,1.95-2.61,2.73-2.42,1.89-5.28,3.3-8.1,4.47-2.2.92-4.51,1.8-6.86,2.27s-4.84.44-6.84-.81-3.35-3.44-4.03-5.55c-.48-1.49-.46-3.27.56-4.55.72-.9,2.87-1.56,3.63-.43.51.76-.5,2.48-.98,3.21-1.2,1.82-3.14,2.79-5,3.82-3.5,1.93-6.88,3.62-10.8,4.56-3.79.91-8.13,1.29-11.81-.27-1.56-.66-3.36-1.76-3.84-3.49-.51-1.84.1-3.98.94-5.63.69-1.36,1.7-2.47,3.15-3.05,1.16-.47,2.18-.31,2.29,1.16.11,1.57-1.43,2.92-2.51,3.83-1.4,1.16-3.01,2.07-4.58,2.97-4.55,2.57-9.44,3.79-14.57,4.54-3.72.55-9.27,1.61-11.38-2.48-1.91-3.69-.23-8.72,3.86-9.95,1.02-.31,3.22-.89,4.08.04.99,1.07-.59,2.79-1.32,3.46-1.32,1.21-2.96,2.08-4.55,2.88-2.37,1.2-4.83,2.17-7.35,3.02s-5.26,1.63-7.89,2.43c-2.06.62-1.18,3.85.89,3.23h0Z"/></svg>