<?xml version="1.0" encoding="UTF-8"?>
<svg id="Layer_1" xmlns="http://www.w3.org/2000/svg" version="1.1" viewBox="0 0 321.9 443">
  <!-- Generator: Adobe Illustrator 30.4.0, SVG Export Plug-In . SVG Version: 2.1.4 Build 226)  -->
  <defs>
    <style>
      .st0 {
        stroke-linecap: round;
        stroke-linejoin: round;
        stroke-width: 3.3px;
      }

      .st0, .st1 {
        fill: none;
        stroke: #27417e;
      }

      .st2 {
        fill: #27417e;
      }

      .st1 {
        stroke-miterlimit: 10;
        stroke-width: 3.4px;
      }

      .st3 {
        fill: #7498c5;
      }
    </style>
  </defs>
  <rect class="st3" width="321.9" height="443"/>
  <rect class="st1" x="21.9" y="51.1" width="276.5" height="369.7"/>
  <line class="st0" x1="320" y1="26.8" x2="292.7" y2="1.9"/>
  <path class="st2" d="M133.5,14.5c0,.4-.6,1.4-1.1,1.4-1.2,0-2.3-.1-3.5-.1s-1.8,0-2.6,0l-.7,4.2c-.4,2.3-.7,4.6-1,6.9-.1,1.1,0,2.3-.3,3.4l-1.2,8c-.2,1.4-1.1,2.6-2.5,2.7-.7,0-1.3-.5-1.2-1.1.2-1.3.7-2.8.9-4.1l.3-2.4c.4-2.8.6-5.6,1-8.4l.5-3.7.9-5.4c-.9,0-1.2.1-1.5.1-1.1,0-2,0-2.8,0-1.6,0-2.1-.3-2.1-2,.7-.7,1.6-1,2.4-1,1.2,0,2.1.2,3,.2,2.8,0,5.7-.1,8.5-.1s3.2.2,3,1.6h0Z"/>
  <path class="st2" d="M152.8,13.4c1.9.7,3.6,2,4.1,3.9,1.1,3.5,1.1,4.9.5,8.6l-.4,3.1c-.7,4.5-3.8,9.1-8.8,11.2-2.2.9-3.4,1.2-5.7,1.2-9.6,0-11.6-7.4-10.4-14.9.2-1.5.8-3.1,1.4-4.6,2.4-6.1,6.5-9.7,13.7-9.7s3.8.6,5.6,1.1h0ZM146.8,15.4c-4.5,0-8.1,2.2-9.7,6.2-.5,1.1-.7,2.2-1,3.4-.2.8-.6,1.6-.7,2.4-.8,5.3.9,10.8,7.7,10.8s3.6-.3,6.1-1.9c3.5-2.3,4.5-6.5,5.1-9.8.2-1.4.2-4.4-.1-5.6-.6-4-2.6-5.4-7.3-5.4h0Z"/>
  <path class="st2" d="M186.6,30.2l-.7,4.5c-.6,4-5.4,6-9.2,6h-4.4c-1.1,0-2.1,0-1.9-1.3.4-1.3.4-3.6,1.1-7.8.5-3.1,1.3-6.1,1.8-9.2.5-3.2.8-4.8.9-6.4,0-.7-.1-1.6,0-2.2.2-1.5,5.1-1,6.1-1h2.3c4.3,0,6.3,2.8,5.9,6.4-.1,1.4-.3,2.9-.6,4.3-.4,2.2-.9,4.4-1.2,6.6h0ZM180.4,15.7c-1,0-2.1,0-3.1.1-.2,1.6-.4,3.3-.6,4.9-.5,3.2-1.1,6.3-1.6,9.5-.4,2.5-.6,5-1,7.5.6,0,1.2,0,1.9,0s1.8,0,2.7-.2c2.1-.3,3.8-2.1,4.1-4l.8-4.8c.3-2,.9-4,1.2-6,.6-4.1,1.2-7.2-4.3-7.2Z"/>
  <path class="st2" d="M212.2,13.4c1.9.7,3.6,2,4.1,3.9,1.1,3.5,1.1,4.9.5,8.6l-.4,3.1c-.7,4.5-3.8,9.1-8.8,11.2-2.2.9-3.4,1.2-5.7,1.2-9.6,0-11.6-7.4-10.4-14.9.2-1.5.8-3.1,1.4-4.6,2.4-6.1,6.5-9.7,13.7-9.7s3.8.6,5.6,1.1h0ZM206.1,15.4c-4.5,0-8.1,2.2-9.7,6.2-.5,1.1-.7,2.2-1,3.4-.2.8-.6,1.6-.7,2.4-.8,5.3.9,10.8,7.7,10.8s3.6-.3,6.1-1.9c3.5-2.3,4.5-6.5,5.1-9.8.2-1.4.2-4.4-.1-5.6-.6-4-2.6-5.4-7.3-5.4h0Z"/>
  <path class="st2" d="M220.4,40.3c-.4,0-.8-.1-1.1-.3-1-.1-.6-2.2-.5-2.9l.3-1.7c.1-.6.2-1.9,1.2-1.9s1.8.2,2.5,1.1l-.3,2.1c-.1.7-.4,3.1-1.4,3.4h0c-.2,0-.4,0-.6,0ZM222.8,27.8c-2.9,0-2.2-2.7-1.9-4.6.2-1.2.5-2,2.1-2s1.3.6,1.6,1.3l-.5,2.8c0,.5,0,1-.1,1.5,0,.6-.5,1-1.1,1h0Z"/>
</svg>