<?xml version="1.0" encoding="UTF-8"?><svg id="Layer_1" xmlns="http://www.w3.org/2000/svg" viewBox="0 0 321.88 443.03"><defs><style>.cls-1{fill:#27417e;}.cls-2{stroke-miterlimit:10;}.cls-2,.cls-3{fill:none;stroke:#27417e;stroke-width:3.35px;}.cls-3{stroke-linecap:round;stroke-linejoin:round;}.cls-4{fill:#7498c5;}</style></defs><rect class="cls-4" width="321.88" height="443.03"/><rect class="cls-2" x="21.91" y="51.1" width="276.53" height="361.62"/><line class="cls-3" x1="320.01" y1="26.8" x2="292.69" y2="1.92"/><path class="cls-1" d="M133.54,14.53c-.06.39-.56,1.39-1.12,1.39-1.2,0-2.33-.12-3.53-.12-.85,0-1.76.04-2.61,0l-.71,4.22c-.36,2.32-.72,4.61-.96,6.89-.13,1.12-.1,2.28-.27,3.37l-1.25,7.97c-.23,1.43-1.14,2.63-2.51,2.67-.68,0-1.34-.46-1.23-1.12.21-1.35.65-2.75.86-4.14l.34-2.44c.4-2.79.62-5.57,1.02-8.36l.54-3.72.89-5.42c-.87.08-1.17.12-1.47.12-1.07,0-2.02.08-2.79.08-1.62,0-2.14-.27-2.08-2.01.74-.66,1.57-1.01,2.38-1.01,1.15,0,2.11.16,3.01.16,2.82,0,5.66-.12,8.48-.12,1.11,0,3.22.19,3,1.59Z"/><path class="cls-1" d="M152.83,13.37c1.94.7,3.57,2.01,4.14,3.87,1.07,3.52,1.07,4.88.48,8.63l-.4,3.06c-.71,4.53-3.83,9.14-8.77,11.19-2.24.93-3.4,1.24-5.67,1.24-9.58,0-11.63-7.36-10.45-14.87.23-1.47.79-3.1,1.36-4.57,2.37-6.12,6.48-9.68,13.66-9.68,2.01,0,3.8.58,5.64,1.12ZM146.78,15.38c-4.53,0-8.08,2.17-9.74,6.19-.48,1.12-.74,2.25-1,3.37-.21.77-.55,1.63-.67,2.36-.83,5.26.95,10.8,7.66,10.8,2.95,0,3.65-.35,6.12-1.94,3.52-2.28,4.52-6.46,5.05-9.83.21-1.36.18-4.41-.15-5.58-.65-4.03-2.62-5.38-7.28-5.38Z"/><path class="cls-1" d="M186.55,30.25l-.7,4.45c-.62,3.95-5.35,6.04-9.24,6.04l-4.41.04c-1.15,0-2.14,0-1.93-1.32.41-1.28.4-3.6,1.06-7.82.48-3.06,1.3-6.12,1.78-9.17.51-3.21.75-4.8.88-6.39.02-.7-.14-1.55-.03-2.25.23-1.47,5.15-.97,6.1-.97l2.32-.08c4.28,0,6.31,2.83,5.95,6.5-.14,1.43-.33,2.9-.55,4.34-.35,2.21-.87,4.41-1.21,6.62ZM180.42,15.69c-1.03,0-2.06.04-3.1.15-.17,1.63-.39,3.29-.64,4.92-.5,3.17-1.12,6.31-1.62,9.49-.39,2.48-.61,4.99-.97,7.51.64,0,1.23.08,1.87.08.9,0,1.81-.08,2.72-.16,2.11-.35,3.76-2.13,4.05-4.03l.75-4.76c.32-2.01.93-3.99,1.24-6,.65-4.14,1.22-7.2-4.3-7.2Z"/><path class="cls-1" d="M212.16,13.37c1.94.7,3.57,2.01,4.14,3.87,1.07,3.52,1.07,4.88.48,8.63l-.4,3.06c-.71,4.53-3.83,9.14-8.77,11.19-2.24.93-3.4,1.24-5.67,1.24-9.58,0-11.63-7.36-10.45-14.87.23-1.47.79-3.1,1.36-4.57,2.37-6.12,6.48-9.68,13.66-9.68,2.01,0,3.8.58,5.64,1.12ZM206.12,15.38c-4.53,0-8.08,2.17-9.74,6.19-.48,1.12-.74,2.25-1,3.37-.21.77-.55,1.63-.67,2.36-.83,5.26.95,10.8,7.66,10.8,2.95,0,3.65-.35,6.12-1.94,3.52-2.28,4.52-6.46,5.05-9.83.21-1.36.18-4.41-.15-5.58-.65-4.03-2.62-5.38-7.28-5.38Z"/><path class="cls-1" d="M220.41,40.28c-.43,0-.79-.12-1.11-.31-.97-.12-.59-2.25-.49-2.87l.27-1.7c.1-.62.21-1.86,1.19-1.86,1.37,0,1.77.19,2.47,1.12l-.33,2.13c-.12.74-.36,3.1-1.35,3.41v-.04c-.22.08-.44.12-.65.12ZM222.76,27.77c-2.95,0-2.23-2.67-1.93-4.57.18-1.16.52-1.97,2.06-1.97.98,0,1.31.62,1.63,1.32l-.52,2.75c-.08.5-.03,1.01-.1,1.47-.09.58-.46,1.01-1.14,1.01Z"/></svg>