<?xml version="1.0" encoding="UTF-8"?><svg id="Layer_1" xmlns="http://www.w3.org/2000/svg" xmlns:xlink="http://www.w3.org/1999/xlink" viewBox="0 0 54.94 70.94"><defs><style>.cls-1{fill:url(#linear-gradient-2);}.cls-2{fill:#ca8b3e;}.cls-3{fill:url(#linear-gradient);}</style><linearGradient id="linear-gradient" x1="0" y1="51.57" x2="46.58" y2="51.57" gradientUnits="userSpaceOnUse"><stop offset="0" stop-color="#dadf50"/><stop offset=".23" stop-color="#cdc249"/><stop offset=".72" stop-color="#ac7839"/><stop offset=".97" stop-color="#9b5131"/></linearGradient><linearGradient id="linear-gradient-2" x1="1.32" y1="29.34" x2="54.94" y2="29.34" gradientUnits="userSpaceOnUse"><stop offset="0" stop-color="#efad42"/><stop offset=".97" stop-color="#fdf7b4"/></linearGradient></defs><path class="cls-2" d="M48.84,20.86c-1.94-1.97-4.4-3.34-6.9-4.54-5.22-2.52-10.83-4.43-16.62-4.69s-11.8,1.29-16.22,5.03C1.67,22.96.19,33.73,0,43.47c-.19,10,2.79,24.83,14.43,27.15,2.46.49,5.01.35,7.51.09,2.07-.22,4.14-.53,6.13-1.15,9.96-3.12,16.5-12.93,21.23-21.61s7.07-19.4-.47-27.08Z"/><path class="cls-2" d="M52.92,5.62c-3.26-2.07-6.65-3.94-10.16-5.62-2.54,4.34-5.09,8.68-7.63,13.02-1.78,3.04,4.4,4.4,6.38,3.45,1.42-.68,11.14-11.03,11.41-10.86Z"/><path class="cls-3" d="M46.58,49.81l-10.22,3.83-2.04-7.02c.5-.3,1-.61,1.48-.93l-1.65.35-1.43-4.91c-.18,1.73-.19,3.48-.04,5.22l-9.82,2.07-2.22-9.37c.75-.43,1.48-.88,2.19-1.37l-14.56,2.99-1.04-6.3c-.2,2.19-.3,4.38-.29,6.57L0,42.35c2.29.48,4.64.66,6.98.57.1,2.9.38,5.79.84,8.66l-6.33,1.33c2.23.17,4.41.13,6.56-.01.63,3.51,1.53,6.97,2.69,10.34l-4.45,1.67c1.73.26,3.47.39,5.21.42.45,1.17.92,2.32,1.42,3.46l-.57-3.46c4.36,0,8.69-.71,12.84-1.99.72,1.72,1.52,3.41,2.39,5.06l-1.28-5.42c3.56-1.2,6.97-2.83,10.17-4.83.62,1.05,1.31,2.07,2.08,3.03l-1.07-3.67c3.32-2.19,6.4-4.77,9.1-7.69ZM8.63,42.81c4.17-.39,8.25-1.65,11.89-3.7-.05,3.23.16,6.46.63,9.66l-11.15,2.35-1.37-8.31ZM11.93,62.79l-1.66-10.07c2.87-.27,5.73-.67,8.66-.96.89-.09,1.78-.22,2.67-.38.46,2.4,1.07,4.78,1.81,7.1l-11.48,4.3ZM25.09,57.86l-1.62-6.84c3.25-.74,6.4-1.94,9.33-3.54.3,2.34.9,4.63,1.77,6.82l-9.49,3.56Z"/><path class="cls-1" d="M41.33,46.63c-12.85-5.59-25.71-11.19-38.09-17.75-.86-.45-1.82-1.06-1.91-2.03-.05-.54.18-1.06.42-1.55,2.32-4.71,5.39-9.24,9.78-12.13,7.74-5.11,18.08-4.17,26.79-.97,4.44,1.63,8.82,3.91,11.74,7.63,3.54,4.53,4.8,9.56,4.88,15.21.03,2.25,0,4.53-.57,6.71-.55,2.09-2.17,5.38-3.99,6.68-2.67,1.91-6.59-.73-9.05-1.8Z"/></svg>