<?xml version="1.0" encoding="UTF-8"?>
<svg id="Layer_1" xmlns="http://www.w3.org/2000/svg" xmlns:xlink="http://www.w3.org/1999/xlink" version="1.1" viewBox="0 0 1036.3 1685.6">
  <!-- Generator: Adobe Illustrator 30.4.0, SVG Export Plug-In . SVG Version: 2.1.4 Build 226)  -->
  <defs>
    <style>
      .st0, .st1, .st2 {
        fill: none;
      }

      .st3 {
        fill: #07a16b;
      }

      .st4 {
        fill: #7483bc;
      }

      .st5 {
        fill: #27417b;
      }

      .st6 {
        fill: #732229;
      }

      .st1 {
        stroke: #fff;
        stroke-width: 3px;
      }

      .st1, .st2 {
        stroke-miterlimit: 10;
      }

      .st2 {
        stroke: #e3785b;
        stroke-width: 5px;
      }

      .st7 {
        fill: url(#linear-gradient);
      }

      .st8 {
        fill: #e3785b;
      }

      .st9 {
        fill: #faf9f9;
      }

      .st10 {
        fill: #9a3e31;
      }

      .st11 {
        fill: #267a58;
      }

      .st12 {
        fill: #fff;
      }

      .st13 {
        fill: #8cc056;
      }

      .st14 {
        fill: #007277;
      }

      .st15 {
        fill: #67afe0;
      }

      .st16 {
        fill: #0e6b4d;
      }

      .st17 {
        fill: #06a16c;
      }

      .st18 {
        fill: #fdf7b4;
      }

      .st19 {
        fill: #b3b3b3;
      }

      .st20 {
        fill: #676768;
      }

      .st21 {
        fill: #7498c5;
      }

      .st22 {
        fill: #297880;
      }

      .st23 {
        fill: #dadf53;
      }

      .st24 {
        clip-path: url(#clippath);
      }
    </style>
    <clipPath id="clippath">
      <rect class="st0" width="1036.3" height="1685.6"/>
    </clipPath>
    <linearGradient id="linear-gradient" x1="186.1" y1="2107.5" x2="690.2" y2="2107.5" gradientTransform="translate(0 -818)" gradientUnits="userSpaceOnUse">
      <stop offset="0" stop-color="#e99f99" stop-opacity=".6"/>
      <stop offset=".3" stop-color="#c8a0ae" stop-opacity=".8"/>
      <stop offset=".8" stop-color="#a3a1c4" stop-opacity=".9"/>
      <stop offset="1" stop-color="#94a2cf"/>
    </linearGradient>
  </defs>
  <rect class="st19" width="1036.3" height="1685.6"/>
  <g class="st24">
    <g>
      <rect class="st3" x="-2.2" y=".4" width="1038.5" height="1689.8"/>
      <path class="st11" d="M941.1,1463c1.3-.6,2.3-1.7,3.4-2.5s2.6-1.7,3.9-2.6c2.4-1.6,4.9-3.2,6.9-5.4,2.1-2.4,4.6-7.7,0-9.1s-8.8,3.8-10.7,6.7c-3,4.3-4.4,9.5-3.3,12.9h-.2Z"/>
      <path class="st11" d="M935.7,1465c-1.3-.6-2.3-1.7-3.4-2.5s-2.6-1.7-3.9-2.6c-2.4-1.6-4.9-3.2-6.9-5.4-2.1-2.4-4.6-7.7,0-9.1,4.7-1.4,8.8,3.8,10.7,6.7,3,4.3,4.4,9.5,3.3,12.9h.2Z"/>
      <path class="st11" d="M932.9,1448c.3.9.9,1.6,1.7,2.2.3.2.6.4,1,.5,2,.2,6.6-4.8,7.5-6.4s1.2-3.4-.6-4.7c-4.4-3.3-10.9,4-9.6,8.4h0Z"/>
      <path class="st11" d="M913.3,1300.6c1.3-.6,2.3-1.7,3.4-2.5s2.6-1.7,3.9-2.6c2.4-1.6,4.9-3.2,6.9-5.4,2.1-2.4,4.6-7.7,0-9.1-4.7-1.4-8.8,3.8-10.7,6.7-3,4.3-4.4,9.5-3.3,12.9h-.2Z"/>
      <path class="st11" d="M907.9,1302.6c-1.3-.6-2.3-1.7-3.4-2.5s-2.6-1.7-3.9-2.6c-2.4-1.6-4.9-3.2-6.9-5.4-2.1-2.4-4.6-7.7,0-9.1,4.7-1.4,8.8,3.8,10.7,6.7,3,4.3,4.4,9.5,3.3,12.9h.2Z"/>
      <path class="st11" d="M905.1,1285.6c.3.9.9,1.6,1.7,2.2.3.2.6.4,1,.5,2,.2,6.6-4.8,7.5-6.4s1.2-3.4-.6-4.7c-4.4-3.3-10.9,4-9.6,8.4h0Z"/>
      <path class="st11" d="M101.2,911.1c1.3-.6,2.3-1.7,3.4-2.5s2.6-1.7,3.9-2.6c2.4-1.6,4.9-3.2,6.9-5.4,2.1-2.4,4.6-7.7,0-9.1s-8.8,3.8-10.7,6.7c-3,4.3-4.4,9.5-3.3,12.9h-.2Z"/>
      <path class="st11" d="M95.8,913.1c-1.3-.6-2.3-1.7-3.4-2.5s-2.6-1.7-3.9-2.6c-2.4-1.6-4.9-3.2-6.9-5.4-2.1-2.4-4.6-7.7,0-9.1,4.7-1.4,8.8,3.8,10.7,6.7,3,4.3,4.4,9.5,3.3,12.9h.2Z"/>
      <path class="st11" d="M93,896.1c.3.9.9,1.6,1.7,2.2.3.2.6.4,1,.5,2,.2,6.6-4.8,7.5-6.4s1.2-3.4-.6-4.7c-4.4-3.3-10.9,4-9.6,8.4h0Z"/>
      <path class="st11" d="M36.6,973.7c1.3-.6,2.3-1.7,3.4-2.5s2.6-1.7,3.9-2.6c2.4-1.6,4.9-3.2,6.9-5.4,2.1-2.4,4.6-7.7,0-9.1s-8.8,3.8-10.7,6.7c-3,4.3-4.4,9.5-3.3,12.9h-.2Z"/>
      <path class="st11" d="M31.2,975.7c-1.3-.6-2.3-1.7-3.4-2.5s-2.6-1.7-3.9-2.6c-2.4-1.6-4.9-3.2-6.9-5.4-2.1-2.4-4.6-7.7.1-9.1,4.7-1.4,8.8,3.8,10.7,6.7,3,4.3,4.4,9.5,3.3,12.9h0Z"/>
      <path class="st11" d="M28.4,958.7c.3.9.9,1.6,1.7,2.2.3.2.6.4,1,.5,2,.2,6.6-4.8,7.5-6.4s1.2-3.4-.6-4.7c-4.4-3.3-10.9,4-9.6,8.4h0Z"/>
      <path class="st11" d="M1007.8,1233.7c1.3-.6,2.3-1.7,3.4-2.5s2.6-1.7,3.9-2.6c2.4-1.6,4.9-3.2,6.9-5.4,2.1-2.4,4.6-7.7,0-9.1s-8.8,3.8-10.7,6.7c-3,4.3-4.4,9.5-3.3,12.9h-.2Z"/>
      <path class="st11" d="M1002.4,1235.7c-1.3-.6-2.3-1.7-3.4-2.5s-2.6-1.7-3.9-2.6c-2.4-1.6-4.9-3.2-6.9-5.4-2.1-2.4-4.6-7.7,0-9.1,4.7-1.4,8.8,3.8,10.7,6.7,3,4.3,4.4,9.5,3.3,12.9h.2Z"/>
      <path class="st11" d="M999.6,1218.7c.3.9.9,1.6,1.7,2.2.3.2.6.4,1,.5,2,.2,6.6-4.8,7.5-6.4s1.2-3.4-.6-4.7c-4.4-3.3-10.9,4-9.6,8.4h0Z"/>
      <rect class="st19" x="-2.2" width="1035.6" height="183.7"/>
      <rect class="st17" x="-2.2" y="80.1" width="1035.6" height="103.6"/>
      <path class="st11" d="M965.8,133.4c1.3-.6,2.3-1.7,3.4-2.5s2.6-1.7,3.9-2.6c2.4-1.6,4.9-3.2,6.9-5.4,2.1-2.4,4.6-7.7,0-9.1-4.7-1.4-8.8,3.8-10.7,6.7-3,4.3-4.4,9.5-3.3,12.9h-.2Z"/>
      <path class="st11" d="M960.4,135.4c-1.3-.6-2.3-1.7-3.4-2.5s-2.6-1.7-3.9-2.6c-2.4-1.6-4.9-3.2-6.9-5.4-2.1-2.4-4.6-7.7,0-9.1,4.7-1.4,8.8,3.8,10.7,6.7,3,4.3,4.4,9.5,3.3,12.9h.2Z"/>
      <path class="st11" d="M957.6,118.4c.3.9.9,1.6,1.7,2.2.3.2.6.4,1,.5,2,.2,6.6-4.8,7.5-6.4s1.2-3.4-.6-4.7c-4.4-3.3-10.9,4-9.6,8.4h0Z"/>
      <path class="st11" d="M1004.4,175.6c1.3-.6,2.3-1.7,3.4-2.5,1.1-.8,2.6-1.7,3.9-2.6,2.4-1.6,4.9-3.2,6.9-5.4,2.1-2.4,4.6-7.7,0-9.1-4.7-1.4-8.8,3.8-10.7,6.7-3,4.3-4.4,9.5-3.3,12.9h-.2Z"/>
      <path class="st11" d="M999,177.6c-1.3-.6-2.3-1.7-3.4-2.5s-2.6-1.7-3.9-2.6c-2.4-1.6-4.9-3.2-6.9-5.4-2.1-2.4-4.6-7.7,0-9.1,4.7-1.4,8.8,3.8,10.7,6.7,3,4.3,4.4,9.5,3.3,12.9h.2Z"/>
      <path class="st11" d="M996.2,160.5c.3.9.9,1.6,1.7,2.2.3.2.6.4,1,.5,2,.2,6.6-4.8,7.5-6.4s1.2-3.4-.6-4.7c-4.4-3.3-10.9,4-9.6,8.4h0Z"/>
      <path class="st11" d="M882.8,118.1c1.3-.6,2.3-1.7,3.4-2.5s2.6-1.7,3.9-2.6c2.4-1.6,4.9-3.2,6.9-5.4,2.1-2.4,4.6-7.7,0-9.1-4.7-1.4-8.8,3.8-10.7,6.7-3,4.3-4.4,9.5-3.3,12.9h-.2Z"/>
      <path class="st11" d="M877.4,120.1c-1.3-.6-2.3-1.7-3.4-2.5s-2.6-1.7-3.9-2.6c-2.4-1.6-4.9-3.2-6.9-5.4-2.1-2.4-4.6-7.7,0-9.1,4.7-1.4,8.8,3.8,10.7,6.7,3,4.3,4.4,9.5,3.3,12.9h.2Z"/>
      <path class="st11" d="M874.6,103.1c.3.9.9,1.6,1.7,2.2.3.2.6.4,1,.5,2,.2,6.6-4.8,7.5-6.4s1.2-3.4-.6-4.7c-4.4-3.3-10.9,4-9.6,8.4h0Z"/>
      <path class="st11" d="M800.4,166.9c1.3-.6,2.3-1.7,3.4-2.5s2.6-1.7,3.9-2.6c2.4-1.6,4.9-3.2,6.9-5.4,2.1-2.4,4.6-7.7,0-9.1s-8.8,3.8-10.7,6.7c-3,4.3-4.4,9.5-3.3,12.9h-.2Z"/>
      <path class="st11" d="M795,168.9c-1.3-.6-2.3-1.7-3.4-2.5-1.1-.8-2.6-1.7-3.9-2.6-2.4-1.6-4.9-3.2-6.9-5.4-2.1-2.4-4.6-7.7,0-9.1,4.7-1.4,8.8,3.8,10.7,6.7,3,4.3,4.4,9.5,3.3,12.9h.2Z"/>
      <path class="st11" d="M792.2,151.9c.3.9.9,1.6,1.7,2.2.3.2.6.4,1,.5,2,.2,6.6-4.8,7.5-6.4s1.2-3.4-.6-4.7c-4.4-3.3-10.9,4-9.6,8.4h0Z"/>
      <path class="st11" d="M685.9,134.6c1.3-.6,2.3-1.7,3.4-2.5,1.1-.8,2.6-1.7,3.9-2.6,2.4-1.6,4.9-3.2,6.9-5.4,2.1-2.4,4.6-7.7,0-9.1-4.7-1.4-8.8,3.8-10.7,6.7-3,4.3-4.4,9.5-3.3,12.9h-.2Z"/>
      <path class="st11" d="M680.5,136.6c-1.3-.6-2.3-1.7-3.4-2.5s-2.6-1.7-3.9-2.6c-2.4-1.6-4.9-3.2-6.9-5.4-2.1-2.4-4.6-7.7,0-9.1,4.7-1.4,8.8,3.8,10.7,6.7,3,4.3,4.4,9.5,3.3,12.9h.2Z"/>
      <path class="st11" d="M677.7,119.6c.3.9.9,1.6,1.7,2.2.3.2.6.4,1,.5,2,.2,6.6-4.8,7.5-6.4s1.2-3.4-.6-4.7c-4.4-3.3-10.9,4-9.6,8.4h0Z"/>
      <path class="st11" d="M604.7,166.9c1.3-.6,2.3-1.7,3.4-2.5s2.6-1.7,3.9-2.6c2.4-1.6,4.9-3.2,6.9-5.4,2.1-2.4,4.6-7.7,0-9.1-4.7-1.4-8.8,3.8-10.7,6.7-3,4.3-4.4,9.5-3.3,12.9h-.2Z"/>
      <path class="st11" d="M599.3,168.9c-1.3-.6-2.3-1.7-3.4-2.5-1.1-.8-2.6-1.7-3.9-2.6-2.4-1.6-4.9-3.2-6.9-5.4-2.1-2.4-4.6-7.7,0-9.1,4.7-1.4,8.8,3.8,10.7,6.7,3,4.3,4.4,9.5,3.3,12.9h.2Z"/>
      <path class="st11" d="M596.5,151.9c.3.9.9,1.6,1.7,2.2.3.2.6.4,1,.5,2,.2,6.6-4.8,7.5-6.4s1.2-3.4-.6-4.7c-4.4-3.3-10.9,4-9.6,8.4h0Z"/>
      <path class="st11" d="M518.3,137.9c1.3-.6,2.3-1.7,3.4-2.5s2.6-1.7,3.9-2.6c2.4-1.6,4.9-3.2,6.9-5.4,2.1-2.4,4.6-7.7,0-9.1-4.7-1.4-8.8,3.8-10.7,6.7-3,4.3-4.4,9.5-3.3,12.9h-.2Z"/>
      <path class="st11" d="M512.9,139.9c-1.3-.6-2.3-1.7-3.4-2.5s-2.6-1.7-3.9-2.6c-2.4-1.6-4.9-3.2-6.9-5.4-2.1-2.4-4.6-7.7.1-9.1s8.8,3.8,10.7,6.7c3,4.3,4.4,9.5,3.3,12.9h0Z"/>
      <path class="st11" d="M510.1,122.9c.3.9.9,1.6,1.7,2.2.3.2.6.4,1,.5,2,.2,6.6-4.8,7.5-6.4s1.2-3.4-.6-4.7c-4.4-3.3-10.9,4-9.6,8.4h0Z"/>
      <path class="st11" d="M446.5,153.7c1.3-.6,2.3-1.7,3.4-2.5s2.6-1.7,3.9-2.6c2.4-1.6,4.9-3.2,6.9-5.4,2.1-2.4,4.6-7.7-.1-9.1-4.7-1.4-8.8,3.8-10.7,6.7-3,4.3-4.4,9.5-3.3,12.9h-.1,0Z"/>
      <path class="st11" d="M441,155.7c-1.3-.6-2.3-1.7-3.4-2.5s-2.6-1.7-3.9-2.6c-2.4-1.6-4.9-3.2-6.9-5.4-2.1-2.4-4.6-7.7.1-9.1,4.7-1.4,8.8,3.8,10.7,6.7,3,4.3,4.4,9.5,3.3,12.9h.1,0Z"/>
      <path class="st11" d="M438.2,138.7c.3.9.9,1.6,1.7,2.2.3.2.6.4,1,.5,2,.2,6.6-4.8,7.5-6.4s1.2-3.4-.6-4.7c-4.4-3.3-10.9,4-9.6,8.4Z"/>
      <path class="st11" d="M339.9,143c1.3-.6,2.3-1.7,3.4-2.5s2.6-1.7,3.9-2.6c2.4-1.6,4.9-3.2,6.9-5.4,2.1-2.4,4.6-7.7-.1-9.1s-8.8,3.8-10.7,6.7c-3,4.3-4.4,9.5-3.3,12.9h-.1,0Z"/>
      <path class="st11" d="M334.5,145.1c-1.3-.6-2.3-1.7-3.4-2.5s-2.6-1.7-3.9-2.6c-2.4-1.6-4.9-3.2-6.9-5.4-2.1-2.4-4.6-7.7.1-9.1s8.8,3.8,10.7,6.7c3,4.3,4.4,9.5,3.3,12.9h.1,0Z"/>
      <path class="st11" d="M331.7,128c.3.9.9,1.6,1.7,2.2.3.2.6.4,1,.5,2,.2,6.6-4.8,7.5-6.4s1.2-3.4-.6-4.7c-4.4-3.3-10.9,4-9.6,8.4Z"/>
      <path class="st11" d="M226.2,111.5c1.3-.6,2.3-1.7,3.4-2.5,1.1-.8,2.6-1.7,3.9-2.6,2.4-1.6,4.9-3.2,6.9-5.4,2.1-2.4,4.6-7.7-.1-9.1-4.7-1.4-8.8,3.8-10.7,6.7-3,4.3-4.4,9.5-3.3,12.9h-.1,0Z"/>
      <path class="st11" d="M220.8,113.6c-1.3-.6-2.3-1.7-3.4-2.5s-2.6-1.7-3.9-2.6c-2.4-1.6-4.9-3.2-6.9-5.4-2.1-2.4-4.6-7.7.1-9.1,4.7-1.4,8.8,3.8,10.7,6.7,3,4.3,4.4,9.5,3.3,12.9h.1,0Z"/>
      <path class="st11" d="M218,96.5c.3.9.9,1.6,1.7,2.2.3.2.6.4,1,.5,2,.2,6.6-4.8,7.5-6.4s1.2-3.4-.6-4.7c-4.4-3.3-10.9,4-9.6,8.4h0Z"/>
      <path class="st11" d="M181.9,176.8c1.3-.6,2.3-1.7,3.4-2.5s2.6-1.7,3.9-2.6c2.4-1.6,4.9-3.2,6.9-5.4,2.1-2.4,4.6-7.7-.1-9.1-4.7-1.4-8.8,3.8-10.7,6.7-3,4.3-4.4,9.5-3.3,12.9h-.1,0Z"/>
      <path class="st11" d="M176.5,178.8c-1.3-.6-2.3-1.7-3.4-2.5-1.1-.8-2.6-1.7-3.9-2.6-2.4-1.6-4.9-3.2-6.9-5.4-2.1-2.4-4.6-7.7.1-9.1,4.7-1.4,8.8,3.8,10.7,6.7,3,4.3,4.4,9.5,3.3,12.9h.1,0Z"/>
      <path class="st11" d="M173.7,161.7c.3.9.9,1.6,1.7,2.2.3.2.6.4,1,.5,2,.2,6.6-4.8,7.5-6.4s1.2-3.4-.6-4.7c-4.4-3.3-10.9,4-9.6,8.4h0Z"/>
      <path class="st11" d="M51.6,121.4c1.3-.6,2.3-1.7,3.4-2.5s2.6-1.7,3.9-2.6c2.4-1.6,4.9-3.2,6.9-5.4,2.1-2.4,4.6-7.7,0-9.1-4.7-1.4-8.8,3.8-10.7,6.7-3,4.3-4.4,9.5-3.3,12.9h-.2Z"/>
      <path class="st11" d="M46.2,123.4c-1.3-.6-2.3-1.7-3.4-2.5s-2.6-1.7-3.9-2.6c-2.4-1.6-4.9-3.2-6.9-5.4-2.1-2.4-4.6-7.7,0-9.1,4.7-1.4,8.8,3.8,10.7,6.7,3,4.3,4.4,9.5,3.3,12.9h.2Z"/>
      <path class="st11" d="M43.4,106.4c.3.9.9,1.6,1.7,2.2.3.2.6.4,1,.5,2,.2,6.6-4.8,7.5-6.4s1.2-3.4-.6-4.7c-4.4-3.3-10.9,4-9.6,8.4Z"/>
      <path class="st22" d="M1065.6,177.7c-5.3-7-10.8-13.8-14.8-21.6-3.1-6.1-5.2-12.7-8.3-18.9-4.1-8.1-9.9-15.2-15.6-22.2-9-11.1-17.6-22.6-26.1-34.2-4.8-6.5-12.4-23.1-20.1-25.6-15.8-5.1-25.4,20.9-32,30.2-11.9,16.6-24.2,33.1-37.7,48.5-5.1,5.9-10.9,11.7-18.3,14.1-4.1,1.4-8.9,1.5-12.7-.8-1.8-1.1-3.2-2.7-4.5-4.2-8.1-9.6-18.6-42.3-36-34.6-6.5,2.8-9.3,10.6-14.7,15.2-20.8,17.3-44-16.2-50.7-32-.6-1.4-1.1-2.8-1.2-4.2,0-1.6.3-3.2.4-4.8.2-3.9-1.5-7.6-3.2-11.2-3.9-8.2-7.8-16.4-11.8-24.5-1.8-3.8-5.1-8.3-9.2-7.1-1.8.6-3.1,2.2-4.2,3.8-3.1,4.3-5.8,9.7-10,12.8-2.4,1.8-4.4,2.5-6.5,5-1.6,1.9-2.8,4.1-4.9,5.6-2,1.4-4.7,2.1-6,4.2-1.8,2.7-.4,6.4,2.1,8.4s5.8,2.6,8.9,3.2c.3,0-18,20.4-20.4,22.4-9.5,7.6-19.8,14.4-25.5,25.5-4.4,8.5-7.6,20.2-17.1,21.3-8.7,1-14.6-8.2-20.1-15.1-13.7-17.4-35.5-25.6-54.4-37-7.8-4.7-10.5-11.2-15.5-18.6-2.4-3.5-4.8-7.1-6.3-11.1-2.5-7.1-2-15.4-6.5-21.5-.8-1-1.8-2-3-2.4-5.4-1.5-21.8,24.4-25,28.9-8,11.1-13.6,23.8-21.3,34.7-8.8,12.5-21.3,22-30.5,34.1-4.4,5.8-8.2,13.3-5.9,20.2,1.5,4.4,5.3,8.2,4.8,12.8-.4,3.4-3.2,6.1-6.4,7.3s-6.7,1.3-10.1,1.3-6.9-3.5-9.3-6.4c-6-7.3-8.9-16.7-12-25.6-4.6-13.2-.1-22.7-1.3-36.1-1.3-14.7-15-24.5-26.1-34.2-12.5-10.8-23.2-23.6-31.5-37.9-6.1-10.4-11.4-15.8-17.4-2.5-5.8,12.7-10.3,25.9-16.4,38.6-4.3,8.9-8.5,17.8-14.5,25.5s-9.9,14.1-8.7,24.2c.2,1.5.5,3,0,4.4-.5,1.2-1.5,2.1-2.5,3-10.4,8.5-15.9,15-25,2.7-9.6-13.1-17.3-27.7-28-40-13.4-15.4-31.8-26.3-42.5-43.6-3-4.9-5.6-10.5-10.5-13.5-13.1-8-24.4,16.8-29.8,24.5-7.7,10.9-15.8,31.2-29.6,33.7-14.9,2.7-31.3-2.6-41.8-13.5-4.6-4.7-8.1-10.3-12.2-15.4-5.6-6.8-12.2-12.7-18.9-18.5-6.3-5.6-13.3-11.4-21.7-12.2-1.5-.2-3.2,0-4.5.7-2,1.3-2.5,4.1-2.7,6.5-1.4,12.2-2.5,22.3-9.1,33-9.6,15.6-21.2,30-34.5,42.6-4.8,4.6-10.3,10.6-8.1,16.8,2.9,0,5.8.1,8.7.2,1.8,8.5-1.8,17.2-5.8,25-6.3,12.4-13.6,24.1-22,35.2-4.8,6.3-10.2,13.9-7.7,21.4,1.9,5.7,7.8,9,13.5,11,16.5,5.8,39.6,3.9,41.2,27.7,1.2,18.5-15.7,36-30.5,44.4-21.2,12-48.2,22.4-53.5,46.2-7.5,33.7,34.8,57.7,42.6,91.3,8.6,37.1-26.5,69.3-35.1,106.4-8.8,38.1,12.8,78.5,44.4,101.5s71.5,31.7,110.4,35.9c23.5,2.5,47.4,3.6,70.6-.7,20-3.7,39-11.2,58.6-16.5,101-27.5,207.2,5.7,307.9,34.4,15.7,4.5,32.4,8.8,48,4.3,12.3-3.5,22.3-12.1,33.4-18.4,34.8-19.8,77.6-16,117.6-13.5,108.6,6.9,218.1.6,325.2-18.6,15.1-2.7,31-6,42.6-16.2,11.3-10,16.8-25.1,18.7-40.1,3.3-25.9-3.1-53-17.6-74.7-5.5-8.2-12.2-16-14.3-25.6-2-9.6.9-19.4,3-28.9,12.3-54.9-1.3-111.8-14.8-166.3-5-20.1-7.6-40.7-10.8-61.1-2.8-17.5,3.9-34-3.5-51-2.8-6.5-6.9-12.3-11.2-18h-.7Z"/>
      <path class="st13" d="M309.8,336.2c-6,3.8-11.8,7.8-17.8,11.5-16.6,10.6-33.5,17.2-51.7,24.2-27.7,10.7-55.4,21.3-83.1,32-5.6,2.1-11.3,4.4-15.7,8.5-6.9,6.4-9.4,17.3-5.9,26.1,11.5,28.8,55.6,12.6,70.4-3.8,3.9,10.9,10.6,23.8,22.1,23.5,15.6-.4,18.7-21,30.1-27.9,4.6,10.1,5.2,22.8,21.7,18.6,8.5-2.2,15-9.1,20.3-16.2,6.7-9.1,12.2-19,17.8-28.9,5.5-9.9,11.1-19.8,16.6-29.7,4.5-8,9-16.1,12.7-24.5,4.6-10.5,7.8-23.1,1.8-32.9-14.2,4.2-26.9,11.6-39.3,19.5h0Z"/>
      <path class="st10" d="M360,27.4c.9-4.1,1.8-8.3,3-12.4,1-3.8,2.3-7.6,4.9-10.5,2.5,1.6,3.1,5.1,3.4,8.1,6.1,57.3,9.9,116.4,9.9,173.8v335.6c0,55,.3,110,1.1,165,.8,49.4-.5,97.2,9.4,145.9,3,14.6,6.6,29.5,4.6,44.3-2.6,2.9-7.4,1.7-10.8-.2s-7-4.5-10.8-3.6c-2.5.5-4.5,2.4-6.8,3.5-9.3,4.3-19.6-5.8-29.8-4.7-3.5.4-6.7,2-10.1,2.5s-7.6-.8-8.6-4.2c-.6-2,.1-4,.8-6,8.7-24.2,16-45.7,19.4-71,4-29.9,6.8-59.9,8.5-90,3.4-60.3,3-120.8,3.7-181.2.5-48,.5-95.9.2-143.9-.2-32-.5-64-.8-95.9-.3-30-2.1-60.4,2-89.9,7.5-54.8-4.4-110.9,6.8-165.2h0Z"/>
      <path class="st13" d="M415.2,206.5c5.5,3.6,11,7.2,16.6,10.7,15.5,9.9,31.2,16,48.2,22.6,25.8,9.9,51.7,19.9,77.5,29.8,5.2,2,10.5,4.1,14.6,7.9,6.5,6,8.8,16.1,5.5,24.3-10.8,26.9-51.8,11.7-65.6-3.6-3.6,10.1-9.9,22.2-20.6,21.9-14.5-.4-17.5-19.6-28.1-26-4.3,9.4-4.9,21.3-20.3,17.3-8-2-14-8.5-18.9-15.1-6.3-8.5-11.4-17.7-16.6-26.9-5.2-9.2-10.3-18.5-15.5-27.7-4.2-7.5-8.4-15-11.8-22.8-4.3-9.8-7.2-21.6-1.7-30.7,13.2,3.9,25.1,10.8,36.6,18.2h.1Z"/>
      <path class="st13" d="M432.6,415.8c21.1,15.9,46.4,28,73.4,30.1,18.6,1.5,41.6-5.1,45.5-22.4,2.5-10.9-4.4-22.2-14.3-28.3-9.9-6-22.2-7.6-34-7.5,2-8.3-1.4-17.5-8.4-22.8-3.6-2.7-8-4.2-12.6-4.6-4-.3-10.1,2.5-13.4.8-3-1.5-5.9-9.1-8.1-11.7-3.4-4.1-7.3-7.8-12.3-10.2-6.1-3.1-13.2-4-19.9-5.7-19.1-4.8-35.7-15.8-51.6-26.8-6.5-4.5-21.7-16.5-29.9-8.6-3.8,3.6-2.3,9.6-.3,14.3,5.2,12.2,12,23.7,20.2,34.3,7.3,9.5,14.2,18.9,22.3,28,13.2,14.8,27.3,29,43.3,41h0Z"/>
      <path class="st16" d="M355.6,11.9c-4.6,4.2-6.6,9.7-11.4,16.2-21.6,29.6-46.4,56.8-73.8,81-11,9.7-23.1,20.2-25.4,34.6,23.9,1.9,42.9,1.9,60.1-15.9-.3,2.8-.5,6.1.4,8.8,1.1,3.1,4.2,5.8,7.4,5,1.3-.3,2.4-1.1,3.5-1.9,15.2-11.4,21.3-29.5,29.8-45.7,4.1-7.9,7.1-24,19.5-21.2,6,1.4,10.5,6.4,14.1,11.3,8.2,11,14.8,23.2,19.5,36.1,4.4,12,7.6,25.3,17,33.9s27.9,8.5,32.2-3.5c6.4,7.8,13.6,16.1,23.4,18.4s22.4-5.2,20.8-15.2c6.6,3.6,14.1,5.6,21.6,5.7,4,0,9.1-1.4,9.6-5.4.4-3.7-3.4-6.3-6.7-8-47.5-24.9-83.8-66.4-119-106.9-10.2-11.8-17.8-38.4-33.6-32.6-4,1.4-6.8,3.2-9,5.2h0Z"/>
      <path class="st13" d="M273.2,333.8c-19,15.2-41.6,26.8-65.8,29-16.6,1.5-37.2-4.7-40.6-21.1-2.2-10.4,4-21.2,12.9-27s19.9-7.3,30.5-7.3c-1.8-7.9,1.3-16.7,7.7-21.7s7.2-4.1,11.3-4.5c3.6-.4,9,2.3,12,.7,2.7-1.4,5.3-8.7,7.3-11.2,3.1-3.9,6.6-7.4,11-9.8,5.5-3,11.8-3.9,17.8-5.5,17.1-4.7,32-15.2,46.3-25.7,5.9-4.3,19.5-15.9,26.8-8.4,3.4,3.4,2,9.2.2,13.6-4.7,11.6-10.9,22.6-18.2,32.8-6.6,9.1-12.8,18-20.1,26.7-11.9,14.1-24.5,27.7-39,39.2h0v.2Z"/>
      <path class="st13" d="M309.8,446.5c-6,3.8-11.8,7.8-17.8,11.5-16.6,10.6-33.5,17.2-51.7,24.2-27.7,10.7-55.4,21.3-83.1,32-5.6,2.2-11.3,4.4-15.7,8.5-6.9,6.4-9.4,17.3-5.9,26.1,11.5,28.8,55.6,12.6,70.4-3.8,3.9,10.9,10.6,23.8,22.1,23.5,15.6-.4,18.7-21,30.1-27.8,4.6,10.1,5.2,22.8,21.7,18.6,8.5-2.2,15-9.1,20.3-16.2,6.7-9.1,12.2-19,17.8-28.8,5.5-9.9,11.1-19.8,16.6-29.7,4.5-8,9-16.1,12.7-24.5,4.6-10.5,7.8-23.1,1.8-32.9-14.2,4.2-26.9,11.6-39.3,19.5h0v-.2Z"/>
      <path class="st13" d="M376.2,514.8c1.6,4.1,3,8.2,2.6,12.5-.3,3.1-1.4,6.1-1.1,9.2.5,4.3,3.7,7.8,7,10.8,12.9,11.6,27.8,13.8,43,21.2,11.2,5.4,23.2,10.9,35.7,9.5,5.5-.6,10.7-2.6,16.2-3.5,16.7-2.9,33.5,3.7,49.4,9.2,12.5,4.3,26.4,8.3,39.8,6.1,11.3-1.8,27.7-1.5,37.1-8.2,9.3-6.6,11.7-20.2,5.7-29.5-6.1-9.4-19.5-13.6-30.6-10.2-4.3,1.3-8.7,3.7-13.2,2.9-9-1.7-10.2-14-17.9-18.6-11.7-7.1-28,7.7-40.3,1.6-4.1-2-6.6-5.8-9.8-8.9-5.7-5.6-14-8.7-22.3-8.6-6.3.1-12.6,2.1-18.8,1.4-10.1-1.2-17.6-9-24.2-16.4-10.4-11.6-42.5-61.3-60-56.5-21.2,5.8-6,56.4-.8,69.7.8,2,1.7,4.1,2.5,6.1h0v.2Z"/>
      <path class="st13" d="M408.3,604.7c36.4,14,78.7,11.9,112.1,32.1,6.6,4,13,9.2,15.7,16.4s.3,16.8-6.8,19.9c-11,4.8-22-8-33.9-8.4-13.4-.5-22.9,14-36,16.4-17.3,3.2-32.2-15.2-49.8-14.5-14.4.6-26.7,13.9-41,12.1-14.9-1.9-24.3-19.6-39.3-20.9-5.2-.5-11,1-15.2-2.1-2.3-1.7-3.5-4.4-4.7-7-6.2-14.1-12-31.6-2.5-43.7,2.5-3.1,5.8-5.5,8.1-8.7,12.4-16.9-9-66.3,25.7-47.2,25.4,14,36.8,43.7,67.6,55.6h0Z"/>
      <path class="st13" d="M268.8,581.5c-7.8,9.4-9.1,24.4-19.9,30.2-7.6,4.1-16.9,1.9-25.4.3-10.1-1.8-21.1-2.3-29.9,2.8-6.3,3.7-11.3,10.1-18.5,11.1-2.9.4-6.1,0-8.6,1.3-1.7,1-2.9,2.7-3.7,4.4-5.9,11.7.4,27.8,12.6,32.6,16.4,6.3,36.6-6.4,51.9,2.4,6.2,3.6,10.3,10.2,16.9,13.1,11.4,5,24.1-3.5,32.1-13s14.8-21.2,26.4-25.5c7-2.6,14.9-2.2,21.8-5.3,18.9-8.6,26.7-45.2,12.3-60.7-14.7-15.9-55-9.1-67.9,6.5h0v-.2Z"/>
      <path class="st14" d="M851.2,549c-6,3.8-11.8,7.8-17.8,11.5-16.7,10.6-33.5,17.2-51.7,24.2-27.7,10.7-55.4,21.3-83.1,32-5.6,2.2-11.3,4.4-15.7,8.5-6.9,6.4-9.4,17.3-5.9,26.1,11.5,28.8,55.6,12.6,70.4-3.8,3.9,10.9,10.6,23.8,22.1,23.5,15.6-.4,18.7-21,30.1-27.8,4.6,10.1,5.2,22.8,21.7,18.6,8.5-2.2,15-9.1,20.3-16.2,6.7-9.1,12.2-19,17.8-28.8,5.5-9.9,11.1-19.8,16.6-29.7,4.5-8,9-16.1,12.7-24.5,4.6-10.5,7.8-23.1,1.8-32.9-14.2,4.2-26.9,11.6-39.3,19.5h0v-.2Z"/>
      <path class="st10" d="M901.4,240.1c.8-4.1,1.8-8.3,3-12.4,1-3.8,2.3-7.6,4.9-10.5,2.5,1.6,3.1,5.1,3.4,8.1,6.1,57.3,9.9,116.4,9.9,173.8v335.6c0,55,.3,110,1.1,165,.8,49.4-.5,97.2,9.4,145.9,3,14.6,6.6,29.5,4.6,44.3-2.6,2.9-7.4,1.7-10.8-.2s-7-4.4-10.8-3.6c-2.5.5-4.5,2.4-6.8,3.5-9.3,4.3-19.6-5.8-29.8-4.7-3.5.4-6.7,2-10.1,2.5s-7.6-.8-8.6-4.2c-.6-2,0-4,.8-6,8.7-24.2,16-45.7,19.4-71,4-29.9,6.8-59.9,8.5-90,3.4-60.3,3-120.8,3.7-181.2.5-48,.5-95.9.2-143.9-.2-32-.5-64-.8-95.9-.3-30-2.1-60.4,2-90,7.5-54.8-4.4-110.9,6.8-165.2h0Z"/>
      <path class="st14" d="M956.6,419.2c5.5,3.6,11,7.2,16.6,10.7,15.5,9.9,31.2,16,48.2,22.6,25.8,9.9,51.7,19.9,77.5,29.8,5.2,2,10.6,4.1,14.6,7.9,6.5,6,8.8,16.1,5.5,24.3-10.8,26.9-51.8,11.7-65.6-3.6-3.6,10.1-9.8,22.2-20.6,21.9-14.5-.4-17.5-19.6-28.1-26-4.3,9.4-4.9,21.3-20.3,17.3-8-2-14-8.5-18.9-15.1-6.3-8.5-11.4-17.7-16.6-26.9-5.2-9.2-10.3-18.5-15.5-27.7-4.2-7.5-8.4-15-11.8-22.8-4.3-9.8-7.2-21.6-1.7-30.7,13.2,3.9,25.1,10.8,36.7,18.2h0Z"/>
      <path class="st16" d="M974,628.5c21.1,15.9,46.4,28,73.4,30.1,18.6,1.5,41.6-5.2,45.5-22.4,2.5-10.9-4.4-22.2-14.3-28.3s-22.2-7.6-34-7.5c2-8.3-1.4-17.5-8.4-22.8-3.6-2.7-8-4.2-12.6-4.6-4-.3-10.1,2.5-13.4.8-3-1.5-5.9-9.1-8.1-11.7-3.4-4.1-7.3-7.8-12.3-10.2-6.1-3.1-13.2-4-19.9-5.7-19.1-4.8-35.7-15.8-51.6-26.8-6.5-4.5-21.7-16.5-29.9-8.6-3.8,3.6-2.3,9.6-.3,14.3,5.2,12.2,12,23.7,20.2,34.3,7.3,9.5,14.2,18.9,22.3,28,13.2,14.8,27.3,29,43.3,41h.1Z"/>
      <path class="st14" d="M884.8,251.5c-5,5-9.2,11.3-12.4,17.5-7.1,13.7-12.5,29-24.4,38.8-4.3,3.5-9.3,6.2-12.7,10.6-6.8,8.7-5.4,21.9-12.4,30.4-9,11-29.8,12.3-31.7,26.4-.5,3.4.4,7.1-1,10.2-2.8,6.1-12,5.7-16.7,10.5-5.5,5.5-2.1,15.8,4.7,19.6,6.8,3.8,15.2,2.9,22.8,1.2,14.7-3.3,28.8-9.4,41.5-17.7,4.5-2.9,25.5-16.5,24.5-23.5.4,3,1.2,6.6,3,9.1,1.9,2.7,5.8,4.5,8.7,2.9,1.2-.6,2.1-1.7,2.9-2.8,11.8-15,12.8-34.1,16.5-52,3.5-16.6,3.4-34.3,8.1-50.5,4.3-14.8,4.7-26.2,0-41.6-8.4.4-15.5,4.7-21.5,10.7h0v.2Z"/>
      <path class="st14" d="M814.6,546.5c-19,15.2-41.6,26.8-65.8,29-16.7,1.5-37.2-4.7-40.6-21.1-2.2-10.4,4-21.2,12.9-27s19.9-7.3,30.5-7.3c-1.8-7.9,1.3-16.7,7.7-21.7s7.2-4.1,11.3-4.5c3.6-.4,9,2.3,12,.7,2.7-1.4,5.3-8.7,7.3-11.2,3.1-3.9,6.6-7.4,11-9.8,5.5-3,11.8-3.9,17.8-5.5,17.1-4.7,32-15.2,46.3-25.7,5.9-4.3,19.5-15.9,26.8-8.4,3.4,3.4,2,9.2.2,13.6-4.7,11.6-10.8,22.6-18.2,32.8-6.6,9.1-12.8,18-20.1,26.7-11.9,14.1-24.5,27.7-39,39.2h0v.2Z"/>
      <path class="st13" d="M934.6,259.1c16.3,13.2,29.5,30,44.4,44.9,25.8,25.7,61.9,30.3,84.8,58.6,11,13.6,3.5,29.5-14.1,30.8-14.1,1-30.4-8.9-38.6-19.8-3.2,11-8.8,24-18.5,23.7-13-.4-15.7-21.2-25.2-28.1-5.6,14.7-15.8,29.3-30,11.1-10.9-14-16.4-40.4-21.1-57.4-5.2-18.7-11.9-41.7-9.3-60.9.5-3.6,1.4-7.5,4.2-9.8,5.2-4.4,13.2-.8,18.7,3.2,1.6,1.2,3.2,2.4,4.7,3.6h0Z"/>
      <path class="st14" d="M851.2,659.2c-6,3.8-11.8,7.8-17.8,11.5-16.7,10.6-33.5,17.2-51.7,24.2-27.7,10.7-55.4,21.3-83.1,32-5.6,2.2-11.3,4.4-15.7,8.5-6.9,6.4-9.4,17.3-5.9,26.1,11.5,28.8,55.6,12.6,70.4-3.8,3.9,10.9,10.6,23.8,22.1,23.5,15.6-.4,18.7-21,30.1-27.8,4.6,10.1,5.2,22.8,21.7,18.6,8.5-2.2,15-9.1,20.3-16.2,6.7-9.1,12.2-19,17.8-28.8,5.5-9.9,11.1-19.8,16.6-29.7,4.5-8,9-16.1,12.7-24.5,4.6-10.5,7.8-23.1,1.8-32.9-14.2,4.2-26.9,11.6-39.3,19.5h0v-.2Z"/>
      <path class="st14" d="M949.7,817.4c36.4,14,78.7,11.9,112.1,32.1,6.6,4,13,9.2,15.7,16.4s.3,16.8-6.8,19.9c-11,4.8-22-8-33.9-8.4-13.4-.5-22.8,14-36,16.4-17.3,3.2-32.2-15.2-49.8-14.5-14.4.6-26.7,13.9-41,12.1-14.9-1.9-24.3-19.6-39.3-20.9-5.2-.5-11,1-15.2-2.1-2.3-1.7-3.5-4.4-4.7-7-6.2-14.1-12-31.6-2.5-43.7,2.5-3.1,5.8-5.5,8.1-8.7,12.4-16.9-9-66.3,25.7-47.2,25.4,14,36.8,43.7,67.6,55.6h0Z"/>
      <path class="st14" d="M810.2,794.2c-7.8,9.4-9.1,24.4-19.9,30.2-7.6,4.1-16.9,1.9-25.4.3-10.1-1.8-21.1-2.3-29.9,2.8-6.3,3.7-11.3,10.1-18.5,11.1-2.9.4-6.1,0-8.6,1.3-1.7,1-2.8,2.7-3.7,4.4-5.9,11.7.4,27.8,12.6,32.6,16.4,6.3,36.6-6.4,51.8,2.4,6.2,3.6,10.3,10.2,16.9,13.1,11.4,5,24.2-3.5,32.1-13s14.8-21.2,26.4-25.5c7-2.6,14.9-2.2,21.8-5.3,18.9-8.6,26.7-45.2,12.3-60.7-14.7-15.9-55-9.1-67.9,6.5h0v-.2Z"/>
      <path class="st14" d="M866.8,303.2c-5.5-.1-11.1-2.1-16.8,1-3.4,1.9-6.1,4.8-8.9,7.5-4.7,4.5-10.1,8.4-15.8,11.5-3.1,1.7-6.8,3.2-10.1,1.9-4.5-1.7-6.7-8-11.5-8.3-3.7-.2-6.5,3.4-10.1,4.2-5.4,1.3-10.4-4.5-10.5-10s3.3-10.5,6.8-14.8c7.7-9.5,15.7-18.2,27.5-21.6,11.9-3.4,27.7-3.4,37.5-11.6,4-3.3,6.7-8,10.9-11,7.2-5.1,17.5-4.4,24.5-9.8,4.6-3.5,7-9.1,9.9-14.1,2.8-5.1,6.7-10.2,12.4-11.4,16.3-3.6,11.6,20.8,8.6,28.4-3.4,8.4-9.1,9.9-14.8,15.2-5.2,4.9-5.8,13.5-10.7,18.8-2.5,2.7-5.6,4-8.3,6.1-5.5,4.3-8.5,15.1-15.2,17.3-1.7.5-3.4.7-5.1.7h-.3Z"/>
      <path class="st13" d="M716.4,565.5c-6.8,3.9-13.5,7.9-20.3,11.8-19.1,10.8-38.3,17.6-59.2,24.8-31.7,10.9-63.4,21.8-95.1,32.7-6.4,2.2-13,4.5-18,8.7-7.9,6.6-10.7,17.7-6.7,26.7,13.2,29.5,63.6,12.9,80.5-3.9,4.4,11.1,12.1,24.4,25.3,24.1,17.8-.4,21.4-21.5,34.4-28.5,5.3,10.3,6,23.4,24.9,19,9.8-2.2,17.2-9.3,23.2-16.6,7.7-9.3,14-19.4,20.3-29.5s12.7-20.3,19-30.4c5.1-8.2,10.3-16.4,14.5-25,5.2-10.7,8.9-23.7,2.1-33.7-16.2,4.3-30.8,11.9-45,20h0v-.2Z"/>
      <path class="st10" d="M773.9,249.6c1-4.2,2.1-8.4,3.4-12.6,1.2-3.9,2.6-7.8,5.7-10.7,2.9,1.7,3.6,5.2,3.9,8.3,7,58.6,11.3,119.1,11.3,177.8v343.4c0,56.3.3,112.5,1.3,168.8.9,50.5-.5,99.4,10.8,149.3,3.4,15,7.6,30.2,5.3,45.4-3,3-8.5,1.8-12.3-.2-3.9-1.9-8-4.6-12.3-3.7-2.9.6-5.1,2.5-7.8,3.6-10.7,4.4-22.4-5.9-34.1-4.8-4,.4-7.7,2.1-11.6,2.5s-8.8-.9-9.9-4.3c-.7-2,0-4.1.9-6.1,9.9-24.8,18.3-46.8,22.2-72.6,4.6-30.6,7.8-61.2,9.7-92.1,3.9-61.7,3.4-123.6,4.2-185.4.6-49.1.6-98.1.2-147.2-.2-32.7-.6-65.4-.9-98.1-.3-30.7-2.4-61.8,2.2-92,8.6-56.1-5-113.4,7.8-169.1h0v-.2Z"/>
      <path class="st13" d="M837.1,432.8c6.4,3.6,12.6,7.4,19,11,17.8,10.1,35.7,16.4,55.2,23.1,29.6,10.2,59.1,20.3,88.7,30.5,6,2,12.1,4.2,16.8,8.1,7.4,6.1,10,16.5,6.3,24.9-12.3,27.5-59.3,12-75.1-3.6-4.1,10.4-11.3,22.7-23.6,22.4-16.6-.4-20-20.1-32.1-26.6-4.9,9.6-5.6,21.8-23.2,17.7-9.1-2.1-16-8.7-21.6-15.5-7.2-8.7-13.1-18.1-19-27.5-5.9-9.5-11.8-18.9-17.7-28.4-4.8-7.7-9.6-15.3-13.5-23.4-4.9-10-8.3-22.1-2-31.4,15.2,4,28.7,11.1,42,18.6h-.2Z"/>
      <path class="st13" d="M856.9,646.9c24.2,16.3,53.1,28.6,84,30.8,21.3,1.5,47.6-5.3,52.1-22.9,2.8-11.2-5-22.8-16.4-28.9s-25.4-7.8-38.9-7.6c2.3-8.5-1.6-17.9-9.7-23.3-4.1-2.7-9.2-4.3-14.4-4.7-4.6-.3-11.5,2.5-15.3.8-3.4-1.5-6.7-9.3-9.2-12-3.9-4.2-8.4-8-14-10.5-7-3.1-15.1-4.1-22.8-5.8-21.9-4.9-40.8-16.1-59-27.4-7.5-4.6-24.8-16.9-34.3-8.8-4.4,3.7-2.6,9.9-.3,14.7,6,12.5,13.7,24.3,23.1,35.1,8.4,9.7,16.2,19.3,25.6,28.6,15.1,15.1,31.2,29.6,49.6,42h0Z"/>
      <path class="st13" d="M754.8,261.2c-5.7,5.1-10.5,11.5-14.2,17.9-8.2,14-14.3,29.7-27.9,39.7-4.9,3.6-10.7,6.4-14.5,10.8-7.8,8.9-6.2,22.4-14.2,31.1-10.3,11.3-34.1,12.6-36.3,27-.5,3.5.5,7.3-1.2,10.5-3.2,6.2-13.7,5.9-19.2,10.7-6.3,5.7-2.4,16.2,5.4,20.1,7.8,3.9,17.4,3,26.1,1.2,16.9-3.4,33-9.6,47.5-18.1,5.1-3,29.1-16.9,28.1-24,.5,3.1,1.3,6.8,3.4,9.4,2.2,2.8,6.6,4.6,10,3,1.4-.6,2.4-1.7,3.4-2.8,13.5-15.4,14.6-34.9,18.9-53.2,4-17,3.9-35.1,9.3-51.7,4.9-15.1,5.3-26.8,0-42.6-9.6.4-17.8,4.8-24.6,10.9h0Z"/>
      <path class="st13" d="M674.5,563c-21.7,15.6-47.6,27.4-75.4,29.7-19,1.5-42.6-4.8-46.5-21.5-2.5-10.6,4.6-21.7,14.8-27.6,10.2-5.9,22.8-7.5,34.9-7.4-2-8.1,1.5-17,8.8-22.2,3.7-2.6,8.2-4.2,12.9-4.6,4.1-.4,10.3,2.3,13.7.8,3-1.4,6-8.9,8.3-11.5,3.5-4,7.5-7.6,12.6-10,6.3-3,13.5-4,20.4-5.7,19.6-4.8,36.6-15.5,52.9-26.3,6.7-4.4,22.3-16.2,30.7-8.6,3.9,3.5,2.3,9.4.2,13.9-5.4,11.9-12.4,23.1-20.8,33.5-7.6,9.3-14.7,18.5-23,27.3-13.6,14.4-28.1,28.3-44.6,40.2h0Z"/>
      <path class="st13" d="M811.8,269c18.7,13.5,33.8,30.7,50.9,45.9,29.5,26.3,70.8,31,97.1,60,12.6,13.9,4,30.1-16.2,31.5-16.1,1.1-34.8-9.1-44.2-20.2-3.7,11.2-10.1,24.5-21.2,24.2-14.9-.4-17.9-21.7-28.8-28.7-6.4,15-18.1,30-34.4,11.4-12.5-14.3-18.8-41.3-24.2-58.7-5.9-19.1-13.6-42.6-10.6-62.3.6-3.7,1.6-7.6,4.8-10,6-4.5,15.1-.9,21.3,3.3,1.8,1.2,3.6,2.4,5.4,3.7h.1Z"/>
      <path class="st13" d="M716.4,678.3c-6.8,3.9-13.5,7.9-20.3,11.8-19.1,10.8-38.3,17.6-59.2,24.8-31.7,10.9-63.4,21.8-95.1,32.7-6.4,2.2-13,4.5-18,8.7-7.9,6.6-10.7,17.7-6.7,26.7,13.2,29.5,63.6,12.9,80.5-3.9,4.4,11.1,12.1,24.4,25.3,24.1,17.8-.4,21.4-21.5,34.4-28.5,5.3,10.3,6,23.4,24.9,19,9.8-2.2,17.2-9.3,23.2-16.6,7.7-9.3,14-19.4,20.3-29.5s12.7-20.3,19-30.4c5.1-8.2,10.3-16.4,14.5-25,5.2-10.7,8.9-23.7,2.1-33.7-16.2,4.3-30.8,11.9-45,20h0v-.2Z"/>
      <path class="st13" d="M792.4,748.3c1.9,4.2,3.4,8.4,3,12.8-.3,3.2-1.6,6.3-1.3,9.4.5,4.4,4.2,8,8,11.1,14.8,11.9,31.8,14.1,49.2,21.6,12.8,5.5,26.6,11.2,40.9,9.7,6.3-.6,12.3-2.6,18.5-3.6,19.2-3,38.3,3.8,56.6,9.4,14.3,4.4,30.2,8.5,45.5,6.3,12.9-1.9,31.7-1.5,42.4-8.3,10.7-6.8,13.4-20.6,6.5-30.2-7-9.6-22.4-13.9-35.1-10.4-5,1.4-9.9,3.8-15,3-10.3-1.7-11.7-14.3-20.5-19.1-13.3-7.3-32,7.9-46.2,1.7-4.7-2-7.6-6-11.2-9.1-6.6-5.7-16-8.9-25.5-8.8-7.2,0-14.4,2.2-21.5,1.4-11.6-1.2-20.2-9.2-27.7-16.7-12-11.9-48.6-62.7-68.6-57.8-24.3,6-6.9,57.7-.9,71.3.9,2.1,1.9,4.2,2.9,6.3h0Z"/>
      <path class="st13" d="M829.1,840.2c41.7,14.4,90.1,12.1,128.3,32.8,7.6,4.1,14.9,9.4,18,16.8,3.1,7.4.4,17.2-7.8,20.3-12.6,4.9-25.1-8.1-38.8-8.6-15.3-.6-26.2,14.3-41.2,16.8-19.8,3.3-36.9-15.6-57-14.9-16.5.6-30.5,14.3-46.9,12.4-17.1-1.9-27.8-20-45-21.4-6-.5-12.6,1-17.4-2.2-2.6-1.7-4-4.5-5.3-7.2-7.1-14.4-13.8-32.4-2.8-44.7,2.8-3.2,6.6-5.6,9.2-8.9,14.2-17.3-10.3-67.8,29.4-48.3,29.1,14.3,42.2,44.7,77.3,56.9h0v.2Z"/>
      <path class="st13" d="M669.5,816.5c-8.9,9.7-10.5,24.9-22.8,30.9-8.7,4.2-19.4,1.9-29.1.3-11.5-1.9-24.1-2.4-34.2,2.9-7.2,3.8-13,10.3-21.2,11.3-3.3.4-6.9,0-9.9,1.3-2,1-3.3,2.7-4.3,4.5-6.7,12,.4,28.5,14.4,33.3,18.8,6.5,41.9-6.5,59.3,2.5,7.1,3.7,11.8,10.5,19.3,13.4,13,5.1,27.6-3.6,36.8-13.3s17-21.6,30.3-26.1c8-2.7,17.1-2.3,24.9-5.5,21.7-8.8,30.5-46.3,14.1-62.2-16.9-16.3-63-9.3-77.7,6.6h.1Z"/>
      <path class="st13" d="M734.2,314.1c-6.2-.1-12.7-2.1-19.3,1-3.9,1.9-7,4.9-10.2,7.7-5.4,4.6-11.5,8.6-18.2,11.8-3.6,1.7-7.8,3.2-11.6,1.9-5.1-1.8-7.6-8.2-13.1-8.5-4.2-.2-7.5,3.5-11.6,4.3-6.2,1.3-11.9-4.6-12-10.2s3.8-10.8,7.8-15.2c8.8-9.7,18-18.6,31.5-22.1,13.6-3.5,31.7-3.5,42.9-11.9,4.5-3.4,7.7-8.2,12.5-11.3,8.3-5.2,20-4.5,28-10,5.3-3.6,8-9.3,11.3-14.5,3.2-5.2,7.7-10.4,14.2-11.7,18.7-3.7,13.3,21.3,9.8,29-3.9,8.6-10.4,10.1-17,15.6-6,5-6.6,13.8-12.3,19.2-2.9,2.7-6.4,4.1-9.5,6.3-6.3,4.4-9.7,15.4-17.4,17.7-1.9.6-3.9.7-5.8.7h0v.2Z"/>
      <path class="st10" d="M572.5,433c11.3-3.8,22.5-7.9,33.4-13.6,6.8-3.6,19.2-14.3,17.3.6-.2,1.4-.4,2.8-1.3,3.8-3.8,4.4-12.8,3.1-17.7,6.2-6.9,4.2-12.4,9.4-20,12.6-11.7,4.8-25.5,10.5-38.1,11.7-3,.3-6.8.2-8.1-2.6-1-2,.2-4.5,1.8-6.1,1.9-1.8,4.4-2.8,6.8-3.7,8.6-3.3,17.2-6.1,25.8-9h0Z"/>
      <path class="st10" d="M1065.2,433.1c1.6,2.7,1.8,6.3.8,9.4-1.4,4.4-4.7,7.8-7.8,11.1-10.5,11-21,22-31.5,32.9-20.9,21.9-45.5,39-69.7,57.7-11.3,8.7-41.5,55.7-58.2,42.4-13.8-11,4.4-37.8,12.6-45.7,22.1-21.2,55.9-34.9,81.2-52.2,10.6-7.2,22-12.5,31.6-21.1,13.2-11.9,26-24.4,38.2-37.3,1.2.7,2.1,1.7,2.8,2.8h0Z"/>
      <rect class="st19" x="-2.2" y="1482.4" width="1036.3" height="207.8"/>
      <rect class="st12" x="-3.4" y="1642.1" width="150.6" height="14.4"/>
      <rect class="st12" x="881.9" y="1642.1" width="150.6" height="14.4"/>
      <rect class="st5" x="370.2" y="261.1" width="27.5" height="277.9"/>
      <rect class="st8" x="115.4" y="92.9" width="364.6" height="205.1"/>
      <rect class="st12" x="712.8" y="157.3" width="27.5" height="277.9"/>
      <rect class="st12" x="665.5" y="115.8" width="341.9" height="178.1"/>
      <path class="st16" d="M666.1,437.6c6,3.8,11.8,7.8,17.8,11.5,16.7,10.6,33.5,17.2,51.7,24.2,27.7,10.7,55.4,21.3,83.1,32,5.6,2.1,11.3,4.4,15.7,8.5,6.9,6.4,9.4,17.3,5.9,26.1-11.5,28.8-55.6,12.6-70.4-3.8-3.9,10.9-10.6,23.8-22.1,23.5-15.6-.4-18.7-21-30.1-27.8-4.6,10.1-5.2,22.8-21.7,18.6-8.5-2.2-15-9.1-20.3-16.2-6.7-9.1-12.2-19-17.8-28.9-5.5-9.9-11.1-19.8-16.6-29.7-4.5-8-9-16.1-12.7-24.5-4.6-10.5-7.8-23.1-1.8-32.9,14.2,4.2,26.9,11.6,39.3,19.5h0Z"/>
      <path class="st10" d="M616,128.8c-.8-4.1-1.8-8.3-3-12.4-1-3.8-2.3-7.6-4.9-10.5-2.5,1.6-3.1,5.1-3.4,8.1-6.1,57.3-9.9,116.4-9.9,173.8v335.6c0,55-.3,110-1.1,165-.8,49.4.5,97.2-9.4,145.9-3,14.6-6.6,29.5-4.6,44.3,2.6,2.9,7.4,1.7,10.8-.2s7-4.5,10.8-3.6c2.5.5,4.5,2.4,6.8,3.5,9.3,4.3,19.6-5.8,29.8-4.7,3.5.4,6.7,2,10.1,2.5,3.5.5,7.6-.8,8.6-4.2.6-2,0-4-.8-6-8.7-24.2-16-45.7-19.4-71-4-29.9-6.8-59.9-8.5-90-3.4-60.3-3-120.8-3.7-181.2-.5-48-.5-95.9-.2-143.9.2-32,.5-64,.8-95.9.3-30,2.1-60.4-2-90-7.5-54.8,4.4-110.9-6.8-165.2h0Z"/>
      <path class="st16" d="M560.7,307.9c-5.5,3.6-11,7.2-16.6,10.7-15.5,9.9-31.2,16-48.2,22.6-25.8,9.9-51.7,19.9-77.5,29.8-5.2,2-10.5,4.1-14.6,7.9-6.5,6-8.8,16.1-5.5,24.3,10.8,26.9,51.8,11.7,65.6-3.6,3.6,10.1,9.9,22.2,20.6,21.9,14.5-.4,17.5-19.6,28.1-26,4.3,9.4,4.9,21.3,20.3,17.3,8-2,14-8.5,18.9-15.1,6.3-8.5,11.4-17.7,16.6-26.9,5.2-9.2,10.3-18.5,15.5-27.7,4.2-7.5,8.4-15,11.8-22.8,4.3-9.8,7.2-21.6,1.7-30.7-13.2,3.9-25.1,10.8-36.7,18.2h0Z"/>
      <path class="st16" d="M543.4,517.2c-21.1,15.9-46.4,28-73.4,30.1-18.6,1.5-41.6-5.2-45.5-22.4-2.5-10.9,4.4-22.2,14.3-28.3s22.2-7.6,34-7.5c-2-8.3,1.4-17.5,8.4-22.8,3.6-2.7,8-4.2,12.6-4.6,4-.3,10.1,2.5,13.4.8,3-1.5,5.9-9.1,8.1-11.7,3.4-4.1,7.3-7.8,12.3-10.2,6.1-3.1,13.2-4,19.9-5.7,19.1-4.8,35.7-15.8,51.6-26.8,6.5-4.5,21.7-16.5,29.9-8.6,3.8,3.6,2.3,9.6.3,14.3-5.2,12.2-12,23.7-20.2,34.3-7.3,9.5-14.2,18.9-22.3,28-13.2,14.8-27.3,29-43.3,41h0Z"/>
      <path class="st16" d="M632.6,140.1c5,5,9.2,11.3,12.4,17.5,7.1,13.7,12.5,29,24.4,38.8,4.3,3.5,9.3,6.2,12.7,10.6,6.8,8.7,5.4,21.9,12.4,30.4,9,11,29.8,12.3,31.7,26.4.5,3.4-.4,7.1,1,10.2,2.8,6.1,12,5.7,16.7,10.5,5.5,5.5,2.1,15.8-4.7,19.6-6.8,3.8-15.2,2.9-22.8,1.2-14.7-3.3-28.8-9.4-41.5-17.7-4.5-2.9-25.5-16.5-24.5-23.5-.4,3-1.2,6.6-3,9.1-1.9,2.7-5.8,4.5-8.7,2.9-1.2-.6-2.1-1.7-2.9-2.8-11.8-15-12.8-34.1-16.5-52-3.5-16.6-3.4-34.3-8.1-50.5-4.3-14.8-4.7-26.2,0-41.6,8.4.4,15.5,4.7,21.5,10.7h0v.2Z"/>
      <path class="st16" d="M702.8,435.2c19,15.2,41.6,26.8,65.8,29,16.7,1.5,37.2-4.7,40.6-21.1,2.2-10.4-4-21.2-12.9-27s-19.9-7.3-30.5-7.3c1.8-7.9-1.3-16.7-7.7-21.7s-7.2-4.1-11.3-4.5c-3.6-.4-9,2.3-12,.7-2.7-1.4-5.3-8.7-7.3-11.2-3.1-3.9-6.6-7.4-11-9.8-5.5-3-11.8-3.9-17.8-5.5-17.1-4.7-32-15.2-46.3-25.7-5.9-4.3-19.5-15.9-26.8-8.4-3.4,3.4-2,9.2-.2,13.6,4.7,11.6,10.8,22.6,18.2,32.8,6.6,9.1,12.8,18,20.1,26.7,11.9,14.1,24.5,27.7,39,39.2h0v.2Z"/>
      <path class="st16" d="M582.8,147.7c-16.3,13.2-29.5,30-44.4,44.9-25.8,25.7-61.9,30.3-84.8,58.6-11,13.6-3.5,29.5,14.1,30.8,14,1,30.4-8.9,38.6-19.8,3.2,11,8.8,24,18.5,23.7,13-.4,15.7-21.2,25.2-28.1,5.6,14.7,15.8,29.3,30,11.1,10.9-14,16.4-40.4,21.1-57.4,5.2-18.7,11.9-41.7,9.3-60.9-.5-3.6-1.4-7.5-4.2-9.8-5.2-4.4-13.2-.8-18.7,3.2-1.6,1.2-3.2,2.4-4.7,3.6h0Z"/>
      <path class="st16" d="M666.1,547.9c6,3.8,11.8,7.8,17.8,11.5,16.7,10.6,33.5,17.2,51.7,24.2,27.7,10.7,55.4,21.3,83.1,32,5.6,2.2,11.3,4.4,15.7,8.5,6.9,6.4,9.4,17.3,5.9,26.1-11.5,28.8-55.6,12.6-70.4-3.8-3.9,10.9-10.6,23.8-22.1,23.5-15.6-.4-18.7-21-30.1-27.8-4.6,10.1-5.2,22.8-21.7,18.6-8.5-2.2-15-9.1-20.3-16.2-6.7-9.1-12.2-19-17.8-28.8-5.5-9.9-11.1-19.8-16.6-29.7-4.5-8-9-16.1-12.7-24.5-4.6-10.5-7.8-23.1-1.8-32.9,14.2,4.2,26.9,11.6,39.3,19.5h0v-.2Z"/>
      <path class="st16" d="M599.8,616.2c-1.6,4.1-3,8.2-2.6,12.5.3,3.1,1.4,6.1,1.1,9.2-.5,4.3-3.7,7.8-7,10.8-12.9,11.6-27.8,13.8-43,21.2-11.2,5.4-23.2,10.9-35.7,9.5-5.5-.6-10.7-2.6-16.2-3.5-16.7-2.9-33.5,3.7-49.4,9.2-12.5,4.3-26.4,8.3-39.8,6.1-11.3-1.8-27.7-1.5-37.1-8.2-9.3-6.6-11.7-20.2-5.6-29.5,6.1-9.4,19.5-13.6,30.6-10.2,4.3,1.3,8.7,3.7,13.1,2.9,9-1.7,10.2-14,17.9-18.6,11.7-7.1,28,7.7,40.3,1.6,4.1-2,6.6-5.8,9.8-8.9,5.7-5.6,14-8.7,22.3-8.6,6.3,0,12.6,2.1,18.8,1.4,10.1-1.2,17.7-9,24.2-16.3,10.4-11.6,42.5-61.3,60-56.5,21.2,5.8,6,56.4.8,69.7-.8,2-1.7,4.1-2.5,6.1h0Z"/>
      <path class="st16" d="M567.7,706.1c-36.4,14-78.7,11.9-112.1,32.1-6.6,4-13,9.2-15.7,16.4s-.3,16.8,6.8,19.9c11,4.8,22-8,33.9-8.4,13.4-.5,22.9,14,36,16.4,17.3,3.2,32.2-15.2,49.8-14.5,14.4.6,26.7,13.9,41,12.1,14.9-1.9,24.3-19.6,39.3-20.9,5.2-.5,11,1,15.2-2.1,2.3-1.7,3.5-4.4,4.7-7,6.2-14.1,12-31.6,2.5-43.7-2.5-3.1-5.8-5.5-8.1-8.7-12.4-16.9,9-66.3-25.7-47.2-25.4,14-36.8,43.7-67.6,55.6h0Z"/>
      <path class="st16" d="M707.2,682.9c7.8,9.4,9.1,24.4,19.9,30.2,7.6,4.1,16.9,1.9,25.4.3,10.1-1.8,21.1-2.3,29.9,2.8,6.3,3.7,11.3,10.1,18.5,11.1,2.9.4,6.1,0,8.6,1.3,1.7,1,2.8,2.7,3.7,4.4,5.9,11.7-.4,27.8-12.6,32.6-16.4,6.3-36.6-6.4-51.8,2.4-6.2,3.6-10.3,10.2-16.9,13.1-11.4,5-24.2-3.5-32.1-13s-14.8-21.2-26.4-25.5c-7-2.6-14.9-2.2-21.8-5.3-18.9-8.6-26.7-45.2-12.3-60.7,14.7-15.9,55-9.1,67.9,6.5h0v-.2Z"/>
      <path class="st16" d="M650.6,191.9c5.5-.1,11.1-2.1,16.8,1,3.4,1.9,6.1,4.8,8.9,7.5,4.7,4.5,10.1,8.4,15.8,11.5,3.1,1.7,6.8,3.2,10.1,1.9,4.5-1.7,6.7-8,11.5-8.3,3.7-.2,6.5,3.4,10.1,4.2,5.4,1.3,10.4-4.5,10.5-10s-3.3-10.5-6.8-14.8c-7.7-9.5-15.7-18.2-27.5-21.6-11.9-3.4-27.7-3.4-37.5-11.6-4-3.3-6.7-8-10.9-11-7.2-5.1-17.5-4.4-24.5-9.8-4.6-3.5-7-9.1-9.9-14.1-2.8-5.1-6.7-10.2-12.4-11.4-16.3-3.6-11.6,20.8-8.6,28.4,3.4,8.4,9.1,9.9,14.8,15.2,5.2,4.9,5.8,13.5,10.7,18.8,2.5,2.7,5.6,4,8.3,6.1,5.5,4.3,8.5,15.1,15.2,17.3,1.7.6,3.4.7,5.1.7h.3Z"/>
      <rect class="st19" x="690.2" y="691.4" width="190.2" height="791"/>
      <rect class="st19" x="147.9" y="693.6" width="902.2" height="446"/>
      <rect class="st12" x="772.4" y="784.2" width="14.4" height="356.7"/>
      <rect class="st12" x="447.6" y="784.2" width="14.4" height="356.7"/>
      <rect class="st18" x="-7.6" y="367" width="1065.8" height="337.2"/>
      <path class="st4" d="M295.3,399.1c-3.4,1.2-6.8,2.3-10.2,3.5-.7.2-1.4.5-1.9,1.1-.4.6-.5,1.3-.6,2-.2,3-.5,6-.7,9.1-3.9,2.8-8.7,4.5-13.5,4.7-2.9.1-7.2-.7-9.9.8-1.5.8-2.7,3.1-3.9,4.4-2.4,2.8-4.9,5.6-7.4,8.4l6.6,10.3c-1.9,3-3.6,5.8-5.1,9l-12.6-.2-5.5,16.9,10.3,6.9c-.5,3.5-1,6.5-1.1,10.2l-11.6,5,1.8,17.7,12.2,2c.9,3.4,1.9,6.4,3.2,9.8l-8.6,9.2,8.9,15.4,11.8-3.2,7.1,7.8-4.1,11.8,14,10.2c1.2,0,2.6-1.2,3.4-2.1.9-1.2,2.3-1.5,3.4-2.3.9-.7,2.1-3.5,3.7-2.8l9,4,1,12.5,17.3,3.7,5.7-11.1h10.4l6,11.1,17.5-3.8.6-12.3,9.5-4.2,6.5,5.2c1.6,1.3,3.1,3,5,1.6l12.9-9.8-4.3-11.5c2.6-2.7,4.8-5.1,7-7.8l12.1,3,8.9-15.4-8.6-8.8,3.3-9.9,12.2-2.4,1.9-17.7-11.6-4.5-1-10.3,10.2-7.2-5.5-16.9-12.2.7-5.3-9,6.4-10.9-11.9-13.2-11,5.6c-2.7-2.4-5.3-4.1-8.3-6.1l1.6-12.5-16.4-7.2-7.7,9.5-10.3-2.2-3.5-11.8c-5.9,0-11.7.2-17.5.8-.7,4.2-1.3,8.5-2,12.8-2.6.4-5.2.7-7.9,1.1-.6,0-1.3.2-2,0-.7-.3-1.2-.9-1.6-1.5-2.1-3-4.3-6.1-6.4-9.1h.3Z"/>
      <path class="st9" d="M331.9,494.1c0-1.4-4.6-.5-4.6.7l-.2,8.4h3v4.4h-11.9v-4.3l2.8-.2v-10.1c-.9-.3-1.7-.3-2.8-.3v-4.4h8.5c.3.1.7.9.9,1.6,2.3-1.7,5.4-2.5,8.2-1.2,1.7.8,2.7,2.8,2.8,4.6l.2,9.7h2.9v4.5h-8.9l-.7-13.6h0l-.2.2Z"/>
      <path class="st9" d="M329.7,533.3v4.5h-11.9v-4.5h2.9v-10.3h-2.9v-4.4h8.1c.6,0,1.1.9,1.1,1.7,2-1.5,4.5-2.5,7.1-1.8,2.5.6,4,2.9,4,5.4v9.4h3v4.5h-9v-12c0-.8-.2-1.9-1.2-2.3s-3.6.2-4,1.3l-.2,8.4h3Z"/>
      <path class="st9" d="M284.2,533.3v4.5h-11.8v-4.5h2.8v-6.4c-.1-2-4.5-4.5-2.3-8.3,4.2.6,1-3.1,3.9-6.5,2.7-3.1,9.5-3.4,12.2.3l-4.5,3.4c-.2-1-.5-1.6-1-1.9-.5-.3-1.6,0-1.8.5-.4,1.5-.3,2.8-.3,4.2,1.2,0,1.9-.2,2.9,0v4.2h-3v10.4h3-.1Z"/>
      <path class="st9" d="M379.4,526.3c2.9.7,4.1,3.6,3.9,6.2s-2,4.5-4.6,5.3c-2.4.8-5.2.5-7.4-.6-1.1.4-3.7,1.5-4.6.2v-6c-.1,0,4.2-.2,4.2-.2.6,2,1.9,2.7,3.6,2.9s3.6-1.4,3-3c-4.5-1.4-10.5-1.7-11.6-5.8-.4-1.7,0-3.6,1.4-4.9,2.7-2.6,6.3-2.3,9.7-1.4,1.4,0,3.2-1,5-.2.3,1.6.2,3.5,0,5.3-1.5.3-2.7.2-4.2,0-1.3-2.4-5.4-2.5-6.8-1.3-.3.2-.4,1.4.2,1.5l8.2,2h0Z"/>
      <path class="st9" d="M399.4,537.8c-2.7.7-5.2.7-7.4-.7-1.5,1-3.4,1-4.9.5v-6.3h4.2c1.1,2.8,4.4,3.7,6.9,2.3.5-.3.8-1,.7-1.4,0-.5-.7-1.1-1.4-1.3l-7.5-1.9c-2.2-.5-3.5-2.5-3.7-4.6-.2-2,.9-3.8,2.8-5,2.7-1.6,5.7-.9,8.6-.4,1.4.2,3.2-.8,4.8-.2v5.4c-.9,0-3.2.6-4.1-.2-3-2.6-6.5-1.9-7-.8-.3.8.2,1.5,1.1,1.7l6.5,1.4c2.9.6,4.6,2.8,4.7,5.5s-1.5,5.4-4.6,6.2h0l.3-.2Z"/>
      <path class="st9" d="M280.3,507.7c-.3-1.5-.2-2.9-.1-4.4h3v-18.9c-1.1,0-1.9.2-2.9,0-.2-1.6-.2-2.7,0-4.3h9v23.1l2.7.2v4.2h-11.6c0,.1-.1,0-.1,0Z"/>
      <path class="st9" d="M377.3,506.9c-2.3,1.2-5.5,1.5-7.9.1-1.2-.7-1.7-2.4-1.7-3.7v-10.4h-2.6v-4.5c.9.1,1.7.1,2.2,0,.7-.3.2-2,.3-2.6l5.9-4.5.2,7.1h3.5v4.5h-3.4c0,.1.3,9.8.3,9.8,0,.9,2.4.6,3,0l.2,4.2h0Z"/>
      <path class="st9" d="M314.8,536.8c-1.2,1.3-3.9,1.2-5.6,1-2.3-.2-3.6-1.9-3.7-4.1l-.2-10.9c-.9,0-1.6,0-1.9-.2-.8-.4-.8-3.5,0-4,.4-.3,1.4,0,2-.4.2-.5-.4-2.3.4-2.9l5.8-4.2v7.3l3.5.2v4.1l-3.5.2.3,9.7c0,.6,2.2.5,2.9.2.4,1,.7,2.8,0,3.9h0Z"/>
      <polygon class="st9" points="289.8 537.8 289.6 533.3 292.5 533.2 292.5 523 289.7 522.8 289.7 518.5 298.6 518.6 298.6 533.2 301.4 533.4 301.3 537.8 289.8 537.8"/>
      <circle class="st9" cx="295.6" cy="513" r="3.3"/>
      <path class="st9" d="M267.6,511.8v4.6h-13v-4.5h3.1v-18.7c-.8-.3-1.6-.2-2.6-.3v-4.4h8.5l.3,2.5c1.9-1.9,3.8-2.9,6.4-2.7,2.4.1,4.5,1.6,5.9,4,3.1,5.4,1.5,14.1-4.8,15.7-2.9.7-5,0-7.6-2.3v6.2c-.1,0,3.7,0,3.7,0h.1ZM271.2,500.6c.6-2.1.6-4.4-.7-6.1s-3.9-1.6-5.4-.3c-1.3,2-1.5,4.2-.8,6.4.5,1.7,1.9,2.7,3.6,2.6,1.4,0,2.8-.8,3.3-2.6h0Z"/>
      <path class="st9" d="M306.4,506.3c-3.4,2.3-8.4,2.2-10.9-1.4-2.2-3.1-.3-7.4,3.1-8.7,2.7-1.1,5.3-.8,8.1.2.5-2-.5-3.8-2.1-4.3-2.8-.9-4.2,2.4-9.5.5.5-1.8,2.2-3.2,4.1-3.8,6.3-1.9,13.7-.4,13.7,5.5v9h3.2v4.3c-.1,0-7.9.1-7.9.1-.6,0-1.3-.3-1.7-1.4h-.1ZM306.3,500.3c-.9-1-3.2-1.4-4.4-.9-1.9.8-1.7,2.7-.9,3.8,1,1.4,2.4,1.1,4,.3,1.1-.5,2.7-1.6,1.3-3.2h0Z"/>
      <path class="st9" d="M358.7,501.9l4.9,1.5c-3.9,6.3-14.8,6-18.3.7s-1.4-13.2,4.7-15.4c3.5-1.3,7.1-.9,10,1.3,2.5,1.9,3.9,5,3.8,9.1h-14.1c-.2,2.5,1.2,4,3.1,4.7,2.1.7,4.2.1,5.9-2h0ZM357.7,495.8c-.2-2.5-2.1-3.8-4-3.8s-3.6,1.4-3.8,3.8h7.9-.1Z"/>
      <path class="st9" d="M360.4,532.5l2.8.9c-3.2,5.6-12.5,6.1-17,2.2s-3.9-10.8,0-14.6c4.1-4.1,11.3-4,15,.7,1.8,2.3,2.1,5.1,2.3,7.7h-14.3c0,1.9,1,3.5,2.4,4.2,4.2,2.2,5.5-2.1,8.8-1.1h0ZM357.3,525.9c-.5-3.2-2.5-4-4.8-3.7-1.7.2-3,1.8-3.1,3.9l7.9-.2h0Z"/>
      <circle class="st1" cx="323.7" cy="493.2" r="61.5"/>
      <path class="st13" d="M89.1,519.3c-6,3.8-11.8,7.8-17.8,11.5-16.7,10.6-33.5,17.2-51.7,24.2-27.7,10.7-55.4,21.3-83.1,32-5.6,2.2-11.3,4.4-15.7,8.5-6.9,6.4-9.4,17.3-5.9,26.1,11.5,28.8,55.6,12.6,70.4-3.8,3.9,10.9,10.6,23.8,22.1,23.5,15.6-.4,18.7-21,30.1-27.8,4.6,10.1,5.2,22.8,21.7,18.6,8.6-2.2,15-9.1,20.3-16.2,6.7-9.1,12.2-19,17.8-28.8,5.5-9.9,11.1-19.8,16.6-29.7,4.5-8,9-16.1,12.7-24.5,4.6-10.5,7.8-23.1,1.8-32.9-14.2,4.2-26.9,11.6-39.3,19.5h0v-.2Z"/>
      <path class="st10" d="M139.3,210.5c.9-4.1,1.8-8.3,3-12.4,1-3.8,2.3-7.6,4.9-10.5,2.6,1.6,3.1,5.1,3.4,8.1,6.1,57.3,9.9,116.4,9.9,173.8v335.6c0,55,.3,110,1.1,165,.8,49.4-.5,97.2,9.4,145.9,3,14.6,6.6,29.5,4.6,44.4-2.6,2.9-7.4,1.7-10.8-.2s-7-4.4-10.8-3.6c-2.5.5-4.5,2.4-6.8,3.5-9.3,4.3-19.6-5.8-29.8-4.7-3.5.4-6.7,2-10.1,2.5s-7.6-.8-8.6-4.2c-.6-2,0-4,.8-6,8.7-24.2,16-45.7,19.4-71,4-29.9,6.8-59.9,8.5-90,3.4-60.3,3-120.8,3.7-181.2.6-48,.5-95.9.2-143.9-.2-32-.5-64-.8-95.9-.3-30-2.1-60.4,1.9-90,7.5-54.8-4.4-110.9,6.8-165.2h.1Z"/>
      <path class="st16" d="M194.5,389.6c5.6,3.6,11,7.2,16.6,10.7,15.5,9.9,31.2,16,48.2,22.6,25.8,9.9,51.7,19.9,77.5,29.8,5.2,2,10.5,4.1,14.6,7.9,6.5,6,8.8,16.1,5.5,24.3-10.8,26.9-51.8,11.7-65.6-3.6-3.6,10.1-9.9,22.2-20.6,21.9-14.5-.4-17.5-19.6-28.1-26-4.3,9.4-4.9,21.3-20.3,17.3-8-2-14-8.5-18.9-15.1-6.3-8.5-11.4-17.7-16.6-26.9-5.2-9.2-10.3-18.5-15.5-27.7-4.2-7.5-8.4-15-11.8-22.8-4.3-9.8-7.2-21.6-1.7-30.7,13.2,3.9,25.1,10.8,36.7,18.2h0Z"/>
      <path class="st16" d="M122.6,221.8c-5,5-9.2,11.3-12.4,17.5-7.1,13.7-12.5,29-24.4,38.8-4.3,3.5-9.3,6.2-12.7,10.6-6.8,8.7-5.4,21.9-12.4,30.4-9,11-29.8,12.3-31.7,26.4-.5,3.4.4,7.1-1,10.2-2.8,6.1-12,5.7-16.7,10.5-5.5,5.5-2.1,15.8,4.7,19.6,6.8,3.8,15.2,2.9,22.8,1.2,14.7-3.3,28.8-9.4,41.5-17.7,4.5-2.9,25.5-16.5,24.5-23.5.4,3,1.2,6.6,2.9,9.1,1.9,2.7,5.8,4.5,8.7,2.9,1.2-.6,2.1-1.7,2.9-2.8,11.8-15,12.8-34.1,16.5-52,3.5-16.6,3.4-34.3,8.1-50.5,4.3-14.8,4.6-26.2.1-41.6-8.4.4-15.6,4.7-21.5,10.7h0v.2Z"/>
      <path class="st13" d="M52.5,516.8c-19,15.2-41.6,26.8-65.8,29-16.6,1.5-37.2-4.7-40.6-21.1-2.2-10.4,4-21.2,12.9-27s19.9-7.3,30.5-7.3c-1.8-7.9,1.3-16.7,7.7-21.7,3.2-2.5,7.2-4.1,11.3-4.5,3.6-.4,9,2.3,12,.7,2.7-1.4,5.3-8.7,7.3-11.2,3.1-3.9,6.6-7.4,11-9.8,5.5-3,11.8-3.9,17.8-5.5,17.1-4.7,32-15.2,46.3-25.7,5.9-4.3,19.5-15.9,26.8-8.4,3.4,3.4,2,9.2.2,13.6-4.7,11.6-10.8,22.6-18.2,32.8-6.6,9.1-12.8,18-20.1,26.7-11.9,14.1-24.5,27.7-39,39.2h0v.2Z"/>
      <path class="st16" d="M167.7,234.8c4.7,4.2,8.9,9.3,12.9,14.1,15.2,18,33.6,33.3,54.2,44.8,11.6,6.5,23.9,7.6,35.7,14.4,11.7,6.6,22.7,14.3,31.2,24.9,11,13.6,3.5,29.5-14.1,30.8-14,1-30.4-8.9-38.6-19.8-3.2,11-8.8,24-18.5,23.7-13-.4-15.7-21.2-25.2-28.1-5.6,14.7-15.8,29.3-30,11.1-10.9-14-16.4-40.4-21.1-57.4-5.8-21.1-6-44.9-3.8-66.5,6.6.3,12.3,3.6,17.3,8h0Z"/>
      <path class="st13" d="M89.1,629.6c-6,3.8-11.8,7.8-17.8,11.5-16.7,10.6-33.5,17.2-51.7,24.2-27.7,10.7-55.4,21.3-83.1,32-5.6,2.2-11.3,4.4-15.7,8.5-6.9,6.4-9.4,17.3-5.9,26.1,11.5,28.8,55.6,12.6,70.4-3.8,3.9,10.9,10.6,23.8,22.1,23.5,15.6-.4,18.7-21,30.1-27.8,4.6,10.1,5.2,22.8,21.7,18.6,8.6-2.2,15-9.1,20.3-16.2,6.7-9.1,12.2-19,17.8-28.8,5.5-9.9,11.1-19.8,16.6-29.7,4.5-8,9-16.1,12.7-24.5,4.6-10.5,7.8-23.1,1.8-32.9-14.2,4.2-26.9,11.6-39.3,19.5h0v-.2Z"/>
      <path class="st14" d="M155.5,697.9c1.6,4.1,3,8.2,2.6,12.5-.3,3.1-1.4,6.1-1.1,9.2.4,4.3,3.7,7.8,7,10.8,12.9,11.6,27.8,13.8,43,21.2,11.2,5.4,23.2,10.9,35.7,9.5,5.5-.6,10.7-2.6,16.2-3.5,16.7-2.9,33.5,3.7,49.4,9.2,12.5,4.3,26.4,8.3,39.8,6.1,11.3-1.8,27.7-1.5,37.1-8.2,9.3-6.6,11.7-20.2,5.6-29.5-6.1-9.4-19.5-13.6-30.6-10.2-4.3,1.3-8.7,3.7-13.1,2.9-9-1.7-10.2-14-17.9-18.6-11.7-7.1-28,7.7-40.3,1.6-4.1-2-6.6-5.8-9.8-8.9-5.7-5.6-14-8.7-22.3-8.6-6.3,0-12.6,2.1-18.8,1.4-10.1-1.2-17.6-9-24.2-16.3-10.4-11.6-42.5-61.3-59.9-56.5-21.2,5.8-6.1,56.4-.8,69.7.8,2,1.7,4.1,2.5,6.1h-.1Z"/>
      <path class="st14" d="M187.6,787.8c36.4,14,78.7,11.9,112.1,32.1,6.6,4,13,9.2,15.7,16.4s.3,16.8-6.8,19.9c-11,4.8-22-8-33.9-8.4-13.4-.5-22.9,14-36,16.4-17.3,3.2-32.2-15.2-49.8-14.5-14.4.6-26.7,13.9-40.9,12.1-14.9-1.9-24.3-19.6-39.3-20.9-5.2-.5-11,1-15.2-2.1-2.3-1.7-3.5-4.4-4.7-7-6.2-14.1-12-31.6-2.5-43.7,2.5-3.1,5.8-5.5,8.1-8.7,12.4-16.9-9-66.3,25.7-47.2,25.4,14,36.8,43.7,67.6,55.6h-.1Z"/>
      <path class="st14" d="M48.1,764.5c-7.8,9.4-9.1,24.4-19.9,30.2-7.6,4.1-16.9,1.9-25.4.3-10.1-1.8-21.1-2.3-29.9,2.8-6.3,3.7-11.3,10.1-18.5,11.1-2.9.4-6.1,0-8.6,1.3-1.7,1-2.8,2.7-3.7,4.4-5.9,11.7.4,27.8,12.6,32.6,16.4,6.3,36.6-6.4,51.8,2.4,6.2,3.6,10.3,10.2,16.9,13.1,11.4,5,24.1-3.5,32.1-13s14.8-21.2,26.4-25.5c7-2.6,14.9-2.2,21.8-5.3,18.9-8.6,26.7-45.2,12.3-60.7-14.7-15.9-55-9.1-67.9,6.5h0v-.2Z"/>
      <path class="st16" d="M104.6,273.5c-5.4-.1-11.1-2.1-16.8,1-3.4,1.9-6.1,4.8-8.9,7.5-4.7,4.5-10.1,8.4-15.8,11.5-3.1,1.7-6.8,3.2-10.1,1.9-4.5-1.7-6.7-8-11.5-8.3-3.7-.2-6.5,3.4-10.1,4.2-5.4,1.3-10.4-4.5-10.5-10,0-5.5,3.3-10.5,6.8-14.8,7.7-9.5,15.7-18.2,27.5-21.6,11.9-3.4,27.7-3.4,37.5-11.6,4-3.3,6.7-8,10.9-11,7.2-5.1,17.5-4.4,24.5-9.8,4.6-3.5,7-9.1,9.9-14.1,2.8-5.1,6.7-10.2,12.4-11.4,16.3-3.6,11.6,20.8,8.6,28.4-3.4,8.4-9.1,9.9-14.8,15.2-5.2,4.9-5.8,13.5-10.7,18.8-2.5,2.7-5.6,4-8.3,6.1-5.5,4.3-8.5,15.1-15.2,17.3-1.7.5-3.4.7-5.1.7h-.3Z"/>
      <path class="st10" d="M157.8,541.8c27.1,5.8,60.2-18.2,82.9-30.9,12.4-7,67.5-16.4,61.8-37-4.7-17-36.5-10.8-47-6.3-27.2,11.5-85.6,46.1-97.7,74.2h0Z"/>
      <path class="st13" d="M211.9,598.9c21.1,15.9,46.4,28,73.4,30.1,18.6,1.5,41.6-5.2,45.5-22.4,2.5-10.9-4.4-22.2-14.3-28.3s-22.2-7.6-34-7.5c2-8.3-1.4-17.5-8.4-22.8-3.6-2.7-8-4.2-12.6-4.6-4-.3-10.1,2.5-13.4.8-3-1.5-5.9-9.1-8.1-11.7-3.4-4.1-7.3-7.8-12.3-10.2-6.1-3.1-13.2-4-19.9-5.7-19.1-4.8-35.7-15.8-51.6-26.8-6.5-4.5-21.7-16.5-29.9-8.6-3.8,3.6-2.3,9.6-.3,14.3,5.2,12.2,12,23.7,20.2,34.3,7.3,9.5,14.2,18.9,22.3,28,13.2,14.8,27.3,29,43.3,41h0Z"/>
      <path class="st13" d="M1014.5,853.6c6,3.8,11.8,7.8,17.8,11.5,16.7,10.6,33.5,17.2,51.7,24.2,27.7,10.7,55.4,21.3,83.1,32,5.6,2.2,11.3,4.4,15.7,8.5,6.9,6.4,9.4,17.3,5.9,26.1-11.5,28.8-55.6,12.6-70.4-3.8-3.9,10.9-10.6,23.8-22.1,23.5-15.6-.4-18.7-21-30.1-27.8-4.6,10.1-5.2,22.8-21.7,18.6-8.6-2.2-15-9.1-20.3-16.2-6.7-9.1-12.2-19-17.8-28.8-5.5-9.9-11.1-19.8-16.6-29.7-4.5-8-9-16.1-12.7-24.5-4.6-10.5-7.8-23.1-1.8-32.9,14.2,4.2,26.9,11.6,39.3,19.5h0v-.2Z"/>
      <path class="st10" d="M964.4,567.7c-.8-4-1.8-8-3-12-1-3.7-2.3-7.4-4.9-10.2-2.5,1.6-3.1,4.9-3.4,7.8-6.1,55.8-9.9,113.3-9.9,169.1v326.6c0,53.5-.3,107-1.1,160.5-.8,48.1.5,94.5-9.4,142-3,14.2-6.6,28.8-4.6,43.2,2.6,2.8,7.4,1.7,10.8-.2s7-4.3,10.8-3.5c2.5.5,4.5,2.4,6.8,3.4,9.3,4.2,19.6-5.6,29.8-4.6,3.5.4,6.7,2,10.1,2.4s7.6-.8,8.6-4.1c.6-1.9,0-3.9-.8-5.8-8.7-23.6-16-44.5-19.4-69.1-4-29.1-6.8-58.2-8.5-87.6-3.4-58.7-3-117.6-3.7-176.3-.5-46.7-.5-93.3-.2-140,.2-31.1.5-62.2.8-93.3.3-29.2,2.1-58.8-2-87.5-7.5-53.3,4.4-107.9-6.8-160.8h0Z"/>
      <path class="st16" d="M909.2,723.9c-5.5,3.6-11,7.2-16.6,10.7-15.5,9.9-31.2,16-48.2,22.6-25.8,9.9-51.7,19.9-77.5,29.8-5.2,2-10.5,4.1-14.6,7.9-6.5,6-8.8,16.1-5.5,24.3,10.8,26.9,51.8,11.7,65.6-3.6,3.6,10.1,9.8,22.2,20.6,21.9,14.5-.4,17.5-19.6,28.1-26,4.3,9.4,4.9,21.3,20.3,17.3,8-2,14-8.5,18.9-15.1,6.3-8.5,11.4-17.7,16.6-26.9,5.2-9.2,10.3-18.5,15.5-27.7,4.2-7.5,8.4-15,11.8-22.8,4.3-9.8,7.2-21.6,1.7-30.7-13.2,3.9-25.1,10.8-36.7,18.2h0Z"/>
      <path class="st14" d="M981,556.1c5,5,9.2,11.3,12.4,17.5,7.1,13.7,12.5,29,24.4,38.8,4.3,3.5,9.3,6.2,12.7,10.6,6.8,8.7,5.4,21.9,12.4,30.4,9,11,29.8,12.3,31.7,26.4.5,3.4-.4,7.1,1,10.2,2.8,6.1,12,5.7,16.7,10.5,5.5,5.5,2.1,15.8-4.7,19.6s-15.2,2.9-22.8,1.2c-14.7-3.3-28.8-9.4-41.5-17.7-4.5-2.9-25.5-16.5-24.5-23.5-.4,3-1.2,6.6-3,9.2-1.9,2.7-5.8,4.5-8.7,2.9-1.2-.6-2.1-1.7-2.9-2.8-11.8-15-12.8-34.1-16.5-52-3.5-16.6-3.4-34.3-8.1-50.5-4.3-14.8-4.7-26.2,0-41.6,8.4.4,15.5,4.7,21.5,10.7h0Z"/>
      <path class="st14" d="M931.2,563.7c-16.3,13.2-29.5,30-44.4,44.9-25.8,25.7-61.9,30.3-84.8,58.6-11,13.6-3.5,29.5,14.1,30.8,14,1,30.4-8.9,38.6-19.8,3.2,11,8.8,24,18.5,23.7,13-.4,15.7-21.2,25.2-28.1,5.6,14.7,15.8,29.3,30,11.1,10.9-14,16.4-40.4,21.1-57.4,5.2-18.7,11.9-41.7,9.3-60.9-.5-3.6-1.4-7.5-4.2-9.8-5.2-4.4-13.2-.8-18.7,3.2-1.6,1.2-3.2,2.4-4.7,3.6h0Z"/>
      <path class="st16" d="M1014.5,963.8c6,3.8,11.8,7.8,17.8,11.5,16.7,10.6,33.5,17.2,51.7,24.2,27.7,10.7,55.4,21.3,83.1,32,5.6,2.2,11.3,4.4,15.7,8.4,6.9,6.4,9.4,17.3,5.9,26.1-11.5,28.8-55.6,12.6-70.4-3.8-3.9,10.9-10.6,23.8-22.1,23.5-15.6-.4-18.7-21.1-30.1-27.8-4.6,10.1-5.2,22.8-21.7,18.6-8.6-2.2-15-9.1-20.3-16.2-6.7-9.1-12.2-19-17.8-28.8-5.5-9.9-11.1-19.8-16.6-29.7-4.5-8-9-16.1-12.7-24.5-4.6-10.5-7.8-23.1-1.8-32.9,14.2,4.2,26.9,11.6,39.3,19.5h0Z"/>
      <path class="st14" d="M948.2,1032.2c-1.6,4.1-3,8.2-2.6,12.5.3,3.1,1.4,6.1,1.1,9.2-.5,4.3-3.7,7.8-7,10.8-12.9,11.6-27.8,13.8-43,21.2-11.2,5.4-23.2,10.9-35.7,9.5-5.5-.6-10.7-2.6-16.2-3.5-16.7-2.9-33.5,3.7-49.4,9.2-12.5,4.3-26.4,8.3-39.8,6.1-11.3-1.8-27.7-1.5-37.1-8.2-9.3-6.6-11.7-20.2-5.7-29.5,6.1-9.4,19.5-13.6,30.6-10.2,4.3,1.3,8.7,3.7,13.2,2.9,9-1.7,10.2-14,17.9-18.6,11.7-7.1,28,7.7,40.3,1.6,4.1-2,6.6-5.8,9.8-8.9,5.7-5.6,14-8.7,22.3-8.6,6.3,0,12.6,2.1,18.8,1.4,10.1-1.2,17.7-9,24.2-16.3,10.4-11.6,42.5-61.3,60-56.5,21.2,5.8,6,56.4.8,69.7-.8,2-1.7,4.1-2.5,6.1h0Z"/>
      <path class="st14" d="M916.1,1122c-36.4,14.1-78.7,11.9-112.1,32.1-6.6,4-13,9.2-15.7,16.4s-.3,16.8,6.8,19.9c11,4.8,22-7.9,33.9-8.4,13.4-.5,22.8,14,36,16.4,17.3,3.2,32.2-15.2,49.8-14.5,14.4.6,26.7,13.9,41,12.1,14.9-1.9,24.3-19.6,39.3-20.9,5.2-.5,11,1,15.2-2.1,2.3-1.7,3.5-4.4,4.7-7,6.2-14.1,12-31.6,2.5-43.7-2.5-3.1-5.8-5.5-8.1-8.7-12.4-16.9,9-66.3-25.7-47.2-25.4,14-36.8,43.7-67.6,55.6h0Z"/>
      <path class="st14" d="M1055.6,1098.8c7.8,9.4,9.1,24.4,19.9,30.2,7.6,4.1,16.9,1.9,25.4.3,10.1-1.8,21.1-2.3,29.9,2.8,6.3,3.7,11.3,10.1,18.5,11.1,2.9.4,6.1,0,8.6,1.3,1.7,1,2.8,2.7,3.7,4.4,5.9,11.7-.4,27.8-12.6,32.6-16.4,6.3-36.6-6.4-51.8,2.4-6.2,3.6-10.3,10.2-16.9,13.1-11.4,5-24.2-3.5-32.1-13s-14.8-21.2-26.4-25.5c-7-2.6-14.9-2.2-21.8-5.3-18.9-8.6-26.7-45.2-12.3-60.7,14.7-15.9,55-9.1,67.9,6.4h0Z"/>
      <path class="st10" d="M955.1,754.2c1.9,2.5,2.6,6,2,9.2-.8,4.5-3.6,8.4-6.3,12.1-9,12.2-17.9,24.5-26.9,36.8-17.9,24.5-40,44.7-61.5,66.2-9.9,10-15.7,24-24.7,34.9-4.4,5.3-10.7,14.1-18,15.8-5.2,1.2-21-1.3-15.4-10,0-9,20.7-25.1,26.1-32-10.4,3.8-20.7,7.7-31.1,11.6-2.2-3.4,1.6-7.4,4.9-9.7,17.1-11.7,34.3-23.4,51.4-35.2,14.2-9.7,21-22.2,33.3-33.7,9.8-9.1,21.3-16.2,30.1-26.4,11.6-13.5,22.5-27.6,33-41.9,1.3.5,2.3,1.4,3.1,2.5h0v-.2Z"/>
      <path class="st13" d="M891.8,933.2c-21.1,15.9-46.4,28-73.4,30.1-18.6,1.5-41.6-5.2-45.5-22.4-2.5-10.9,4.4-22.2,14.3-28.3,9.9-6,22.2-7.6,34-7.5-2-8.3,1.4-17.5,8.4-22.8,3.6-2.7,8-4.2,12.6-4.6,4-.3,10.1,2.5,13.4.8,3-1.5,5.9-9.1,8.1-11.7,3.4-4.1,7.3-7.8,12.3-10.2,6.1-3.1,13.2-4,19.9-5.7,19.1-4.8,35.7-15.8,51.6-26.8,6.5-4.5,21.7-16.5,29.9-8.6,3.8,3.6,2.3,9.6.3,14.3-5.2,12.2-12,23.7-20.2,34.3-7.3,9.5-14.2,18.9-22.3,28-13.2,14.8-27.3,29-43.3,41h0Z"/>
      <path class="st14" d="M959,723c1.9,18.9,8,37.9,15.7,53.7,1.6,3.3,3.7,6.9,7.2,7.9,2.8.8,5.9-.2,8.8-.3,10.6-.3,19,11.2,29.5,10.1,8.8-.9,15.2-6.7,24.6-6,8.5.6,17.6,5.2,25.6,8,12.5,4.3,26.4,8.3,39.8,6.1,11.3-1.8,27.7-1.5,37.1-8.2,9.3-6.6,11.7-20.2,5.7-29.5-6.1-9.4-19.5-13.6-30.6-10.2-4.3,1.3-8.7,3.7-13.2,2.9-9-1.7-10.2-14-17.9-18.6-11.7-7.1-28,7.7-40.3,1.6-4.1-2-6.6-5.8-9.8-8.9-5.7-5.6-14-8.7-22.3-8.6-6.3,0-12.6,2.1-18.8,1.4-10.1-1.2-17.7-9-24.2-16.3-5.1-5.7-9.2-12.5-15.7-16.3-2,9.9-2.2,20.5-1.2,31.1h0Z"/>
      <path class="st13" d="M1051.2,851.1c19,15.2,41.6,26.8,65.8,29,16.7,1.5,37.2-4.7,40.6-21.1,2.2-10.4-4-21.2-12.9-27s-19.9-7.3-30.5-7.3c1.8-7.9-1.3-16.7-7.7-21.7s-7.2-4.1-11.3-4.5c-3.6-.3-9,2.3-12,.7-2.7-1.4-5.3-8.7-7.3-11.2-3.1-3.9-6.6-7.4-11-9.8-5.5-3-11.8-3.9-17.8-5.5-17.1-4.7-32-15.2-46.3-25.7-5.9-4.3-19.5-15.8-26.8-8.4-3.4,3.4-2,9.2-.2,13.6,4.7,11.6,10.8,22.6,18.2,32.8,6.6,9.1,12.8,18,20.1,26.7,11.9,14.1,24.5,27.7,38.9,39.2h0l.2.2Z"/>
      <path class="st10" d="M970.9,884.6c1.9,2.5,2.6,6,2,9.2-.8,4.5-3.6,8.4-6.3,12.1-32.2,44-58.8,69-110.5,88.7-12.1,4.6-24.4,9.3-37.3,10-10.5.6-21.2-1.6-30.7-6.3,56.5-9.5,108.7-30.1,146.5-74.1,11.6-13.5,22.5-27.6,33-41.9,1.3.5,2.3,1.4,3.1,2.5l.2-.2Z"/>
      <rect class="st21" x="621.4" y="481.6" width="436.8" height="53.9"/>
      <rect class="st20" x="437.7" y="327.2" width="88.4" height="390.2"/>
      <rect class="st18" x="33.9" y="1003.3" width="656.3" height="479.1"/>
      <rect class="st7" x="186.1" y="1147.9" width="504.1" height="283.2"/>
      <rect class="st6" x="183.3" y="1108.1" width="536.4" height="39.8"/>
      <line class="st2" x1="275" y1="1147.9" x2="275" y2="1431.1"/>
      <line class="st2" x1="363.9" y1="1147.9" x2="363.9" y2="1431.1"/>
      <line class="st2" x1="452.9" y1="1147.9" x2="452.9" y2="1431.1"/>
      <line class="st2" x1="541.8" y1="1147.9" x2="541.8" y2="1431.1"/>
      <line class="st2" x1="630.7" y1="1147.9" x2="630.7" y2="1431.1"/>
      <line class="st2" x1="690.2" y1="1289.5" x2="186.1" y2="1289.5"/>
      <circle class="st12" cx="598.9" cy="918.7" r="138.2"/>
      <g id="FxIEZO.tif">
        <path class="st21" d="M779.9,469.9v-40.3l-25.2,40.2c-1.3.3-2.3.2-3.8,0l-1.3-40.3-25.1,40.3h-6.1l34.5-57.1h8.1v33.4l21.7-33.5h9v57.2h-11.8Z"/>
        <path class="st21" d="M920.5,458.1c1.8-5.4,9.6-7.6,15-8.8,2.4-.5,4.8-1.9,5.3-4.5.5-3-1.7-5.5-4.6-6-4.4-.8-8.7.6-12.2,3.4l-.6-4.6c5.1-3.5,11.1-5.2,17.2-4.4s11.1,5.6,11.2,12.2v24.3h-10.8c0,.1,0-2.9,0-2.9-4.7,4.4-12.2,5.3-17.6,1.5-3-2.2-4.1-6.6-2.9-10.2h0ZM939.6,462.6c.7-1.4.9-2.9.9-4.3v-7.1c-5.8,2.4-10,3.5-9.5,9.8.2,2.3,1.5,4,3.7,4.4,2,.3,4-.6,4.9-2.7h0Z"/>
        <rect class="st21" x="956.3" y="412.3" width="11.2" height="57.6"/>
        <rect class="st21" x="972.2" y="412.3" width="11.1" height="57.6"/>
        <path class="st21" d="M1006.3,468.8c-5.8,3-13.1,2-19.1-1,0-1.5,0-2.9.4-4.5,4.5,2.5,11.9,4.6,14.9,1.4,1.5-1.5,1-3.8-.3-5.3-3.2-3.8-8.8-4.9-11.6-7.5-3.7-3.4-4.5-9.2-1.9-13.6,4-6.8,14.6-6.9,21.4-2.9l-.6,4.2c-4.1-2.4-12-4.5-14.3-1.5-1.5,2-.7,4.9,1.5,6l9,4.3c4.2,2,6.2,6.4,6.1,11,0,4.1-1.9,7.6-5.6,9.5h0Z"/>
        <path class="st21" d="M873.7,469.1c-5.8,2.5-12.6,1.5-18.3-1.3,0-1.5,0-2.9.3-4.5,4.2,2.2,9.9,4.2,13.7,2.3,1-.5,1.8-1.4,2-2.2.9-3.3-2.7-5.9-6-7.7l-5.8-3.1c-4.8-3.4-5.8-10.6-2.2-15.2,4.5-5.9,14.4-5.7,20.7-2l-.4,4.2c-4.2-2.5-12.4-4.6-14.5-1.3-1.2,1.9-.5,4.7,1.7,5.7l9,4.3c4.2,2,6.2,6.4,6.1,11s-2.3,8.1-6.3,9.8h0Z"/>
        <path class="st21" d="M916.8,469.8h-11v-25.4c0-3.1-2.6-4.9-5.4-4.9s-5.4,1.6-5.4,4.6l-.2,25.7h-11.1v-57.1h11.2v24c6.2-4.7,12.9-5.6,18.5-.8,2,2,3.2,4.5,3.2,7.4v26.5h.2Z"/>
        <path class="st21" d="M795.3,461.9c-.3-2.9.6-5.3,2.7-7.1,7.3-6.3,17.5-4,18.1-10.1.3-3.1-2-5.4-5-5.9-4.3-.7-8.5.8-11.9,3.5-.3-1.6-.5-3.1-.5-4.7,5-3.3,10.6-5,16.5-4.3,6.4.7,11.7,5.2,11.8,12l.2,24.6h-10.9c0,.1-.2-2.9-.2-2.9-3.7,3.7-9,4.7-14,3.2-3.8-1.1-6.3-4.1-6.7-8.2h0ZM814.8,462.9c.6-1.2,1-2.6,1-3.9v-7.8c-5.4,2.2-10.2,3.5-9.4,9.8.3,2.1,1.4,3.9,3.3,4.3s4-.4,5.1-2.4h0Z"/>
        <path class="st21" d="M842.3,469.8h-10.9v-35.8h10.8l.2,5.6c3.2-3.5,7.3-6.4,11.8-6v5.7c-8.7,0-11.9,7.6-11.9,15.9v14.6h0Z"/>
      </g>
      <g id="jNzESd.tif">
        <path class="st16" d="M574.1,955.8c-10.8,16.2,5.2,25.4,13.1,39.3,4.9,8.7,3.2,16-1.2,24.7l-3.6,7.1c-2.7,5.4-5.7,10.9-6.5,16.9-.7,5.3-.5,10.4,2.3,15.3-3.6.5-9.2,0-9.8-2-2.8-9.8-1.3-16.4,3.3-25l5.7-10.7c2.8-5.2,4.2-10.6,3.5-16.7-.5-4.5-2-9.2-4.8-12.8l-9.4-12.2c-7.2-9.4-5.1-18.5,1.1-28l4.8-7.3c3.9-5.9,7.1-13.1,4.9-19.9-1.8-5.9-4.5-11.3-6.9-17.1-6.4-15.4-8.7-27.2,1.2-41.6l3.5-5.1c-2.2-.3-3.3,1.3-4.7,2.5-5.1,4.3-8.2,10-9.9,16.5-4.9,18.6,5.3,28.9,9.1,44.2.9,3.8.9,7.1,0,10.8-1.1,4.1-3.5,7.2-5.9,10.7l-6.1,8.8c-5.7,8.3-5.2,19.3,1,27.2l7.7,9.6c5.3,6.6,7.7,11.7,6.5,20.5-1.9,14.2-18.5,24.9-14.3,43.1l-9.2-2.9c-1.2-5.2-.2-10.1,2.2-14.9l7.6-12.5c5-8.1,3.9-11.2,4.9-16.3.3-1.3-.3-3.3-.7-4.7-2-9.6-12.5-16.6-16.9-25.8-3.5-7.3-2.3-15.8,1.7-22.8l10.9-15.9c4.2-6,4.7-13.3,1.8-20.1l-4-9.4c-1.7-4-3.3-7.8-4.3-12-.9-3.6,0-6.8.3-10.4,1-8.5,4.1-16.4,9.8-23.1-.6-.8-1.5-.5-2.2,0-7.2,4.8-10.1,12.2-12.7,20.3-1.7,5.4-2.3,10.7-.9,16.3,1.4,5.6,3.3,10.9,5.3,16.3,1.1,3,1.5,6,2.1,8.9,1.1,5.4-1.1,11.9-4.7,16.3l-4.6,5.5c-5.6,6.8-10,15.8-8.2,24.5,2.1,10.3,11.8,17.7,17.4,28.2,1.1,2,1.6,4.3,2.2,6.6,1.4,5.4-3.6,14.5-7.3,19.7-4.7,6.5-8.7,12.9-9.3,21.3-2-1.3-5.3-1.8-6.6-4-1-1.9.2-5.2.9-7.1,3-7.8,10.2-14,12.5-22.1,1-3.5.5-10.3-2.3-13.1-1.6,0-.7,2.2-1,2.9-.7,1.8-.7,4.4-1,6.2-1,5.3-4.1,9.5-6.9,13.8l-3.2,5c-2,3.2-3.5,6.6-4.9,9.9-1.6.2-2.5-.6-3.6-1.2-3.8-2.3-7.3-4.7-10.1-8.2l5-3.4c0-2.1-1.4-3.2-2.3-4.5-3.4-5-9.3,2.7-11.5.5l-5.4-5.3c-.5-.5-.6-1.1-.5-1.5s.5-1,1.1-1.2l3.7-1.3c1.6-.5,4.8-.4,5.7-2.1,1.1-2.9-1.9-6-4.9-6.2-5.2-.3-8.2,3.4-11.7,4l-5.7-6.6c5-3.7,11.8-8.2,16.7-5.8,1.3,2.2,1.3,5.9,3.9,7.6,1.6,1,3.2.2,4.8,0,8.8-1.8,16.2-8.8,23.4-14.8-3.2-5.5-6.3-10.9-7.1-17.2-1.3-10.8,1.9-15.9,7.6-24.4l3.5-5.3c11.9-18.1,3.5-22,1-38.6l-.6-3.9c-.6-3.8-.3-7.6,0-11.3.7-6.8,3.2-12.5,7.1-18.4-7.5,1.4-11.2,13-13.6,20.3v3.2c-1.4,2.5-.5,4.5-.2,6.9s.5,4.7,1.1,7.2l2,9.1c1.5,6.9,2.4,14.5-1.1,20.3l-8.6,14.5c-3.2,5.3-5.3,10.9-6.3,17.2l-5.8,4.3c-5.1,3.8-8.2,5.6-15,4.6-.9,1.6,0,3.1.2,4.6.2,1.4-.1,2.6.9,3.9-8.2.5-15.2,7.5-18.4,7.6-2.1,0-4.6-4.5-4.8-7.6,7.4-3,12.8-9.7,20.5-9.3.4-2.8,0-6-1.5-8.3-8.3-2.8-17.2,9.5-23.6,8.6-2.6-.4-3.4-3.3-3.6-5.5,0-.9-1.3-2.2-.4-3.1s2.8-.8,4-1.2c7.4-2.6,14-8.7,20.8-10.1,1.1-.2,2.5-.2,2.4-1.8v-6.6c-11.8-1-18.7,10-30.6,9.7l-2.7-9.8,5.1-.3c10.1-2.2,17.7-10,25.8-11,2.5-.3,4.4-.9,4.9-4,.2-1.5,0-3.5.8-5.4-4.1-1-8-.3-11.7,1.5l-12.3,6c-4.5,2.2-9.5,2.4-14.5,1.3l-.5-7.2c0-1.2-1.2-3.1-.2-4.2.8-.9,2.5.5,3.3.5h7c4.7,0,16.2-5.8,21.7-8.8,3-1.7,6.1-2.3,9.4-2.3s2.9-2,3.8-3.9c.7-1.4,2.5-4.3.2-5.4-1.5-.7-4.7-.4-6.5-.2-9.6,1.4-18.2,10.1-29,10.9-2.9.2-6.1-.9-8.6-2.1-2.9-1.4-1.4-7.1-1-10.5,2.4-21.3,10.5-43.1,21.9-61.2,14.3-22.6,32.7-38.4,56.4-50.5,13.2-6.7,28.6-11.2,43.2-12.9l7.8-.9h21.6l7.8.9c19,2.2,37.6,8.5,53.7,18.8,10.4,6.6,19.6,13.6,28.2,22.3,13.2,13.3,23.4,28.6,30.4,46.1,5,12.6,7.6,25.5,9.2,38.9l.4,8c-7.3,6-15.4,3.6-23.3-.9-7.4-4.2-16-9.3-23.6-5.6.9,3,1.8,5.8,3.6,8.3,4,0,7.8.8,11.4,2.5l7.2,3.4c8,3.8,10.8,5.9,20.7,5.2,1.1,0,2.2-1.2,3.7-.6v8.1c0,1.4-.5,2.7-1.1,3.8l-4.7.4-3.9-.5c-7.7-1-18.4-11.2-29.1-9.3-.3,2.1.4,4,.8,6l.4,2.4c5.3.5,9.9,2.5,14.4,5.1l7.7,4.3c6,3.4,11.1,2.5,11.9,4,1,1.8-.3,3.8-.4,5.7s-1.1,4.2-3.3,3.8c-10.3-1.9-16.5-9.4-26.1-10.7-.5,0-1.4,0-1.8.2-.4.2-.9,1-.9,1.7v6.2c10,2.1,17,9.4,27.5,12.2-.3,2.9-1.5,7.1-4.3,8.7-7-1.1-18.3-11.1-23.7-8.7,0,0-1.7,4.8-1.2,7.6,3,0,5.8,1.1,8.3,2.7l9.2,5.8c.8.5,3.2.6,3.2,1.9-.2,2.9-2.5,5.4-4,7.5-5.1-1.6-9.5-5.5-14.3-6.7-1.6-.4-3.2-.3-4.5-1.3,0-3.8,1.7-6.7.8-8s-3.7,1.4-10.7-2.5c-2.6-1.4-4.6-3.9-6.9-5.5-2.8-2-3.8-3.8-4-7.1-.3-3.8-2.3-7.6-4.3-10.8l-6.9-10.8c-4.1-6.5-7.3-13.8-5.1-21l3.4-10.9c.5-1.7.3-3.4.7-5.2.8-3.4.3-6.9-.2-10.3-1.3-9.4-3.9-21-13.5-24.9l4.2,9.8c2.4,5.6,3.8,12.8,3.1,18.8-.5,3.9-.9,7.6-2,11.5l-3.5,12.4c-1.4,5.1-.7,10.3,2.1,14.7l10.6,16.7c2.2,3.5,3.8,7.2,4.4,11.4.6,3.9.3,9.9-1.3,13.3-1.8,3.8-4.2,7-5.4,11.2,7.5,6.7,15.4,14,25.4,15,1.5.2,2.5,0,3.2-1.7l2.8-6.8c.7-1.7,3.5-.7,4.8,0l11.6,6.1c-1.1,3.1-3.1,5.6-5.7,7.3l-7.5-3.4-5.5-1.3c-2.4,1.5-4,3.8-3.9,6.9,3.8.6,7.3,2.1,10.5,4.5-1.8,2.8-4.2,4.8-6.7,7.1l-8.7-2.9c-3.1,1.7-5.5,6.3-3.2,7.4,1.7.8,3.4,1.3,4.7,2.9-3.8,4-8.1,6.6-13,9.4-1.6-4.3-3.6-8-6.1-11.8l-4-6.1c-2.7-4.2-5.2-8.6-6.2-13.6l-.7-7.4c-3.5.4-3.3,9.4-2.6,13.9.5,3.1,2.7,5.8,4.3,8.4l6.5,10.3c1.5,2.4,2.3,4.9,3,7.7.8,3.6-2.3,4.4-6.9,5.9-.3-6.1-2.8-11.2-5.9-16.3l-6.8-11c-3-4.8-5-10.9-3.6-16.1,1.1-3.8,3.3-6.4,5.5-9.4l5.5-7.5c5.5-7.5,10.4-13.8,8.2-24-2-9.2-10.7-17-15.3-26.4-1.5-3.1-2.7-9.1-1.8-12.4l4.8-16.8,2-9c.8-3.7.6-8,0-11.8-1.3-7.8-7.4-21.3-15.8-23.9,7.2,10.3,11,21.4,9.8,33.7-.4,3.9-1.2,7.8-2.8,11.3-3.3,7.2-7.5,15-6.4,22.8.6,4.4,3.3,7.9,5.7,11.6l6.2,9.6c5.7,8.8,8.5,20.1,2.2,28.7l-7.3,9.9c-8.3,11.2-11.8,21.6-3.5,33.6,5.6,8.2,12.2,18.1,10.1,27.5l-8.7,2.9c3.6-16.4-11.4-27.8-14.8-41.6-1.7-6.9.3-13.3,4.6-18.8l8-10.4c9.4-12.2,8.9-21.5,0-33.3l-6-8c-3.9-5.1-5.3-12.2-3.2-18.4l8.3-24.9c1.3-3.9,1.1-7.4,1.8-11.3l-.6-4.7c-1.1-8.8-7.7-20.3-16.5-23.8,5.9,7,9.7,13.8,10.9,22.5,1.5,11-1.7,19.1-6.4,28.9-5.5,11.4-10.1,21.2-1.7,32.5,3.4,4.6,6.6,9.2,9.3,14.2,1.2,2.2,1.8,4.6,2.3,7,1.4,6-1.2,11.4-4.9,16.1-6.4,8.3-14.5,17.5-14.5,28s1.5,7.6,3.3,10.9l6.3,11.5c4.6,8.5,7.1,17.8,3.2,26.6l-9,2.1c5-11.9.8-22.5-4.7-33.2l-6.6-12.7c-2.8-5.4-1.8-12.2,1.2-17.4,2.2-3.8,4.9-6.9,7.5-10.4l4.7-6.3c2.4-3.2,3.9-6.7,4.9-10.5,3-11.5-10.9-21.2-14.3-30.5-.7-1.9-1.7-3.8-4.1-3.9-1.2,0-2.8-.2-4,0-5,1.3-8,2.7-14.5,1.4-2.5-.5-9-4.2-11.1,1.7-1.1,3-2.5,6-4.3,8.7l-6.2,9.4h0l.2.3ZM609.6,850.9l8.5.9c9.6,1,20.1,5.1,29.3,8.5,2.5.9,4.5,2.3,7.5,2.6.4-5.3,1.6-10.2,4.2-14.9l8.2-14.7c-7.3-1.1-13.9,3.5-21.1,5.4-1.5-6,4.1-12.2,4.3-18.5-11.7.8-20.9,7.5-30.5,13.3l-5.7-13.3c-.5-1.1-.9-2.2-.3-3.3l10.8-10.4c.8-.8,1.5-1.6,1.1-2.8-1.5,0-3-.6-4.5-.6l-12.5-.5-6.1-14.2c-.3-.7-1.2-2-2-1.7l-5.3,11.5-2.3,4.5c-2.1.6-4.3,0-6.4.3-5.7,1-10.7.4-11,1.2-.2.4,0,1.1.5,1.5l10.8,9.8c.8.7,1.5,1.2,1.7,2.1,0,1-.4,1.6-.6,2.5-1.2,5-2.7,9.9-6.1,14.1-8.8-5.5-17.9-11.5-27.6-13.9-.8-.2-3,.5-2.6,1.4,1.4,4,3.7,7.5,4.7,11.6l.9,3.8c.2.7,0,1.7-.3,2-.3.2-1.2.4-1.7,0-4.8-2.5-9.5-4.4-14.9-5.4-1.9-.4-3.5-.9-5.2.7l6,9.5c3.8,6,5.9,12.5,7.3,19.7,10.8-5.2,21.7-8.8,33.3-11.1,1.7-.3,3.5-.7,5.2-.9l9.2-.9h13.2ZM504.9,894h10c5.3-7.8,11.5-14.9,19-20.8,2.5-2,5.3-3.1,7.5-5.9-4.1-2.7-9.2-4.1-14-3.5-7.6,1-14.4,3.5-21.3,6.6-1-1.8-1-3.6-1.4-5.5-1.9-8.2-6.5-15.2-13.4-20.1-1-.7-3.4-.6-3.6.7-.5,2.5.9,5.1.6,7.5l-.9,7.7c-.1,1-.6,2.3-.8,3.3-1.9,7.2-5.2,13.5-9.2,19.7l-11.6,18.1c3.3,3.1,11.3,3,14.9,1.4l10.5-4.8c4.4-2,8.8-3.9,13.8-4.5h-.1ZM688.3,894.2c1.1.8,3.3-.3,4.3-.2l7.8.8c1.9.2,3.6.2,5.3,1l16.3,7.7c3.5,1.6,12.4,1.7,15.2-1.7l-13.6-21.4c-3.1-4.9-5.2-10-6.6-15.7l-.8-3.5v-12c0-.9.9-2.3.2-3.1-.4-.5-.9-1.8-1.9-1.5-6.5,2.2-13.1,10.4-14.8,16.7l-2.1,8c-.2.7-.9,1.1-1.3,1.1-1.4,0-8-4.9-17.2-6.1-6.7-.9-17.7,0-16.6,4.1.2.7.8.8,1.5,1.2,10.4,6.4,17.5,14,24.4,24.5h-.1ZM611.2,927.6c10-6.5,14.3-16,17.2-27.2.7-2.7.5-5.8,0-8.4-.2-1.2-1.3-1.9-2-2.2-.8-.4-5.5,2-11.8.2-5.2-1.5-4.9,4.4-7.3,4-1.8-.3-1.7-2.2-2-3.4-.7-3-1.2-5.4-.3-8.4.7-2.3,1.4-5.5,3.8-6.7,4.8-2.4,10.1-2.9,15.3-2.4,1.6,0,3.2.6,4.8,0-1.5-9.8-8.5-13.7-17.3-16.1l-5.8-.3c-3.4-1-6.3-.6-9.7,0-1.8.3-3.5.4-5.3.8-6.8,1.5-12.3,5.9-15,12.4-.4.9,0,2,.4,2.6.5.6,1.2,1,2.1.9,6.2-1,15.5-.4,17.2,4.5.8,2.2.4,4.7,1.1,7.1s-.5,5.7-2.8,6.2c-1.5-.2-3.2-1.8-4.9-1.4-3.4.9-7.3,1.7-10,.3-1.1-.6-2.2-.7-3.3-.3-3.5,1.2-2.5,8.3-1.5,13.5,1.6,8.2,6.2,15.5,12.3,21.1,3.6,3.3,7.6,4.9,12.3,5.6,2.2.3,4,.8,6.3,0,2-.6,4.2-1,6.2-2.3h0ZM590.4,884c-1-6.9-13.7-6.7-15.2-4.7-.7,1-.8,6,1.2,5.9,1,0,1.9-1.8,2.9-2.1,4.7-1.5,7.7,1.5,11.1.9h0ZM627.5,884.3c.5-.4,1.3-1.7,1.1-2.5-1.1-4-6.4-4.1-11.5-2.8-1.7.5-3.9.5-4.6,2.5-.3.9,0,2,.7,2.3.8.3,1.3-.4,2-.6,6.1-2.2,10.7,2.6,12.4,1.2h-.1Z"/>
        <path class="st16" d="M602,839c-4.4.6-8.5.4-12.6.2-.7,0-1.2-1.3-1.2-1.8s.8-1,1.4-1.4l11.1-8.4c4.9,3,9.7,6,13.7,10.2-.2,1.5-2.3,1.8-3.7,1.2-2.7-1-5.7-.4-8.7,0h0Z"/>
        <path class="st16" d="M604.2,918.1c-2,.6-5.1.7-6.9-.3l-6.5-5.6c-.4-.3-.4-.8-.4-1.1s.2-.7.7-.7l21.1.2c-2,3.3-4.4,6.2-8,7.4h0Z"/>
        <path class="st16" d="M607.1,902.1c-2.6,1.4-5,2.6-7.8,2.1l-5.5-2c2-4.3,5.4.5,9.8-2.3,1.3.6,2.2.5,3.5,2.1h0Z"/>
      </g>
      <g id="_7FxJIX.tif">
        <path class="st13" d="M859.2,227.1c10.7,3.8,16.2,15.3,12.3,25.8-2.7,7.3-8.8,12.5-16.6,13.5-5.9.7-11.5-1.4-16-5.3-3.4-3-6.5-8.6-6.6-13.2l-.2-13.5v-20.9h8.5v16c3-1.6,5.9-2.5,9.1-3.1l6.5-.2c.9.8,1.9.6,2.9,1h0ZM863.6,246.2c0-6.2-5-11.2-11.2-11.2s-11.2,5-11.2,11.2,5,11.2,11.2,11.2,11.2-5,11.2-11.2Z"/>
        <path class="st13" d="M815.3,227.1v22.7c-.4,5.9-3.7,11.5-9.1,14.2l-2.4,1c-3.3,1.5-7.2,1.2-10.8.2-3.8-1.1-6.9-3.6-9-7-1.3-2.1-2.6-4.8-2.6-7.5l-.2-23.7h8.3v22.6c0,1.3.5,2.4,1.1,3.5,1.4,2.7,4,4.4,6.8,4.7,3.2.4,6.2-1,7.9-3.6,1.3-1.9,1.7-3.9,1.7-6.2v-20.9h8.3Z"/>
        <path class="st13" d="M960.4,254.3l-5.6,10.9h-9.9l4.4-8.4,5.8-11.2-3.3-5.8-7.6-12.6h9.8l6,10.1,4.9-10.3h9.7l-6,11.6-2.6,5c-.3.6-1.3,1.4-.8,2.2l5.8,10.1,5.2,9.1h-9.2l-6.7-10.9h0v.2Z"/>
        <path class="st13" d="M898.7,250.7v14.5h-8.6v-26.7l.3-12.4v-12.6h7.9c0,.7.4,1.5.3,2-.3,1.4,0,2.6,0,4.1v31.1h0Z"/>
        <rect class="st13" x="904.3" y="241.6" width="37.9" height="8.6" transform="translate(677.1752 1169.0966) rotate(-89.9913)"/>
        <path class="st13" d="M925.2,211.5c3.1.6,4.4,4.2,3.5,6.8-1,2.9-4.1,4.4-7,3.4-2.7-.9-4.6-4.2-3.2-7s3.4-3.9,6.8-3.2h0Z"/>
        <path class="st13" d="M907.9,144c0,31.6-25.6,57.2-57.2,57.2s-57.2-25.6-57.2-57.2,25.6-57.2,57.2-57.2,57.2,25.6,57.2,57.2ZM874.1,154.6c1.9-3.1,3-6.4,3.7-9.9,1.5-8.9-2-16.7-8.6-22.6-4-3.6-8.8-5.5-14.2-5.8-1.1,0-2.1-.6-3.2,0-12.3.4-22.5,9.7-23.7,22v43h10.9c.5,0,.9-.5.9-1v-17.9c2.6,1.3,4.8,2.5,7.6,3.1,10.1,2,21.4-2.2,26.7-10.9h-.1Z"/>
        <circle class="st13" cx="853.1" cy="141.3" r="13"/>
        <path class="st13" d="M762.3,221.4c-4-6.3-11.4-10.2-18.8-9.5-6,.6-12,3.8-15.4,8.8-1.6,2.4-2.8,5-2.8,7.9v20.5c-.3.8,0,1.5,0,2.3v13.6h0c0,.1,8.4.1,8.4.1v-15.6l3.7,1.4,5.3,1.4c2.5.6,7.3-.1,10-1.2,4.8-2,8.7-5.6,11-10.2,1.4-2.8,1.8-5.7,1.8-8.8s-1-7.4-3.1-10.7h-.1ZM745.2,243.3c-6.2,0-11.2-5-11.2-11.2s5-11.2,11.2-11.2,11.2,5,11.2,11.2-5,11.2-11.2,11.2Z"/>
      </g>
      <g id="_7n8Dhl.tif">
        <rect class="st5" x="361.2" y="242.2" width="12.9" height="42.6"/>
        <path class="st5" d="M353.4,255.6c-1.4-5.8-5.4-10.1-11-11.9-2.7-.9-5.5-1.4-8.4-1.4h-19.8v42.5h20.5c2.7-.1,5.2-.6,7.7-1.4,5.6-1.7,9.5-6,10.9-11.8,1.3-5.4,1.3-10.7,0-15.9h0ZM341.1,269.2c-1.6,6.3-8,6.7-13.9,6.3v-24c6.6-.5,12.8.6,14.2,7.3.7,3.4.6,6.9-.3,10.4h0Z"/>
        <path class="st5" d="M309.2,284.8h-22.3c-5.8-.1-9.7-4.7-9.8-10.7v-31.8h13v29.7c0,2,1.3,3.4,3.2,3.4h14l1.9,9.5h0Z"/>
        <path class="st5" d="M258,242.2h-16.9c-5.7,13.9-10.5,27.9-15,42.5h13.8l2.1-7.8h15.3l2,7.9h13.8c-4.5-14.6-9.3-28.6-15-42.6h-.1ZM243.9,267.8l5.7-17.7,5.7,17.6h-11.4Z"/>
        <path class="st5" d="M285.2,118.1c-1.9.6-3.5,1.2-5.1,2.4-2,2.2-3.7,4.5-4.7,7.4l-28.4,83.2c-2.2,6.5-5.7,13-13,13h-8.7l32.2-94.4c1.9-5.7,5.8-11.7,11.9-11.7h15.9,0Z"/>
        <path class="st5" d="M310.3,117.8c-2.2,1.1-4,1.6-5.5,3.3-1.9,2.2-3.2,4.5-4.2,7.3l-28.4,83.2c-1.9,5.6-5.8,12.1-11.9,12.1h-15.4c2.7-1.1,4.8-2.1,6.3-4.3,1.6-2.2,2.6-4.5,3.5-7.1l28-82.3c2.2-6.4,5.9-12.2,12.9-12.2h14.7Z"/>
        <path class="st5" d="M336.3,117.8c-2.5.6-4.5,1.7-6.2,3.7-1.9,2.1-3.1,4.6-4,7.5l-28.2,82.8c-1.9,5.6-5.9,11.9-11.8,11.8h-15.6c4.9-1.2,7.8-5.3,9.5-10.2l28.7-84.1c1.9-5.6,5.9-11.5,11.8-11.5h15.9,0Z"/>
        <path class="st5" d="M358.2,168.1c-2.3-2.2-4.5-3.3-7.5-3.4h-30.2l5.6-16.6h16.7c3.8.3,6.8,2.2,8.5,5.6l6.8,14.4h.1Z"/>
        <path class="st5" d="M367.9,191.9c-2.3-2.2-4.5-3.2-7.6-3.4h-47.9l5.5-16.5h33.3c2.1,0,4,.3,6,1.2,2.1,1.3,3.7,3.2,4.8,5.6l5.9,13.2h0Z"/>
        <path class="st5" d="M377.5,215.9c-2.3-2-4.4-3.4-7.6-3.5h-65.6l5.6-16.5h52.1c2.2.3,4.3.4,6.1,1.8,1.8,1.3,3.2,3.1,4.1,5.3l5.3,12.9h0Z"/>
      </g>
      <rect class="st23" x="-2.5" y="1579.1" width="1035.6" height="14.4"/>
      <path class="st15" d="M104.9,750.4c-.2,12.3,1.5,26.3,10.2,35.5,4.8,4.8,11.7,6.3,18.2,8,11.8,2.5,25.9,5.4,32.1,17.2,1,2,1.6,3.8,2.5,5.2,3.4,4.7,9.5,4.7,15.1,5.7,8,1.3,15.9,3,23.6,5.2,15.5,4.3,30.6,10.2,44.9,17.6.2,0,.3.4.2.7-.1.2-.4.3-.6.2-7.3-3.2-14.7-6.3-22.3-8.8-7.6-2.6-15.2-5-22.9-6.8s-15.6-3.5-23.4-4.7c-3.9-.7-8.1-.9-12.2-2.7-2-.9-4-2.3-5.4-4.3-1.3-1.9-2-3.9-2.9-5.5-1.7-3.2-4.4-5.9-7.6-7.9-11.4-7.4-26.3-6-38-13.5-5.8-3.8-9.4-10.3-11.4-16.7-1.2-4-1.9-8-2.3-12.1s-.4-8.2,0-12.2c0-.5.5-1,1.1-.9.5,0,.9.5.9,1h0l.2-.2Z"/>
      <path class="st15" d="M170.4,701c12.1-4,25.2-2,36.9,2.2,19.3,6.8,36,19.8,55.6,25.6,7.7,2.3,15.7,3.3,23.5,2.1,8-1.3,16.5-3.7,24.8-2,8.4,1.4,16,4.7,23.7,7.2,7.6,2.5,15.8,4.4,23.6,2.1.3,0,.5,0,.6.3s0,.5-.3.6c-4,1.4-8.2,1.8-12.4,1.5-12.3-1-23.8-7.2-35.7-8.8-8.1-1.3-15.8,1.2-23.9,2.5-16.9,2.8-33.4-3.9-48-11.5-20.8-11-43.4-26.2-68-19.8-.5.2-1.1-.2-1.2-.7-.1-.5.2-1,.7-1.2h0Z"/>
      <path class="st15" d="M915.2,1030.3c-12.3,18.7-30.1,34.8-49.8,45.4-.5.3-1-.5-.5-.8,12.3-9.3,24-19.3,34.6-30.3,4.8-5,9.5-10.2,14.1-15.5.8-.9,2.3.2,1.6,1.2h0Z"/>
      <path class="st15" d="M891.6,1033.2c-37.3,18.8-73.3,40.3-107.5,64.4-.2.2-.5,0-.7,0-.2-.2,0-.5,0-.7,22.1-18.5,46.4-34.6,71.7-48.4,11.5-6.2,23.5-12.1,35.5-17.1,1.1-.5,2,1.2.8,1.8h.2Z"/>
      <path class="st15" d="M848.5,1042.3c-21.1-.7-41.4,6.5-60,15.9-14.1,6.9-26.3,17.9-40.7,24.6-4.9,2.2-10,4.1-15.3,4.7-.3,0-.5-.2-.6-.4,0-.3,0-.5.4-.6,5.1-1.2,10-3.2,14.5-5.7,14-7.6,25.6-18.6,40-25.9,9.5-4.9,19.5-9,29.8-11.8,5.2-1.4,10.5-2.4,15.8-2.9,5.4-.5,10.8-.6,16.1,0,.5,0,1,.6.9,1.1,0,.5-.5.9-1,.9h0Z"/>
    </g>
  </g>
</svg>