<?xml version="1.0" encoding="UTF-8"?><svg id="Layer_1" xmlns="http://www.w3.org/2000/svg" viewBox="0 0 118.82 123.69"><defs><style>.cls-1{fill:#e79dbf;}.cls-2{fill:#30797f;}.cls-3{fill:#fdf7b4;}.cls-4{fill:#67afe0;}</style></defs><path class="cls-2" d="M46.5,32.16c-2.17-.96-4.35-1.72-6.48-2.23-3.13-.76-6.12-1.55-9.33-.97-1.16.21-2.33.58-3.2,1.37-8.51,7.74,3.13,29.37,6.19,37.98,4.46,12.54,13.51,22.74,27.82,23.59,8.77.52,18.35-5.42,19.13-14.17.79-8.87-5.07-21.34-10.72-27.92-5.7-6.63-14.55-13.75-23.4-17.65Z"/><path class="cls-1" d="M105.91,53.11c2.02,3.06,3.36,6.61,4.09,10.76.14.77.25,1.56.35,2.37.66,5.64-.3,11.6-3.49,16.31-4.46,6.58-13.47,12.58-21.54,13.05-3.76.22-7.75-.43-10.35-2.84-.61-.56-1.15-1.22-1.58-1.99l-25.17-33.78c-.07-.16-.16-.37-.28-.64-1.76-4.06-8.28-20.4-1.6-24.88,6.64,1.23,13.28,2.46,19.91,3.7,3.88.72,7.8,1.45,11.65,2.36,5.83,1.37,11.54,3.16,16.83,5.94,4.93,2.59,8.6,5.72,11.17,9.63Z"/><path class="cls-1" d="M69.86,96.81c1.14,3.35.11,7.27-1.62,10.61-3.71,7.18-12.86,12.96-20.68,14.37-5.59,1-11.43-.55-16.31-3.45-9.34-5.55-13.74-12.8-14.45-23.52-.65-9.91,1.68-19.74,4-29.39,1.58-6.56,3.15-13.13,4.72-19.69,0,0,13.55-3.05,22.5,12.46,0,0-.03-.1-.09-.29-.05-.16-.11-.39-.2-.67l20.95,37.33c.53.71.91,1.47,1.18,2.25Z"/><path class="cls-3" d="M105.91,53.11c-1.53,1.66-4.38,2.21-6.8,2.09-3.15-.15-6.64-.79-9.21,1.05-3.44,2.45-3.28,7.98-6.56,10.63-2.37,1.91-5.73,1.73-8.77,1.67-3.04-.05-6.55.35-8.26,2.87-1.28,1.88-1.22,4.56-2.7,6.22-.1.11-.2.21-.31.31-1.22-1.79-2.18-3.37-3.05-4.82-1.93-3.19-3.45-5.79-6.52-8.75-.49-.47-1.02-.96-1.59-1.46-.62-.53-.92-1.28-1.05-2.09-.11-.67-.11-1.38-.07-2.05.15-2.42.59-4.95,2.14-6.8,3.84-4.58,11.79-2.47,16.48-6.18,1.98-1.57,3.09-3.97,4.83-5.8,1.04-1.1,2.2-1.91,3.43-2.47,5.83,1.37,11.54,3.16,16.83,5.94,4.93,2.59,8.6,5.72,11.17,9.63Z"/><path class="cls-3" d="M110,63.87c.14.77.25,1.56.35,2.37.66,5.64-.3,11.6-3.49,16.31-4.46,6.58-13.47,12.58-21.54,13.05-3.76.22-7.75-.43-10.35-2.84-.61-.56-1.15-1.22-1.58-1.99l-2.43-3.27s0-.03,0-.05c.01-2.51,3.56-1.29,4.98-1.06,1.35.22,2.63.11,3.91-.12,1.48-.26,2.95-.68,4.5-.89,6.63-.88,11.99-5.61,16.92-10.13,3.43-3.14,5.02-7.5,8.15-10.85.18-.19.36-.37.57-.54Z"/><path class="cls-3" d="M20.84,108.98c2.13-.72,3.8-3.1,4.68-5.36,1.14-2.94,1.98-6.39,4.7-7.99,3.64-2.14,8.63.25,12.38-1.67,2.71-1.39,3.91-4.53,5.09-7.34,1.19-2.8,2.99-5.84,5.98-6.37,2.24-.4,4.67.74,6.78.07.14-.05.28-.1.41-.16-1.14-1.85-2.19-3.36-3.16-4.75-2.14-3.06-3.88-5.5-5.34-9.52-.23-.64-.46-1.32-.68-2.05-.23-.78-.8-1.36-1.48-1.81-.57-.37-1.22-.66-1.84-.89-2.27-.85-4.76-1.47-7.09-.81-5.74,1.65-7.05,9.77-12.35,12.54-2.24,1.17-4.88,1.21-7.26,2.06-1.43.51-2.64,1.23-3.65,2.13-1.12,5.89-1.81,11.82-1.42,17.79.36,5.56,1.72,10.19,4.25,14.12Z"/><path class="cls-3" d="M29.01,117.1c.65.44,1.32.87,2.03,1.29,4.88,2.9,10.72,4.45,16.31,3.45,7.83-1.4,16.97-7.19,20.68-14.37,1.73-3.34,2.76-7.26,1.61-10.61-.26-.79-.65-1.55-1.17-2.26l-1.99-3.55s-.03-.02-.04-.02c-2.3-1.01-2.63,2.72-2.99,4.12-.34,1.33-.97,2.45-1.7,3.53-.84,1.24-1.82,2.42-2.64,3.75-3.5,5.69-10.01,8.67-16.14,11.34-4.27,1.85-8.89,1.53-13.23,3.03-.24.09-.49.18-.73.3Z"/><path class="cls-4" d="M34.44,41.2c-6.12,1.47-13.88,3.15-19.06-1.6-2.54-2.24-4.25-4.98-6.73-6.72-2.49-1.74-5.6-2.66-8.68-3.47-.26-.06-.19-.48.08-.44,15.39,1.02,12.48,11.89,24.82,12.22,3.11.11,6.31-.22,9.51-.45.27-.03.35.4.07.46h0Z"/><path class="cls-4" d="M37.99,37.64c1.61-4.43,3.75-8.79,3.76-13.5-.03-1.48-.41-2.91-1.03-4.29-1.22-2.77-3.39-5.36-4.29-8.68-.87-3.31-.48-6.63.1-9.78.05-.26.46-.23.44.05-.1,3.19-.11,6.43.84,9.31,2.77,6.74,7.7,9.86,4.8,18.33-1,3.16-2.58,5.99-4.2,8.77-.14.24-.53.06-.42-.2h0Z"/></svg>