<?xml version="1.0" encoding="UTF-8"?><svg id="Layer_1" xmlns="http://www.w3.org/2000/svg" viewBox="0 0 118.82 123.69"><defs><style>.cls-1{fill:#e79dbf;}.cls-2{fill:#30797f;}.cls-3{fill:#fdf7b4;}.cls-4{fill:#67afe0;}</style></defs><path class="cls-2" d="M46.5,32.16c-2.17-.96-4.35-1.72-6.48-2.23-3.13-.76-6.12-1.55-9.33-.97-1.16.21-2.33.58-3.2,1.37-8.51,7.74,3.13,29.37,6.19,37.98,4.46,12.54,13.51,22.74,27.82,23.59,8.77.52,18.35-5.42,19.13-14.17.79-8.87-5.07-21.34-10.72-27.92-5.7-6.63-14.55-13.75-23.4-17.65Z"/><path class="cls-1" d="M107.85,44.87c2.44,2.74,4.27,6.06,5.59,10.07.25.74.48,1.51.69,2.3,1.46,5.48,1.37,11.53-1.11,16.64-3.48,7.15-11.53,14.38-19.45,16-3.69.75-7.73.68-10.65-1.33-.69-.47-1.31-1.04-1.85-1.74l-29.75-29.82c-.09-.14-.22-.35-.37-.59-2.32-3.77-11.11-19-5.14-24.39,6.75.27,13.49.54,20.23.81,3.94.16,7.92.32,11.86.67,5.97.52,11.87,1.47,17.51,3.47,5.25,1.86,9.33,4.43,12.43,7.93Z"/><path class="cls-1" d="M62.69,101.23c.67,3.48-.87,7.21-3.04,10.29-4.65,6.61-14.49,11.11-22.44,11.44-5.68.23-11.25-2.09-15.7-5.62-8.51-6.76-11.89-14.54-11.14-25.26.7-9.91,4.34-19.33,7.94-28.58,2.45-6.29,4.9-12.58,7.34-18.87,0,0,13.83-1.19,20.61,15.39,0,0-.02-.11-.05-.3-.03-.17-.06-.4-.11-.69l15.71,39.82c.43.77.7,1.58.86,2.39Z"/><path class="cls-3" d="M107.85,44.87c-1.28,1.86-4.02,2.82-6.43,3.05-3.14.3-6.68.17-8.96,2.36-3.05,2.92-2.1,8.37-4.97,11.46-2.07,2.23-5.42,2.53-8.44,2.91-3.02.38-6.44,1.29-7.76,4.03-1,2.05-.56,4.69-1.78,6.55-.08.12-.17.24-.26.35-1.47-1.6-2.64-3.02-3.71-4.33-2.36-2.89-4.24-5.23-7.71-7.73-.55-.4-1.14-.81-1.79-1.21-.69-.44-1.09-1.14-1.34-1.92-.2-.65-.3-1.35-.36-2.01-.2-2.41-.13-4.98,1.15-7.04,3.15-5.08,11.32-4.14,15.42-8.48,1.73-1.83,2.49-4.37,3.95-6.43.87-1.24,1.9-2.2,3.04-2.94,5.97.52,11.87,1.47,17.51,3.47,5.25,1.86,9.33,4.43,12.43,7.93Z"/><path class="cls-3" d="M113.44,54.94c.25.74.48,1.51.69,2.3,1.46,5.48,1.37,11.53-1.11,16.64-3.48,7.15-11.53,14.38-19.45,16-3.69.75-7.73.68-10.65-1.33-.69-.47-1.31-1.04-1.85-1.74l-2.88-2.88s0-.03,0-.05c-.35-2.49,3.34-1.79,4.78-1.76,1.37.03,2.62-.27,3.86-.68,1.42-.47,2.82-1.09,4.33-1.52,6.43-1.82,11.07-7.27,15.3-12.45,2.94-3.6,3.89-8.14,6.51-11.91.15-.21.31-.42.48-.62Z"/><path class="cls-3" d="M12.47,106.65c2.21-.43,4.19-2.56,5.36-4.68,1.53-2.76,2.83-6.06,5.74-7.28,3.9-1.63,8.51,1.42,12.5.02,2.87-1.01,4.49-3.96,6.04-6.58,1.56-2.62,3.75-5.38,6.79-5.51,2.27-.1,4.52,1.36,6.71.99.14-.03.29-.06.43-.1-.88-1.98-1.72-3.62-2.49-5.13-1.7-3.32-3.1-5.98-4.01-10.16-.15-.66-.28-1.37-.4-2.12-.13-.8-.6-1.46-1.23-2-.51-.44-1.12-.82-1.7-1.13-2.13-1.15-4.52-2.11-6.91-1.76-5.91.86-8.31,8.72-13.93,10.75-2.37.86-5,.54-7.47,1.06-1.48.31-2.78.87-3.91,1.61-1.9,5.68-3.39,11.47-3.81,17.44-.39,5.56.33,10.33,2.3,14.56Z"/><path class="cls-3" d="M19.47,115.8c.58.52,1.19,1.04,1.83,1.55,4.44,3.53,10.02,5.86,15.7,5.62,7.94-.33,17.79-4.83,22.44-11.44,2.16-3.08,3.71-6.82,3.03-10.29-.15-.82-.43-1.62-.86-2.39l-1.49-3.79s-.02-.02-.04-.03c-2.14-1.31-2.97,2.34-3.52,3.68-.52,1.27-1.29,2.29-2.16,3.26-1,1.12-2.13,2.15-3.13,3.36-4.24,5.17-11.09,7.24-17.53,9.05-4.48,1.26-9.02.32-13.52,1.22-.25.05-.51.11-.76.2Z"/><path class="cls-4" d="M34.44,41.2c-6.12,1.47-13.88,3.15-19.06-1.6-2.54-2.24-4.25-4.98-6.73-6.72-2.49-1.74-5.6-2.66-8.68-3.47-.26-.06-.19-.48.08-.44,15.39,1.02,12.48,11.89,24.82,12.22,3.11.11,6.31-.22,9.51-.45.27-.03.35.4.07.46h0Z"/><path class="cls-4" d="M37.99,37.64c1.61-4.43,3.75-8.79,3.76-13.5-.03-1.48-.41-2.91-1.03-4.29-1.22-2.77-3.39-5.36-4.29-8.68-.87-3.31-.48-6.63.1-9.78.05-.26.46-.23.44.05-.1,3.19-.11,6.43.84,9.31,2.77,6.74,7.7,9.86,4.8,18.33-1,3.16-2.58,5.99-4.2,8.77-.14.24-.53.06-.42-.2h0Z"/></svg>