<?xml version="1.0" encoding="UTF-8"?><svg id="Layer_1" xmlns="http://www.w3.org/2000/svg" viewBox="0 0 83.93 48.72"><defs><style>.cls-1{fill:#acb1d6;}.cls-2{fill:#7d2328;}.cls-3{fill:#30797f;}.cls-4{fill:#4367ac;}.cls-5{fill:#e2e2e2;}</style></defs><path class="cls-2" d="M71.29,2.42c.1.23,4.67-1.28,5.02-1.39,1.07-.32,2.14-.72,3.22-.98,1.94-.47,3.13,2.66,3.71,4.1.39.96,1.06,3.04.41,4.02-.6.91-6.42,4-7.87,4.9,0,0-4.45-10.52-4.5-10.64Z"/><path class="cls-1" d="M.88,25.28l6.13-2.66c3.39-1.47,7.1-2.48,10.74-3.54,1.63-.48,3.25-.97,4.81-1.51,5.41-1.88,10.77-3.87,16.12-5.92,2.47-.95,4.94-1.92,7.4-2.9,2.28-.91,4.65-1.19,6.95-2.05.98-.37,1.91-.85,2.83-1.33,2.57-1.33,5.09-2.68,7.75-3.81.12-.05.23-.1.35-.15,2.02-.84,4.73-1.57,6.83-.5,2.16,1.1,3.69,4.73,4.56,6.91.73,1.82,2.04,4.68,1.17,6.57-.63,1.36-1.9,2.55-3.45,3.53-.61.38-1.25.73-1.91,1.05-2.6,1.26-5.5,2.12-8.1,3.32-4,1.84-8.02,3.63-12.06,5.37-5.78,2.49-11.9,4.52-17.43,7.51-2.39,1.29-4.78,2.6-7.15,3.93-3.23,1.79-6.45,3.61-9.64,5.46l-6.42,2.78L1.37,26.58c-.2-.47-.35-.87-.49-1.3Z"/><path class="cls-4" d="M6.07,25.71c3.22,5.99,5.98,12.21,8.14,18.66,0,0-.19.08-.19.08-2.46-4.48-4.49-9.15-6.34-13.9-.61-1.58-1.21-3.18-1.72-4.8l.11-.05h0Z"/><rect class="cls-1" x="-5.6" y="33.23" width="26.19" height="4.99" transform="translate(-22.29 56.81) rotate(-113.44)"/><path class="cls-5" d="M17.74,19.08c1.63-.48,3.25-.97,4.81-1.51,5.41-1.88,10.77-3.87,16.12-5.92,2.47-.95,4.94-1.92,7.4-2.9,2.28-.91,4.65-1.19,6.95-2.05.98-.37,1.91-.85,2.83-1.33,2.57-1.33,5.09-2.68,7.75-3.81l7.55,17.41c-2.6,1.26-5.5,2.12-8.1,3.32-4,1.84-8.02,3.63-12.06,5.37-5.78,2.49-11.9,4.52-17.43,7.51-2.39,1.29-4.78,2.6-7.15,3.93l-8.68-20.01Z"/><path class="cls-4" d="M69.6,18.37c-.52-1.27-3.06-4.7-4.51-3.38-.19.24-.24.57-.07.75.79.6,2.03-.38,2.09-1.28.09-.67-.2-1.38-.66-1.9-.71-.74-1.78-1.32-2.79-1.54-.8-.16-1.12.61-.43,1.02.58.27,1.41-.08,1.92-.41.84-.67.48-2.01-.32-2.58-.53-.48-3.42-1.81-3.16-.25.4.52,1.29.29,1.69-.19,1.05-1.09.77-2.81.07-4.03,0,0,.13-.07.13-.07.39.64.69,1.37.75,2.14.25,1.48-1.44,3.79-2.96,2.35-.29-.43-.02-1.01.41-1.21.42-.22.87-.15,1.24-.05,1.46.32,3.28,1.36,3.01,3.14-.15,1.22-1.89,1.92-2.95,1.46-.63-.31-.79-1.37.01-1.61.6-.18,1.22.08,1.74.31.69.3,1.38.69,1.92,1.27,1.2,1.18,1.06,3.5-.76,3.97-1.03.35-1.96-.63-1.22-1.56,1.63-1.85,5.05,2.12,4.85,3.64h0Z"/><path class="cls-4" d="M74.36,3.41c1.92-.96,3.96-1.64,6.08-1.99,0,0,.06.19.06.19-1.93.95-3.98,1.57-6.11,1.91,0,0-.04-.12-.04-.12h0Z"/><path class="cls-4" d="M75.7,5.79c.71-.76,1.84-.85,2.74-1.32.9-.47,1.82-.88,2.82-1.13,0,0,.06.14.06.14-.43.27-.88.51-1.34.73-1.18.46-2.33.98-3.48,1.52-.15.07-.71.3-.8.06h0Z"/><path class="cls-4" d="M76.77,8.27c1.66-1.2,3.48-2.14,5.42-2.76,0,0,.09.18.09.18-1.66,1.19-3.51,2.08-5.46,2.69,0,0-.06-.11-.06-.11h0Z"/><path class="cls-4" d="M77.61,10.21c.63-.84,1.75-1.06,2.59-1.62.85-.57,1.73-1.08,2.7-1.44,0,0,.07.13.07.13-.4.32-.82.61-1.26.88-1.12.59-2.22,1.24-3.31,1.9-.15.09-.68.38-.8.15h0Z"/><circle class="cls-3" cx="48.29" cy="18.49" r="8.2"/><path class="cls-4" d="M32.38,18.39c2,3.79,3.74,7.72,5.15,11.76,0,0-.19.08-.19.08-1.99-3.8-3.67-7.74-5.07-11.8,0,0,.11-.05.11-.05h0Z"/><path class="cls-4" d="M33.31,15.96c1.72,3.27,3.34,7.02,4.77,10.45.47,1.18.94,2.37,1.36,3.58l-.19.08c-.6-1.13-1.14-2.28-1.68-3.44l-1.56-3.5c-.98-2.35-1.98-4.71-2.81-7.12l.11-.05h0Z"/></svg>