<?xml version="1.0" encoding="UTF-8"?><svg id="Layer_1" xmlns="http://www.w3.org/2000/svg" xmlns:xlink="http://www.w3.org/1999/xlink" viewBox="0 0 115.07 93.02"><defs><style>.cls-1{fill:#b0b3d7;}.cls-2{fill:#732229;}.cls-3{fill:#30797f;}.cls-4{fill:#fdf7b4;}.cls-5{fill:#dadf50;}.cls-6{fill:#de9dc0;}.cls-7{fill:#eba6a0;}.cls-8{clip-path:url(#clippath);}.cls-9{fill:#7498c5;}</style><clipPath id="clippath"><rect class="cls-3" x="11.02" y="-11.02" width="93.02" height="115.07" transform="translate(104.04 -11.02) rotate(90)"/></clipPath></defs><rect class="cls-3" x="11.02" y="-11.02" width="93.02" height="115.07" transform="translate(104.04 -11.02) rotate(90)"/><g class="cls-8"><path class="cls-3" d="M109.25,111.61c-16.38,16.49-39.08,26.7-64.18,26.7V47.82l64.18,63.8Z"/><path class="cls-5" d="M135.58,47.81c0,24.89-10.06,47.44-26.33,63.81L45.07,47.82h0s90.51-.01,90.51-.01Z"/><path class="cls-4" d="M135.58,47.81H45.07S108.88-16.38,108.88-16.38C125.36,0,135.58,22.71,135.58,47.81Z"/><path class="cls-7" d="M108.88-16.38L45.07,47.79V-42.71c24.89,0,47.44,10.06,63.81,26.32Z"/><path class="cls-6" d="M45.07-42.71V47.81h-.01L-19.12-16C-2.73-32.49,19.97-42.71,45.07-42.71Z"/><path class="cls-2" d="M45.05,47.81H-45.44c0-24.89,10.06-47.44,26.32-63.81L45.05,47.81Z"/><path class="cls-1" d="M45.05,47.81L-18.74,111.98c-16.49-16.38-26.7-39.08-26.7-64.18H45.05Z"/><path class="cls-9" d="M45.07,47.81v90.51c-24.89,0-47.44-10.06-63.81-26.33L45.05,47.81h.01Z"/></g></svg>