<?xml version="1.0" encoding="UTF-8"?>
<svg id="Layer_1" xmlns="http://www.w3.org/2000/svg" xmlns:xlink="http://www.w3.org/1999/xlink" version="1.1" viewBox="0 0 1036.4 521.7">
  <!-- Generator: Adobe Illustrator 30.4.0, SVG Export Plug-In . SVG Version: 2.1.4 Build 226)  -->
  <defs>
    <style>
      .st0, .st1 {
        fill: none;
      }

      .st2 {
        isolation: isolate;
        opacity: .8;
      }

      .st2, .st3 {
        fill: #9b3d32;
      }

      .st1 {
        stroke: #f5d7d5;
        stroke-miterlimit: 10;
        stroke-width: 2.7px;
      }

      .st4 {
        fill: #30797f;
      }

      .st5 {
        fill: #7d8ac1;
      }

      .st6 {
        fill: #b0b3d7;
      }

      .st7 {
        fill: #732229;
      }

      .st8 {
        fill: #f1cbdd;
      }

      .st9 {
        fill: url(#linear-gradient);
      }

      .st10 {
        clip-path: url(#clippath-1);
      }

      .st11 {
        clip-path: url(#clippath-3);
      }

      .st12 {
        clip-path: url(#clippath-2);
      }

      .st13 {
        fill: #f5d7d5;
      }

      .st14 {
        fill: #fff;
      }

      .st15 {
        fill: #dadf50;
      }

      .st16 {
        fill: #de9dc0;
      }

      .st17 {
        fill: #67afe0;
      }

      .st18 {
        fill: #edeae5;
      }

      .st19 {
        opacity: .2;
      }

      .st20 {
        fill: #fdf7b4;
      }

      .st21 {
        fill: #cccccb;
      }

      .st22 {
        fill: #f3f3f3;
      }

      .st23 {
        fill: #6c91c4;
      }

      .st24 {
        fill: #eba6a0;
      }

      .st25 {
        fill: #7498c5;
      }

      .st26 {
        fill: #e58466;
      }

      .st27 {
        clip-path: url(#clippath);
      }
    </style>
    <clipPath id="clippath">
      <rect class="st0" width="1037" height="522.1"/>
    </clipPath>
    <linearGradient id="linear-gradient" x1="-2777.4" y1="-3718.2" x2="-2777.4" y2="-3954.9" gradientTransform="translate(-1839.0024 3947.833) scale(-1 1)" gradientUnits="userSpaceOnUse">
      <stop offset="0" stop-color="#eba6a0" stop-opacity=".6"/>
      <stop offset=".3" stop-color="#cca6b3" stop-opacity=".8"/>
      <stop offset=".8" stop-color="#a9a7c9" stop-opacity=".9"/>
      <stop offset="1" stop-color="#9ca8d2"/>
    </linearGradient>
    <clipPath id="clippath-1">
      <rect class="st0" y="384" width="1037" height="138"/>
    </clipPath>
    <clipPath id="clippath-2">
      <rect class="st0" x="344.7" y="129.4" width="153.1" height="153.1"/>
    </clipPath>
    <clipPath id="clippath-3">
      <polygon class="st0" points="668.1 249.8 656.1 188.1 730 188.1 742 249.8 668.1 249.8"/>
    </clipPath>
  </defs>
  <rect class="st13" width="1037" height="522.1"/>
  <g class="st27">
    <g>
      <rect class="st9" x="820.1" y="-15.8" width="236.7" height="364.8"/>
      <rect class="st22" x="820.1" y="-15.8" width="19.3" height="364.8"/>
      <rect class="st22" x="938.7" y="-15.8" width="6.2" height="364.8"/>
      <rect class="st22" x="820.1" y="-15.8" width="19.3" height="364.8"/>
      <rect class="st22" x="938.7" y="-15.8" width="6.2" height="364.8"/>
      <rect class="st22" x="820.1" y="166.6" width="236.6" height="19.3"/>
      <rect class="st22" x="820.1" y="329.7" width="236.6" height="19.3"/>
    </g>
  </g>
  <rect class="st2" y="384" width="1037" height="138"/>
  <g class="st10">
    <g>
      <g class="st19">
        <path class="st1" d="M-8.1,399.5c4.9,0,4.9.2,9.7.2s4.9,0,9.7,0,4.9,0,9.7,0,4.9-.6,9.7-.6,4.9.1,9.7.1,4.9.2,9.7.2,4.9,0,9.7,0,4.9-.3,9.7-.3,4.9.2,9.7.2,4.9,0,9.7,0,4.9.3,9.7.3,4.9-.3,9.7-.3,4.9-.2,9.7-.2,4.9.1,9.7.1,4.9.3,9.7.3,4.9.2,9.7.2,4.9-.1,9.7-.1,4.9,0,9.7,0,4.9,0,9.7,0,4.9-.1,9.7-.1,4.9.2,9.7.2,4.9-.5,9.7-.5,4.9.3,9.7.3,4.9,0,9.7,0,4.9.2,9.7.2,4.9,0,9.7,0,4.9-.4,9.7-.4,4.9.3,9.7.3,4.9-.3,9.7-.3,4.9.1,9.7.1,4.9.1,9.7.1,4.9.1,9.7.1,4.9-.1,9.7-.1,4.9-.1,9.7-.1,4.9.3,9.7.3,4.9,0,9.7,0,4.9,0,9.7,0,4.9.1,9.7.1,4.9-.4,9.7-.4,4.9-.1,9.7-.1,4.9.6,9.7.6,4.9-.6,9.7-.6,4.9.6,9.7.6h19.4q4.9,0,9.7,0c4.9,0,4.9-.5,9.7-.5s4.9.1,9.7.1,4.9.3,9.7.3,4.9,0,9.7,0,4.9-.5,9.7-.5,4.9.4,9.7.4,4.9-.1,9.7-.1,4.9,0,9.7,0,4.9-.1,9.7-.1,4.9.1,9.7.1,4.9-.4,9.7-.4,4.9.5,9.7.5,4.9.1,9.7.1,4.9-.5,9.7-.5,4.9.2,9.7.2,4.9.3,9.7.3,4.9,0,9.7,0,4.9-.3,9.7-.3h9.7c4.9,0,4.9,0,9.7,0s4.9,0,9.7,0,4.9.2,9.7.2,4.9,0,9.7,0,4.9,0,9.7,0,4.9-.3,9.7-.3,4.9-.2,9.7-.2,4.9.1,9.7.1,4.9.4,9.7.4,4.9-.1,9.7-.1,4.9-.2,9.7-.2,4.9,0,9.7,0,4.9.1,9.7.1,4.9-.1,9.7-.1,4.9-.3,9.7-.3,4.9.3,9.7.3,4.9-.1,9.7-.1,4.9,0,9.7,0,4.9-.2,9.7-.2,4.9.4,9.7.4,4.9-.2,9.7-.2,4.9.4,9.7.4,4.9-.2,9.7-.2,4.9,0,9.7,0,4.9.2,9.7.2,4.9-.6,9.7-.6,4.9.3,9.7.3,4.9.3,9.7.3,4.9,0,9.7,0,4.9,0,9.7,0,4.9-.2,9.7-.2,4.9,0,9.7,0,4.9-.3,9.7-.3,4.9.6,9.7.6,4.9-.5,9.7-.5,4.9.3,9.7.3h19.4c4.9,0,4.9-.1,9.7-.1s4.9-.2,9.7-.2,4.9.4,9.7.4,4.9-.2,9.7-.2,4.9-.3,9.7-.3,4.9.3,9.7.3,4.9-.3,9.7-.3,4.9.2,9.7.2,4.9.2,9.7.2,4.9-.4,9.7-.4"/>
      </g>
      <g class="st19">
        <path class="st1" d="M-8.1,420.7c4.9,0,4.9.3,9.7.3s4.9-.5,9.7-.5,4.9.2,9.7.2,4.9.3,9.7.3,4.9-.2,9.7-.2,4.9-.2,9.7-.2h9.7c4.9,0,4.9-.1,9.7-.1s4.9,0,9.7,0,4.9.2,9.7.2,4.9,0,9.7,0,4.9-.2,9.7-.2,4.9.4,9.7.4,4.9-.4,9.7-.4,4.9,0,9.7,0,4.9,0,9.7,0,4.9.3,9.7.3,4.9.3,9.7.3,4.9-.3,9.7-.3,4.9,0,9.7,0,4.9.3,9.7.3,4.9-.3,9.7-.3,4.9,0,9.7,0,4.9,0,9.7,0,4.9,0,9.7,0,4.9,0,9.7,0,4.9.1,9.7.1,4.9-.3,9.7-.3,4.9-.2,9.7-.2,4.9,0,9.7,0,4.9.1,9.7.1,4.9.2,9.7.2,4.9-.1,9.7-.1,4.9-.1,9.7-.1,4.9,0,9.7,0,4.9.3,9.7.3,4.9,0,9.7,0,4.9,0,9.7,0,4.9.2,9.7.2,4.9-.1,9.7-.1,4.9-.1,9.7-.1,4.9,0,9.7,0,4.9,0,9.7,0,4.9.2,9.7.2,4.9,0,9.7,0,4.9-.2,9.7-.2,4.9-.3,9.7-.3,4.9.5,9.7.5,4.9,0,9.7,0,4.9-.1,9.7-.1,4.9-.4,9.7-.4,4.9.1,9.7.1,4.9.2,9.7.2,4.9,0,9.7,0,4.9-.3,9.7-.3,4.9.2,9.7.2,4.9-.1,9.7-.1,4.9.3,9.7.3,4.9-.3,9.7-.3,4.9.3,9.7.3,4.9-.3,9.7-.3,4.9,0,9.7,0,4.9.2,9.7.2,4.9,0,9.7,0,4.9,0,9.7,0,4.9.1,9.7.1,4.9-.4,9.7-.4h9.7c4.9,0,4.9,0,9.7,0s4.9-.1,9.7-.1,4.9.2,9.7.2,4.9-.3,9.7-.3,4.9.6,9.7.6,4.9-.6,9.7-.6,4.9.5,9.7.5,4.9-.5,9.7-.5,4.9.1,9.7.1,4.9-.1,9.7-.1,4.9.6,9.7.6,4.9-.3,9.7-.3,4.9-.2,9.7-.2,4.9.2,9.7.2,4.9.3,9.7.3,4.9,0,9.7,0h9.7c4.9,0,4.9-.2,9.7-.2s4.9-.1,9.7-.1,4.9.4,9.7.4,4.9-.3,9.7-.3,4.9.3,9.7.3,4.9-.5,9.7-.5,4.9.5,9.7.5,4.9-.2,9.7-.2h9.7c4.9,0,4.9-.1,9.7-.1s4.9.3,9.7.3h9.7c4.9,0,4.9-.2,9.7-.2s4.9,0,9.7,0,4.9.4,9.7.4,4.9-.1,9.7-.1,4.9-.4,9.7-.4,4.9-.2,9.7-.2,4.9.5,9.7.5,4.9.1,9.7.1,4.9,0,9.7,0h9.7c4.9,0,4.9-.5,9.7-.5s4.9.1,9.7.1,4.9,0,9.7,0,4.9.2,9.7.2,4.9,0,9.7,0,4.9,0,9.7,0"/>
      </g>
      <g class="st19">
        <path class="st1" d="M-8.1,442.1c4.9,0,4.9,0,9.7,0s4.9.4,9.7.4,4.9-.3,9.7-.3,4.9,0,9.7,0,4.9.1,9.7.1,4.9,0,9.7,0,4.9.2,9.7.2,4.9,0,9.7,0,4.9-.4,9.7-.4,4.9-.1,9.7-.1,4.9.3,9.7.3,4.9-.2,9.7-.2,4.9.3,9.7.3,4.9-.2,9.7-.2,4.9.2,9.7.2,4.9.3,9.7.3,4.9-.4,9.7-.4,4.9.5,9.7.5,4.9-.2,9.7-.2,4.9-.2,9.7-.2,4.9,0,9.7,0,4.9.1,9.7.1,4.9-.2,9.7-.2,4.9.5,9.7.5,4.9,0,9.7,0,4.9-.4,9.7-.4,4.9,0,9.7,0,4.9.5,9.7.5h9.7c4.9,0,4.9-.1,9.7-.1s4.9-.3,9.7-.3,4.9,0,9.7,0,4.9,0,9.7,0,4.9.1,9.7.1,4.9,0,9.7,0,4.9-.1,9.7-.1,4.9.5,9.7.5,4.9-.6,9.7-.6,4.9.6,9.7.6,4.9-.2,9.7-.2,4.9-.4,9.7-.4,4.9.3,9.7.3,4.9.1,9.7.1,4.9-.4,9.7-.4h9.7c4.9,0,4.9-.1,9.7-.1s4.9,0,9.7,0,4.9.2,9.7.2,4.9.1,9.7.1,4.9-.4,9.7-.4,4.9.5,9.7.5,4.9-.4,9.7-.4,4.9-.1,9.7-.1,4.9,0,9.7,0,4.9.6,9.7.6,4.9-.1,9.7-.1,4.9.1,9.7.1,4.9,0,9.7,0,4.9-.6,9.7-.6,4.9.1,9.7.1,4.9.2,9.7.2,4.9-.1,9.7-.1,4.9-.2,9.7-.2,4.9.2,9.7.2,4.9,0,9.7,0,4.9.2,9.7.2,4.9.3,9.7.3,4.9,0,9.7,0,4.9-.3,9.7-.3,4.9.5,9.7.5,4.9-.3,9.7-.3h9.7c4.9,0,4.9-.3,9.7-.3s4.9.5,9.7.5,4.9-.1,9.7-.1,4.9-.5,9.7-.5,4.9.1,9.7.1,4.9.4,9.7.4,4.9-.5,9.7-.5,4.9.5,9.7.5,4.9-.5,9.7-.5,4.9.6,9.7.6,4.9-.5,9.7-.5,4.9.1,9.7.1,4.9-.2,9.7-.2,4.9.2,9.7.2,4.9-.1,9.7-.1,4.9.2,9.7.2,4.9-.2,9.7-.2,4.9.4,9.7.4h9.7c4.9,0,4.9-.2,9.7-.2s4.9,0,9.7,0,4.9-.2,9.7-.2,4.9-.1,9.7-.1,4.9.4,9.7.4,4.9,0,9.7,0,4.9,0,9.7,0,4.9,0,9.7,0,4.9-.2,9.7-.2,4.9,0,9.7,0,4.9-.2,9.7-.2,4.9.5,9.7.5,4.9.1,9.7.1,4.9-.4,9.7-.4,4.9,0,9.7,0,4.9.5,9.7.5,4.9-.5,9.7-.5,4.9.2,9.7.2,4.9-.2,9.7-.2,4.9,0,9.7,0,4.9.2,9.7.2,4.9.3,9.7.3"/>
      </g>
      <g class="st19">
        <path class="st1" d="M-8.1,463.5c4.9,0,4.9.1,9.7.1s4.9-.3,9.7-.3,4.9.5,9.7.5,4.9-.3,9.7-.3,4.9.1,9.7.1,4.9-.3,9.7-.3,4.9.6,9.7.6,4.9-.3,9.7-.3,4.9,0,9.7,0,4.9-.4,9.7-.4,4.9.3,9.7.3,4.9,0,9.7,0,4.9.3,9.7.3,4.9-.2,9.7-.2,4.9-.2,9.7-.2,4.9.3,9.7.3h9.7c4.9,0,4.9,0,9.7,0s4.9-.4,9.7-.4,4.9,0,9.7,0,4.9.4,9.7.4,4.9.1,9.7.1,4.9-.2,9.7-.2,4.9.1,9.7.1,4.9,0,9.7,0,4.9-.2,9.7-.2,4.9.4,9.7.4,4.9-.2,9.7-.2,4.9.1,9.7.1,4.9-.4,9.7-.4,4.9.3,9.7.3,4.9,0,9.7,0,4.9-.2,9.7-.2,4.9.4,9.7.4,4.9-.3,9.7-.3,4.9.3,9.7.3,4.9-.5,9.7-.5,4.9.6,9.7.6,4.9-.3,9.7-.3,4.9.1,9.7.1,4.9-.2,9.7-.2,4.9.2,9.7.2,4.9,0,9.7,0,4.9.2,9.7.2,4.9-.4,9.7-.4,4.9.2,9.7.2,4.9-.2,9.7-.2,4.9.3,9.7.3,4.9-.6,9.7-.6,4.9.3,9.7.3,4.9.3,9.7.3,4.9-.3,9.7-.3,4.9,0,9.7,0,4.9.1,9.7.1,4.9,0,9.7,0h9.7c4.9,0,4.9.1,9.7.1s4.9-.1,9.7-.1,4.9-.4,9.7-.4,4.9.5,9.7.5,4.9-.4,9.7-.4h9.7c4.9,0,4.9.2,9.7.2s4.9,0,9.7,0,4.9,0,9.7,0,4.9-.3,9.7-.3,4.9,0,9.7,0,4.9,0,9.7,0,4.9.3,9.7.3,4.9.1,9.7.1,4.9-.4,9.7-.4,4.9.4,9.7.4,4.9,0,9.7,0,4.9-.5,9.7-.5,4.9-.1,9.7-.1,4.9,0,9.7,0,4.9.5,9.7.5,4.9-.4,9.7-.4h9.7c4.9,0,4.9.2,9.7.2s4.9.2,9.7.2,4.9,0,9.7,0,4.9-.3,9.7-.3,4.9.4,9.7.4,4.9,0,9.7,0,4.9-.3,9.7-.3,4.9,0,9.7,0,4.9.3,9.7.3,4.9-.2,9.7-.2,4.9.2,9.7.2,4.9,0,9.7,0,4.9,0,9.7,0,4.9.1,9.7.1,4.9-.2,9.7-.2,4.9,0,9.7,0,4.9,0,9.7,0,4.9.3,9.7.3,4.9.2,9.7.2,4.9-.1,9.7-.1,4.9-.2,9.7-.2,4.9-.3,9.7-.3,4.9.2,9.7.2,4.9-.1,9.7-.1,4.9.5,9.7.5,4.9-.6,9.7-.6,4.9.2,9.7.2,4.9-.1,9.7-.1,4.9.3,9.7.3,4.9.1,9.7.1,4.9-.5,9.7-.5,4.9.1,9.7.1,4.9.2,9.7.2,4.9-.3,9.7-.3"/>
      </g>
      <g class="st19">
        <path class="st1" d="M-8.1,484.9H1.6c4.9,0,4.9.1,9.7.1s4.9,0,9.7,0,4.9-.3,9.7-.3,4.9.5,9.7.5,4.9,0,9.7,0h9.7c4.9,0,4.9-.2,9.7-.2s4.9.2,9.7.2,4.9-.3,9.7-.3,4.9,0,9.7,0,4.9.1,9.7.1,4.9-.1,9.7-.1,4.9.2,9.7.2,4.9.1,9.7.1,4.9,0,9.7,0,4.9-.1,9.7-.1,4.9-.5,9.7-.5h9.7c4.9,0,4.9.4,9.7.4s4.9-.4,9.7-.4,4.9,0,9.7,0,4.9,0,9.7,0,4.9.2,9.7.2,4.9-.2,9.7-.2,4.9.4,9.7.4,4.9-.1,9.7-.1,4.9,0,9.7,0,4.9-.3,9.7-.3,4.9.2,9.7.2,4.9-.4,9.7-.4,4.9.3,9.7.3,4.9,0,9.7,0,4.9.2,9.7.2,4.9,0,9.7,0,4.9,0,9.7,0,4.9-.3,9.7-.3,4.9.2,9.7.2,4.9-.4,9.7-.4,4.9.6,9.7.6,4.9-.6,9.7-.6,4.9,0,9.7,0,4.9,0,9.7,0,4.9,0,9.7,0,4.9.4,9.7.4,4.9-.2,9.7-.2,4.9-.2,9.7-.2,4.9.2,9.7.2,4.9.4,9.7.4,4.9-.3,9.7-.3,4.9.2,9.7.2,4.9,0,9.7,0,4.9-.4,9.7-.4,4.9.2,9.7.2,4.9,0,9.7,0,4.9-.3,9.7-.3,4.9.3,9.7.3,4.9-.2,9.7-.2,4.9.1,9.7.1,4.9,0,9.7,0,4.9-.2,9.7-.2,4.9,0,9.7,0,4.9.4,9.7.4,4.9,0,9.7,0,4.9,0,9.7,0,4.9,0,9.7,0,4.9,0,9.7,0,4.9-.2,9.7-.2,4.9.1,9.7.1,4.9,0,9.7,0,4.9,0,9.7,0,4.9.1,9.7.1,4.9.1,9.7.1,4.9-.4,9.7-.4,4.9.2,9.7.2,4.9.2,9.7.2,4.9-.2,9.7-.2,4.9-.2,9.7-.2h9.7c4.9,0,4.9.4,9.7.4s4.9,0,9.7,0,4.9.1,9.7.1,4.9-.4,9.7-.4,4.9,0,9.7,0,4.9.4,9.7.4,4.9,0,9.7,0,4.9-.5,9.7-.5,4.9,0,9.7,0,4.9.1,9.7.1,4.9.2,9.7.2,4.9-.1,9.7-.1,4.9.1,9.7.1,4.9-.3,9.7-.3,4.9.3,9.7.3,4.9,0,9.7,0,4.9-.1,9.7-.1,4.9-.2,9.7-.2h9.7c4.9,0,4.9.4,9.7.4s4.9-.2,9.7-.2,4.9-.2,9.7-.2,4.9.1,9.7.1,4.9.1,9.7.1,4.9-.2,9.7-.2,4.9,0,9.7,0,4.9.2,9.7.2,4.9.1,9.7.1,4.9-.2,9.7-.2,4.9,0,9.7,0,4.9.1,9.7.1,4.9.4,9.7.4,4.9-.3,9.7-.3,4.9.2,9.7.2"/>
      </g>
      <g class="st19">
        <path class="st1" d="M-8.1,506c4.9,0,4.9.5,9.7.5s4.9-.5,9.7-.5h9.7c4.9,0,4.9.4,9.7.4s4.9-.4,9.7-.4,4.9.7,9.7.7,4.9-.2,9.7-.2,4.9-.1,9.7-.1,4.9.4,9.7.4,4.9-.4,9.7-.4,4.9,0,9.7,0,4.9.3,9.7.3,4.9,0,9.7,0,4.9-.1,9.7-.1,4.9,0,9.7,0,4.9-.3,9.7-.3,4.9.2,9.7.2h9.7c4.9,0,4.9,0,9.7,0s4.9-.3,9.7-.3,4.9.3,9.7.3,4.9-.1,9.7-.1,4.9,0,9.7,0,4.9,0,9.7,0,4.9.3,9.7.3,4.9-.3,9.7-.3,4.9.4,9.7.4,4.9-.6,9.7-.6,4.9.5,9.7.5,4.9,0,9.7,0,4.9-.2,9.7-.2,4.9,0,9.7,0,4.9,0,9.7,0,4.9-.2,9.7-.2,4.9,0,9.7,0,4.9,0,9.7,0,4.9.3,9.7.3,4.9,0,9.7,0,4.9,0,9.7,0,4.9-.2,9.7-.2,4.9-.3,9.7-.3,4.9.6,9.7.6,4.9-.5,9.7-.5,4.9.4,9.7.4,4.9-.3,9.7-.3,4.9.3,9.7.3,4.9-.3,9.7-.3,4.9-.1,9.7-.1,4.9.1,9.7.1,4.9.5,9.7.5,4.9-.5,9.7-.5,4.9,0,9.7,0,4.9.1,9.7.1,4.9.5,9.7.5,4.9-.2,9.7-.2,4.9-.2,9.7-.2,4.9-.2,9.7-.2,4.9,0,9.7,0,4.9.4,9.7.4,4.9-.2,9.7-.2,4.9.2,9.7.2,4.9,0,9.7,0,4.9-.4,9.7-.4,4.9.2,9.7.2,4.9.4,9.7.4,4.9-.5,9.7-.5,4.9.2,9.7.2,4.9-.4,9.7-.4,4.9.1,9.7.1,4.9.1,9.7.1,4.9,0,9.7,0,4.9,0,9.7,0h9.7c4.9,0,4.9,0,9.7,0s4.9.2,9.7.2,4.9,0,9.7,0,4.9,0,9.7,0,4.9.1,9.7.1,4.9,0,9.7,0,4.9,0,9.7,0,4.9-.4,9.7-.4,4.9.4,9.7.4,4.9-.4,9.7-.4h9.7c4.9,0,4.9.1,9.7.1s4.9.3,9.7.3,4.9-.2,9.7-.2,4.9,0,9.7,0,4.9-.3,9.7-.3,4.9,0,9.7,0,4.9.3,9.7.3,4.9-.3,9.7-.3,4.9.5,9.7.5,4.9-.3,9.7-.3,4.9-.2,9.7-.2,4.9,0,9.7,0,4.9.2,9.7.2,4.9.2,9.7.2,4.9-.1,9.7-.1,4.9-.2,9.7-.2,4.9-.1,9.7-.1,4.9.2,9.7.2,4.9,0,9.7,0,4.9,0,9.7,0,4.9-.1,9.7-.1h9.7c4.9,0,4.9.1,9.7.1s4.9.5,9.7.5,4.9-.3,9.7-.3,4.9-.2,9.7-.2,4.9-.1,9.7-.1,4.9.4,9.7.4,4.9,0,9.7,0"/>
      </g>
    </g>
  </g>
  <rect class="st7" x="570" y="269.5" width="290.2" height="91.6"/>
  <polygon class="st26" points="589.7 436 583.8 436 580.7 361 594.7 361 589.7 436"/>
  <path class="st17" d="M581.3,280.1c.8,22.9,1.2,48,1.4,71l-1.9-1.9h17.2c33.6-.1,69.5,0,103.1.9,5.7.1,11.5.3,17.2.5v1c-5.7.2-11.5.4-17.2.5-33.6.9-69.5,1.1-103.1,1-.9,0-18.8,0-19.1,0,0-.1.2-18.9.2-19.7.2-10.4.3-25.2.7-35.5.2-5.9.3-11.8.5-17.8h1.1Z"/>
  <path class="st17" d="M717.7,351.2c-.8-22.9-1.2-48-1.4-71l1.9,1.9h-17.2c-33.6.1-69.5,0-103.1-.9-5.7-.1-11.5-.3-17.2-.5v-1c5.7-.2,11.5-.4,17.2-.5,33.6-.9,69.5-1.1,103.1-1,.9,0,18.8,0,19.1,0,0,.1-.2,18.9-.2,19.7-.2,10.4-.3,25.2-.7,35.5-.2,5.9-.3,11.8-.5,17.8h-1.1Z"/>
  <path class="st17" d="M731.1,279.7c.8,22.9,1.2,48,1.4,71l-1.9-1.9h17.2c33.6-.1,69.5,0,103.1.9,5.7.1,11.5.3,17.2.5v1c-5.7.2-11.5.4-17.2.5-33.6.9-69.5,1.1-103.1,1-.9,0-18.8,0-19.1,0,0-.1.2-18.9.2-19.7.2-10.4.3-25.2.7-35.5.2-5.9.3-11.8.5-17.8h1.1Z"/>
  <path class="st17" d="M867.5,350.8c-.8-22.9-1.2-48-1.4-71l1.9,1.9h-17.2c-33.6.1-69.5,0-103.1-.9-5.7-.1-11.5-.3-17.2-.5v-1c5.7-.2,11.5-.4,17.2-.5,33.6-.9,69.5-1.1,103.1-1,.9,0,18.8,0,19.1,0,0,.1-.2,18.9-.2,19.7-.2,10.4-.3,25.2-.7,35.5-.2,5.9-.3,11.8-.5,17.8h-1.1Z"/>
  <rect class="st14" x="602.9" y="37.5" width="108.4" height="144.3"/>
  <rect class="st4" x="629.6" y="101.4" width="46.2" height="25"/>
  <path class="st8" d="M683.7,64.9l-4.8,47.2c-2.7,1-5.9,2.2-8.8,2.5-2.9.3-6-.3-8.3-2.2v-47.5h21.8Z"/>
  <path class="st8" d="M622.2,64.9l4.8,46.2c2.7,1,5.9,2.2,8.8,2.4,2.9.3,6-.3,8.3-2.1v-46.5h-21.8Z"/>
  <path class="st3" d="M663.4,64.9h-21.8l1.2,47.2s8.1,7,19,.4l1.6-47.5h0Z"/>
  <path class="st8" d="M683.7,172.7l-4.8-47.2c-2.7-1-5.9-2.2-8.8-2.5-2.9-.3-6,.3-8.3,2.2v47.5h21.8Z"/>
  <path class="st8" d="M622.2,172.7l4.8-46.2c2.7-1,5.9-2.2,8.8-2.4,2.9-.3,6,.3,8.3,2.1v46.5h-21.8Z"/>
  <path class="st3" d="M663.4,172.7h-21.8l1.2-47.2s8.1-7,19-.4l1.6,47.5h0Z"/>
  <polygon class="st3" points="683.7 64.9 652.5 53.6 622.2 64.9 683.7 64.9"/>
  <path class="st4" d="M681.6,80.6c2-1.7,4.2-3.2,6.5-4.4,1.4-.7,2.8-1.4,4.4-1.4.7,0,1.4,0,2,.5.8.5,1.3,1.4,1.6,2.4,1,3.4-.4,7-2,10.2s-3.6,6.3-3.9,9.8c-.2,2.3.3,4.7-.4,6.9-.4,1.3-2.3,2.2-2.5,3.6-.1.8.3,1.5.7,2.1.6.8,1.2,1.5,2,2.2.2.2.5.4.8.4.4,0,.9-.2,1.2-.4,1.7-1.3,2.8-3.2,3.8-5.1,2.6-4.9,4.7-10,6.8-15.2,1.2-2.8,1.5-5.2,2.2-8.2.3-1.4.7-2.8.6-4.2-.1-3.6-2.5-6.7-4.8-9.5-1.6-1.9-3.3-4-5.7-4.7-1.1-.3-2.2-.4-3.3-.4-3.1,0-6.2.1-9.2-.1.3,5.1-.3,10.6-.8,15.7h0Z"/>
  <polygon class="st24" points="663.4 64.9 652.5 53.6 641.6 64.9 663.4 64.9"/>
  <polygon class="st4" points="625.1 92.8 608.9 67.4 622.2 64.9 625.1 92.8"/>
  <path class="st3" d="M633.6,130.9c-.7-.2-1.4.3-1.7.9-.5,1-.3,2.3.4,3.2s2,1.1,3.1.8c.8-.3,1.4-1,1.7-1.8s0-1.7-.6-2.4c-.7-.8-1.8-.9-2.9-.9"/>
  <path class="st4" d="M658.8,46.3c0-.3.2-.7.1-1,0-.7-.7-1.3-1.3-1.7-1.2-.7-2.5-.8-3.9-1-1.7-.1-3.8,0-4.8,1.4-1,1.3-.5,3.1-.2,4.7.3,1.3.5,6,1.2,6.5.4.3,1.1.3,1.6.3.9,0,1.8,0,2.8,0s2,.2,2.6-.9c.6-1.1.7-2.7.9-4,.3-1.5.7-3,1-4.5Z"/>
  <rect class="st23" x="430" y="109.6" width="161.8" height="114"/>
  <rect class="st14" x="61.3" y="174.7" width="179.3" height="237.3"/>
  <path class="st24" d="M61.3,174.7v237.3h179.3v-237.3H61.3ZM76.2,189.9h149.6v206.9H76.2v-206.9h0Z"/>
  <path class="st14" d="M69.3,412h-8v-237.3h7.9c1.3,11.2-1.6,27.1-1.4,31.9.2,6.5,1.9,13,1.5,19.5-.2,3.3-.9,6.6-1.2,10-.8,7.4-.6,14.8-.5,22.1.2,7.8-.7,15.8-.3,23.5.3,7.2,1.4,14.2.5,21.4-.6,5-1.8,10-1.8,15.1s.4,6,.7,9c.4,3.5.6,7.1.8,10.7.6,11.3.2,22.5,0,33.8-.2,7.3-.3,14.7.5,21.9.4,3.2,1.2,7.3,1.5,11.4.2,2.4.2,4.7,0,6.9h0Z"/>
  <path class="st14" d="M240.6,174.7v237.3h-5.8c-.2-1.8-.3-3.6-.4-5.4,0-.2,0-.4,0-.6-.6-11.5-.2-22.9-.4-34.4-.2-11.3-.6-22.5,0-33.8.2-3.6.4-7.1.8-10.7.3-3,.7-6,.7-9,0-5.1-1.2-10.1-1.8-15.1-.9-7.2.2-14.2.5-21.4.4-7.7-.5-15.7-.3-23.5.2-7.4.3-14.8-.5-22.1-.4-3.3-1.1-6.6-1.3-10-.4-6.5,1.3-13,1.5-19.5.1-4.7-2.8-20.6-1.4-31.8h8.5Z"/>
  <path class="st14" d="M240.6,405v7H61.3v-7.3c1.5,0,3-.1,4.5,0,1.2,0,2.4.2,3.7.4,2.1.3,4.2.7,6.3.9,7.4.8,14.8.6,22.1.5,7.8-.2,15.8.7,23.5.3,7.2-.4,14.1-1.4,21.4-.5,5,.6,10,1.8,15.1,1.8,3,0,6-.4,9-.7,3.6-.4,7.1-.6,10.7-.8,11.3-.6,22.5-.2,33.8,0,7.3.1,14.7.3,21.9-.5.3,0,.7,0,1-.1,1.9-.3,4-.6,6.3-.9h0Z"/>
  <path class="st14" d="M240.6,181.7v-7H61.3v7.3c1.5,0,3,.1,4.5,0,1.2,0,2.4-.2,3.7-.4,2.1-.3,4.2-.7,6.3-.9,7.4-.8,14.8-.6,22.1-.5,7.8.2,15.8-.7,23.5-.3,7.2.4,14.1,1.4,21.4.5,5-.6,10-1.8,15.1-1.8,3,0,6,.4,9,.7,3.6.4,7.1.6,10.7.8,11.3.6,22.5.2,33.8,0,7.3-.1,14.7-.3,21.9.5.3,0,.7,0,1,.1,1.9.3,4,.6,6.3.9h0Z"/>
  <rect class="st24" x="74.6" y="293.1" width="152.7" height="12.1"/>
  <path class="st17" d="M236.4,389.5c1.2,3.7,1.2,7.5.9,11.3-.1,1.3-.3,2.5-.7,3.8h-.7c-1.4-4.9-1.6-10.2-.2-15.1h.7,0Z"/>
  <path class="st17" d="M236.2,363.1c1.5,3.3,1.3,7.1,0,10.4h-.7c-1.3-3.3-1.5-7.1,0-10.4h.7Z"/>
  <path class="st17" d="M236.1,324.4c1.5,4.3,1.3,8.9,0,13.2h-.7c-1.3-4.3-1.5-8.9,0-13.2h.7,0Z"/>
  <path class="st17" d="M236.2,288c1.4,3.3,1.3,7,0,10.3h-.7c-1.3-3.3-1.5-7.1,0-10.3h.7Z"/>
  <path class="st17" d="M236.3,260c1.4,3.9,1.3,8.2,0,12.1h-.7c-1.3-3.9-1.4-8.2,0-12.1h.7,0Z"/>
  <path class="st17" d="M236.4,233.5c1.4,3.3,1.2,7.1,0,10.4h-.7c-1.3-3.3-1.4-7.1,0-10.4h.7Z"/>
  <path class="st17" d="M236.6,206.2c1.4,3.6,1.2,7.7,0,11.3h-.7c-1.3-3.6-1.4-7.7,0-11.3h.7,0Z"/>
  <path class="st17" d="M236.6,177.5c1.5,4.3,1.3,9.1,0,13.4h-.7c-1.3-4.3-1.5-9.1,0-13.4h.7Z"/>
  <path class="st17" d="M65.8,362.1c1.5,3.3,1.3,7.1,0,10.4h-.7c-1.3-3.3-1.5-7.1,0-10.4h.7Z"/>
  <path class="st17" d="M65.6,328.6c1.5,4.3,1.3,8.9,0,13.2h-.7c-1.3-4.3-1.5-8.9,0-13.2h.7,0Z"/>
  <path class="st17" d="M65.6,292.2c1.4,3.3,1.3,7,0,10.3h-.7c-1.3-3.3-1.5-7.1,0-10.3h.7Z"/>
  <path class="st17" d="M66,391.6c1.4,3.3,1.3,7,0,10.3h-.7c-1.3-3.3-1.5-7.1,0-10.3h.7Z"/>
  <path class="st17" d="M65.7,264.2c1.4,3.9,1.3,8.2,0,12.1h-.7c-1.3-3.9-1.5-8.2,0-12.1h.7Z"/>
  <path class="st17" d="M65.8,237.7c1.4,3.3,1.2,7.1,0,10.4h-.7c-1.3-3.3-1.4-7.1,0-10.4h.7Z"/>
  <path class="st17" d="M66,210.4c1.4,3.6,1.2,7.7,0,11.3h-.7c-1.3-3.6-1.4-7.7,0-11.3h.7Z"/>
  <path class="st17" d="M66,181.7c1.5,4.3,1.3,9.1,0,13.4h-.7c-1.3-4.3-1.5-9.1,0-13.4h.7Z"/>
  <path class="st17" d="M212.6,177.4c4.3-1.5,8.9-1.3,13.2,0v.7c-4.3,1.3-8.9,1.5-13.2,0v-.7h0Z"/>
  <path class="st17" d="M176.1,177.3c3.3-1.4,7-1.3,10.3,0v.7c-3.3,1.3-7.1,1.5-10.3,0v-.7h0Z"/>
  <path class="st17" d="M148.2,177.2c3.9-1.4,8.2-1.3,12.1,0v.7c-3.9,1.3-8.2,1.4-12.1,0v-.7h0Z"/>
  <path class="st17" d="M121.7,177.1c3.3-1.4,7.1-1.2,10.4,0v.7c-3.3,1.3-7.1,1.4-10.4,0v-.7h0Z"/>
  <path class="st17" d="M94.3,176.9c3.6-1.4,7.7-1.2,11.3,0v.7c-3.7,1.3-7.7,1.4-11.3,0v-.7h0Z"/>
  <path class="st17" d="M195.3,408.3c3.3-1.5,7-1.3,10.3,0v.7c-3.3,1.3-7.1,1.5-10.3,0v-.7h0Z"/>
  <path class="st17" d="M219.1,408.3c3.3-1.5,7-1.3,10.3,0v.7c-3.3,1.3-7.1,1.5-10.3,0v-.7h0Z"/>
  <path class="st17" d="M167.4,408.2c3.9-1.5,8.2-1.3,12.1,0v.7c-3.9,1.3-8.2,1.5-12.1,0v-.7h0Z"/>
  <path class="st17" d="M129.4,408c3.3-1.4,7.1-1.2,10.4,0v.7c-3.3,1.3-7.1,1.4-10.4,0v-.7h0Z"/>
  <path class="st17" d="M99.9,407.8c3.6-1.4,7.7-1.2,11.3,0v.7c-3.7,1.3-7.7,1.4-11.3,0v-.7h0Z"/>
  <path class="st17" d="M65.6,408.3c3.6-1.4,7.7-1.2,11.3,0v.7c-3.7,1.3-7.7,1.4-11.3,0v-.7h0Z"/>
  <path class="st17" d="M65.6,176.9c4.3-1.5,9.1-1.3,13.4,0v.7c-4.3,1.3-9.1,1.5-13.4,0v-.7h0Z"/>
  <path class="st7" d="M227.3,301.3c-25.4,1.2-50.9,1.5-76.4,1.5-25.4,0-50.9-.4-76.4-1.5v-1c38.2-1.6,76.4-1.8,114.6-1.2,12.7.2,25.4.6,38.2,1.2v1.1h0Z"/>
  <rect class="st14" x="178.7" y="269.6" width="120" height="158.9"/>
  <path class="st24" d="M178.7,269.6v158.9h120v-158.9h-120ZM188.7,279.7h100.1v138.5h-100.1v-138.5h0Z"/>
  <path class="st14" d="M184.1,428.4h-5.4v-158.9h5.3c.9,7.5-1.1,18.2-1,21.3.1,4.4,1.3,8.7,1,13.1-.1,2.2-.6,4.5-.8,6.7-.5,4.9-.4,9.9-.3,14.8.1,5.2-.5,10.6-.2,15.8.2,4.8.9,9.5.4,14.3-.4,3.4-1.2,6.7-1.2,10.1s.3,4,.5,6c.2,2.4.4,4.8.5,7.2.4,7.6.1,15.1,0,22.6-.1,4.9-.2,9.8.3,14.7.2,2.1.8,4.9,1,7.6.1,1.6.1,3.2,0,4.6h0Z"/>
  <path class="st14" d="M298.8,269.6v158.9h-3.9c-.1-1.2-.2-2.4-.3-3.6,0-.1,0-.3,0-.4-.4-7.7-.1-15.3-.3-23-.1-7.6-.4-15.1,0-22.6.1-2.4.3-4.8.5-7.2.2-2,.5-4,.5-6,0-3.4-.8-6.7-1.2-10.1-.6-4.8.1-9.5.4-14.3.2-5.2-.3-10.5-.2-15.8.1-4.9.2-9.9-.3-14.8-.2-2.2-.7-4.4-.8-6.7-.2-4.4.9-8.7,1-13.1,0-3.2-1.8-13.8-1-21.2h5.7Z"/>
  <path class="st14" d="M298.8,423.7v4.7h-120v-4.9c1,0,2,0,3,0,.8,0,1.6.1,2.5.2,1.4.2,2.8.4,4.2.6,4.9.5,9.9.4,14.8.3,5.2-.1,10.6.5,15.8.2,4.8-.2,9.5-.9,14.3-.4,3.4.4,6.7,1.2,10.1,1.2,2,0,4-.3,6-.5,2.4-.2,4.8-.4,7.2-.5,7.6-.4,15.1-.1,22.6,0,4.9.1,9.8.2,14.7-.3.2,0,.4,0,.7,0,1.3-.2,2.7-.4,4.2-.6h0Z"/>
  <path class="st14" d="M298.8,274.2v-4.7h-120v4.9c1,0,2,0,3,0,.8,0,1.6-.1,2.5-.2,1.4-.2,2.8-.4,4.2-.6,4.9-.5,9.9-.4,14.8-.3,5.2.1,10.6-.5,15.8-.2,4.8.2,9.5.9,14.3.4,3.4-.4,6.7-1.2,10.1-1.2,2,0,4,.3,6,.5,2.4.2,4.8.4,7.2.5,7.6.4,15.1.1,22.6,0,4.9-.1,9.8-.2,14.7.3.2,0,.4,0,.7,0,1.3.2,2.7.4,4.2.6h0Z"/>
  <rect class="st24" x="187.6" y="348.8" width="102.2" height="8.1"/>
  <path class="st17" d="M295.9,413.3c1,3.3.9,6.8,0,10.1h-.5c-.9-3.3-1.1-6.8-.1-10.1h.5Z"/>
  <path class="st17" d="M295.8,395.6c1,2.2.9,4.7,0,6.9h-.5c-.9-2.3-1-4.7,0-6.9h.5Z"/>
  <path class="st17" d="M295.8,369.8c1,2.9.9,5.9,0,8.8h-.5c-.9-2.9-1-6,0-8.8h.5,0Z"/>
  <path class="st17" d="M295.8,345.4c1,2.2.9,4.6,0,6.9h-.5c-.9-2.3-1-4.7,0-6.9h.5Z"/>
  <path class="st17" d="M295.9,326.7c1,2.6.8,5.5,0,8.1h-.5c-.9-2.7-1-5.5,0-8.1h.5Z"/>
  <path class="st17" d="M296,308.9c1,2.2.8,4.7,0,7h-.5c-.9-2.3-1-4.7,0-7h.5Z"/>
  <path class="st17" d="M296.1,290.6c1,2.5.8,5.1,0,7.6h-.5c-.9-2.5-1-5.1,0-7.6h.5Z"/>
  <path class="st17" d="M296.1,271.4c1,2.9.9,6,0,9h-.5c-.9-3-1-6,0-9h.5Z"/>
  <path class="st17" d="M181.7,395c1,2.2.9,4.7,0,6.9h-.4c-.9-2.3-1-4.7,0-6.9h.5Z"/>
  <path class="st17" d="M181.6,372.6c1,2.9.9,5.9,0,8.8h-.4c-.9-2.9-1-6,0-8.8h.5,0Z"/>
  <path class="st17" d="M181.6,348.2c1,2.2.9,4.6,0,6.9h-.4c-.9-2.3-1-4.7,0-6.9h.5Z"/>
  <path class="st17" d="M181.9,414.8c1,2.2.9,4.6,0,6.9h-.4c-.9-2.3-1-4.7,0-6.9h.5Z"/>
  <path class="st17" d="M181.7,329.5c1,2.6.8,5.5,0,8.1h-.4c-.9-2.7-1-5.5,0-8.1h.5,0Z"/>
  <path class="st17" d="M181.8,311.8c1,2.2.8,4.7,0,7h-.4c-.9-2.3-1-4.7,0-7h.5Z"/>
  <path class="st17" d="M181.9,293.4c1,2.5.8,5.1,0,7.6h-.4c-.9-2.5-.9-5.1,0-7.6h.5Z"/>
  <path class="st17" d="M181.9,274.2c1,2.9.9,6,0,9h-.4c-.9-3-1-6,0-9h.5,0Z"/>
  <path class="st17" d="M280,271.3c2.9-1,5.9-.9,8.8,0v.5c-2.9.9-6,1-8.8,0v-.5h0Z"/>
  <path class="st17" d="M255.6,271.3c2.2-1,4.6-.9,6.9,0v.5c-2.3.9-4.7,1-6.9,0v-.5h0Z"/>
  <path class="st17" d="M236.9,271.2c2.6-1,5.4-.8,8.1,0v.5c-2.7.9-5.5,1-8.1,0v-.5h0Z"/>
  <path class="st17" d="M219.2,271.2c2.2-1,4.7-.8,7,0v.5c-2.3.9-4.7,1-7,0v-.5h0Z"/>
  <path class="st17" d="M200.8,271.1c2.5-1,5.1-.8,7.6,0v.5c-2.5.9-5.1,1-7.6,0v-.5h0Z"/>
  <path class="st17" d="M268.5,425.9c2.2-1,4.6-.9,6.9,0v.5c-2.3.9-4.7,1-6.9,0v-.5h0Z"/>
  <path class="st17" d="M284.3,425.9c2.2-1,4.6-.9,6.9,0v.5c-2.3.9-4.7,1-6.9,0v-.5h0Z"/>
  <path class="st17" d="M249.7,425.8c2.6-1,5.4-.8,8.1,0v.5c-2.7.9-5.5,1-8.1,0v-.5h0Z"/>
  <path class="st17" d="M224.4,425.7c2.2-1,4.7-.8,7,0v.5c-2.3.9-4.7,1-7,0v-.5h0Z"/>
  <path class="st17" d="M204.6,425.5c2.5-1,5.1-.8,7.6,0v.5c-2.5.9-5.1,1-7.6,0v-.5h0Z"/>
  <path class="st17" d="M181.7,425.9c2.5-1,5.1-.8,7.6,0v.5c-2.5.9-5.1,1-7.6,0v-.5h0Z"/>
  <path class="st17" d="M181.7,271.1c2.9-1,6-.9,9,0v.5c-2.9.9-6.1,1-9,0v-.5h0Z"/>
  <path class="st7" d="M289.9,354.3c-17,.8-34.1,1-51.1,1-17,0-34.1-.2-51.1-1v-.7c25.6-1.1,51.1-1.2,76.7-.8,8.5.1,17,.4,25.6.8v.7h0Z"/>
  <circle class="st16" cx="704.7" cy="312.6" r="5.7"/>
  <circle class="st16" cx="744" cy="312.6" r="5.7"/>
  <polygon class="st7" points="973.5 381 984.3 464.5 974.9 466 959.1 383.3 973.5 381"/>
  <polygon class="st7" points="866.3 369 860.5 452.9 851 452.6 851.7 368.4 866.3 369"/>
  <polygon class="st7" points="776.8 383.6 774.1 467.8 764.6 467.8 762.3 383.6 776.8 383.6"/>
  <polygon class="st7" points="908.6 394 905.9 478.1 896.3 478.1 894 394 908.6 394"/>
  <path class="st26" d="M860.6,208.6c-1.7,1.5-3.1,3.5-4.1,6.4-2.4,6.6-2.2,14.8-3.1,21.7-2.2,18.3-4.5,36.7-6.8,55-2,16.3-4,32.6-6,48.9-10.2,2.4-20.5,4.7-30.7,7.1-8.1,1.9-16.2,3.8-24.3,5.6-7.7,1.8-16.9,2.5-21,10.3-1.1,2.1-4.6,23.9-2.4,24.1l145.9,14.5,65.3-18.6c2-21.9,3.9-43.7,5.8-65.5,1.8-20.3,3.6-40.6,5.5-61,.7-7.3,1.3-14.6,1.9-21.8.5-6.2,1.9-13.5.6-19.7-1.9-8.8-7.1-9.8-14.8-10.2-7.6-.4-15.2-.6-23-.6h-69.1c-7.5,0-14.9-.6-19.9,3.8h0Z"/>
  <path class="st7" d="M946.6,350.4c-15.8,4.8-29.8,15-38.8,28.9-3,4.6-5.5,9.6-7.4,14.9l-1-.2c2.5-17.2,14.8-32.5,30.4-40,5.2-2.5,10.9-4.1,16.6-4.5l.2,1h0Z"/>
  <path class="st14" d="M846.5,341.2c15.2,0,30.4.8,45.5,1.8,7.6.5,15.1,1.1,22.7,1.8s15.1,1.4,22.7,2.4v.2c-22.8-.2-45.6-1.6-68.2-3.5-7.6-.7-15.1-1.5-22.7-2.5v-.3h0Z"/>
  <path class="st7" d="M977.3,212.3c-12.8,10.2-15,27.6-17.3,42.8-2.3,15.9-3.8,31.8-4.8,47.8-.6,10.7-.9,21.4-1.2,32.1h-1c-1-10.7-1.3-21.5-1.1-32.2.3-16.2,1.7-32.3,4.2-48.3,2.2-13.2,4.8-27.6,14.2-37.9,1.9-2,4.1-3.8,6.4-5.2l.6.9h0Z"/>
  <path class="st4" d="M661.8,256.7l-16-75.8c-.4-2.1,1.1-4,3.3-4h110.2c2.1,0,4,1.5,4.4,3.6l16.1,76.2h-117.9Z"/>
  <path class="st25" d="M661.8,256.7h147.8c3.6,0,6.6,2.9,6.6,6.6v6.2h-154.4v-12.8h0Z"/>
  <rect class="st26" x="260.6" y="37.5" width="145.8" height="140.2"/>
  <polygon class="st24" points="393.3 59.3 391.6 70.7 390.9 75.9 389 88.7 343.6 401.9 325.4 401.9 370.8 88.7 373.4 70.7 375.1 59.3 393.3 59.3"/>
  <polygon class="st24" points="517.5 401.9 499.3 401.9 444.9 88.7 441.8 70.7 439.8 59.3 458 59.3 460 70.7 463.1 88.7 517.5 401.9"/>
  <rect class="st26" x="390.9" y="70.7" width="18" height="331.2"/>
  <rect class="st14" x="344.7" y="129.4" width="153.1" height="153.1"/>
  <g class="st12">
    <g>
      <path class="st4" d="M406.8,156.3c-.5-1.4-1.2-2.6-2.3-3.5-4.5-3.4-12,2.8-16.3-.9-1.9-1.6-2.1-4.3-2.7-6.6-2.2-7.8-11-13.1-18.9-11.4-1.5.3-3,.9-4.5.6-4.2-.7-5.2-6.5-8.5-9.2-2.8-2.3-6.9-2.1-10.5-1.8-4.5.4-9,.8-13.4,1.2-1,0-2,.2-2.8.8-.7.5-1.1,1.4-1.5,2.2-3.3,7.2-7.5,12.6-8.1,20.6-.6,8-.8,16.4-.8,24.4-1.2,11.7-2.4,30.8,10.1,37.3,3.6,1.9,7.7,2,11.8,2.1,22.4.6,44.8,1.2,67.3,1.8,8.2.2,18.2,0,25-5.2,6.1-4.7,10-16.9,1.7-21.7-1-.6-2.1-1-3-1.6-3.5-2.6-3.1-7.8-2.7-12s-.2-9.8-4.2-11.2c-4-1.4-8.8,2.1-12.3-.2-1.9-1.2-2.5-3.6-3.3-5.7h0Z"/>
      <path class="st23" d="M388.2,208.2c4.1-10.3,16.7-18.1,26.6-13,5.8,3,10.2,9.8,16.7,9,7.2-.9,9.4-10,14.3-15.4,6.4-7,17.7-7.3,24.7-13.8,5.2-4.9,7-12.4,10.7-18.5s11.7-11.3,17.8-7.4c6.5-3.9,11.1-12.2,18.6-12.1,8.7.2,12.2,11.2,13,19.9,2,21.6,2.2,43.4.7,65.1-.3,4.3-.8,8.8-3.3,12.2-4.2,5.7-12.4,6.4-19.5,6.5-28.6.6-57.3.8-86,.7-25,0-47.4-.1-34.1-33.4h0Z"/>
      <path class="st15" d="M448.3,238.2c0-3.6,0-7.4-1-10.9-2.2-7.8-8.9-13.3-15.2-18.3-2.6-2.1-5.4-4.2-8.6-4.8-8.2-1.5-14.7,7.1-16.9,15.1s-3,17.1-8.9,23c-6.6-8.3-8.3-19.3-10.6-29.6s-6.1-21.3-15-27c-9-5.6-23.9-1.6-25,8.9-4.7-13.7-9.4-27.5-14.1-41.2-.6-1.7-1.4-3.6-3.2-4-1.2-.3-2.4.4-3.5.9-10.4,5.7-21.2,11.9-27.1,22.2-5.5,9.6-5.7,21.3-5.7,32.5.1,35.6,1.3,71.3,2.5,106.9,0,.5,112.4-2.7,122.6-4,39.4-4.9,29.6-36.6,29.7-69.8h0Z"/>
      <path class="st4" d="M517.2,175.9c-4.4-1.6-9.9-1.7-13.3,1.5-2.1,2-3.1,4.9-4,7.7-4.9,15.5-9,31.2-12.3,47.1-7.9-1.7-12-10.2-16-17.3s-11.1-14.6-18.8-12.2c-6.8,2.1-9.1,10.3-11.3,17.1-2.2,6.8-7.5,14.5-14.5,12.9-3.2-.7-5.7-3.4-8.9-4-8.3-1.7-12.7,9.3-13.7,17.7-3.6,28.5-7.1,58.2,2.4,85.2.7,2,1.6,4.2,3.4,5.4,3.6,2.4,8.3-.1,12-2.3,20.8-12,45.2-11.6,68.4-14.8,30.5-4.3,40.1-9.7,44.7-40.7,4-27.2,16.3-91.2-18-103.3h0Z"/>
    </g>
  </g>
  <polygon class="st21" points="344.7 282.5 334.7 276.9 334.7 124 344.7 129.4 344.7 282.5"/>
  <polygon class="st21" points="344.7 129.4 497.8 129.4 490 123.4 334.7 124 344.7 129.4"/>
  <rect class="st24" x="325.4" y="277.5" width="192.1" height="18"/>
  <polygon class="st24" points="463.1 88.7 370.8 88.7 373.4 70.7 460 70.7 463.1 88.7"/>
  <polygon class="st4" points="668.1 249.8 656.1 188.1 730 188.1 742 249.8 668.1 249.8"/>
  <g class="st11">
    <g>
      <path class="st4" d="M740.6,262.1c-8.4,10.9-21.7,17.7-37.8,17.7l-11.7-60.1,49.5,42.4Z"/>
      <path class="st15" d="M749.3,219.8c3.2,16.5-.3,31.5-8.7,42.4l-49.5-42.4h58.1Z"/>
      <path class="st20" d="M749.3,219.8h-58.1l32.7-42.6c12.7,10.9,22.2,25.9,25.4,42.6Z"/>
      <path class="st24" d="M723.9,177.2l-32.7,42.6-11.7-60.1c16,0,31.8,6.7,44.4,17.5Z"/>
      <path class="st16" d="M679.5,159.7l11.7,60.1h0l-49.5-42.4c8.4-10.9,21.7-17.7,37.8-17.7h0Z"/>
      <path class="st7" d="M691.2,219.8h-58.1c-3.2-16.5.3-31.5,8.7-42.4l49.5,42.4Z"/>
      <path class="st6" d="M691.2,219.8l-32.7,42.6c-12.7-10.9-22.2-25.9-25.4-42.6h58.1Z"/>
      <path class="st25" d="M691.2,219.8l11.7,60.1c-16,0-31.8-6.7-44.4-17.5l32.7-42.6h0Z"/>
      <line class="st0" x1="658.5" y1="262.4" x2="658.5" y2="262.4"/>
      <line class="st0" x1="740.6" y1="262.1" x2="740.6" y2="262.1"/>
    </g>
  </g>
  <polygon class="st24" points="798.6 364.5 877.6 380.6 958.4 360.7 958.4 258.4 877.6 274.2 796.8 262.1 798.6 364.5"/>
  <polygon class="st18" points="866.8 283.7 866.8 328.4 826.9 321.6 826.9 276.4 866.8 283.7"/>
  <polygon class="st16" points="958.4 258.4 877.6 247.6 796.8 262.1 877.6 278.1 958.4 258.4"/>
  <path class="st7" d="M878,281.2c.8,16.6,1,33.1,1,49.7,0,16.6-.2,33.1-1,49.7h-.7c-1.1-24.9-1.2-49.7-.8-74.6.1-8.3.4-16.6.8-24.9h.7,0Z"/>
  <path class="st7" d="M915.5,252.8c-13,3.7-26.1,6.8-39.2,9.7-13.2,2.9-26.4,5.6-39.7,7.8l-.2-.7c19.5-5.4,39.2-9.9,59-13.9,6.6-1.3,13.2-2.5,19.9-3.6l.2.7h0Z"/>
  <path class="st4" d="M836.7,118.2c-.7-3.9-1.6-7.8-3.8-11.1-1.9-2.8-4.3-5.9-7.6-5.9h-9.7c0,.1-2.2,54.4-2.2,54.4,4,0,8.4,0,11.8-2.1,3.3-2,5.4-5.3,7.4-8.6.9-1.4,1.8-2.9,2.4-4.5.6-1.5.9-3,1.2-4.5.7-3.4,1.4-6.9,1.3-10.4,0-2.5-.5-4.9-1-7.3h0ZM827.8,129.5c-.2,1-.4,2.1-.7,3.1-.2,1-.5,2-.8,3-.7,2-1.4,4.4-2.8,6.1l.5-29.9c1.9,0,2.6,2.8,3,4.7,1,4.2,1.4,8.7.7,13h0Z"/>
  <polygon class="st16" points="815.3 166.2 815.3 158.1 804.8 158.1 804.8 113.7 795.9 113.7 795.9 166.2 815.3 166.2"/>
  <path class="st5" d="M789.2,135.4c-.9-2.8-2.8-5.4-5.5-6.5-3.1-1.3-6.9-.4-9.5,1.8-2.6,2.1-4.2,5.4-5,8.7-2.3,9.8-2,20.2-1.2,30.2.2,2.3,0,4.8.9,6.9.9,2.1,2.2,4.4,4.2,5.8,1.5,1.1,3.4,1.5,5.2,1.9,1.4.3,3,.7,4.3,0s2.5-1.8,3.6-2.9c.4-.4.8-.8,1.2-1.2.8-1,1.2-2.1,1.6-3.3.5-1.4,1-2.8,1.3-4.2.8-4.1,1-8.2,1.1-12.4.2-8.3.5-16.8-2.2-24.7h0ZM781.8,167.5c-.1,2.3-.2,4.7-1.2,6.8-.2.5-.6,1.1-1.1,1.1-.7,0-1.1-.7-1.3-1.3-1.5-3.9-1.6-8.3-1.6-12.5,0-4.8-.1-9.6,0-14.5,0-2.3.4-4.9,1.3-7,.2-.5.5-1.1,1-1.4,2.1-1.3,3.1,2.3,3.2,3.7.6,8.3.2,16.7-.3,25.1h0Z"/>
  <path class="st26" d="M765.1,156.2h-8.6c-.1-.8-.4-1.5-.5-2.3-.2-1.5-.5-3.2-1.8-4.1-.2-.1-.4-.3-.7-.2-.2,0-.3.1-.5.3-.6.6-.8,1.5-.6,2.4s.5,1.6,1,2.3c1.2,1.9,2.6,3.6,4,5.4,4.3,5.7,7.7,12.3,8.5,19.4.4,3.4,0,7-1.6,10-.8,1.4-2,2.7-3.2,3.8-1,.9-2,1.8-3.3,2.1-1,.3-2.1.2-3.1.1-4.1-.6-8.3-2.9-9.9-6.8-.4-1-.6-2-.8-3-.6-3-1.3-6-1.9-9-.2-1.2-.5-2.5.2-3.5h8.8c-.1,3.6.8,7.2,2.3,10.5.4.8,1.2,1.8,2,1.5.6-.2.8-.9.9-1.6.3-2.3-.4-5.1-1.1-7.3-.8-2.5-2.2-4.7-3.7-6.8-1.2-1.7-2.5-3.3-3.8-5-3.2-4.5-5.3-9.9-4.5-15.5.3-1.9.9-3.8,2.1-5.3,1.5-1.8,2.9-2.6,5.2-3.1,1.9-.4,3.8-.8,5.8-.6s3.9.9,5.1,2.5c.8,1.1,1.2,2.4,1.5,3.6.9,3.4,1.8,6.8,2,10.2"/>
</svg>