<?xml version="1.0" encoding="UTF-8"?><svg id="Layer_1" xmlns="http://www.w3.org/2000/svg" xmlns:xlink="http://www.w3.org/1999/xlink" viewBox="0 0 1036.43 521.73"><defs><style>.cls-1,.cls-2{fill:none;}.cls-3{fill:#7d8ac1;}.cls-4{fill:#b0b3d7;}.cls-5{fill:#732229;}.cls-6{fill:#f1cbdd;}.cls-7{fill:url(#linear-gradient);}.cls-8{fill:#30797f;}.cls-9{clip-path:url(#clippath-1);}.cls-10{clip-path:url(#clippath-3);}.cls-11{clip-path:url(#clippath-4);}.cls-12{clip-path:url(#clippath-2);}.cls-13{fill:#f5d7d5;}.cls-14{fill:#fdf7b4;}.cls-15{fill:#fff;}.cls-16{fill:#dadf50;}.cls-17{fill:#de9dc0;}.cls-18{fill:#67afe0;}.cls-19{fill:#edeae5;}.cls-20{opacity:.23;}.cls-21,.cls-22{fill:#9b3d32;}.cls-23{fill:#f3f3f3;}.cls-24{fill:#6c91c4;}.cls-25{fill:#cccccb;}.cls-26{fill:#eba6a0;}.cls-27{fill:#e58466;}.cls-2{stroke:#f5d7d5;stroke-miterlimit:10;stroke-width:2.71px;}.cls-28{clip-path:url(#clippath);}.cls-22{opacity:.8;}.cls-29{fill:#7498c5;}</style><clipPath id="clippath"><rect class="cls-13" width="1036.99" height="522.06"/></clipPath><linearGradient id="linear-gradient" x1="-2043.43" y1="6224.2" x2="-2043.43" y2="6460.85" gradientTransform="translate(2981.8618 -6120.6909)" gradientUnits="userSpaceOnUse"><stop offset="0" stop-color="#eba6a0" stop-opacity=".63"/><stop offset=".35" stop-color="#cca6b3" stop-opacity=".77"/><stop offset=".78" stop-color="#a9a7c9" stop-opacity=".94"/><stop offset="1" stop-color="#9ca8d2"/></linearGradient><clipPath id="clippath-1"><rect class="cls-22" y="384.04" width="1036.99" height="138.01"/></clipPath><clipPath id="clippath-2"><rect class="cls-8" x="126.24" y="42.61" width="93.02" height="115.07" transform="translate(272.9 -72.61) rotate(90)"/></clipPath><clipPath id="clippath-3"><rect class="cls-15" x="344.7" y="129.39" width="153.11" height="153.11" transform="translate(842.51 411.9) rotate(-180)"/></clipPath><clipPath id="clippath-4"><polygon class="cls-8" points="668.06 249.8 656.07 188.06 729.98 188.06 741.97 249.8 668.06 249.8"/></clipPath></defs><rect class="cls-13" width="1036.99" height="522.06"/><g class="cls-28"><rect class="cls-7" x="820.1" y="-15.83" width="236.65" height="364.8" transform="translate(1876.8594 333.142) rotate(-180)"/><rect class="cls-23" x="820.1" y="-15.83" width="19.3" height="364.8"/><rect class="cls-23" x="938.71" y="-15.83" width="6.25" height="364.8"/><rect class="cls-23" x="820.1" y="-15.83" width="19.3" height="364.8"/><rect class="cls-23" x="938.71" y="-15.83" width="6.25" height="364.8"/><rect class="cls-23" x="928.78" y="57.89" width="19.3" height="236.65" transform="translate(1114.6505 -762.2089) rotate(90)"/><rect class="cls-23" x="928.78" y="221" width="19.3" height="236.65" transform="translate(1277.7534 -599.106) rotate(90)"/></g><rect class="cls-22" y="384.04" width="1036.99" height="138.01"/><g class="cls-9"><g class="cls-20"><path class="cls-2" d="M-8.14,399.46c4.86,0,4.86.21,9.71.21s4.86.02,9.71.02,4.86.04,9.71.04,4.86-.58,9.71-.58,4.86.14,9.72.14,4.86.22,9.72.22,4.86.03,9.72.03,4.86-.28,9.71-.28,4.86.2,9.71.2,4.86.02,9.71.02,4.86.26,9.71.26,4.86-.34,9.72-.34,4.86-.23,9.72-.23,4.86.12,9.72.12,4.86.26,9.71.26,4.86.17,9.71.17,4.86-.13,9.71-.13,4.86.05,9.71.05,4.86-.03,9.72-.03,4.86-.11,9.72-.11,4.86.16,9.71.16,4.86-.5,9.71-.5,4.86.32,9.71.32,4.86.09,9.72.09,4.86.23,9.72.23,4.86-.04,9.72-.04,4.86-.43,9.71-.43,4.86.31,9.71.31,4.86-.32,9.72-.32,4.86.13,9.72.13,4.86.11,9.72.11,4.86.12,9.71.12,4.86-.12,9.71-.12,4.86-.14,9.72-.14,4.86.27,9.72.27,4.86-.08,9.71-.08,4.86.06,9.71.06,4.86.1,9.71.1,4.85-.42,9.71-.42,4.86-.14,9.71-.14,4.86.57,9.71.57,4.86-.61,9.71-.61,4.86.63,9.72.63,4.86,0,9.72,0,4.86,0,9.71,0,4.86.01,9.71.01,4.86-.49,9.71-.49,4.86.12,9.71.12,4.86.31,9.71.31,4.86.06,9.72.06,4.86-.49,9.72-.49,4.86.35,9.71.35,4.86-.1,9.71-.1,4.86.07,9.71.07,4.86-.1,9.71-.1,4.86.1,9.72.1,4.86-.39,9.72-.39,4.86.48,9.71.48,4.86.1,9.71.1,4.86-.55,9.71-.55,4.86.19,9.72.19,4.86.26,9.72.26,4.86.07,9.71.07,4.86-.34,9.71-.34,4.86,0,9.72,0,4.86.07,9.72.07,4.86-.02,9.72-.02,4.86.19,9.71.19,4.86-.03,9.72-.03,4.86.09,9.72.09,4.86-.26,9.72-.26,4.86-.16,9.72-.16,4.86.11,9.72.11,4.86.36,9.72.36,4.86-.11,9.72-.11,4.86-.19,9.72-.19,4.86.09,9.72.09,4.86.13,9.72.13,4.86-.12,9.72-.12,4.86-.26,9.72-.26,4.86.3,9.72.3,4.86-.11,9.72-.11,4.86-.09,9.72-.09,4.86-.25,9.72-.25,4.86.42,9.72.42,4.86-.23,9.72-.23,4.86.35,9.72.35,4.86-.24,9.72-.24,4.86.06,9.72.06,4.86.25,9.72.25,4.86-.61,9.72-.61,4.86.27,9.71.27,4.86.26,9.72.26,4.86.02,9.72.02,4.86.03,9.72.03,4.86-.19,9.72-.19,4.86-.03,9.72-.03,4.86-.34,9.72-.34,4.86.59,9.72.59,4.86-.46,9.72-.46,4.86.29,9.72.29,4.86,0,9.72,0,4.86,0,9.72,0,4.86-.13,9.72-.13,4.86-.23,9.72-.23,4.86.36,9.72.36,4.86-.17,9.72-.17,4.86-.27,9.72-.27,4.86.31,9.72.31,4.86-.26,9.73-.26,4.86.18,9.72.18,4.86.18,9.73.18,4.86-.39,9.73-.39"/></g><g class="cls-20"><path class="cls-2" d="M-8.14,420.69c4.86,0,4.86.3,9.71.3s4.86-.48,9.71-.48,4.86.25,9.71.25,4.86.28,9.71.28,4.86-.23,9.72-.23,4.86-.2,9.72-.2,4.86,0,9.72,0,4.86-.13,9.71-.13,4.86.05,9.71.05,4.86.2,9.71.2,4.86.04,9.71.04,4.86-.24,9.72-.24,4.86.42,9.72.42,4.86-.39,9.72-.39,4.86.02,9.71.02,4.86-.05,9.71-.05,4.86.28,9.71.28,4.86.28,9.71.28,4.86-.34,9.72-.34,4.86.07,9.72.07,4.86.31,9.71.31,4.86-.33,9.71-.33,4.86.09,9.71.09,4.86-.09,9.72-.09,4.86.09,9.72.09,4.86-.03,9.72-.03,4.86.15,9.71.15,4.86-.28,9.71-.28,4.86-.23,9.72-.23,4.86.07,9.72.07,4.86.13,9.72.13,4.86.16,9.71.16,4.86-.1,9.71-.1,4.86-.15,9.72-.15,4.86-.03,9.72-.03,4.86.27,9.71.27,4.86-.05,9.71-.05,4.86-.02,9.71-.02,4.85.24,9.71.24,4.86-.12,9.71-.12,4.86-.11,9.71-.11,4.86.06,9.71.06,4.86-.08,9.72-.08,4.86.24,9.72.24,4.86.04,9.71.04,4.86-.25,9.71-.25,4.86-.29,9.71-.29,4.86.52,9.71.52,4.86.03,9.71.03,4.86-.12,9.72-.12,4.86-.38,9.72-.38,4.86.1,9.71.1,4.86.25,9.71.25,4.86-.09,9.71-.09,4.86-.31,9.71-.31,4.86.24,9.72.24,4.86-.11,9.72-.11,4.86.28,9.71.28,4.86-.3,9.71-.3,4.86.27,9.71.27,4.86-.3,9.72-.3,4.86-.09,9.72-.09,4.86.24,9.71.24,4.86.08,9.71.08,4.86.08,9.72.08,4.86.13,9.72.13,4.86-.4,9.72-.4,4.86,0,9.71,0,4.86.07,9.72.07,4.86-.14,9.72-.14,4.86.25,9.72.25,4.86-.28,9.72-.28,4.86.63,9.72.63,4.86-.58,9.72-.58,4.86.48,9.72.48,4.86-.55,9.72-.55,4.86.12,9.72.12,4.86-.13,9.72-.13,4.86.56,9.72.56,4.86-.32,9.72-.32,4.86-.25,9.72-.25,4.86.2,9.72.2,4.86.32,9.72.32,4.86-.07,9.72-.07,4.86,0,9.72,0,4.86-.2,9.72-.2,4.86-.12,9.72-.12,4.86.38,9.72.38,4.86-.32,9.72-.32,4.86.33,9.72.33,4.86-.51,9.72-.51,4.86.52,9.71.52,4.86-.19,9.72-.19,4.86,0,9.72,0,4.86-.12,9.72-.12,4.86.29,9.72.29,4.86,0,9.72,0,4.86-.18,9.72-.18,4.86-.05,9.72-.05,4.86.39,9.72.39,4.86-.1,9.72-.1,4.86-.38,9.72-.38,4.86-.19,9.72-.19,4.86.46,9.72.46,4.86.12,9.72.12,4.86.05,9.72.05,4.86,0,9.72,0,4.86-.55,9.72-.55,4.86.12,9.72.12,4.86.09,9.73.09,4.86.19,9.72.19,4.86-.07,9.73-.07,4.86.02,9.73.02"/></g><g class="cls-20"><path class="cls-2" d="M-8.14,442.09c4.86,0,4.86.07,9.71.07s4.86.35,9.71.35,4.86-.27,9.71-.27,4.86.01,9.71.01,4.86.15,9.72.15,4.86-.08,9.72-.08,4.86.16,9.72.16,4.86-.09,9.71-.09,4.86-.38,9.71-.38,4.86-.13,9.71-.13,4.86.27,9.71.27,4.86-.24,9.72-.24,4.86.26,9.72.26,4.86-.2,9.72-.2,4.86.18,9.71.18,4.86.27,9.71.27,4.86-.36,9.71-.36,4.86.45,9.71.45,4.86-.22,9.72-.22,4.86-.23,9.72-.23,4.86.07,9.71.07,4.86.1,9.71.1,4.86-.19,9.71-.19,4.86.48,9.72.48,4.86-.07,9.72-.07,4.86-.44,9.72-.44,4.86-.07,9.71-.07,4.86.47,9.71.47,4.86,0,9.72,0,4.86-.1,9.72-.1,4.86-.32,9.72-.32,4.86.03,9.71.03,4.86-.04,9.71-.04,4.86.15,9.72.15,4.86.03,9.72.03,4.86-.12,9.71-.12,4.86.46,9.71.46,4.86-.61,9.71-.61,4.85.58,9.71.58,4.86-.17,9.71-.17,4.86-.39,9.71-.39,4.86.34,9.71.34,4.86.15,9.72.15,4.86-.41,9.72-.41,4.86,0,9.71,0,4.86-.11,9.71-.11,4.86.02,9.71.02,4.86.19,9.71.19,4.86.12,9.71.12,4.86-.37,9.72-.37,4.86.54,9.72.54,4.86-.42,9.71-.42,4.86-.13,9.71-.13,4.86.05,9.71.05,4.86.6,9.71.6,4.86-.14,9.72-.14,4.86.1,9.72.1,4.86.04,9.71.04,4.86-.62,9.71-.62,4.86.1,9.71.1,4.86.18,9.72.18,4.86-.11,9.72-.11,4.86-.19,9.71-.19,4.86.18,9.71.18,4.86-.08,9.72-.08,4.86.2,9.72.2,4.86.29,9.72.29,4.86-.08,9.71-.08,4.86-.31,9.72-.31,4.86.46,9.72.46,4.86-.27,9.72-.27,4.86,0,9.72,0,4.86-.33,9.72-.33,4.86.5,9.72.5,4.86-.1,9.72-.1,4.86-.46,9.72-.46,4.86.1,9.72.1,4.86.37,9.72.37,4.86-.45,9.72-.45,4.86.51,9.72.51,4.86-.46,9.72-.46,4.86.58,9.72.58,4.86-.5,9.72-.5,4.86.1,9.72.1,4.86-.25,9.72-.25,4.86.23,9.72.23,4.86-.15,9.72-.15,4.86.22,9.72.22,4.86-.17,9.72-.17,4.86.44,9.72.44,4.86,0,9.72,0,4.86-.16,9.71-.16,4.86-.05,9.72-.05,4.86-.18,9.72-.18,4.86-.12,9.72-.12,4.86.41,9.72.41,4.86-.09,9.72-.09,4.86-.06,9.72-.06,4.86.05,9.72.05,4.86-.21,9.72-.21,4.86.02,9.72.02,4.86-.17,9.72-.17,4.86.47,9.72.47,4.86.11,9.72.11,4.86-.37,9.72-.37,4.86-.09,9.72-.09,4.86.45,9.72.45,4.86-.46,9.72-.46,4.86.23,9.72.23,4.86-.23,9.73-.23,4.86-.05,9.72-.05,4.86.21,9.73.21,4.86.3,9.73.3"/></g><g class="cls-20"><path class="cls-2" d="M-8.14,463.51c4.86,0,4.86.12,9.71.12s4.86-.28,9.71-.28,4.86.52,9.71.52,4.86-.34,9.71-.34,4.86.12,9.72.12,4.86-.34,9.72-.34,4.86.59,9.72.59,4.86-.31,9.71-.31,4.86.08,9.71.08,4.86-.41,9.71-.41,4.86.26,9.71.26,4.86-.07,9.72-.07,4.86.33,9.72.33,4.86-.23,9.72-.23,4.86-.18,9.71-.18,4.86.28,9.71.28,4.86,0,9.71,0,4.86.09,9.71.09,4.86-.44,9.72-.44,4.86-.05,9.72-.05,4.86.37,9.71.37,4.86.15,9.71.15,4.86-.23,9.71-.23,4.86.11,9.72.11,4.86-.08,9.72-.08,4.86-.24,9.72-.24,4.86.35,9.71.35,4.86-.16,9.71-.16,4.86.14,9.72.14,4.86-.4,9.72-.4,4.86.29,9.72.29,4.86.05,9.71.05,4.86-.2,9.71-.2,4.86.44,9.72.44,4.86-.31,9.72-.31,4.86.26,9.71.26,4.86-.47,9.71-.47,4.86.58,9.71.58,4.85-.28,9.71-.28,4.86.15,9.71.15,4.86-.23,9.71-.23,4.86.23,9.71.23,4.86-.06,9.72-.06,4.86.16,9.72.16,4.86-.39,9.71-.39,4.86.23,9.71.23,4.86-.21,9.71-.21,4.86.33,9.71.33,4.86-.57,9.71-.57,4.86.31,9.72.31,4.86.32,9.72.32,4.86-.34,9.71-.34,4.86-.09,9.71-.09,4.86.12,9.71.12,4.86.09,9.71.09,4.86,0,9.72,0,4.86.1,9.72.1,4.86-.11,9.71-.11,4.86-.38,9.71-.38,4.86.49,9.71.49,4.86-.39,9.72-.39,4.86,0,9.72,0,4.86.21,9.71.21,4.86.05,9.71.05,4.86.02,9.72.02,4.86-.32,9.72-.32,4.86-.09,9.72-.09,4.86.06,9.71.06,4.86.34,9.72.34,4.86.11,9.72.11,4.86-.35,9.72-.35,4.86.43,9.72.43,4.86.05,9.72.05,4.86-.45,9.72-.45,4.86-.15,9.72-.15,4.86.03,9.72.03,4.86.45,9.72.45,4.86-.36,9.72-.36,4.86,0,9.72,0,4.86.16,9.72.16,4.86.16,9.72.16,4.86-.07,9.72-.07,4.86-.32,9.72-.32,4.86.4,9.72.4,4.86-.07,9.72-.07,4.86-.3,9.72-.3,4.86.02,9.72.02,4.86.33,9.72.33,4.86-.24,9.72-.24,4.86.23,9.72.23,4.86-.04,9.72-.04,4.86-.06,9.71-.06,4.86.11,9.72.11,4.86-.18,9.72-.18,4.86-.06,9.72-.06,4.86-.02,9.72-.02,4.86.3,9.72.3,4.86.16,9.72.16,4.86-.14,9.72-.14,4.86-.24,9.72-.24,4.86-.26,9.72-.26,4.86.19,9.72.19,4.86-.11,9.72-.11,4.86.51,9.72.51,4.86-.59,9.72-.59,4.86.18,9.72.18,4.86-.14,9.72-.14,4.86.33,9.72.33,4.86.1,9.72.1,4.86-.47,9.73-.47,4.86.13,9.72.13,4.86.19,9.73.19,4.86-.3,9.73-.3"/></g><g class="cls-20"><path class="cls-2" d="M-8.14,484.91q4.86,0,9.71,0c4.86,0,4.86.14,9.71.14s4.86-.05,9.71-.05,4.86-.29,9.71-.29,4.86.5,9.72.5,4.86.04,9.72.04,4.86,0,9.72,0,4.86-.22,9.71-.22,4.86.21,9.71.21,4.86-.33,9.71-.33,4.86-.07,9.71-.07,4.86.14,9.72.14,4.86-.15,9.72-.15,4.86.22,9.72.22,4.86.15,9.71.15,4.86.09,9.71.09,4.86-.14,9.71-.14,4.86-.5,9.71-.5,4.86,0,9.72,0,4.86.44,9.72.44,4.86-.42,9.71-.42,4.86.07,9.71.07,4.86.05,9.71.05,4.86.21,9.72.21,4.86-.23,9.72-.23,4.86.43,9.72.43,4.86-.1,9.71-.1,4.86.07,9.71.07,4.86-.28,9.72-.28,4.86.22,9.72.22,4.86-.44,9.72-.44,4.86.27,9.71.27,4.86-.05,9.71-.05,4.86.23,9.72.23,4.86-.05,9.72-.05,4.86.06,9.71.06,4.86-.3,9.71-.3,4.86.24,9.71.24,4.85-.42,9.71-.42,4.86.58,9.71.58,4.86-.58,9.71-.58,4.86.05,9.71.05,4.86.04,9.72.04,4.86-.03,9.72-.03,4.86.36,9.71.36,4.86-.18,9.71-.18,4.86-.22,9.71-.22,4.86.16,9.71.16,4.86.44,9.71.44,4.86-.34,9.72-.34,4.86.18,9.72.18,4.86.02,9.71.02,4.86-.4,9.71-.4,4.86.21,9.71.21,4.86.09,9.71.09,4.86-.34,9.72-.34,4.86.26,9.72.26,4.86-.24,9.71-.24,4.86.12,9.71.12,4.86.09,9.71.09,4.86-.18,9.72-.18,4.86.03,9.72.03,4.86.38,9.71.38,4.86-.09,9.71-.09,4.86.08,9.72.08,4.86-.07,9.72-.07,4.86-.08,9.72-.08,4.86-.2,9.71-.2,4.86.12,9.72.12,4.86.08,9.72.08,4.86-.04,9.72-.04,4.86.1,9.72.1,4.86.15,9.72.15,4.86-.39,9.72-.39,4.86.25,9.72.25,4.86.24,9.72.24,4.86-.25,9.72-.25,4.86-.22,9.72-.22,4.86,0,9.72,0,4.86.35,9.72.35,4.86-.04,9.72-.04,4.86.11,9.72.11,4.86-.43,9.72-.43,4.86-.03,9.72-.03,4.86.44,9.72.44,4.86.05,9.72.05,4.86-.46,9.72-.46,4.86-.06,9.72-.06,4.86.1,9.72.1,4.86.17,9.72.17,4.86-.14,9.72-.14,4.86.15,9.71.15,4.86-.33,9.72-.33,4.86.32,9.72.32,4.86.06,9.72.06,4.86-.11,9.72-.11,4.86-.23,9.72-.23,4.86,0,9.72,0,4.86.4,9.72.4,4.86-.18,9.72-.18,4.86-.2,9.72-.2,4.86.1,9.72.1,4.86.1,9.72.1,4.86-.22,9.72-.22,4.86-.07,9.72-.07,4.86.21,9.72.21,4.86.1,9.72.1,4.86-.25,9.72-.25,4.86-.02,9.72-.02,4.86.11,9.73.11,4.86.43,9.72.43,4.86-.33,9.73-.33,4.86.18,9.73.18"/></g><g class="cls-20"><path class="cls-2" d="M-8.14,506.04c4.86,0,4.86.49,9.71.49s4.86-.52,9.71-.52,4.86,0,9.71,0,4.86.42,9.71.42,4.86-.42,9.72-.42,4.86.66,9.72.66,4.86-.25,9.72-.25,4.86-.13,9.71-.13,4.86.37,9.71.37,4.86-.39,9.71-.39,4.86-.01,9.71-.01,4.86.34,9.72.34,4.86-.07,9.72-.07,4.86-.15,9.72-.15,4.86.08,9.71.08,4.86-.34,9.71-.34,4.86.23,9.71.23,4.86,0,9.71,0,4.86-.06,9.72-.06,4.86-.3,9.72-.3,4.86.31,9.71.31,4.86-.12,9.71-.12,4.86.04,9.71.04,4.86.03,9.72.03,4.86.28,9.72.28,4.86-.26,9.72-.26,4.86.37,9.71.37,4.86-.62,9.71-.62,4.86.52,9.72.52,4.86.01,9.72.01,4.86-.17,9.72-.17,4.86-.05,9.71-.05,4.86.03,9.71.03,4.86-.21,9.72-.21,4.86.09,9.72.09,4.86.03,9.71.03,4.86.31,9.71.31,4.86-.05,9.71-.05,4.85-.08,9.71-.08,4.86-.19,9.71-.19,4.86-.27,9.71-.27,4.86.56,9.71.56,4.86-.47,9.72-.47,4.86.39,9.72.39,4.86-.32,9.71-.32,4.86.28,9.71.28,4.86-.3,9.71-.3,4.86-.11,9.71-.11,4.86.1,9.71.1,4.86.45,9.72.45,4.86-.49,9.72-.49,4.86-.08,9.71-.08,4.86.12,9.71.12,4.86.47,9.71.47,4.86-.16,9.71-.16,4.86-.22,9.72-.22,4.86-.23,9.72-.23,4.86.09,9.71.09,4.86.38,9.71.38,4.86-.18,9.71-.18,4.86.18,9.72.18,4.86-.07,9.72-.07,4.86-.37,9.71-.37,4.86.23,9.71.23,4.86.39,9.72.39,4.86-.45,9.72-.45,4.86.24,9.72.24,4.86-.4,9.71-.4,4.86.11,9.72.11,4.86.11,9.72.11,4.86-.03,9.72-.03,4.86-.08,9.72-.08,4.86,0,9.72,0,4.86-.09,9.72-.09,4.86.16,9.72.16,4.86.08,9.72.08,4.86.07,9.72.07,4.86.15,9.72.15,4.86.09,9.72.09,4.86-.03,9.72-.03,4.86-.42,9.72-.42,4.86.4,9.72.4,4.86-.41,9.72-.41,4.86,0,9.72,0,4.86.13,9.72.13,4.86.31,9.72.31,4.86-.17,9.72-.17,4.86.02,9.72.02,4.86-.34,9.72-.34,4.86.04,9.72.04,4.86.33,9.72.33,4.86-.29,9.71-.29,4.86.45,9.72.45,4.86-.33,9.72-.33,4.86-.25,9.72-.25,4.86.07,9.72.07,4.86.18,9.72.18,4.86.18,9.72.18,4.86-.12,9.72-.12,4.86-.25,9.72-.25,4.86-.11,9.72-.11,4.86.22,9.72.22,4.86.02,9.72.02,4.86-.05,9.72-.05,4.86-.14,9.72-.14,4.86,0,9.72,0,4.86.11,9.72.11,4.86.5,9.72.5,4.86-.31,9.72-.31,4.86-.18,9.73-.18,4.86-.14,9.72-.14,4.86.43,9.73.43,4.86.04,9.73.04"/></g></g><rect class="cls-5" x="569.97" y="269.46" width="290.21" height="91.55"/><polygon class="cls-27" points="589.66 436.04 583.81 436.04 580.73 361.02 594.68 361.02 589.66 436.04"/><path class="cls-18" d="M581.26,280.14c.84,22.9,1.22,48.02,1.39,71.02,0,0-1.93-1.93-1.93-1.93l17.18-.08c33.62-.06,69.53.16,103.1,1.01,5.73.14,11.46.28,17.18.49v1.02c-5.73.21-11.46.35-17.18.49-33.57.85-69.49,1.06-103.1,1.01-.89,0-18.75-.09-19.13-.08-.05-.12.22-18.86.19-19.67.25-10.43.29-25.22.68-35.51.16-5.92.3-11.84.55-17.76h1.06Z"/><path class="cls-18" d="M717.67,351.16c-.84-22.9-1.22-48.02-1.39-71.02,0,0,1.93,1.93,1.93,1.93l-17.18.08c-33.62.06-69.53-.16-103.1-1.01-5.73-.14-11.46-.28-17.18-.49v-1.02c5.73-.21,11.46-.35,17.18-.49,33.57-.85,69.49-1.06,103.1-1.01.89,0,18.75.09,19.13.08.05.13-.21,18.86-.19,19.67-.25,10.43-.29,25.22-.68,35.51-.16,5.92-.3,11.84-.55,17.76h-1.06Z"/><path class="cls-18" d="M731.09,279.73c.84,22.9,1.22,48.02,1.39,71.02,0,0-1.93-1.93-1.93-1.93l17.18-.08c33.62-.06,69.53.16,103.1,1.01,5.73.14,11.46.28,17.18.49v1.02c-5.73.21-11.46.35-17.18.49-33.57.85-69.49,1.06-103.1,1.01-.89,0-18.75-.09-19.13-.08-.05-.12.22-18.86.19-19.67.25-10.43.29-25.22.68-35.51.16-5.92.3-11.84.55-17.76h1.06Z"/><path class="cls-18" d="M867.49,350.75c-.84-22.9-1.22-48.02-1.39-71.02,0,0,1.93,1.93,1.93,1.93l-17.18.08c-33.62.06-69.53-.16-103.1-1.01-5.73-.14-11.46-.28-17.18-.49v-1.02c5.73-.21,11.46-.35,17.18-.49,33.57-.85,69.49-1.06,103.1-1.01.89,0,18.75.09,19.13.08.05.13-.21,18.86-.19,19.67-.25,10.43-.29,25.22-.68,35.51-.16,5.92-.3,11.84-.55,17.76h-1.06Z"/><rect class="cls-15" x="602.86" y="37.49" width="108.42" height="144.31"/><rect class="cls-8" x="629.59" y="101.43" width="46.19" height="25"/><path class="cls-6" d="M683.66,64.94l-4.76,47.21c-2.74,1.01-5.9,2.21-8.81,2.48-2.91.27-6.01-.29-8.26-2.15v-47.54h21.83Z"/><path class="cls-6" d="M622.21,64.94l4.76,46.18c2.74.98,5.9,2.16,8.81,2.42,2.91.26,6.01-.29,8.26-2.1v-46.5s-21.83,0-21.83,0Z"/><path class="cls-21" d="M663.41,64.94h-21.8l1.25,47.17s8.1,7.04,18.96.37l1.58-47.54Z"/><path class="cls-6" d="M683.66,172.74l-4.76-47.21c-2.74-1.01-5.9-2.21-8.81-2.48-2.91-.27-6.01.29-8.26,2.15v47.54h21.83Z"/><path class="cls-6" d="M622.21,172.74l4.76-46.18c2.74-.98,5.9-2.16,8.81-2.42,2.91-.26,6.01.29,8.26,2.1v46.5s-21.83,0-21.83,0Z"/><path class="cls-21" d="M663.41,172.74h-21.8l1.25-47.17s8.1-7.04,18.96-.37l1.58,47.54Z"/><polygon class="cls-21" points="683.66 64.94 652.51 53.61 622.21 64.94 683.66 64.94"/><path class="cls-8" d="M681.6,80.62c2.01-1.71,4.21-3.21,6.54-4.45,1.38-.73,2.85-1.39,4.41-1.43.69-.02,1.41.1,2,.46.83.51,1.31,1.44,1.58,2.37.98,3.41-.37,7.03-2,10.18-1.63,3.15-3.6,6.27-3.94,9.8-.22,2.32.27,4.72-.43,6.95-.42,1.35-2.28,2.2-2.48,3.61-.11.75.28,1.47.72,2.09.57.8,1.23,1.54,1.98,2.18.23.2.48.39.77.44.44.08.87-.17,1.22-.44,1.71-1.3,2.81-3.22,3.8-5.13,2.56-4.92,4.68-10.04,6.79-15.16,1.17-2.84,1.49-5.19,2.24-8.17.35-1.39.67-2.81.63-4.24-.11-3.61-2.48-6.7-4.75-9.51-1.57-1.94-3.28-3.99-5.67-4.71-1.08-.33-2.22-.36-3.35-.38-3.07-.06-6.2.12-9.25-.14.26,5.1-.3,10.6-.82,15.68Z"/><polygon class="cls-26" points="663.41 64.94 652.51 53.61 641.62 64.94 663.41 64.94"/><polygon class="cls-8" points="625.09 92.82 608.9 67.41 622.21 64.94 625.09 92.82"/><path class="cls-21" d="M633.61,130.88c-.66-.22-1.36.31-1.68.93-.51,1.01-.34,2.32.41,3.16.75.84,2.04,1.15,3.1.75.79-.3,1.43-.98,1.65-1.8s0-1.74-.59-2.35c-.72-.75-1.85-.93-2.89-.93"/><path class="cls-8" d="M658.81,46.29c.07-.33.15-.66.11-.99-.07-.74-.67-1.33-1.31-1.71-1.15-.68-2.53-.85-3.86-.96-1.73-.14-3.76-.05-4.77,1.36-.95,1.31-.54,3.12-.2,4.71.29,1.34.54,5.97,1.17,6.52.38.34,1.1.29,1.58.3.92.03,1.84.04,2.76.04,1.05,0,2.05.18,2.59-.86.58-1.12.66-2.73.93-3.95.33-1.49.66-2.97,1-4.46Z"/><rect class="cls-24" x="429.99" y="109.64" width="161.85" height="114.01"/><rect class="cls-15" x="61.26" y="174.7" width="179.34" height="237.34"/><path class="cls-26" d="M61.26,174.7v237.34h179.34v-237.34H61.26ZM76.15,189.9h149.56v206.92H76.15v-206.92Z"/><path class="cls-15" d="M69.32,412.03h-8.05v-237.34h7.86c1.34,11.17-1.57,27.14-1.43,31.89.2,6.54,1.91,13.01,1.54,19.53-.18,3.34-.91,6.65-1.25,9.98-.77,7.35-.64,14.77-.47,22.14.18,7.8-.7,15.8-.34,23.53.35,7.19,1.39,14.16.53,21.37-.6,5.04-1.83,10.02-1.83,15.09,0,3,.42,6,.73,8.99.38,3.55.61,7.12.8,10.69.57,11.3.2,22.52-.03,33.84-.15,7.32-.3,14.67.51,21.94.37,3.21,1.18,7.31,1.52,11.42.19,2.35.22,4.72-.09,6.92Z"/><path class="cls-15" d="M240.6,174.7v237.34h-5.82c-.22-1.8-.32-3.63-.42-5.43-.01-.22-.03-.42-.03-.64-.64-11.51-.18-22.85-.42-34.35-.23-11.32-.6-22.54-.03-33.84.19-3.57.42-7.15.8-10.69.31-2.99.73-5.98.73-8.99,0-5.08-1.23-10.06-1.83-15.09-.87-7.21.18-14.19.53-21.37.37-7.73-.51-15.73-.34-23.53.16-7.38.3-14.79-.46-22.14-.35-3.34-1.08-6.63-1.26-9.98-.37-6.52,1.34-12.99,1.54-19.53.14-4.72-2.75-20.59-1.45-31.75h8.45Z"/><path class="cls-15" d="M240.6,405.05v6.98H61.26v-7.27c1.49-.08,2.98-.11,4.48-.03,1.23.07,2.45.22,3.67.38,2.11.3,4.2.66,6.31.88,7.36.77,14.77.62,22.14.47,7.8-.18,15.8.7,23.54.32,7.19-.35,14.14-1.39,21.36-.53,5.04.61,10.02,1.83,15.09,1.84,3,0,6-.42,8.99-.74,3.56-.38,7.12-.61,10.69-.79,11.3-.58,22.52-.22,33.84.03,7.32.15,14.67.3,21.94-.51.32-.04.66-.08,1.02-.12,1.88-.26,4.02-.61,6.27-.92Z"/><path class="cls-15" d="M240.6,181.68v-6.98H61.26v7.27c1.49.08,2.98.11,4.48.03,1.23-.07,2.45-.22,3.67-.38,2.11-.3,4.2-.66,6.31-.88,7.36-.77,14.77-.62,22.14-.47,7.8.18,15.8-.7,23.54-.32,7.19.35,14.14,1.39,21.36.53,5.04-.61,10.02-1.83,15.09-1.84,3,0,6,.42,8.99.74,3.56.38,7.12.61,10.69.79,11.3.58,22.52.22,33.84-.03,7.32-.15,14.67-.3,21.94.51.32.04.66.08,1.02.12,1.88.26,4.02.61,6.27.92Z"/><rect class="cls-26" x="74.57" y="293.1" width="152.73" height="12.14"/><path class="cls-18" d="M236.37,389.5c1.22,3.67,1.23,7.51.86,11.31-.14,1.26-.34,2.52-.73,3.78h-.68c-1.35-4.9-1.58-10.16-.16-15.08,0,0,.71,0,.71,0h0Z"/><path class="cls-18" d="M236.2,363.1c1.47,3.28,1.32,7.06.04,10.37,0,0-.68,0-.68,0-1.32-3.3-1.51-7.08-.07-10.37,0,0,.71,0,.71,0h0Z"/><path class="cls-18" d="M236.13,324.44c1.46,4.26,1.29,8.92,0,13.2,0,0-.68,0-.68,0-1.31-4.28-1.48-8.94-.02-13.2,0,0,.71,0,.71,0h0Z"/><path class="cls-18" d="M236.18,287.98c1.45,3.28,1.27,7.04-.04,10.33,0,0-.68,0-.68,0-1.29-3.3-1.46-7.07,0-10.33,0,0,.71,0,.71,0h0Z"/><path class="cls-18" d="M236.27,260.04c1.45,3.9,1.26,8.22-.06,12.12,0,0-.68,0-.68,0-1.29-3.91-1.45-8.24.03-12.13,0,0,.71,0,.71,0h0Z"/><path class="cls-18" d="M236.39,233.54c1.44,3.31,1.25,7.1-.07,10.41,0,0-.68,0-.68,0-1.28-3.33-1.44-7.12.04-10.42,0,0,.71,0,.71,0h0Z"/><path class="cls-18" d="M236.56,206.17c1.44,3.63,1.24,7.71-.09,11.34,0,0-.68,0-.68,0-1.28-3.65-1.42-7.73.06-11.34,0,0,.71,0,.71,0h0Z"/><path class="cls-18" d="M236.56,177.51c1.46,4.32,1.29,9.05-.02,13.39,0,0-.68,0-.68,0-1.3-4.34-1.48-9.07-.02-13.39,0,0,.71,0,.71,0h0Z"/><path class="cls-18" d="M65.76,362.12c1.47,3.28,1.32,7.06.04,10.37,0,0-.68,0-.68,0-1.32-3.3-1.51-7.08-.07-10.37,0,0,.71,0,.71,0h0Z"/><path class="cls-18" d="M65.55,328.64c1.46,4.26,1.29,8.92,0,13.2,0,0-.68,0-.68,0-1.31-4.28-1.48-8.94-.02-13.2,0,0,.71,0,.71,0h0Z"/><path class="cls-18" d="M65.6,292.19c1.45,3.28,1.27,7.04-.04,10.33,0,0-.68,0-.68,0-1.29-3.3-1.46-7.06,0-10.33,0,0,.71,0,.71,0h0Z"/><path class="cls-18" d="M65.99,391.65c1.45,3.28,1.27,7.04-.04,10.33,0,0-.68,0-.68,0-1.29-3.3-1.46-7.07,0-10.33,0,0,.71,0,.71,0h0Z"/><path class="cls-18" d="M65.69,264.24c1.45,3.9,1.26,8.22-.06,12.12,0,0-.68,0-.68,0-1.29-3.91-1.45-8.24.03-12.13,0,0,.71,0,.71,0h0Z"/><path class="cls-18" d="M65.81,237.74c1.44,3.31,1.25,7.1-.07,10.41,0,0-.68,0-.68,0-1.28-3.33-1.44-7.12.04-10.42,0,0,.71,0,.71,0h0Z"/><path class="cls-18" d="M65.98,210.38c1.44,3.63,1.24,7.71-.09,11.34,0,0-.68,0-.68,0-1.28-3.65-1.42-7.73.06-11.34,0,0,.71,0,.71,0h0Z"/><path class="cls-18" d="M65.98,181.71c1.46,4.32,1.29,9.05-.02,13.39,0,0-.68,0-.68,0-1.3-4.34-1.48-9.07-.02-13.39,0,0,.71,0,.71,0h0Z"/><path class="cls-18" d="M212.57,177.37c4.26-1.46,8.92-1.29,13.2,0,0,0,0,.68,0,.68-4.28,1.31-8.94,1.48-13.2.02,0,0,0-.71,0-.71h0Z"/><path class="cls-18" d="M176.11,177.31c3.28-1.45,7.04-1.27,10.33.04,0,0,0,.68,0,.68-3.3,1.29-7.07,1.46-10.33,0,0,0,0-.71,0-.71h0Z"/><path class="cls-18" d="M148.16,177.23c3.9-1.45,8.22-1.26,12.12.06,0,0,0,.68,0,.68-3.91,1.29-8.24,1.45-12.13-.03,0,0,0-.71,0-.71h0Z"/><path class="cls-18" d="M121.66,177.11c3.31-1.44,7.1-1.25,10.41.07,0,0,0,.68,0,.68-3.33,1.28-7.12,1.44-10.41-.04,0,0,0-.71,0-.71h0Z"/><path class="cls-18" d="M94.3,176.94c3.63-1.44,7.71-1.24,11.34.09,0,0,0,.68,0,.68-3.65,1.28-7.73,1.42-11.34-.06,0,0,0-.71,0-.71h0Z"/><path class="cls-18" d="M195.31,408.29c3.28-1.45,7.04-1.27,10.33.04,0,0,0,.68,0,.68-3.3,1.29-7.07,1.46-10.33,0,0,0,0-.71,0-.71h0Z"/><path class="cls-18" d="M219.05,408.31c3.28-1.45,7.04-1.27,10.33.04,0,0,0,.68,0,.68-3.3,1.29-7.06,1.46-10.33,0,0,0,0-.71,0-.71h0Z"/><path class="cls-18" d="M167.36,408.21c3.9-1.45,8.22-1.26,12.12.06,0,0,0,.68,0,.68-3.91,1.29-8.24,1.45-12.13-.03,0,0,0-.71,0-.71h0Z"/><path class="cls-18" d="M129.45,407.98c3.31-1.44,7.1-1.25,10.41.07,0,0,0,.68,0,.68-3.33,1.28-7.12,1.44-10.41-.04,0,0,0-.71,0-.71h0Z"/><path class="cls-18" d="M99.87,407.77c3.63-1.44,7.71-1.24,11.34.09,0,0,0,.68,0,.68-3.65,1.28-7.73,1.42-11.34-.06,0,0,0-.71,0-.71h0Z"/><path class="cls-18" d="M65.64,408.29c3.63-1.44,7.71-1.24,11.34.09,0,0,0,.68,0,.68-3.65,1.28-7.73,1.42-11.34-.06,0,0,0-.71,0-.71h0Z"/><path class="cls-18" d="M65.64,176.94c4.32-1.46,9.05-1.29,13.39.01,0,0,0,.68,0,.68-4.34,1.3-9.07,1.48-13.39.02,0,0,0-.71,0-.71h0Z"/><path class="cls-5" d="M227.3,301.27c-25.44,1.24-50.9,1.51-76.36,1.48-25.45-.07-50.91-.37-76.36-1.51v-1.02c38.18-1.61,76.36-1.78,114.55-1.23,12.73.19,25.45.6,38.18,1.21v1.06h0Z"/><rect class="cls-15" x="178.73" y="269.56" width="120.03" height="158.85"/><path class="cls-26" d="M178.73,269.56v158.85h120.03v-158.85h-120.03ZM188.7,279.73h100.1v138.49h-100.1v-138.49Z"/><path class="cls-15" d="M184.12,428.4h-5.39v-158.85h5.26c.9,7.47-1.05,18.16-.96,21.34.14,4.38,1.28,8.71,1.03,13.07-.12,2.24-.61,4.45-.83,6.68-.52,4.92-.43,9.88-.32,14.82.12,5.22-.47,10.57-.23,15.75.24,4.81.93,9.48.35,14.3-.4,3.37-1.22,6.7-1.22,10.1,0,2.01.28,4.01.49,6.02.25,2.37.41,4.77.53,7.16.38,7.56.14,15.07-.02,22.65-.1,4.9-.2,9.82.34,14.69.24,2.15.79,4.89,1.01,7.65.13,1.58.14,3.16-.06,4.63Z"/><path class="cls-15" d="M298.76,269.56v158.85h-3.9c-.14-1.2-.22-2.43-.28-3.63,0-.14-.02-.28-.02-.43-.43-7.7-.12-15.29-.28-22.99-.15-7.57-.4-15.08-.02-22.65.13-2.39.28-4.78.53-7.16.21-2,.49-4,.49-6.02,0-3.4-.82-6.73-1.22-10.1-.58-4.83.12-9.49.35-14.3.24-5.17-.34-10.53-.23-15.75.11-4.94.2-9.9-.31-14.82-.24-2.24-.72-4.44-.84-6.68-.24-4.37.9-8.7,1.03-13.07.09-3.16-1.84-13.78-.97-21.25h5.65Z"/><path class="cls-15" d="M298.76,423.73v4.67h-120.03v-4.87c1-.05,1.99-.07,3-.02.82.05,1.64.15,2.46.25,1.41.2,2.81.44,4.22.59,4.93.52,9.88.42,14.82.32,5.22-.12,10.57.47,15.75.22,4.81-.24,9.47-.93,14.3-.35,3.37.41,6.7,1.22,10.1,1.23,2.01,0,4.01-.28,6.02-.5,2.38-.25,4.77-.41,7.16-.53,7.56-.39,15.07-.14,22.65.02,4.9.1,9.82.2,14.69-.34.22-.03.44-.05.68-.08,1.26-.17,2.69-.41,4.19-.62Z"/><path class="cls-15" d="M298.76,274.23v-4.67h-120.03v4.87c1,.05,1.99.07,3,.02.82-.05,1.64-.15,2.46-.25,1.41-.2,2.81-.44,4.22-.59,4.93-.52,9.88-.42,14.82-.32,5.22.12,10.57-.47,15.75-.22,4.81.24,9.47.93,14.3.35,3.37-.41,6.7-1.22,10.1-1.23,2.01,0,4.01.28,6.02.5,2.38.25,4.77.41,7.16.53,7.56.39,15.07.14,22.65-.02,4.9-.1,9.82-.2,14.69.34.22.03.44.05.68.08,1.26.17,2.69.41,4.19.62Z"/><rect class="cls-26" x="187.64" y="348.8" width="102.22" height="8.12"/><path class="cls-18" d="M295.93,413.32c1.01,3.29.93,6.75.09,10.1,0,0-.45,0-.45,0-.9-3.33-1.06-6.79-.11-10.1,0,0,.47,0,.47,0h0Z"/><path class="cls-18" d="M295.82,395.65c.98,2.22.89,4.66.03,6.94,0,0-.45,0-.45,0-.88-2.27-1.01-4.71-.05-6.94,0,0,.47,0,.47,0h0Z"/><path class="cls-18" d="M295.77,369.78c.98,2.87.86,5.92,0,8.84,0,0-.45,0-.45,0-.87-2.91-.99-5.96-.01-8.84,0,0,.47,0,.47,0h0Z"/><path class="cls-18" d="M295.81,345.38c.97,2.22.85,4.65-.03,6.92,0,0-.45,0-.45,0-.87-2.27-.97-4.7,0-6.92,0,0,.47,0,.47,0h0Z"/><path class="cls-18" d="M295.86,326.67c.97,2.63.84,5.45-.04,8.12,0,0-.45,0-.45,0-.86-2.67-.97-5.49.02-8.12,0,0,.47,0,.47,0h0Z"/><path class="cls-18" d="M295.95,308.94c.96,2.24.84,4.69-.05,6.97,0,0-.45,0-.45,0-.86-2.29-.96-4.74.02-6.97,0,0,.47,0,.47,0h0Z"/><path class="cls-18" d="M296.06,290.62c.96,2.46.83,5.11-.06,7.59,0,0-.45,0-.45,0-.85-2.5-.95-5.15.04-7.59,0,0,.47,0,.47,0h0Z"/><path class="cls-18" d="M296.06,271.44c.98,2.92.86,6.01-.01,8.96,0,0-.45,0-.45,0-.87-2.95-.99-6.05-.01-8.96,0,0,.47,0,.47,0h0Z"/><path class="cls-18" d="M181.74,395c.98,2.22.89,4.66.03,6.94,0,0-.45,0-.45,0-.88-2.27-1.01-4.71-.05-6.94,0,0,.47,0,.47,0h0Z"/><path class="cls-18" d="M181.6,372.59c.98,2.87.86,5.92,0,8.84,0,0-.45,0-.45,0-.87-2.91-.99-5.96-.01-8.84,0,0,.47,0,.47,0h0Z"/><path class="cls-18" d="M181.64,348.19c.97,2.22.85,4.65-.03,6.92,0,0-.45,0-.45,0-.87-2.27-.97-4.7,0-6.92,0,0,.47,0,.47,0h0Z"/><path class="cls-18" d="M181.89,414.76c.97,2.22.85,4.65-.03,6.92,0,0-.45,0-.45,0-.87-2.27-.97-4.7,0-6.92,0,0,.47,0,.47,0h0Z"/><path class="cls-18" d="M181.69,329.49c.97,2.63.84,5.45-.04,8.12,0,0-.45,0-.45,0-.86-2.67-.97-5.49.02-8.12,0,0,.47,0,.47,0h0Z"/><path class="cls-18" d="M181.77,311.75c.96,2.24.84,4.69-.05,6.97,0,0-.45,0-.45,0-.86-2.29-.96-4.74.02-6.97,0,0,.47,0,.47,0h0Z"/><path class="cls-18" d="M181.89,293.43c.96,2.46.83,5.11-.06,7.59,0,0-.45,0-.45,0-.85-2.5-.95-5.15.04-7.59,0,0,.47,0,.47,0h0Z"/><path class="cls-18" d="M181.89,274.25c.98,2.92.86,6.01-.01,8.96,0,0-.45,0-.45,0-.87-2.95-.99-6.05-.01-8.96,0,0,.47,0,.47,0h0Z"/><path class="cls-18" d="M280,271.34c2.87-.98,5.92-.86,8.84,0,0,0,0,.45,0,.45-2.91.87-5.96.99-8.84.01,0,0,0-.47,0-.47h0Z"/><path class="cls-18" d="M255.6,271.31c2.22-.97,4.65-.85,6.92.03,0,0,0,.45,0,.45-2.27.87-4.7.97-6.92,0,0,0,0-.47,0-.47h0Z"/><path class="cls-18" d="M236.89,271.25c2.63-.97,5.45-.84,8.12.04,0,0,0,.45,0,.45-2.67.86-5.49.97-8.12-.02,0,0,0-.47,0-.47h0Z"/><path class="cls-18" d="M219.16,271.17c2.24-.96,4.69-.84,6.97.05,0,0,0,.45,0,.45-2.29.86-4.74.96-6.97-.02,0,0,0-.47,0-.47h0Z"/><path class="cls-18" d="M200.84,271.06c2.46-.96,5.11-.83,7.59.06,0,0,0,.45,0,.45-2.5.85-5.15.95-7.59-.04,0,0,0-.47,0-.47h0Z"/><path class="cls-18" d="M268.45,425.9c2.22-.97,4.65-.85,6.92.03,0,0,0,.45,0,.45-2.27.87-4.7.97-6.92,0,0,0,0-.47,0-.47h0Z"/><path class="cls-18" d="M284.34,425.91c2.22-.97,4.65-.85,6.92.03,0,0,0,.45,0,.45-2.27.87-4.7.97-6.92,0,0,0,0-.47,0-.47h0Z"/><path class="cls-18" d="M249.74,425.84c2.63-.97,5.45-.84,8.12.04,0,0,0,.45,0,.45-2.67.86-5.49.97-8.12-.02,0,0,0-.47,0-.47h0Z"/><path class="cls-18" d="M224.37,425.69c2.24-.96,4.69-.84,6.97.05,0,0,0,.45,0,.45-2.29.86-4.74.96-6.97-.02,0,0,0-.47,0-.47h0Z"/><path class="cls-18" d="M204.57,425.55c2.46-.96,5.11-.83,7.59.06,0,0,0,.45,0,.45-2.5.85-5.15.95-7.59-.04,0,0,0-.47,0-.47h0Z"/><path class="cls-18" d="M181.66,425.9c2.46-.96,5.11-.83,7.59.06,0,0,0,.45,0,.45-2.5.85-5.15.95-7.59-.04,0,0,0-.47,0-.47h0Z"/><path class="cls-18" d="M181.66,271.06c2.92-.98,6.01-.86,8.96,0,0,0,0,.45,0,.45-2.95.87-6.05.99-8.96.01,0,0,0-.47,0-.47h0Z"/><path class="cls-5" d="M289.86,354.27c-17.03.83-34.07,1.01-51.11.99-17.04-.05-34.07-.25-51.11-1.01v-.68c25.55-1.07,51.1-1.19,76.67-.83,8.52.13,17.04.4,25.56.81v.71h0Z"/><circle class="cls-17" cx="704.7" cy="312.58" r="5.68"/><circle class="cls-17" cx="743.97" cy="312.58" r="5.68"/><rect class="cls-8" x="126.24" y="42.61" width="93.02" height="115.07" transform="translate(272.9 -72.61) rotate(90)"/><g class="cls-12"><path class="cls-8" d="M224.47,165.24c-16.38,16.49-39.08,26.7-64.18,26.7v-90.5l64.18,63.8Z"/><path class="cls-16" d="M250.8,101.44c0,24.89-10.06,47.44-26.33,63.81l-64.18-63.8h0s90.51-.01,90.51-.01Z"/><path class="cls-14" d="M250.8,101.44h-90.51s63.81-64.19,63.81-64.19c16.49,16.39,26.7,39.1,26.7,64.19Z"/><path class="cls-26" d="M224.1,37.24l-63.81,64.18V10.92c24.89,0,47.44,10.06,63.81,26.32Z"/><path class="cls-17" d="M160.29,10.92v90.51h-.01l-64.18-63.81c16.39-16.49,39.1-26.7,64.19-26.7Z"/><path class="cls-5" d="M160.28,101.44h-90.5c0-24.89,10.06-47.44,26.32-63.81l64.18,63.81Z"/><path class="cls-4" d="M160.28,101.44l-63.8,64.18c-16.49-16.38-26.7-39.08-26.7-64.18h90.5Z"/><path class="cls-29" d="M160.29,101.44v90.51c-24.89,0-47.44-10.06-63.81-26.33l63.8-64.18h.01Z"/><line class="cls-1" x1="96.48" y1="165.61" x2="96.47" y2="165.63"/><line class="cls-1" x1="224.48" y1="165.26" x2="224.47" y2="165.24"/></g><polygon class="cls-5" points="973.51 380.97 984.3 464.45 974.91 465.98 959.13 383.3 973.51 380.97"/><polygon class="cls-5" points="866.28 368.95 860.55 452.94 851.04 452.6 851.73 368.43 866.28 368.95"/><polygon class="cls-5" points="776.84 383.65 774.13 467.79 764.62 467.79 762.28 383.65 776.84 383.65"/><polygon class="cls-5" points="908.57 393.97 905.86 478.11 896.35 478.11 894.01 393.97 908.57 393.97"/><path class="cls-27" d="M860.59,208.55c-1.68,1.48-3.07,3.53-4.09,6.36-2.36,6.55-2.24,14.79-3.09,21.7-2.25,18.33-4.51,36.66-6.76,55-2.01,16.31-4.01,32.62-6.02,48.93-10.22,2.37-20.45,4.73-30.67,7.1-8.1,1.88-16.21,3.75-24.31,5.63-7.73,1.79-16.86,2.45-20.98,10.32-1.1,2.1-4.63,23.92-2.43,24.14,0,0,145.9,14.52,145.9,14.52l65.33-18.58c1.95-21.85,3.9-43.7,5.85-65.55,1.81-20.32,3.64-40.64,5.46-60.95.65-7.28,1.3-14.56,1.94-21.84.55-6.23,1.94-13.53.62-19.71-1.88-8.79-7.14-9.82-14.79-10.2-7.63-.39-15.25-.6-22.95-.6h-69.12c-7.47,0-14.92-.63-19.9,3.76Z"/><path class="cls-5" d="M946.63,350.4c-15.83,4.84-29.79,14.99-38.85,28.85-3.01,4.59-5.45,9.57-7.36,14.85,0,0-.99-.24-.99-.24,2.49-17.24,14.81-32.48,30.39-39.96,5.23-2.5,10.89-4.14,16.62-4.54,0,0,.2,1.04.2,1.04h0Z"/><path class="cls-15" d="M846.51,341.16c15.2-.02,30.36.8,45.52,1.81,7.57.53,15.14,1.1,22.7,1.79,7.56.69,15.12,1.44,22.66,2.43l-.02.24c-22.79-.19-45.53-1.57-68.23-3.5-7.56-.67-15.12-1.45-22.66-2.48l.02-.29h0Z"/><path class="cls-5" d="M977.33,212.34c-12.79,10.2-15.04,27.56-17.28,42.78-2.27,15.87-3.83,31.83-4.8,47.84-.62,10.69-.94,21.39-1.16,32.11,0,0-1.02.04-1.02.04-.99-10.72-1.3-21.5-1.13-32.28.26-16.17,1.71-32.32,4.2-48.3,2.16-13.24,4.8-27.63,14.18-37.89,1.92-2,4.07-3.75,6.41-5.18l.6.88h0Z"/><path class="cls-8" d="M661.77,256.71l-15.98-75.78c-.44-2.07,1.14-4.02,3.26-4.02h110.18c2.12,0,3.96,1.49,4.39,3.56l16.08,76.24h-117.93Z"/><path class="cls-29" d="M661.77,256.71h147.84c3.63,0,6.57,2.94,6.57,6.57v6.18h-154.4v-12.75h0Z"/><rect class="cls-27" x="260.63" y="37.49" width="145.82" height="140.24"/><polygon class="cls-26" points="393.26 59.28 391.6 70.71 390.85 75.88 388.99 88.69 343.59 401.88 325.43 401.88 370.84 88.69 373.44 70.71 375.1 59.28 393.26 59.28"/><polygon class="cls-26" points="517.51 401.88 499.28 401.88 444.89 88.69 441.77 70.71 439.78 59.28 458.02 59.28 460.01 70.71 463.13 88.69 517.51 401.88"/><rect class="cls-27" x="390.85" y="70.71" width="17.98" height="331.17"/><rect class="cls-15" x="344.7" y="129.39" width="153.11" height="153.11" transform="translate(842.51 411.9) rotate(-180)"/><g class="cls-10"><path class="cls-8" d="M406.77,156.28c-.53-1.37-1.17-2.65-2.3-3.51-4.49-3.42-11.97,2.81-16.26-.86-1.85-1.58-2.09-4.28-2.74-6.63-2.18-7.81-11-13.11-18.92-11.36-1.5.33-3.02.89-4.54.64-4.25-.68-5.2-6.48-8.51-9.24-2.82-2.34-6.89-2.13-10.54-1.79-4.47.41-8.95.83-13.42,1.24-.96.09-1.98.2-2.76.77-.73.54-1.13,1.4-1.5,2.22-3.28,7.21-7.49,12.62-8.06,20.61-.57,8.03-.76,16.37-.76,24.41-1.23,11.68-2.41,30.84,10.13,37.34,3.57,1.85,7.74,1.99,11.76,2.1,22.42.59,44.84,1.18,67.26,1.76,8.18.21,18.21.03,24.99-5.25,6.06-4.72,9.98-16.95,1.71-21.69-1-.57-2.09-.97-3.02-1.65-3.47-2.57-3.09-7.75-2.66-12.04s-.18-9.75-4.24-11.2c-3.95-1.41-8.8,2.12-12.31-.18-1.87-1.22-2.46-3.57-3.3-5.72Z"/><path class="cls-24" d="M388.2,208.21c4.1-10.34,16.69-18.14,26.58-13.04,5.75,2.96,10.24,9.77,16.67,9,7.17-.86,9.4-10.01,14.26-15.35,6.39-7.01,17.72-7.29,24.66-13.77,5.24-4.89,7.01-12.37,10.71-18.52s11.72-11.26,17.77-7.42c6.51-3.85,11.07-12.24,18.63-12.05,8.72.22,12.22,11.24,13.02,19.93,2,21.65,2.21,43.45.65,65.13-.31,4.28-.78,8.79-3.33,12.24-4.24,5.72-12.4,6.39-19.51,6.52-28.65.55-57.3.77-85.96.71-25.04-.06-47.35-.1-34.15-33.39Z"/><path class="cls-16" d="M448.34,238.19c0-3.65.01-7.35-.99-10.86-2.22-7.76-8.89-13.29-15.21-18.3-2.61-2.07-5.36-4.21-8.64-4.8-8.2-1.47-14.66,7.14-16.94,15.15s-2.96,17.14-8.89,22.98c-6.6-8.27-8.26-19.28-10.56-29.61-2.3-10.33-6.1-21.33-15.05-26.98-8.95-5.65-23.92-1.64-25,8.88-4.7-13.73-9.39-27.46-14.09-41.2-.57-1.68-1.42-3.61-3.16-3.98-1.2-.26-2.4.36-3.48.95-10.37,5.7-21.25,11.89-27.13,22.16-5.53,9.65-5.74,21.34-5.7,32.46.13,35.65,1.33,71.29,2.53,106.92.02.46,112.4-2.72,122.59-3.98,39.44-4.86,29.63-36.64,29.72-69.8Z"/><path class="cls-8" d="M517.25,175.92c-4.43-1.56-9.86-1.67-13.3,1.53-2.15,1.99-3.15,4.91-4.04,7.7-4.92,15.47-9.02,31.2-12.26,47.1-7.94-1.69-12.04-10.19-15.97-17.29s-11.09-14.57-18.84-12.16c-6.8,2.12-9.11,10.31-11.29,17.09-2.18,6.78-7.5,14.5-14.45,12.95-3.2-.72-5.73-3.35-8.94-4-8.26-1.68-12.68,9.29-13.74,17.66-3.61,28.46-7.1,58.15,2.41,85.22.72,2.04,1.61,4.19,3.41,5.4,3.6,2.41,8.3-.15,12.05-2.32,20.83-12.05,45.24-11.57,68.35-14.82,30.49-4.29,40.06-9.69,44.66-40.74,4.03-27.18,16.29-91.25-18.05-103.32Z"/></g><polygon class="cls-25" points="344.7 282.51 334.69 276.85 334.69 124.04 344.7 129.39 344.7 282.51"/><polygon class="cls-25" points="344.7 129.39 497.81 129.39 489.99 123.41 334.69 124.04 344.7 129.39"/><rect class="cls-26" x="412.48" y="190.43" width="17.97" height="192.08" transform="translate(707.94 -135) rotate(90)"/><polygon class="cls-26" points="463.13 88.69 370.84 88.69 373.44 70.71 460.01 70.71 463.13 88.69"/><polygon class="cls-8" points="668.06 249.8 656.07 188.06 729.98 188.06 741.97 249.8 668.06 249.8"/><g class="cls-11"><path class="cls-8" d="M740.62,262.14c-8.4,10.94-21.66,17.72-37.78,17.72l-11.67-60.07,49.45,42.35Z"/><path class="cls-16" d="M749.31,219.79c3.21,16.52-.35,31.49-8.69,42.36l-49.45-42.35h0s58.14,0,58.14,0Z"/><path class="cls-14" d="M749.31,219.79h-58.14s32.71-42.61,32.71-42.61c12.7,10.88,22.19,25.95,25.43,42.61Z"/><path class="cls-26" d="M723.89,177.18l-32.71,42.6-11.67-60.07c15.99,0,31.77,6.68,44.38,17.47Z"/><path class="cls-17" d="M679.51,159.71l11.67,60.08h0l-49.45-42.36c8.4-10.94,21.67-17.72,37.79-17.72Z"/><path class="cls-5" d="M691.17,219.79h-58.13c-3.21-16.52.35-31.49,8.68-42.36l49.45,42.36Z"/><path class="cls-4" d="M691.17,219.79l-32.71,42.6c-12.7-10.87-22.19-25.94-25.42-42.6h58.13Z"/><path class="cls-29" d="M691.18,219.79l11.67,60.08c-15.99,0-31.77-6.68-44.38-17.48l32.71-42.6h0Z"/><line class="cls-1" x1="658.46" y1="262.39" x2="658.46" y2="262.4"/><line class="cls-1" x1="740.63" y1="262.15" x2="740.62" y2="262.14"/></g><polygon class="cls-26" points="798.61 364.54 877.6 380.62 958.39 360.74 958.39 258.39 877.6 274.18 796.8 262.06 798.61 364.54"/><polygon class="cls-19" points="866.78 283.7 866.78 328.37 826.92 321.62 826.92 276.44 866.78 283.7"/><polygon class="cls-17" points="958.39 258.39 877.6 247.63 796.8 262.06 877.6 278.11 958.39 258.39"/><path class="cls-5" d="M877.95,281.22c.83,16.56,1.01,33.13.99,49.7-.05,16.57-.25,33.13-1,49.7h-.68c-1.07-24.85-1.19-49.7-.82-74.55.13-8.28.4-16.57.81-24.85h.71Z"/><path class="cls-5" d="M915.45,252.75c-12.97,3.73-26.08,6.83-39.25,9.73-13.16,2.88-26.36,5.6-39.68,7.79,0,0-.15-.66-.15-.66,19.5-5.43,39.2-9.92,59.01-13.95,6.6-1.34,13.24-2.53,19.91-3.6,0,0,.15.69.15.69h0Z"/><path class="cls-8" d="M836.68,118.19c-.74-3.87-1.56-7.85-3.78-11.11-1.86-2.75-4.27-5.92-7.59-5.92l-9.69.12-2.16,54.27c4.02,0,8.37,0,11.81-2.07,3.27-1.96,5.4-5.32,7.42-8.56.89-1.44,1.79-2.89,2.41-4.47.57-1.46.89-3,1.21-4.53.71-3.43,1.44-6.9,1.35-10.4-.06-2.47-.51-4.9-.98-7.33ZM827.75,129.48c-.17,1.04-.41,2.07-.65,3.09-.23,1-.47,2-.79,2.98-.66,2.04-1.44,4.42-2.78,6.1l.49-29.87c1.94,0,2.56,2.84,2.99,4.73.97,4.25,1.44,8.66.74,12.96Z"/><polygon class="cls-17" points="815.28 166.24 815.28 158.09 804.83 158.09 804.83 113.65 795.89 113.65 795.89 166.24 815.28 166.24"/><path class="cls-3" d="M789.18,135.43c-.94-2.77-2.82-5.36-5.53-6.48-3.13-1.3-6.89-.38-9.5,1.78-2.62,2.15-4.18,5.36-4.95,8.66-2.29,9.78-2,20.21-1.15,30.23.19,2.28-.07,4.76.86,6.87.94,2.12,2.25,4.43,4.17,5.79,1.51,1.07,3.38,1.49,5.18,1.88,1.41.31,3.05.66,4.34-.04s2.47-1.81,3.57-2.85c.41-.39.82-.78,1.18-1.22.83-1.02,1.2-2.08,1.6-3.28.46-1.4.97-2.78,1.28-4.22.85-4.07,1.02-8.24,1.12-12.38.2-8.26.52-16.82-2.17-24.74ZM781.84,167.53c-.12,2.3-.25,4.66-1.15,6.79-.22.52-.58,1.08-1.14,1.12-.66.04-1.1-.67-1.34-1.27-1.54-3.93-1.58-8.26-1.6-12.48,0-4.83-.13-9.65,0-14.47.06-2.27.41-4.88,1.28-7,.23-.54.52-1.1,1.02-1.42,2.07-1.3,3.12,2.34,3.21,3.69.59,8.34.16,16.7-.28,25.05Z"/><path class="cls-27" d="M765.13,156.23h-8.57c-.11-.78-.43-1.47-.54-2.26-.21-1.5-.51-3.18-1.75-4.05-.2-.14-.43-.26-.67-.21-.18.03-.33.15-.45.27-.6.61-.77,1.54-.63,2.38s.55,1.61,1,2.33c1.17,1.9,2.61,3.62,3.95,5.41,4.3,5.71,7.68,12.31,8.46,19.42.37,3.41.1,7.01-1.62,9.97-.84,1.45-1.99,2.7-3.21,3.84-.96.9-2.02,1.76-3.28,2.12-1.01.29-2.08.24-3.12.1-4.14-.57-8.29-2.92-9.86-6.8-.39-.98-.61-2.01-.83-3.04-.63-3-1.27-5.99-1.9-8.99-.25-1.19-.48-2.53.19-3.54h8.79c-.11,3.6.77,7.22,2.28,10.48.39.83,1.15,1.79,2.01,1.48.6-.21.84-.92.91-1.55.26-2.31-.4-5.07-1.13-7.27-.81-2.46-2.18-4.71-3.67-6.81-1.21-1.7-2.52-3.34-3.75-5.03-3.24-4.47-5.29-9.88-4.51-15.48.27-1.92.89-3.83,2.12-5.33,1.5-1.84,2.93-2.6,5.22-3.06,1.91-.39,3.85-.78,5.79-.63s3.92.92,5.11,2.47c.8,1.05,1.18,2.35,1.53,3.63.93,3.36,1.82,6.76,2.01,10.24"/></svg>