<?xml version="1.0" encoding="UTF-8"?>
<svg id="Layer_1" xmlns="http://www.w3.org/2000/svg" version="1.1" viewBox="0 0 280.9 356.6">
  <!-- Generator: Adobe Illustrator 30.4.0, SVG Export Plug-In . SVG Version: 2.1.4 Build 226)  -->
  <defs>
    <style>
      .st0 {
        fill: #fff;
      }

      .st1 {
        fill: #cccccb;
      }

      .st2 {
        fill: #7498c5;
      }
    </style>
  </defs>
  <rect class="st0" y="13.4" width="263.7" height="343.2"/>
  <polygon class="st1" points="263.7 356.6 280.9 343.9 280.9 1.4 263.7 13.4 263.7 356.6"/>
  <polygon class="st1" points="263.7 13.4 0 13.4 13.5 0 280.9 1.4 263.7 13.4"/>
  <path class="st2" d="M263.1,13.4c2.4-2.8,5.2-4.9,8.2-6.9,3-1.9,6.1-4,9.5-5.1-4.4,5.8-10.7,10.3-17.8,12h0Z"/>
  <path class="st2" d="M254.7,13.7c-7.2-.5-13.9-4.7-18.1-10.4,3.3,1.1,6.3,2.9,9.4,4.6,3.1,1.8,6,3.5,8.7,5.8h0Z"/>
</svg>