<?xml version="1.0" encoding="UTF-8"?><svg id="Layer_1" xmlns="http://www.w3.org/2000/svg" viewBox="0 0 85.73 33.83"><defs><style>.cls-1{fill:#acb1d6;}.cls-2{fill:#7d2328;}.cls-3{fill:#4367ac;}.cls-4{fill:#dadf50;}.cls-5{fill:#e2e2e2;}</style></defs><path class="cls-2" d="M9.49,14c.04-.24-4.62-1.45-4.98-1.55-1.07-.31-2.19-.55-3.24-.92C-.61,10.87.07,7.59.37,6.07c.2-1.02.75-3.13,1.83-3.6,1-.44,7.56.11,9.27.14,0,0-1.95,11.25-1.98,11.38Z"/><path class="cls-1" d="M81.07,32.86l-6.59-1.08c-3.65-.6-7.31-1.76-10.94-2.83-1.63-.48-3.25-.94-4.87-1.33-5.56-1.34-11.15-2.57-16.76-3.74-2.6-.54-5.2-1.06-7.8-1.56-2.41-.47-4.56-1.52-6.95-2.04-1.02-.22-2.06-.32-3.11-.41-2.88-.27-5.73-.5-8.58-.99-.12-.02-.25-.04-.37-.06-2.16-.39-4.83-1.24-6.01-3.28-1.22-2.1-.55-5.98-.1-8.27.37-1.92.81-5.04,2.57-6.16C12.83.29,14.55-.02,16.38,0c.72,0,1.44.06,2.17.15,2.87.34,5.77,1.19,8.6,1.59,4.36.62,8.71,1.29,13.05,2.01,6.21,1.03,12.45,2.64,18.72,3.11,2.71.21,5.42.4,8.14.57,3.69.24,7.37.45,11.06.62l6.9,1.13-3.66,22.32c-.08.51-.18.92-.29,1.36Z"/><path class="cls-3" d="M76.94,29.7c.23-3.4.69-6.76,1.21-10.12.54-3.35,1.16-6.69,2.04-9.98l.2.03c-.35,5.1-1.18,10.12-2.19,15.12-.34,1.66-.7,3.32-1.15,4.97l-.12-.02h0Z"/><rect class="cls-1" x="68.06" y="18.01" width="26.19" height="4.99" transform="translate(114.52 -56.26) rotate(99.31)"/><path class="cls-5" d="M63.54,28.95c-1.63-.48-3.25-.94-4.87-1.33-5.56-1.34-11.15-2.57-16.76-3.74-2.6-.54-5.2-1.06-7.8-1.56-2.41-.47-4.56-1.52-6.95-2.04-1.02-.22-2.06-.32-3.11-.41-2.88-.27-5.73-.5-8.58-.99L18.55.15c2.87.34,5.77,1.19,8.6,1.59,4.36.62,8.71,1.29,13.05,2.01,6.21,1.03,12.45,2.64,18.72,3.11,2.71.21,5.42.4,8.14.57l-3.53,21.52Z"/><path class="cls-3" d="M7.44,11.5c-2.14-.24-4.22-.76-6.19-1.62,0,0,.05-.2.05-.2,2.13.24,4.2.83,6.17,1.7,0,0-.03.12-.03.12h0Z"/><path class="cls-3" d="M7.61,8.78c-1.01.26-2.01-.28-3.02-.37-1.01-.09-2.01-.25-2.98-.58,0,0,.02-.15.02-.15.51,0,1.02.05,1.52.11,1.24.25,2.49.44,3.75.61.17.02.76.13.71.39h0Z"/><path class="cls-3" d="M8.05,6.1c-2.04.11-4.08-.08-6.06-.61,0,0,.02-.2.02-.2,2.04-.1,4.07.15,6.05.69,0,0-.01.12-.01.12h0Z"/><path class="cls-3" d="M8.39,4.02c-.98.37-2.04-.06-3.06-.04-1.02.02-2.04-.02-3.05-.25,0,0,0-.15,0-.15.51-.05,1.02-.07,1.53-.06,1.27.11,2.54.16,3.82.19.17,0,.77.05.75.31h0Z"/><circle class="cls-4" cx="37.52" cy="12.92" r="8.2"/><path class="cls-3" d="M50.85,21.61c.37-4.27,1.03-8.51,2.04-12.68,0,0,.2.03.2.03-.38,4.27-1.1,8.5-2.12,12.66,0,0-.12-.02-.12-.02h0Z"/><path class="cls-3" d="M48.75,23.16c.32-3.68.99-7.71,1.64-11.37.24-1.25.49-2.51.79-3.75l.2.03c-.11,1.27-.27,2.54-.44,3.81l-.58,3.78c-.45,2.51-.88,5.03-1.49,7.51l-.12-.02h0Z"/></svg>