<?xml version="1.0" encoding="UTF-8"?><svg id="Layer_1" xmlns="http://www.w3.org/2000/svg" viewBox="0 0 285.26 93.42"><defs><style>.cls-1{fill:#27417e;}.cls-2{fill:#e79dbf;}.cls-3{fill:#dadf50;}.cls-4{fill:#f9e6e1;}.cls-5{fill:none;stroke:#27417e;stroke-linecap:round;stroke-linejoin:round;stroke-width:3.94px;}</style></defs><rect class="cls-3" x="137.51" y="-42.08" width="38.18" height="185" transform="translate(163.55 -113.95) rotate(74.58)"/><polygon class="cls-4" points="72.5 93.41 62.35 56.62 17.88 81.87 0 92.02 20.82 92.42 72.5 93.41"/><path class="cls-1" d="M20.82,92.42c-.02-4.15-1.29-7.69-2.94-10.56L0,92.02l20.82.4Z"/><rect class="cls-1" x="232.43" y="18.26" width="38.18" height="11.93" transform="translate(207.99 -224.67) rotate(74.58)"/><path class="cls-2" d="M263.56,5.72h13.19c6.9,0,12.49,5.6,12.49,12.49v14.25h-38.18v-14.25c0-6.9,5.6-12.49,12.49-12.49Z" transform="translate(216.72 -246.42) rotate(74.58)"/><line class="cls-5" x1="71.93" y1="73.77" x2="240.81" y2="27.19"/></svg>