<?xml version="1.0" encoding="UTF-8"?>
<svg id="Layer_1" xmlns="http://www.w3.org/2000/svg" xmlns:xlink="http://www.w3.org/1999/xlink" version="1.1" viewBox="0 0 194.7 157.8">
  <!-- Generator: Adobe Illustrator 30.4.0, SVG Export Plug-In . SVG Version: 2.1.4 Build 226)  -->
  <defs>
    <style>
      .st0 {
        fill: none;
      }

      .st1 {
        fill: #6a8d94;
      }

      .st2 {
        fill: #66837e;
      }

      .st3 {
        fill: #646e6b;
      }

      .st4 {
        fill: #6b8c82;
      }

      .st5 {
        fill: #657776;
      }

      .st6 {
        fill: #7a9198;
      }

      .st7 {
        fill: #69a9a4;
      }

      .st8 {
        fill: #5f715d;
      }

      .st9 {
        fill: #6b9089;
      }

      .st10 {
        fill: #7b8c87;
      }

      .st11 {
        fill: #617365;
      }

      .st12 {
        fill: #6b9099;
      }

      .st13 {
        fill: #658177;
      }

      .st14 {
        fill: #6e768d;
      }

      .st15 {
        fill: #6aa2a2;
      }

      .st16 {
        fill: #6ba0a5;
      }

      .st17 {
        fill: #7799a2;
      }

      .st18 {
        fill: #7c74a9;
      }

      .st19 {
        fill: #678485;
      }

      .st20 {
        fill: #74857b;
      }

      .st21 {
        fill: #699898;
      }

      .st22 {
        fill: #70afa2;
      }

      .st23 {
        fill: #ebb1cc;
      }

      .st24 {
        fill: #768479;
      }

      .st25 {
        fill: #627168;
      }

      .st26 {
        fill: #736f93;
      }

      .st27 {
        fill: #6da2ab;
      }

      .st28 {
        fill: #6ba3a7;
      }

      .st29 {
        fill: #69a29f;
      }

      .st30 {
        fill: #7b71a6;
      }

      .st31 {
        fill: #646561;
      }

      .st32 {
        fill: #6dacae;
      }

      .st33 {
        fill: #6db4ad;
      }

      .st34 {
        fill: #6da7ae;
      }

      .st35 {
        fill: #666e70;
      }

      .st36 {
        fill: #6d6679;
      }

      .st37 {
        fill: #6ba8a9;
      }

      .st38 {
        fill: #5f6c5b;
      }

      .st39 {
        fill: #7a89a6;
      }

      .st40 {
        fill: #6eb5a8;
      }

      .st41 {
        fill: #6f7f98;
      }

      .st42 {
        fill: #78969b;
      }

      .st43 {
        fill: #63736b;
      }

      .st44 {
        fill: #6d8a80;
      }

      .st45 {
        fill: #74678d;
      }

      .st46 {
        fill: #647d70;
      }

      .st47 {
        fill: #6b8c98;
      }

      .st48 {
        fill: #767ca6;
      }

      .st49 {
        fill: #7b6ea2;
      }

      .st50 {
        fill: #67877e;
      }

      .st51 {
        fill: #6b8376;
      }

      .st52 {
        fill: #749cb3;
      }

      .st53 {
        fill: #6d867b;
      }

      .st54 {
        fill: #7c8789;
      }

      .st55 {
        fill: #6c928a;
      }

      .st56 {
        fill: #699894;
      }

      .st57 {
        fill: #7694b2;
      }

      .st58 {
        fill: #74759b;
      }

      .st59 {
        fill: #6a9d98;
      }

      .st60 {
        fill: #69a5a1;
      }

      .st61 {
        fill: #6cbaaf;
      }

      .st62 {
        fill: #6b939d;
      }

      .st63 {
        fill: #7b919e;
      }

      .st64 {
        fill: #7398b1;
      }

      .st65 {
        fill: #c771a6;
      }

      .st66 {
        fill: #68867c;
      }

      .st67 {
        fill: #73a6a6;
      }

      .st68 {
        fill: #757099;
      }

      .st69 {
        fill: #6eb0a4;
      }

      .st70 {
        fill: #6d9088;
      }

      .st71 {
        fill: #788379;
      }

      .st72 {
        fill: #6f90a4;
      }

      .st73 {
        fill: #647973;
      }

      .st74 {
        fill: #6b958e;
      }

      .st75 {
        fill: #766893;
      }

      .st76 {
        fill: #6b9ca2;
      }

      .st77 {
        fill: #637a6e;
      }

      .st78 {
        fill: #6e95a6;
      }

      .st79 {
        fill: #6a7a87;
      }

      .st80 {
        fill: #6a9f9a;
      }

      .st81 {
        fill: #7e8076;
      }

      .st82 {
        fill: #6c8478;
      }

      .st83 {
        fill: #6b8e86;
      }

      .st84 {
        fill: #698c83;
      }

      .st85 {
        fill: url(#linear-gradient);
      }

      .st86 {
        fill: #647b6b;
      }

      .st87 {
        fill: #688f90;
      }

      .st88 {
        fill: #798fa9;
      }

      .st89 {
        fill: #788db2;
      }

      .st90 {
        fill: #657372;
      }

      .st91 {
        fill: #7b79a6;
      }

      .st92 {
        fill: #72a2b4;
      }

      .st93 {
        fill: #65817a;
      }

      .st94 {
        fill: #688d89;
      }

      .st95 {
        fill: #666b6e;
      }

      .st96 {
        fill: #6c887d;
      }

      .st97 {
        fill: #708a80;
      }

      .st98 {
        fill: #657f71;
      }

      .st99 {
        fill: #786c99;
      }

      .st100 {
        fill: #6d8698;
      }

      .st101 {
        fill: #6c7e8e;
      }

      .st102 {
        fill: #657e6f;
      }

      .st103 {
        fill: #779990;
      }

      .st104 {
        fill: #6a9790;
      }

      .st105 {
        fill: #7c8985;
      }

      .st106 {
        fill: #64726e;
      }

      .st107 {
        fill: #7788af;
      }

      .st108 {
        fill: #6fa0ae;
      }

      .st109 {
        fill: #796d9e;
      }

      .st110 {
        fill: #7b80aa;
      }

      .st111 {
        fill: #5b694f;
      }

      .st112 {
        fill: #738479;
      }

      .st113 {
        fill: #62675e;
      }

      .st114 {
        fill: #637670;
      }

      .st115 {
        fill: #6e6c83;
      }

      .st116 {
        isolation: isolate;
      }

      .st117 {
        fill: #7a84b1;
      }

      .st118 {
        fill: #bfc9c3;
      }

      .st119 {
        fill: #688072;
      }

      .st120 {
        fill: #7489aa;
      }

      .st121 {
        fill: #6a897f;
      }

      .st122 {
        fill: #678882;
      }

      .st123 {
        fill: #6d7086;
      }

      .st124 {
        fill: #78948c;
      }

      .st125 {
        fill: #688588;
      }

      .st126 {
        fill: #789690;
      }

      .st127 {
        fill: #6c97a1;
      }

      .st128 {
        fill: #5e6f59;
      }

      .st129 {
        fill: #68908c;
      }

      .st130 {
        fill: #688b8b;
      }

      .st131 {
        fill: #7a8278;
      }

      .st132 {
        fill: #708579;
      }

      .st133 {
        fill: #676567;
      }

      .st134 {
        fill: #647c72;
      }

      .st135 {
        fill: #7d8177;
      }

      .st136 {
        fill: #5c664d;
      }

      .st137 {
        clip-path: url(#clippath-1);
      }

      .st138 {
        fill: #6a9fa0;
      }

      .st139 {
        fill: #696974;
      }

      .st140 {
        fill: #779a95;
      }

      .st141 {
        fill: #6eb3a5;
      }

      .st142 {
        fill: #7292ab;
      }

      .st143 {
        fill: #7b8d93;
      }

      .st144 {
        fill: #7774a1;
      }

      .st145 {
        fill: #6d6a7e;
      }

      .st146 {
        fill: #69a6a3;
      }

      .st147 {
        fill: #6e877c;
      }

      .st148 {
        fill: #657f74;
      }

      .st149 {
        fill: #6fadb2;
      }

      .st150 {
        fill: #6aaaa6;
      }

      .st151 {
        fill: #726687;
      }

      .st152 {
        fill: #647c76;
      }

      .st153 {
        fill: #687d84;
      }

      .st154 {
        fill: #759bae;
      }

      .st155 {
        fill: #70849e;
      }

      .st156 {
        fill: #6c948c;
      }

      .st157 {
        fill: #6d91a0;
      }

      .st158 {
        fill: #677076;
      }

      .st159 {
        fill: #6cabac;
      }

      .st160 {
        fill: #70887e;
      }

      .st161 {
        fill: #699f9c;
      }

      .st162 {
        fill: #626d65;
      }

      .st163 {
        fill: #607360;
      }

      .st164 {
        fill: #73a599;
      }

      .st165 {
        fill: #668581;
      }

      .st166 {
        fill: #699592;
      }

      .st167 {
        fill: #7a8379;
      }

      .st168 {
        fill: #688c86;
      }

      .st169 {
        fill: #6a8275;
      }

      .st170 {
        fill: #5c6a52;
      }

      .st171 {
        fill: #6db4aa;
      }

      .st172 {
        fill: #617664;
      }

      .st173 {
        fill: #7c7aaa;
      }

      .st174 {
        fill: #6db2b1;
      }

      .st175 {
        fill: #6a8892;
      }

      .st176 {
        fill: #7287a4;
      }

      .st177 {
        fill: #699498;
      }

      .st178 {
        fill: #6a6d79;
      }

      .st179 {
        fill: #759e9c;
      }

      .st180 {
        fill: #69a29d;
      }

      .st181 {
        fill: #699393;
      }

      .st182 {
        fill: #74a195;
      }

      .st183 {
        fill: #b3b2b3;
      }

      .st184 {
        fill: #7a8ea3;
      }

      .st185 {
        fill: #716b8a;
      }

      .st186 {
        fill: #616559;
      }

      .st187 {
        fill: #7e8281;
      }

      .st188 {
        fill: #656665;
      }

      .st189 {
        fill: #6aada9;
      }

      .st190 {
        fill: #7380a3;
      }

      .st191 {
        fill: #6e8478;
      }

      .st192 {
        fill: #678a87;
      }

      .st193 {
        fill: #69948f;
      }

      .st194 {
        fill: #72887e;
      }

      .st195 {
        fill: #7d8683;
      }

      .st196 {
        fill: #5f6655;
      }

      .st197 {
        fill: #74a3a1;
      }

      .st198 {
        fill: #5d6752;
      }

      .st199 {
        fill: #708ba4;
      }

      .st200 {
        fill: #6b6574;
      }

      .st201 {
        fill: #71ab9e;
      }

      .st202 {
        fill: #678081;
      }

      .st203 {
        fill: #67787c;
      }

      .st204 {
        fill: #6a7581;
      }

      .st205 {
        fill: #68857a;
      }

      .st206 {
        fill: #7a73a2;
      }

      .st207 {
        fill: #6bb1aa;
      }

      .st208 {
        fill: #616a5f;
      }

      .st209 {
        fill: #716f8e;
      }

      .st210 {
        fill: #74877d;
      }

      .st211 {
        fill: #7880ac;
      }

      .st212 {
        fill: #f2f2f2;
      }

      .st213 {
        fill: #6a938d;
      }

      .st214 {
        fill: #72a89c;
      }

      .st215 {
        fill: #6e8a9e;
      }

      .st216 {
        fill: #627867;
      }

      .st217 {
        fill: #69908a;
      }

      .st218 {
        fill: #70ada0;
      }

      .st219 {
        fill: #5d6d56;
      }

      .st220 {
        fill: #6cb2ac;
      }

      .st221 {
        fill: #7892ad;
      }

      .st222 {
        fill: #67676b;
      }

      .st223 {
        fill: #6d8d84;
      }

      .st224 {
        fill: #5e6c58;
      }

      .st225 {
        fill: #7b8b86;
      }

      .st226 {
        fill: #769c91;
      }

      .st227 {
        fill: #70a7b3;
      }

      .st228 {
        fill: #7c8a8d;
      }

      .st229 {
        fill: #7893a3;
      }

      .st230 {
        fill: #699d9c;
      }

      .st231 {
        fill: #799293;
      }

      .st232 {
        fill: #7a8f89;
      }

      .st233 {
        fill: #5f695a;
      }

      .st234 {
        fill: #7e8485;
      }

      .st235 {
        fill: #7796a9;
      }

      .st236 {
        fill: #66847b;
      }

      .st237 {
        fill: #69848d;
      }

      .st238 {
        fill: #688981;
      }

      .st239 {
        fill: #7c84a8;
      }

      .st240 {
        fill: #6a9b95;
      }

      .st241 {
        fill: #6e9caa;
      }

      .st242 {
        fill: #7f7f7f;
      }

      .st243 {
        fill: #66807d;
      }

      .st244 {
        fill: #6a999c;
      }

      .st245 {
        fill: #677b80;
      }

      .st246 {
        fill: #698b8f;
      }

      .st247 {
        fill: #7b7da7;
      }

      .st248 {
        fill: #6f8c83;
      }

      .st249 {
        fill: #6aa6a5;
      }

      .st250 {
        fill: #788479;
      }

      .st251 {
        fill: #6db2a7;
      }

      .st252 {
        fill: #699c9a;
      }

      .st253 {
        fill: #6a867b;
      }

      .st254 {
        fill: #5e6650;
      }

      .st255 {
        fill: #6db8ab;
      }

      .st256 {
        fill: #678377;
      }

      .st257 {
        fill: #62786c;
      }

      .st258 {
        fill: #cbcbcb;
      }

      .st259 {
        fill: #737b9d;
      }

      .st260 {
        fill: #6e7c92;
      }

      .st261 {
        fill: #7e8182;
      }

      .st262 {
        fill: #627969;
      }

      .st263 {
        fill: #6a7f8a;
      }

      .st264 {
        fill: #5c6b53;
      }

      .st265 {
        fill: #617569;
      }

      .st266 {
        fill: #76857b;
      }

      .st267 {
        fill: #607062;
      }

      .st268 {
        fill: #69656f;
      }

      .st269 {
        fill: #759ea6;
      }

      .st270 {
        fill: #606d5f;
      }

      .st271 {
        fill: #657f77;
      }

      .st272 {
        fill: #7a88ac;
      }

      .st273 {
        fill: #6c7687;
      }

      .st274 {
        fill: #6e8e85;
      }

      .st275 {
        fill: #647c6c;
      }

      .st276 {
        fill: #333;
      }

      .st277 {
        fill: #73a2ae;
      }

      .st278 {
        fill: #699b97;
      }

      .st279 {
        fill: #698478;
      }

      .st280 {
        fill: #657c7b;
      }

      .st281 {
        fill: #71aaaf;
      }

      .st282 {
        fill: #636963;
      }

      .st283 {
        fill: #6d9aa6;
      }

      .st284 {
        fill: #71adab;
      }

      .st285 {
        fill: #71867b;
      }

      .st286 {
        fill: #748eaf;
      }

      .st287 {
        fill: #717895;
      }

      .st288 {
        fill: #7977a8;
      }

      .st289 {
        clip-path: url(#clippath);
      }

      .st290 {
        fill: #6c8192;
      }

      .st291 {
        fill: #5e6956;
      }

      .st292 {
        fill: #68737c;
      }

      .st293 {
        fill: #6f657d;
      }

      .st294 {
        fill: #6a707d;
      }

      .st295 {
        fill: #656968;
      }

      .st296 {
        fill: #7c78af;
      }

      .st297 {
        fill: #7a8e8e;
      }

      .st298 {
        fill: #6cafac;
      }

      .st299 {
        fill: #6a9993;
      }

      .st300 {
        fill: #7b7fb0;
      }

      .st301 {
        fill: #706682;
      }

      .st302 {
        fill: #678174;
      }

      .st303 {
        fill: #68918f;
      }
    </style>
    <clipPath id="clippath">
      <path class="st0" d="M16.1,113c-2.8-2.7-1.4-6.6.7-9.1,1.4-1.6,3.1-2.9,4.9-4.1,5-3.3,11.2-5.3,16.8-7.3,6.2-2.2,12.5-4.2,18.9-5.8,3.7-5.9,8.4-10.9,13.5-15.5,5.1-4.6,10.6-8.7,16.4-12.2,1.2-.7,2.4-1.4,3.6-2.1,3.5-2,6.9-4.1,10.7-5.6,1.5-.6,3-1.1,4.5-1.5,1.4-.4,2.8-.5,4.2-1,.8-.3,1.7-.5,2.6-.6.2,0,.3,0,.5,0,.9,0,1.8,0,2.8,0,1.3-2,3.1-3.6,5.1-4.9,2.3-1.6,4.8-2.9,6.9-4.8,5.7-5,10.1-12.4,14.6-18.5,2.7-3.7,5.5-7.4,9.3-9.9,4.1-2.8,9.5-3.9,14.2-2.4,3.8,1.2,7,3.9,9.3,7.1,1.2,1.6,2.2,3.3,2.7,5.2.6,2.4.3,5,0,7.5-.2,1.4-.3,2.7-.5,4.1,0,.4-.1.9-.3,1.2-.5.9-1.7,1.3-2.5,1.7-.2,0-.4.2-.6.3-2.7,1.3-4.8,3.6-6.2,6.4-1.3,2.7-1.9,5.7-2.4,8.7-1.2,7.6-1.9,15.2-1.9,22.8,0,6.2-.8,12.3-2.5,18.3-.5,1.8-1.2,3.6-1.9,5.3-2.7,6.4-7,12.4-12.6,16.1-2.5,1.7-4.5,2.9-7.2,4.3-3.3,1.6-6.6,2.2-10.2,3.2-9.1,2.5-18.6,2.8-28,2.9-7.7.1-15.4.2-23.1-.6-8.1-.9-16-3.2-24.1-4.3-10.4-1.4-20.9-.9-31.3-2.2-2.5-.3-5.1-.8-7-2.5h0Z"/>
    </clipPath>
    <clipPath id="clippath-1">
      <rect class="st0" x="9.6" y="1.9" width="174.1" height="125.8"/>
    </clipPath>
    <linearGradient id="linear-gradient" x1="4874" y1="90.1" x2="5007.1" y2="32.1" gradientTransform="translate(5026.87 160) rotate(-180)" gradientUnits="userSpaceOnUse">
      <stop offset=".2" stop-color="gray"/>
      <stop offset=".7" stop-color="#cbcbcb"/>
    </linearGradient>
  </defs>
  <g>
    <path class="st81" d="M51.1,81.7l1.1.2c3,2.7,5,11.6,4.4,15.7l-.7.5c-2.8-.4-5.7-1.2-7.6-3.7l-1.5-2.8v-3c.5-2.8,2.2-5.1,4.4-6.8Z"/>
    <path class="st118" d="M109.4,103.3v.3h-2.1v-.3c0-1.1,1.9-1,2.1,0Z"/>
    <path class="st242" d="M172.7,36.2l-.9.4c-1.4-.9-5.1-3.3-6.6-3.3-1.4.7-4.5,1.7-5.2,0-.9.6-3.2.4-4.5.2s-3.1-.8-4-2.4c-.8-2.7-2.6-4.8-5.5-6.4-1.8-1.2-2.9-2.7-3.1-4.4,4.7-7,12.3-11.1,20.7-8.2,4.6,1.9,8.1,5.5,10,10.1v11.9c0,1-.7,1.6-1.1,2.2Z"/>
    <path class="st135" d="M57.9,77.5c.3,0,.7,0,.8.1,2.3,5.1,4.4,10.7,5.9,16.1.1.9.4,3.6.1,4.2s-.5.6-.8.7c-2.7,0-5.4-.3-8.1-.6v-5.3c0-1.3-.6-2.4-1-3.6-.8-2.8-1.8-5.3-3.8-7.5,2.1-1.7,4.3-3.2,6.8-4.2Z"/>
    <path class="st131" d="M62.1,75.7h.8c2.5,5.2,4.6,10.5,6.3,16,.4,1.9.5,4.9.3,6.8s-.2.2-.3.2h-5.3c.3-2.9.1-5.9-1-8.7l-5.1-12.6c1.4-.6,2.8-1.2,4.2-1.8Z"/>
    <path class="st266" d="M73.4,71.9c1,.7,1.7,1.9,2.1,3.5.8,1.2,1.2,2.3,1.2,3.3,1.5,2.3,2.6,6,3.1,8.8l-.5.7c-.1.3-.4.6-.7.5-1.8-.6-4.6-2.8-4.6-4.9-.3,0-.7.2-.8,0-.7-1.3-4.4-9.4-4.3-10.1l.8-.6,3.8-1.2Z"/>
    <path class="st167" d="M65.7,74.5l.9.5,2.2,5.5-.2,1c1.8,4.7,2.8,10.6,1.8,15.5.3,1.1.2,1.9-.5,2.2-.2,0-.5-.2-.7-.2v-5.3c-.1,0-1.1-3-1.1-3l-1.8-5.5c-.9-1.3-1.5-2.7-1.8-4.2-1.2-1.5-1.2-3.7-2.5-5.2l3.6-1.3Z"/>
    <path class="st136" d="M160.8,80c-1.5,4.6-4.2,8.9-7.8,12.2-.3,0-.8.2-1,0-.8-1.2-.9-8.5,1.2-9.2.6-2.1,2.6-3.6,4.9-3.9s2.6-.3,2.6.8Z"/>
    <path class="st8" d="M141,84l.3.7-1.4,2.5.2,1c-1.3,1.8-2.3,3.7-2.9,5.8,0,2.3,0,4.5.3,6.7-1.4.5-2.9.7-4.3,1.1-1.3.2-1.4-1.7-1.5-2.7-.2-4,2.7-10.6,5.7-13.2-.5-.9.9-1.6,1.5-.9.5-.7,1.5-1.7,2.1-.8Z"/>
    <path class="st163" d="M137.4,85.7c-.2,1.1-1,2-1.6,3l-1.6,3c-.7,1.3-.8,2.9-1.3,4.3s-.7,4,.3,5.7c-1.3.3-2.6.5-3.9.7l-.7-.3c-1.1-4.7.3-9.2,3.2-13h.8c-.3-1.2.7-2.9,2-2.9,1.1-.8,2-.9,2.8-.4Z"/>
    <path class="st250" d="M69.6,73c-.2.8,0,1.5.5,2.3l3.8,8.4c.7,1.6,1,3.2,1,4.9l-.7.6-.9.2c-2-1.2-4-5.9-4.7-8.1-1.3-2.1-1.9-4.6-2.9-7l3.8-1.4Z"/>
    <path class="st207" d="M134.7,41.1c.6.5.7,1.8-.3,2,1,1.1-.7,2.1-1.8,1.4-.4,1.7-3.7,1.2-5,.5l-.9.2-3.5-3v-.8c1.3-1.6,3.1-2.7,4.8-3.9.3-.2.5-.2.8,0,1.5.7,2.8,1.7,4.1,2.7.9.1,1.5.4,1.9.9Z"/>
    <path class="st172" d="M132.7,89c-1.3,2.3-3.9,6.2-3.7,8.7l.4,4.7c-.8.1-1.6.3-2.4.2-.3.2-2.1.2-2.2.1-.3-.2.3-5.9.6-6.7.4-1.7,3.3-7.9,4.5-8.8s.7-.2,1-.1c-.8-.8-.3-1.3.7-.7,1.1.3,1.9,1.5,1.2,2.6Z"/>
    <path class="st97" d="M92.1,76c.5.6,0,1.2-1.2,1.9,0,.9-.2,1.5-.7,1.6-1.5.4-4.5-.3-4.7-2.1-.3.1-.6.3-.8.1-1-.9-4.7-5.4-5.4-6.5l.2-.8c.4-.8,1.1-1.4,1.6-2.1l.7-.3c2.9,3,6.2,5.4,9.8,7.3l.5.9Z"/>
    <path class="st194" d="M79.5,70.2l6,7.2c1.6,1.3,0,3.9-1.6,4.2-.1.3-.2.3-.2,0-.9.8-2.5-1.1-3.1-1.9s-4.1-7-4.2-8.2l.5-.7c.7-.1,1.6-.8,2.6-.7Z"/>
    <path class="st210" d="M76.9,70.9l.9,2.5,3.3,5.8c.6,1.1,1.9,1.7,2.7,2.4,1.1.6.6,1.6-.5,1,0,.3-.3.7-.6.7-2,0-5.5-2.7-6.1-4.6-1.5-2-2.4-4.3-3.2-6.8,1.2-.4,2.3-.8,3.6-1Z"/>
    <path class="st216" d="M130.8,87.1c-1.2,1.3-1.9,2.9-2.9,4.5s-2.1,4.6-2.4,7.1.4,2.5-.5,3.8h1.9c0,.3-.1.4-.4.4h-4.5s-.6-.5-.6-.5c0-1.5.5-4.8,1-6.2.8-2.4,3.6-8.2,5.7-9.4s.7-.2,1.1-.2c.7-1,1.6-.6,1.5.6Z"/>
    <path class="st98" d="M121.6,84.6c.6,0,.4.1,0,.5.1.8-.2,1.5-1,2.3-.7,1.2-1.7,1.9-2.8,2.2v1.4c-3.3,3.7-5.6,6.9-5.7,11.8l-.8.5h-1.9c-.3,0-.7-.2-.7-.4,0-4.3,1.5-9.1,4.4-12.2.3-1.4,6.9-6.5,7.6-6.6s.5.2.8.5Z"/>
    <path class="st189" d="M123.1,41.5c.8.1,2.2,1.8,4.4,3.6,1.3.3,3.3,1.2,3.6,2.4.7.7,0,1.9-.9,1.8-.2,1.1-2.6.9-2.7-.1-.2.3-.5.4-.9.4-1,.1-4.8-2.8-5.7-3.6s-2.5-3.2-1.8-3.9c1.3-.3,2.5-.7,3.9-.5Z"/>
    <path class="st248" d="M90,71.1c.9-.2,1.7.4,2.6,1.9,1.1.6,1.8,1.3,2,2.1,1,.1.7,1.2-.3,1.2-.2,1-2.1.7-2.2-.3-3-.9-5.5-3-7.9-5.2l-3.1-2.7c.6-.8,1.2-1.6,1.8-2.4.5-.5.9-.6,1.3-.3,1.5,1.8,3.4,3.3,5.4,4.6l.3,1Z"/>
    <path class="st104" d="M108.5,62.2c1.2,0,2,1.5.8,2.1-.3,1.1-3.2.9-3.1-.3l-2.8-.4c-2.4-.7-9-4.7-9.6-6.9s-.1-.8,0-1.2c.6-.4,1.2-1,1.8-1.4l1.1-.3,3,3.2c2.7,1.8,5.5,3.3,8.5,4.4l.3.8Z"/>
    <path class="st119" d="M113.3,90.7c-.7,2.3-2.9,5.8-3.1,7.7l-.6,4.9h-.2s-2.1,0-2.1,0h-2.3c-1-.5-.4-3.1.7-3.2.8-4.1,3.1-7.5,6.9-10l.8.2c.1.1.1.3,0,.4Z"/>
    <path class="st128" d="M140.1,92.9c.3,0,.7.2.7.4,0,.7.1,5.4,0,5.9s-.3.6-.7.7c-.8.2-1.7.4-2.5.7-1.8,0-.5-1.7-.9-3.9s0-4,1.1-5.8,1.5-2.6,2.3-3.7c.4-1.4,1-1.9,1.7-1.5l.6.6c-.9,2.2-1.6,4.4-2.2,6.6Z"/>
    <path class="st111" d="M153.3,83l-.9,2.2v4.5c-.1,1-.2,2,.6,2.6-1.2,1.2-2.5,2.2-3.9,3.1-1.7,1-1.9-2.6-2-4s.5-4.1,1.6-4.7v-1s3.1-2.9,3.1-2.9h.9c.4-.6.7-.6.6.1Z"/>
    <path class="st70" d="M95.3,66.6l1.5,1.3c1.3.5,1.9,1.1,1.8,2-.5.6-1.3,1-2.3,1.2-.5-.4-1.1-.7-1.8-.8-.2.2-.5.5-.7.4-1.6-.9-4.6-2.8-6.1-4s-3-2.5-2.4-3.5l2.1-2.1.7-.3c2,2.3,4.3,4,6.8,5.2l.4.7Z"/>
    <path class="st55" d="M99,65.6l.8-.2c1.1.8,2.4,1.3,3.9,1.5l.2.8c.2.7,0,.8-.5.2,0,.3-.1.7-.3.7-2.4.2-6.3,0-7.8-2-1.7,0-3-1.2-4.2-2.3l-3.6-3.3c.7-.7,1.4-1.4,2.2-2l.8-.3c2.3,2.5,5,4.6,8,6.1l.6.9Z"/>
    <path class="st102" d="M119.6,90.1l.4.7c-1.9,2.9-3.4,5.9-4.4,9l-.2,2.9-.7.6h-3.3c.4-2.8.7-6.3,2.4-8.3s2.9-3.6,4.1-5.5c1.1-1,2.3-1,1.7.6Z"/>
    <path class="st299" d="M98.3,52.2h1c2.6,3.9,6.1,5.7,10.2,7.4.2.2.3.5.2.8,1,0,.9,1.5,0,1.7-.2,1.2-.5.9-1.2.1-1.7-.5-3.8-1-5.3-2.3s-2-1.4-3.3-2c-2-.9-2.8-3.7-4.3-3.8.9-.7,1.9-1.2,2.7-1.9Z"/>
    <path class="st86" d="M126.2,86.7c.4-.1.4,0,.1.5v.8c-3.5,3.8-5.8,8.8-5.5,14.1.7,0,1.1.4,1.3.9-.1.2-.3.4-.7.4h-4.2c-.3,0-.7-.2-.7-.4-.2-3.1.6-6.3,2.1-9s2.6-4.2,3.4-4.7.3,0,.5,0v-.9c.2-.4,3.2-2.6,3.7-1.7Z"/>
    <path class="st274" d="M94.6,70.3c1.9.3,2.5.7,1.8,1.5-.7.7-2.9.3-3.9,0-.8-.6-1.6-.8-2.5-.8-2.3-1.4-4.4-2.9-6.2-5.1s-.7-.2-.8-.3c.7-.9,1.6-1.7,2.4-2.6l2.1,2.3c.8.9,1.9,1.4,2.9,2.1l4.3,2.8Z"/>
    <path class="st251" d="M137.4,39.3c1.2.4,2.4.7,3.7.9l.2.5c.7.5.4.8-.9,1-.9,1.7-4.5.5-5.7-.6-2.6.6-3-1.5-5.1-2.3s-1.3-.6-1.7-1.2l2.9-2.1h.9c1.7,1.3,3.6,2.3,5.7,3v.8Z"/>
    <path class="st264" d="M148.8,83.5c1,.3.2,2.1-.8,1.9v1.2c-1.9,3-2.4,6.3-1.7,9.8l-.5,1-2,1.1h-.9c-1.1-4-1.6-9,1.7-11.9.6-1.5,2.5-3.7,4.2-3.2Z"/>
    <path class="st261" d="M172.7,36.2c-.7.9-1.4,1.3-2.4,1.9l-1.2.2c-2.8-1.4-5.7-2.4-8.7-3v-.5c-.5.8-1.1.6-1.1-.3-1-.7-.3-1,.7-1.1,1.7.1,3.3.4,5-.9l4.3,1.8c1.2.5,2,1.6,3.3,2Z"/>
    <path class="st275" d="M122.5,89.4l-2.8,4.2c-1.1,1.6-2,3.3-2.1,5.3l-.3,4.5h-2.5c0-2.2,0-4.7,1.2-6.8l3.7-6.4c0-.8,1.6-2.2,2.4-1.9,1.1-.8,1.2.1.5,1.1Z"/>
    <path class="st187" d="M160.1,33.3c-.4.3-.6.7-.7,1.1-.1.3-.3.6-.6.5-3.6-.3-7.9-1.6-9-5.5-2.6-2.3-5.4-4.5-8.4-6.3l.3-1c.4-.7,1-1.2,1.4-1.8.8.3.9,1.1,1.3,1.7,1.8,2.2,4.1,3.6,6.2,5.3s.6,5.3,4.3,5.6l5.1.4Z"/>
    <path class="st74" d="M106.2,64c-.4.5-1.1.7-2,.7-.3.9-1.9.6-2.7.3s-2.7-1.3-3-2.1c-.6.6-1.3.4-2.3-.6l-4.6-4.2v-.9c.7-.6,1.4-1.2,2.1-1.7,2.6,3.8,6.7,6.5,11.2,7.9.5.2,1.1,0,1.2.6Z"/>
    <path class="st219" d="M144.6,86.6l-1.7,3.8c-.5,1.1,0,2.3,0,3.3,0,1.8,0,3.3.8,4.7-1.2.7-2.4,1-3.7,1.4v-7c0-1.3.8-3,1.4-4.1s1.9-2.9,3-2.7c.4-.1.4,0,.1.5Z"/>
    <path class="st29" d="M109.4,45.6h1c2.4,3.6,5.4,5.8,9.7,7.2l.3.8c.6-.9,2.8.1,2.6,1.2.2,1.2-2.6,1.2-3.2.4-3.6,0-7.1-2.2-9.6-4.8s-2.2-2.5-2.5-3.7c.5-.5,1.2-.7,1.9-1.1Z"/>
    <path class="st240" d="M101.8,52.7c2.1,2.6,4.8,4.4,7.9,5.6,1.5.6,2.6,1.4,3.2,2.5,0,1.1-3.1.6-3.2-.4l-4.7-2c-2.8-1.2-4.7-3.8-6.7-6.1l1.9-1.3c1-.6,2.4.9,1.6,1.8Z"/>
    <path class="st150" d="M119.2,42l2.3,3.4c1.7,1.6,3.9,3,6,3.7,1,.5,0,1.9-.9,1.5-.3,1-2.4.7-2.5-.4-3.9-1.3-6.9-3.3-7.9-7.5l2.9-.7Z"/>
    <path class="st59" d="M109.3,55.4c1.1.7,2.3,1.4,3.6,2.1v.8s-.8.6-.8.6c-4.1-.7-7.7-3-10.2-6.2-.4-.7-.9-1.3-1.6-1.8.8-.5,1.6-1,2.4-1.4h.9c1.6,2.1,3.4,3.9,5.6,5.2l.2.8Z"/>
    <path class="st146" d="M114.3,43.5c.8.2,1.5.8,1.9,2,1.1,1.3,2.4,2.4,4,3.2v.8s3.9,2.2,3.9,2.2v1c-.2,1.1-2.6.9-2.8-.2l-1.1.3c-4-1.6-6.8-4.8-8.9-8.4.9-.5,1.9-.7,2.9-1.1Z"/>
    <path class="st60" d="M121.4,52.6c.2.8-.3,1-1,1-1.8-.8-5-1.4-8-4.5s-1.5-2.7-2.9-3.5l2-1c.8,0,1.4.5,1.7,1.2,1.2,3,6.8,6.7,8.2,6.8Z"/>
    <path class="st161" d="M119.5,55.7c.7-.6,2.1-.2,1.5.9-1.3.9-2.9,1-5,.3,0,.3-.1.3-.3,0-4.6-1-8.6-3.9-11-8l.3-.8c.3-.1.8-.5,1.1-.7l.9.2c2.8,4.3,7.9,6.5,12.5,8.1Z"/>
    <path class="st170" d="M148.7,86.7c0,1.2-.7,2.4-.8,3.7s.5,5.4,1.3,5c-1.1.7-2.3,1.4-3.4,2.1-.5-2.2-.6-4.5-.2-6.8s1.7-3.6,2.4-5.2c1-.2,1.4.6.7,1.4Z"/>
    <path class="st156" d="M98.5,62.9c1,.4,1.5,2.1.5,2.7l-1.9-.7-4.4-3c-1.1-.8-1.8-2.1-3.1-2.9l2-1.8c2.4,1.8,4.9,5,6.8,5.7Z"/>
    <path class="st195" d="M159.3,34.5l.9.3c.8.6.5,1.3-.5,1.1-.5,1.3-2,.3-2.8-.4-.4.8-1.9.2-1.9-.6-3.1-1.1-5.2-2.3-6.7-5.2-2.5-1.8-5-3.7-7.4-5.5l-.2-.6c0-.6.7-1,.9-1.4.1,1.3,1.6,1.5,2.5,2.1l4.9,3.6c2.5,1.8.8,3.7,4.2,5.3s2.1,1.2,3.6.9,1.7.2,2.4.4Z"/>
    <path class="st254" d="M161.8,77l-1,3c-1.7-.4-4.1-.2-5.4,1.1l-2.1,1.9-.6-.2c-.3-1.7,1.2-3.7,2.3-4.9-.3-1.1,1.8-1.8,2.8-2.1,1.7-.6,4.6-1.5,4,1.1Z"/>
    <path class="st196" d="M162.5,73.8c-.3,1-.4,2.1-.7,3.2,0-2.1-3.9-.7-6.8.9-.6,1-2,2.6-3.1,1.7-.8-.5-.8-1.2,0-2.3-.5-.8-.2-1.2.7-1,1.7-1.7,4.3-3.1,6.8-3.3s3,0,3.2.9Z"/>
    <path class="st80" d="M105.1,48.1c1.6,2.2,4.3,5.7,6.4,6.7l4.3,2.1-.5.7c-2.3-.2-4.3-1-5.9-2.2-2.3-.6-4.7-3.8-6.6-5.9.7-.4,1.6-1.1,2.4-1.4Z"/>
    <path class="st182" d="M152.6,38.2c.8.2,2,.5,2.1,1.4.5.5.3.7-.4.4l-.3.4c-3.6-2.1-7.6-3.7-11.9-4.9-2.3-1-5.4-2.7-6.8-4.6.1-.6.6-1,1-1.3.2-.2.4-.4.6-.3,5.1,3.3,10,6.2,15.6,8.6v.4Z"/>
    <path class="st124" d="M155.1,36.8c.7.1.9.3.3.7,0,.2-.1.3-.3.4-.2.1-3.7-1.4-3.9-1.9-.1.1-.3.2-.4.1-1.6-.4-6.7-3.5-8.2-4.5s-3-2.1-4.5-3.2-.3-.7-.3-1.1c.3-.5.6-1,1-1.4.6.1,1.2.5,1.7,1.2,2.9,1.9,5.8,3.9,8.5,6.1,2,1.1,4,2.1,6,3v.5Z"/>
    <path class="st201" d="M154.1,41.4c.7-.2.9.4.2.7.3.9,0,1-.7.4-.3.1-.6.2-.8,0-3-2.3-5.3-2.9-9.1-3.5-.3,0-.4-.3-.3-.6-2.8-.3-5.5-1.1-8-2.3-.7-.4-2.5-2-2.2-2.8.2-.2.5-.5.7-.8l.8-.4c1.2.7,2.2,1.6,3.1,2.5,2.2,1.1,4.6,1.9,7,2.6,3.6.7,6.7,2.1,9.3,4.1Z"/>
    <path class="st7" d="M116.3,42.8c1.2-.1,1.5,3,3.2,4.3s3.4,1.8,4.7,3.2c-.4,1.4-3,0-3.9-.8l-2.4-1.5c-1.7-1-2.7-2.8-3.5-4.6.6-.2,1.3-.5,2-.7Z"/>
    <path class="st180" d="M107.6,46.6c.6.1,1,.7,1.4,1.2,2.6,3.8,6.3,6.5,10.7,7.3.7.2.6.5-.1.5-4.8-.7-11.3-3.9-13.4-8.3.4-.3,1.1-.5,1.4-.7Z"/>
    <path class="st232" d="M149.1,32.8h.5c2.4,1.3,4.8,2.5,7.4,3.5v.6c.3.9-1.4.5-1.9,0-.6,0-1.1-.8-1.7-1-2.4-.6-7.1-3.6-8.6-5.2s-5.2-2.4-5.9-4.6l.7-1.2,1.4,1.5c2.9,1.9,5.6,4.1,8.1,6.4Z"/>
    <path class="st164" d="M154.4,40.1c.9.1.9.5,0,.8,0,.3-.2.3-.4,0-.7-.1-1.5-.5-2.2-1.2-3.5-1.3-7.1-2.5-10.7-3.4-1.5-.6-5.4-2.9-6.5-4s.2-.6.4-.9c.2,0,.4-.4.4-.5,1,0,1.4.9,2.2,1.4,3.1,2,6.5,3.6,10.1,4.7l4.7,2c.7.3,1.2,1.2,2,1.1Z"/>
    <path class="st214" d="M154.1,40.8c.5.2.6.4,0,.6-.8-.1-1.3-.7-2-1.2-1.8-1.3-4-1.4-6-2.1s-2.7-.8-4.3-1.1-2.9-1.5-4.4-1.7c-1-1.3-2.2-2-3.5-2.7.3-.4.5-1,1-1.2.3,1.1,1.7,1.3,2.5,2,1.2.9,2.5,1.5,3.7,2.3s1.8.7,2.9,1l5,1.6c1.9.6,3.6,1.3,5,2.5Z"/>
    <path class="st226" d="M151.2,36.6c.6-.2,2.3.5,2.2,1.2,1,.7.1,1.2-.7.4l-8.8-4.2c-1-.5-2.1-.9-3-1.5l-4.4-3c.2-.3.4-.7.6-1,.6,0,1.2.1,1.7.5,4.1,2.7,8.1,5.3,12.4,7.6Z"/>
    <path class="st105" d="M155.1,34.9c-.1.2-.2.4-.3.3-2.4-.1-5.8-2.9-7.2-4.8l-7.5-5.7.3-.8c.1,0,.2-.3.3-.4.9,0,1.3,1.1,1.9,1.5,2.2,1.4,6.3,4.1,6.6,5,1.6,3.9,3.7,3.1,5.8,4.9Z"/>
    <path class="st186" d="M162.8,72c-.1.5-.1,1.3-.3,1.8-1.6,0-3.4-.6-4.9.1l-5,2.3c-.5-.6-.2-1.2,1.1-1.8-.1-.3-.2-.6,0-.8,1.7-1.2,6.9-3.4,8.8-2.2s.3.3.4.6Z"/>
    <path class="st69" d="M138.9,37.9l2.1.7c0-.3.1-.3.3,0,1-.2,1.1.3.3.8-.4.7-1.3.8-2.7.4l-1.5-.5c-1.8-1-4.6-1.5-6.6-3.8.5-.3,1-.7,1.4-1.1l.8-.4c2,2,3,2.5,5.6,3.3s.3.3.3.6Z"/>
    <path class="st225" d="M155.1,34.9c.6.5,1.1.5,1.9.6,1.5.5,2.1,1.1,1.7,1.9-.2.1-.5,0-.8-.1-.3.7-1,.3-.7-.4-2.8-1.6-6-2.5-8-4-2.5-2.4-5.3-4.6-8.2-6.5l-1.3-1.4c.2-.3.4-.8.8-1,0,.6.3.8.8,1.2l5.2,3.8c1.1.8,1.7,1.1,2.4,2.3,1.2,2.1,4,3.2,6.2,3.6Z"/>
    <path class="st54" d="M159.7,35.8l.5-.5c1.8.5,3.6,1,5.4,1.5,1.7.6,2.4,1.4,2.3,2.5-.2.1-.6.5-.7.7-.7.5-1.6.4-2.7-.1-1.9-1.3-3.9-2.1-6-2.6-.4-.7-1.4-1-1.7-1.9l2.8.4Z"/>
    <path class="st99" d="M163.9,57.3v1.4s-.2.7-.2.7c-3.7,0-7.4.9-11,1.8s-.4,0-.4-.5c-.2.7-.5.6-.4-.2-1-.2-.9-1,0-1.2,0-.2.2-.4.4-.4,1.9-.6,9.7-2.5,11.2-2s.3.2.4.3Z"/>
    <path class="st234" d="M170.3,38l-2.3,1.3c-1.7-1.9-3.9-2.5-6.4-2.8s-1.3-.7-1.9-.8l.5-1.1,4.8,1c1.3.3,2.5,1,3.8,1.6l1.5.7Z"/>
    <path class="st75" d="M163.9,58.7v5.3c0,.2-.1.4-.3.4-1-.2-1-.8,0-1.1-1,0-.9-.9,0-1.1-1,0-1-.7,0-1-.8-.5-1.9-.6-3.2-.3-2.7.7-5.3,1-7.9,1-1,0-1-.8,0-1.1,1.3,0,2.6-1,4-1.2l7.7-.9Z"/>
    <path class="st103" d="M151.2,36c.6.3.6.5,0,.6-5-2.2-9.7-4.7-14.1-8.1.2-.2.6-.8.8-1.1,2.7,2,5.2,4.3,8.3,5.7s3.4,2.2,5.2,2.9Z"/>
    <path class="st31" d="M163.2,69.6c0,.8,0,1.6-.4,2.4-1.4-.7-3.1-.9-5.1-.5l-4.1,1.7-.7-.5c-.8-.7-.3-.9.6-1,0-.3-.2-.6,0-.8,2.7-2.2,6.3-2.3,9.5-1.7s.1.2.1.4Z"/>
    <path class="st218" d="M143.5,38.4c-.2.7-1.6.7-2.1.2,0,0-.2,0-.3,0l-2.1-.7c-1.4-.2-3-.4-4.1-1.4s-1.5-1.7-2.6-2.1l1.1-1c1.3.8,2.3,2.3,3.8,2.9s3.2.9,4.7,1.7,1.5,0,1.7.5Z"/>
    <path class="st36" d="M163.5,64.4v1c0,.4-.1.5-.4.5-3.3-.2-6.1-.4-9.3,1.2l-.4-.3c0,1-1.6,1.2-2.2.4-.7.2-.7,0,0-.4-.7-1.2,1.7-1.9,2.5-1.4,1.2-1,3.9-1.4,5.5-1.6s3.8-.2,4.1,0,.2.3.3.5Z"/>
    <path class="st228" d="M158.6,37.4c2-.6,3.8.6,5.6,1.7s2.2.5,3.1,1.1l-.8,1.4c-.7.9-3.7-.3-3.7-1.4-1.7-.8-3.3-1.5-5-2.3v-.5c.2,0,.6.2.8.1Z"/>
    <path class="st184" d="M165,46.8c-.2.8.2,2-.4,2.7-.5,0-.8-.3-.7-.8-1.5,0-2.4-.3-2.8-1.1-.6.8-.9.7-.7-.3-1-.4-.4-2.2.6-2.1.2-.7.8-1,1.8-.7,1.8.1,2.5.9,2.2,2.2Z"/>
    <path class="st268" d="M163.5,66.4v1.3c-.7.7-3.1.7-3.5-.3l-.8-.3c-2.3.5-4.5,1.2-6.6,2.1l-.4-.3c-.5.3-.7.2-.4-.4-.6-1,1.5-1.6,2.1-1,0-.3,0-.5.1-.6,1.6-1.3,7-1.6,9-1.1s.2.3.3.5Z"/>
    <path class="st6" d="M162.2,41.6c1-.9,2.9.5,3.8,1.3l-.4,1.4c-.4,1.6-3.6.4-4.2-.8-1-.4-3.2-1.7-2.4-2.8v-.4c1.1,0,2.1.4,3.1,1.3Z"/>
    <path class="st109" d="M163.9,56.6v.7c-4.2-.2-7.9,1.7-12,2.1-.2.3-.4.3-.6,0-.9-.5-.6-.9.3-.7,0-.2,0-.4.2-.4,3-1.1,5.8-1.9,9-1.7.1-1.1,2.9-1.1,3.1,0Z"/>
    <path class="st200" d="M163.5,65.4v1.1c-3.8-.5-6.1-.4-9.5,1.2-1,.3-1.3,0-.6-.8l1.9-.8c1.5-.2,2.9-.7,4.3-.8s2.7.4,3.9.2Z"/>
    <path class="st39" d="M164.6,49.6c0,0,0,.2,0,.3,0,.3,0,.7-.2.7-.5.1-4.2.3-4.4.2s-.2-.3-.3-.4c-1.1-.1-.8-.7,0-1.1,0-.9.5-1.5,1.4-1.5l3.4.5c.2.6.1,1,0,1.4Z"/>
    <path class="st143" d="M162.8,40l3.7,1.4-.5,1.4c-1.4.3-2.6-1-3.8-1.3-1.8-.6-2.4-1.3-1.8-2.1.5-.6,1.3-.4,2.4.5Z"/>
    <path class="st206" d="M164,56.3c0,0,0,.2,0,.3h-3.1c-.9.1-2.5.3-2.9-.4-.4-.6,0-.9,1.4-1.1l.6-.4c-.1-1.2,3.7-.8,3.8-.7.3.3.3,1.6.2,2.1Z"/>
    <path class="st91" d="M164.2,53.4c0,.9.2,2-.3,2.9,0-.4,0-.9-.3-1.4s-2.1-.2-3.7,0c-.2.4-.4.4-.6,0-.6,0-1.1-.2-1.4-.4-.9-.9,0-1.2.9-1.1,0-.4.2-.6.6-.7.8-.3,4.3-.2,4.7.7Z"/>
    <path class="st133" d="M160.1,67.5c1.1,0,2.3,0,3.4.3,0,.7-.1,1.3-.3,1.9-.4-.7-3.5-.8-5.3-.6-1.1.5-1.9.5-2.5,0-.2-.3-.2-.6,0-.7,1.3-.6,3.3-1.3,4.6-.8Z"/>
    <path class="st239" d="M164.6,49.9c0,.8,0,1.8-.3,2.5-.5,0-.8-.3-1-.7h-3.3c-1.2.6-1.9.4-2.1-.3-.4-1,1.2-1.7,1.8-.9l4.9-.5Z"/>
    <path class="st247" d="M164.2,52.4v1c-2,.4-3.7-.8-5.3,0-.5.4-.6.3-.3-.3l-.2-1c1.5-.5,3.1-.7,4.9-.5.2,0,.7-.3.9-.2s.1.8.2.9Z"/>
    <path class="st63" d="M165.6,44.3c-.2.8-.4,1.7-.6,2.5,0-1.4-1.9-1.6-4-1.5-1,.1-.9-.7-.3-1.2-.3-.7,0-.9.7-.6,1.6,0,2.8,1.6,4.2.8Z"/>
    <path class="st24" d="M79.2,88.2c.8-.5,1-.2.4.6.5.4.7,1.1.6,2,.8,2.6,1,5.3.6,8.1,0,.7-.2,1.1-1,1l-4.4-.4c-.8,0-1.3-.4-1.6-.9l-.3-8.4.7-.9c.2-2.8-.7-4.3-.3-5.5.7,1.5,3.6,4,5.3,4.4Z"/>
    <path class="st112" d="M84.7,89.7c1-.7,1.7,0,1.3,1.1,1.2-.1,1.2.6,1.1,1.7-.6,2.1-1.1,4.2-1.5,6.4.6,1.5.4,2.1-.6,2l-5.3-.9c.4-.9.4-1.8.4-2.9v-3.8c-.5-1.6-1.1-3-.5-4.5.4-.7,1.2-.7,2.3,0,1.6-.3,2.5,0,2.8.9Z"/>
    <path class="st132" d="M91.8,90c.8-.3,1.2,0,1.1.9l.3.9c-1,2-1.5,4.2-1.6,6.6-.6,1.2-.9,2.4-1,3.5l-5.4-1.1c.6-.6,0-1.4,0-2,0-3,2.6-6.2,1.1-8.1,0-.3,0-.7.2-.7.5-.2,4.7-.8,5-.7s.5.4.6.6Z"/>
    <path class="st71" d="M74.2,89.3c-.2,2.7.3,5.3.2,8.1s-.1,1.7.9,2.1c-1.8-.2-3.6-.4-5.4-.3,0-.8-.4-1.9-.1-2.7.6-1.6.4-2.8.2-4.4l-.5-4.5-1-6.1,2.1,3.3c1,1.7,1.9,3.5,3.5,4.5Z"/>
    <path class="st191" d="M94.9,91c1.9-.5,1.6,1.2,1.3,2.5.3,2,.6,3.8-.2,5.7.6.7,0,3-.7,3.5l-4.8-.8c-.3-.1-.7-.3-.8-.6-.2-.4.1-.8.4-1.2,1.6-2.5.2-5.6,2.8-9.2.4-.9,1.6-.8,2.1,0Z"/>
    <path class="st51" d="M103.8,92.8l.3.7c-1.1,2.9-1.9,6-2.2,9.2l-.5.6-6.1-.6c-.2-1.2.1-2.5.7-3.5.3-2.2,2.4-5.1,3.9-6.8h.9c.9-.8,3.1-1.1,3,.4Z"/>
    <path class="st169" d="M108.5,90.7l.4.8c-1.3,2.8-2.4,5.7-3.2,8.7l-.7,3.1h-3.6c-.6-.7.4-3.8,1-6.4s.4-3.1,1.5-4.1c-.4-1.1,2-2.8,3.1-2.5.8-.7,1.7-.8,1.6.5Z"/>
    <path class="st20" d="M83.3,82.6c1.1.4,1.8,1.5,1.9,3.3.6,1.7.4,2.9-.5,3.8-.8-.4-1.8-.2-2.7-.2s-1.7-.7-2.5-.7l-.4-.6-2.6-9.5c.8.4,1.2,1.4,2,1.9l1.5.9c1.1.7,2,1.3,3.1,1.1Z"/>
    <path class="st38" d="M148,78.1c.4,1,0,2.1-1.3,3.3l-.4.2c-1,1.5-2.3,2.9-3.7,4.2l-.9-.2-1.7,1.5c0-1.1.3-2.4,1-3.2-.2-.2-.4-.5-.3-.7.4-.6,3.3-3.9,3.8-4.2s.6-.3,1.1,0c.3-1.2,1.7-2.5,2.5-1.1Z"/>
    <path class="st267" d="M142.8,78.6c.7.3.8.9.1,1.8-1.2,1.6-2.5,3.1-4,4.4l-1.5.9c-.8.5-1.8.6-2.8.4-.3-.2-.5-.6-.3-.8,1.5-1.8,3.7-4.2,5.6-5.5-.7-.9.4-1.6,1.1-.7.8-.7,1.4-.9,1.7-.5Z"/>
    <path class="st270" d="M145.5,79.1c-.5.3-.7.7-1.2,1.2l-3.4,3.6-2.1.8c0-.7.6-.9,1-1.6l1.2-1.9c.9-.8,1.6-1.6,1.7-2.7-.4-.9,2.4-2.6,3.2-1.7.8.5.6,1.3-.4,2.3Z"/>
    <path class="st11" d="M140,79.8l-3.4,4.3c-.6.7-1.5,1.2-1.9,2s-1.4,1.9-2,2.9c0-1-1.3-1.3-1.2-2.6v-.7c0,0,3.4-4,3.4-4,.7-1,1.3-1.2,1.9-.7,1.2-1.7,2.2-2.1,3.1-1.2Z"/>
    <path class="st298" d="M132.6,44.6c1.2,0,6.7,1,7,1.9s0,.4,0,.5c.9,0,.9.3,0,.6,0,.2,0,.3-.2.5-.2.2-3.8.3-4.3,0-.4,1.1-3.7.4-3.8-.7-1.6-.3-2.5-1.5-3.6-2.4,1.8-.2,3.4,0,5-.5Z"/>
    <path class="st171" d="M140.4,41.8c1-.7,3.1-.7,2.4.8.2.7,0,.9-.7,1-.4,1.3-3.2,1.1-4.3.4-.4,1.4-3.2.3-3.4-.8.1-.6-.3-1.5.3-2,1-.2,1.8.3,2.8.6s2,0,2.8,0Z"/>
    <path class="st220" d="M137.8,44c1.1.1,2.7.7,2.1,2,.9.4.5,1.1-.4,1-2.6-1.6-5.5-.8-7-2.4.6-.2,1.7-.6,1.8-1.4,1.1,0,1.7,1,3.4.8Z"/>
    <path class="st265" d="M137.9,78.9c.7.4.4,1.1-1,2-2.3,1.5-4.5,5.4-5.4,5.5s-.5.5-.7.7c-.4-.3-.9-.6-1.5-.6-.3-.6,0-1.4,1.1-2.2l-.2-.8,3.9-3.6.8.2c.8-.9,1.6-1.4,2.5-1.6l.4.3Z"/>
    <path class="st160" d="M90.2,79.5c.6-.9,3,1.1,2.6,2,.4.6,0,1.2-1,1.9-.5,1.3-.9,1.9-2.3,1.2-.4.7-1.1.6-2,0l-3.5-2.1v-.8c.5-1.5,2-1.7,1.6-4.2,1,1.2,3.4,1.1,4.7,2.1Z"/>
    <path class="st44" d="M94.3,76.3c.1,0,.3-.2.4-.2.3,0,5.5,1.3,4.3,2.4.1.8,0,1.9-1,2-1,1.4-3.4,1.9-4.9,1,0,.3-.1.3-.3,0l-2.6-2c0-.6-.3-1.6.2-2.1s1.3-.9,1.7-1.5l2.2.3Z"/>
    <path class="st285" d="M89.5,84.7c1.7-.6,3.1,2.2,2.1,3.4,1.2,0,1.3,1.5.2,1.9l-5.8.8c-.3-.4-.8-.9-1.3-1.1.2-2.5-.3-4.9-1.5-7.1.4-.2.6-.6.5-1,0,0,.1,0,.2,0l2.2,1.3c1.1.7,2.2,1.5,3.4,1.7Z"/>
    <path class="st262" d="M129.3,86.6c-1.8,2.2-3.8,4.3-5.1,7-2.3,5.1-1.8,8.5-2.2,9.4h-2s0-2.8,0-2.8l.9-4.7c1.1-2.8,3.4-6.6,5.4-8.3,0-.6,3-3.2,3.4-3.2s.5.2.8.4c-.2.7-.6,1.6-1.1,2.2Z"/>
    <path class="st148" d="M126.6,79.8c.2.2.3.5.3.8s-4.8,3.9-5.3,4.1c-.4.2-.9.3-1.4.7l-6.9,5.4c0,0,0-.3,0-.4-.6-.8-.4-1.8.6-2.9,1.3-1.1,2.6-2.1,3.9-3.2-.6-.8,3.1-2.9,3.5-3l.8.3,2-1.8c1-.8,1.9-1,2.5-.5.5,0,.5.1,0,.5Z"/>
    <path class="st46" d="M127.9,81.4c.3.1.5.3.6.6s-4.8,5.4-5.5,5.9-.7.3-1.1.3c-.6.9-1.3,1.7-2.4,1.9-.3-.2-.5-.6-.7-.7s-.7,0-1,.1l2.2-2.6c.5-.6.8-1.7,1.5-1.9l3.2-2.8c1.2-1,2.2-1.3,3.1-.9Z"/>
    <path class="st134" d="M130.8,77.9c1,.4.9,1-.3,1.9.2,1-1.7,2.4-2.6,1.6l-3.7,2c-1,.5-1.6,1.4-2.6,1.7v-.5s2.4-2.5,2.4-2.5c.9-.9,2-1.4,2.6-2.4,1.1-.8,2.2-1.6,3.5-2.3l.7.4Z"/>
    <path class="st37" d="M130.3,49.3c.5-.6,1.5-.5,2.8.4,1,0,1.6.4,1.9,1,1,0,1.5.6.7,1.4,0,1-.8.9-1,0-.8,1.1-4.6,1.7-4.9,0-1.2.4-3.5.2-3.1-1.4l.9-1.5h2.7Z"/>
    <path class="st159" d="M135,48.1c.9-.5,2.6,1.2,2.1,2.2-.2,1.1-1.5,1.3-2.1.3-2.4,0-3.7-1.3-4.7-1.4.2-.7.6-1.2.9-1.8l3.8.7Z"/>
    <path class="st4" d="M100.9,74.6c1.3-.7,4.3.4,3.9,2.4.1.3,0,.6-.7.9-.3.7-1.1,1-2.5.8-1.3.5-2.1.4-2.6-.2-1.4-1.4-3.6-.7-4.8-2.2l.3-1.2.4-.6c1.5-.4,4.9-.8,6,.2Z"/>
    <path class="st223" d="M96.3,71.8l.6-.5,4.2,1.8.2.8c.8.5.6.9-.4.7-3.5,0-5.7.7-6.4.4-3.3-1.4-3.6-3.4-4.6-4,.4-.4.8-.6,1.3-.7s.9.7,1.3.8c1.3.3,2.6,0,3.7.6Z"/>
    <path class="st193" d="M106.2,64c1,.4,2.1.2,3.1.3l1-.6,4.7.5c1.7-.2,3.1,0,4.3.6.4-.9.9-.7.9.3-.2.6-.8.9-1.6,1-1.7,1-3.3,1.2-4.7.6,0,.2-.1.3-.2.3-3.5.3-6.1,0-9.3-1.6l-.2-.8c.2-.9,1.4-.9,2-.7Z"/>
    <path class="st166" d="M109.6,62.1c.7-.4,1.7-.4,2.8,0l7.3.5.5.6c.8.7,0,1.7-.9,1.7-3.4.4-6.7,0-10-.6-.1-.8-.4-1.5-.8-2.1.3,0,.8,0,1.2-.1Z"/>
    <path class="st302" d="M117.8,84.3c-.8,1.3-2,2.2-3.1,3.3s-1,1.9-1.4,2.8l-3.6,3.2c-1.9,1.8-3.6,4.2-4.1,6.6-.3-2.1.9-4,1.5-6.1s.7-2.3,1.3-3.3l-.3-.8c1.8-1.6,3.7-3.2,5.6-4.7l.8.2c.8-.6,1.6-1.1,2.4-1.6l.7.4Z"/>
    <path class="st224" d="M147.1,81.5c.3.7-.7,2.4-1.2,3.1s-.9,1.3-1.5,1.4c-1.6,2-3.9,4.5-4.4,6.8-.4-.7-.2-1.2,0-1.9l1.6-5.3c1.1-.9,3.7-3.9,4.6-4,.2-.6.5-.8.8-.1Z"/>
    <path class="st198" d="M155.1,77.9c-.5,1.8-1.3,3.5-2.3,4.9s-2.7,2.6-4,3.9c-.2-.4-.6-.9-.7-1.4l.8-1.9c-.9-.5,2.1-3.9,2.3-4s.6,0,.8,0l3.1-1.7Z"/>
    <path class="st83" d="M98.6,69.9c.6-.5,1.5-.6,2.5-.2,1.6,0,3.1.4,4.4,1.3.2-1.2,2.2-.8,2.5.3.9,0,1.1.3.5,1,0,1.2-1.2,1.6-3.5,1.4l-.3.2c-.2,1.5-2.9.9-3.5,0-.5,0-3.2-1.3-5-2.1-.2-.8-1.1-1-1.8-1.5h1.6c.8-.2,1.6-.7,2.4-.4Z"/>
    <path class="st9" d="M103.4,67.9c1,0,2.2,2.2,2.2,3.1-.7.1-1.5-.5-2.2-.5-1.8,0-3.2-.2-4.7-.6-1.2-1-2.6-1-3.3-3.2.9,0,1.7,1,2.7,1l5.4.3Z"/>
    <path class="st213" d="M104.2,64.7l5.4,1.9,4.3.2c.7.2.9.4.5.7l-.4.7c-1.8.1-3.6.2-5.4.2-.1.8-4.1.4-4.3.2s-.3-.5-.3-.8l-2.2-.6c-1.1-.3-1.9-.7-2.6-1.5-.2-.9-.5-1.8-.5-2.7.7.3,1.8.4,2.4,1,1.1.9,2.3.5,3.2.8Z"/>
    <path class="st217" d="M108.5,68.3l7.6.2.7.8-.5.9c-1.1.4-7.2,1.9-7.8,1.6s-.3-.2-.4-.4c-.8,0-1.7-.4-2.5-.3-1.2-.6-1.7-1.9-2.2-3.1.1,0,.4-.1.5-.2,1.5.4,3.3,0,4.6.6Z"/>
    <path class="st56" d="M112.9,60.8c.4-1.1,3.6-.6,3.8.5,1.7-.5,4.4-.6,5.7.5,1,0,.9.9,0,1-.1.9-1.7,1.2-2.1.3-1.6.5-3.2-.2-4.9-.3s-4,0-5.7-.8v-1.7s3.3.4,3.3.4Z"/>
    <path class="st77" d="M132.2,79c.8-.4,1.1-.5.9.5l.2.7c-2.4,2.3-4.7,4.4-7.1,6.5l-1.5,1c-.9.6-1.7.9-2.2,1.7,0-.4,0-1-.5-1.1,1.4-2,3.1-3.6,4.9-5.4s1.1-.8,1.1-1.4c.9-.5,1.7-1.2,2.6-1.6.6-1.2,1.1-1.5,1.7-.7Z"/>
    <path class="st257" d="M136.4,78c.3.2.6.6.5.8l-1.9,1.4-4.5,4.2-2.7,1.6c-.6.3-1.1.9-1.5,1.3v-.5c-.1,0,3.8-4.5,3.8-4.5l3-2.7c-.2-1,2.6-2.4,3.4-1.5Z"/>
    <path class="st40" d="M152.3,42.9c.1-.3.2-.3.3,0,1.1.5,1.4,1.7,0,1.8,0,.7-.2.7-.4,0-.3,0-.7-.3-1-.7-2.6-.8-5.2-1.1-7.7-.9l-.7-.5c-.5-.9-1.5-.8-2.4-.8l.9-1c.8-.9,3.6-.7,4.9-.4,2,.4,4.4,1.4,6,2.6Z"/>
    <path class="st141" d="M141.7,39.4c.1-.2.3-.4.4-.5,1.9-.5,8.5,1.4,10.2,3.1s.1.6,0,.9l-3.7-1.3c-1.1-.4-2-1.2-3.4-1s-2.6.4-3.8.1-2.7-.7-3.9-1.4c1.5.5,2.8.1,4.2,0Z"/>
    <path class="st291" d="M151.9,79.6l-3.2,3.9c-1.4,1-3,1.9-4.2,3.2v-.5c.7-1.5,1.2-3.4,2.5-4.6-.3-1,1.7-2.6,2.7-3.3.7-1,1.4-1.3,2.1-1,.2.8.1,1.5,0,2.3Z"/>
    <path class="st15" d="M121.4,52.6l2.8.2c.2-1.1,3.8-.3,3.9.8.8-.7,1.1-.4.6.5.7.6.6,1.3-.4,1.4-.8,1.4-5.1.9-5.4-.7l-2.6-1.2c0-.7.5-1,1-1Z"/>
    <path class="st138" d="M122.9,54.8c1.7.8,3.5.8,5.4.7.6-.5.8-.3.4.4,1,.1,1,1.4,0,1.6-1.5.3-4.4.7-6,.4s-1.7-.4-1.8-1.3c-.3-.3-.9-.8-1.5-.9v-.5c.1,0,3.4-.4,3.4-.4Z"/>
    <path class="st278" d="M112.9,58.3c.8-.3,1.8-.2,3,.4,1.4,0,2.5.4,3.2,1.1,0,1.1-.7,1.6-2.3,1.6l-3.8-.5c-1.8-.7-3.2-1.8-4.9-2.9-2.4-1.5-4.9-2.8-6.1-5.3,1.2.6,1.9,1.8,3,2.7,2.4,1.8,5.2,2.4,8,2.9Z"/>
    <path class="st249" d="M124.2,50.3l2.5.4c.9.8,2,1.1,3.1,1.4.2.9-1,1.4-1.7,1.5l-3.9-.8c-1-1.3-2.9-1.4-3.9-3.2l3.9.8Z"/>
    <path class="st252" d="M115.7,56.9h.3s4.8.6,4.8.6c1.1.2,2,.7,2.6,1.4.9.3.8.8-.2.8-.1,1.1-3.8,1.1-4.1,0-2,0-4.3-.4-6.1-1.5l-2-1.2c-.8-.4-1.5-.9-1.6-1.7l2.1.5c1.5.4,2.9,1.1,4.3,1Z"/>
    <path class="st230" d="M121,56.6c.7,0,1.1.6,1.8.6l5.9.3c.7,0,.7.3,0,.5-1.2,1-4,1.5-5.4.9-1,.3-2.2-.6-3.2-.8-1.6-.2-2.9-.5-4.1-1.2,1.7,0,3.2-.2,5-.3Z"/>
    <path class="st233" d="M153.8,74.4c-.4.6-.8,1.2-1.1,1.8s-.4.8-.7,1l-4.8,4.3h-.8c0-1.3,1.4-2.1,1.7-3.5-.5-1.1,2.3-3.3,3.3-2.8.6-.8,1.7-1.9,2.5-.8Z"/>
    <path class="st179" d="M157.5,41.1c1.1-.2,1.4,1.1.3,1.5.5.8.4,1.1-.6,1.1-.1.9-.4.8-.6,0-1-.1-2.1-1.8-2.3-2.8v-.8s.3-.4.3-.4c.7-.9,3.3.3,2.8,1.5Z"/>
    <path class="st140" d="M157.2,39c.9-.4,2.2,1.1,1,1.8,0,.9,0,.8-.7.4-.7-.7-1.8-1.1-2.8-1.5s-1.7-.7-2.1-1.4c0,0,.3,0,.5,0s.2-.1.2-.4c1.1-.4,2.9.4,3.8,1.2Z"/>
    <path class="st297" d="M157.1,36.8l.7.4c2.2,1.3,4.2,1.3,5,2.8l-2.4-.5c-.2.2-.4.5-.7.5-.5.2-2.7-1.6-3.2-2.2-.3.7-1.2.4-1.2-.3l-.3-.7h2Z"/>
    <path class="st126" d="M155.4,37.6l1.2.3c.8.4,1,.8.6,1.1-1.3,0-2.7-.5-3.8-1.2l-2.2-1.2v-.6c0,0,4.2,1.5,4.2,1.5Z"/>
    <path class="st22" d="M143.5,38.4l3.6.9c2.6.7,5,1.3,6.6,3.2.8,0,.8.6,0,.7-.3.9-.6.8-1.1-.3,0,0-.2,0-.3,0-.6-.7-1.6-1.9-2.8-2.2-2.6-.6-5.3-1.3-7.8-1.3l-.3-.8c.7-.2,1.5-.4,2.1-.2Z"/>
    <path class="st67" d="M156.1,43.9c1.2-.2,1.4,1.8,0,1.8-.5.5-.7.6-1.1,0-.9.2-.9,0-.3-.7-.9.1-1.2-1.1-1.1-1.8v-.7s.7-.4.7-.4c.8-.3,1.8,1.1,1.8,1.7Z"/>
    <path class="st197" d="M156.7,43.6c.3.7,0,.9-.6.3-.7-.4-1.4-1-1.8-1.7l-.2-.7c0-.2,0-.4,0-.6.1,0,.2,0,.4,0,1.1.6,1.6,1.8,2.3,2.8Z"/>
    <path class="st10" d="M149.1,32.8c-.6-.4-1.1-.8-1.8-1.4l-3.5-2.8c-1.5-1.2-3.5-1.8-4.1-3.7l8,6.1c.7.5,1.2,1.1,1.4,1.8Z"/>
    <path class="st113" d="M162.8,72c-.4.2-1.1-.2-1.4-.3l-3.8.4-3.9,2.2-2.5.8c-.7-.4-.4-1.1,1-1.9-.3-.9-.1-1.1.7-.6l4.6-1.9h5.1s0,1.1,0,1.1Z"/>
    <path class="st22" d="M141.1,38.6c-.8,0-1.6-.2-2.1-.7.8.1,1.7,0,2.1.7Z"/>
    <path class="st26" d="M151.8,60.6c.1.2.3.2.4.2v1.1c-1.2.5-2.5,1-3.9,1.4l-1-.4c-1,.1-1-.7,0-1-.2-1,.2-1.1.8-.3.9-.9,2.7-2,3.7-.9Z"/>
    <path class="st68" d="M151.3,59.5c.2,0,.4,0,.6,0v1.2s-3.7.9-3.7.9c-.6-.8,0-1.6.9-1.8.5-.9,1.7-1.2,2.3-.2Z"/>
    <path class="st45" d="M163.5,61.2v.5c-3.1.2-6.2.7-9.2,1.2l-.3-.5c-.6.7-1.3.8-1.7-.1-.7,0-.7-.3,0-.5l1.4-.6c2.2-.2,4.2-.5,6.3-1.1h3.3c.2.4,0,.7,0,1Z"/>
    <path class="st151" d="M163.5,61.2v1c0,0-.5.5-.5.5-3.2.2-6.3.5-9.4,1.4l-.6-.4c-.6-.9.2-1.1,1-1.2,1.5,0,3.1-.7,4.7-.8l4.8-.4Z"/>
    <path class="st301" d="M163.5,62.2v1.1s-.2.5-.2.5c-3.1-.2-6.2.2-9.2,1l-.5-.2c-.1.6-1.2.9-1.4.2-.8-.5-.4-.6.3-.8-.5-.5-.3-.7.3-.3,3.5-.6,7-1.4,10.6-1.5Z"/>
    <path class="st293" d="M163.5,63.3v1.1c-2.3-.5-4.7-.2-7.2.5s-1.9.1-2.7.5c-.9-.2-.9-.5,0-.8,1.8-.7,3.9-1.3,6-1.3h3.8Z"/>
    <path class="st188" d="M163.2,69.6c-1.8-.3-3.9-1-5.6,0l-4,2.1c-.6.7-1.2.9-1.7,0-.5-.8.1-1.5,1.8-2.2-.4-.8,1.3-1.3,1.7-.6,2.7-.9,4.9.2,7.7-.1.2.3,0,.7,0,.8Z"/>
    <path class="st282" d="M153.6,71.7l-.6,1c-.1.2-.5.3-.7.6-.7.9-4,3.1-5,3.1s-.5-.2-.8-.4c-.7-1,.6-1.8,1.5-2.3,0-.6.4-.9,1.1-1.1l2.2-1.4.7.5c.5-.2,1.2,0,1.7,0Z"/>
    <path class="st139" d="M153.4,66.8c0,.3.3.5.6.8l-2.1,1c-.6.9-2.2,2-3.4,1.4-.7.5-.8.4-.7-.4-.6-.1-.5-.3,0-.5.2-1.3,2.2-1.9,3.4-2,.7-.3,1.5-.1,2.2-.4Z"/>
    <path class="st178" d="M151.2,66.7v.4c-1,.6-2.1,1.8-3.3,2-.7.5-2.6,1.6-3.1.5-.7.1-.7-.2,0-.4,0-1.2,2.5-2.2,3.7-2.4s.3.1.4.3c.2-1,1.8-1.2,2.4-.5Z"/>
    <path class="st145" d="M153.7,64.5v.8c-1,.4-1.8.7-2.5,1.4s-1.8.2-2.4.5c-1,0-.9-.5,0-.8-.3-1.3,2.6-2.6,3.5-1.6l1.4-.2Z"/>
    <path class="st88" d="M160.4,47.4c.2.1.5.3.7.3-.3.7-.7,1.3-1.4,1.5-.1.8-1.4,1.4-1.9.6-.9-.8,0-1.6.8-2.1-.2-.9-.1-.9.7-.7.7-.8,1-.7,1.1.4Z"/>
    <path class="st229" d="M160.7,44.2l.3,1.2-.6,2.1c-.3-.2-.7-.3-1.1-.4-1,0-1.2-1-.3-1.5,0-.7.2-1.3,1-1.3-.1-1,.4-1,.8-.1Z"/>
    <path class="st95" d="M152.2,69v.5c.1,0-1.4.9-1.4.9.6,1-1.9,2.8-2.8,2.1-1.2.9-1.9.9-2.1,0-.7-1.1,1.7-2.4,2.6-2.4.9-.8,2.3-.9,3.4-1.4l.4.4Z"/>
    <path class="st222" d="M160.1,67.5c-1.6,0-3.4.3-4.6,1.5l-1.7.6c-1.2,1.2-2.1,1.5-2.9.8.2-.7.9-1,1.4-1.3,1.5-1,7.1-2.1,7.1-2.1.3.1.5.3.7.6Z"/>
    <path class="st42" d="M158.2,40.8c0-1,.5-.9.8,0,.5,1.2,2.2,1.4,2.4,2.8-.1.3-.4.6-.7.6h-.8c-.9.3-2-.7-2.1-1.6,0-.4-.1-1.1-.3-1.5.2-.3.4-.4.7-.4Z"/>
    <path class="st231" d="M160.4,39.5c.2.9,1.1,1.4,1.8,2.1l-3.1-.8h-.8c0-.8-.7-1.2-1-1.7l-.6-1.1c1.4.4,2.5,1.3,3.8,1.6Z"/>
    <path class="st49" d="M157.9,56.2l2.9.4c-.2,0-.7.5-1,.4-1.5-.4-2.5.4-3.7.8s-3,.5-4.4,1c-.9-.2-.9-.5,0-.7,0-.2,0-.4,0-.5.2-.5,4.9-1.7,5.7-1.8s.4.2.5.5Z"/>
    <path class="st144" d="M151.7,58v.7c0,0-.4.7-.4.7-.7,0-1.5.4-2.3.2-.6.7-.9.6-1-.3-1,.2-1-.2-.2-.8-.1-1,.4-1.1,1-.3.2-1,1.2-1,1.7-.2.3-.6.8-.7,1.1,0Z"/>
    <path class="st272" d="M159.7,50.4c-.6,0-1.3.6-1.8.9,0,.9-.4.9-.7,0-.5.4-1.4.7-1.6,0-1-.8.5-1.2,1.4-1.5.1-1,.6-.9.9,0l1.9-.6v1.1Z"/>
    <path class="st30" d="M159.4,54.8h.6c0,1-1.5.4-2,1.4-2.2-.3-4.2,1.1-6.2,1.8s-.9,0-1.1,0c-1-.3-.6-1,.3-.9l.3-.7c2.7-1.2,5.4-1.7,8.2-1.7Z"/>
    <path class="st18" d="M158,54.4c.5,0,1.1,0,1.4.4-2,.2-6,1.5-8.5,2.3-1.1,0-.9-.9,0-1.3.5-1.1,3.1-2,3.9-1.1.5-1.1,2.5-1.6,3.2-.4Z"/>
    <path class="st173" d="M158.6,53.1l.3.3c-.4.3-.9.5-.9,1.1-1.1,0-2.2.2-3.2.4-.8-.6-.5-1.1.3-1.4,0-.7,1.2-1,1.5-.3,0-1,1.8-1,2,0Z"/>
    <path class="st110" d="M157.9,51.3c1,0,2,.2,3.2,0s1.6,0,2.1.3c-1.6.9-3.7-.6-4.6,1.4h-2c-.7-.5-.7-.6,0-1.1-.3-.3-.1-.5.6-.6h.7Z"/>
    <path class="st53" d="M100.4,84.6c1.1.3.5,3.5-.5,3.7,0,.8-1.1,1.6-1.7,2s-2.5,1.4-3.2.7c-.5.2-1.5,0-2.1,0s-.8-.6-1.1-.9c0-.6,0-1.3-.2-1.9.2-.6.7-1.1,1.7-1.4l2.8-2.1,1.5.2c-.2-1.1,2.7-1.2,2.9-.2Z"/>
    <path class="st82" d="M102.9,88.1c1.8.7-.4,4.2-2.1,4.3l-3.8,5.2-1,1.6-.2-3.7c0-1.1-.5-1.8,0-3s-.2-1.3-.8-1.5l2.9-1.3c.7-.3,1.3-1.5,2.1-1.4.7-.8,2.2-.7,3-.1Z"/>
    <path class="st279" d="M111.2,85.2c.7,1.1-.6,1.7-1.6,2.1-.4,1.8-1.3,2.8-2.7,3-.9,1-2.1,1.7-3.1,2.5-1.1-.5-2.1-.3-3-.4.9-1.3,2.4-2.4,2.1-4.3,0-.7.3-.7.5,0,2.1-1.6,4.5-2.7,7.1-3.4l.7.5Z"/>
    <path class="st256" d="M116.8,82.2c.4,1.1-1.1,3-2.2,3.3l-3.8,3.2c-.9.7-1.8,1.2-2.3,2.1-.5-.3-1-.4-1.6-.5l1.3-1.6c.4-.5.4-1.9,1.3-2.1s1.3-.8,1.7-1.4c-.5-.9.3-1.8,1.3-1.5.1-1.3,3.6-2.5,4.3-1.4Z"/>
    <path class="st208" d="M152.3,73.4c-.4.6-1,1.1-1,1.9l-3.3,2.8c-1-.1-1.7.7-2.5,1.1,0-.8.2-1.5.4-2.3-.7-.7-.3-1.2.6-.9l5.8-2.6Z"/>
    <path class="st162" d="M148,73.7c-.1,1-1,1.5-1.5,2.3s-.4.7-.6.9l-3.2,1.7-1.7.5-.3-.8,3.4-3.2c-.4-1,1.8-2.1,2.4-1.3.8-.6,1.3-.7,1.4-.1Z"/>
    <path class="st25" d="M144.2,75.1c0,.6-.3.9-.8,1.4l-2.3,2.5c-.3,0-.8.4-1.1.7-1,0-2.4.7-3.1,1.2.3-.7.8-1.3,1-2,.4-1.5,2.8-2.7,4.2-3.4.5-.6,1.5-1.3,2.1-.5Z"/>
    <path class="st174" d="M152.6,46.1c.4.6.2.8-.4.3-.8,1-2.1,1.5-4.1,1.3l-4.2,1.2c-1.3.2-2.2,0-2.5-1-.3.9-1.7.7-1.8-.3v-.6s.4-1,.4-1c-.4-1,3.2-1,3.8-.9.9.6,1.8.9,2.7,1,0-.8.4-.9,1.1-1,1.5-.1,3,0,4.4.2-.2-.5-.1-.7.3-.6h.4c1.4-.5,1.3,1.1,0,1.4Z"/>
    <path class="st32" d="M139.6,47.6c.6,0,1.2.2,1.8.3,1,.3,1.2,1.2.2,1.7-.6,1-3.6,1.6-4.5.8l-2.1-2.2c1.3-1.1,2.9-.5,4.5-.5Z"/>
    <path class="st255" d="M152.2,44.7c0,.3,0,.5-.3.6-.5,0-1,0-1.6-.6h-2.5c-1.1-.5-2.2-.6-3.4-.1-.9.4-2-.2-2.4-1.1-.1-.6.3-.8.7-1,1.8-.8,3.4-.3,5.4.1s3.3.2,4,2Z"/>
    <path class="st33" d="M142.1,43.6c.8,0,1.8.4,2.4,1.1.9-.4,1.7.7,1.9,1.5-.9.3-1.3.1-2.5-.3l-4,.2-2.1-2,4.3-.4Z"/>
    <path class="st43" d="M142.1,75.1c.7,0,.7.3,0,.5-1.2,1.4-2.6,2.6-4.2,3.4l-2.9,1.3c.6-.7,1.2-1.4,1.4-2.2-.5-.9.6-1.6,1.3-.9,1-1.1,3-2.8,4.3-2Z"/>
    <path class="st147" d="M97.5,84.8c-1.6.1-3.6,3.1-5.9,3.3-.6-1.3-.2-2.5-2.1-3.4,1,0,1.3-.7,1.7-1.6l1.6-1.5h.3c1.8.4,3.2,1.5,4.3,3.2Z"/>
    <path class="st121" d="M110.4,78.3c.5,1-.2,1.6-2.1,1.8,0,.3,0,.7,0,.8-.8.4-3.6,1.4-4.2.5l-.5.7c-1.4.2-5.6,0-5.5-1.7,0-.6.3-2,1-2s1.4-.3,2.3-.4,1.9,0,2.8-.2c1-.8,2.7-1.1,3.7-.2,1.3-.3,2.2,0,2.6.7Z"/>
    <path class="st96" d="M98.1,80.5c1.8,1.1,3.9,1,6,1,1.1.4.3,1.6-.6,1.9.5,1-2.4,2.1-3,1.2l-2.9.2c-1.1.3-1.4-.6-2-1.3s-1.9-1-2.3-2c1.7-.3,3.3-.6,4.9-1Z"/>
    <path class="st13" d="M124.2,78.7l.3.8-2.3,2.2-4.3,2.7c-1.7,1-2.3,1.8-3.2,1.2.5-1.3,1.3-2.3,2.2-3.3-.7-.8-.2-1.1.7-.6l4.7-2.8c.8-.5,1.5-.5,2,0Z"/>
    <path class="st271" d="M129.6,75.2c1.2-.6,2-.6,2.3,0v1c-1.7,1.5-3.4,2.5-5.3,3.1l-4.5,2.4c.5-1.1,1.4-1.9,2-2.9v-.8c1.5-1,3.1-1.9,4.8-2.7,0-.9.3-.9.6,0Z"/>
    <path class="st152" d="M135.1,75.2l-.2.8c-.3.3-3.5,2.3-3.7,2.2s-.3-.2-.4-.3l-4.2,1.9v-.5c1.8-.9,3.3-2.7,5.3-4.1.4-.8,2.7-1.9,3.5-1.4,1,.5.6,1.1-.4,1.5Z"/>
    <path class="st73" d="M137.5,74.8v.8c-.8,1.1-4,3.4-5.3,3.4l-1.7.7c.2-.6.4-1.2.3-1.9,1.5-.7,2.5-2.3,4.3-2.7.4-1,1.9-1.5,2.4-.4Z"/>
    <path class="st34" d="M141.6,49.5c.2-1,.4-.9.8,0,.8.5.7,1.5-.2,1.8-.1,1-1.7,1.4-2.2.3-.7.9-3.7,1.6-4.2.4l-.7-1.4c.7,0,1.4-.2,2.1-.3,1.4-.2,2.3-.7,4.5-.8Z"/>
    <path class="st28" d="M134.7,52c1.1,0,.9,1.6,0,1.8-.2.9-2,1-2.9,1.1-1.5.3-2.5,0-3.1-.7-.1-.2-.3-.5-.6-.5.1-1,1-1.1,1.7-1.5,2.2.6,3.2-.1,4.9,0Z"/>
    <path class="st27" d="M139.9,51.6c.9.4.7,1.1-.3,1.1.2,1.3-2.8,1.9-3.9,1.4-.5.5-1,.3-1.1-.4v-1.8c0,0,1.1,0,1.1,0,1.4,0,2.8-.5,4.2-.4Z"/>
    <path class="st84" d="M116.8,73.4c.8.4.6.7-.3.5l-1.1,1c-1.4.7-8.9,2.5-10.3,2.4s-.2-.2-.3-.3c-.6,0-.8-1-1.1-1.4-.9-.1-2-1-2.8-1l.4-.7c1.2,0,2.3.3,3.5,0,3.6-.6,7.4-.9,11.3-1l.8.5Z"/>
    <path class="st238" d="M115.6,76.2c.3.8-.3,1.4-1.8,1.9-.9.4-3.1,1.3-3.4.2h-2.8c-.3,0-1-.8-1.4-.8l-2.1.3c0-.4.4-.8.7-.9l4.3-1c1.1-.3,1.9-.5,3-.9l4.4-1.2c.6.9,0,1.8-.9,2.3Z"/>
    <path class="st181" d="M129.1,62.5c.6-.2.8,0,.2.5.5,1.1-.4,1.7-1.3,1-.6,1.3-2.6,1.8-3.8,1-1,1-3.2,1.6-3.9.2l-.9-.3c.1-.6.6-1.1.9-1.7.6-.2,1.4-.3,2.1-.3,0-.3.2-.5.5-.5,1.9-.3,3.8-.6,5.8-.6l.5.7Z"/>
    <path class="st303" d="M124.2,64.9c1,.8-.4,1.7-1.4,1.9l-.7.7c-.5.1-6.8.8-7.2.6s-.5-.5-.6-.7l-.5-.7c.7,0,1.6.2,2.3-.2,1.3-.8,2.7-1.3,4.1-1.4s2.6,0,3.9-.2Z"/>
    <path class="st168" d="M119.9,70.8c.4.2.7.5.3.9l-2.3,1.4c.2,1-.5,1.2-1.1.4-1.8.6-3.9.5-6.1.3l-2,.4c-1.4-.3-2.7-.6-3.9-.2-.1-.1.2-.5.3-.5,1.6.5,2.4-.7,3.5-1.1,0-.3,0-.5.2-.5,3.1-.6,7.4-1.3,10.6-1.6l.6.6Z"/>
    <path class="st94" d="M122,68.6c.8-.6,1.6.1,1.1,1,.2,1.1-2.6,2.1-3.2,1.2l-4.9.8c-2.1.4-4.4,0-6.4.7-.2-.3-.4-.6-.5-1,2.6,0,5.8-1.3,8.6-2-.4-1,4.4-1.4,4.7-1.4s.4.4.6.6Z"/>
    <path class="st129" d="M122.8,66.8c.8-.7,2.3-1.3,2.7,0,.3.1.3.2,0,.4-.1,1-2.7,1.8-3.5,1.4l-5.2.7c-3-.4-6-.1-8.2-1,.5-.8,1.5-.4,2.2-.5,1.5-.2,2.5-.5,3.7-.4,2.1.2,4.3-.6,6.6-.6s1.2,0,1.9,0Z"/>
    <path class="st21" d="M123.2,59.7c.7-.8,4-.4,4.2.8-.1.8-.7,1.3-1.7,1.4-1.4.5-2.5.5-3.3,0-2,.1-3.8-.3-5.7-.5.8-.5,1.6-1,2.3-1.6h4.1Z"/>
    <path class="st177" d="M129.8,60c1-.3,1.3-.2.9.9,1.1.9-.7,2.3-1.7,1.7h-3.1c-1.3.2-2.4.5-3.6.4v-1c1.8-.1,3.5-.7,5.1-1.3.2-1.2,1.7-1.3,2.4-.6Z"/>
    <path class="st114" d="M139.2,74.8c.2.7-.3,1.5-1.5,2.2l-1.3.9-3.4,1.5-.9-.5,5.3-4.2c0-.7.3-.7.5,0,.7-.5,1.1-.4,1.3,0Z"/>
    <path class="st284" d="M153.7,43.2c.7.2,1,1.2,1.1,1.8,0,.7-1.7,1.9-2.2,1,.4-.4.5-1,0-1.4.2-.6.2-1.2,0-1.8l1.1.3Z"/>
    <path class="st16" d="M134.6,53.7c.4,0,.8.2,1.1.4.3.1.3.2,0,.4.2,1-.9,1.4-1.7,1.1,0,.9-4.4,1.2-4.7,1s-.5-.4-.7-.7c0-.2-.2-.4-.4-.4,0-.5.1-1,.4-1.4h2.9c1.1,0,2.1-.5,3.1-.4Z"/>
    <path class="st76" d="M134,55.5c1-.3,1.3.4.6,1.1.1,1.4-2.9,1.6-4.1,1.5-.3.9-1.4.8-1.8,0v-.5c0,0,0-1.6,0-1.6,2,0,3.6-.4,5.3-.3Z"/>
    <path class="st244" d="M128.8,58c.5,0,1.2-.1,1.8,0,.9-.4,2-.1,1.3,1-.2,1.1-1.1,1.3-2,.9-.7.4-1.7.3-2.4.6l-4.2-.8.2-.8c1.8-.5,3.6-.9,5.4-.9Z"/>
    <path class="st17" d="M160,44.3c0,.6-.4,1.3-1,1.3,0,1-.8,1-1.1,0-.8-.4-1.1-1.2-.6-2,0-.4.4-.8.6-1.1.9.3,1.8.9,2.1,1.7Z"/>
    <path class="st269" d="M157.3,43.7c.5.6.7,1.3.6,2,.6.9-.7,1.7-1.4,1,0,.8-.4.8-.6,0-1-.3-.5-1,.4-1,.2-.6.3-1.2,0-1.8.2,0,.4-.1.6-.3h.6Z"/>
    <path class="st277" d="M156.2,45.7l-.4,1c.6.9-1.5,2.1-2.2,1.4-.2.7-.4.9-.7.2-.9.1-.9,0-.4-.7-.3,0-.3-.2,0-.3-.5-.9,1.9-2,2.5-1.7.4-.1.7-.4,1.1,0Z"/>
    <path class="st281" d="M155.1,45.7c-1,.4-1.6,1.1-2.5,1.7-.3.4-.7.5-.7,0-.4-.3-.3-.6.3-1,.2,0,.3-.2.4-.3.9,0,1.5-.4,2.2-1,0,.2.3.5.3.7Z"/>
    <path class="st209" d="M152.3,61.8v.5s0,.8,0,.8c-1.1.2-2.1.5-3.1.9-.4.9-1.6.9-2.1.1-.9-.2-.9-.6,0-1.1,0-.3.2-.3.4,0,1.6-.6,3.3-.9,5-1Z"/>
    <path class="st287" d="M146.3,60.7c.8,0,1.8.2,1,1.2v1c0,0-.3,0-.4,0-.2.9-1.2,1-1.7.3-.8.1-1.4-.2-1.4-1-.4-.8-.3-1.2.6-1.1,0-1,1.3-1.2,1.9-.5Z"/>
    <path class="st58" d="M149,59.7c0,.8-.5,1.2-.9,1.8l-.8.3c0-.7-1.2-.1-1-1.2-.4-1,.8-1.8,1.7-1.2.4-.1.7.2,1,.3Z"/>
    <path class="st185" d="M153.9,62.4c-.2.6-.6.9-1,1.2l-.3.3c-.6.6-2.6,1.1-2.9,0-.3.3-.5.4-.6,0,.1-.4.5-.8,1.1-1l2-.7c.5-.2,1.2.1,1.7.1Z"/>
    <path class="st115" d="M152.6,64l-.3.8c-1.3.2-2.6.6-3.5,1.6,0,.7-1.2.9-1.4,0-1.1-1.3,1.2-2.1,2.4-2.5h2.9Z"/>
    <path class="st295" d="M153.7,69.5l-1.8,2.2c-1.4.6-2.5,1.9-3.9,2h-1.4c-.6-.5-.2-1,1.4-1.3.4-.4.8-.5,1.3-.9l1.5-1.2c1-.3,2-.5,2.9-.8Z"/>
    <path class="st158" d="M147.9,69.1v.5c-.5,1.1-3.4,3.3-4.4,2.1-.5.8-1.6,1.5-2.1.4-.7-.5-.4-1,.8-1.5-.3-1,2-1.9,2.6-1l3.1-.5Z"/>
    <path class="st35" d="M148.5,70l-2.6,2.4c.2,1-1.6,1.5-2.1.7-.6.7-1,.7-1.1,0-.4-.6-.1-1,.7-1.4,1.6-.3,2.8-1.4,4.3-2.1.2,0,.5.2.7.4Z"/>
    <path class="st294" d="M148.8,66.4v.8s-4.1,2.1-4.1,2.1c-.9,0-1.1-.3-.5-1-.2-.9.6-1.4,1.4-1.4.3-.9,1.3-1.2,1.8-.3h1.4Z"/>
    <path class="st292" d="M144.7,69.2v.4s-2.6,1-2.6,1c-.6.9-1.1,1-1.4.3-1.1-.4-.3-1.6.7-1.7.1-.8,2.3-1.8,2.8-1.1.2.3.5.7.5,1Z"/>
    <path class="st235" d="M159,45.6l.3,1.5c-.1.3-.4.6-.7.7-.4,1.1-1.9,1.7-2.4.4-.6-.6-.5-1.1.3-1.4l1.4-1h1.1Z"/>
    <path class="st221" d="M158.6,47.8c-.1.8-.5,1.4-.8,2.1h-.9c-.5.3-.9.4-1.1,0-1.1-.2-.8-.9,0-1.4-.4-.5-.2-.7.4-.3.8,0,1.7,0,2.4-.4Z"/>
    <path class="st3" d="M145.9,72.4h2.1s-1.4,1.5-1.4,1.5l-2.4,1.3c-.6.3-1.4.5-2.1.5v-.5c-.2-.9.4-1.6,1.7-2l2.1-.7Z"/>
    <path class="st259" d="M147.8,58.7l.2.8c-.7.2-1.1.8-1.7,1.2s-1.3.3-1.9.5c-.8.2-.8,0-.6-.7-.8-.6-.7-.9.3-.7.3-1,2.2-1.8,2.9-1-.1-1,.4-1,.8,0Z"/>
    <path class="st288" d="M150.9,57.2l-.3.9c-.5.1-1.2.3-1.7.2-1.1-.3-.8-1.5.3-1.4-.5-.9-.3-1.2.6-.7.3-.5.9-.9,1.1-.3v1.3Z"/>
    <path class="st48" d="M149.1,56.9c-.2.4-.3.9-.3,1.4-.3,0-.7.3-1,.3h-.8c-1.1.2-1.4-1.6-.2-1.7.2-1.1,2-1.3,2.3,0Z"/>
    <path class="st117" d="M157.1,51.3c0,.3-.3.5-.6.6v.2c-1.5.8-3.2,1.4-5,1.9-.8.6-1.4.8-2,.7-.2,1-.9,1-1.2,0l-.3-.4c.7-.6,1.5-1.1,2.4-1.4,0-.2,0-.4,0-.5,0-.2,3.7-1.4,4.3-1.5l.7.4c.4-.2,1.2,0,1.6,0Z"/>
    <path class="st89" d="M156.9,49.9c-.5.4-1.2.8-1.4,1.5-1.8.9-3.2.7-5,1.6-.5.4-1.6,1-2,.5-.7,0-.6,0,0-.4,0-.2,0-.3,0-.4.3-.4,6.1-3.1,6.7-3.2s.5.2.7.4c.3-.1.8,0,1.1,0Z"/>
    <path class="st296" d="M155.1,53.4c0,.5,0,1-.3,1.4l-2.6.6c-.5.1-.8.9-1.3.4l-1.1.3c-.7-.2-.6-.5,0-.5.1-1.5,3.3-2.3,4.7-2.6s.3.1.5.3Z"/>
    <path class="st300" d="M156.6,52c.2.4.2.8,0,1.1l-1.5.3c-1.1.2-2.4.6-3.6,1l-1.7,1.3c-1,.2-1.1-.3-.3-.9,1-1,2.5-1.2,3.9-1.7l3.1-1.2Z"/>
    <path class="st253" d="M107.6,83.7c0,.8-.5,1.7-1.4,2.4l-2.9,2c-.1,0-.4,0-.5,0-.9.5-2,.3-3,.1l.5-3.7,3-1.2c.5-1.5,4-1.1,4.2.3Z"/>
    <path class="st205" d="M112.3,81.9c1.1,0,1.1,1.4.1,1.8-.3.5-1,1.1-1.3,1.5l-7.8,3c.3-1.2,1.5-1.6,2.4-2.5s1-1.7,1.9-2c0-1.3,3.8-2.8,4.7-1.8Z"/>
    <path class="st236" d="M123.1,76.9c.4.6.2,1.1-.6,1.6l-5,3.1c-.3.1-.5.4-.7.6-1.4.2-3.1,1-4.3,1.4v-1.8c-.3-.3-.4-.6-.3-.9.2-.8,3.5-1.7,4.4-1.9-.2-1,2.2-2.4,2.8-1.3.6-.4,2-1.2,2.8-1.3s.7-.1,1.1.5Z"/>
    <path class="st61" d="M151.9,45.3c-1.4,1.3-2.8-.2-5.5.8-1-.2-1.4-1-1.9-1.5.3-.9,1.4-1.4,2.3-.9,2.2,1.2,3.6-.9,5.1,1.6Z"/>
    <path class="st149" d="M152.2,46.4c-.1.4-.2.7-.3,1-.3.8-1.3,1.2-2.9,1.1l-3.7,1.1c-1.5.8-2.5.8-2.9,0-.2,0-.5,0-.8,0l-.2-1.7c1.2.2,2.7.7,4,0s3.3-.9,5.2-.8,1.2-.6,1.7-.7Z"/>
    <path class="st106" d="M143.8,73.1c-.4.7-1.1,1.6-1.7,2l-4.3,2c.2-.9,1-1.5,1.5-2.2.2-1,2.6-2.4,3.5-1.8.3,0,.8,0,1.1,0Z"/>
    <path class="st50" d="M121.7,75.5c.7.8.1,1.3-1.7,1.8l-.7.5c-1,.2-1.8,1-2.8,1.3-2.6,1.2-5.2,1.7-7.8,1.8l-.5-.7c.6-.7,1.6-.9,2.1-1.8,1,0,4.4-1.1,5.2-2.1.1-.3.3-.7.6-.9.6-.4,3.9-1.3,4.3-.4,1-.2,1.4,0,1.2.6Z"/>
    <path class="st66" d="M116.5,79.1c-1.7.6-3.1,1.3-4.2,2.8l-2.5.8c-.8.3-1.4.8-2.2,1-1.5-.3-2.9-.8-4.2-.3l.6-1.9,4.3-1.3h3.1c1.1-.4,1.7-.5,2.9-.6s1.5-.8,2.3-.4Z"/>
    <path class="st93" d="M129,75.2c-.1.6-.7.8-1.2,1.2l-3.6,2.3c-.8.5-1.8.7-2.8,1.1l-3.9,1.8c1.8-2.1,4.3-3,5.6-4.7,0-1,2.7-2.4,3.1-1.2,1.3-.8,2.2-1,2.8-.5Z"/>
    <path class="st280" d="M136.8,71.3c.9-.4,1.3.7.4,1.2.6.9-1,2-1.7,1.3-1,.7-2.2,1.4-3.5,1.4h-2.3s.2-.9.2-.9c1.5-1,3.2-1.9,4.9-2.6,0-.9,1.7-1.4,2.1-.4Z"/>
    <path class="st243" d="M134,71.7c.4-.4.6-.4.7,0-.2.9-1.1,1.1-1.9,1.6-1.1.7-2,1.4-3.1,1.9h-.6s-2.8.5-2.8.5c-.3-.7,0-1.2,1.1-1.6l2.5-1.3c.2-1.1,3.5-2,4.2-1Z"/>
    <path class="st5" d="M142.1,70.6l-.8,1.5c0,1.2-2.3,2.3-3.4,2.7,0,0-.3,0-.5,0l-2.4.4.4-1.5,1.7-1.3c.5-1.2,2.3-2.1,3.5-1.5.4-.2,1-.1,1.4-.3Z"/>
    <path class="st227" d="M152.6,47.5v.3s0,.4,0,.4c-2.9,1.4-6,2.5-9.2,3.2,0,.9-1.2.9-1.3,0,0-.6,0-1.2.2-1.8,1.3.4,4.5-1.1,6.5-1.5s2.2.3,3-.6h.7Z"/>
    <path class="st108" d="M142.1,51.3h1.3c.8-.4,1.1-.3,1.1.3.6.1.5.3-.3.6,0,.9-1,1.2-1.8.9-.7,1.1-2.8,1.1-2.8-.4l.3-1.1c.7,0,1.5-.4,2.2-.3Z"/>
    <path class="st241" d="M142.5,53.1c.5.3.3.8-.7,1.4.6.7.3.9-.5.4,0,1.1-1.7,1.5-2,.3-1.2.6-3.2.9-3.6-.7v-.4s3.8-1.4,3.8-1.4c.8.6,1.9.3,2.8.4Z"/>
    <path class="st122" d="M126,70.9c1.1,0,.9,1,0,1.3l-.2.9c-1.7,1.3-3.4,2-5.2,2l-4.9,1.2c0-.9.5-1.6.9-2.3l.3-.5,1.1-.4c1.6-1.2,3.4-1.8,5.6-2,1-.5,1.8-.5,2.5-.2Z"/>
    <path class="st1" d="M135,62.9c.3,1-2.1,2.2-2.8,1.4,0,1.1-3,1.7-3.4.7-.9.2-1.2-.3-.8-1.1.6-.2,1.1-.6,1.3-1,.7-.6,2.2-1.6,2.9-.6l2.5-.4c.5,0,.5.5.3,1Z"/>
    <path class="st87" d="M128,63.9c.3.3.6.6.8,1.1.5,1.4-2.1,1.9-3.2,1.7h-2.7c0,0,1.4-1.8,1.4-1.8,1.3-.3,2.6-.6,3.8-1Z"/>
    <path class="st12" d="M136.4,60.1c.3,0,.3.2,0,.4.1.3,0,.5,0,.8-.2.4-3.4,1.2-4.2,1-.9.4-1.9.8-2.9.6l-.2-.5c.7,0,1.3-1,1.7-1.7,0-.3,0-.7.2-.7,1.1-.3,3.4-.4,4.3,0,.2-1,.7-.8,1.1,0Z"/>
    <path class="st192" d="M128.3,68.5c.8.4.5,1-.9,1.8,0,1-.6,1.1-1.4.6-1.5,1-5.7,1.4-8.1,2.2.5-1.3,1.8-1.4,2-2.3l3.2-1.2c-.5-1,4.3-1.8,4.5-1.7s.5.3.6.6Z"/>
    <path class="st130" d="M131.1,66.7c.7,0,.7.2,0,.5.3,1.1-2.3,2.1-2.9,1.3l-5.2,1.1-1.1-1c1-.9,2.3-1.2,3.5-1.4l3-1.1c1.2-.3,2,0,2.6.7Z"/>
    <path class="st246" d="M132.5,65.8c.6,1-.7,1.4-1.4,1-1.9,0-3.7,0-5.6.4v-.4c1.3,0,2.2-1.1,3.2-1.7l3.4-.7c1-.2,1.2.9.3,1.4Z"/>
    <path class="st62" d="M134.8,58.3c1-.3,1.4,1.4.5,1.8-.6.6-1.5.4-2.4.5l-2.2.2c-.2-.4-.6-.6-.9-.9.6-.3,1.3-.8,2-.9.2-1,2.3-1.7,2.9-.8Z"/>
    <path class="st90" d="M143.5,71.7c0,.6-.4,1-.7,1.4-1.1.7-2.2,1.4-3.5,1.8s-1,.2-1.3,0c.8-1.1,2.7-2.6,3.4-2.7l2.1-.4Z"/>
    <path class="st283" d="M139.3,55.2c.2,1.3-1.7,2.4-2.6,1.3,0,1-1.9,1.1-2.2,0l-.6-1.1c.4-.6,1.1-.8,1.7-1.1,1.1.4,2.3.7,3.6.7Z"/>
    <path class="st127" d="M134.6,56.6h2.2c1-.2,1.4.2.7,1-.1.9-2.2,1.5-2.7.7-1,.3-1.9.7-2.9.8-.2-.5-.8-.8-1.3-1,0-.7.8-.4,1.2-.5l2.9-1Z"/>
    <path class="st154" d="M156.5,46.7c0,.5,0,1-.3,1.4,0,.1-.2.3-.4.3-.1,1-1.8,1.9-2.5,1.2-.8-.5-.3-1,.3-1.5l2.2-1.4h.6Z"/>
    <path class="st52" d="M153.3,49.6c0,.2.1.3,0,.5,0,.2-4,2-4.2,1.9s-.3-.2-.4-.4c-1.1.7-3.7,1.8-4.5.5l.3-.6c.7-.8,1.8-1.3,3.1-1.4,1.8-.7,3.6-1.3,5.3-1.8.2,0,.5-.1.7-.2,0,.5,0,1-.3,1.5Z"/>
    <path class="st92" d="M152.9,48.4c-2.6,1.4-5.5,2.8-8.4,3.2-.3,0-.7-.2-1.1-.2.9-1,2.2-1.5,3.8-1.6l2.3-.8c1.3,0,2.3-.3,3.1-1.2.2.2.4.5.4.7Z"/>
    <path class="st123" d="M149.2,64h.6c-.4,1.1-1.9,1.3-2.4,2.5-.6,0-1.2.4-1.8.3-.6.8-1,.5-.7-.4-1-.5-.2-1.4.8-1.3-.5-.9.6-1.6,1.4-.9.6-.3,1.5-.1,2.1-.1Z"/>
    <path class="st14" d="M146.9,62.9c0,.3,0,.7,0,1.1l-1.4.9c-.7.7-2,.9-2.8.4-.8.7-1.1.6-.5-.4-.6-.7-.4-.8.4-1-.4-1,1.8-1.5,2.5-.8.5-.2,1.1-.4,1.7-.3Z"/>
    <path class="st41" d="M143.8,60.4c.3,0,.6.3.6.7-.1.4-.3.7-.6,1.1-.3,1-1.7,1.6-2.5.8-.7.7-.9.6-.7-.4-1.1-.4-.3-1.9.7-1.4-.2-1.1,1.9-1.7,2.4-.8Z"/>
    <path class="st260" d="M143.8,62.2c.6,0,1.2.5,1.4,1l-2.5.8c-.4.9-1.8,1.1-2.2,0-.6-.7-.1-1.4.8-1.1.8-.2,1.6-.7,2.5-.8Z"/>
    <path class="st204" d="M144.8,66.3l.7.4c-.1.8-.8,1.1-1.4,1.4-.9.5-1.8,1.1-2.8,1.1-.4.5-.6.7-.7,0-1.2.2-1.1-.9,0-1.1-.6-.9,0-1.4.8-.7.8-.9,2.5-2.2,3.4-1.1Z"/>
    <path class="st203" d="M140.6,69.2h.7s-.7,1.7-.7,1.7c-1.1.6-2.3,1.1-3.5,1.5l-.4-1.2c-.2-.2-.3-.6-.1-.7.9-.6,3.5-2.2,4-1.3Z"/>
    <path class="st57" d="M155.8,49.9l-4.6,1.7-2.8,1.4c-.7.7-2,1.5-2.6.4-.2-.7.4-1.1,1.9-1.3l.9-.5c1.3-.1,3.4-1.5,4.6-2l2.5-1.2v1.4Z"/>
    <path class="st155" d="M144.1,59.7c0,.2-.3.5-.3.7l-2.4.8c-.7.8-1.4.2-1-.7-1.1-.8.4-1.9,1.3-1.3.6-.5,1.9-1.1,2.5-.4,1.1,0,.8.7,0,1Z"/>
    <path class="st190" d="M146.8,57c0,.6,0,1.2.2,1.8-.9.4-1.9.8-2.9,1v-1c-.7-.4.2-1.8,1-1.4,0-1,.7-1.2,1.2-.3.2-.3.3-.3.5,0Z"/>
    <path class="st211" d="M149.5,54.8c0,.3.1.6.3.9v.5c-.4,0-.6.4-.7.7-.8,0-1.6-.3-2.3,0s-.4,0-.5,0c-.9-.5-.3-1.4.7-1.2,0-.7.7-1.4,1.4-1h1.2Z"/>
    <path class="st107" d="M150.5,53c-.2.9-1.4.6-2.1,1.9s-.9.7-1.4,1c-.9.3-1,0-.3-.6-.9-1.3.5-1.7,1.7-1.7.6-.3,1.5-.2,2-.5Z"/>
    <path class="st286" d="M148.5,53.1v.4c-.7.4-1.5.9-1.7,1.7-.3,1-1.6,1.2-2.2.4-1-.3-.7-1.6.3-1.8-.2-1,.6-1.1,1.1-.3.8-.2,1.8,0,2.6-.4Z"/>
    <path class="st2" d="M129.2,72.7c.3-.4.5-.4.6,0-.8,1.3-2.3,1.9-3.5,3-1.1.2-2,1-3.1,1.2l-3.8.9c.2-1.1,1.7-.8,2.4-2.2,0-.2,0-.5.2-.5,1.1-.6,5.9-2.9,6.8-2.8s.4.3.5.6Z"/>
    <path class="st165" d="M130.1,71.3c.7.5.5,1-.9,1.5-2,.1-4.2,2.1-7.5,2.8l-1.2-.6c2-.5,3.5-2,5.4-2.8.3-1.1,3.5-1.9,4.2-.9Z"/>
    <path class="st245" d="M140.7,68.1c-.2.3-.3.7,0,1.1-.8,0-1.3.7-2,1.1l-1.9.9-2.1.4c-.2,0-.5,0-.7,0-.6-1.1.3-1.9,1.4-1.7-.3-1.2,3.3-2.4,4.1-1.7-.1-1.1.8-1.1,1.1-.1Z"/>
    <path class="st202" d="M133.9,69.6c.7-.8,1.5-.8,1.5.4-.5.4-1,1.2-1.4,1.7l-4.2,1h-.6s.9-1.4.9-1.4c0-1,3.2-2.8,3.8-1.7Z"/>
    <path class="st64" d="M148.7,51.7c-.3,1.2-1.8,1-2.8,1.8l-1.1.3c-.2,1.1-2.1,1.3-3.1.8.3-.4.4-1.1.7-1.4.4-.5,1.1-.9,1.8-.9l4.5-.5Z"/>
    <path class="st142" d="M144.8,53.7l-.3,1.8c.4.8.1.9-.7.7-.2,1-.9,1-1.2,0-.9.5-1.3.5-1.4,0-1.1,0-.9-.9,0-1.3l.5-.4c.8-.7,2-.5,3.1-.8Z"/>
    <path class="st78" d="M141.3,56.2c-.5.9-1.8,2-2.8,1.4-.2,1-.9.9-1.1,0l-.7-1.1c.9,0,1.8-.8,2.6-1.3.5-.1,1.5.1,2-.3v1.3Z"/>
    <path class="st19" d="M134.7,68.4c.5.9.1,1.2-.9,1.2-1.4.1-2.4,1.4-3.8,1.7l-4.2.9v-1.3c.5-.3,1-.4,1.5-.6,1.1-1.3,5.1-2.7,6.7-2.6s.5.4.6.7Z"/>
    <path class="st175" d="M136.5,62.9c.8-.8,1.8-.9,1.3.4.7.7-.1,1.5-1,1,0,.2.1.3.1.5,0,.3-4.1,2-4.4,1l-.3-1.4,2.8-1.4c-.1-1.1,1.3-1,1.5,0Z"/>
    <path class="st47" d="M138.3,60.8c.6,1-.8,2-1.8,2.1h-1.5c-.7-.7-2,0-2.8-.6l4.3-1.8c.6-.5,1.7-.6,1.9.3Z"/>
    <path class="st157" d="M137.4,57.6h1.1c.7.3.8.4.4,1.1.4,1.3-1.6,1.9-2.6,1.4-.3.1-.8,0-1.1,0l-.5-1.8c.9-.3,1.7-.7,2.7-.7Z"/>
    <path class="st215" d="M139.6,58.7c1.2-.7,1.9-.8,2.2-.1,1,0,.9.3,0,.6-.5.2-1.2.8-1.3,1.3,0,1.2-1.7,1.5-2.1.4-.6,0-1.4-.2-1.9-.3v-.4c.9-.4,1.8-.8,2.6-1.4.2-.7.4-.7.6,0Z"/>
    <path class="st125" d="M135.4,67c.9.4.5.7-.2,1.2,0,.3-.1.4-.4.2-.7-.2-1.3,0-2,.2l-5.3,1.6.9-1.8,2.9-1.3c.9-.8,3.5-1.4,4.2-.2Z"/>
    <path class="st237" d="M137.9,65.2c.7.1.6.4,0,.5.4,1.1-1.8,1.8-2.4,1.2l-4.2.2v-.5c.5,0,.9-.8,1.3-1,.7,0,1.3-.5,2.2-.8l2.2-.7c.9-.4,1.1,0,1,.9Z"/>
    <path class="st273" d="M145.6,65l-.8,1.3-3.4,1.1c-1.1-.8.4-2.1,1.4-2.1.7-.5,2-.7,2.8-.4Z"/>
    <path class="st101" d="M142.8,64c0,.3,0,.9-.4,1-.2.8-1,1.6-1.7.8-1.4,1-2.4,1-2.9,0v-.5c-.6-1.2,2.3-2.3,2.8-1.2.6-.2,1.5.1,2.2,0Z"/>
    <path class="st79" d="M142.9,65.4c-.7.5-1.1,1.4-1.4,2.1-.3.1-.6.4-.8.7-.3,0-.8,0-1.1.1-1,.3-1.1,0-.6-.8-.5-.8,0-1.4,1.7-1.7l1.7-.8c0,.3.3.4.5.4Z"/>
    <path class="st100" d="M141.4,61.2c-.3.2-.7,1-.7,1.4-.3.9-2,1-2.8.7-.3-.5-.9-.4-1.3-.4.4-.8,1.2-1.4,1.8-2.1.7,0,1.4,0,2.1-.4l1,.7Z"/>
    <path class="st290" d="M140.7,62.5c.2,0,.4.3.7.4-.2.3-.4.8-.8,1.1-.9.2-2,.5-2.7,1.2-.4-.2-.7-.6-1-.9l1-1c.7-.7,1.9-.8,2.8-.7Z"/>
    <path class="st176" d="M145.2,57.3l-1,1.4c-.8.4-1.7.2-2.5.4v-.6c0-.8,1.3-1.6,2.1-1.6.4-1.2,1.9-.9,1.4.3Z"/>
    <path class="st120" d="M146.7,55.2l.3.6-.7,1.2-1.2.3c-.2-.5-.9-.5-1.4-.3-.9-.2-.8-.5,0-.7,0-.2.4-.6.7-.7.7-.2,1.4-.4,2.2-.4Z"/>
    <path class="st153" d="M138.9,67.4c.1.3.3.6.6.8l-4.1,1.7c-.5-.2-1.1-.4-1.5-.4.2-.5.5-.8.9-1.2s.3-.2.4-.2c.6-1.1,3.3-2.2,3.8-.8Z"/>
    <path class="st72" d="M141.3,56.2h1.4c.1.1.2.3.2.4,0,.9-2.5,1.8-3.4,2h-.6c-.4-.2-.6-.6-.4-1.1.9-.5,1.7-1.4,2.8-1.4Z"/>
    <path class="st199" d="M143.9,56.2v.7c-.2.8-1.2,1.6-2.1,1.6h-2.2c0,.1,3.1-2.3,3.1-2.3h1.2Z"/>
    <path class="st263" d="M140.7,65.7l-1.7,1.7c-1.3-.1-2.6.3-3.8.8.2-.4.2-.7.2-1.2l2.4-1.2h2.9Z"/>
  </g>
  <g>
    <path class="st23" d="M111,128.2h0c.2-.7.8-1.1,1.5-1.2.8-.1,1.5,0,2.3.1.2,0,.4,0,.7.1,1.6.5,1.9,2,1.8,3.5,0,1.6-.2,3.1-.3,4.7,0,.3,0,.6,0,.9.1.3.4.4.6.6,1.9,1.4,3.8,2.7,5.7,4,.6.4,3.1,2,2.3,2.8,0,0-.2.1-.3.1s-.1,0-.2,0c-1.1-.4-2.2-.9-3.2-1.5-.4-.2-.8-.3-.8.2,0,.4.4.6.6.8.7.7,1.5,1.4,2.1,2.2.2.2.4.5.3.8,0,.2-.3.5-.4.6-.2.1-.5,0-.7,0-.6-.2-1.1-.6-1.7-.8-1.4-.6-2.9-1.1-4.4-1.5-3-.9-6-1.6-9-2.2-.3,0-.7-.1-1-.3-1-.6,0-1.8.2-2.6.4-1.3.8-2.5,1.2-3.8l1.2-3.9c.4-1.2.9-2.5,1.2-3.7h0Z"/>
    <path class="st65" d="M132,143.4h0c-.4-2.7-.5-5.2-.7-7.9-.2-3.2-.3-6.3-.4-9.5,0-2.2,2.8-2.1,4.4-1.9.1,0,.3,0,.4.1,0,0,.1.2.2.3.9,3.1,1.6,6.3,2.3,9.5.1.5.2,1,.5,1.4.6.8,1.9,1,2.8,1.2,2.1.6,4.1,1.2,6.2,1.7.8.2,1.7.5,2.4,1.1.2.1.3.4.2.5,0,0-.2.1-.3.1-2,.3-4.1-.5-6,.2,1.9,1,4.5,1.3,6.1,2.6.4.3.2.7-.2.8-.5.1-1,0-1.4,0-1.2,0-2.4-.2-3.5,0-1.1,0-2.3.1-3.4.2-2.3.1-4.5.3-6.8.6-.5,0-.9.2-1.4.2-.9,0-1.3-.4-1.4-1.3h0Z"/>
    <g class="st289">
      <g class="st137">
        <image class="st116" width="361" height="263" transform="translate(183.3 1.8) scale(-.5 .5)" xlink:href="pigeon-1.png"/>
      </g>
    </g>
    <path class="st183" d="M28.4,132.7c-2-4.1,1.8-8.5,4.6-11.1.3-.3.7-.6,1-.9,1.2-1.1,2.6-2,3.9-2.9.9-.5,1.7-1.1,2.6-1.6,2.1-1.2,4.2-2.4,6.4-3.5,3.4-1.7,6.8-3.1,10.5-4,6-1.5,12.4-1.6,18.2.6,2.8,1.1,5.7,3.1,6.2,6.1.3,2-.5,4-1.8,5.5-1.3,1.5-3,2.6-4.7,3.6-4.8,2.9-9.9,5.2-15.1,7.1-2.9,1-5.8,1.9-8.7,2.6-.3,0-.6.2-.9.2-1.5.3-3.1.7-4.6.9-4.6.8-14.9,2.7-17.5-2.7h0Z"/>
    <path class="st276" d="M38,117.8c.9-.5,1.7-1.1,2.6-1.6,2.1-1.2,4.2-2.4,6.4-3.5.7.7,1.5,1.2,2.6,1.3.9,0,1.8,0,2.7,0,.3,0,.6.1.8.3.5.6-.2,1.3-.4,1.9-.3.9-.7,1.7-.9,2.7-.2,1.3.1,2.8,1.1,3.7.5.4,1.1.7,1.7.9.7.2,1.6,0,2.3-.2.2,0,.5,0,.6.1,0,.1,0,.3,0,.4,0,.1,0,.2-.1.3-.5.9-.8,2-.9,3.1-.1,1.2.2,2.5,1.1,3.4.7.7,1.7,1.1,2.7,1.1-2.9,1-5.8,1.9-8.7,2.6-.3,0-.6.2-.9.2-.4-1.1-.5-2.5,0-4.1-3.2-.2-6.3-2.2-7.3-5.3-.4-1.3-.4-3,.8-3.7-2.5,0-4.9-1.4-6.1-3.6,0,0,0,0,0,0h0Z"/>
    <path class="st183" d="M97.1,120.1c0-.3,0-.6,0-.8.2-.7.7-.8,1.3-1,3.6-1.4,7.1-3.1,11-3.3,1.8-.1,3.6,0,5.4.3,1.8.2,3.5.5,5.3.9.5,0,1,.2,1.4.5.9.5,1.2,1.6,1.4,2.6.2,1.1.4,2.3.2,3.4-.4,2.4-2.6,4.2-5,5-2.4.8-5.1.8-7.6.4-3.6-.5-7.3-1.6-10.2-3.8-1.1-.8-2.2-1.7-2.9-2.9-.2-.3-.3-.7-.4-1.1h0Z"/>
    <path class="st258" d="M140.6,122c.6-.6,1.3-1.2,1.9-1.8,2-2.1,4-4,4.3-6.9.2-2.3,1-8.2-3.1-6.7-2.4.9-4.5,3.5-6.8,4.8-2.5,1.3-5.1,2.3-7.8,3.1-4.5,1.4-9.2,2.5-13.6,4.3-.5.2-1.3,1.2-1.1,1.8.1.4.4.7.7.9,3,2.5,6.9,4.5,10.9,5,3.4.4,7.1,0,10.2-1.4,1.7-.8,3.1-1.9,4.5-3.1h0Z"/>
    <path class="st212" d="M160.3,15.2c-.5.6-.8,1.3-1,2-.1.6,0,1.2,0,1.8.2,1.3.9,2.6,1.9,3.4.9.7,2.1.8,3.2.9.3,0,.6,0,.8,0,.2,0,.4-.1.6-.2,1-.3,1.9-.7,2.7-1.6.3-.3.5-.6.6-1,.5-1.2.6-2.6.2-3.9-.7-1.8-2.6-3.4-4.5-3.4-1.7,0-3.5.4-4.6,1.8h0Z"/>
    <path class="st276" d="M162.9,16.8c-.2.3-.4.7-.5,1.1,0,.3,0,.7,0,1,0,.7.5,1.4,1,1.8.5.4,1.1.4,1.8.5.1,0,.3,0,.5,0,.1,0,.2,0,.3,0,.6-.2,1-.4,1.5-.9.1-.2.2-.4.3-.5.3-.7.3-1.4,0-2.1-.4-1-1.4-1.8-2.5-1.8-.9,0-1.9.2-2.5,1h0Z"/>
    <path class="st85" d="M16.1,113c-2.8-2.7-1.4-6.6.7-9.1,1.4-1.6,3.1-2.9,4.9-4.1,5-3.3,11.2-5.3,16.8-7.3,2.6-1,5.3-1.9,8-2.7,3.6-1.1,7.1-2.1,10.8-3.1,0,0,.1,0,.2,0,3.1-5,7-9.4,11.2-13.4.8-.7,1.5-1.4,2.3-2.1,2.1-1.8,4.2-3.6,6.4-5.3,3.2-2.5,6.6-4.8,10.1-6.9,1.2-.7,2.4-1.4,3.6-2.1,3.5-2,6.9-4.1,10.7-5.6,1.5-.6,3-1.1,4.5-1.5,1.5-.4,4-1.9,5,0,.5,1,.4,2.1,1,3,.6.9,1.6,1.4,2.7,1.5,1,.2,2.1,0,3.2-.2,3.7-.6,7.5-1,11.3-.7,10.1.7,19.6,8,24.9,16.5,0,0,6.6,9.7,5.3,26.1-2.7,6.4-7,12.4-12.6,16.1-2.5,1.7-4.5,2.9-7.2,4.3-.5.3-1.1.5-1.6.7h0c-2.8,1.1-5.6,1.7-8.6,2.5-5.8,1.6-11.8,2.3-17.9,2.6-3.4.2-6.8.3-10.1.3-7.7.1-15.4.2-23.1-.6-.2,0-.4,0-.7,0-3.7-.4-7.3-1.1-10.9-1.9-4.1-.8-8.3-1.7-12.5-2.3-10.4-1.4-20.9-.9-31.3-2.2-2.5-.3-5.1-.8-7-2.5h0Z"/>
    <path class="st276" d="M75.4,85.1c-4.8.2-8.3-5.7-7.1-10.6.1-.4.3-.8.4-1.3.8-.7,1.5-1.4,2.3-2.1,2.1-1.8,4.2-3.6,6.4-5.3h.4c-1.1,1.3-2.5,3.6-1.5,5.3.5,1,1.6,1.5,2.6,1.9,2.3.9,4.8,1.6,7.3,2-1.1,2.9-.3,6.5,1.9,8.6,2.2,2.1,5.7,2.6,8.4,1.2-2.3,3.3,0,8.3,3.4,10.2,3.5,1.9,7.6,1.6,11.5,1.3-2.3,2.3-.8,6.8,2,8.4s6.3,1.3,9.5.9c-1.9.7-2.5,3.4-1.5,5.3.9,1.9,2.8,3,4.7,3.7,4.2,1.7,8.8,2.3,13.3,1.7-.4.3-.8.5-1.2.8h0c-2.8,1.1-5.6,1.7-8.6,2.5-5.8,1.6-11.8,2.3-17.9,2.6,0-.6,0-1.1.1-1.7,0-.3,0-.8-.2-1-.7-.5-2.9.2-3.7.2-1.4,0-2.8-.3-4-1-.6-.3-1.2-.7-1.5-1.3-1.2-1.8-.8-3.8,0-5.7-2.9.5-6.2.6-8.6-1.2-2.4-1.8-3.3-6-1-7.9-2.9.6-6,1.1-8.7-.3-2.6-1.4-3.9-5.7-1.6-7.6-2.5,1.6-6.1.9-7.9-1.5-1.7-2.4-1.4-6.3.8-8.3h0Z"/>
    <path class="st276" d="M172.3,31.3c.2.3.5.5.8.7,3.9,2.8,7.4,6.4,11,9.7l-4.8-11,12,2.4c-2.1-1.7-4.1-3.4-6.2-5.1-1.4-1.1-2.9-2-4.2-3.1-1.4-1.1-1.7-3.2-3.6-3.8-.4-.1-.9-.2-1.3,0-.3.1-.6.4-.8.7-1.2,1.8,0,4.6-1.4,6.2-.7.7-1.9,1.2-2,2.2,0,.5.2.9.5,1.2h0Z"/>
    <path class="st276" d="M46.7,91.3c-.1-.5-.1-1,0-1.5,0,0,1.2-.4,1.4-.4.4-.1.9-.3,1.4-.4.9-.3,1.9-.5,2.8-.8.9-.3,1.9-.5,2.8-.8.3,0,.6-.2,1-.3.2,0,.5-.1.7-.2s.9-.2.9-.2c0,.2-.2.3-.2.5,0,.1,0,.3,0,.4,0,.4.2.8.4,1.1.4.5,1.1.6,1.8.6.2,0,.4,0,.5,0,.5.2-.3,1.2-.5,1.5-.2.4-.5.9-.6,1.3-.3,1.1-.5,2.1.1,3,.8,1.1,1.8,1.8,3.2,1.8.9,0,1.8-.2,2.7-.1.3,0,.6,0,.8.3.5.6-.1,1.3-.3,1.9-.3.9-.6,1.8-.7,2.7-.1,1.3.2,2.8,1.3,3.6.5.4,1.1.7,1.7.8.8.2,1.5-.2,2.3-.3.2,0,.5,0,.6,0,0,0,.1.2,0,.4s0,.2-.1.4c-.4,1-.7,2.1-.7,3.1,0,1.2.3,2.5,1.2,3.3,1.1.9,2.6,1.2,3.9.9.5-.1,1.1-.3,1.6-.3.3,0,.6.1.6.4,0,.2,0,.5-.2.7-.4.7-1,1.3-1.3,2.1s-.2,1.7.2,2.5c.6,1.4,1.7,2.1,2.9,2.8-.3-.2-1-.2-1.4-.2-.5,0-1-.1-1.5-.2-1-.1-2.1-.3-3.1-.5-2.1-.3-4.1-.8-6.2-1.2-2.2-1.4-3.4-3.6-2.7-6.8-3.2,0-6.4-1.9-7.6-4.9-.5-1.3-.5-2.9.6-3.8-2.5,0-4.9-1.2-6.2-3.2-1.3-2.1-1.3-4.8-.1-6.9-1.9.2-3.7-1.3-4.1-3.2h0Z"/>
    <path class="st212" d="M177.3,23.7c.2.5.5,1,.9,1.4.3.3.6.6,1,.8s.9,0,1.1-.3c.4-.6,0-2-.3-2.6-.3-.9-.9-1.6-1.9-1.6-.3,0-.6.1-.8.4-.5.5-.3,1.4,0,2Z"/>
  </g>
</svg>