<?xml version="1.0" encoding="UTF-8"?><svg id="Layer_1" xmlns="http://www.w3.org/2000/svg" viewBox="0 0 467.7 159.5"><defs><style>.cls-1{fill:#7d8ac1;}.cls-2{fill:#e3785a;}.cls-3{fill:#732229;}.cls-4{fill:#dadf50;}.cls-5{fill:#de9dc0;}.cls-6{fill:#297880;}.cls-7{fill:#4859a3;}.cls-8{fill:#dc95bb;}</style></defs><path class="cls-3" d="M467.7,17.91v123.68c0,2.93-.93,5.7-2.57,8.14-1.99,3-5.06,5.51-8.82,7.22-3.5,1.62-7.62,2.55-12.01,2.55H23.4c-12.92,0-23.4-8.02-23.4-17.91V17.91C0,12.61,3.01,7.84,7.8,4.57c1.83-1.26,3.93-2.3,6.22-3.06,2.87-.97,6.05-1.51,9.38-1.51h420.9c1.37,0,2.72.09,4.04.27,1.76.23,3.46.62,5.07,1.14.01.01.03.01.05.02,2.46.8,4.69,1.91,6.64,3.28,2.67,1.86,4.77,4.19,6.06,6.83,1.01,1.98,1.54,4.13,1.54,6.37Z"/><path class="cls-1" d="M329.21,41.86c-.72.24-18.18,0-18.18,0l-6.48,76.2h12.26s.87-17.04.61-16.95c.34.07,8.8-.11,8.8-.11l1.62,16.51,11.33-.06s-9.23-75.82-9.96-75.58ZM317.97,90.72l3.13-33.22,4.71,33.22h-7.84Z"/><path class="cls-7" d="M250.66,41.86c-.72.24-18.18,0-18.18,0l-6.48,76.2h12.26s.87-17.04.61-16.95c.34.07,8.8-.11,8.8-.11l1.62,16.51,11.33-.06s-9.23-75.82-9.96-75.58ZM239.42,90.72l3.13-33.22,4.71,33.22h-7.84Z"/><path class="cls-5" d="M147.74,42.12c-.72.24-18.18,0-18.18,0l-6.48,76.2h12.26s.87-17.04.61-16.95c.34.07,8.8-.11,8.8-.11l1.62,16.51,11.33-.06s-9.23-75.82-9.96-75.58ZM136.51,90.98l3.13-33.22,4.71,33.22h-7.84Z"/><path class="cls-2" d="M296.1,71.24s-12.96-1.81-12.96-1.81c.04-3.99-.32-7.98-.55-11.96-.04-.66-.14-1.42-.71-1.76-.39-.24-.89-.18-1.33-.07-1.71.44-3.18,1.73-3.83,3.37-.6,1.52-.52,3.21-.43,4.84.71,12.49,1.42,24.99,2.13,37.48.07,1.2.29,2.64,1.39,3.14.83.38,1.86-.01,2.48-.69s.93-1.57,1.2-2.45c.86-2.78,1.55-5.72,1.02-8.58l-3.58-.17-.74-11.9,15.51-.99.42,9.06c-.2,4.85-.42,9.27-.92,14.11-.17,1.62-.35,3.24-.87,4.79-.53,1.6-1.41,3.06-2.38,4.44-.64.9-1.32,1.77-2.12,2.52-1.85,1.73-4.28,2.75-6.78,3.14s-5.06.16-7.53-.4c-2.8.12-5.98-1.9-7.38-4.33-2.82-4.86-2.74-10.8-2.58-16.41.07-2.51-.05-4.36,0-6.87.1-6.17-.28-12.34-.18-18.51.1-5.82-.05-11.8,1.96-17.36,1.37-3.77,3.66-7.26,6.86-9.68,1.01-.77,2.13-1.43,3.34-1.8,1.58-.48,3.26-.47,4.9-.44,1.97.04,4,.09,5.82.85,2.47,1.03,4.28,3.25,5.38,5.69,1.58,3.52,2.51,7.37,2.87,11.21.11,1.13-.36,11.52-.4,11.52Z"/><polygon class="cls-7" points="112.39 116.87 112.39 105.44 97.72 105.44 97.72 43.04 85.17 43.04 85.17 116.87 112.39 116.87"/><polygon class="cls-8" points="376.15 115.97 374.22 42.89 388.07 42.89 398.58 70.76 398.58 42.89 410.85 42.89 409.98 115.97 396.66 115.97 386.67 80.92 387.89 117.03 376.15 115.97"/><path class="cls-6" d="M77.99,55.68c-1.51-6.63-6.1-14.16-12.9-14.16,0,0-19.17.58-19.17,0-.11.61-2.28,24.47-2.28,24.47l-.97,52.41h12.17s.05-.06.05-.07c.27-.55.2-1.44.25-2.03.11-1.41.2-2.81.28-4.22.23-4.01.41-8.04.58-12.05.15-3.65.3-7.29.44-10.94,0-.46.35-5.57.12-5.56,3.59-.42,6.4-2.08,9.44-3.85,4.6-2.69,7.59-6.65,9.92-11.38.86-1.75,1.72-3.53,2.16-5.43.56-2.36.46-4.83-.08-7.19ZM65.46,63.1c-.29,1.22-.64,2.46-1.37,3.48-.49.69-1.12,1.24-1.78,1.76-1.61,1.27-3.69,2.86-5.72,2.86l.91-17.11c1.48,0,2.96-.45,4.38,0,1.42.45,2.72,1.38,3.43,2.69,1.01,1.9.66,4.23.15,6.33Z"/><path class="cls-4" d="M169.18,43.32h-11.48l11.66,43-.53,31.74h12.3v-29.98l11.6-43.92s-11.07-.35-11.42.18-6.09,25.48-6.09,25.48l-6.03-26.48Z"/><rect class="cls-6" x="348.5" y="42.47" width="15.03" height="74.56"/></svg>