<?xml version="1.0" encoding="UTF-8"?><svg id="Layer_1" xmlns="http://www.w3.org/2000/svg" xmlns:xlink="http://www.w3.org/1999/xlink" viewBox="0 0 902.73 1440.91"><defs><style>.cls-1{fill:none;}.cls-2{fill:#e991bd;}.cls-3{fill:#f9f2e6;}.cls-4{fill:#e999c2;}.cls-5{fill:#7e1926;}.cls-6{fill:#6999c9;}.cls-7{fill:#007a81;}.cls-8{fill:#f37152;}.cls-9{fill:#ece8e2;}.cls-10{clip-path:url(#clippath-1);}.cls-11{fill:#fff;}.cls-12{fill:#007b81;}.cls-13{fill:#f69a94;}.cls-14{fill:#7e141f;}.cls-15{fill:#f9c5dc;}.cls-16{fill:#4359a8;}.cls-17{fill:#e48c88;}.cls-18{clip-path:url(#clippath);}.cls-19{fill:#6193c8;}</style><clipPath id="clippath"><rect class="cls-9" x="0" width="902.73" height="1440.91" rx="47.22" ry="47.22" transform="translate(902.7278 1440.9088) rotate(-180)"/></clipPath><clipPath id="clippath-1"><path class="cls-1" d="M426.33,1387.22c6.11.76,11.9,3.68,16.01,8.06.23.25-6.94,5.81-7.64,6.27-2.29,1.51-4.89,2.8-7.73,2.85-5.68.1-11.42-.15-15.92-3.6-1.4-1.08-3.1-2.3-4.2-3.67-1.48-1.83-1.38-1.95.38-3.8,4.69-4.92,12.32-6.96,19.1-6.11Z"/></clipPath></defs><rect class="cls-9" x="0" width="902.73" height="1440.91" rx="47.22" ry="47.22" transform="translate(902.7278 1440.9088) rotate(-180)"/><g class="cls-18"><path class="cls-14" d="M333.16,1301.77c-4.52,6.15-12.11,9.61-17.29,15.27-8.76,9.57-9.23,23.61-7.98,36.26,1.14,11.56,2.77,24.85-5.6,33.28-4.58,4.61-11.41,6.78-15.81,11.55-6.95,7.53-6.51,20.04-14.84,26.18-5.78,4.27-14.55,4.32-19.16,9.74-2.62,3.08-3.26,7.25-3.55,11.21-.84,11.17.26,22.48,3.26,33.31,18.33-1.47,36.87-2.94,55.05-.22,9.32,1.39,18.44,3.87,27.78,5.12,11.44,1.53,23.04,1.2,34.58,1.49,40.77,1.03,81.74,9.88,121.98,3.6,26.02-4.06,51.31-14.4,77.64-13.09,13.2.65,26.56,4.23,39.43,1.34-3.07-19.9-14.4-38.53-30.97-50.94-3.61-2.7-7.53-5.2-10.07-8.84-6.97-9.99-.89-23.64-3.89-35.29-2.41-9.36-10.33-16.33-17.44-23.17-10.23-9.83-19.52-20.55-27.73-31.99-1.42-1.98-2.86-4.15-2.8-6.54.07-2.64,1.93-4.89,2.86-7.38,3.39-9.02-5.54-17.52-9.38-26.37-4.48-10.35-1.88-22.19-3.91-33.22-2.96-16.12-16.81-29.9-33.54-33.42-21.66-4.54-43.14,6.92-65.08,9.94-6.47.89-13.19,1.08-19.21,3.51-7.96,3.22-13.42,9.85-20.72,14.01-7.82,4.45-20.29.76-26.5,5.89-11.54,9.55,2.61,35.55-7.1,48.76Z"/><path class="cls-17" d="M479.36,1445.76c.41,5.17.4,10.36-1.05,14.24-6.72,17.88-34.09,32.85-50.17,40.48-13.02,6.18-27.73,10.76-41.73,7.35-13.12-3.19-23.88-13.18-30.37-25.02-4.85-8.84-7.56-19.75-3.46-28.96,1.63-3.66,4.23-6.81,6.08-10.37,4.36-8.35,4.31-18.21,4.17-27.62-.12-8.02-.25-16.03-.37-24.05-.07-4.24-.03-8.82,2.49-12.22,2.52-3.4,6.9-4.78,11.03-5.72,14.26-3.23,29.4-3.34,43.74-.5,12.35,2.44,22.23,8.44,35.59,8.5,5.63.03,11.28-.58,16.86.18,1.64.22,3.34.6,4.58,1.68,2.89,2.53,1.84,7.13.99,10.87-2.9,12.63-.7,25.54.28,38.25.28,3.64.98,8.26,1.34,12.91Z"/><path class="cls-13" d="M495.43,1350.2c-.06,5.7.28,8.25-1.65,13.64-20.46,57.06-44.01,69.32-56.43,71.51-6.42,2.56-13.84,1.94-20.83,1.22-18.64-1.87-33.89-13.51-45.03-27.25-5.77-7.11-10.63-14.89-14.78-22.96-4.41-8.59-6.29-16.07-7.65-25.44-1.53-10.55-1.74-21.3-4.29-31.68-2.33-9.54-3.3-19.66-4.49-29.4-.59-4.76-.91-9.29-1.02-13.62-1.62-60.91,39.77-79.67,39.77-79.67,82.83-29.74,106.38,18.5,106.38,18.5,11.06,18.97,14.96,42.36,15.64,63.78,1.03,33.05-5.63,61.38-5.63,61.38Z"/><path class="cls-14" d="M428.55,1368.46c-1.68-.87-3.37-1.74-5.05-2.61-2.36-1.22-5.21-3.04-8.05-2.51-1.02.19-2.05.79-2.31,1.75-.17.63.03,1.32.47,1.82.44.5,1.09.8,1.77.88.76.09,1.52-.07,2.29-.12,2.57-.18,4.88.82,7.02,2,.74.41,3.26,2.23,4.14,2.1,0,0,11.56-1.63,15-5.49,0,0,.6-1.88.35-3.74l-10.78-41.65s-1.4-1.06-1.72,2.37c-.31,3.43,7.14,39.62,7.14,39.62,0,0,.46,1.67-.98,2.66l-8.33,3.18s-.28.09-.96-.26Z"/><path class="cls-14" d="M414.01,1382.37c.13-.09.26-.18.39-.27,4.89-3.33,9.38-.48,14.67-.21,4.2.21,6.46-3.19,10.79-.46,1.88,1.19,3.28,2.94,4.63,4.65,1.03,1.3,2.06,2.61,3.09,3.91.5.64,1.02,1.31,1.13,2.1.1.79-.22,1.57-.55,2.3-3.08,7.05-6.71,14.67-13.86,18.08-5.6,2.67-12.48,2.12-18.11-.48-5.98-2.76-18.58-10.95-14.84-18.69.73-1.51,1.96-2.75,3.24-3.89,2.91-2.6,6.16-4.84,9.41-7.05Z"/><path class="cls-14" d="M508.28,1288.83c-11.14-.79-11.91-16.29-19.04-23.78-3.63-3.82-8.86-5.76-13.54-8.34-8.79-4.84-14.45-11.84-19.56-20.22-5.77-9.46-9.03-11.46-19-4.11-8.39,6.19-18.57,9.93-28.97,10.66-5.51.39-11.21-.03-16.38,1.9-4.14,1.54-7.59,4.46-11.06,7.2-8.51,6.74-17.6,12.69-26.86,18.35-4.1,2.51-21.99,9.31-21.83,15.5-.56-21.05,3.64-42.6,15.42-60.67,6.8-10.42,15.55-16.67,24.88-24.54,6.99-5.9,12.54-8.7,22.01-10.21,12-1.91,24.26-3.11,36.42-2.1,6.26.52,12.04,2.02,18.09,3.46,5.06,1.2,9.58,1.25,14.47,3.39,10.97,4.82,22.65,13.26,27.92,24.03,12.05,20.67,16.3,46.14,17.04,69.47Z"/><g class="cls-10"><path class="cls-3" d="M417.21,1390.62c1,.27,2.06.21,3.09.16,1.33-.07,2.66-.14,3.99-.2.16,0,.33-.02.48-.08.44-.2.48-.77.45-1.24-.08-1.31-.25-2.61-.5-3.89-.02-.08-.04-.17-.11-.22-.07-.05-.17-.05-.25-.04-2.22.18-4.44.39-6.66.63-1.22.13-1.29.57-1.3,1.53,0,.41.32,3.23.8,3.36Z"/><path class="cls-3" d="M433.32,1390.91c-.98.32-2.04.32-3.08.32-1.33,0-2.67,0-4,0-.16,0-.33,0-.48-.06-.45-.18-.53-.75-.52-1.21.01-1.31.11-2.61.28-3.91.01-.08.03-.17.09-.23.07-.05.16-.05.25-.05,2.23.07,4.46.17,6.68.29,1.23.07,1.32.5,1.38,1.46.03.41-.14,3.24-.61,3.39Z"/></g><circle class="cls-19" cx="370.85" cy="1306.3" r="48.39"/><circle class="cls-19" cx="477.55" cy="1306.3" r="48.39"/><path class="cls-19" d="M422.64,1306.96c2.73.08,5.33,1.25,7.79,2.55,1.1-5.47,2.21-10.94,3.31-16.41-7.43-.77-14.95-.63-22.35.41.72-.1,4.41,14.95,4.61,16.38,1.69-2.03,4.15-3,6.65-2.93Z"/></g><path class="cls-13" d="M345.4,677.11l-24.95,3.03s-.83.57-.18,1.51l.57.55-4.22.61s-1.51.31-.94,1.45c0,0,.84,1.2,2.33,1.83l-2.46.52s-.48.42-.19,1.11c0,0,.57,2.1,2.84,2.52l2.56.42.06.52c.53,1.75,2.8,2.42,4.39,2.47,1.7.05,3.4.11,5.09.16,2.07.07,4.15.13,6.22.2,1.01.03,2.02.06,3.04.1l-7.5,4.33s-1.53.74-.71,2.16c0,0,.93.99,4.35.25,3.42-.74,10.24-2.38,10.24-2.38,0,0,5.2-1.73,7.28-4.03l5.86-6.16-13.68-11.16Z"/><path class="cls-13" d="M405.88,686.83c-3.75.28-7.51.56-11.26.83-4.25.31-8.45-1.08-12.58-2,0,0-4.62-1.69-9.14,2.82,0,0-6.71,9.59-13.82,15,0,0-5.58,5.58-12.29,9.3,0,0-10.32,6.32-10.26,7.9,0,0-.45,3.1,3.78,3.67h1.44s2.98,2.14,5.39,2.23c0,0,1.75.4,3.16.29,0,0,1.38,1.63,4.55.76,0,0,2.14-.58,9.35-5.36,0,0,10.76-6.19,15.93-7.55,5.16-1.36,11.14-2.56,16.48-2.52l15.15-13.3-5.87-12.07Z"/><path class="cls-14" d="M405.98,678.82s-11.52,41.03-11.52,41.03l141.95-5.76s22.17,1.05,29.86-19.21c0,0,6.98-17.81-16.76-33.35l16.41-34.22s12.05-26.89-10.3-42.95c-5.85-4.98-14.53-7.25-22.04-6.2-3.37.48-6.62,1.61-9.61,3.22-3.27,1.76-6.49,3.46-9.68,5.39-6.95,4.19-13.76,8.6-20.44,13.2-6.1,4.2-12.64,8.03-18.07,13.13-1.36,1.28-2.73,2.57-4.09,3.85-4.9,4.62-9.81,9.23-14.71,13.85-6.34,5.97-12.69,11.94-19.03,17.92-6.03,5.68-12.06,11.35-18.08,17.03-3.96,3.73-7.92,7.46-11.88,11.19-.41.39-1.82,1.3-1.99,1.87Z"/><path class="cls-13" d="M498.7,681.72s-5.57,7.42-8.25,8.7c0,0-7.1,4.45-3.65,12.13,0,0,1.34,2.02,6.91,5.28,0,0,10.84,8.25,14.2,13.43l5.47,6.16.99,1.06s1.71,1.81,3.71.5c0,0,.81-.62,2.43-.31.99.19,1.89.11,2.69-.55.47-.39.74-.73,1.35-.9.57-.16,1.17-.14,1.75-.04,1.09.19,2.49-1.06,2.49-1.06,0,0,.22-.47,1.37-.31,1.15.16,2.09.06,3.24-1.21,1.15-1.28,1.81-.75,1.81-.75,0,0,2.49,1.4,4.24-.4,1.74-1.81-.19-3.58-.19-3.58,0,0-12.74-12.21-15.4-17.43-2.66-5.22-3.83-7.5-1.7-12.01l-23.46-8.7Z"/><path class="cls-13" d="M451.15,507.07l-1.21.51c-.07.03-.1,1.06-.11,1.15-.09.67-.19,1.35-.33,2.01h0c-.06.29-.12.57-.19.85-.18.77-.44,1.51-.7,2.25-.13.38-.26.75-.39,1.13-.35,1.03-.78,2-1.38,2.91-.41.62-.88,1.21-1.4,1.74-.83.84-1.76,1.57-2.71,2.27-.46.35-.89.64-1.24,1.1-.41.53-.88,1.02-1.31,1.53-1.12,1.31-2.23,2.61-3.35,3.92l-1.22,8.14-23.83-12.45-.57-24.47,18.38-12.61,14.74-11.04,3.26,1.38,2.38,4.2,1,8.65-.43,4.23,2.5,11.14s.48,1.13-1.89,1.45Z"/><path class="cls-14" d="M433.7,530.72c-.15-.1.47-2.41.51-2.62.28-1.44.56-2.88.84-4.31.07-.36.15-.73.21-1.09-.04.22,2.39.07,2.62.03.71-.13,1.42-.26,2.13-.42.7-.16,1.39-.35,2.06-.61.43-.16.85-.34,1.25-.55.27-.14.53-.31.78-.47.11-.07.21-.15.33-.22s.2-.03.32,0c.38.09.78.15,1.15.27.27.09.53.18.81.26.09.03.19.05.28.08,1.7.64,3.22,1.77,4.28,3.23.49.68.9,1.43,1.52,2.01,1.13,1.04,2.77,1.32,4.12,2.06,1.43.79,2.52,2.15,2.98,3.7.29.98.33,2.03.81,2.93.51.97,1.45,1.64,2.22,2.43,1.51,1.56,2.37,3.76,2.22,5.92-.07,1.02-.02,1.51-.97,1.37-.55-.08-1.19-.47-1.71-.68-2.24-.89-4.49-1.78-6.73-2.67,0,0-12.33-3.67-15.91-4.36,0,0-2.43-3.76-6.11-6.31Z"/><path class="cls-14" d="M445.98,477.43c.46.54-3.84,6.69-4.33,7.33-2.08,2.73-4.83,4.95-7.96,6.37-1.36.62-2.82,1.11-3.97,2.07-2.75,2.28-3.08,6.59-5.8,8.89-1.25,1.06-2.85,1.57-4.28,2.36-7.19,3.98-6.09,12.71-6.78,19.66h-3.39c-1.81-2.24-3.24-4.87-4.46-7.46-2.67-5.65-4.25-11.84-4.32-18.11-.04-3.94.53-7.87,1.67-11.64,1.33-4.4,3.58-9.3,7.16-12.35,3.99-3.41,8.8-6.02,13.99-6.98,7.93-1.48,15.63,1.36,21.88,6.2,0,0,7.08,5.69,6.78,13.37,0,0,.03,4.55-1.62,7.32,0,0-.08-11.96-4.56-17.04Z"/><path class="cls-13" d="M545.33,524.12l3.66-8.2c1.04-1.14,2.09-2.28,3.13-3.42,1.51-1.65,3.42-3.31,4.41-5.35.4-.83.78-1.69,1.04-2.57.54-1.79,2.9-7.94,1.89-11.48,0,0-.24-.54-.71-.91,0,0,1.4-7.46-1.01-9.48,0,0,2.53-7.03-2.41-8.2l-4.9,1.67s1.09-4.24-1.01-4.16l-6.06,4s-3.99,2.91-5.74,8.39c0,0-4.17,15.5-4.28,19.23l-1.98,4.97,13.97,15.5Z"/><polygon class="cls-14" points="566.18 473.97 564.77 470.11 503.88 495.15 504.59 496.73 566.18 473.97"/><path class="cls-15" d="M564.77,470.11s2.41-4.28,10.79-3.83c1,.05,1.81.43,1.89,1.52.07.96-.67,1.77-1.3,2.37-1.13,1.08-2.43,2.02-3.84,2.71-1.59.78-3.35,1.24-5.13,1.22l-1.01-.13-1.41-3.87Z"/><path class="cls-13" d="M556.02,468.49c.02.51-.04,1.01-.14,1.51-.05.26-.12.53-.18.78-.34,1.22-.78,2.42-1.17,3.63-.37,1.18-.75,2.35-1.12,3.53-.23.73-.47,1.47-.7,2.2-.02.07-.22.91-.29.92l-6.87,1.08.03-.07c.59-1.54,1.18-3.08,1.77-4.61.39-1.01.78-2.02,1.16-3.02.16-.42.29-.88.53-1.26.39-.61,1.7-3.17,2.05-3.75.18-.3.34-.6.5-.9.51-.96,1.41-2.84,2.74-2.64,1.14.18,1.67,1.6,1.7,2.6Z"/><path class="cls-19" d="M552.08,526.76l-21.06-20.35-7.03,11.87-27.92,39.29-36.04-14.94s-15.1-6.17-20.69-6.69c0,0-2.62-3.98-5.05-5.29-3.98-2.24-7.51-4.67-12.12-5.33-2.9-.42-5.82-.72-8.73-1.08h-5.08s-1.72-.07-2.18,1.36l-.5,6.05s-.38,1.39,1.05,1.76l-4.2,4.16s-1.3,1.39-1.85,2.86l-58.74,134.87,18.9,14.51,32.18-42.29c-.03,3.67-.05,7.34-.08,11,0,3.91-.1,7.81-.09,11.72,0,3.13,2.97,5.71,5.52,7.27,11.15,6.83,25.26,3.66,37.37,1.98,7.67-1.06,9.71-9.16,15.25-13.42,1.35-1.03,2.86-1.82,4.2-2.86,6.11-4.76,9.31-14.75,12.15-21.7,3.77-9.21,5.96-18.96,9.52-28.14l-4.82-15.73,22.02,2.26s21.46-14.44,30.89-19.12l20.09-48.05,7.04-5.97Z"/><path class="cls-14" d="M449.45,510.74c-.05.28-.09.56-.15.85-.2.85-.29,2-1.39,1.97-.73-.02-1.43-.49-2-.88-.6-.4-1.22-.77-1.79-1.21-.09-.07-.2-.16-.2-.28,0-.12.09-.21.2-.26s.23-.04.34-.04c.78,0,1.52-.23,2.11-.75.35-.31.8-.52,1.26-.4.4.1.62.57,1.05.35.14-.07.26-.18.39-.27.04-.03.08-.05.12-.06.09,0,.16.07.18.16s0,.17-.02.26c-.05.18-.08.37-.11.55Z"/><path class="cls-14" d="M443.81,493.31c.01.18-.03.36-.15.46-.3.24-.83-.05-1.16-.07-.41-.03-.83-.04-1.24-.06-.89-.04-1.78-.05-2.66.09-.64.1-1.27.28-1.84.61-.29.17-.55.37-.79.6-.11.1-.54.76-.65.73-.07-.02-.11-.09-.11-.16s.03-.14.06-.2c.07-.15.13-.3.2-.46.17-.38.34-.77.58-1.11.53-.76,1.41-.95,2.25-1.13.98-.21,2-.32,3.01-.26.34.02.67.04,1.01.06.45.02,1.2.18,1.42.63.04.08.07.18.07.29Z"/><path class="cls-14" d="M438.63,495.05c-.38.26-.75.53-1.1.83-.25.21-.52.47-.52.8.64-.29,1.29-.58,1.93-.87.49-.22.94-.4,1.48-.47.59-.08,1.13.07,1.71.08.49.01.5-.63.05-.73-1.16-.25-2.54-.34-3.55.36Z"/><circle class="cls-14" cx="440.34" cy="496.37" r="1.34"/><path class="cls-14" d="M449.87,506.8c-.38-.2-.75-.41-1.13-.61-.53-.29-1.16-.71-1.8-.59-.23.04-.46.19-.52.41-.04.15,0,.31.11.42s.24.19.39.21c.17.02.34-.02.51-.03.57-.04,1.09.19,1.57.47.16.1.73.52.92.49,0,0,2.58-.38,3.35-1.28,0,0,.13-.44.08-.87l-2.4-9.73s-.31-.25-.38.55,1.59,9.26,1.59,9.26c0,0,.1.39-.22.62l-1.86.74s-.06.02-.21-.06Z"/><path class="cls-14" d="M546.82,526.71s0,.08,0,.12c0,.12,0-.04,0-.04,0,0-.04.17-.05.19,0,0-.03.11-.04.11,0,0,.07-.14.01-.04-.04.07-.08.13-.12.2-.07.11.07-.06.01-.01-.02.02-.04.05-.07.07-.02.02-.04.04-.06.05l-.03.03s-.04.03.03-.02c0,.02-.15.1-.16.11-.02.01-.05.02-.07.04-.1.06.12-.03-.02,0-.06.02-.13.04-.19.05-.12.03.02.01.02,0,0,0-.09,0-.1,0-.07,0-.14,0-.21,0-.09,0,.15.03.02,0-.04,0-.08-.02-.12-.03s-.08-.02-.11-.04c-.09-.03.04,0,.03.02s-.15-.08-.17-.09c-.03-.02-.05-.04-.08-.05-.07-.04.11.1.02,0-.01-.01-.17-.16-.16-.17,0,0,.07.11.02.03-.02-.03-.04-.06-.06-.1-.01-.02-.03-.05-.04-.07l-.02-.03c-.03-.06-.02-.05.01.04-.02,0-.06-.17-.06-.19,0-.03-.01-.05-.02-.08-.03-.12,0,.14,0-.02,0-.06,0-.12,0-.19v-.04c0-.07,0-.05,0,.04,0-.02.01-.06.02-.08.01-.07.04-.13.06-.19.04-.13-.07.12,0,0,.02-.03.04-.07.06-.1.02-.03.04-.05.05-.08.07-.1,0,.02-.01.01,0,0,.12-.13.13-.14l.03-.03s.04-.03,0,0l-.03.02s.04-.03.06-.04c.02-.02.2-.12.2-.11,0,0-.14.05-.03.02.04-.01.07-.03.11-.04.03,0,.05-.01.08-.02.03,0,.12-.05.04-.01h-.04s.05,0,.08,0c.03,0,.07,0,.1,0s.07,0,.1,0c.13,0-.11-.03,0,0,.08.02.15.04.23.06.12.04-.08-.05-.02,0,.04.03.08.04.12.06.02.01.04.03.07.04.02.01.04.03.06.04-.07-.05-.08-.06-.03-.02.05.05.09.09.14.14.09.09-.07-.11,0,0,.02.03.04.06.06.1s.04.07.06.1c.06.1-.04-.12,0,0,.02.08.04.15.06.23.02.09-.01-.04,0-.04.01,0,0,.15,0,.16,0,.31.27.61.6.6s.6-.26.6-.6c-.01-.89-.57-1.65-1.39-1.97-.78-.29-1.74-.04-2.27.61-.56.68-.68,1.65-.22,2.43.46.77,1.35,1.13,2.22.98.97-.17,1.65-1.08,1.66-2.04,0-.31-.28-.61-.6-.6s-.6.26-.6.6Z"/><path class="cls-14" d="M360.96,682.93s0,.07,0,.1c0,.1,0-.05,0-.06-.02.04-.02.11-.04.16,0,.03-.03.06-.03.09,0-.01.07-.14.02-.05-.03.06-.06.11-.1.17-.06.1.08-.08.02-.03-.02.02-.04.04-.05.06-.01.02-.03.03-.05.05-.04.04-.11.06.02-.01-.05.03-.09.06-.14.09-.02.01-.04.02-.06.03-.1.05.14-.04,0,0-.05.02-.11.03-.16.04-.07.01-.09-.01.04,0-.03,0-.06,0-.09,0-.06,0-.11,0-.17,0-.08,0,.16.03.04,0-.03,0-.07-.01-.1-.02s-.06-.02-.09-.03c-.06-.02-.03-.04.05.02-.04-.03-.1-.05-.14-.08-.02-.01-.04-.03-.07-.05-.07-.04.11.1.03.02-.04-.04-.09-.11-.13-.14.08.06.07.09.03.04-.02-.03-.04-.05-.05-.08-.01-.02-.02-.04-.03-.06-.03-.06-.02-.12,0,.02-.01-.05-.04-.1-.05-.16,0-.02,0-.04-.01-.07-.03-.11.01.16,0,0,0-.05,0-.1,0-.16,0-.06.04-.14,0,.02,0-.02,0-.04.01-.07.01-.05.03-.11.05-.16.04-.12-.07.13,0,.02.02-.03.03-.06.05-.09.01-.02.03-.05.04-.07.04-.06.07-.03-.03.03.04-.03.07-.08.11-.12.02-.01.1-.07.01-.02s0,0,.02-.01c.05-.03.13-.06.17-.1,0,0-.14.05-.05.02.03-.01.06-.02.09-.03s.19-.04.08-.02.08,0,.11,0c.03,0,.06,0,.09,0,.12,0-.13-.03-.03,0,.06.02.13.03.19.05.11.04-.1-.06-.04-.02.03.02.07.03.1.05.02.01.04.02.05.03.13.09-.07-.07,0,0,.04.04.08.08.11.11.08.08-.08-.12-.01-.02.02.03.04.05.05.08s.03.06.05.09c.05.09-.04-.13,0-.02.02.06.04.13.05.19.01.05-.02.06,0-.06,0,.04,0,.09,0,.14,0,.31.27.61.6.6s.6-.26.6-.6c-.01-.79-.5-1.46-1.24-1.74-.68-.26-1.53-.03-1.99.53-.5.6-.6,1.46-.2,2.14.41.68,1.19,1,1.96.86.85-.15,1.45-.96,1.46-1.8,0-.31-.28-.61-.6-.6s-.6.26-.6.6Z"/><path class="cls-19" d="M555.89,468.49c0,.68-.21,1.36-.61,1.92-.24.33-.38.43-.77.51s-.82.11-1.22.05c-.53-.09-1.05-.38-1.31-.85-.22-.4-.24-.89-.13-1.34.11-.45.33-.86.57-1.24.3-.49.65-.98,1.17-1.23.24-.12.64-.1.9-.06.97.12,1.36,1.28,1.4,2.14,0,.04,0,.07,0,.11Z"/><path class="cls-11" d="M430.24,611.97c-1.97,8.13-6.18,15.69-11.66,21.97,0,0-.17-.1-.17-.1,1.54-3.89,3.42-7.54,5.32-11.24,1.94-3.68,3.88-7.3,6.29-10.72,0,0,.22.09.22.09h0Z"/><path class="cls-11" d="M427.33,599.65c-3.19,7.99-7.99,15.22-13.4,21.86-1.82,2.2-3.74,4.33-5.83,6.3l-.15-.12c2.53-4.26,6.55-10.09,9.32-14.26,3.2-4.7,6.32-9.4,9.86-13.89,0,0,.2.12.2.12h0Z"/><path class="cls-11" d="M426.93,610.68c-1.44,4.89-4.36,9.17-7.74,12.92-1.15,1.24-2.36,2.41-3.74,3.43l-.15-.13c2.35-4.44,5.17-8.5,8.17-12.5,1.01-1.32,2.06-2.61,3.27-3.83l.2.12h0Z"/><path class="cls-11" d="M381.14,612.61c-.77,8.55-3.81,16.99-6.86,24.96,0,0-.19-.03-.19-.03-.03-2.21.36-4.39.8-6.51.89-4.23,2.03-8.4,3.48-12.48.73-2.04,1.53-4.05,2.54-6.01l.23.06h0Z"/><path class="cls-11" d="M376.91,610.62c-2.82,10.4-6.91,20.44-12.08,29.9-1.75,3.14-3.63,6.21-5.79,9.1l-.17-.1c2.21-4.86,6.59-14.66,8.73-19.55,2.89-6.54,5.67-13.12,9.08-19.44,0,0,.22.09.22.09h0Z"/><path class="cls-11" d="M476.84,564.63c-4.75,6.06-10.62,11.1-16.8,15.64-2.07,1.5-4.2,2.92-6.45,4.18l-.12-.15c5.31-5.52,11.09-10.49,17.03-15.3,1.99-1.58,4.02-3.13,6.18-4.54l.16.17h0Z"/><path class="cls-11" d="M469.71,563.99c-1.71,3.36-4.59,5.86-7.71,7.86-1.06.64-2.15,1.23-3.36,1.64l-.12-.16c2.19-2.98,4.9-5.41,7.84-7.6.99-.71,2.02-1.37,3.19-1.91l.17.17h0Z"/><path class="cls-11" d="M523.67,546.48c-1.5,5.25-4.13,9.99-7.07,14.54-.99,1.5-2.04,2.98-3.25,4.37l-.17-.09c1.6-5.19,4.1-10.03,7-14.6.98-1.51,2.04-2.98,3.28-4.34l.2.12h0Z"/><path class="cls-11" d="M519.67,548.15c-1.07,3.23-3.23,5.86-5.62,8.2-.82.75-1.67,1.48-2.66,2.08l-.15-.13c1.67-4.16,4.43-7.88,8.24-10.3,0,0,.19.14.19.14h0Z"/><path class="cls-11" d="M520.27,542.5c-3.75,6.61-8.57,12.52-13.6,18.18-1.7,1.87-3.44,3.71-5.32,5.42l-.15-.13c3.86-6.55,8.51-12.53,13.53-18.21,1.69-1.88,3.44-3.7,5.36-5.4l.19.14h0Z"/><path class="cls-11" d="M438.14,536.19c-5.68-.42-11.23-1.69-16.9-2.07-5.64-.45-11.16-.88-16.74.7,0,0-.07-.18-.07-.18,5.02-3.06,11.26-3.11,16.99-2.72,2.88.22,5.79.63,8.56,1.4,2.8.73,5.53,1.57,8.21,2.64l-.05.23h0Z"/><path class="cls-11" d="M541.29,533.3c-4.91-2.66-9.09-6.34-13.01-10.26-1.29-1.32-2.54-2.68-3.67-4.19l.13-.15c4.83,2.76,9.12,6.3,13.07,10.2,1.3,1.31,2.54,2.69,3.65,4.22l-.15.18h0Z"/><path class="cls-11" d="M470.77,598.22c-10.08-1.18-20.52-2.88-30.47-4.97-4.33-8.82-8.13-18.4-7.82-28.44.24-10.38,4.85-19.04,13.75-24.49,0,0,.12.15.12.15-1.81,1.57-3.64,3.13-5.21,4.9-4.68,5.32-6.69,12.49-6.7,19.48,0,9.48,3.58,18.5,7.52,27.02,0,0-.73-.58-.73-.58,4.35.92,10.48,2.47,14.77,3.35,4.93,1.06,9.9,2.16,14.81,3.35,0,0-.05.23-.05.23h0Z"/><path class="cls-11" d="M427.98,565.68c-8.52.11-16.93-1.03-25.29-2.5-2.78-.51-5.55-1.08-8.31-1.84l.02-.19c8.5,0,16.96.98,25.32,2.42,2.78.5,5.56,1.09,8.29,1.88l-.03.23h0Z"/><path class="cls-11" d="M392.05,571.23c.91,12.68,1.17,25.37,1.23,38.07-.16,12.56.27,25.9-.96,38.09-1.19-19.03-1.43-38.07-1.19-57.12.08-6.35.32-12.7.69-19.05h.24Z"/><path class="cls-11" d="M439.92,599.84c2.68,10.25,4.69,20.64,6.54,31.06.91,5.21,1.78,10.42,2.54,15.66.78,5.23,1.49,10.47,2.03,15.75l-.19.03c-3.84-15.41-6.73-31.02-9.16-46.7-.79-5.23-1.49-10.48-1.99-15.76l.23-.04h0Z"/><path class="cls-11" d="M367.12,678.58c-5.84-2.63-11.05-6.36-16.03-10.33-1.65-1.34-3.26-2.73-4.76-4.27l.11-.16c5.78,2.74,11.08,6.31,16.08,10.26,1.65,1.33,3.26,2.73,4.74,4.31l-.14.19h0Z"/><path class="cls-15" d="M440.86,681.26c20.23,7.33,41.74-1.7,58.07-13.93,16.95-12.12,31.37-28.26,43.31-44.97-13.21,22.63-32.34,42.48-55.44,55.25-9.38,4.93-19.99,8.05-30.66,7.52-5.3-.29-10.59-1.41-15.37-3.64l.09-.22h0Z"/><path class="cls-15" d="M549.08,661.28c-3.22,9.01-7.6,17.5-12.25,25.83-1.57,2.76-3.2,5.5-4.99,8.15l-.17-.09c3.33-8.96,7.55-17.53,12.18-25.87,1.56-2.77,3.2-5.5,5.02-8.13l.21.11h0Z"/><path class="cls-15" d="M496.94,681.66c.83-4.03,2.81-7.62,5.09-10.99.77-1.11,1.6-2.19,2.59-3.18l.17.09c-.94,3.99-2.77,7.65-5.02,11.03-.76,1.11-1.6,2.19-2.63,3.16l-.21-.11h0Z"/><path class="cls-15" d="M519.81,689.52c3.36.14,6.42,1.47,9.29,3.11.93.58,1.85,1.19,2.7,1.98l-.08.18c-4.39-.44-8.7-2.07-12-5.06,0,0,.09-.22.09-.22h0Z"/><path class="cls-15" d="M558.65,492.55c.5,3.41-1.57,6.92-4.57,8.48,0,0-.15-.12-.15-.12.9-3.16,2.23-6.02,4.49-8.43,0,0,.22.07.22.07h0Z"/><path class="cls-15" d="M557.68,483.21c-.24,3.89-2.31,7.41-4.96,10.16-.91.9-1.89,1.73-3.04,2.36l-.14-.13c.56-1.18,1.2-2.23,1.81-3.29,1.13-1.83,2.66-4.4,3.86-6.16.69-1.01,1.39-2.03,2.25-3.01l.22.09h0Z"/><path class="cls-15" d="M553.7,478.47c-.24,3.89-2.31,7.41-4.96,10.16-.91.9-1.89,1.73-3.04,2.36l-.14-.13c.56-1.18,1.2-2.23,1.81-3.29,1.13-1.83,2.66-4.4,3.86-6.16.69-1.01,1.39-2.03,2.25-3.01l.22.09h0Z"/><path class="cls-9" d="M431.29,1293.8c-.83-4.33-1.75-8.78-4.23-12.43-2.08-3.07-4.78-6.62-8.49-6.62l-10.84.13-2.41,60.69c4.5,0,9.36,0,13.21-2.31,3.66-2.19,6.04-5.95,8.29-9.58,1-1.61,2-3.23,2.69-4.99.64-1.63,1-3.36,1.35-5.07.8-3.84,1.61-7.72,1.51-11.63-.06-2.76-.57-5.49-1.09-8.2ZM421.3,1306.43c-.19,1.16-.46,2.31-.73,3.46-.26,1.12-.52,2.24-.88,3.33-.74,2.28-1.61,4.95-3.11,6.82l.55-33.4c2.17,0,2.87,3.17,3.34,5.3,1.08,4.75,1.61,9.69.83,14.49Z"/><path class="cls-9" d="M495.28,1274.31v58.71h19.68v-9.66l-10.75-.45-.32-14.97,9.18-.08-.45-11.81-7-.08s.15-6.36,0-11.51l8.88-.19-.38-10.61-18.84.64Z"/><polygon class="cls-9" points="321.5 1334.47 321.28 1311.03 323.06 1275.87 343.67 1275.87 343.67 1285.92 332.76 1286.26 332.76 1296.52 339.68 1296.66 339.51 1307.05 332.06 1307.4 331.37 1334.47 321.5 1334.47"/><polygon class="cls-9" points="351.93 1324.17 351.93 1285.57 345.84 1285.57 345.84 1275.25 368.85 1275.45 368.85 1285.12 362.31 1285.34 362.53 1324.37 368.85 1324.37 368.85 1334.84 345.84 1335.1 345.84 1324.37 351.93 1324.17"/><polygon class="cls-9" points="488.4 1332.87 477.37 1332.87 477.55 1298.14 470.68 1311.03 463.65 1297.49 462.13 1332.42 450.88 1332.47 453.3 1282.33 453.65 1278.35 454.02 1274.06 458.32 1273.96 460.67 1273.89 464 1273.81 470.5 1288.99 480.47 1273.81 488.4 1273.81 488.66 1277.72 489.08 1284.32 489.08 1284.35 488.4 1332.87"/><polygon class="cls-9" points="373.31 1333.86 371.77 1275.65 382.8 1275.65 391.18 1297.84 391.18 1275.65 400.95 1275.65 400.25 1333.86 389.64 1333.86 381.68 1305.94 382.66 1334.7 373.31 1333.86"/><path class="cls-4" d="M501.32,88.14c-2.02,48.36-4.16,96.72-6.42,145.07,18.88,1.08,37.73,2.58,56.54,4.49.72-7.93,1.43-15.86,2.14-23.79-10.44-1.44-20.89-2.75-31.36-3.95.49-12.34.97-24.68,1.43-37.02,9.22.65,18.43,1.39,27.63,2.22.36-9.75.71-19.5,1.05-29.25-7.16-.75-14.32-1.44-21.49-2.09.89-9.44,1.62-18.93,1.88-28.41,9.3.6,18.59,1.28,27.88,2.05.35-8.75.69-17.51,1.01-26.26-20.08-1.45-40.17-2.47-60.29-3.07Z"/><path class="cls-8" d="M320.54,90.48c4.02,48.21,7.92,96.43,11.69,144.66,18.82-1.47,37.67-2.52,56.54-3.16-.28-7.96-.55-15.91-.84-23.87-10.51-.02-21.02.09-31.53.31-1.05-12.3-2.11-24.59-3.19-36.89,9.21-.59,18.41-1.1,27.63-1.52-.85-9.71-1.72-19.42-2.6-29.13-7.18.22-14.36.5-21.53.83-.3-9.48-.75-18.97-1.68-28.41,9.28-.66,18.56-1.23,27.85-1.72-.74-8.72-1.5-17.45-2.26-26.17-20.07,1.27-40.09,2.96-60.09,5.08Z"/><path class="cls-6" d="M246.87,98.06c-11.49,1.59-22.96,3.3-34.41,5.15,3.76,33.27,7.56,66.53,11.41,99.78,2.33,14.62,4.65,29.25,6.97,43.88,10.9-1.79,21.82-3.44,32.76-4.96-2.73-23.37-5.48-46.74-8.23-70.11,5.01-1.29,10.02-2.56,15.04-3.8,2.93,23.96,5.83,47.92,8.7,71.88,9.52-1.61,19.06-3.13,28.61-4.54-1.3-24.2-2.58-48.41-3.84-72.61-1.47-23.6-2.92-47.2-4.37-70.8-5.47.34-10.93.75-16.39,1.25-5.18.47-15.39.39-16.71,2.36-3.95,5.89,2.39,30.74,3.82,45.72-5.42.37-10.84.77-16.25,1.19-2.35-14.8-4.71-29.6-7.1-44.39Z"/><path class="cls-12" d="M441.93,161.8c4.79-1.58,9.37-3.53,13.96-5.56,10.25-4.54,18.57-12.45,24.73-21.66,2.19-3.27,4.59-6.79,5.67-10.45,1.39-4.73,1.34-9.27.27-14.18-3.17-14.59-16.07-28.48-32.07-28.93-8.17.03-16.34.09-24.5.17-7.73.08-16.95,1.51-24.51-.24-1.97,16.04-3.08,32.21-4.48,48.31.12,34.42.24,68.84.35,103.25,9.29-.19,18.58-.29,27.88-.29.07.04.12-.11.12-.14.61-1.07.45-2.84.56-3.99.26-2.76.44-5.54.62-8.32.48-7.78.89-15.58,1.26-23.37,9.97,12.9,19.72,25.97,29.24,39.21,7.51-4.08,15.05-8.09,22.64-12.03-13.37-20.96-27.28-41.55-41.72-61.78ZM435.17,105.54c3.82-.18,7.51-.57,11.02.08,3.14.58,6.69,2.62,8.56,5.45,2.41,3.65,1.53,8.51.23,12.48-.77,2.34-1.65,4.82-3.47,6.79-1.22,1.31-2.82,2.39-4.41,3.39-4.22,2.64-8.95,5.29-14.08,5.51.71-11.23,1.42-22.47,2.15-33.7Z"/><path class="cls-5" d="M60.39,137.18c19.2,44.35,37.67,89,55.41,133.96,6.44-1.71,12.88-3.38,19.34-5,1.09-27.76,2.57-55.51,4.45-83.23,10.94,24.31,21.58,48.75,31.92,73.32,9.89-1.66,19.8-3.21,29.73-4.65-2.67-48.42-4.82-96.87-6.44-145.34-10.54,1.88-21.06,3.87-31.56,5.97,2.5,22.17,5.06,44.34,7.66,66.5-9.53-20.77-19.3-41.41-29.32-61.95-8.17,1.8-16.32,3.66-24.45,5.59-2.85,19.2-5.47,38.44-7.85,57.7-6.1-17.07-12.28-34.11-18.55-51.13-10.14,2.65-20.25,5.4-30.34,8.26Z"/><path class="cls-6" d="M623.48,219.17c4.49-31.49,8.94-63,13.33-94.51-6.35-1.01-12.7-1.98-19.05-2.91,1.06-8.44,2.12-16.89,3.17-25.33,24.45,3.75,48.79,8.14,73.01,13.16-1.39,7.84-2.78,15.68-4.17,23.52-6.82-1.18-13.64-2.31-20.48-3.4-4.94,31.78-9.94,63.56-15.01,95.32,6.12,1.15,12.24,2.34,18.35,3.57-1.54,8.49-3.08,16.97-4.62,25.45-21.83-4.18-43.76-7.78-65.77-10.82,1.14-8.77,2.27-17.53,3.41-26.3,5.95.7,11.9,1.44,17.84,2.23Z"/><path class="cls-4" d="M771.58,170.53c-9.71-2.63-19.45-5.16-29.21-7.59.1-2.21-.63-4.38-.5-6.55.26-4.4-.31-9.28-3.67-12.41-.58-.54-1.35-1.05-2.19-1.14-.63-.06-1.22.13-1.72.37-2.41,1.15-3.53,3.53-3.53,5.91s.97,4.83,2.1,7.12c3.02,6.12,6.87,11.99,10.3,17.89,10.27,17.64,18.49,38.84,15.8,59.58-1.28,9.83-4.59,19.02-11.76,25.34-3.58,3.15-8.1,5.46-12.66,7.59-3.65,1.71-7.79,3.23-11.68,3.06-3.44-.15-6.55-.99-9.9-2.18-11.51-4.07-24.3-12.93-27.6-25.59-.74-2.82-.96-5.95-1.1-8.82-.4-8.48-1.24-17.32-1.63-25.71-.15-3.17-.36-7.1,2.41-9.49,9.74,2.05,19.46,4.19,29.15,6.44-2.1,10.31-.96,20.14,1.48,30.07.59,2.41,2.88,5.65,5.64,5.58,2-.05,3.27-1.82,3.86-3.45,2.35-6.53,1.69-13.82.66-20.5-1.16-7.47-4.5-14.72-8.22-21.31-3.13-5.55-6.65-11.03-9.81-16.5-7.74-13.4-13.3-30-7.42-45.36,2.11-5.5,5.47-9.74,10.13-12.9,5.77-3.91,12.93-4.75,20.03-4.2,7.06.54,14.06,1.22,20.77,3.18,6.2,1.81,12.97,5.49,16.44,11.21,2.03,3.33,2.68,7.33,3.07,11.17.99,9.8,1.69,19.5.31,29.36"/><path class="cls-7" d="M121.78,342.95c-.32-.03-.64-.08-.9-.23-1.05-.62-.99-3.15-1.28-4.19-.68-2.44-1.65-4.79-2.71-7.09-.89-1.93-1.99-3.84-3.8-5.11-1.81-1.26-4.5-1.67-6.63-.67-3.8,1.8-3.53,7.24-2.74,10.59,6.02,25.52,13.98,50.7,27.09,73.46,1.38,2.4,3.09,4.95,5.83,5.76,3.16-3.31,2.91-8.39,1.82-12.51-1.64-6.21-3.6-12.3-6.04-18.3,8.04-2.48,16.09-4.89,24.18-7.22,3.11,11.96,5.1,24.05,6,36.36.4,5.52.31,12.1-3,16.81-1.57,2.23-3.74,4.06-6.07,5.53-12,7.58-29.26,6.51-39.86-3.08-4.02-3.64-7.08-8.43-9.68-13.11-6.86-12.38-12.16-26.02-16.49-39.14-1.16-3.51-1.87-7.29-2.7-10.97-1.61-7.14-3.39-14.37-5.43-21.44-1.53-5.3-2.99-10.6-3.54-15.98-.92-8.97,1.96-17.93,6.52-25.67,1.98-3.36,4.72-6.47,8.16-8.51,2.42-1.43,5.58-2.4,8.33-2.76,9.66-1.27,19.77.15,28.23,5.39,7.84,4.86,13.3,12.47,15.91,21.29,1.08,3.67,2.14,7.36,3.09,11.05.28,1.08.86,2.59.7,3.23-.38,1.54-5.39,2.14-7.76,2.76-2.8.72-5.94,1.52-8.89,2.1-1.52.3-3.06.62-4.59.98-1.21.28-2.49.79-3.73.67Z"/><path class="cls-19" d="M204.21,271.18c-5.16-1.91-27.04,5.58-40.39,8.46,5.72,49.87,11.87,99.69,18.44,149.45,7.97-1.9,15.96-3.72,23.97-5.46-1.56-10.75-2.07-22.57-5.29-32.95,5.95-1.11,11.83-2.58,17.75-3.87,3.03,10.43,6.03,20.86,9,31.31,7.42-1.46,14.85-2.86,22.3-4.19-6.92-24.03-14.11-47.99-21.61-71.85-5.15-16.4-10.43-32.76-15.99-49.03-2.37-6.94-5.6-20.93-8.18-21.89ZM198.09,370.43c-2.09-21.81-4.1-43.64-6.01-65.47,7.56,20.65,14.94,41.37,22.13,62.16-5.38,1.07-10.75,2.18-16.12,3.31Z"/><path class="cls-2" d="M245.28,293.26c-1.35-8.97-2.7-17.94-4.06-26.91,26.25-4.13,52.6-7.42,79.06-9.87-.03,9.12-.05,18.24-.06,27.36-7.97.75-15.94,1.58-23.89,2.47,2.19,39.84,4.5,79.68,6.92,119.5-9.04.45-18.06,1-27.09,1.66-3.76-39.34-7.46-78.7-11.09-118.05-6.6,1.24-13.2,2.52-19.79,3.85Z"/><path class="cls-14" d="M379.67,250.94c-4.84-2.64-27.44,1.51-41.01,2.37-1.18,50.23-1.93,100.47-2.26,150.71,8.13-.69,16.26-1.3,24.4-1.84-.07-10.86,1.11-22.7-.71-33.41,6.02-.21,12.04-.8,18.05-1.19,1.57,10.77,3.1,21.55,4.6,32.34,7.53-.35,15.07-.62,22.61-.84-3.54-24.83-7.37-49.61-11.51-74.35-2.85-17.01-5.82-33.99-9.08-50.92-1.39-7.23-2.64-21.55-5.07-22.88ZM360.04,348.3c.92-21.91,1.93-43.81,3.03-65.71,4.63,21.57,9.08,43.18,13.33,64.83-5.46.26-10.91.56-16.36.88Z"/><path class="cls-8" d="M475.63,398.86c.32-7.5.64-15.01.96-22.51-9.97-.44-19.94-.76-29.92-.96.67-40.97,1.26-81.94,1.75-122.91-9.43-.15-18.86-.2-28.29-.16.48,48.48.84,96.96,1.07,145.44,18.15-.07,36.29.29,54.42,1.09Z"/><path class="cls-7" d="M541.45,402.17c3.54-47.89,6.8-95.8,9.78-143.73,10.39,1.1,20.76,2.33,31.12,3.67,5.7,19.15,11.08,38.39,16.14,57.71,2.5-18.12,4.98-36.25,7.45-54.37,9.17,1.41,18.32,2.91,27.46,4.5-8.14,47.27-16.33,94.52-24.57,141.77-8.81-1.52-17.64-2.95-26.49-4.28-3.52-23.84-7.45-47.61-11.78-71.32-1.9,23.65-3.88,47.3-5.94,70.94-7.71-1.7-15.44-3.32-23.18-4.88Z"/><path class="cls-16" d="M703.26,282.32c-4.12-3.94-27.07-6.03-40.49-8.89-13.74,48.22-27.06,96.55-39.98,145,8.08,1.54,16.14,3.17,24.19,4.87,2.66-10.53,6.7-21.65,7.68-32.47,5.91,1.44,11.92,2.51,17.87,3.77-1.17,10.84-2.38,21.67-3.62,32.5,7.43,1.73,14.85,3.52,22.25,5.38,2.76-24.96,5.24-49.96,7.4-74.98,1.49-17.21,2.85-34.44,3.91-51.68.46-7.37,2.87-21.51.79-23.5ZM659.76,371.03c6.39-20.91,12.86-41.8,19.42-62.66-.9,22.1-1.99,44.19-3.27,66.28-5.38-1.24-10.76-2.44-16.15-3.61Z"/><path class="cls-2" d="M517.67,402.63c-9.68-.82-19.37-1.52-29.07-2.1,2.67-49.08,5.23-98.16,7.65-147.25,10.96.65,21.9,1.44,32.84,2.36-3.68,49.01-7.49,98.01-11.42,147Z"/><path class="cls-5" d="M789.08,339.18c-5.03,3.8-10.68,7.08-15.97,10.53-16.75,10.94-31.23,25.48-38.92,44.19-.55,1.33-1.03,2.74-1.48,4.14,9.19,2.92,18.32,6.03,27.49,9,1.99-4.35,4.29-8.48,7.07-12.19,4.29-5.73,9.95-10.43,15.96-14.54,4.83-3.31,10.12-6.36,15.01-9.57,13.06-8.58,23.42-20.24,26.39-35.97,1.05-5.56.21-11.23-1.92-16.27-2.56-6.05-7.57-10.42-13.51-13.57-5.66-3-11.31-5.84-17.39-7.5-8.35-2.28-18.04-5.23-26.81-2.78-4.94,1.38-9.74,3.74-13.92,6.67-3.48,2.43-5.45,6.25-7.4,9.91-2.84,5.31-8.86,15.53-8.23,16.69,1.18,2.17,23,8.39,25.38,7.31,2.82-1.28,10.42-14.6,19.92-14.7,2.7-.03,5.63.4,8.15,1.52,4.35,1.92,7.39,7.39,5.03,11.94-1.08,2.08-2.93,3.75-4.83,5.18Z"/><path class="cls-5" d="M725.29,418.31c-.24.92-.36,1.88-.33,2.85.05,1.72.55,3.35,1.16,4.95.82,2.16,1.79,4.25,2.82,6.32,1.03,2.06,2.12,4.08,3.25,6.09.38.67.71,1.44,1.18,2.05.37.49.59,1.09,1.01,1.55.39.42.96.72,1.53.63.19-.03.37-.1.55-.18,1.29-.55,2.5-1.2,3.73-1.88,1.68-.93,3.35-1.87,5-2.85,1.65-.98,3.27-2.01,4.85-3.1,1.17-.81,2.32-1.64,3.38-2.58.63-.55,1.2-1.16,1.71-1.83.41-.54.76-1.11,1.07-1.71.3-.58.47-1.23.64-1.86.42-1.6.29-3.18-.3-4.74-.66-1.76-1.78-3.2-3.33-4.33-1.01-.74-2.13-1.28-3.36-1.54-1.29-.27-2.58-.26-3.84.12-1.43.43-2.62,1.2-3.64,2.23-.05.05-.09.13-.19.1-.1-.03-.09-.11-.11-.18-.38-1.71-1.17-3.22-2.53-4.44-.57-.51-1.21-.92-1.92-1.24-.41-.18-.81-.35-1.24-.47-.66-.18-1.32-.25-2-.29-.95-.06-1.88.04-2.79.28-1.99.52-3.65,1.54-4.89,3.13-.68.87-1.14,1.88-1.41,2.9Z"/><path class="cls-19" d="M320.85,820.35c.38-.75,1.31-1.12,2.09-1.12,2.63,0,3.15,4.91,3.43,6.73v-.05c1.49,6.96.37,8.88,1.26,15.99l1.24,9.54c-.2,1.26-1.52,1.78-2.19,1.78-.83,0-1.1-.56-1.6-.98-.75-3.79-1.28-7.62-1.65-11.5l-6.65-.05h-.46c-1.15,3.04-2.5,6.08-3.45,9.16-.53,1.73-1.02,3.51-3.01,3.74-1.19,0-2.14-.84-1.96-2.01.01-.09.17-.42.18-.51.74-1.78,1.64-3.55,2.33-5.33,1.58-3.83,2.87-7.76,4.2-11.64.29-.89.65-1.82,1.04-2.67,1.61-3.69,3.04-7.53,5.2-11.08ZM317.6,837.08h2.17c1.14,0,2.33-.05,3.48-.14-.07-3.83-.4-8.65-.85-12.34-1.53,3.83-3.37,8.6-4.8,12.48Z"/><path class="cls-19" d="M357.96,848.25c-.51,3.23-3.85,5.42-7.25,5.42-2.22,0-4.79-1.08-5.93-2.66-.97-1.36-.84-3.18-.58-4.86l.49-2.8c.3-1.92.34-3.79.64-5.7.7-4.44,1.86-9.54,8.21-9.54.57,0,2.93.09,3.37.23,2.07.61,3.44,3.08,3.12,5.1-.13.84-.9,1.78-1.93,1.78-3.15,0-.59-3.46-4.21-3.46-2.84,0-3.9,1.5-4.27,3.83-.38,2.43-.5,4.81-.88,7.25-.45,2.85-2.4,7.06,2.25,7.06,1.5,0,1.99-.84,2.63-1.96.5-.89,1.01-1.82,2.3-1.82,1.45,0,2.24.89,2.04,2.15Z"/><path class="cls-19" d="M384.7,837.73c.27,1.26.16,2.62-.06,3.97-1.01,6.45-4.62,11.97-12.67,11.97-7.54,0-11.9-5.7-10.87-12.29l.21-1.31c.85-5.38,7.54-11.87,13.79-11.87,5.83,0,9.04,4.86,9.6,9.54ZM376.63,849c2.27-1.64,3.59-4.77,3.96-7.15.33-2.1.2-5.84-1.21-7.38-.39-.47-.84-.89-1.29-1.31-.85-.84-2.15-1.45-3.54-1.45-3.25,0-5.97,2.52-7.73,4.86-1.11,1.5-1.59,3.22-1.86,4.91-.71,4.49,1.85,7.62,6.53,8.37.3.05.61.05.92.05,1.34,0,3-.05,4.22-.89Z"/><path class="cls-19" d="M399.92,850.92l-1.02,1.54c-.6.84-5.9.75-6.73.75h-1.91c-.93,0-1.94.19-2.87.19-1.45,0-2.83-.7-2.6-2.2l.09-.56c1.95-2.57,11.92-16.41,12.45-18.42-1.92.09-3.86.23-5.77.23-1.6,0-3.59-.47-3.31-2.24.13-.84.89-1.73,1.92-1.73,1.45,0,2.21.37,4.95.37,1.29,0,2.67-.23,3.96-.23,1.65,0,4.12.09,3.8,2.1-.1.61-.32,1.03-.85,1.45-.31.33-.63.7-.84,1.08-1.69,2.85-3.68,5.66-5.61,8.41-1.29,2.29-3.69,5.42-5.27,7.9,2.43,0,4.86-.37,7.29-.37.83,0,1.5.28,2.04.79.07.19.3.7.27.93Z"/><path class="cls-19" d="M419.17,850.59c-.46,2.9-.66,5.84-1.12,8.74-.35,2.2-1.09,5.28-2.87,7.11-1.42,1.45-4.72,2.76-6.68,2.76-5.73,0-7.7-2.24-6.88-7.48.21-1.31.84-2.71,2.59-2.71.93,0,2.17.98,2.03,1.87-.3,1.92-1.3,4.63,1.8,4.63,1.6,0,4.25-.79,4.96-2.34,1.02-2.24,1.61-6.96,1.99-9.35.1-.61.09-1.22.12-1.78-1.44.93-3.05,1.64-4.7,1.64-6.19,0-6.75-5-6.01-9.68l.99-5.98c.45-2.85.63-5.66,1.08-8.51.18-1.17.81-1.87,2.15-1.87,2.48,0,2.31,1.4,2.02,3.23l-2.1,12.67c-.36,2.29-1.33,6.5,2.33,6.5s4.95-3.55,5.36-6.17l.82-5.19c.27-1.73.4-3.51.67-5.23l.56-4.21c.2-1.26.35-2.2,2.05-2.2,2.07,0,2.28.93,2.02,2.57-.26,3.6-.76,6.83-1.27,10.05l-.69,4.39c-.35,2.2-.89,4.35-1.24,6.54Z"/><path class="cls-19" d="M444.65,852.37c-.39.84-.88,1.64-1.96,1.64-.77,0-1.39-.37-2.01-.65-3.36-1.59-2.58-7.25-2.08-10.38l1.65-10.52c.6-3.83.99-7.62,1.59-11.45.2-1.26,1.05-2.38,2.59-2.38,1.14,0,1.73.79,1.58,1.78l-3.54,22.2c-.36,2.29-1.35,6.96,1.54,7.95.55.42.7,1.12.64,1.82Z"/><path class="cls-19" d="M448.75,851.57l3.24-21.27c.19-1.21,1.1-2.38,2.59-2.38,1.14,0,1.73.84,1.57,1.82l-1.59,9.77c-.6,3.79-1.04,7.62-1.64,11.4-.2,1.26-1.1,2.38-2.65,2.38-1.03,0-1.68-.79-1.53-1.73ZM452.89,822.92c.15-.94.68-3.65,2.22-3.65,2.38,0,2.21,3.32,1.97,4.86-.15.98-.57,2.29-1.96,2.29-2.43,0-2.54-1.54-2.24-3.5Z"/><path class="cls-19" d="M481.04,853.67c-1.24,0-2.44-.23-3.5-.7-1.01-.47-1.85-1.03-2.32-2.01-1.55-2.95.11-11.22.65-14.63l.65-4.16c-3.2,0-6.4.33-9.6.33l-2.01,12.76c-.26,1.64-.65,5.14,1.74,5.33,1.4-.05,1.75-1.31,2.64-2.01l-.12.09c.58-.75,1.15-1.4,2.18-1.4,1.39,0,1.62.84,1.45,1.96-.47,2.99-3.57,5-6.72,5-7.43,0-5.2-7.95-4.48-12.57.47-2.99.78-5.94,1.25-8.93-1.44-.05-3.13-.09-2.87-1.78.11-.7,1.09-2.01,1.97-2.01.36,0,1.5-.05,1.5.33.12-.75-.02-1.54.1-2.29l.62-3.93c.15-.93,1.12-2.52,2.36-2.52.98,0,2.14.51,1.98,1.54-.29,1.82-.79,3.69-1.07,5.52-.07.42-.07.79-.09,1.21h10.12c.29-1.82.51-3.55.59-5.38,0-.33,0-.7.06-1.03.32-2.01.5-3.18,2.98-3.18,1.55,0,1.47,2.48,1.31,3.51-.32,2.01-.85,4.07-1.11,6.08,2.84,0,5.75-.42,8.58-.42,1.19,0,2.98.09,2.75,1.54-.11.7-.77,1.64-1.37,2.15-2.68.28-5.31.28-7.94.28-.93,0-1.79-.09-2.71-.14l-1.71,10.89c-.35,2.24-1.21,7.01,2.41,7.01,2.94,0,2.87-3.79,5.34-3.79,1.6,0,1.81.61,1.6,1.96-.41,2.62-4.41,5.38-7.19,5.38Z"/><path class="cls-19" d="M499.67,852.37c-.39.84-.88,1.64-1.96,1.64-.77,0-1.39-.37-2.01-.65-3.36-1.59-2.58-7.25-2.08-10.38l1.65-10.52c.6-3.83.99-7.62,1.59-11.45.2-1.26,1.05-2.38,2.59-2.38,1.14,0,1.73.79,1.58,1.78l-3.54,22.2c-.36,2.29-1.35,6.96,1.54,7.95.55.42.7,1.12.64,1.82Z"/><path class="cls-19" d="M517.55,848.3c-.58,3.69-3.15,5.28-7.08,5.28-3.25,0-5.69-.94-6.92-3.6-1.11-2.48-.09-8.6.36-11.5.76-4.86,2.07-10.52,8.83-10.52,5.47,0,6.17,2.43,6.14,6.92-.02,1.45-.01,3.04-.25,4.53-.15.93-1.73,1.82-3.02,1.82-.72,0-1.36-.23-2.08-.23-1.96,0-3.96-.09-5.91.14l-.51,3.88c-.52,3.32.67,4.91,4.44,4.91,2.22,0,1.56-1.08,2.22-1.96.4-.93,1.43-1.87,2.57-1.87s1.33,1.4,1.2,2.2ZM510.16,832.22c-1.18,1.26-1.56,2.38-1.8,3.88-.08.51-.15.98-.18,1.5l3.86.05h2.48c.12-1.12.76-5.14-.24-5.7-.48-.23-1.13-.37-1.75-.37-.67,0-1.87.09-2.37.65Z"/><path class="cls-19" d="M559.3,830.3c-.21,1.36-.77,2.57-1.48,3.83-2.04,5.42-4.21,9.68-4.91,11.55-.62,1.64-2.15,7.43-4.42,7.43-1.6,0-1.6-1.64-1.65-2.99-.08-1.78-.33-4.77-.48-6.45-.18-2.15-.21-4.25-.32-7.81-1.18,3.55-1.87,5.66-2.78,7.81-.74,1.73-1.76,4.63-2.41,6.45-.52,1.36-1.09,2.99-2.54,2.99-1.55,0-1.87-1.92-1.95-3.04-.21-2.95-.53-5.84-.68-8.79-.19-3.41-.74-6.45-.72-6.92-.3-1.08-.54-2.15-.37-3.23-.06-.28-.07-.56-.02-.84.16-1.03.91-1.54,2.05-1.54.98,0,1.55.33,1.65,1.31l.96,8.97c.2,2.01,0,4.53-.11,8.27,1.27-4.11,2.36-7.1,3.3-9.49.83-2.01,1.65-7.53,4.52-7.38,1.95-.23,1.87,1.54,1.84,3.41,0,1.36,0,2.57.27,3.88.21.98.36,1.68.28,2.81-.07,1.45.34,2.76.14,5.98,2.41-6.12,3.66-11.78,6.21-16.5.43-.75,1.18-1.26,2.06-1.26,1.29,0,1.74.42,1.56,1.54Z"/><path class="cls-19" d="M582.8,837.73c.27,1.26.16,2.62-.06,3.97-1.01,6.45-4.62,11.97-12.67,11.97-7.54,0-11.9-5.7-10.87-12.29l.21-1.31c.85-5.38,7.54-11.87,13.79-11.87,5.83,0,9.04,4.86,9.6,9.54ZM574.73,849c2.27-1.64,3.59-4.77,3.96-7.15.33-2.1.2-5.84-1.21-7.38-.39-.47-.84-.89-1.29-1.31-.85-.84-2.15-1.45-3.54-1.45-3.25,0-5.97,2.52-7.73,4.86-1.11,1.5-1.59,3.22-1.86,4.91-.71,4.49,1.85,7.62,6.53,8.37.3.05.61.05.92.05,1.34,0,3-.05,4.22-.89Z"/><path class="cls-19" d="M600.78,831.38c-.13.84-1.19,1.68-2.12,1.68-.72,0-1.29-.33-1.82-.56-.77-.33-1.7-.7-2.63-.7-1.7,0-2.02,1.03-2.23,2.34l-.4,2.53c-.44,2.8-.72,5.56-1.16,8.37-.33,2.1-.68,4.3-1.46,6.36-.35.89-.97,1.59-2.06,1.59-1.96,0-1.83-1.82-1.63-3.08.49-3.13,1.13-6.22,1.62-9.35.34-2.15.47-4.3.81-6.45.57-3.65,3.57-5.98,7.6-5.98,2.12,0,4.29,1.26,5.41,2.71.04.09.08.47.07.56Z"/><path class="cls-19" d="M607.65,852.37c-.39.84-.88,1.64-1.96,1.64-.77,0-1.39-.37-2.01-.65-3.36-1.59-2.58-7.25-2.08-10.38l1.65-10.52c.6-3.83.99-7.62,1.59-11.45.2-1.26,1.05-2.38,2.59-2.38,1.14,0,1.73.79,1.58,1.78l-3.54,22.2c-.36,2.29-1.35,6.96,1.54,7.95.55.42.7,1.12.64,1.82Z"/><path class="cls-19" d="M628.3,829.98c-.74,4.72-.81,9.39-1.55,14.12-.6,3.79-2.15,9.72-7.72,9.72-3.2,0-7.01-.7-8.04-3.69-.57-1.63.2-7.2.51-9.16.38-2.43.7-5.09,1.43-7.48,1.03-3.27,5.2-4.82,8.45-4.82,1.08,0,2.06.05,3.05.28.26-1.68.54-3.41.59-5.09.02-.79-.14-1.73-.02-2.48.16-1.03.47-2.34,1.97-2.34,2.63,0,2.38,3.23,2.11,4.96-.1.61-.35,1.22-.44,1.82-.22,1.4-.12,2.76-.34,4.16ZM622.68,844.37c.47-2.99.84-6.03,1.01-9.02.05-.33.18-2.8-.28-2.8-.72,0-1.27-.47-1.99-.47-.62,0-1.27.19-1.91.33-.44.14-1.73.47-2.16.93-.91,1.22-1.19,3.27-1.41,4.67l-1.19,7.57c-.05.33.04.75.04,1.08.06,2.24.95,3.79,3.69,3.79,2.99,0,3.78-3.37,4.21-6.08Z"/><path class="cls-19" d="M185.77,908.05c1.34,0,1.62.89,1.45,1.96-.47,2.99-3.57,5-6.72,5-2.01,0-4.24-1.26-5.03-2.8-.58-1.22-.38-2.85-.16-4.21l2.1-14.02c-1.34,0-3.6-.09-3.33-1.78.1-.61,1.26-2.1,1.98-2.1l2,.05c-.04-1.73.19-3.51.47-5.28.1-.66.64-1.78,1.09-2.34.13-.47.84-.75,1.46-.75.98,0,2.19.51,2.03,1.54l-.68,4.35-.29,2.48c.99-.05,1.98-.14,2.96-.14,1.08,0,2.39.89,2.22,1.96-.15.98-.9,1.45-1.94,1.5l-3.33.14-.68.05c.18.14-.98,7.57-1.29,9.49-.57,3.6-.77,3.6-.86,4.81-.14,1.87.18,3.46,1.83,3.46,1.39,0,1.97-1.03,2.64-2.01l.19-.23c.46-.61,1.05-1.12,1.88-1.12Z"/><path class="cls-19" d="M204.69,913.43c-.09.56-1.53,1.21-2.1,1.21-2.27,0-1.63-3.41-1.4-4.86l1.71-10.56c.18-1.12,1.25-5.66-.87-5.66-4.39,0-5.46,2.85-5.94,5.94l-.85,5.42c-.4,2.52-.59,5.05-.98,7.57-.18,1.12-1.19,1.64-2.25,1.82-1.08-.37-1.87-1.21-1.7-2.34,1.11-7.06,1.97-14.16,2.98-21.22l.48-3.69c.29-1.82.48-4.39.85-5.75.12-.47.66-.89,1.17-.89,2.01,0,2.75.56,2.46,2.38-.46,2.9-.94,5.66-1.43,9.07,1.96-1.31,3.79-1.78,5.39-1.78,1.5,0,3.08.14,4.06,1.12,2.22,1.96-.12,12.57-.49,14.91-.25,1.59-.91,6.45-1.1,7.29Z"/><path class="cls-19" d="M223.38,904.83c-.12,1.73-.38,3.41-.65,5.14-.62,3.97-4.08,4.96-7.9,4.96s-6.76-2.67-6.21-6.17c.47-2.99,2.62-6.12,6.03-7.15,1.64-.56,3.6-.56,5.32-.98.24-1.5,1.14-6.26-.06-7.2-.25-.05-.45-.09-.71-.09-2.74,0-4.25,2.71-6.05,2.71-1.29,0-1.41-.89-1.25-1.87.42-2.67,5.2-4.53,7.73-4.53,5.37,0,5.34,5.09,4.75,8.88-.33,2.1-.82,4.21-.99,6.31ZM218.84,909.45c.26-1.68.27-3.37.54-5.05-2.97.19-6.16,1.08-6.66,4.25-.25,1.59,1.2,2.57,2.85,2.57,2.07,0,2.98.09,3.27-1.78Z"/><path class="cls-19" d="M238.72,908.05c1.34,0,1.62.89,1.45,1.96-.47,2.99-3.57,5-6.72,5-2.01,0-4.24-1.26-5.03-2.8-.58-1.22-.38-2.85-.16-4.21l2.1-14.02c-1.34,0-3.6-.09-3.33-1.78.1-.61,1.26-2.1,1.98-2.1l2,.05c-.04-1.73.19-3.51.47-5.28.1-.66.64-1.78,1.09-2.34.13-.47.84-.75,1.46-.75.98,0,2.19.51,2.03,1.54l-.68,4.35-.29,2.48c.99-.05,1.98-.14,2.96-.14,1.08,0,2.39.89,2.22,1.96-.15.98-.9,1.45-1.94,1.5l-3.33.14-.68.05c.18.14-.98,7.57-1.29,9.49-.57,3.6-.77,3.6-.86,4.81-.14,1.87.18,3.46,1.83,3.46,1.39,0,1.97-1.03,2.64-2.01l.19-.23c.46-.61,1.05-1.12,1.88-1.12Z"/><path class="cls-19" d="M269.42,904.83c-.12,1.73-.38,3.41-.65,5.14-.62,3.97-4.08,4.96-7.9,4.96s-6.76-2.67-6.21-6.17c.47-2.99,2.62-6.12,6.03-7.15,1.64-.56,3.6-.56,5.32-.98.24-1.5,1.14-6.26-.06-7.2-.25-.05-.45-.09-.71-.09-2.74,0-4.25,2.71-6.05,2.71-1.29,0-1.41-.89-1.25-1.87.42-2.67,5.2-4.53,7.73-4.53,5.37,0,5.34,5.09,4.75,8.88-.33,2.1-.82,4.21-.99,6.31ZM264.88,909.45c.26-1.68.27-3.37.54-5.05-2.97.19-6.16,1.08-6.66,4.25-.25,1.59,1.2,2.57,2.85,2.57,2.07,0,2.98.09,3.27-1.78Z"/><path class="cls-19" d="M290.06,896.04l-1.61,10.24c-.23,1.45-.2,2.95-.43,4.39-.24,1.54-.11,3.65-2.48,3.65s-1.71-3.22-1.49-4.63l.71-4.49c.51-3.23,1.4-6.64,1.4-9.86-.02-1.54-.69-2.48-2.5-2.48-1.03,0-3.8,1.22-4.12,2.24-.28.79-.46,1.59-.58,2.38-.6,3.79-1.04,7.57-1.63,11.36-.19,1.22-.31,5.61-2.59,5.61s-1.99-2.76-1.76-4.25l1.51-9.63c.33-2.1.77-4.21,1.35-6.31.79-2.71,3.03-3.83,5.82-4.53.97-.23,1.96-.33,2.94-.33,5.21,0,6.13,2.38,5.46,6.64Z"/><path class="cls-19" d="M303.62,895.48c.21-1.31.33-2.76-1.68-2.76-1.29,0-3.54.51-3.77,1.96-.37,2.34,2.83,5.28,4.41,6.73,2.03,1.87,3.75,3.74,3.28,6.73-.57,3.65-2.56,6.78-7.11,6.78-4.13,0-7.21-2.71-6.61-6.54.18-1.17.98-2.94,2.58-2.94,1.24,0,1.86.98,1.7,2.01-.31,1.96-.38,4.07,2.46,4.07,1.5,0,2.69-1.36,3.09-2.57.49-3.74-4.71-6.12-6.21-9.07-.27-.56-.54-1.17-.86-1.73-.7-1.12-1.05-1.87-.81-3.37.24-1.54.89-3.04,2.48-3.97,1.53-.89,3.75-1.54,5.46-1.54,2.22,0,4.13.65,4.93,2.43.52.98.9,2.15.72,3.32-.16,1.03-.92,2.57-2.31,2.57-1.19,0-1.89-1.12-1.73-2.1Z"/><path class="cls-19" d="M335.52,891.55c-.21,1.36-.77,2.57-1.48,3.83-2.04,5.42-4.21,9.68-4.91,11.54-.62,1.64-2.15,7.43-4.42,7.43-1.6,0-1.6-1.64-1.65-2.99-.08-1.78-.33-4.77-.48-6.45-.18-2.15-.21-4.25-.32-7.81-1.18,3.55-1.87,5.66-2.78,7.81-.74,1.73-1.76,4.63-2.41,6.45-.52,1.36-1.09,2.99-2.54,2.99-1.55,0-1.87-1.92-1.95-3.04-.21-2.95-.53-5.84-.68-8.79-.19-3.41-.74-6.45-.72-6.92-.3-1.08-.54-2.15-.37-3.23-.06-.28-.07-.56-.02-.84.16-1.03.91-1.54,2.05-1.54.98,0,1.55.33,1.65,1.31l.96,8.97c.2,2.01,0,4.53-.11,8.27,1.27-4.11,2.36-7.11,3.3-9.49.83-2.01,1.65-7.53,4.52-7.38,1.95-.23,1.87,1.54,1.84,3.41,0,1.36,0,2.57.27,3.88.21.98.36,1.68.28,2.81-.07,1.45.34,2.76.14,5.98,2.41-6.12,3.66-11.78,6.21-16.5.43-.75,1.18-1.26,2.06-1.26,1.29,0,1.74.42,1.56,1.54Z"/><path class="cls-19" d="M350.33,909.55c-.58,3.69-3.15,5.28-7.08,5.28-3.25,0-5.69-.93-6.92-3.6-1.11-2.48-.09-8.6.36-11.5.76-4.86,2.07-10.52,8.83-10.52,5.47,0,6.17,2.43,6.14,6.92-.02,1.45-.01,3.04-.25,4.53-.15.93-1.73,1.82-3.02,1.82-.72,0-1.36-.23-2.08-.23-1.96,0-3.96-.09-5.91.14l-.51,3.88c-.52,3.32.67,4.91,4.44,4.91,2.22,0,1.56-1.08,2.22-1.96.4-.94,1.43-1.87,2.57-1.87s1.33,1.4,1.2,2.2ZM342.95,893.47c-1.18,1.26-1.56,2.38-1.8,3.88-.08.51-.15.98-.18,1.5l3.86.05h2.48c.12-1.12.76-5.14-.24-5.7-.48-.23-1.13-.37-1.75-.37-.67,0-1.87.09-2.37.65Z"/><path class="cls-19" d="M368.89,892.63c-.13.84-1.19,1.68-2.12,1.68-.72,0-1.29-.33-1.82-.56-.77-.33-1.7-.7-2.63-.7-1.7,0-2.02,1.03-2.23,2.34l-.4,2.52c-.44,2.8-.72,5.56-1.16,8.37-.33,2.1-.68,4.3-1.46,6.36-.35.89-.97,1.59-2.06,1.59-1.96,0-1.83-1.82-1.63-3.09.49-3.13,1.13-6.22,1.62-9.35.34-2.15.47-4.3.81-6.45.57-3.65,3.57-5.98,7.6-5.98,2.12,0,4.29,1.26,5.41,2.71.04.09.08.47.07.56Z"/><path class="cls-19" d="M379.8,895.48c.21-1.31.33-2.76-1.68-2.76-1.29,0-3.54.51-3.77,1.96-.37,2.34,2.83,5.28,4.41,6.73,2.03,1.87,3.75,3.74,3.28,6.73-.57,3.65-2.56,6.78-7.11,6.78-4.13,0-7.21-2.71-6.61-6.54.18-1.17.98-2.94,2.58-2.94,1.24,0,1.86.98,1.7,2.01-.31,1.96-.38,4.07,2.46,4.07,1.5,0,2.69-1.36,3.09-2.57.49-3.74-4.71-6.12-6.21-9.07-.27-.56-.54-1.17-.86-1.73-.7-1.12-1.05-1.87-.81-3.37.24-1.54.89-3.04,2.48-3.97,1.53-.89,3.75-1.54,5.46-1.54,2.22,0,4.13.65,4.93,2.43.52.98.9,2.15.72,3.32-.16,1.03-.92,2.57-2.31,2.57-1.19,0-1.89-1.12-1.73-2.1Z"/><path class="cls-19" d="M405.13,913.61c-.39.84-.88,1.64-1.96,1.64-.77,0-1.39-.38-2.01-.65-3.36-1.59-2.58-7.25-2.08-10.38l1.65-10.52c.6-3.83.99-7.62,1.59-11.45.2-1.26,1.05-2.38,2.59-2.38,1.14,0,1.73.79,1.58,1.78l-3.54,22.2c-.36,2.29-1.35,6.96,1.54,7.95.55.42.7,1.12.64,1.82Z"/><path class="cls-19" d="M409.23,912.82l3.24-21.27c.19-1.21,1.1-2.38,2.59-2.38,1.14,0,1.73.84,1.57,1.82l-1.59,9.77c-.6,3.79-1.04,7.62-1.64,11.4-.2,1.26-1.1,2.38-2.65,2.38-1.03,0-1.68-.79-1.53-1.73ZM413.37,884.17c.15-.93.68-3.65,2.23-3.65,2.38,0,2.21,3.32,1.97,4.86-.15.98-.57,2.29-1.96,2.29-2.43,0-2.54-1.54-2.24-3.51Z"/><path class="cls-19" d="M437.18,885.1c.1.33.04.7-.01,1.08-.18,1.12-1.07,1.54-2.2,1.54-1.29,0-1.58-.47-1.67-1.5-.1-.98-1.25-2.24-2.43-2.24s-2.38.7-3.19,1.54c-.86.89-1.69,5.8-1.88,7.06-.23,1.45-.25,2.9-.48,4.35,1.7,0,6.88-.75,6.49,1.73-.22,1.4-1.37,1.82-2.76,1.82s-2.82-.14-4.29.05c-.34,2.15-.46,4.25-.79,6.36l-.71,4.49c-.17,1.08-.5,2.2-1.27,3.13-.13.14-.74.42-1.1.42-2.27,0-2.24-1.54-1.98-3.18.24-1.54.85-3.13,1.1-4.72.41-2.62.46-5.23.87-7.85l1.36-8.32c.29-1.82.64-5.05,1.88-6.68,1.95-2.57,4.3-3.69,7.55-3.69,2.89,0,5.34,2.15,5.52,4.63Z"/><path class="cls-19" d="M448.3,909.55c-.58,3.69-3.15,5.28-7.08,5.28-3.25,0-5.69-.93-6.92-3.6-1.11-2.48-.09-8.6.36-11.5.76-4.86,2.07-10.52,8.83-10.52,5.47,0,6.17,2.43,6.14,6.92-.02,1.45-.01,3.04-.25,4.53-.15.93-1.73,1.82-3.02,1.82-.72,0-1.36-.23-2.08-.23-1.96,0-3.96-.09-5.91.14l-.51,3.88c-.52,3.32.67,4.91,4.44,4.91,2.22,0,1.56-1.08,2.22-1.96.4-.94,1.43-1.87,2.57-1.87s1.33,1.4,1.2,2.2ZM440.92,893.47c-1.18,1.26-1.56,2.38-1.8,3.88-.08.51-.15.98-.18,1.5l3.86.05h2.48c.12-1.12.76-5.14-.24-5.7-.48-.23-1.13-.37-1.75-.37-.67,0-1.87.09-2.37.65Z"/><path class="cls-19" d="M460.31,885.99c-.35,2.2-.69,4.72-1.65,6.87-.17.42-.73.7-1.19.7-.17.09-.32.09-.53.09-.88,0-1.62-.89-1.55-1.64.22-2.06.28-4.07.5-6.12.1-.98.05-1.96.21-2.95.15-.98.97-1.54,2.05-1.54,2.79,0,2.46,2.71,2.17,4.58Z"/><path class="cls-19" d="M472.6,895.48c.21-1.31.33-2.76-1.68-2.76-1.29,0-3.54.51-3.77,1.96-.37,2.34,2.83,5.28,4.41,6.73,2.03,1.87,3.75,3.74,3.28,6.73-.57,3.65-2.56,6.78-7.11,6.78-4.13,0-7.21-2.71-6.61-6.54.18-1.17.98-2.94,2.58-2.94,1.24,0,1.86.98,1.7,2.01-.31,1.96-.38,4.07,2.46,4.07,1.5,0,2.69-1.36,3.09-2.57.48-3.74-4.71-6.12-6.21-9.07-.27-.56-.54-1.17-.86-1.73-.7-1.12-1.05-1.87-.81-3.37.24-1.54.89-3.04,2.48-3.97,1.53-.89,3.75-1.54,5.46-1.54,2.22,0,4.13.65,4.93,2.43.52.98.9,2.15.72,3.32-.16,1.03-.92,2.57-2.31,2.57-1.19,0-1.89-1.12-1.73-2.1Z"/><path class="cls-19" d="M502.52,908.05c1.34,0,1.62.89,1.45,1.96-.47,2.99-3.57,5-6.72,5-2.01,0-4.24-1.26-5.03-2.8-.58-1.22-.38-2.85-.16-4.21l2.1-14.02c-1.34,0-3.6-.09-3.33-1.78.1-.61,1.26-2.1,1.98-2.1l2,.05c-.04-1.73.19-3.51.47-5.28.1-.66.64-1.78,1.09-2.34.13-.47.84-.75,1.46-.75.98,0,2.19.51,2.03,1.54l-.68,4.35-.29,2.48c.99-.05,1.98-.14,2.96-.14,1.08,0,2.39.89,2.22,1.96-.15.98-.9,1.45-1.94,1.5l-3.33.14-.68.05c.18.14-.98,7.57-1.29,9.49-.57,3.6-.77,3.6-.86,4.81-.14,1.87.18,3.46,1.83,3.46,1.39,0,1.97-1.03,2.64-2.01l.19-.23c.46-.61,1.05-1.12,1.88-1.12Z"/><path class="cls-19" d="M506.93,912.82l3.24-21.27c.19-1.21,1.1-2.38,2.59-2.38,1.14,0,1.73.84,1.57,1.82l-1.59,9.77c-.6,3.79-1.04,7.62-1.64,11.4-.2,1.26-1.1,2.38-2.65,2.38-1.03,0-1.68-.79-1.53-1.73ZM511.08,884.17c.15-.93.68-3.65,2.23-3.65,2.38,0,2.21,3.32,1.97,4.86-.15.98-.57,2.29-1.96,2.29-2.43,0-2.54-1.54-2.24-3.51Z"/><path class="cls-19" d="M533.88,896.04l-1.61,10.24c-.23,1.45-.2,2.95-.43,4.39-.24,1.54-.11,3.65-2.48,3.65s-1.71-3.22-1.49-4.63l.71-4.49c.51-3.23,1.4-6.64,1.4-9.86-.02-1.54-.69-2.48-2.5-2.48-1.03,0-3.8,1.22-4.12,2.24-.28.79-.46,1.59-.58,2.38-.6,3.79-1.04,7.57-1.63,11.36-.19,1.22-.31,5.61-2.59,5.61s-1.99-2.76-1.76-4.25l1.51-9.63c.33-2.1.77-4.21,1.35-6.31.79-2.71,3.03-3.83,5.82-4.53.97-.23,1.96-.33,2.94-.33,5.21,0,6.13,2.38,5.46,6.64Z"/><path class="cls-19" d="M551.84,911.84c-.46,2.9-.66,5.84-1.12,8.74-.35,2.2-1.09,5.28-2.87,7.1-1.42,1.45-4.72,2.76-6.68,2.76-5.73,0-7.7-2.24-6.88-7.48.21-1.31.84-2.71,2.59-2.71.93,0,2.17.98,2.03,1.87-.3,1.92-1.3,4.63,1.8,4.63,1.6,0,4.25-.79,4.96-2.34,1.02-2.24,1.61-6.96,1.99-9.35.1-.61.09-1.22.12-1.78-1.44.94-3.04,1.64-4.7,1.64-6.19,0-6.75-5-6.01-9.68l.99-5.98c.45-2.85.63-5.66,1.08-8.51.18-1.17.81-1.87,2.15-1.87,2.48,0,2.31,1.4,2.02,3.23l-2.1,12.67c-.36,2.29-1.33,6.5,2.33,6.5s4.95-3.55,5.36-6.17l.82-5.19c.27-1.73.4-3.51.67-5.24l.56-4.21c.2-1.26.35-2.2,2.05-2.2,2.07,0,2.28.93,2.02,2.57-.26,3.6-.76,6.82-1.27,10.05l-.69,4.39c-.35,2.2-.89,4.35-1.23,6.54Z"/><path class="cls-19" d="M588.68,895.48c-.61,4.86-1.32,9.72-2.07,14.49-.4,2.52-1.16,5.05-1.55,7.57-.29,1.82-.32,3.69-.61,5.52-.26,1.68-.78,3.32-1.04,5-.16,1.03-1.69,1.87-2.72,1.87-1.39,0-1.53-1.45-1.37-2.48.36-2.29.19.47,1.26-6.36l.96-6.78c-1.31.47-2.68.61-3.97.61-3.2,0-5.69-1.59-6.72-4.21-1.17-3.04-.45-7.01.08-10.33.21-1.31.37-2.67.82-3.93,1.37-3.79,4.89-6.78,9.33-6.78,4.96,0,7.5.89,7.61,5.8ZM583.98,900.1c.35-2.2,1.44-5.89-1.21-6.78-.49-.14-1.07-.42-1.64-.42-1.7,0-3.51.98-4.49,2.29-.98,1.31-1.22,2.85-1.45,4.3-.38,2.38-.76,4.81-.82,7.15-.05,1.64.62,2.94,1.9,3.97.59.51,1.37.79,2.25.79,1.03,0,2.04-.47,2.81-1.12,1.42-1.17,1.26-3.74,1.76-5.28v.09s.87-5,.87-5Z"/><path class="cls-19" d="M607.8,905.2c-.4,2.52-1.38,7.76-4.38,9.16-1,.47-2.95.7-4.03.7-2.43,0-5.1-.75-6.54-2.38-1.62-1.87-1.07-4.35-.9-6.73.09-1.54.23-3.13.48-4.67.33-2.1.36-4.25.68-6.31.23-1.45.7-5.42,3.07-5.42,1.14,0,2.05,1.08,1.9,2.06-.61,3.88-1.32,7.76-1.78,11.64-.34,3.13-1.81,8.23,3.15,8.23,3.56,0,4.35-5,4.7-7.25.62-3.97.63-7.95,1.26-11.92.18-1.17.57-2.66,2.23-2.66,1.39,0,2.38.93,2.18,2.2-.07.47-.37,1.03-.38,1.45-.36,3.93-1,7.99-1.62,11.92Z"/><path class="cls-19" d="M626.11,909.55c-.58,3.69-3.15,5.28-7.08,5.28-3.25,0-5.69-.93-6.92-3.6-1.11-2.48-.09-8.6.36-11.5.76-4.86,2.07-10.52,8.83-10.52,5.47,0,6.17,2.43,6.14,6.92-.02,1.45-.01,3.04-.25,4.53-.15.93-1.73,1.82-3.02,1.82-.72,0-1.36-.23-2.08-.23-1.96,0-3.96-.09-5.91.14l-.51,3.88c-.52,3.32.67,4.91,4.44,4.91,2.22,0,1.56-1.08,2.22-1.96.4-.94,1.43-1.87,2.57-1.87s1.33,1.4,1.2,2.2ZM618.73,893.47c-1.18,1.26-1.56,2.38-1.8,3.88-.08.51-.15.98-.18,1.5l3.86.05h2.48c.12-1.12.76-5.14-.24-5.7-.48-.23-1.13-.37-1.75-.37-.67,0-1.87.09-2.37.65Z"/><path class="cls-19" d="M640.56,895.48c.21-1.31.33-2.76-1.68-2.76-1.29,0-3.54.51-3.77,1.96-.37,2.34,2.83,5.28,4.41,6.73,2.03,1.87,3.75,3.74,3.28,6.73-.57,3.65-2.56,6.78-7.11,6.78-4.13,0-7.21-2.71-6.61-6.54.18-1.17.98-2.94,2.58-2.94,1.24,0,1.86.98,1.7,2.01-.31,1.96-.38,4.07,2.46,4.07,1.5,0,2.69-1.36,3.09-2.57.48-3.74-4.71-6.12-6.21-9.07-.27-.56-.54-1.17-.86-1.73-.7-1.12-1.05-1.87-.81-3.37.24-1.54.89-3.04,2.48-3.97,1.53-.89,3.75-1.54,5.46-1.54,2.22,0,4.13.65,4.93,2.43.52.98.9,2.15.72,3.32-.16,1.03-.92,2.57-2.31,2.57-1.19,0-1.89-1.12-1.73-2.1Z"/><path class="cls-19" d="M658.6,908.05c1.34,0,1.62.89,1.45,1.96-.47,2.99-3.57,5-6.72,5-2.01,0-4.24-1.26-5.03-2.8-.58-1.22-.38-2.85-.16-4.21l2.1-14.02c-1.34,0-3.6-.09-3.33-1.78.1-.61,1.26-2.1,1.98-2.1l2,.05c-.04-1.73.19-3.51.47-5.28.1-.66.64-1.78,1.09-2.34.13-.47.84-.75,1.46-.75.98,0,2.19.51,2.03,1.54l-.68,4.35-.29,2.48c.99-.05,1.98-.14,2.96-.14,1.08,0,2.39.89,2.22,1.96-.15.98-.9,1.45-1.94,1.5l-3.33.14-.68.05c.18.14-.98,7.57-1.29,9.49-.57,3.6-.77,3.6-.86,4.81-.14,1.87.18,3.46,1.83,3.46,1.39,0,1.97-1.03,2.64-2.01l.19-.23c.46-.61,1.05-1.12,1.88-1.12Z"/><path class="cls-19" d="M663.02,912.82l3.24-21.27c.19-1.21,1.1-2.38,2.59-2.38,1.14,0,1.73.84,1.57,1.82l-1.59,9.77c-.6,3.79-1.04,7.62-1.64,11.4-.2,1.26-1.1,2.38-2.65,2.38-1.03,0-1.68-.79-1.53-1.73ZM667.16,884.17c.15-.93.68-3.65,2.23-3.65,2.38,0,2.21,3.32,1.97,4.86-.15.98-.57,2.29-1.96,2.29-2.43,0-2.54-1.54-2.24-3.51Z"/><path class="cls-19" d="M696.21,898.98c.27,1.26.16,2.62-.06,3.97-1.01,6.45-4.62,11.97-12.67,11.97-7.54,0-11.91-5.7-10.87-12.29l.21-1.31c.85-5.38,7.54-11.87,13.79-11.87,5.83,0,9.04,4.86,9.6,9.54ZM688.14,910.25c2.27-1.64,3.59-4.77,3.96-7.15.33-2.1.2-5.84-1.21-7.38-.39-.47-.84-.89-1.29-1.31-.85-.84-2.15-1.45-3.54-1.45-3.25,0-5.97,2.52-7.73,4.86-1.11,1.5-1.59,3.22-1.86,4.91-.71,4.49,1.85,7.62,6.53,8.37.3.05.61.05.92.05,1.34,0,3-.05,4.22-.89Z"/><path class="cls-19" d="M715.93,896.04l-1.61,10.24c-.23,1.45-.2,2.95-.43,4.39-.24,1.54-.11,3.65-2.48,3.65s-1.71-3.22-1.49-4.63l.71-4.49c.51-3.23,1.4-6.64,1.4-9.86-.02-1.54-.69-2.48-2.5-2.48-1.03,0-3.8,1.22-4.12,2.24-.28.79-.46,1.59-.58,2.38-.6,3.79-1.04,7.57-1.63,11.36-.19,1.22-.31,5.61-2.59,5.61s-1.99-2.76-1.76-4.25l1.51-9.63c.33-2.1.77-4.21,1.35-6.31.79-2.71,3.03-3.83,5.82-4.53.97-.23,1.96-.33,2.94-.33,5.21,0,6.13,2.38,5.46,6.64Z"/><path class="cls-19" d="M729.49,895.48c.21-1.31.33-2.76-1.68-2.76-1.29,0-3.54.51-3.77,1.96-.37,2.34,2.83,5.28,4.41,6.73,2.03,1.87,3.75,3.74,3.28,6.73-.57,3.65-2.56,6.78-7.11,6.78-4.13,0-7.21-2.71-6.61-6.54.18-1.17.98-2.94,2.58-2.94,1.24,0,1.86.98,1.7,2.01-.31,1.96-.38,4.07,2.46,4.07,1.5,0,2.69-1.36,3.09-2.57.49-3.74-4.71-6.12-6.21-9.07-.27-.56-.54-1.17-.86-1.73-.7-1.12-1.05-1.87-.81-3.37.24-1.54.89-3.04,2.48-3.97,1.53-.89,3.75-1.54,5.46-1.54,2.22,0,4.13.65,4.93,2.43.52.98.9,2.15.72,3.32-.16,1.03-.92,2.57-2.31,2.57-1.19,0-1.89-1.12-1.73-2.1Z"/><path class="cls-19" d="M737.8,913.85c-.52,0-.96-.14-1.33-.37-1.17-.14-.71-2.71-.59-3.46l.32-2.06c.12-.75.25-2.24,1.44-2.24,1.65,0,2.13.23,2.99,1.36l-.4,2.57c-.14.89-.43,3.74-1.63,4.11v-.05c-.27.09-.53.14-.79.14ZM740.64,898.75c-3.56,0-2.69-3.22-2.33-5.51.22-1.4.63-2.38,2.49-2.38,1.19,0,1.59.75,1.97,1.59l-.62,3.32c-.1.61-.04,1.22-.12,1.78-.11.7-.55,1.21-1.38,1.21Z"/><path class="cls-19" d="M310.38,973.93c-.66-3.04-.82-6.59-1.1-9.77-.24-2.43-.87-5.28-1.06-7.71l-.45-5.7c-2.22,4.91-4.43,10.8-6.6,15.71-.73,1.68-4,9.68-6.22,9.68s-2.48-2.94-2.7-4.49c-.29-1.45-.87-3.65-1.03-5.28-.83-7.2-1.77-14.35-1.8-21.74.05-1.31.05-2.62,2.01-2.62,1.81,0,2.03,2.2,2.08,3.51.02.89.14,1.73.26,2.62.32,2.57.1,5.28.36,7.85.29,2.76.53,5.52.98,8.23.3,1.68.38,3.46.69,5.14,1.84-3.83,3.37-8.27,5.21-12.11.6-1.21,1.1-2.43,1.61-3.65,1.19-2.95,2.38-5.94,3.86-8.79.44-.79,1.63-1.17,2.51-1.17.26,0,.67,0,.92.05,1.02.09,1.22,2.06,1.26,2.8.02,1.54.35,3.04.53,4.49.16.98.21,1.96.31,2.94.24,3.04.81,6.03,1.05,9.07.14,1.73.19,4.02.49,5.75,1.38-2.9,2.57-5.84,3.9-8.69,1.41-3.41,2.89-6.87,4.4-10.28.63-1.36,1.36-2.76,1.84-4.16.49-1.45,1.5-3.6,3.35-3.6.93,0,1.62.51,1.48,1.4-.24,1.5-5.54,13.56-6.7,15.99-.69,1.45-1.44,2.95-1.99,4.44-.85,2.43-2.08,4.72-3.27,7.01-.58,1.4-2.23,5.33-4.3,5.33-1.03,0-1.84-1.4-1.92-2.24Z"/><path class="cls-19" d="M342.11,974.67c-.09.56-1.53,1.22-2.1,1.22-2.27,0-1.63-3.41-1.4-4.86l1.71-10.56c.18-1.12,1.25-5.66-.87-5.66-4.39,0-5.46,2.85-5.94,5.94l-.85,5.42c-.4,2.52-.59,5.05-.98,7.57-.18,1.12-1.19,1.64-2.25,1.82-1.08-.38-1.87-1.22-1.7-2.34,1.11-7.06,1.97-14.16,2.98-21.22l.48-3.69c.29-1.82.48-4.39.85-5.75.12-.47.66-.89,1.17-.89,2.01,0,2.75.56,2.46,2.38-.46,2.9-.94,5.66-1.43,9.07,1.96-1.31,3.79-1.78,5.39-1.78,1.5,0,3.08.14,4.06,1.12,2.22,1.96-.12,12.57-.49,14.91-.25,1.59-.91,6.45-1.1,7.29Z"/><path class="cls-19" d="M361.66,970.79c-.58,3.69-3.15,5.28-7.08,5.28-3.25,0-5.69-.93-6.92-3.6-1.11-2.48-.09-8.6.36-11.5.76-4.86,2.07-10.52,8.83-10.52,5.47,0,6.17,2.43,6.14,6.92-.02,1.45-.01,3.04-.25,4.53-.15.94-1.73,1.82-3.02,1.82-.72,0-1.36-.23-2.08-.23-1.96,0-3.96-.09-5.91.14l-.51,3.88c-.52,3.32.67,4.91,4.44,4.91,2.22,0,1.56-1.08,2.22-1.96.4-.93,1.43-1.87,2.57-1.87s1.33,1.4,1.2,2.2ZM354.28,954.71c-1.18,1.26-1.56,2.38-1.8,3.88-.08.51-.15.98-.18,1.5l3.86.05h2.48c.12-1.12.76-5.14-.24-5.7-.48-.23-1.13-.37-1.75-.37-.67,0-1.87.09-2.37.65Z"/><path class="cls-19" d="M380.22,953.87c-.13.84-1.19,1.68-2.12,1.68-.72,0-1.29-.33-1.82-.56-.77-.33-1.7-.7-2.63-.7-1.7,0-2.02,1.03-2.23,2.34l-.4,2.52c-.44,2.8-.72,5.56-1.16,8.37-.33,2.1-.68,4.3-1.46,6.36-.35.89-.97,1.59-2.06,1.59-1.96,0-1.83-1.82-1.63-3.08.49-3.13,1.13-6.22,1.62-9.35.34-2.15.47-4.3.81-6.45.57-3.65,3.57-5.98,7.6-5.98,2.12,0,4.29,1.26,5.41,2.71.04.09.08.47.07.56Z"/><path class="cls-19" d="M394.33,970.79c-.58,3.69-3.15,5.28-7.08,5.28-3.25,0-5.69-.93-6.92-3.6-1.11-2.48-.09-8.6.36-11.5.76-4.86,2.07-10.52,8.83-10.52,5.47,0,6.17,2.43,6.14,6.92-.02,1.45-.01,3.04-.25,4.53-.15.94-1.73,1.82-3.02,1.82-.72,0-1.36-.23-2.08-.23-1.96,0-3.96-.09-5.91.14l-.51,3.88c-.52,3.32.67,4.91,4.44,4.91,2.22,0,1.56-1.08,2.22-1.96.4-.93,1.43-1.87,2.57-1.87s1.33,1.4,1.2,2.2ZM386.95,954.71c-1.18,1.26-1.56,2.38-1.8,3.88-.08.51-.15.98-.18,1.5l3.86.05h2.48c.12-1.12.76-5.14-.24-5.7-.48-.23-1.13-.37-1.75-.37-.67,0-1.87.09-2.37.65Z"/><path class="cls-19" d="M410.7,974.06l3.24-21.27c.19-1.21,1.1-2.38,2.59-2.38,1.14,0,1.73.84,1.57,1.82l-1.59,9.77c-.6,3.79-1.04,7.62-1.64,11.41-.2,1.26-1.1,2.38-2.65,2.38-1.03,0-1.68-.79-1.53-1.73ZM414.84,945.41c.15-.93.68-3.65,2.22-3.65,2.38,0,2.21,3.32,1.97,4.86-.15.98-.57,2.29-1.96,2.29-2.43,0-2.54-1.54-2.24-3.51Z"/><path class="cls-19" d="M431.8,956.72c.21-1.31.33-2.76-1.68-2.76-1.29,0-3.54.51-3.77,1.96-.37,2.34,2.83,5.28,4.41,6.73,2.03,1.87,3.75,3.74,3.28,6.73-.57,3.65-2.56,6.78-7.11,6.78-4.13,0-7.21-2.71-6.61-6.54.18-1.17.98-2.94,2.58-2.94,1.24,0,1.86.98,1.7,2.01-.31,1.96-.38,4.07,2.46,4.07,1.5,0,2.69-1.36,3.09-2.57.49-3.74-4.71-6.12-6.21-9.07-.27-.56-.54-1.17-.86-1.73-.7-1.12-1.05-1.87-.81-3.36.24-1.54.89-3.04,2.48-3.97,1.53-.89,3.75-1.54,5.46-1.54,2.22,0,4.13.65,4.93,2.43.52.98.9,2.15.72,3.32-.16,1.03-.92,2.57-2.31,2.57-1.19,0-1.89-1.12-1.73-2.1Z"/><path class="cls-19" d="M450.32,966.91c.24-1.54.37-3.04.56-4.53.3-2.57.54-5.09.95-7.67.36-2.29.93-4.58,1.49-6.87.88-3.6,4.29-6.59,8.47-6.59,1.6,0,2.74,0,4.15.56,2.29.89,4.56,4.49,4.19,6.87-.12.79-.6,1.54-1.17,2.2l-.87.28c-1.86,0-1.9-1.4-2.2-2.76-.61-2.01-1.19-3.6-4.03-3.6-1.5,0-3.77,1.03-4.39,2.29-.79,2.71-1.06,5.42-1.59,8.13l-.81,4.49c-.4,2.52-.58,5-.86,7.76.32.94-.73,4.96,3.3,4.96,1.29,0,4.25-.75,5.04-1.87.66-.94.58-4.02,2.49-4.02,2.06,0,2.15,1.12,1.9,2.71-.71,4.53-5.25,6.82-9.85,6.82-5.73,0-7.49-4.53-6.77-9.16Z"/><path class="cls-19" d="M484.47,966.07c-.12,1.73-.38,3.41-.65,5.14-.62,3.97-4.08,4.96-7.9,4.96s-6.76-2.66-6.21-6.17c.47-2.99,2.62-6.12,6.03-7.15,1.64-.56,3.6-.56,5.32-.98.24-1.5,1.14-6.26-.06-7.2-.25-.05-.45-.09-.71-.09-2.74,0-4.25,2.71-6.05,2.71-1.29,0-1.41-.89-1.25-1.87.42-2.66,5.2-4.53,7.73-4.53,5.37,0,5.34,5.09,4.75,8.88-.33,2.1-.82,4.21-.99,6.31ZM479.92,970.7c.26-1.68.27-3.37.54-5.05-2.97.19-6.16,1.08-6.66,4.25-.25,1.59,1.2,2.57,2.85,2.57,2.07,0,2.98.09,3.27-1.78Z"/><path class="cls-19" d="M499.81,969.3c1.34,0,1.62.89,1.45,1.96-.47,2.99-3.57,5-6.72,5-2.01,0-4.24-1.26-5.03-2.8-.58-1.22-.38-2.85-.16-4.21l2.1-14.02c-1.34,0-3.6-.09-3.33-1.78.1-.61,1.26-2.1,1.98-2.1l2,.05c-.04-1.73.19-3.51.47-5.28.1-.66.64-1.78,1.09-2.34.13-.47.84-.75,1.46-.75.98,0,2.19.51,2.03,1.54l-.68,4.35-.29,2.48c.99-.05,1.98-.14,2.96-.14,1.08,0,2.39.89,2.22,1.96-.15.98-.9,1.45-1.94,1.5l-3.33.14-.68.05c.18.14-.98,7.57-1.29,9.49-.57,3.6-.77,3.6-.86,4.81-.14,1.87.18,3.46,1.83,3.46,1.39,0,1.97-1.03,2.64-2.01l.19-.23c.46-.61,1.05-1.12,1.88-1.12Z"/><path class="cls-19" d="M518.28,966.07c-.12,1.73-.38,3.41-.65,5.14-.62,3.97-4.08,4.96-7.9,4.96s-6.76-2.66-6.21-6.17c.47-2.99,2.62-6.12,6.03-7.15,1.64-.56,3.6-.56,5.32-.98.24-1.5,1.14-6.26-.06-7.2-.25-.05-.45-.09-.71-.09-2.74,0-4.25,2.71-6.05,2.71-1.29,0-1.41-.89-1.25-1.87.42-2.66,5.2-4.53,7.73-4.53,5.37,0,5.34,5.09,4.75,8.88-.33,2.1-.82,4.21-.99,6.31ZM513.73,970.7c.26-1.68.27-3.37.54-5.05-2.97.19-6.16,1.08-6.66,4.25-.25,1.59,1.2,2.57,2.85,2.57,2.07,0,2.98.09,3.27-1.78Z"/><path class="cls-19" d="M529.02,974.86c-.39.84-.88,1.64-1.96,1.64-.77,0-1.39-.37-2.01-.65-3.36-1.59-2.58-7.25-2.08-10.38l1.65-10.52c.6-3.83.99-7.62,1.6-11.45.2-1.26,1.05-2.38,2.59-2.38,1.14,0,1.73.79,1.58,1.78l-3.54,22.2c-.36,2.29-1.35,6.96,1.54,7.95.55.42.7,1.12.64,1.82Z"/><path class="cls-19" d="M533.12,974.06l3.24-21.27c.19-1.21,1.1-2.38,2.59-2.38,1.14,0,1.73.84,1.57,1.82l-1.59,9.77c-.6,3.79-1.04,7.62-1.64,11.41-.2,1.26-1.1,2.38-2.65,2.38-1.03,0-1.68-.79-1.53-1.73ZM537.27,945.41c.15-.93.68-3.65,2.22-3.65,2.38,0,2.21,3.32,1.97,4.86-.15.98-.57,2.29-1.96,2.29-2.43,0-2.54-1.54-2.24-3.51Z"/><path class="cls-19" d="M560.07,957.29l-1.61,10.24c-.23,1.45-.2,2.95-.43,4.39-.24,1.54-.11,3.65-2.48,3.65s-1.71-3.23-1.49-4.63l.71-4.49c.51-3.23,1.41-6.64,1.4-9.86-.02-1.54-.69-2.48-2.5-2.48-1.03,0-3.8,1.21-4.12,2.24-.28.79-.46,1.59-.58,2.38-.6,3.79-1.04,7.57-1.63,11.36-.19,1.22-.31,5.61-2.59,5.61s-1.99-2.76-1.76-4.25l1.51-9.63c.33-2.1.76-4.21,1.35-6.31.79-2.71,3.03-3.83,5.82-4.53.97-.23,1.96-.33,2.94-.33,5.21,0,6.13,2.38,5.46,6.64Z"/><path class="cls-19" d="M576.09,966.07c-.12,1.73-.38,3.41-.65,5.14-.62,3.97-4.08,4.96-7.9,4.96s-6.76-2.66-6.21-6.17c.47-2.99,2.62-6.12,6.03-7.15,1.64-.56,3.6-.56,5.32-.98.24-1.5,1.14-6.26-.06-7.2-.25-.05-.45-.09-.71-.09-2.74,0-4.25,2.71-6.05,2.71-1.29,0-1.41-.89-1.25-1.87.42-2.66,5.2-4.53,7.73-4.53,5.37,0,5.34,5.09,4.75,8.88-.33,2.1-.82,4.21-.99,6.31ZM571.54,970.7c.26-1.68.27-3.37.54-5.05-2.97.19-6.16,1.08-6.66,4.25-.25,1.59,1.2,2.57,2.85,2.57,2.07,0,2.98.09,3.27-1.78Z"/><path class="cls-19" d="M588.14,972.8c-.21,1.31-.75,3.46-2.66,3.46-2.01,0-1.93-2.85-1.72-4.16.05-.33.24-.56.49-.79v.05c.43-.79.98-1.36,1.96-1.36.72,0,1.67.51,2.07.93.11.28-.07,1.45-.14,1.87ZM593.41,941.58c1.75,0,4.32.09,5.69.89,2.28,1.26,2.46,4.67,2.09,7.06-.35,2.2-1.34,3.93-3.34,5.47-2.34,1.78-4.64,3.6-7.03,5.33l.07-.09c-1.67,2.06-1.59,4.86-2.16,7.15-.5.56-.96.84-1.68.84-.52,0-.87-.05-1.31-.23-.87-.37-.71-1.4-.63-2.24.07-1.08.24-2.2.41-3.27,1.07-6.78,7.81-6.31,11.11-11.92.07-.09.13-.19.19-.23l-.11.05c.16-.38.27-.7.32-1.08.32-2.01-.35-4.02-2.88-4.02-1.96,0-3.81-.05-5.17,1.68-.11,1.03-.46,2.24-.82,3.22-.29.89-.98,1.31-1.96,1.31-1.34,0-1.74-1.4-1.58-2.43l.4-2.52c.6-3.51,5.06-4.96,8.37-4.96Z"/><path class="cls-19" d="M217.21,1035.17c-.66-3.04-.82-6.59-1.1-9.77-.24-2.43-.87-5.28-1.06-7.71l-.45-5.7c-2.22,4.91-4.43,10.8-6.6,15.71-.73,1.68-4,9.67-6.22,9.67s-2.48-2.94-2.7-4.49c-.29-1.45-.87-3.65-1.03-5.28-.83-7.2-1.77-14.35-1.8-21.74.05-1.31.05-2.62,2.01-2.62,1.81,0,2.03,2.2,2.08,3.51.02.89.14,1.73.26,2.62.32,2.57.1,5.28.36,7.85.29,2.76.53,5.52.98,8.23.3,1.68.38,3.46.69,5.14,1.84-3.83,3.37-8.27,5.21-12.11.6-1.21,1.1-2.43,1.61-3.65,1.19-2.95,2.38-5.94,3.86-8.79.44-.79,1.63-1.17,2.51-1.17.26,0,.67,0,.92.05,1.02.09,1.23,2.06,1.26,2.8.02,1.54.35,3.04.53,4.49.16.98.21,1.96.31,2.94.24,3.04.81,6.03,1.05,9.07.14,1.73.19,4.02.49,5.75,1.38-2.9,2.57-5.84,3.9-8.69,1.41-3.41,2.89-6.87,4.4-10.28.63-1.36,1.36-2.76,1.84-4.16.49-1.45,1.5-3.6,3.35-3.6.93,0,1.62.51,1.48,1.4-.24,1.5-5.54,13.56-6.7,15.99-.69,1.45-1.44,2.95-1.99,4.44-.85,2.43-2.08,4.72-3.27,7.01-.58,1.4-2.23,5.33-4.3,5.33-1.03,0-1.84-1.4-1.92-2.24Z"/><path class="cls-19" d="M248.94,1035.92c-.09.56-1.53,1.22-2.1,1.22-2.27,0-1.63-3.41-1.4-4.86l1.71-10.56c.18-1.12,1.25-5.66-.87-5.66-4.39,0-5.46,2.85-5.94,5.94l-.85,5.42c-.4,2.52-.59,5.05-.98,7.57-.18,1.12-1.19,1.64-2.25,1.82-1.08-.37-1.87-1.22-1.7-2.34,1.11-7.06,1.97-14.16,2.98-21.22l.48-3.69c.29-1.82.48-4.39.85-5.75.12-.47.66-.89,1.17-.89,2.01,0,2.75.56,2.46,2.38-.46,2.9-.94,5.66-1.43,9.07,1.96-1.31,3.79-1.78,5.39-1.78,1.5,0,3.08.14,4.06,1.12,2.22,1.96-.12,12.57-.49,14.91-.25,1.59-.91,6.45-1.1,7.29Z"/><path class="cls-19" d="M267.63,1027.32c-.12,1.73-.38,3.41-.65,5.14-.62,3.97-4.08,4.95-7.9,4.95s-6.76-2.66-6.21-6.17c.47-2.99,2.62-6.12,6.03-7.15,1.64-.56,3.6-.56,5.32-.98.23-1.5,1.14-6.26-.06-7.2-.25-.05-.45-.09-.71-.09-2.74,0-4.25,2.71-6.05,2.71-1.29,0-1.41-.89-1.25-1.87.42-2.66,5.2-4.53,7.73-4.53,5.37,0,5.34,5.09,4.75,8.88-.33,2.1-.82,4.21-.99,6.31ZM263.08,1031.95c.26-1.68.27-3.37.54-5.05-2.97.19-6.16,1.07-6.66,4.25-.25,1.59,1.2,2.57,2.85,2.57,2.07,0,2.98.09,3.27-1.78Z"/><path class="cls-19" d="M282.97,1030.55c1.34,0,1.62.89,1.45,1.96-.47,2.99-3.57,5-6.72,5-2.01,0-4.24-1.26-5.03-2.8-.58-1.21-.38-2.85-.16-4.21l2.1-14.02c-1.34,0-3.6-.09-3.33-1.78.1-.61,1.26-2.1,1.98-2.1l2.01.05c-.04-1.73.19-3.51.47-5.28.1-.65.64-1.78,1.09-2.34.12-.47.84-.75,1.46-.75.98,0,2.19.51,2.03,1.54l-.68,4.35-.29,2.48c.99-.05,1.98-.14,2.96-.14,1.08,0,2.39.89,2.22,1.96-.15.98-.9,1.45-1.94,1.5l-3.33.14-.68.05c.18.14-.98,7.57-1.29,9.49-.57,3.6-.77,3.6-.86,4.81-.14,1.87.18,3.46,1.83,3.46,1.39,0,1.97-1.03,2.64-2.01l.19-.23c.46-.61,1.05-1.12,1.88-1.12Z"/><path class="cls-19" d="M296.04,1008.48c-.35,2.2-.69,4.72-1.65,6.87-.17.42-.73.7-1.19.7-.17.09-.32.09-.53.09-.88,0-1.62-.89-1.55-1.64.22-2.06.28-4.07.5-6.12.1-.98.05-1.96.21-2.95.15-.98.97-1.54,2.05-1.54,2.79,0,2.46,2.71,2.17,4.58Z"/><path class="cls-19" d="M308.33,1017.97c.21-1.31.33-2.76-1.68-2.76-1.29,0-3.54.51-3.77,1.96-.37,2.34,2.83,5.28,4.41,6.73,2.03,1.87,3.75,3.74,3.28,6.73-.57,3.65-2.56,6.78-7.11,6.78-4.13,0-7.21-2.71-6.61-6.54.18-1.17.98-2.94,2.58-2.94,1.24,0,1.86.98,1.7,2.01-.31,1.96-.38,4.07,2.46,4.07,1.5,0,2.69-1.36,3.09-2.57.49-3.74-4.71-6.12-6.21-9.07-.27-.56-.54-1.17-.86-1.73-.7-1.12-1.05-1.87-.81-3.36.24-1.54.89-3.04,2.48-3.97,1.53-.89,3.75-1.54,5.46-1.54,2.22,0,4.13.65,4.93,2.43.52.98.9,2.15.72,3.32-.16,1.03-.92,2.57-2.31,2.57-1.19,0-1.89-1.12-1.73-2.1Z"/><path class="cls-19" d="M337.7,1017.97c.21-1.31.33-2.76-1.68-2.76-1.29,0-3.54.51-3.77,1.96-.37,2.34,2.83,5.28,4.41,6.73,2.03,1.87,3.75,3.74,3.28,6.73-.57,3.65-2.56,6.78-7.11,6.78-4.13,0-7.21-2.71-6.61-6.54.18-1.17.98-2.94,2.58-2.94,1.24,0,1.86.98,1.7,2.01-.31,1.96-.38,4.07,2.46,4.07,1.5,0,2.69-1.36,3.09-2.57.49-3.74-4.71-6.12-6.21-9.07-.27-.56-.54-1.17-.86-1.73-.7-1.12-1.05-1.87-.81-3.36.24-1.54.89-3.04,2.48-3.97,1.53-.89,3.75-1.54,5.46-1.54,2.22,0,4.13.65,4.93,2.43.52.98.9,2.15.72,3.32-.16,1.03-.92,2.57-2.31,2.57-1.19,0-1.89-1.12-1.73-2.1Z"/><path class="cls-19" d="M358.1,1035.92c-.09.56-1.53,1.22-2.1,1.22-2.27,0-1.63-3.41-1.4-4.86l1.71-10.56c.18-1.12,1.25-5.66-.87-5.66-4.39,0-5.46,2.85-5.94,5.94l-.85,5.42c-.4,2.52-.59,5.05-.98,7.57-.18,1.12-1.19,1.64-2.25,1.82-1.08-.37-1.87-1.22-1.7-2.34,1.11-7.06,1.97-14.16,2.98-21.22l.48-3.69c.29-1.82.48-4.39.85-5.75.12-.47.66-.89,1.17-.89,2.01,0,2.75.56,2.46,2.38-.46,2.9-.94,5.66-1.43,9.07,1.96-1.31,3.79-1.78,5.39-1.78,1.5,0,3.08.14,4.06,1.12,2.22,1.96-.12,12.57-.49,14.91-.25,1.59-.91,6.45-1.1,7.29Z"/><path class="cls-19" d="M377.65,1032.04c-.58,3.69-3.15,5.28-7.08,5.28-3.25,0-5.69-.93-6.92-3.6-1.11-2.48-.09-8.6.36-11.5.76-4.86,2.07-10.52,8.83-10.52,5.47,0,6.17,2.43,6.14,6.92-.02,1.45-.01,3.04-.25,4.53-.15.93-1.73,1.82-3.02,1.82-.72,0-1.36-.23-2.08-.23-1.96,0-3.96-.09-5.91.14l-.51,3.88c-.52,3.32.67,4.91,4.44,4.91,2.22,0,1.56-1.08,2.22-1.96.41-.93,1.43-1.87,2.57-1.87s1.33,1.4,1.2,2.2ZM370.27,1015.96c-1.18,1.26-1.56,2.38-1.8,3.88-.08.51-.15.98-.18,1.5l3.86.05h2.48c.12-1.12.76-5.14-.24-5.7-.48-.23-1.13-.37-1.75-.37-.67,0-1.87.09-2.37.65Z"/><path class="cls-19" d="M410.24,1027.69c-.4,2.52-1.38,7.76-4.38,9.16-1,.47-2.95.7-4.03.7-2.43,0-5.1-.75-6.54-2.38-1.62-1.87-1.07-4.35-.9-6.73.09-1.54.23-3.13.48-4.67.33-2.1.36-4.25.68-6.31.23-1.45.7-5.42,3.07-5.42,1.14,0,2.05,1.07,1.9,2.06-.61,3.88-1.32,7.76-1.78,11.64-.34,3.13-1.81,8.23,3.15,8.23,3.56,0,4.35-5,4.7-7.25.62-3.97.63-7.95,1.25-11.92.18-1.17.57-2.67,2.23-2.67,1.39,0,2.38.94,2.18,2.2-.07.47-.37,1.03-.38,1.45-.36,3.93-1,7.99-1.62,11.92Z"/><path class="cls-19" d="M428.91,1012.04c4.32,1.73,3.91,5.33,3.35,9.25-.29,2.2-.48,4.39-.83,6.59-.76,4.82-2.89,9.49-9.29,9.49-1.34,0-2.65-.19-3.83-.61-.43,2.71-.64,5.38-1.07,8.09-.25,1.59-.62,5.56-1.84,6.78l-.89.42c-1.96,0-2.44-.89-2.18-2.57.43-2.71,1.05-5.38,1.48-8.09.5-3.18.74-6.36,1.14-9.54.26-2.01.53-4.02.64-6.03.07-2.1.05-4.25.38-6.36.24-1.54.6-3.13,1.69-4.49,1.67-2.38,5.4-3.46,8.18-3.46,1.08,0,2.15.14,3.07.51ZM427.45,1027.51c.45-2.85.46-3.27.52-3.65.25-2.57,1.76-8.88-2.53-8.88-1.29,0-3.19.61-4.25,1.45-.83.66-1.16,2.76-1.3,3.65-.21,1.36-.32,2.71-.32,4.02.06,2.9-2.43,9.54,2.84,9.54,3.36,0,4.42-2.15,5.04-6.12Z"/><path class="cls-19" d="M458.67,1030.55c1.34,0,1.62.89,1.45,1.96-.47,2.99-3.57,5-6.72,5-2.01,0-4.24-1.26-5.03-2.8-.58-1.21-.38-2.85-.16-4.21l2.1-14.02c-1.34,0-3.6-.09-3.33-1.78.1-.61,1.26-2.1,1.98-2.1l2.01.05c-.04-1.73.19-3.51.47-5.28.1-.65.64-1.78,1.09-2.34.12-.47.84-.75,1.46-.75.98,0,2.19.51,2.03,1.54l-.68,4.35-.29,2.48c.99-.05,1.98-.14,2.96-.14,1.08,0,2.39.89,2.22,1.96-.15.98-.9,1.45-1.94,1.5l-3.33.14-.68.05c.18.14-.98,7.57-1.29,9.49-.57,3.6-.77,3.6-.86,4.81-.14,1.87.18,3.46,1.83,3.46,1.39,0,1.97-1.03,2.64-2.01l.19-.23c.46-.61,1.05-1.12,1.88-1.12Z"/><path class="cls-19" d="M486.26,1021.48c.27,1.26.16,2.62-.06,3.97-1.01,6.45-4.62,11.97-12.67,11.97-7.54,0-11.91-5.7-10.87-12.29l.21-1.31c.85-5.38,7.54-11.87,13.79-11.87,5.83,0,9.04,4.86,9.6,9.54ZM478.19,1032.74c2.27-1.64,3.59-4.77,3.96-7.15.33-2.1.2-5.84-1.21-7.38-.39-.47-.84-.89-1.29-1.31-.85-.84-2.15-1.45-3.54-1.45-3.25,0-5.97,2.52-7.73,4.86-1.11,1.5-1.59,3.22-1.86,4.91-.71,4.49,1.85,7.62,6.53,8.37.3.05.61.05.92.05,1.34,0,3-.05,4.22-.89Z"/><path class="cls-19" d="M516.63,1015.12c-.13.84-1.19,1.68-2.12,1.68-.72,0-1.29-.33-1.82-.56-.77-.33-1.7-.7-2.63-.7-1.7,0-2.02,1.03-2.23,2.34l-.4,2.52c-.44,2.8-.72,5.56-1.16,8.37-.33,2.1-.68,4.3-1.46,6.36-.35.89-.97,1.59-2.06,1.59-1.96,0-1.83-1.82-1.63-3.08.49-3.13,1.13-6.22,1.62-9.35.34-2.15.47-4.3.81-6.45.57-3.65,3.57-5.98,7.6-5.98,2.12,0,4.29,1.26,5.41,2.71.04.09.08.47.07.56Z"/><path class="cls-19" d="M516.45,1035.31l3.24-21.27c.19-1.21,1.1-2.38,2.59-2.38,1.14,0,1.73.84,1.57,1.82l-1.59,9.77c-.6,3.79-1.04,7.62-1.64,11.41-.2,1.26-1.1,2.38-2.65,2.38-1.03,0-1.68-.79-1.53-1.73ZM520.59,1006.66c.15-.93.68-3.65,2.22-3.65,2.38,0,2.21,3.32,1.97,4.86-.15.98-.57,2.29-1.96,2.29-2.43,0-2.54-1.54-2.24-3.51Z"/><path class="cls-19" d="M526.21,1026.71l.93-5.94c.21-1.31.47-2.67,1.09-3.97,1.52-3.13,5.99-4.96,9.4-4.96,4.39,0,7.01,2.38,6.32,6.45-.73,4.3-1.24,8.55-1.91,12.81l-1.05,6.03c-.31,1.96-.46,3.93-.77,5.89-.79,5.05-2.83,8.83-9.03,8.83-2.32,0-5.24-.84-6.29-2.67-1.26-2.15-.9-5.14-.5-7.67.14-.89,1.01-1.5,1.85-1.92,5.42,0-2.04,8.69,5.6,8.69.88,0,1.98-.09,2.69-.7.83-.7,1.58-3.51,1.72-4.39.37-2.34.53-4.67.9-7.01-1.36.75-2.93,1.21-4.42,1.21-6.61,0-7.28-5.89-6.52-10.7ZM531.11,1022.51l-1.11,6.4c-.12.75-.25,1.59-.05,2.29.41,1.36,1.58,2.76,3.28,2.76,2.58,0,4.51-2.43,4.84-4.53.12-.75.44-1.45.55-2.2l1.09-6.31c.39-2.48.93-5.56-2.74-5.56-5.26,0-5.26,3.6-5.87,7.15Z"/><path class="cls-19" d="M560.74,1035.92c-.09.56-1.53,1.22-2.1,1.22-2.27,0-1.63-3.41-1.4-4.86l1.71-10.56c.18-1.12,1.25-5.66-.87-5.66-4.39,0-5.46,2.85-5.94,5.94l-.85,5.42c-.4,2.52-.59,5.05-.98,7.57-.18,1.12-1.19,1.64-2.25,1.82-1.08-.37-1.87-1.22-1.7-2.34,1.11-7.06,1.97-14.16,2.98-21.22l.48-3.69c.29-1.82.48-4.39.85-5.75.12-.47.66-.89,1.17-.89,2.01,0,2.75.56,2.46,2.38-.46,2.9-.94,5.66-1.43,9.07,1.96-1.31,3.79-1.78,5.39-1.78,1.5,0,3.08.14,4.06,1.12,2.22,1.96-.12,12.57-.49,14.91-.25,1.59-.91,6.45-1.1,7.29Z"/><path class="cls-19" d="M577.59,1030.55c1.34,0,1.62.89,1.45,1.96-.47,2.99-3.57,5-6.72,5-2.01,0-4.24-1.26-5.03-2.8-.58-1.21-.38-2.85-.16-4.21l2.1-14.02c-1.34,0-3.6-.09-3.33-1.78.1-.61,1.26-2.1,1.98-2.1l2.01.05c-.04-1.73.19-3.51.47-5.28.1-.65.64-1.78,1.09-2.34.12-.47.84-.75,1.46-.75.98,0,2.19.51,2.03,1.54l-.68,4.35-.29,2.48c.99-.05,1.98-.14,2.96-.14,1.08,0,2.39.89,2.22,1.96-.15.98-.9,1.45-1.94,1.5l-3.33.14-.68.05c.18.14-.98,7.57-1.29,9.49-.57,3.6-.77,3.6-.86,4.81-.14,1.87.18,3.46,1.83,3.46,1.39,0,1.97-1.03,2.64-2.01l.19-.23c.46-.61,1.05-1.12,1.88-1.12Z"/><path class="cls-19" d="M611.32,1018.53l-1.61,10.24c-.23,1.45-.2,2.95-.43,4.39-.24,1.54-.11,3.65-2.48,3.65s-1.71-3.23-1.49-4.63l.71-4.49c.51-3.23,1.41-6.64,1.4-9.86-.02-1.54-.69-2.48-2.5-2.48-1.03,0-3.8,1.22-4.12,2.24-.28.79-.46,1.59-.58,2.38-.6,3.79-1.04,7.57-1.63,11.36-.19,1.21-.31,5.61-2.59,5.61s-1.99-2.76-1.76-4.25l1.51-9.63c.33-2.1.76-4.21,1.35-6.31.79-2.71,3.03-3.83,5.82-4.53.97-.23,1.96-.33,2.94-.33,5.21,0,6.13,2.38,5.46,6.64Z"/><path class="cls-19" d="M637.7,1021.48c.27,1.26.16,2.62-.06,3.97-1.01,6.45-4.62,11.97-12.67,11.97-7.54,0-11.91-5.7-10.87-12.29l.21-1.31c.85-5.38,7.54-11.87,13.79-11.87,5.83,0,9.04,4.86,9.6,9.54ZM629.63,1032.74c2.27-1.64,3.59-4.77,3.96-7.15.33-2.1.2-5.84-1.21-7.38-.39-.47-.84-.89-1.29-1.31-.85-.84-2.15-1.45-3.54-1.45-3.25,0-5.97,2.52-7.73,4.86-1.11,1.5-1.59,3.22-1.86,4.91-.71,4.49,1.85,7.62,6.53,8.37.3.05.61.05.92.05,1.34,0,3-.05,4.22-.89Z"/><path class="cls-19" d="M665.81,1014.04c-.21,1.36-.77,2.57-1.48,3.83-2.04,5.42-4.21,9.68-4.91,11.55-.62,1.64-2.15,7.43-4.42,7.43-1.6,0-1.6-1.63-1.65-2.99-.08-1.78-.33-4.77-.48-6.45-.18-2.15-.21-4.25-.32-7.81-1.18,3.55-1.87,5.66-2.78,7.81-.74,1.73-1.76,4.63-2.41,6.45-.52,1.36-1.09,2.99-2.53,2.99-1.55,0-1.87-1.92-1.95-3.04-.21-2.95-.53-5.84-.68-8.79-.19-3.41-.74-6.45-.72-6.92-.3-1.08-.54-2.15-.37-3.23-.06-.28-.07-.56-.02-.84.16-1.03.91-1.54,2.05-1.54.98,0,1.55.33,1.65,1.31l.96,8.97c.2,2.01,0,4.53-.11,8.27,1.27-4.11,2.36-7.1,3.3-9.49.83-2.01,1.65-7.53,4.52-7.38,1.95-.23,1.87,1.54,1.84,3.41,0,1.36,0,2.57.27,3.88.21.98.36,1.68.28,2.81-.07,1.45.34,2.76.14,5.98,2.41-6.12,3.66-11.78,6.21-16.5.43-.75,1.18-1.26,2.06-1.26,1.29,0,1.74.42,1.56,1.54Z"/><path class="cls-19" d="M674.43,1034.05c-.21,1.31-.75,3.46-2.66,3.46-2.01,0-1.93-2.85-1.72-4.16.05-.33.24-.56.49-.79v.05c.43-.79.98-1.36,1.96-1.36.72,0,1.67.51,2.07.93.11.28-.07,1.45-.14,1.87ZM679.7,1002.83c1.75,0,4.32.09,5.69.89,2.28,1.26,2.47,4.68,2.09,7.06-.35,2.2-1.34,3.93-3.34,5.47-2.34,1.78-4.64,3.6-7.03,5.33l.07-.09c-1.67,2.06-1.59,4.86-2.16,7.15-.5.56-.96.84-1.68.84-.52,0-.87-.05-1.31-.23-.87-.37-.71-1.4-.63-2.24.07-1.08.24-2.2.41-3.27,1.07-6.78,7.81-6.31,11.11-11.92.07-.09.13-.19.19-.23l-.11.05c.16-.37.27-.7.32-1.08.32-2.01-.35-4.02-2.88-4.02-1.96,0-3.81-.05-5.17,1.68-.11,1.03-.46,2.24-.82,3.22-.29.89-.98,1.31-1.96,1.31-1.34,0-1.74-1.4-1.58-2.43l.4-2.52c.6-3.51,5.06-4.95,8.37-4.95Z"/><path class="cls-19" d="M104.91,1088.57c-.12,1.73-.38,3.41-.65,5.14-.62,3.97-4.08,4.96-7.9,4.96s-6.76-2.67-6.21-6.17c.47-2.99,2.62-6.12,6.03-7.15,1.64-.56,3.6-.56,5.32-.98.23-1.5,1.14-6.26-.06-7.2-.25-.05-.45-.09-.71-.09-2.74,0-4.25,2.71-6.05,2.71-1.29,0-1.41-.89-1.25-1.87.42-2.67,5.2-4.53,7.73-4.53,5.37,0,5.34,5.09,4.75,8.88-.33,2.1-.82,4.21-.99,6.31ZM100.36,1093.19c.26-1.68.27-3.37.54-5.05-2.97.19-6.16,1.07-6.66,4.25-.25,1.59,1.2,2.57,2.85,2.57,2.07,0,2.98.09,3.27-1.78Z"/><path class="cls-19" d="M125.55,1079.78l-1.61,10.24c-.23,1.45-.2,2.95-.43,4.39-.24,1.54-.11,3.65-2.48,3.65s-1.71-3.22-1.49-4.63l.71-4.49c.51-3.23,1.41-6.64,1.4-9.86-.02-1.54-.69-2.48-2.5-2.48-1.03,0-3.8,1.22-4.12,2.24-.28.79-.46,1.59-.58,2.38-.6,3.79-1.04,7.57-1.63,11.36-.19,1.22-.31,5.61-2.59,5.61s-1.99-2.76-1.76-4.25l1.51-9.63c.33-2.1.77-4.21,1.35-6.31.79-2.71,3.03-3.83,5.82-4.53.97-.23,1.96-.33,2.94-.33,5.21,0,6.13,2.38,5.46,6.64Z"/><path class="cls-19" d="M145.19,1074.97c-.74,4.72-.81,9.4-1.55,14.12-.6,3.79-2.15,9.72-7.72,9.72-3.2,0-7.01-.7-8.04-3.69-.57-1.63.2-7.2.51-9.16.38-2.43.7-5.1,1.43-7.48,1.03-3.27,5.2-4.82,8.45-4.82,1.08,0,2.06.05,3.05.28.26-1.68.54-3.41.59-5.09.02-.79-.14-1.73-.02-2.48.16-1.03.47-2.34,1.97-2.34,2.63,0,2.38,3.23,2.11,4.96-.1.61-.35,1.22-.44,1.82-.22,1.4-.12,2.76-.34,4.16ZM139.57,1089.36c.47-2.99.84-6.03,1.01-9.02.05-.33.18-2.8-.28-2.8-.72,0-1.27-.47-1.99-.47-.62,0-1.27.19-1.91.33-.44.14-1.73.47-2.16.93-.91,1.22-1.19,3.27-1.41,4.67l-1.19,7.57c-.05.33.04.75.04,1.08.06,2.24.95,3.79,3.69,3.79,2.99,0,3.78-3.37,4.21-6.08Z"/><path class="cls-19" d="M185.66,1075.29c-.21,1.36-.77,2.57-1.48,3.83-2.04,5.42-4.21,9.68-4.91,11.55-.62,1.64-2.15,7.43-4.42,7.43-1.6,0-1.6-1.64-1.65-2.99-.08-1.78-.33-4.77-.48-6.45-.18-2.15-.21-4.25-.32-7.81-1.18,3.55-1.87,5.66-2.78,7.81-.74,1.73-1.76,4.63-2.41,6.45-.52,1.36-1.09,2.99-2.53,2.99-1.55,0-1.87-1.92-1.95-3.04-.21-2.95-.53-5.84-.68-8.79-.19-3.41-.74-6.45-.72-6.92-.3-1.08-.54-2.15-.37-3.23-.06-.28-.07-.56-.02-.84.16-1.03.91-1.54,2.05-1.54.98,0,1.55.33,1.65,1.31l.96,8.97c.2,2.01,0,4.53-.11,8.27,1.27-4.11,2.36-7.11,3.3-9.49.83-2.01,1.65-7.53,4.52-7.38,1.95-.23,1.87,1.54,1.84,3.41,0,1.36,0,2.57.27,3.88.21.98.36,1.68.28,2.81-.07,1.45.34,2.76.14,5.98,2.41-6.12,3.66-11.78,6.21-16.5.43-.75,1.18-1.26,2.06-1.26,1.29,0,1.74.42,1.57,1.54Z"/><path class="cls-19" d="M200.44,1097.17c-.09.56-1.53,1.22-2.1,1.22-2.27,0-1.63-3.41-1.4-4.86l1.71-10.56c.18-1.12,1.25-5.66-.87-5.66-4.39,0-5.46,2.85-5.94,5.94l-.85,5.42c-.4,2.52-.59,5.05-.98,7.57-.18,1.12-1.19,1.64-2.25,1.82-1.08-.37-1.87-1.22-1.7-2.34,1.11-7.06,1.97-14.16,2.98-21.22l.48-3.69c.29-1.82.48-4.39.85-5.75.13-.47.66-.89,1.17-.89,2.01,0,2.75.56,2.46,2.38-.46,2.9-.94,5.65-1.43,9.07,1.96-1.31,3.79-1.78,5.39-1.78,1.5,0,3.08.14,4.06,1.12,2.22,1.96-.12,12.57-.49,14.91-.25,1.59-.91,6.45-1.1,7.29Z"/><path class="cls-19" d="M220.87,1095.58c-.46,2.9-.66,5.84-1.12,8.74-.35,2.2-1.09,5.28-2.87,7.11-1.42,1.45-4.72,2.76-6.68,2.76-5.73,0-7.7-2.24-6.88-7.48.21-1.31.84-2.71,2.59-2.71.93,0,2.17.98,2.03,1.87-.3,1.92-1.29,4.63,1.8,4.63,1.6,0,4.25-.79,4.96-2.34,1.02-2.24,1.61-6.96,1.99-9.35.1-.61.09-1.22.12-1.78-1.44.93-3.05,1.64-4.7,1.64-6.19,0-6.75-5-6.01-9.68l.99-5.98c.45-2.85.63-5.66,1.08-8.51.18-1.17.81-1.87,2.15-1.87,2.48,0,2.31,1.4,2.02,3.23l-2.1,12.67c-.36,2.29-1.33,6.5,2.33,6.5s4.95-3.55,5.36-6.17l.82-5.19c.27-1.73.4-3.51.67-5.23l.56-4.21c.2-1.26.35-2.2,2.05-2.2,2.07,0,2.28.93,2.02,2.57-.26,3.6-.76,6.83-1.27,10.05l-.69,4.39c-.35,2.2-.89,4.35-1.24,6.54Z"/><path class="cls-19" d="M239.92,1096.56l3.24-21.27c.19-1.21,1.1-2.38,2.59-2.38,1.14,0,1.73.84,1.57,1.82l-1.59,9.77c-.6,3.79-1.04,7.62-1.64,11.4-.2,1.26-1.1,2.38-2.65,2.38-1.03,0-1.68-.79-1.53-1.73ZM244.06,1067.91c.15-.94.68-3.65,2.22-3.65,2.38,0,2.21,3.32,1.97,4.86-.15.98-.57,2.29-1.96,2.29-2.43,0-2.54-1.54-2.24-3.5Z"/><path class="cls-19" d="M261.02,1079.22c.21-1.31.33-2.76-1.68-2.76-1.29,0-3.54.51-3.77,1.96-.37,2.34,2.83,5.28,4.41,6.73,2.03,1.87,3.75,3.74,3.28,6.73-.57,3.65-2.56,6.78-7.11,6.78-4.13,0-7.21-2.71-6.61-6.54.18-1.17.98-2.94,2.58-2.94,1.24,0,1.86.98,1.7,2.01-.31,1.96-.38,4.07,2.46,4.07,1.5,0,2.69-1.35,3.09-2.57.48-3.74-4.71-6.12-6.21-9.07-.27-.56-.54-1.17-.86-1.73-.7-1.12-1.05-1.87-.81-3.37.24-1.54.89-3.04,2.48-3.97,1.53-.89,3.75-1.54,5.46-1.54,2.22,0,4.13.65,4.93,2.43.52.98.9,2.15.72,3.32-.16,1.03-.92,2.57-2.31,2.57-1.19,0-1.89-1.12-1.73-2.1Z"/><path class="cls-19" d="M290.39,1079.22c.21-1.31.33-2.76-1.68-2.76-1.29,0-3.54.51-3.77,1.96-.37,2.34,2.83,5.28,4.41,6.73,2.03,1.87,3.75,3.74,3.28,6.73-.57,3.65-2.56,6.78-7.11,6.78-4.13,0-7.21-2.71-6.61-6.54.18-1.17.98-2.94,2.58-2.94,1.24,0,1.86.98,1.7,2.01-.31,1.96-.38,4.07,2.46,4.07,1.5,0,2.69-1.35,3.09-2.57.48-3.74-4.71-6.12-6.21-9.07-.27-.56-.54-1.17-.86-1.73-.7-1.12-1.05-1.87-.81-3.37.24-1.54.89-3.04,2.48-3.97,1.53-.89,3.75-1.54,5.46-1.54,2.22,0,4.13.65,4.93,2.43.52.98.9,2.15.72,3.32-.16,1.03-.92,2.57-2.31,2.57-1.19,0-1.89-1.12-1.73-2.1Z"/><path class="cls-19" d="M310.79,1097.17c-.09.56-1.53,1.22-2.1,1.22-2.27,0-1.63-3.41-1.4-4.86l1.71-10.56c.18-1.12,1.25-5.66-.87-5.66-4.39,0-5.46,2.85-5.94,5.94l-.85,5.42c-.4,2.52-.59,5.05-.98,7.57-.18,1.12-1.19,1.64-2.25,1.82-1.08-.37-1.87-1.22-1.7-2.34,1.11-7.06,1.97-14.16,2.98-21.22l.48-3.69c.29-1.82.48-4.39.85-5.75.13-.47.66-.89,1.17-.89,2.01,0,2.75.56,2.46,2.38-.46,2.9-.94,5.65-1.43,9.07,1.96-1.31,3.79-1.78,5.39-1.78,1.5,0,3.08.14,4.06,1.12,2.22,1.96-.12,12.57-.49,14.91-.25,1.59-.91,6.45-1.1,7.29Z"/><path class="cls-19" d="M330.34,1093.29c-.58,3.69-3.15,5.28-7.08,5.28-3.25,0-5.69-.94-6.92-3.6-1.11-2.48-.09-8.6.36-11.5.76-4.86,2.07-10.52,8.83-10.52,5.47,0,6.17,2.43,6.14,6.92-.02,1.45-.01,3.04-.25,4.53-.15.93-1.73,1.82-3.02,1.82-.72,0-1.36-.23-2.08-.23-1.96,0-3.96-.09-5.91.14l-.51,3.88c-.52,3.32.67,4.91,4.44,4.91,2.22,0,1.56-1.08,2.22-1.96.4-.93,1.43-1.87,2.57-1.87s1.33,1.4,1.2,2.2ZM322.96,1077.21c-1.18,1.26-1.56,2.38-1.8,3.88-.08.51-.15.98-.18,1.5l3.86.05h2.48c.12-1.12.76-5.14-.24-5.7-.48-.23-1.13-.37-1.75-.37-.67,0-1.87.09-2.37.65Z"/><path class="cls-19" d="M363.02,1079.78l-1.61,10.24c-.23,1.45-.2,2.95-.43,4.39-.24,1.54-.11,3.65-2.48,3.65s-1.71-3.22-1.49-4.63l.71-4.49c.51-3.23,1.41-6.64,1.4-9.86-.02-1.54-.69-2.48-2.5-2.48-1.03,0-3.8,1.22-4.12,2.24-.28.79-.46,1.59-.58,2.38-.6,3.79-1.04,7.57-1.63,11.36-.19,1.22-.31,5.61-2.59,5.61s-1.99-2.76-1.76-4.25l1.51-9.63c.33-2.1.77-4.21,1.35-6.31.79-2.71,3.03-3.83,5.82-4.53.97-.23,1.96-.33,2.94-.33,5.21,0,6.13,2.38,5.46,6.64Z"/><path class="cls-19" d="M389.4,1082.72c.27,1.26.16,2.62-.06,3.97-1.01,6.45-4.62,11.97-12.67,11.97-7.54,0-11.9-5.7-10.87-12.29l.21-1.31c.85-5.38,7.54-11.87,13.79-11.87,5.83,0,9.04,4.86,9.6,9.54ZM381.33,1093.99c2.27-1.64,3.59-4.77,3.96-7.15.33-2.1.2-5.84-1.21-7.38-.39-.47-.84-.89-1.29-1.31-.85-.84-2.15-1.45-3.54-1.45-3.25,0-5.97,2.52-7.73,4.86-1.11,1.5-1.59,3.22-1.86,4.91-.71,4.49,1.85,7.62,6.53,8.37.3.05.61.05.92.05,1.34,0,3-.05,4.22-.89Z"/><path class="cls-19" d="M403.51,1091.79c1.34,0,1.61.89,1.45,1.96-.47,2.99-3.57,5-6.72,5-2.01,0-4.24-1.26-5.03-2.8-.58-1.22-.38-2.85-.16-4.21l2.1-14.02c-1.34,0-3.6-.09-3.33-1.78.1-.61,1.26-2.1,1.98-2.1l2.01.05c-.04-1.73.19-3.51.47-5.28.1-.66.64-1.78,1.09-2.34.13-.47.84-.75,1.46-.75.98,0,2.19.51,2.03,1.54l-.68,4.35-.29,2.48c.99-.05,1.98-.14,2.96-.14,1.08,0,2.39.89,2.22,1.96-.15.98-.9,1.45-1.94,1.5l-3.33.14-.68.05c.18.14-.98,7.57-1.29,9.49-.57,3.6-.77,3.6-.86,4.81-.14,1.87.18,3.46,1.83,3.46,1.39,0,1.97-1.03,2.64-2.01l.19-.23c.46-.61,1.05-1.12,1.88-1.12Z"/><path class="cls-19" d="M434.21,1088.57c-.12,1.73-.38,3.41-.65,5.14-.62,3.97-4.08,4.96-7.9,4.96s-6.76-2.67-6.21-6.17c.47-2.99,2.62-6.12,6.03-7.15,1.64-.56,3.6-.56,5.32-.98.23-1.5,1.14-6.26-.06-7.2-.25-.05-.45-.09-.71-.09-2.74,0-4.25,2.71-6.05,2.71-1.29,0-1.41-.89-1.25-1.87.42-2.67,5.2-4.53,7.73-4.53,5.37,0,5.34,5.09,4.75,8.88-.33,2.1-.82,4.21-.99,6.31ZM429.66,1093.19c.26-1.68.27-3.37.54-5.05-2.97.19-6.16,1.07-6.66,4.25-.25,1.59,1.2,2.57,2.85,2.57,2.07,0,2.98.09,3.27-1.78Z"/><path class="cls-19" d="M454.85,1079.78l-1.61,10.24c-.23,1.45-.2,2.95-.43,4.39-.24,1.54-.11,3.65-2.48,3.65s-1.71-3.22-1.49-4.63l.71-4.49c.51-3.23,1.41-6.64,1.4-9.86-.02-1.54-.69-2.48-2.5-2.48-1.03,0-3.8,1.22-4.12,2.24-.28.79-.46,1.59-.58,2.38-.6,3.79-1.04,7.57-1.63,11.36-.19,1.22-.31,5.61-2.59,5.61s-1.99-2.76-1.76-4.25l1.51-9.63c.33-2.1.77-4.21,1.35-6.31.79-2.71,3.03-3.83,5.82-4.53.97-.23,1.96-.33,2.94-.33,5.21,0,6.13,2.38,5.46,6.64Z"/><path class="cls-19" d="M468.41,1079.22c.21-1.31.33-2.76-1.68-2.76-1.29,0-3.54.51-3.77,1.96-.37,2.34,2.83,5.28,4.41,6.73,2.03,1.87,3.75,3.74,3.28,6.73-.57,3.65-2.56,6.78-7.11,6.78-4.13,0-7.21-2.71-6.61-6.54.18-1.17.98-2.94,2.58-2.94,1.24,0,1.86.98,1.7,2.01-.31,1.96-.38,4.07,2.46,4.07,1.5,0,2.69-1.35,3.09-2.57.49-3.74-4.71-6.12-6.21-9.07-.27-.56-.54-1.17-.86-1.73-.7-1.12-1.05-1.87-.81-3.37.24-1.54.89-3.04,2.48-3.97,1.53-.89,3.75-1.54,5.46-1.54,2.22,0,4.13.65,4.93,2.43.52.98.9,2.15.72,3.32-.16,1.03-.92,2.57-2.31,2.57-1.19,0-1.89-1.12-1.73-2.1Z"/><path class="cls-19" d="M500.3,1075.29c-.21,1.36-.77,2.57-1.48,3.83-2.04,5.42-4.21,9.68-4.91,11.55-.62,1.64-2.15,7.43-4.42,7.43-1.6,0-1.6-1.64-1.65-2.99-.08-1.78-.33-4.77-.48-6.45-.18-2.15-.21-4.25-.32-7.81-1.18,3.55-1.87,5.66-2.78,7.81-.74,1.73-1.76,4.63-2.41,6.45-.52,1.36-1.09,2.99-2.53,2.99-1.55,0-1.87-1.92-1.95-3.04-.21-2.95-.53-5.84-.68-8.79-.19-3.41-.74-6.45-.72-6.92-.3-1.08-.54-2.15-.37-3.23-.06-.28-.07-.56-.02-.84.16-1.03.91-1.54,2.05-1.54.98,0,1.55.33,1.65,1.31l.96,8.97c.2,2.01,0,4.53-.11,8.27,1.27-4.11,2.36-7.11,3.3-9.49.83-2.01,1.65-7.53,4.52-7.38,1.95-.23,1.87,1.54,1.84,3.41,0,1.36,0,2.57.27,3.88.21.98.36,1.68.28,2.81-.07,1.45.34,2.76.14,5.98,2.41-6.12,3.66-11.78,6.21-16.5.43-.75,1.18-1.26,2.06-1.26,1.29,0,1.74.42,1.57,1.54Z"/><path class="cls-19" d="M515.12,1093.29c-.58,3.69-3.15,5.28-7.08,5.28-3.25,0-5.69-.94-6.92-3.6-1.11-2.48-.09-8.6.36-11.5.76-4.86,2.07-10.52,8.83-10.52,5.47,0,6.17,2.43,6.14,6.92-.02,1.45-.01,3.04-.25,4.53-.15.93-1.73,1.82-3.02,1.82-.72,0-1.36-.23-2.08-.23-1.96,0-3.96-.09-5.91.14l-.51,3.88c-.52,3.32.67,4.91,4.44,4.91,2.22,0,1.56-1.08,2.22-1.96.4-.93,1.43-1.87,2.57-1.87s1.33,1.4,1.2,2.2ZM507.74,1077.21c-1.18,1.26-1.56,2.38-1.8,3.88-.08.51-.15.98-.18,1.5l3.86.05h2.48c.12-1.12.76-5.14-.24-5.7-.48-.23-1.13-.37-1.75-.37-.67,0-1.87.09-2.37.65Z"/><path class="cls-19" d="M533.68,1076.37c-.13.84-1.19,1.68-2.12,1.68-.72,0-1.29-.33-1.82-.56-.77-.33-1.7-.7-2.63-.7-1.7,0-2.02,1.03-2.23,2.34l-.4,2.53c-.44,2.8-.72,5.56-1.16,8.37-.33,2.1-.68,4.3-1.46,6.36-.35.89-.97,1.59-2.06,1.59-1.96,0-1.83-1.82-1.63-3.08.49-3.13,1.13-6.22,1.62-9.35.34-2.15.47-4.3.81-6.45.57-3.65,3.57-5.98,7.6-5.98,2.12,0,4.29,1.26,5.41,2.71.04.09.08.47.07.56Z"/><path class="cls-19" d="M533.5,1096.56l3.24-21.27c.19-1.21,1.1-2.38,2.59-2.38,1.14,0,1.73.84,1.57,1.82l-1.59,9.77c-.6,3.79-1.04,7.62-1.64,11.4-.2,1.26-1.1,2.38-2.65,2.38-1.03,0-1.68-.79-1.53-1.73ZM537.64,1067.91c.15-.94.68-3.65,2.22-3.65,2.38,0,2.21,3.32,1.97,4.86-.15.98-.57,2.29-1.96,2.29-2.43,0-2.54-1.54-2.24-3.5Z"/><path class="cls-19" d="M560.45,1079.78l-1.61,10.24c-.23,1.45-.2,2.95-.43,4.39-.24,1.54-.11,3.65-2.48,3.65s-1.71-3.22-1.49-4.63l.71-4.49c.51-3.23,1.41-6.64,1.4-9.86-.02-1.54-.69-2.48-2.5-2.48-1.03,0-3.8,1.22-4.12,2.24-.28.79-.46,1.59-.58,2.38-.6,3.79-1.04,7.57-1.63,11.36-.19,1.22-.31,5.61-2.59,5.61s-1.99-2.76-1.76-4.25l1.51-9.63c.33-2.1.77-4.21,1.35-6.31.79-2.71,3.03-3.83,5.82-4.53.97-.23,1.96-.33,2.94-.33,5.21,0,6.13,2.38,5.46,6.64Z"/><path class="cls-19" d="M562.98,1087.96l.93-5.94c.21-1.31.47-2.67,1.09-3.97,1.52-3.13,5.99-4.96,9.4-4.96,4.39,0,7.01,2.38,6.32,6.45-.73,4.3-1.24,8.55-1.91,12.81l-1.05,6.03c-.31,1.96-.46,3.93-.77,5.89-.79,5.05-2.83,8.83-9.03,8.83-2.32,0-5.24-.84-6.29-2.67-1.26-2.15-.9-5.14-.5-7.67.14-.89,1.01-1.5,1.85-1.92,5.42,0-2.04,8.69,5.6,8.69.88,0,1.98-.09,2.69-.7.83-.7,1.58-3.51,1.72-4.39.37-2.34.53-4.67.9-7.01-1.36.75-2.93,1.22-4.42,1.22-6.61,0-7.28-5.89-6.52-10.71ZM567.88,1083.75l-1.11,6.4c-.12.75-.25,1.59-.05,2.29.41,1.36,1.58,2.76,3.28,2.76,2.58,0,4.51-2.43,4.84-4.53.12-.75.44-1.45.55-2.2l1.09-6.31c.39-2.48.93-5.56-2.74-5.56-5.26,0-5.26,3.6-5.87,7.15Z"/><path class="cls-19" d="M609.9,1097.17c-.09.56-1.53,1.22-2.1,1.22-2.27,0-1.63-3.41-1.4-4.86l1.71-10.56c.18-1.12,1.25-5.66-.87-5.66-4.39,0-5.46,2.85-5.94,5.94l-.85,5.42c-.4,2.52-.59,5.05-.98,7.57-.18,1.12-1.19,1.64-2.25,1.82-1.08-.37-1.87-1.22-1.7-2.34,1.11-7.06,1.97-14.16,2.98-21.22l.48-3.69c.29-1.82.48-4.39.85-5.75.13-.47.66-.89,1.17-.89,2.01,0,2.75.56,2.46,2.38-.46,2.9-.94,5.65-1.43,9.07,1.96-1.31,3.79-1.78,5.39-1.78,1.5,0,3.08.14,4.06,1.12,2.22,1.96-.12,12.57-.49,14.91-.25,1.59-.91,6.45-1.1,7.29Z"/><path class="cls-19" d="M629.45,1093.29c-.58,3.69-3.15,5.28-7.08,5.28-3.25,0-5.69-.94-6.92-3.6-1.11-2.48-.09-8.6.36-11.5.76-4.86,2.07-10.52,8.83-10.52,5.47,0,6.17,2.43,6.14,6.92-.02,1.45-.01,3.04-.25,4.53-.15.93-1.73,1.82-3.02,1.82-.72,0-1.36-.23-2.08-.23-1.96,0-3.96-.09-5.91.14l-.51,3.88c-.52,3.32.67,4.91,4.44,4.91,2.22,0,1.56-1.08,2.22-1.96.4-.93,1.43-1.87,2.57-1.87s1.33,1.4,1.2,2.2ZM622.07,1077.21c-1.18,1.26-1.56,2.38-1.8,3.88-.08.51-.15.98-.18,1.5l3.86.05h2.48c.12-1.12.76-5.14-.24-5.7-.48-.23-1.13-.37-1.75-.37-.67,0-1.87.09-2.37.65Z"/><path class="cls-19" d="M648.01,1076.37c-.13.84-1.19,1.68-2.12,1.68-.72,0-1.29-.33-1.82-.56-.77-.33-1.7-.7-2.63-.7-1.7,0-2.02,1.03-2.23,2.34l-.4,2.53c-.44,2.8-.72,5.56-1.16,8.37-.33,2.1-.68,4.3-1.46,6.36-.35.89-.97,1.59-2.06,1.59-1.96,0-1.83-1.82-1.63-3.08.49-3.13,1.13-6.22,1.62-9.35.34-2.15.47-4.3.81-6.45.57-3.65,3.57-5.98,7.6-5.98,2.12,0,4.29,1.26,5.41,2.71.04.09.08.47.07.56Z"/><path class="cls-19" d="M675.07,1073.28c4.32,1.73,3.91,5.33,3.35,9.25-.29,2.2-.48,4.39-.83,6.59-.76,4.81-2.89,9.49-9.29,9.49-1.34,0-2.65-.19-3.83-.61-.43,2.71-.64,5.38-1.07,8.09-.25,1.59-.62,5.56-1.84,6.78l-.89.42c-1.96,0-2.44-.89-2.18-2.57.43-2.71,1.05-5.38,1.48-8.09.5-3.18.74-6.36,1.14-9.54.26-2.01.53-4.02.64-6.03.07-2.1.05-4.25.38-6.36.24-1.54.6-3.13,1.69-4.49,1.67-2.38,5.4-3.46,8.18-3.46,1.08,0,2.15.14,3.07.51ZM673.62,1088.75c.45-2.85.46-3.27.52-3.65.25-2.57,1.76-8.88-2.53-8.88-1.29,0-3.19.61-4.25,1.45-.83.65-1.16,2.76-1.3,3.65-.21,1.36-.32,2.71-.32,4.02.06,2.9-2.43,9.54,2.84,9.54,3.36,0,4.42-2.15,5.04-6.12Z"/><path class="cls-19" d="M695.32,1097.17c-.09.56-1.53,1.22-2.1,1.22-2.27,0-1.63-3.41-1.4-4.86l1.71-10.56c.18-1.12,1.25-5.66-.87-5.66-4.39,0-5.46,2.85-5.94,5.94l-.85,5.42c-.4,2.52-.59,5.05-.98,7.57-.18,1.12-1.19,1.64-2.25,1.82-1.08-.37-1.87-1.22-1.7-2.34,1.11-7.06,1.97-14.16,2.98-21.22l.48-3.69c.29-1.82.48-4.39.85-5.75.13-.47.66-.89,1.17-.89,2.01,0,2.75.56,2.46,2.38-.46,2.9-.94,5.65-1.43,9.07,1.96-1.31,3.79-1.78,5.39-1.78,1.5,0,3.08.14,4.06,1.12,2.22,1.96-.12,12.57-.49,14.91-.25,1.59-.91,6.45-1.1,7.29Z"/><path class="cls-19" d="M724.17,1082.72c.27,1.26.16,2.62-.06,3.97-1.01,6.45-4.62,11.97-12.67,11.97-7.54,0-11.9-5.7-10.87-12.29l.21-1.31c.85-5.38,7.54-11.87,13.79-11.87,5.83,0,9.04,4.86,9.6,9.54ZM716.1,1093.99c2.27-1.64,3.59-4.77,3.96-7.15.33-2.1.2-5.84-1.21-7.38-.39-.47-.84-.89-1.29-1.31-.85-.84-2.15-1.45-3.54-1.45-3.25,0-5.97,2.52-7.73,4.86-1.11,1.5-1.59,3.22-1.86,4.91-.71,4.49,1.85,7.62,6.53,8.37.3.05.61.05.92.05,1.34,0,3-.05,4.22-.89Z"/><path class="cls-19" d="M743.89,1079.78l-1.61,10.24c-.23,1.45-.21,2.95-.43,4.39-.24,1.54-.11,3.65-2.48,3.65s-1.71-3.22-1.49-4.63l.71-4.49c.51-3.23,1.41-6.64,1.4-9.86-.02-1.54-.69-2.48-2.5-2.48-1.03,0-3.8,1.22-4.12,2.24-.28.79-.46,1.59-.58,2.38-.6,3.79-1.04,7.57-1.63,11.36-.19,1.22-.31,5.61-2.59,5.61s-1.99-2.76-1.76-4.25l1.51-9.63c.33-2.1.76-4.21,1.35-6.31.79-2.71,3.03-3.83,5.82-4.53.97-.23,1.96-.33,2.94-.33,5.21,0,6.13,2.38,5.46,6.64Z"/><path class="cls-19" d="M760.76,1093.29c-.58,3.69-3.15,5.28-7.08,5.28-3.25,0-5.69-.94-6.92-3.6-1.11-2.48-.09-8.6.36-11.5.76-4.86,2.07-10.52,8.83-10.52,5.47,0,6.17,2.43,6.14,6.92-.02,1.45-.01,3.04-.25,4.53-.15.93-1.73,1.82-3.02,1.82-.72,0-1.36-.23-2.08-.23-1.96,0-3.96-.09-5.91.14l-.51,3.88c-.52,3.32.67,4.91,4.44,4.91,2.22,0,1.56-1.08,2.22-1.96.41-.93,1.43-1.87,2.57-1.87s1.33,1.4,1.2,2.2ZM753.37,1077.21c-1.18,1.26-1.56,2.38-1.8,3.88-.08.51-.15.98-.18,1.5l3.86.05h2.48c.12-1.12.76-5.14-.24-5.7-.48-.23-1.13-.37-1.75-.37-.67,0-1.87.09-2.37.65Z"/><path class="cls-19" d="M769.89,1095.3c-.21,1.31-.75,3.46-2.66,3.46-2.01,0-1.93-2.85-1.72-4.16.05-.33.24-.56.49-.79v.05c.43-.79.98-1.36,1.96-1.36.72,0,1.67.51,2.07.93.11.28-.07,1.45-.14,1.87ZM775.16,1064.07c1.75,0,4.32.09,5.69.89,2.28,1.26,2.47,4.67,2.09,7.06-.35,2.2-1.34,3.93-3.34,5.47-2.34,1.78-4.64,3.6-7.03,5.33l.07-.09c-1.67,2.06-1.59,4.86-2.16,7.15-.5.56-.96.84-1.68.84-.52,0-.87-.05-1.31-.23-.87-.37-.71-1.4-.63-2.24.07-1.08.24-2.2.41-3.27,1.07-6.78,7.81-6.31,11.11-11.92.07-.09.13-.19.19-.23l-.11.05c.16-.37.27-.7.32-1.08.32-2.01-.35-4.02-2.88-4.02-1.96,0-3.81-.05-5.17,1.68-.11,1.03-.46,2.24-.82,3.23-.29.89-.98,1.31-1.96,1.31-1.34,0-1.74-1.4-1.58-2.43l.4-2.52c.6-3.5,5.06-4.95,8.37-4.95Z"/></svg>