<?xml version="1.0" encoding="UTF-8"?>
<svg id="Layer_1" xmlns="http://www.w3.org/2000/svg" xmlns:xlink="http://www.w3.org/1999/xlink" version="1.1" viewBox="0 0 902.7 1440.9">
  <!-- Generator: Adobe Illustrator 30.4.0, SVG Export Plug-In . SVG Version: 2.1.4 Build 226)  -->
  <defs>
    <style>
      .st0 {
        fill: none;
      }

      .st1 {
        fill: #e991bd;
      }

      .st2 {
        fill: #f9f2e6;
      }

      .st3 {
        fill: #6999c9;
      }

      .st4 {
        fill: #e999c2;
      }

      .st5 {
        fill: #7e1926;
      }

      .st6 {
        fill: #4359a8;
      }

      .st7 {
        fill: #6b90c3;
      }

      .st8 {
        fill: #f37152;
      }

      .st9 {
        fill: #ece8e2;
      }

      .st10 {
        fill: #007a81;
      }

      .st11 {
        clip-path: url(#clippath-1);
      }

      .st12 {
        fill: #fff;
      }

      .st13 {
        fill: #6193c8;
      }

      .st14 {
        fill: #007b81;
      }

      .st15 {
        fill: #f69a94;
      }

      .st16 {
        fill: #e48c88;
      }

      .st17 {
        fill: #7e141f;
      }

      .st18 {
        fill: #f9c5dc;
      }

      .st19 {
        clip-path: url(#clippath);
      }
    </style>
    <clipPath id="clippath">
      <rect class="st9" x="0" y="0" width="902.7" height="1440.9" rx="47.2" ry="47.2"/>
    </clipPath>
    <clipPath id="clippath-1">
      <path class="st0" d="M449,1383.4c6.3.8,12.3,3.8,16.5,8.3.2.3-7.2,6-7.9,6.5-2.4,1.6-5,2.9-8,2.9-5.9.1-11.8-.2-16.4-3.7-1.4-1.1-3.2-2.4-4.3-3.8-1.5-1.9-1.4-2,.4-3.9,4.8-5.1,12.7-7.2,19.7-6.3h0Z"/>
    </clipPath>
  </defs>
  <g>
    <rect class="st9" x="0" y="0" width="902.7" height="1440.9" rx="47.2" ry="47.2"/>
    <g class="st19">
      <g>
        <g>
          <path class="st17" d="M352.9,1295.3c-4.7,6.3-12.5,9.9-17.8,15.7-9,9.9-9.5,24.4-8.2,37.4,1.2,11.9,2.9,25.6-5.8,34.3-4.7,4.8-11.8,7-16.3,11.9-7.2,7.8-6.7,20.7-15.3,27-6,4.4-15,4.5-19.8,10-2.7,3.2-3.4,7.5-3.7,11.6-.9,11.5.3,23.2,3.4,34.4,18.9-1.5,38-3,56.8-.2,9.6,1.4,19,4,28.7,5.3,11.8,1.6,23.8,1.2,35.7,1.5,42,1.1,84.3,10.2,125.8,3.7,26.8-4.2,52.9-14.9,80.1-13.5,13.6.7,27.4,4.4,40.7,1.4-3.2-20.5-14.9-39.7-31.9-52.5-3.7-2.8-7.8-5.4-10.4-9.1-7.2-10.3-.9-24.4-4-36.4-2.5-9.7-10.7-16.8-18-23.9-10.6-10.1-20.1-21.2-28.6-33-1.5-2-2.9-4.3-2.9-6.7,0-2.7,2-5,2.9-7.6,3.5-9.3-5.7-18.1-9.7-27.2-4.6-10.7-1.9-22.9-4-34.3-3.1-16.6-17.3-30.8-34.6-34.5-22.3-4.7-44.5,7.1-67.1,10.3-6.7.9-13.6,1.1-19.8,3.6-8.2,3.3-13.8,10.2-21.4,14.4-8.1,4.6-20.9.8-27.3,6.1-11.9,9.8,2.7,36.7-7.3,50.3h0Z"/>
          <path class="st16" d="M503.7,1443.8c.4,5.3.4,10.7-1.1,14.7-6.9,18.4-35.2,33.9-51.7,41.8-13.4,6.4-28.6,11.1-43,7.6-13.5-3.3-24.6-13.6-31.3-25.8-5-9.1-7.8-20.4-3.6-29.9,1.7-3.8,4.4-7,6.3-10.7,4.5-8.6,4.4-18.8,4.3-28.5-.1-8.3-.3-16.5-.4-24.8,0-4.4,0-9.1,2.6-12.6s7.1-4.9,11.4-5.9c14.7-3.3,30.3-3.4,45.1-.5,12.7,2.5,22.9,8.7,36.7,8.8,5.8,0,11.6-.6,17.4.2,1.7.2,3.4.6,4.7,1.7,3,2.6,1.9,7.4,1,11.2-3,13-.7,26.3.3,39.5.3,3.8,1,8.5,1.4,13.3h0Z"/>
          <path class="st15" d="M520.2,1345.2c0,5.9.3,8.5-1.7,14.1-21.1,58.9-45.4,71.5-58.2,73.8-6.6,2.6-14.3,2-21.5,1.3-19.2-1.9-35-13.9-46.4-28.1-6-7.3-11-15.4-15.2-23.7-4.5-8.9-6.5-16.6-7.9-26.2-1.6-10.9-1.8-22-4.4-32.7-2.4-9.8-3.4-20.3-4.6-30.3-.6-4.9-.9-9.6-1.1-14-1.7-62.8,41-82.2,41-82.2,85.4-30.7,109.7,19.1,109.7,19.1,11.4,19.6,15.4,43.7,16.1,65.8,1.1,34.1-5.8,63.3-5.8,63.3h0Z"/>
          <path class="st17" d="M451.3,1364c-1.7-.9-3.5-1.8-5.2-2.7-2.4-1.3-5.4-3.1-8.3-2.6-1.1.2-2.1.8-2.4,1.8-.2.6,0,1.4.5,1.9s1.1.8,1.8.9c.8,0,1.6,0,2.4-.1,2.7-.2,5,.8,7.2,2.1.8.4,3.4,2.3,4.3,2.2,0,0,11.9-1.7,15.5-5.7,0,0,.6-1.9.4-3.9l-11.1-43s-1.4-1.1-1.8,2.4c-.3,3.5,7.4,40.9,7.4,40.9,0,0,.5,1.7-1,2.7l-8.6,3.3s-.3,0-1-.3h0Z"/>
          <path class="st17" d="M436.3,1378.4c.1,0,.3-.2.4-.3,5-3.4,9.7-.5,15.1-.2,4.3.2,6.7-3.3,11.1-.5,1.9,1.2,3.4,3,4.8,4.8,1.1,1.3,2.1,2.7,3.2,4,.5.7,1.1,1.4,1.2,2.2.1.8-.2,1.6-.6,2.4-3.2,7.3-6.9,15.1-14.3,18.6-5.8,2.8-12.9,2.2-18.7-.5-6.2-2.8-19.2-11.3-15.3-19.3.8-1.6,2-2.8,3.3-4,3-2.7,6.4-5,9.7-7.3h0Z"/>
          <path class="st17" d="M533.5,1281.9c-11.5-.8-12.3-16.8-19.6-24.5-3.7-3.9-9.1-5.9-14-8.6-9.1-5-14.9-12.2-20.2-20.9-6-9.8-9.3-11.8-19.6-4.2-8.7,6.4-19.2,10.2-29.9,11-5.7.4-11.6,0-16.9,2-4.3,1.6-7.8,4.6-11.4,7.4-8.8,7-18.2,13.1-27.7,18.9-4.2,2.6-22.7,9.6-22.5,16-.6-21.7,3.8-43.9,15.9-62.6,7-10.7,16-17.2,25.7-25.3,7.2-6.1,12.9-9,22.7-10.5,12.4-2,25-3.2,37.6-2.2,6.5.5,12.4,2.1,18.7,3.6,5.2,1.2,9.9,1.3,14.9,3.5,11.3,5,23.4,13.7,28.8,24.8,12.4,21.3,16.8,47.6,17.6,71.7h0Z"/>
          <g class="st11">
            <g>
              <path class="st2" d="M439.6,1386.9c1,.3,2.1.2,3.2.2,1.4,0,2.7-.1,4.1-.2.2,0,.3,0,.5,0,.5-.2.5-.8.5-1.3,0-1.4-.3-2.7-.5-4,0,0,0-.2-.1-.2,0,0-.2,0-.3,0-2.3.2-4.6.4-6.9.6-1.3.1-1.3.6-1.3,1.6,0,.4.3,3.3.8,3.5h0Z"/>
              <path class="st2" d="M456.2,1387.2c-1,.3-2.1.3-3.2.3h-4.1c-.2,0-.3,0-.5,0-.5-.2-.5-.8-.5-1.2,0-1.4.1-2.7.3-4,0,0,0-.2,0-.2,0,0,.2,0,.3,0,2.3,0,4.6.2,6.9.3,1.3,0,1.4.5,1.4,1.5,0,.4-.1,3.3-.6,3.5h0Z"/>
            </g>
          </g>
          <circle class="st13" cx="391.7" cy="1299.9" r="49.9"/>
          <circle class="st13" cx="501.8" cy="1299.9" r="49.9"/>
          <path class="st13" d="M445.2,1300.6c2.8,0,5.5,1.3,8,2.6,1.1-5.6,2.3-11.3,3.4-16.9-7.7-.8-15.4-.6-23.1.4.7-.1,4.5,15.4,4.8,16.9,1.7-2.1,4.3-3.1,6.9-3h0Z"/>
        </g>
        <path class="st9" d="M457.5,1287c-.9-4.5-1.8-9.1-4.4-12.8-2.1-3.2-4.9-6.8-8.8-6.8h-11.2c0,.1-2.5,62.7-2.5,62.7,4.6,0,9.7,0,13.6-2.4,3.8-2.3,6.2-6.1,8.6-9.9,1-1.7,2.1-3.3,2.8-5.1.7-1.7,1-3.5,1.4-5.2.8-4,1.7-8,1.6-12,0-2.8-.6-5.7-1.1-8.5h0ZM447.2,1300.1c-.2,1.2-.5,2.4-.8,3.6-.3,1.2-.5,2.3-.9,3.4-.8,2.4-1.7,5.1-3.2,7l.6-34.4c2.2,0,3,3.3,3.4,5.5,1.1,4.9,1.7,10,.9,14.9h0Z"/>
        <path class="st9" d="M523.5,1266.9v60.6h20.3v-10l-11.1-.5-.3-15.4h9.5c0,0-.5-12.3-.5-12.3h-7.2c0,0,.2-6.6,0-12l9.2-.2-.4-10.9-19.4.7h0Z"/>
        <polygon class="st9" points="344.2 1329 344 1304.8 345.9 1268.6 367.1 1268.6 367.1 1278.9 355.9 1279.3 355.9 1289.9 363 1290 362.8 1300.7 355.1 1301.1 354.4 1329 344.2 1329"/>
        <polygon class="st9" points="375.6 1318.4 375.6 1278.6 369.3 1278.6 369.3 1267.9 393.1 1268.1 393.1 1278.1 386.3 1278.3 386.6 1318.6 393.1 1318.6 393.1 1329.4 369.3 1329.6 369.3 1318.6 375.6 1318.4"/>
        <polygon class="st9" points="516.4 1327.3 505 1327.3 505.2 1291.5 498.1 1304.8 490.9 1290.9 489.3 1326.9 477.7 1326.9 480.2 1275.2 480.5 1271.1 480.9 1266.7 485.4 1266.6 487.8 1266.5 491.2 1266.4 497.9 1282.1 508.2 1266.4 516.4 1266.4 516.6 1270.5 517.1 1277.3 517.1 1277.3 516.4 1327.3"/>
        <polygon class="st9" points="397.7 1328.4 396.1 1268.3 407.5 1268.3 416.1 1291.2 416.1 1268.3 426.2 1268.3 425.5 1328.4 414.5 1328.4 406.3 1299.6 407.3 1329.2 397.7 1328.4"/>
      </g>
    </g>
  </g>
  <rect class="st0" x="-3.3" y="0" width="902.7" height="1440.9" rx="47.2" ry="47.2"/>
  <path class="st15" d="M345.4,677.1l-25,3s-.8.6-.2,1.5l.6.5-4.2.6s-1.5.3-.9,1.5c0,0,.8,1.2,2.3,1.8l-2.5.5s-.5.4-.2,1.1c0,0,.6,2.1,2.8,2.5l2.6.4v.5c.6,1.8,2.9,2.4,4.5,2.5,1.7,0,3.4.1,5.1.2,2.1,0,4.1.1,6.2.2,1,0,2,0,3,0l-7.5,4.3s-1.5.7-.7,2.2c0,0,.9,1,4.4.2s10.2-2.4,10.2-2.4c0,0,5.2-1.7,7.3-4l5.9-6.2-13.7-11.2h0Z"/>
  <path class="st15" d="M405.9,686.8c-3.8.3-7.5.6-11.3.8-4.2.3-8.5-1.1-12.6-2,0,0-4.6-1.7-9.1,2.8,0,0-6.7,9.6-13.8,15,0,0-5.6,5.6-12.3,9.3,0,0-10.3,6.3-10.3,7.9,0,0-.5,3.1,3.8,3.7h1.4s3,2.1,5.4,2.2c0,0,1.8.4,3.2.3,0,0,1.4,1.6,4.5.8,0,0,2.1-.6,9.4-5.4,0,0,10.8-6.2,15.9-7.5,5.2-1.4,11.1-2.6,16.5-2.5l15.1-13.3-5.9-12.1h0Z"/>
  <path class="st17" d="M406,678.8l-11.5,41,142-5.8s22.2,1,29.9-19.2c0,0,7-17.8-16.8-33.3l16.4-34.2s12-26.9-10.3-43c-5.8-5-14.5-7.2-22-6.2-3.4.5-6.6,1.6-9.6,3.2-3.3,1.8-6.5,3.5-9.7,5.4-7,4.2-13.8,8.6-20.4,13.2-6.1,4.2-12.6,8-18.1,13.1-1.4,1.3-2.7,2.6-4.1,3.8-4.9,4.6-9.8,9.2-14.7,13.8-6.3,6-12.7,11.9-19,17.9-6,5.7-12.1,11.3-18.1,17-4,3.7-7.9,7.5-11.9,11.2-.4.4-1.8,1.3-2,1.9h0Z"/>
  <path class="st15" d="M498.7,681.7s-5.6,7.4-8.2,8.7c0,0-7.1,4.5-3.6,12.1,0,0,1.3,2,6.9,5.3,0,0,10.8,8.2,14.2,13.4l5.5,6.2,1,1.1s1.7,1.8,3.7.5c0,0,.8-.6,2.4-.3,1,.2,1.9.1,2.7-.5.5-.4.7-.7,1.3-.9.6-.2,1.2-.1,1.8,0,1.1.2,2.5-1.1,2.5-1.1,0,0,.2-.5,1.4-.3s2.1,0,3.2-1.2c1.2-1.3,1.8-.8,1.8-.8,0,0,2.5,1.4,4.2-.4,1.7-1.8-.2-3.6-.2-3.6,0,0-12.7-12.2-15.4-17.4-2.7-5.2-3.8-7.5-1.7-12l-23.5-8.7h0Z"/>
  <path class="st15" d="M451.1,507.1l-1.2.5c0,0-.1,1.1-.1,1.1,0,.7-.2,1.4-.3,2h0c0,.3-.1.6-.2.9-.2.8-.4,1.5-.7,2.2-.1.4-.3.8-.4,1.1-.4,1-.8,2-1.4,2.9-.4.6-.9,1.2-1.4,1.7-.8.8-1.8,1.6-2.7,2.3-.5.3-.9.6-1.2,1.1-.4.5-.9,1-1.3,1.5-1.1,1.3-2.2,2.6-3.4,3.9l-1.2,8.1-23.8-12.5-.6-24.5,18.4-12.6,14.7-11,3.3,1.4,2.4,4.2,1,8.6-.4,4.2,2.5,11.1s.5,1.1-1.9,1.5h0Z"/>
  <path class="st17" d="M433.7,530.7c-.1,0,.5-2.4.5-2.6.3-1.4.6-2.9.8-4.3,0-.4.1-.7.2-1.1,0,.2,2.4,0,2.6,0,.7-.1,1.4-.3,2.1-.4.7-.2,1.4-.3,2.1-.6.4-.2.9-.3,1.2-.5.3-.1.5-.3.8-.5.1,0,.2-.2.3-.2s.2,0,.3,0c.4,0,.8.2,1.1.3.3,0,.5.2.8.3,0,0,.2,0,.3,0,1.7.6,3.2,1.8,4.3,3.2.5.7.9,1.4,1.5,2,1.1,1,2.8,1.3,4.1,2.1,1.4.8,2.5,2.2,3,3.7.3,1,.3,2,.8,2.9.5,1,1.5,1.6,2.2,2.4,1.5,1.6,2.4,3.8,2.2,5.9,0,1,0,1.5-1,1.4-.5,0-1.2-.5-1.7-.7-2.2-.9-4.5-1.8-6.7-2.7,0,0-12.3-3.7-15.9-4.4,0,0-2.4-3.8-6.1-6.3h0Z"/>
  <path class="st17" d="M446,477.4c.5.5-3.8,6.7-4.3,7.3-2.1,2.7-4.8,5-8,6.4-1.4.6-2.8,1.1-4,2.1-2.8,2.3-3.1,6.6-5.8,8.9-1.2,1.1-2.9,1.6-4.3,2.4-7.2,4-6.1,12.7-6.8,19.7h-3.4c-1.8-2.2-3.2-4.9-4.5-7.5-2.7-5.6-4.2-11.8-4.3-18.1,0-3.9.5-7.9,1.7-11.6,1.3-4.4,3.6-9.3,7.2-12.4,4-3.4,8.8-6,14-7,7.9-1.5,15.6,1.4,21.9,6.2,0,0,7.1,5.7,6.8,13.4,0,0,0,4.5-1.6,7.3,0,0,0-12-4.6-17h0Z"/>
  <path class="st15" d="M545.3,524.1l3.7-8.2c1-1.1,2.1-2.3,3.1-3.4,1.5-1.6,3.4-3.3,4.4-5.4.4-.8.8-1.7,1-2.6.5-1.8,2.9-7.9,1.9-11.5,0,0-.2-.5-.7-.9,0,0,1.4-7.5-1-9.5,0,0,2.5-7-2.4-8.2l-4.9,1.7s1.1-4.2-1-4.2l-6.1,4s-4,2.9-5.7,8.4c0,0-4.2,15.5-4.3,19.2l-2,5,14,15.5h0Z"/>
  <polygon class="st17" points="566.2 474 564.8 470.1 503.9 495.1 504.6 496.7 566.2 474"/>
  <path class="st18" d="M564.8,470.1s2.4-4.3,10.8-3.8c1,0,1.8.4,1.9,1.5,0,1-.7,1.8-1.3,2.4-1.1,1.1-2.4,2-3.8,2.7-1.6.8-3.3,1.2-5.1,1.2h-1c0-.1-1.4-4-1.4-4h0Z"/>
  <path class="st15" d="M556,468.5c0,.5,0,1-.1,1.5,0,.3-.1.5-.2.8-.3,1.2-.8,2.4-1.2,3.6-.4,1.2-.8,2.4-1.1,3.5-.2.7-.5,1.5-.7,2.2,0,0-.2.9-.3.9l-6.9,1.1h0c.6-1.6,1.2-3.1,1.8-4.7.4-1,.8-2,1.2-3,.2-.4.3-.9.5-1.3.4-.6,1.7-3.2,2-3.8.2-.3.3-.6.5-.9.5-1,1.4-2.8,2.7-2.6,1.1.2,1.7,1.6,1.7,2.6h0Z"/>
  <path class="st13" d="M552.1,526.8l-21.1-20.4-7,11.9-27.9,39.3-36-14.9s-15.1-6.2-20.7-6.7c0,0-2.6-4-5-5.3-4-2.2-7.5-4.7-12.1-5.3-2.9-.4-5.8-.7-8.7-1.1h-5.1s-1.7,0-2.2,1.4l-.5,6s-.4,1.4,1,1.8l-4.2,4.2s-1.3,1.4-1.9,2.9l-58.7,134.9,18.9,14.5,32.2-42.3c0,3.7,0,7.3,0,11,0,3.9-.1,7.8,0,11.7,0,3.1,3,5.7,5.5,7.3,11.1,6.8,25.3,3.7,37.4,2,7.7-1.1,9.7-9.2,15.2-13.4,1.4-1,2.9-1.8,4.2-2.9,6.1-4.8,9.3-14.8,12.1-21.7,3.8-9.2,6-19,9.5-28.1l-4.8-15.7,22,2.3s21.5-14.4,30.9-19.1l20.1-48,7-6h0Z"/>
  <path class="st17" d="M449.5,510.7c0,.3,0,.6-.1.9-.2.9-.3,2-1.4,2-.7,0-1.4-.5-2-.9-.6-.4-1.2-.8-1.8-1.2,0,0-.2-.2-.2-.3s0-.2.2-.3.2,0,.3,0c.8,0,1.5-.2,2.1-.8.4-.3.8-.5,1.3-.4.4.1.6.6,1,.4.1,0,.3-.2.4-.3,0,0,0,0,.1,0,0,0,.2,0,.2.2s0,.2,0,.3c0,.2,0,.4-.1.5h0Z"/>
  <path class="st17" d="M443.8,493.3c0,.2,0,.4-.1.5-.3.2-.8,0-1.2,0-.4,0-.8,0-1.2,0-.9,0-1.8,0-2.7,0-.6.1-1.3.3-1.8.6-.3.2-.5.4-.8.6-.1.1-.5.8-.6.7,0,0-.1,0-.1-.2s0-.1,0-.2c0-.1.1-.3.2-.5.2-.4.3-.8.6-1.1.5-.8,1.4-1,2.2-1.1,1-.2,2-.3,3-.3.3,0,.7,0,1,0,.5,0,1.2.2,1.4.6,0,0,0,.2,0,.3h0Z"/>
  <path class="st17" d="M438.6,495c-.4.3-.8.5-1.1.8-.2.2-.5.5-.5.8.6-.3,1.3-.6,1.9-.9.5-.2.9-.4,1.5-.5.6,0,1.1,0,1.7,0,.5,0,.5-.6,0-.7-1.2-.2-2.5-.3-3.5.4h0Z"/>
  <circle class="st17" cx="440.3" cy="496.4" r="1.3"/>
  <path class="st17" d="M449.9,506.8c-.4-.2-.8-.4-1.1-.6-.5-.3-1.2-.7-1.8-.6-.2,0-.5.2-.5.4,0,.1,0,.3.1.4s.2.2.4.2c.2,0,.3,0,.5,0,.6,0,1.1.2,1.6.5.2.1.7.5.9.5,0,0,2.6-.4,3.4-1.3,0,0,.1-.4,0-.9l-2.4-9.7s-.3-.2-.4.5,1.6,9.3,1.6,9.3c0,0,.1.4-.2.6l-1.9.7s0,0-.2,0h0Z"/>
  <path class="st17" d="M546.8,526.7h0c0,.2,0,0,0,0,0,0,0,.2,0,.2,0,0,0,.1,0,.1,0,0,0-.1,0,0,0,0,0,.1-.1.2,0,.1,0,0,0,0,0,0,0,0,0,0,0,0,0,0,0,0h0s0,0,0,0c0,0-.2,0-.2.1,0,0,0,0,0,0,0,0,.1,0,0,0,0,0-.1,0-.2,0-.1,0,0,0,0,0h-.3c0,0,.2,0,0,0,0,0,0,0-.1,0s0,0-.1,0c0,0,0,0,0,0s-.2,0-.2,0c0,0,0,0,0,0,0,0,.1,0,0,0,0,0-.2-.2-.2-.2,0,0,0,.1,0,0,0,0,0,0,0,0,0,0,0,0,0,0h0c0,0,0,0,0,0,0,0,0-.2,0-.2,0,0,0,0,0,0,0-.1,0,.1,0,0v-.2h0c0-.1,0,0,0,0,0,0,0,0,0,0,0,0,0-.1,0-.2,0-.1,0,.1,0,0,0,0,0,0,0,0,0,0,0,0,0,0,0,0,0,0,0,0,0,0,.1-.1.1-.1h0s0,0,0,0h0s0,0,0,0c0,0,.2-.1.2-.1,0,0-.1,0,0,0,0,0,0,0,.1,0,0,0,0,0,0,0,0,0,.1,0,0,0h0,.3c.1,0-.1,0,0,0,0,0,.2,0,.2,0,.1,0,0,0,0,0,0,0,0,0,.1,0,0,0,0,0,0,0,0,0,0,0,0,0,0,0,0,0,0,0h.1c0,.2,0,0,0,.1,0,0,0,0,0,0s0,0,0,0c0,0,0-.1,0,0,0,0,0,.2,0,.2,0,0,0,0,0,0s0,.2,0,.2c0,.3.3.6.6.6s.6-.3.6-.6c0-.9-.6-1.7-1.4-2-.8-.3-1.7,0-2.3.6-.6.7-.7,1.7-.2,2.4.5.8,1.3,1.1,2.2,1,1-.2,1.7-1.1,1.7-2,0-.3-.3-.6-.6-.6s-.6.3-.6.6h0Z"/>
  <path class="st17" d="M361,682.9h0c0,.2,0,0,0,0,0,0,0,.1,0,.2,0,0,0,0,0,0,0,0,0-.1,0,0,0,0,0,.1-.1.2,0,0,0,0,0,0,0,0,0,0,0,0,0,0,0,0,0,0,0,0-.1,0,0,0,0,0,0,0-.1,0,0,0,0,0,0,0-.1,0,.1,0,0,0,0,0-.1,0-.2,0,0,0,0,0,0,0h-.3c0,0,.2,0,0,0,0,0,0,0-.1,0h0c0,0,0,0,0,0,0,0-.1,0-.1,0,0,0,0,0,0,0,0,0,.1,0,0,0,0,0,0-.1-.1-.1,0,0,0,0,0,0,0,0,0,0,0,0h0c0-.1,0-.2,0,0,0,0,0,0,0-.2,0,0,0,0,0,0,0-.1,0,.2,0,0v-.2c0,0,0-.1,0,0,0,0,0,0,0,0,0,0,0-.1,0-.2,0-.1,0,.1,0,0,0,0,0,0,0,0,0,0,0,0,0,0,0,0,0,0,0,0,0,0,0,0,.1-.1,0,0,.1,0,0,0s0,0,0,0c0,0,.1,0,.2,0,0,0-.1,0,0,0h0s.2,0,0,0,0,0,.1,0h0c.1,0-.1,0,0,0,0,0,.1,0,.2,0,.1,0-.1,0,0,0,0,0,0,0,.1,0,0,0,0,0,0,0,.1,0,0,0,0,0,0,0,0,0,.1.1,0,0,0-.1,0,0,0,0,0,0,0,0s0,0,0,0c0,0,0-.1,0,0,0,0,0,.1,0,.2,0,0,0,0,0,0h0c0,.5.3.8.6.7s.6-.3.6-.6c0-.8-.5-1.5-1.2-1.7-.7-.3-1.5,0-2,.5-.5.6-.6,1.5-.2,2.1.4.7,1.2,1,2,.9.9-.2,1.5-1,1.5-1.8,0-.3-.3-.6-.6-.6s-.6.3-.6.6h0Z"/>
  <path class="st13" d="M555.9,468.5c0,.7-.2,1.4-.6,1.9-.2.3-.4.4-.8.5s-.8.1-1.2,0c-.5,0-1-.4-1.3-.9-.2-.4-.2-.9-.1-1.3.1-.5.3-.9.6-1.2.3-.5.7-1,1.2-1.2.2-.1.6-.1.9,0,1,.1,1.4,1.3,1.4,2.1h0c0,.1,0,0,0,0Z"/>
  <path class="st12" d="M430.2,612c-2,8.1-6.2,15.7-11.7,22h-.2c1.5-4,3.4-7.6,5.3-11.3,1.9-3.7,3.9-7.3,6.3-10.7h.2q0,0,0,0Z"/>
  <path class="st12" d="M427.3,599.7c-3.2,8-8,15.2-13.4,21.9-1.8,2.2-3.7,4.3-5.8,6.3h-.1c2.5-4.4,6.5-10.2,9.3-14.4,3.2-4.7,6.3-9.4,9.9-13.9h.2c0,.1,0,.1,0,.1Z"/>
  <path class="st12" d="M426.9,610.7c-1.4,4.9-4.4,9.2-7.7,12.9-1.1,1.2-2.4,2.4-3.7,3.4h-.1c2.4-4.6,5.2-8.6,8.2-12.6,1-1.3,2.1-2.6,3.3-3.8h.2c0,.1,0,.1,0,.1Z"/>
  <path class="st12" d="M381.1,612.6c-.8,8.5-3.8,17-6.9,25h-.2c0-2.2.4-4.4.8-6.5.9-4.2,2-8.4,3.5-12.5.7-2,1.5-4,2.5-6h.2c0,0,0,0,0,0Z"/>
  <path class="st12" d="M376.9,610.6c-2.8,10.4-6.9,20.4-12.1,29.9-1.8,3.1-3.6,6.2-5.8,9.1h-.2c2.2-5,6.6-14.8,8.7-19.6,2.9-6.5,5.7-13.1,9.1-19.4h.2c0,0,0,0,0,0Z"/>
  <path class="st12" d="M476.8,564.6c-4.8,6.1-10.6,11.1-16.8,15.6-2.1,1.5-4.2,2.9-6.5,4.2v-.2c5.2-5.5,11-10.5,16.9-15.3,2-1.6,4-3.1,6.2-4.5l.2.2h0Z"/>
  <path class="st12" d="M469.7,564c-1.7,3.4-4.6,5.9-7.7,7.9-1.1.6-2.1,1.2-3.4,1.6v-.2c2.1-3,4.8-5.4,7.7-7.6,1-.7,2-1.4,3.2-1.9l.2.2h0Z"/>
  <path class="st12" d="M523.7,546.5c-1.5,5.2-4.1,10-7.1,14.5-1,1.5-2,3-3.2,4.4h-.2c1.6-5.3,4.1-10.1,7-14.7,1-1.5,2-3,3.3-4.3h.2c0,.1,0,.1,0,.1Z"/>
  <path class="st12" d="M519.7,548.2c-1.1,3.2-3.2,5.9-5.6,8.2-.8.8-1.7,1.5-2.7,2.1h-.1c1.7-4.3,4.4-8,8.2-10.4h.2Z"/>
  <path class="st12" d="M520.3,542.5c-3.8,6.6-8.6,12.5-13.6,18.2-1.7,1.9-3.4,3.7-5.3,5.4h-.1c3.9-6.7,8.5-12.7,13.5-18.3,1.7-1.9,3.4-3.7,5.4-5.4h.2c0,.1,0,.1,0,.1Z"/>
  <path class="st12" d="M438.1,536.2c-5.7-.4-11.2-1.7-16.9-2.1-5.6-.5-11.2-.9-16.7.7v-.2c4.9-3.1,11.2-3.1,16.9-2.7,2.9.2,5.8.6,8.6,1.4,2.8.7,5.5,1.6,8.2,2.6v.2h0Z"/>
  <path class="st12" d="M541.3,533.3c-4.9-2.7-9.1-6.3-13-10.3-1.3-1.3-2.5-2.7-3.7-4.2v-.2c5,2.8,9.2,6.3,13.2,10.2,1.3,1.3,2.5,2.7,3.7,4.2l-.2.2h0Z"/>
  <path class="st12" d="M470.8,598.2c-10.1-1.2-20.5-2.9-30.5-5-4.3-8.8-8.1-18.4-7.8-28.4.2-10.4,4.9-19,13.8-24.5v.2c-1.7,1.6-3.5,3.1-5.1,4.9-4.7,5.3-6.7,12.5-6.7,19.5,0,9.5,3.6,18.5,7.5,27l-.7-.6c4.4.9,10.5,2.5,14.8,3.3,4.9,1.1,9.9,2.2,14.8,3.3v.2h0,0Z"/>
  <path class="st12" d="M428,565.7c-8.5.1-16.9-1-25.3-2.5-2.8-.5-5.5-1.1-8.3-1.8v-.2c8.5,0,17,1,25.3,2.4,2.8.5,5.6,1.1,8.3,1.9v.2h0Z"/>
  <path class="st12" d="M392,571.2c.9,12.7,1.2,25.4,1.2,38.1-.2,12.6.3,25.9-1,38.1-1.2-19-1.4-38.1-1.2-57.1,0-6.3.3-12.7.7-19h.2,0Z"/>
  <path class="st12" d="M439.9,599.8c2.7,10.2,4.7,20.6,6.5,31.1.9,5.2,1.8,10.4,2.5,15.7.8,5.2,1.5,10.5,2,15.8h-.2c-3.8-15.4-6.7-31-9.2-46.7-.8-5.2-1.5-10.5-2-15.8h.2s0,0,0,0Z"/>
  <path class="st12" d="M367.1,678.6c-5.8-2.6-11-6.4-16-10.3-1.6-1.3-3.3-2.7-4.8-4.3v-.2c5.9,2.7,11.2,6.3,16.2,10.3,1.6,1.3,3.3,2.7,4.7,4.3v.2h-.1,0Z"/>
  <path class="st18" d="M440.9,681.3c20.2,7.3,41.7-1.7,58.1-13.9,17-12.1,31.4-28.3,43.3-45-13.2,22.6-32.3,42.5-55.4,55.2-9.4,4.9-20,8-30.7,7.5-5.3-.3-10.6-1.4-15.4-3.6v-.2h0Z"/>
  <path class="st18" d="M549.1,661.3c-3.2,9-7.6,17.5-12.2,25.8-1.6,2.8-3.2,5.5-5,8.2h-.2c3.3-9.1,7.5-17.6,12.2-26,1.6-2.8,3.2-5.5,5-8.1h.2q0,.1,0,.1Z"/>
  <path class="st18" d="M496.9,681.7c.8-4,2.8-7.6,5.1-11,.8-1.1,1.6-2.2,2.6-3.2h.2c-.9,4.1-2.8,7.7-5,11.1-.8,1.1-1.6,2.2-2.6,3.2h-.2c0-.1,0-.1,0-.1Z"/>
  <path class="st18" d="M519.8,689.5c3.4.1,6.4,1.5,9.3,3.1.9.6,1.8,1.2,2.7,2v.2c-4.5-.4-8.8-2.1-12.1-5.1v-.2h0Z"/>
  <path class="st18" d="M558.7,492.5c.5,3.4-1.6,6.9-4.6,8.5h-.2c.9-3.3,2.2-6.1,4.5-8.5h.2c0,0,0,0,0,0Z"/>
  <path class="st18" d="M557.7,483.2c-.2,3.9-2.3,7.4-5,10.2-.9.9-1.9,1.7-3,2.4h-.1c.6-1.3,1.2-2.4,1.8-3.4,1.1-1.8,2.7-4.4,3.9-6.2.7-1,1.4-2,2.2-3h.2c0,0,0,0,0,0Z"/>
  <path class="st18" d="M553.7,478.5c-.2,3.9-2.3,7.4-5,10.2-.9.9-1.9,1.7-3,2.4h-.1c.6-1.3,1.2-2.4,1.8-3.4,1.1-1.8,2.7-4.4,3.9-6.2.7-1,1.4-2,2.2-3h.2c0,0,0,0,0,0Z"/>
  <path class="st4" d="M501.3,88.1c-2,48.4-4.2,96.7-6.4,145.1,18.9,1.1,37.7,2.6,56.5,4.5.7-7.9,1.4-15.9,2.1-23.8-10.4-1.4-20.9-2.8-31.4-3.9.5-12.3,1-24.7,1.4-37,9.2.6,18.4,1.4,27.6,2.2.4-9.8.7-19.5,1-29.2-7.2-.8-14.3-1.4-21.5-2.1.9-9.4,1.6-18.9,1.9-28.4,9.3.6,18.6,1.3,27.9,2.1.3-8.8.7-17.5,1-26.3-20.1-1.4-40.2-2.5-60.3-3.1h0Z"/>
  <path class="st8" d="M320.5,90.5c4,48.2,7.9,96.4,11.7,144.7,18.8-1.5,37.7-2.5,56.5-3.2-.3-8-.5-15.9-.8-23.9-10.5,0-21,0-31.5.3-1-12.3-2.1-24.6-3.2-36.9,9.2-.6,18.4-1.1,27.6-1.5-.9-9.7-1.7-19.4-2.6-29.1-7.2.2-14.4.5-21.5.8-.3-9.5-.8-19-1.7-28.4,9.3-.7,18.6-1.2,27.9-1.7-.7-8.7-1.5-17.4-2.3-26.2-20.1,1.3-40.1,3-60.1,5.1h0Z"/>
  <path class="st3" d="M246.9,98.1c-11.5,1.6-23,3.3-34.4,5.2,3.8,33.3,7.6,66.5,11.4,99.8,2.3,14.6,4.6,29.2,7,43.9,10.9-1.8,21.8-3.4,32.8-5-2.7-23.4-5.5-46.7-8.2-70.1,5-1.3,10-2.6,15-3.8,2.9,24,5.8,47.9,8.7,71.9,9.5-1.6,19.1-3.1,28.6-4.5-1.3-24.2-2.6-48.4-3.8-72.6-1.5-23.6-2.9-47.2-4.4-70.8-5.5.3-10.9.8-16.4,1.2-5.2.5-15.4.4-16.7,2.4-4,5.9,2.4,30.7,3.8,45.7-5.4.4-10.8.8-16.2,1.2-2.4-14.8-4.7-29.6-7.1-44.4h0Z"/>
  <path class="st14" d="M441.9,161.8c4.8-1.6,9.4-3.5,14-5.6,10.2-4.5,18.6-12.4,24.7-21.7,2.2-3.3,4.6-6.8,5.7-10.4,1.4-4.7,1.3-9.3.3-14.2-3.2-14.6-16.1-28.5-32.1-28.9-8.2,0-16.3,0-24.5.2-7.7,0-17,1.5-24.5-.2-2,16-3.1,32.2-4.5,48.3.1,34.4.2,68.8.4,103.2,9.3-.2,18.6-.3,27.9-.3,0,0,.1-.1.1-.1.6-1.1.5-2.8.6-4,.3-2.8.4-5.5.6-8.3.5-7.8.9-15.6,1.3-23.4,10,12.9,19.7,26,29.2,39.2,7.5-4.1,15-8.1,22.6-12-13.4-21-27.3-41.6-41.7-61.8h0ZM435.2,105.5c3.8-.2,7.5-.6,11,0,3.1.6,6.7,2.6,8.6,5.4,2.4,3.7,1.5,8.5.2,12.5-.8,2.3-1.6,4.8-3.5,6.8-1.2,1.3-2.8,2.4-4.4,3.4-4.2,2.6-9,5.3-14.1,5.5.7-11.2,1.4-22.5,2.1-33.7Z"/>
  <path class="st5" d="M60.4,137.2c19.2,44.4,37.7,89,55.4,134,6.4-1.7,12.9-3.4,19.3-5,1.1-27.8,2.6-55.5,4.4-83.2,10.9,24.3,21.6,48.8,31.9,73.3,9.9-1.7,19.8-3.2,29.7-4.6-2.7-48.4-4.8-96.9-6.4-145.3-10.5,1.9-21.1,3.9-31.6,6,2.5,22.2,5.1,44.3,7.7,66.5-9.5-20.8-19.3-41.4-29.3-61.9-8.2,1.8-16.3,3.7-24.4,5.6-2.8,19.2-5.5,38.4-7.8,57.7-6.1-17.1-12.3-34.1-18.5-51.1-10.1,2.6-20.2,5.4-30.3,8.3h0Z"/>
  <path class="st3" d="M623.5,219.2c4.5-31.5,8.9-63,13.3-94.5-6.3-1-12.7-2-19-2.9,1.1-8.4,2.1-16.9,3.2-25.3,24.5,3.8,48.8,8.1,73,13.2-1.4,7.8-2.8,15.7-4.2,23.5-6.8-1.2-13.6-2.3-20.5-3.4-4.9,31.8-9.9,63.6-15,95.3,6.1,1.1,12.2,2.3,18.3,3.6-1.5,8.5-3.1,17-4.6,25.4-21.8-4.2-43.8-7.8-65.8-10.8,1.1-8.8,2.3-17.5,3.4-26.3,6,.7,11.9,1.4,17.8,2.2h0Z"/>
  <path class="st4" d="M771.6,170.5c-9.7-2.6-19.5-5.2-29.2-7.6,0-2.2-.6-4.4-.5-6.6.3-4.4-.3-9.3-3.7-12.4-.6-.5-1.3-1.1-2.2-1.1-.6,0-1.2.1-1.7.4-2.4,1.1-3.5,3.5-3.5,5.9s1,4.8,2.1,7.1c3,6.1,6.9,12,10.3,17.9,10.3,17.6,18.5,38.8,15.8,59.6-1.3,9.8-4.6,19-11.8,25.3-3.6,3.1-8.1,5.5-12.7,7.6-3.7,1.7-7.8,3.2-11.7,3.1-3.4-.1-6.5-1-9.9-2.2-11.5-4.1-24.3-12.9-27.6-25.6-.7-2.8-1-5.9-1.1-8.8-.4-8.5-1.2-17.3-1.6-25.7-.2-3.2-.4-7.1,2.4-9.5,9.7,2.1,19.5,4.2,29.2,6.4-2.1,10.3-1,20.1,1.5,30.1.6,2.4,2.9,5.6,5.6,5.6,2,0,3.3-1.8,3.9-3.4,2.3-6.5,1.7-13.8.7-20.5-1.2-7.5-4.5-14.7-8.2-21.3-3.1-5.6-6.7-11-9.8-16.5-7.7-13.4-13.3-30-7.4-45.4,2.1-5.5,5.5-9.7,10.1-12.9,5.8-3.9,12.9-4.8,20-4.2,7.1.5,14.1,1.2,20.8,3.2,6.2,1.8,13,5.5,16.4,11.2,2,3.3,2.7,7.3,3.1,11.2,1,9.8,1.7,19.5.3,29.4"/>
  <path class="st10" d="M121.8,343c-.3,0-.6,0-.9-.2-1.1-.6-1-3.1-1.3-4.2-.7-2.4-1.7-4.8-2.7-7.1-.9-1.9-2-3.8-3.8-5.1-1.8-1.3-4.5-1.7-6.6-.7-3.8,1.8-3.5,7.2-2.7,10.6,6,25.5,14,50.7,27.1,73.5,1.4,2.4,3.1,5,5.8,5.8,3.2-3.3,2.9-8.4,1.8-12.5-1.6-6.2-3.6-12.3-6-18.3,8-2.5,16.1-4.9,24.2-7.2,3.1,12,5.1,24,6,36.4.4,5.5.3,12.1-3,16.8-1.6,2.2-3.7,4.1-6.1,5.5-12,7.6-29.3,6.5-39.9-3.1-4-3.6-7.1-8.4-9.7-13.1-6.9-12.4-12.2-26-16.5-39.1-1.2-3.5-1.9-7.3-2.7-11-1.6-7.1-3.4-14.4-5.4-21.4-1.5-5.3-3-10.6-3.5-16-.9-9,2-17.9,6.5-25.7,2-3.4,4.7-6.5,8.2-8.5,2.4-1.4,5.6-2.4,8.3-2.8,9.7-1.3,19.8.1,28.2,5.4,7.8,4.9,13.3,12.5,15.9,21.3,1.1,3.7,2.1,7.4,3.1,11,.3,1.1.9,2.6.7,3.2-.4,1.5-5.4,2.1-7.8,2.8-2.8.7-5.9,1.5-8.9,2.1-1.5.3-3.1.6-4.6,1-1.2.3-2.5.8-3.7.7h0Z"/>
  <path class="st13" d="M204.2,271.2c-5.2-1.9-27,5.6-40.4,8.5,5.7,49.9,11.9,99.7,18.4,149.4,8-1.9,16-3.7,24-5.5-1.6-10.8-2.1-22.6-5.3-33,5.9-1.1,11.8-2.6,17.8-3.9,3,10.4,6,20.9,9,31.3,7.4-1.5,14.9-2.9,22.3-4.2-6.9-24-14.1-48-21.6-71.9-5.1-16.4-10.4-32.8-16-49-2.4-6.9-5.6-20.9-8.2-21.9h0ZM198.1,370.4c-2.1-21.8-4.1-43.6-6-65.5,7.6,20.6,14.9,41.4,22.1,62.2-5.4,1.1-10.8,2.2-16.1,3.3h0Z"/>
  <path class="st1" d="M245.3,293.3c-1.4-9-2.7-17.9-4.1-26.9,26.2-4.1,52.6-7.4,79.1-9.9,0,9.1,0,18.2,0,27.4-8,.8-15.9,1.6-23.9,2.5,2.2,39.8,4.5,79.7,6.9,119.5-9,.5-18.1,1-27.1,1.7-3.8-39.3-7.5-78.7-11.1-118-6.6,1.2-13.2,2.5-19.8,3.9h0Z"/>
  <path class="st17" d="M379.7,250.9c-4.8-2.6-27.4,1.5-41,2.4-1.2,50.2-1.9,100.5-2.3,150.7,8.1-.7,16.3-1.3,24.4-1.8,0-10.9,1.1-22.7-.7-33.4,6-.2,12-.8,18-1.2,1.6,10.8,3.1,21.5,4.6,32.3,7.5-.4,15.1-.6,22.6-.8-3.5-24.8-7.4-49.6-11.5-74.4-2.9-17-5.8-34-9.1-50.9-1.4-7.2-2.6-21.6-5.1-22.9h0ZM360,348.3c.9-21.9,1.9-43.8,3-65.7,4.6,21.6,9.1,43.2,13.3,64.8-5.5.3-10.9.6-16.4.9h0Z"/>
  <path class="st8" d="M475.6,398.9c.3-7.5.6-15,1-22.5-10-.4-19.9-.8-29.9-1,.7-41,1.3-81.9,1.8-122.9-9.4-.1-18.9-.2-28.3-.2.5,48.5.8,97,1.1,145.4,18.1,0,36.3.3,54.4,1.1h0Z"/>
  <path class="st10" d="M541.5,402.2c3.5-47.9,6.8-95.8,9.8-143.7,10.4,1.1,20.8,2.3,31.1,3.7,5.7,19.1,11.1,38.4,16.1,57.7,2.5-18.1,5-36.2,7.5-54.4,9.2,1.4,18.3,2.9,27.5,4.5-8.1,47.3-16.3,94.5-24.6,141.8-8.8-1.5-17.6-3-26.5-4.3-3.5-23.8-7.5-47.6-11.8-71.3-1.9,23.6-3.9,47.3-5.9,70.9-7.7-1.7-15.4-3.3-23.2-4.9h0Z"/>
  <path class="st6" d="M703.3,282.3c-4.1-3.9-27.1-6-40.5-8.9-13.7,48.2-27.1,96.5-40,145,8.1,1.5,16.1,3.2,24.2,4.9,2.7-10.5,6.7-21.6,7.7-32.5,5.9,1.4,11.9,2.5,17.9,3.8-1.2,10.8-2.4,21.7-3.6,32.5,7.4,1.7,14.8,3.5,22.2,5.4,2.8-25,5.2-50,7.4-75,1.5-17.2,2.8-34.4,3.9-51.7.5-7.4,2.9-21.5.8-23.5h0ZM659.8,371c6.4-20.9,12.9-41.8,19.4-62.7-.9,22.1-2,44.2-3.3,66.3-5.4-1.2-10.8-2.4-16.2-3.6h0Z"/>
  <path class="st1" d="M517.7,402.6c-9.7-.8-19.4-1.5-29.1-2.1,2.7-49.1,5.2-98.2,7.6-147.2,11,.6,21.9,1.4,32.8,2.4-3.7,49-7.5,98-11.4,147h0Z"/>
  <path class="st5" d="M789.1,339.2c-5,3.8-10.7,7.1-16,10.5-16.8,10.9-31.2,25.5-38.9,44.2-.5,1.3-1,2.7-1.5,4.1,9.2,2.9,18.3,6,27.5,9,2-4.4,4.3-8.5,7.1-12.2,4.3-5.7,10-10.4,16-14.5,4.8-3.3,10.1-6.4,15-9.6,13.1-8.6,23.4-20.2,26.4-36,1-5.6.2-11.2-1.9-16.3-2.6-6-7.6-10.4-13.5-13.6-5.7-3-11.3-5.8-17.4-7.5-8.3-2.3-18-5.2-26.8-2.8-4.9,1.4-9.7,3.7-13.9,6.7-3.5,2.4-5.5,6.2-7.4,9.9-2.8,5.3-8.9,15.5-8.2,16.7,1.2,2.2,23,8.4,25.4,7.3,2.8-1.3,10.4-14.6,19.9-14.7,2.7,0,5.6.4,8.2,1.5,4.3,1.9,7.4,7.4,5,11.9-1.1,2.1-2.9,3.8-4.8,5.2h0Z"/>
  <path class="st5" d="M725.3,418.3c-.2.9-.4,1.9-.3,2.9,0,1.7.5,3.4,1.2,5,.8,2.2,1.8,4.2,2.8,6.3,1,2.1,2.1,4.1,3.2,6.1.4.7.7,1.4,1.2,2,.4.5.6,1.1,1,1.5.4.4,1,.7,1.5.6s.4-.1.5-.2c1.3-.5,2.5-1.2,3.7-1.9,1.7-.9,3.3-1.9,5-2.9s3.3-2,4.8-3.1c1.2-.8,2.3-1.6,3.4-2.6.6-.5,1.2-1.2,1.7-1.8.4-.5.8-1.1,1.1-1.7.3-.6.5-1.2.6-1.9.4-1.6.3-3.2-.3-4.7-.7-1.8-1.8-3.2-3.3-4.3-1-.7-2.1-1.3-3.4-1.5-1.3-.3-2.6-.3-3.8.1-1.4.4-2.6,1.2-3.6,2.2,0,0,0,.1-.2.1s0-.1-.1-.2c-.4-1.7-1.2-3.2-2.5-4.4-.6-.5-1.2-.9-1.9-1.2-.4-.2-.8-.4-1.2-.5-.7-.2-1.3-.2-2-.3-1,0-1.9,0-2.8.3-2,.5-3.7,1.5-4.9,3.1-.7.9-1.1,1.9-1.4,2.9h0Z"/>
  <g>
    <path class="st7" d="M302.8,813c.4-.7,1.3-1.1,2.1-1.1,2.6,0,3.2,4.9,3.4,6.7h0c1.5,6.9.4,8.8,1.3,15.9l1.2,9.5c-.2,1.3-1.5,1.8-2.2,1.8s-1.1-.6-1.6-1c-.7-3.8-1.3-7.6-1.6-11.5h-6.7s-.5,0-.5,0c-1.1,3-2.5,6.1-3.5,9.2-.5,1.7-1,3.5-3,3.7-1.2,0-2.1-.8-2-2,0,0,.2-.4.2-.5.7-1.8,1.6-3.6,2.3-5.3,1.6-3.8,2.9-7.8,4.2-11.6.3-.9.6-1.8,1-2.7,1.6-3.7,3-7.5,5.2-11.1ZM299.6,829.7h2.2c1.1,0,2.3,0,3.5-.1,0-3.8-.4-8.6-.8-12.3-1.5,3.8-3.4,8.6-4.8,12.5Z"/>
    <path class="st7" d="M331.2,827.4l-1.6,10.2c-.2,1.4-.2,2.9-.4,4.4-.2,1.5-.1,3.6-2.5,3.6s-1.7-3.2-1.5-4.6l.7-4.5c.5-3.2,1.4-6.6,1.4-9.9,0-1.5-.7-2.5-2.5-2.5s-3.8,1.2-4.1,2.2c-.3.8-.5,1.6-.6,2.4-.6,3.8-1,7.6-1.6,11.4-.2,1.2-.3,5.6-2.6,5.6s-2-2.8-1.8-4.3l1.5-9.6c.3-2.1.8-4.2,1.4-6.3.8-2.7,3-3.8,5.8-4.5,1-.2,2-.3,2.9-.3,5.2,0,6.1,2.4,5.5,6.6Z"/>
    <path class="st7" d="M356.1,813c.4-.7,1.3-1.1,2.1-1.1,2.6,0,3.2,4.9,3.4,6.7h0c1.5,6.9.4,8.8,1.3,15.9l1.2,9.5c-.2,1.3-1.5,1.8-2.2,1.8s-1.1-.6-1.6-1c-.7-3.8-1.3-7.6-1.6-11.5h-6.7s-.5,0-.5,0c-1.1,3-2.5,6.1-3.5,9.2-.5,1.7-1,3.5-3,3.7-1.2,0-2.1-.8-2-2,0,0,.2-.4.2-.5.7-1.8,1.6-3.6,2.3-5.3,1.6-3.8,2.9-7.8,4.2-11.6.3-.9.6-1.8,1-2.7,1.6-3.7,3-7.5,5.2-11.1ZM352.8,829.7h2.2c1.1,0,2.3,0,3.5-.1,0-3.8-.4-8.6-.8-12.3-1.5,3.8-3.4,8.6-4.8,12.5Z"/>
    <path class="st7" d="M389.7,819.8c0,.2,0,.5-.3.6-.4,1-.4,2.5-.6,3.5-.9,5.5-6.1,8.7-11.9,8.7s-1.8,0-2.7-.1l-1.1,6.7c-.2,1.2-.2,2.3-.4,3.5-.2,1-.1,3.9-2.1,3.9s-2.5-.4-2.3-1.8l1.1-7.9c.1-.9.1-1.7.3-2.6l.7-4c.4-2.7.6-5.4,1-8l1.5-9.3c.9-1,1.9-1.2,3.1-1.2s3.5-.2,5.2-.2c6.3,0,9.3,2.3,8.4,8.3ZM376.1,818.9c-.2,1.5-1.4,8.7-1.1,9.7.8.2,1.6.3,2.5.3,5,0,6.4-1.9,7.4-5.9.2-.7.5-1.4.6-2.1.6-3.6.3-5.7-4.2-5.7s-3,.3-4.5.3l-.6,3.5ZM411.2,820.3l-.8,5c-1.1,6.7-6.9,8.7-13.3,8.7s-1.1,0-1.6,0l-.3,1.9c-.4,2.6-.5,5.1-.9,7.7-.1.8-.6,2.4-1.9,2.4s-2.4-.5-2.3-1.8c.2-2.5.4-5,.8-7.6.7-4.3,1.2-8.6,1.9-12.9l1.7-10.3c.9-1,1.9-1.1,3.2-1.1,1.8,0,3.5-.2,5.2-.2,6.2,0,9.4,2.4,8.4,8.3ZM396,829.6v.2c.9.2,1.8.3,2.7.3,4.8,0,7.1-2.1,7.7-6.3l.4-2.6c.6-3.6.4-5.8-4.2-5.8s-3.1.2-4.6.3l-.8,5.3-1.2,8.6Z"/>
    <path class="st7" d="M435.9,839.4c1.3,0,1.6.9,1.4,2-.5,3-3.6,5-6.7,5s-4.2-1.3-5-2.8c-.6-1.2-.4-2.9-.2-4.2l2.1-14c-1.3,0-3.6,0-3.3-1.8,0-.6,1.3-2.1,2-2.1h2c0-1.7.2-3.5.5-5.2.1-.7.6-1.8,1.1-2.3.1-.5.8-.7,1.5-.7,1,0,2.2.5,2,1.5l-.7,4.3-.3,2.5c1,0,2-.1,3-.1s2.4.9,2.2,2c-.2,1-.9,1.4-1.9,1.5h-3.3c0,.1-.7.2-.7.2.2.1-1,7.6-1.3,9.5-.6,3.6-.8,3.6-.9,4.8-.1,1.9.2,3.5,1.8,3.5s2-1,2.6-2l.2-.2c.5-.6,1.1-1.1,1.9-1.1Z"/>
    <path class="st7" d="M454.8,844.8c0,.6-1.5,1.2-2.1,1.2-2.3,0-1.6-3.4-1.4-4.9l1.7-10.6c.2-1.1,1.3-5.7-.9-5.7-4.4,0-5.5,2.9-5.9,5.9l-.9,5.4c-.4,2.5-.6,5-1,7.6-.2,1.1-1.2,1.6-2.2,1.8-1.1-.4-1.9-1.2-1.7-2.3,1.1-7.1,2-14.2,3-21.2l.5-3.7c.3-1.8.5-4.4.9-5.8.1-.5.7-.9,1.2-.9,2,0,2.8.6,2.5,2.4-.5,2.9-.9,5.7-1.4,9.1,2-1.3,3.8-1.8,5.4-1.8s3.1.1,4.1,1.1c2.2,2-.1,12.6-.5,14.9-.2,1.6-.9,6.5-1.1,7.3Z"/>
    <path class="st7" d="M473.5,836.2c-.1,1.7-.4,3.4-.7,5.1-.6,4-4.1,5-7.9,5s-6.8-2.7-6.2-6.2c.5-3,2.6-6.1,6-7.2,1.6-.6,3.6-.6,5.3-1,.2-1.5,1.1-6.3,0-7.2-.2,0-.5,0-.7,0-2.7,0-4.2,2.7-6.1,2.7s-1.4-.9-1.3-1.9c.4-2.7,5.2-4.5,7.7-4.5,5.4,0,5.3,5.1,4.7,8.9-.3,2.1-.8,4.2-1,6.3ZM468.9,840.8c.3-1.7.3-3.4.5-5-3,.2-6.2,1.1-6.7,4.3-.2,1.6,1.2,2.6,2.8,2.6s3,0,3.3-1.8Z"/>
    <path class="st7" d="M488.8,839.4c1.3,0,1.6.9,1.4,2-.5,3-3.6,5-6.7,5s-4.2-1.3-5-2.8c-.6-1.2-.4-2.9-.2-4.2l2.1-14c-1.3,0-3.6,0-3.3-1.8,0-.6,1.3-2.1,2-2.1h2c0-1.7.2-3.5.5-5.2.1-.7.6-1.8,1.1-2.3.1-.5.8-.7,1.5-.7,1,0,2.2.5,2,1.5l-.7,4.3-.3,2.5c1,0,2-.1,3-.1s2.4.9,2.2,2c-.2,1-.9,1.4-1.9,1.5h-3.3c0,.1-.7.2-.7.2.2.1-1,7.6-1.3,9.5-.6,3.6-.8,3.6-.9,4.8-.1,1.9.2,3.5,1.8,3.5s2-1,2.6-2l.2-.2c.5-.6,1.1-1.1,1.9-1.1Z"/>
    <path class="st7" d="M519.5,836.2c-.1,1.7-.4,3.4-.7,5.1-.6,4-4.1,5-7.9,5s-6.8-2.7-6.2-6.2c.5-3,2.6-6.1,6-7.2,1.6-.6,3.6-.6,5.3-1,.2-1.5,1.1-6.3,0-7.2-.2,0-.5,0-.7,0-2.7,0-4.2,2.7-6.1,2.7s-1.4-.9-1.3-1.9c.4-2.7,5.2-4.5,7.7-4.5,5.4,0,5.3,5.1,4.7,8.9-.3,2.1-.8,4.2-1,6.3ZM515,840.8c.3-1.7.3-3.4.5-5-3,.2-6.2,1.1-6.7,4.3-.2,1.6,1.2,2.6,2.8,2.6s3,0,3.3-1.8Z"/>
    <path class="st7" d="M540.1,827.4l-1.6,10.2c-.2,1.4-.2,2.9-.4,4.4-.2,1.5-.1,3.6-2.5,3.6s-1.7-3.2-1.5-4.6l.7-4.5c.5-3.2,1.4-6.6,1.4-9.9,0-1.5-.7-2.5-2.5-2.5s-3.8,1.2-4.1,2.2c-.3.8-.5,1.6-.6,2.4-.6,3.8-1,7.6-1.6,11.4-.2,1.2-.3,5.6-2.6,5.6s-2-2.8-1.8-4.3l1.5-9.6c.3-2.1.8-4.2,1.4-6.3.8-2.7,3-3.8,5.8-4.5,1-.2,2-.3,2.9-.3,5.2,0,6.1,2.4,5.5,6.6Z"/>
    <path class="st7" d="M553.7,826.9c.2-1.3.3-2.8-1.7-2.8s-3.5.5-3.8,2c-.4,2.3,2.8,5.3,4.4,6.7,2,1.9,3.7,3.7,3.3,6.7-.6,3.6-2.6,6.8-7.1,6.8s-7.2-2.7-6.6-6.5c.2-1.2,1-2.9,2.6-2.9s1.9,1,1.7,2c-.3,2-.4,4.1,2.5,4.1s2.7-1.4,3.1-2.6c.5-3.7-4.7-6.1-6.2-9.1-.3-.6-.5-1.2-.9-1.7-.7-1.1-1-1.9-.8-3.4.2-1.5.9-3,2.5-4,1.5-.9,3.8-1.5,5.5-1.5s4.1.7,4.9,2.4c.5,1,.9,2.2.7,3.3-.2,1-.9,2.6-2.3,2.6s-1.9-1.1-1.7-2.1Z"/>
    <path class="st7" d="M585.6,822.9c-.2,1.4-.8,2.6-1.5,3.8-2,5.4-4.2,9.7-4.9,11.5-.6,1.6-2.1,7.4-4.4,7.4s-1.6-1.6-1.6-3c0-1.8-.3-4.8-.5-6.5-.2-2.2-.2-4.3-.3-7.8-1.2,3.6-1.9,5.7-2.8,7.8-.7,1.7-1.8,4.6-2.4,6.5-.5,1.4-1.1,3-2.5,3s-1.9-1.9-1.9-3c-.2-2.9-.5-5.8-.7-8.8-.2-3.4-.7-6.5-.7-6.9-.3-1.1-.5-2.2-.4-3.2,0-.3,0-.6,0-.8.2-1,.9-1.5,2-1.5s1.5.3,1.7,1.3l1,9c.2,2,0,4.5-.1,8.3,1.3-4.1,2.4-7.1,3.3-9.5.8-2,1.6-7.5,4.5-7.4,1.9-.2,1.9,1.5,1.8,3.4,0,1.4,0,2.6.3,3.9.2,1,.4,1.7.3,2.8,0,1.4.3,2.8.1,6,2.4-6.1,3.7-11.8,6.2-16.5.4-.7,1.2-1.3,2.1-1.3,1.3,0,1.7.4,1.6,1.5Z"/>
    <path class="st7" d="M600.4,840.9c-.6,3.7-3.2,5.3-7.1,5.3s-5.7-.9-6.9-3.6c-1.1-2.5,0-8.6.4-11.5.8-4.9,2.1-10.5,8.8-10.5s6.2,2.4,6.1,6.9c0,1.4,0,3-.2,4.5-.1.9-1.7,1.8-3,1.8s-1.4-.2-2.1-.2c-2,0-4,0-5.9.1l-.5,3.9c-.5,3.3.7,4.9,4.4,4.9s1.6-1.1,2.2-2c.4-.9,1.4-1.9,2.6-1.9s1.3,1.4,1.2,2.2ZM593,824.8c-1.2,1.3-1.6,2.4-1.8,3.9,0,.5-.2,1-.2,1.5h3.9s2.5,0,2.5,0c.1-1.1.8-5.1-.2-5.7-.5-.2-1.1-.4-1.7-.4s-1.9,0-2.4.7Z"/>
    <path class="st7" d="M619,824c-.1.8-1.2,1.7-2.1,1.7s-1.3-.3-1.8-.6c-.8-.3-1.7-.7-2.6-.7-1.7,0-2,1-2.2,2.3l-.4,2.5c-.4,2.8-.7,5.6-1.2,8.4-.3,2.1-.7,4.3-1.5,6.4-.3.9-1,1.6-2.1,1.6-2,0-1.8-1.8-1.6-3.1.5-3.1,1.1-6.2,1.6-9.3.3-2.2.5-4.3.8-6.5.6-3.6,3.6-6,7.6-6s4.3,1.3,5.4,2.7c0,0,0,.5,0,.6Z"/>
    <path class="st7" d="M629.9,826.9c.2-1.3.3-2.8-1.7-2.8s-3.5.5-3.8,2c-.4,2.3,2.8,5.3,4.4,6.7,2,1.9,3.7,3.7,3.3,6.7-.6,3.6-2.6,6.8-7.1,6.8s-7.2-2.7-6.6-6.5c.2-1.2,1-2.9,2.6-2.9s1.9,1,1.7,2c-.3,2-.4,4.1,2.5,4.1s2.7-1.4,3.1-2.6c.5-3.7-4.7-6.1-6.2-9.1-.3-.6-.5-1.2-.9-1.7-.7-1.1-1-1.9-.8-3.4.2-1.5.9-3,2.5-4,1.5-.9,3.8-1.5,5.5-1.5s4.1.7,4.9,2.4c.5,1,.9,2.2.7,3.3-.2,1-.9,2.6-2.3,2.6s-1.9-1.1-1.7-2.1Z"/>
    <path class="st7" d="M253.5,911.2c-.4.8-.9,1.6-2,1.6s-1.4-.4-2-.7c-3.4-1.6-2.6-7.2-2.1-10.4l1.7-10.5c.6-3.8,1-7.6,1.6-11.5.2-1.3,1-2.4,2.6-2.4s1.7.8,1.6,1.8l-3.5,22.2c-.4,2.3-1.4,7,1.5,7.9.6.4.7,1.1.6,1.8Z"/>
    <path class="st7" d="M257.6,910.4l3.2-21.3c.2-1.2,1.1-2.4,2.6-2.4s1.7.8,1.6,1.8l-1.6,9.8c-.6,3.8-1,7.6-1.6,11.4-.2,1.3-1.1,2.4-2.6,2.4s-1.7-.8-1.5-1.7ZM261.8,881.7c.1-.9.7-3.6,2.2-3.6,2.4,0,2.2,3.3,2,4.9-.2,1-.6,2.3-2,2.3-2.4,0-2.5-1.5-2.2-3.5Z"/>
    <path class="st7" d="M285.6,882.7c.1.3,0,.7,0,1.1-.2,1.1-1.1,1.5-2.2,1.5s-1.6-.5-1.7-1.5c-.1-1-1.2-2.2-2.4-2.2s-2.4.7-3.2,1.5c-.9.9-1.7,5.8-1.9,7.1-.2,1.4-.2,2.9-.5,4.3,1.7,0,6.9-.7,6.5,1.7-.2,1.4-1.4,1.8-2.8,1.8s-2.8-.1-4.3,0c-.3,2.2-.5,4.3-.8,6.4l-.7,4.5c-.2,1.1-.5,2.2-1.3,3.1-.1.1-.7.4-1.1.4-2.3,0-2.2-1.5-2-3.2.2-1.5.9-3.1,1.1-4.7.4-2.6.5-5.2.9-7.9l1.4-8.3c.3-1.8.6-5,1.9-6.7,2-2.6,4.3-3.7,7.5-3.7s5.3,2.2,5.5,4.6Z"/>
    <path class="st7" d="M296.7,907.1c-.6,3.7-3.2,5.3-7.1,5.3s-5.7-.9-6.9-3.6c-1.1-2.5,0-8.6.4-11.5.8-4.9,2.1-10.5,8.8-10.5s6.2,2.4,6.1,6.9c0,1.4,0,3-.2,4.5-.1.9-1.7,1.8-3,1.8s-1.4-.2-2.1-.2c-2,0-4,0-5.9.1l-.5,3.9c-.5,3.3.7,4.9,4.4,4.9s1.6-1.1,2.2-2c.4-.9,1.4-1.9,2.6-1.9s1.3,1.4,1.2,2.2ZM289.3,891c-1.2,1.3-1.6,2.4-1.8,3.9,0,.5-.2,1-.2,1.5h3.9s2.5,0,2.5,0c.1-1.1.8-5.1-.2-5.7-.5-.2-1.1-.4-1.7-.4s-1.9,0-2.4.7Z"/>
    <path class="st7" d="M308.7,883.6c-.3,2.2-.7,4.7-1.6,6.9-.2.4-.7.7-1.2.7-.2,0-.3,0-.5,0-.9,0-1.6-.9-1.5-1.6.2-2.1.3-4.1.5-6.1.1-1,0-2,.2-2.9.2-1,1-1.5,2-1.5,2.8,0,2.5,2.7,2.2,4.6Z"/>
    <path class="st7" d="M321,893c.2-1.3.3-2.8-1.7-2.8s-3.5.5-3.8,2c-.4,2.3,2.8,5.3,4.4,6.7,2,1.9,3.7,3.7,3.3,6.7-.6,3.6-2.6,6.8-7.1,6.8s-7.2-2.7-6.6-6.5c.2-1.2,1-2.9,2.6-2.9s1.9,1,1.7,2c-.3,2-.4,4.1,2.5,4.1s2.7-1.4,3.1-2.6c.5-3.7-4.7-6.1-6.2-9.1-.3-.6-.5-1.2-.9-1.7-.7-1.1-1-1.9-.8-3.4.2-1.5.9-3,2.5-4,1.5-.9,3.8-1.5,5.5-1.5s4.1.7,4.9,2.4c.5,1,.9,2.2.7,3.3-.2,1-.9,2.6-2.3,2.6s-1.9-1.1-1.7-2.1Z"/>
    <path class="st7" d="M350.4,893c.2-1.3.3-2.8-1.7-2.8s-3.5.5-3.8,2c-.4,2.3,2.8,5.3,4.4,6.7,2,1.9,3.7,3.7,3.3,6.7-.6,3.6-2.6,6.8-7.1,6.8s-7.2-2.7-6.6-6.5c.2-1.2,1-2.9,2.6-2.9s1.9,1,1.7,2c-.3,2-.4,4.1,2.5,4.1s2.7-1.4,3.1-2.6c.5-3.7-4.7-6.1-6.2-9.1-.3-.6-.5-1.2-.9-1.7-.7-1.1-1-1.9-.8-3.4.2-1.5.9-3,2.5-4,1.5-.9,3.8-1.5,5.5-1.5s4.1.7,4.9,2.4c.5,1,.9,2.2.7,3.3-.2,1-.9,2.6-2.3,2.6s-1.9-1.1-1.7-2.1Z"/>
    <path class="st7" d="M377.2,908.5c0,.5,0,1,0,1.5-.2,1.3-1.1,2.2-2.6,2.2l-1.1-.4c-.6-.6-.5-1.4-.3-2.2l2.6-15.6c.2-1.4.3-3.4-1.7-3.4s-2.9,2.1-3.2,3.7l-1.6,10.1c-.3,1.8-.4,3.6-.7,5.4-.1.9-1,2.4-2.2,2.4-2.4,0-1.5-5.2-1.3-6.6.6-3.6,1.4-7.1,1.9-10.6.3-1.6.5-4.4-2-4.4s-2.4,1.1-2.6,2.4l-.4,3.3c-.4,2.6-1,5.1-1.4,7.7-.3,1.9-.2,3.6-.5,5.5-.1.9-1.1,2.4-2.2,2.4s-1.9-.9-1.7-2.1c.9-5.4,1.3-10.8,2.1-16.2.6-3.8,2-6.7,6.8-6.7s3.5.7,4.6,1.8c1.5-1.2,3.6-1.6,5.4-1.6,5.4,0,4.8,4.9,4.2,8.6-.4,2.3-1,4.6-1.4,6.9-.3,1.7-.8,4.3-.7,5.9Z"/>
    <path class="st7" d="M395.5,902.4c-.1,1.7-.4,3.4-.7,5.1-.6,4-4.1,5-7.9,5s-6.8-2.7-6.2-6.2c.5-3,2.6-6.1,6-7.2,1.6-.6,3.6-.6,5.3-1,.2-1.5,1.1-6.3,0-7.2-.2,0-.5,0-.7,0-2.7,0-4.2,2.7-6.1,2.7s-1.4-.9-1.3-1.9c.4-2.7,5.2-4.5,7.7-4.5,5.4,0,5.3,5.1,4.7,8.9-.3,2.1-.8,4.2-1,6.3ZM391,907c.3-1.7.3-3.4.5-5-3,.2-6.2,1.1-6.7,4.3-.2,1.6,1.2,2.6,2.8,2.6s3,0,3.3-1.8Z"/>
    <path class="st7" d="M406.5,911.2l-.5,1c-.5.4-1.1.7-1.7.7-.8,0-1.4-.3-2.2-.7-3.3-1.5-2.4-7.5-2-10.4l1.1-7.1c.7-4.5,1.2-9.1,1.9-13.6.2-1.5,1.2-2.3,2.8-2.3s1.7.8,1.5,1.8l-1.8,10.9c-.3,1.9-.5,4-1,5.9-.4,1.3-.5,2.6-.7,3.9-.4,2.4-1.4,7,1.5,8,.3.3,1.2,1.3.9,1.8ZM417.6,911.5l-.5.9c-.5.4-1,.7-1.7.7s-1.4-.3-2.1-.7c-3.9-1.7-2.4-7.8-1.9-11.2l1.3-8.5c.7-4.5,1.2-9.1,1.9-13.6.2-1.3,1.1-2.3,2.6-2.3s1.7.8,1.5,1.8l-3.6,22.5c-.4,2.5-1.5,7.3,1.5,8.5.2.3,1.1,1.4.9,1.8Z"/>
    <path class="st7" d="M434.4,907.1c-.6,3.7-3.2,5.3-7.1,5.3s-5.7-.9-6.9-3.6c-1.1-2.5,0-8.6.4-11.5.8-4.9,2.1-10.5,8.8-10.5s6.2,2.4,6.1,6.9c0,1.4,0,3-.2,4.5-.1.9-1.7,1.8-3,1.8s-1.4-.2-2.1-.2c-2,0-4,0-5.9.1l-.5,3.9c-.5,3.3.7,4.9,4.4,4.9s1.6-1.1,2.2-2c.4-.9,1.4-1.9,2.6-1.9s1.3,1.4,1.2,2.2ZM427.1,891c-1.2,1.3-1.6,2.4-1.8,3.9,0,.5-.2,1-.2,1.5h3.9s2.5,0,2.5,0c.1-1.1.8-5.1-.2-5.7-.5-.2-1.1-.4-1.7-.4s-1.9,0-2.4.7Z"/>
    <path class="st7" d="M448.9,893c.2-1.3.3-2.8-1.7-2.8s-3.5.5-3.8,2c-.4,2.3,2.8,5.3,4.4,6.7,2,1.9,3.7,3.7,3.3,6.7-.6,3.6-2.6,6.8-7.1,6.8s-7.2-2.7-6.6-6.5c.2-1.2,1-2.9,2.6-2.9s1.9,1,1.7,2c-.3,2-.4,4.1,2.5,4.1s2.7-1.4,3.1-2.6c.5-3.7-4.7-6.1-6.2-9.1-.3-.6-.5-1.2-.9-1.7-.7-1.1-1-1.9-.8-3.4.2-1.5.9-3,2.5-4,1.5-.9,3.8-1.5,5.5-1.5s4.1.7,4.9,2.4c.5,1,.9,2.2.7,3.3-.2,1-.9,2.6-2.3,2.6s-1.9-1.1-1.7-2.1Z"/>
    <path class="st7" d="M466.9,905.6c1.3,0,1.6.9,1.4,2-.5,3-3.6,5-6.7,5s-4.2-1.3-5-2.8c-.6-1.2-.4-2.9-.2-4.2l2.1-14c-1.3,0-3.6,0-3.3-1.8,0-.6,1.3-2.1,2-2.1h2c0-1.7.2-3.5.5-5.2.1-.7.6-1.8,1.1-2.3.1-.5.8-.7,1.5-.7,1,0,2.2.5,2,1.5l-.7,4.3-.3,2.5c1,0,2-.1,3-.1s2.4.9,2.2,2c-.2,1-.9,1.4-1.9,1.5h-3.3c0,.1-.7.2-.7.2.2.1-1,7.6-1.3,9.5-.6,3.6-.8,3.6-.9,4.8-.1,1.9.2,3.5,1.8,3.5s2-1,2.6-2l.2-.2c.5-.6,1.1-1.1,1.9-1.1Z"/>
    <path class="st7" d="M502.2,893c-.6,4.9-1.3,9.7-2.1,14.5-.4,2.5-1.2,5-1.6,7.6-.3,1.8-.3,3.7-.6,5.5-.3,1.7-.8,3.3-1,5-.2,1-1.7,1.9-2.7,1.9s-1.5-1.4-1.4-2.5c.4-2.3.2.5,1.3-6.4l1-6.8c-1.3.5-2.7.6-4,.6-3.2,0-5.7-1.6-6.7-4.2-1.2-3-.4-7,0-10.3.2-1.3.4-2.7.8-3.9,1.4-3.8,4.9-6.8,9.3-6.8s7.5.9,7.6,5.8ZM497.5,897.7c.3-2.2,1.4-5.9-1.2-6.8-.5-.1-1.1-.4-1.6-.4-1.7,0-3.5,1-4.5,2.3-1,1.3-1.2,2.9-1.4,4.3-.4,2.4-.8,4.8-.8,7.2,0,1.6.6,2.9,1.9,4,.6.5,1.4.8,2.2.8s2-.5,2.8-1.1c1.4-1.2,1.3-3.7,1.8-5.3h0c0,0,.9-4.9.9-4.9Z"/>
    <path class="st7" d="M521.3,902.8c-.4,2.5-1.4,7.8-4.4,9.2-1,.5-3,.7-4,.7-2.4,0-5.1-.7-6.5-2.4-1.6-1.9-1.1-4.3-.9-6.7,0-1.5.2-3.1.5-4.7.3-2.1.4-4.3.7-6.3.2-1.4.7-5.4,3.1-5.4s2.1,1.1,1.9,2.1c-.6,3.9-1.3,7.8-1.8,11.6-.3,3.1-1.8,8.2,3.1,8.2s4.3-5,4.7-7.2c.6-4,.6-7.9,1.3-11.9.2-1.2.6-2.7,2.2-2.7s2.4.9,2.2,2.2c0,.5-.4,1-.4,1.4-.4,3.9-1,8-1.6,11.9Z"/>
    <path class="st7" d="M539.6,907.1c-.6,3.7-3.2,5.3-7.1,5.3s-5.7-.9-6.9-3.6c-1.1-2.5,0-8.6.4-11.5.8-4.9,2.1-10.5,8.8-10.5s6.2,2.4,6.1,6.9c0,1.4,0,3-.2,4.5-.1.9-1.7,1.8-3,1.8s-1.4-.2-2.1-.2c-2,0-4,0-5.9.1l-.5,3.9c-.5,3.3.7,4.9,4.4,4.9s1.6-1.1,2.2-2c.4-.9,1.4-1.9,2.6-1.9s1.3,1.4,1.2,2.2ZM532.2,891c-1.2,1.3-1.6,2.4-1.8,3.9,0,.5-.2,1-.2,1.5h3.9s2.5,0,2.5,0c.1-1.1.8-5.1-.2-5.7-.5-.2-1.1-.4-1.7-.4s-1.9,0-2.4.7Z"/>
    <path class="st7" d="M554,893c.2-1.3.3-2.8-1.7-2.8s-3.5.5-3.8,2c-.4,2.3,2.8,5.3,4.4,6.7,2,1.9,3.7,3.7,3.3,6.7-.6,3.6-2.6,6.8-7.1,6.8s-7.2-2.7-6.6-6.5c.2-1.2,1-2.9,2.6-2.9s1.9,1,1.7,2c-.3,2-.4,4.1,2.5,4.1s2.7-1.4,3.1-2.6c.5-3.7-4.7-6.1-6.2-9.1-.3-.6-.5-1.2-.9-1.7-.7-1.1-1-1.9-.8-3.4.2-1.5.9-3,2.5-4,1.5-.9,3.8-1.5,5.5-1.5s4.1.7,4.9,2.4c.5,1,.9,2.2.7,3.3-.2,1-.9,2.6-2.3,2.6s-1.9-1.1-1.7-2.1Z"/>
    <path class="st7" d="M572.1,905.6c1.3,0,1.6.9,1.4,2-.5,3-3.6,5-6.7,5s-4.2-1.3-5-2.8c-.6-1.2-.4-2.9-.2-4.2l2.1-14c-1.3,0-3.6,0-3.3-1.8,0-.6,1.3-2.1,2-2.1h2c0-1.7.2-3.5.5-5.2.1-.7.6-1.8,1.1-2.3.1-.5.8-.7,1.5-.7,1,0,2.2.5,2,1.5l-.7,4.3-.3,2.5c1,0,2-.1,3-.1s2.4.9,2.2,2c-.2,1-.9,1.4-1.9,1.5h-3.3c0,.1-.7.2-.7.2.2.1-1,7.6-1.3,9.5-.6,3.6-.8,3.6-.9,4.8-.1,1.9.2,3.5,1.8,3.5s2-1,2.6-2l.2-.2c.5-.6,1.1-1.1,1.9-1.1Z"/>
    <path class="st7" d="M576.5,910.4l3.2-21.3c.2-1.2,1.1-2.4,2.6-2.4s1.7.8,1.6,1.8l-1.6,9.8c-.6,3.8-1,7.6-1.6,11.4-.2,1.3-1.1,2.4-2.6,2.4s-1.7-.8-1.5-1.7ZM580.6,881.7c.1-.9.7-3.6,2.2-3.6,2.4,0,2.2,3.3,2,4.9-.2,1-.6,2.3-2,2.3-2.4,0-2.5-1.5-2.2-3.5Z"/>
    <path class="st7" d="M609.7,896.5c.3,1.3.2,2.6,0,4-1,6.5-4.6,12-12.7,12s-11.9-5.7-10.9-12.3l.2-1.3c.8-5.4,7.5-11.9,13.8-11.9s9,4.9,9.6,9.5ZM601.6,907.8c2.3-1.6,3.6-4.8,4-7.2.3-2.1.2-5.8-1.2-7.4-.4-.5-.8-.9-1.3-1.3-.8-.8-2.1-1.4-3.5-1.4-3.3,0-6,2.5-7.7,4.9-1.1,1.5-1.6,3.2-1.9,4.9-.7,4.5,1.8,7.6,6.5,8.4.3,0,.6,0,.9,0,1.3,0,3,0,4.2-.9Z"/>
    <path class="st7" d="M629.4,893.6l-1.6,10.2c-.2,1.4-.2,2.9-.4,4.4-.2,1.5-.1,3.6-2.5,3.6s-1.7-3.2-1.5-4.6l.7-4.5c.5-3.2,1.4-6.6,1.4-9.9,0-1.5-.7-2.5-2.5-2.5s-3.8,1.2-4.1,2.2c-.3.8-.5,1.6-.6,2.4-.6,3.8-1,7.6-1.6,11.4-.2,1.2-.3,5.6-2.6,5.6s-2-2.8-1.8-4.3l1.5-9.6c.3-2.1.8-4.2,1.4-6.3.8-2.7,3-3.8,5.8-4.5,1-.2,2-.3,2.9-.3,5.2,0,6.1,2.4,5.5,6.6Z"/>
    <path class="st7" d="M643,893c.2-1.3.3-2.8-1.7-2.8s-3.5.5-3.8,2c-.4,2.3,2.8,5.3,4.4,6.7,2,1.9,3.7,3.7,3.3,6.7-.6,3.6-2.6,6.8-7.1,6.8s-7.2-2.7-6.6-6.5c.2-1.2,1-2.9,2.6-2.9s1.9,1,1.7,2c-.3,2-.4,4.1,2.5,4.1s2.7-1.4,3.1-2.6c.5-3.7-4.7-6.1-6.2-9.1-.3-.6-.5-1.2-.9-1.7-.7-1.1-1-1.9-.8-3.4.2-1.5.9-3,2.5-4,1.5-.9,3.8-1.5,5.5-1.5s4.1.7,4.9,2.4c.5,1,.9,2.2.7,3.3-.2,1-.9,2.6-2.3,2.6s-1.9-1.1-1.7-2.1Z"/>
    <path class="st7" d="M651.3,911.4c-.5,0-1-.1-1.3-.4-1.2-.1-.7-2.7-.6-3.5l.3-2.1c.1-.7.2-2.2,1.4-2.2s2.1.2,3,1.4l-.4,2.6c-.1.9-.4,3.7-1.6,4.1h0c-.3,0-.5,0-.8,0ZM654.1,896.3c-3.6,0-2.7-3.2-2.3-5.5.2-1.4.6-2.4,2.5-2.4s1.6.7,2,1.6l-.6,3.3c0,.6,0,1.2-.1,1.8-.1.7-.6,1.2-1.4,1.2Z"/>
    <path class="st7" d="M308.7,976.4c-.7-3-.8-6.6-1.1-9.8-.2-2.4-.9-5.3-1.1-7.7l-.4-5.7c-2.2,4.9-4.4,10.8-6.6,15.7-.7,1.7-4,9.7-6.2,9.7s-2.5-2.9-2.7-4.5c-.3-1.4-.9-3.6-1-5.3-.8-7.2-1.8-14.3-1.8-21.7,0-1.3,0-2.6,2-2.6s2,2.2,2.1,3.5c0,.9.1,1.7.3,2.6.3,2.6,0,5.3.4,7.9.3,2.8.5,5.5,1,8.2.3,1.7.4,3.5.7,5.1,1.8-3.8,3.4-8.3,5.2-12.1.6-1.2,1.1-2.4,1.6-3.6,1.2-2.9,2.4-5.9,3.9-8.8.4-.8,1.6-1.2,2.5-1.2s.7,0,.9,0c1,0,1.2,2.1,1.3,2.8,0,1.5.3,3,.5,4.5.2,1,.2,2,.3,2.9.2,3,.8,6,1.1,9.1.1,1.7.2,4,.5,5.7,1.4-2.9,2.6-5.8,3.9-8.7,1.4-3.4,2.9-6.9,4.4-10.3.6-1.4,1.4-2.8,1.8-4.2.5-1.4,1.5-3.6,3.4-3.6s1.6.5,1.5,1.4c-.2,1.5-5.5,13.6-6.7,16-.7,1.4-1.4,2.9-2,4.4-.8,2.4-2.1,4.7-3.3,7-.6,1.4-2.2,5.3-4.3,5.3s-1.8-1.4-1.9-2.2Z"/>
    <path class="st7" d="M340.4,977.2c0,.6-1.5,1.2-2.1,1.2-2.3,0-1.6-3.4-1.4-4.9l1.7-10.6c.2-1.1,1.3-5.7-.9-5.7-4.4,0-5.5,2.9-5.9,5.9l-.9,5.4c-.4,2.5-.6,5-1,7.6-.2,1.1-1.2,1.6-2.2,1.8-1.1-.4-1.9-1.2-1.7-2.3,1.1-7.1,2-14.2,3-21.2l.5-3.7c.3-1.8.5-4.4.9-5.7.1-.5.7-.9,1.2-.9,2,0,2.8.6,2.5,2.4-.5,2.9-.9,5.7-1.4,9.1,2-1.3,3.8-1.8,5.4-1.8s3.1.1,4.1,1.1c2.2,2-.1,12.6-.5,14.9-.2,1.6-.9,6.5-1.1,7.3Z"/>
    <path class="st7" d="M360,973.3c-.6,3.7-3.2,5.3-7.1,5.3s-5.7-.9-6.9-3.6c-1.1-2.5,0-8.6.4-11.5.8-4.9,2.1-10.5,8.8-10.5s6.2,2.4,6.1,6.9c0,1.4,0,3-.2,4.5-.1.9-1.7,1.8-3,1.8s-1.4-.2-2.1-.2c-2,0-4,0-5.9.1l-.5,3.9c-.5,3.3.7,4.9,4.4,4.9s1.6-1.1,2.2-2c.4-.9,1.4-1.9,2.6-1.9s1.3,1.4,1.2,2.2ZM352.6,957.2c-1.2,1.3-1.6,2.4-1.8,3.9,0,.5-.2,1-.2,1.5h3.9s2.5,0,2.5,0c.1-1.1.8-5.1-.2-5.7-.5-.2-1.1-.4-1.7-.4s-1.9,0-2.4.7Z"/>
    <path class="st7" d="M378.5,956.4c-.1.8-1.2,1.7-2.1,1.7s-1.3-.3-1.8-.6c-.8-.3-1.7-.7-2.6-.7-1.7,0-2,1-2.2,2.3l-.4,2.5c-.4,2.8-.7,5.6-1.2,8.4-.3,2.1-.7,4.3-1.5,6.4-.3.9-1,1.6-2.1,1.6-2,0-1.8-1.8-1.6-3.1.5-3.1,1.1-6.2,1.6-9.3.3-2.2.5-4.3.8-6.5.6-3.6,3.6-6,7.6-6s4.3,1.3,5.4,2.7c0,0,0,.5,0,.6Z"/>
    <path class="st7" d="M392.7,973.3c-.6,3.7-3.2,5.3-7.1,5.3s-5.7-.9-6.9-3.6c-1.1-2.5,0-8.6.4-11.5.8-4.9,2.1-10.5,8.8-10.5s6.2,2.4,6.1,6.9c0,1.4,0,3-.2,4.5-.1.9-1.7,1.8-3,1.8s-1.4-.2-2.1-.2c-2,0-4,0-5.9.1l-.5,3.9c-.5,3.3.7,4.9,4.4,4.9s1.6-1.1,2.2-2c.4-.9,1.4-1.9,2.6-1.9s1.3,1.4,1.2,2.2ZM385.3,957.2c-1.2,1.3-1.6,2.4-1.8,3.9,0,.5-.2,1-.2,1.5h3.9s2.5,0,2.5,0c.1-1.1.8-5.1-.2-5.7-.5-.2-1.1-.4-1.7-.4s-1.9,0-2.4.7Z"/>
    <path class="st7" d="M409,976.6l3.2-21.3c.2-1.2,1.1-2.4,2.6-2.4s1.7.8,1.6,1.8l-1.6,9.8c-.6,3.8-1,7.6-1.6,11.4-.2,1.3-1.1,2.4-2.6,2.4s-1.7-.8-1.5-1.7ZM413.2,947.9c.1-.9.7-3.6,2.2-3.6,2.4,0,2.2,3.3,2,4.9-.2,1-.6,2.3-2,2.3-2.4,0-2.5-1.5-2.2-3.5Z"/>
    <path class="st7" d="M430.1,959.2c.2-1.3.3-2.8-1.7-2.8s-3.5.5-3.8,2c-.4,2.3,2.8,5.3,4.4,6.7,2,1.9,3.7,3.7,3.3,6.7-.6,3.6-2.6,6.8-7.1,6.8s-7.2-2.7-6.6-6.5c.2-1.2,1-2.9,2.6-2.9s1.9,1,1.7,2c-.3,2-.4,4.1,2.5,4.1s2.7-1.4,3.1-2.6c.5-3.7-4.7-6.1-6.2-9.1-.3-.6-.5-1.2-.9-1.7-.7-1.1-1-1.9-.8-3.4.2-1.5.9-3,2.5-4,1.5-.9,3.8-1.5,5.5-1.5s4.1.7,4.9,2.4c.5,1,.9,2.2.7,3.3-.2,1-.9,2.6-2.3,2.6s-1.9-1.1-1.7-2.1Z"/>
    <path class="st7" d="M448.7,969.4c.2-1.5.4-3,.6-4.5.3-2.6.5-5.1.9-7.7.4-2.3.9-4.6,1.5-6.9.9-3.6,4.3-6.6,8.5-6.6s2.7,0,4.1.6c2.3.9,4.6,4.5,4.2,6.9-.1.8-.6,1.5-1.2,2.2l-.9.3c-1.9,0-1.9-1.4-2.2-2.8-.6-2-1.2-3.6-4-3.6s-3.8,1-4.4,2.3c-.8,2.7-1.1,5.4-1.6,8.1l-.8,4.5c-.4,2.5-.6,5-.9,7.8.3.9-.7,5,3.3,5s4.2-.7,5-1.9c.7-.9.6-4,2.5-4s2.1,1.1,1.9,2.7c-.7,4.5-5.3,6.8-9.8,6.8s-7.5-4.5-6.8-9.2Z"/>
    <path class="st7" d="M482.8,968.6c-.1,1.7-.4,3.4-.7,5.1-.6,4-4.1,5-7.9,5s-6.8-2.7-6.2-6.2c.5-3,2.6-6.1,6-7.2,1.6-.6,3.6-.6,5.3-1,.2-1.5,1.1-6.3,0-7.2-.3,0-.5,0-.7,0-2.7,0-4.2,2.7-6.1,2.7s-1.4-.9-1.3-1.9c.4-2.7,5.2-4.5,7.7-4.5,5.4,0,5.3,5.1,4.7,8.9-.3,2.1-.8,4.2-1,6.3ZM478.3,973.2c.3-1.7.3-3.4.5-5-3,.2-6.2,1.1-6.7,4.3-.2,1.6,1.2,2.6,2.8,2.6s3,0,3.3-1.8Z"/>
    <path class="st7" d="M498.1,971.8c1.3,0,1.6.9,1.4,2-.5,3-3.6,5-6.7,5s-4.2-1.3-5-2.8c-.6-1.2-.4-2.9-.2-4.2l2.1-14c-1.3,0-3.6,0-3.3-1.8,0-.6,1.3-2.1,2-2.1h2c0-1.7.2-3.5.5-5.2.1-.7.6-1.8,1.1-2.3.1-.5.8-.7,1.5-.7,1,0,2.2.5,2,1.5l-.7,4.3-.3,2.5c1,0,2-.1,3-.1s2.4.9,2.2,2c-.2,1-.9,1.4-1.9,1.5h-3.3c0,.1-.7.2-.7.2.2.1-1,7.6-1.3,9.5-.6,3.6-.8,3.6-.9,4.8-.1,1.9.2,3.5,1.8,3.5s2-1,2.6-2l.2-.2c.5-.6,1.1-1.1,1.9-1.1Z"/>
    <path class="st7" d="M516.6,968.6c-.1,1.7-.4,3.4-.7,5.1-.6,4-4.1,5-7.9,5s-6.8-2.7-6.2-6.2c.5-3,2.6-6.1,6-7.2,1.6-.6,3.6-.6,5.3-1,.2-1.5,1.1-6.3,0-7.2-.3,0-.5,0-.7,0-2.7,0-4.2,2.7-6.1,2.7s-1.4-.9-1.3-1.9c.4-2.7,5.2-4.5,7.7-4.5,5.4,0,5.3,5.1,4.7,8.9-.3,2.1-.8,4.2-1,6.3ZM512.1,973.2c.3-1.7.3-3.4.5-5-3,.2-6.2,1.1-6.7,4.3-.2,1.6,1.2,2.6,2.8,2.6s3,0,3.3-1.8Z"/>
    <path class="st7" d="M527.4,977.4c-.4.8-.9,1.6-2,1.6s-1.4-.4-2-.7c-3.4-1.6-2.6-7.2-2.1-10.4l1.7-10.5c.6-3.8,1-7.6,1.6-11.5.2-1.3,1-2.4,2.6-2.4s1.7.8,1.6,1.8l-3.5,22.2c-.4,2.3-1.4,7,1.5,7.9.6.4.7,1.1.6,1.8Z"/>
    <path class="st7" d="M531.5,976.6l3.2-21.3c.2-1.2,1.1-2.4,2.6-2.4s1.7.8,1.6,1.8l-1.6,9.8c-.6,3.8-1,7.6-1.6,11.4-.2,1.3-1.1,2.4-2.6,2.4s-1.7-.8-1.5-1.7ZM535.6,947.9c.1-.9.7-3.6,2.2-3.6,2.4,0,2.2,3.3,2,4.9-.2,1-.6,2.3-2,2.3-2.4,0-2.5-1.5-2.2-3.5Z"/>
    <path class="st7" d="M558.4,959.8l-1.6,10.2c-.2,1.4-.2,2.9-.4,4.4-.2,1.5-.1,3.6-2.5,3.6s-1.7-3.2-1.5-4.6l.7-4.5c.5-3.2,1.4-6.6,1.4-9.9,0-1.5-.7-2.5-2.5-2.5s-3.8,1.2-4.1,2.2c-.3.8-.5,1.6-.6,2.4-.6,3.8-1,7.6-1.6,11.4-.2,1.2-.3,5.6-2.6,5.6s-2-2.8-1.8-4.3l1.5-9.6c.3-2.1.8-4.2,1.4-6.3.8-2.7,3-3.8,5.8-4.5,1-.2,2-.3,2.9-.3,5.2,0,6.1,2.4,5.5,6.6Z"/>
    <path class="st7" d="M574.4,968.6c-.1,1.7-.4,3.4-.7,5.1-.6,4-4.1,5-7.9,5s-6.8-2.7-6.2-6.2c.5-3,2.6-6.1,6-7.2,1.6-.6,3.6-.6,5.3-1,.2-1.5,1.1-6.3,0-7.2-.3,0-.5,0-.7,0-2.7,0-4.2,2.7-6.1,2.7s-1.4-.9-1.3-1.9c.4-2.7,5.2-4.5,7.7-4.5,5.4,0,5.3,5.1,4.7,8.9-.3,2.1-.8,4.2-1,6.3ZM569.9,973.2c.3-1.7.3-3.4.5-5-3,.2-6.2,1.1-6.7,4.3-.2,1.6,1.2,2.6,2.8,2.6s3,0,3.3-1.8Z"/>
    <path class="st7" d="M586.5,975.3c-.2,1.3-.8,3.5-2.7,3.5s-1.9-2.9-1.7-4.2c0-.3.2-.6.5-.8h0c.4-.7,1-1.3,2-1.3s1.7.5,2.1.9c.1.3,0,1.4-.1,1.9ZM591.7,944.1c1.8,0,4.3,0,5.7.9,2.3,1.3,2.5,4.7,2.1,7.1-.3,2.2-1.3,3.9-3.3,5.5-2.3,1.8-4.6,3.6-7,5.3h0c-1.7,2-1.6,4.8-2.2,7.1-.5.6-1,.8-1.7.8s-.9,0-1.3-.2c-.9-.4-.7-1.4-.6-2.2,0-1.1.2-2.2.4-3.3,1.1-6.8,7.8-6.3,11.1-11.9,0,0,.1-.2.2-.2h-.1c.2-.3.3-.7.3-1,.3-2-.3-4-2.9-4s-3.8,0-5.2,1.7c-.1,1-.5,2.2-.8,3.2-.3.9-1,1.3-2,1.3s-1.7-1.4-1.6-2.4l.4-2.5c.6-3.5,5.1-5,8.4-5Z"/>
    <path class="st7" d="M176.8,1042.6c-.7-3-.8-6.6-1.1-9.8-.2-2.4-.9-5.3-1.1-7.7l-.4-5.7c-2.2,4.9-4.4,10.8-6.6,15.7-.7,1.7-4,9.7-6.2,9.7s-2.5-2.9-2.7-4.5c-.3-1.4-.9-3.6-1-5.3-.8-7.2-1.8-14.3-1.8-21.7,0-1.3,0-2.6,2-2.6s2,2.2,2.1,3.5c0,.9.1,1.7.3,2.6.3,2.6,0,5.3.4,7.9.3,2.8.5,5.5,1,8.2.3,1.7.4,3.5.7,5.1,1.8-3.8,3.4-8.3,5.2-12.1.6-1.2,1.1-2.4,1.6-3.6,1.2-2.9,2.4-5.9,3.9-8.8.4-.8,1.6-1.2,2.5-1.2s.7,0,.9,0c1,0,1.2,2.1,1.3,2.8,0,1.5.3,3,.5,4.5.2,1,.2,2,.3,2.9.2,3,.8,6,1.1,9.1.1,1.7.2,4,.5,5.7,1.4-2.9,2.6-5.8,3.9-8.7,1.4-3.4,2.9-6.9,4.4-10.3.6-1.4,1.4-2.8,1.8-4.2.5-1.4,1.5-3.6,3.4-3.6s1.6.5,1.5,1.4c-.2,1.5-5.5,13.6-6.7,16-.7,1.4-1.4,2.9-2,4.4-.8,2.4-2.1,4.7-3.3,7-.6,1.4-2.2,5.3-4.3,5.3s-1.8-1.4-1.9-2.2Z"/>
    <path class="st7" d="M208.6,1043.4c0,.6-1.5,1.2-2.1,1.2-2.3,0-1.6-3.4-1.4-4.9l1.7-10.6c.2-1.1,1.3-5.7-.9-5.7-4.4,0-5.5,2.9-5.9,5.9l-.9,5.4c-.4,2.5-.6,5-1,7.6-.2,1.1-1.2,1.6-2.2,1.8-1.1-.4-1.9-1.2-1.7-2.3,1.1-7.1,2-14.2,3-21.2l.5-3.7c.3-1.8.5-4.4.9-5.7.1-.5.7-.9,1.2-.9,2,0,2.8.6,2.5,2.4-.5,2.9-.9,5.7-1.4,9.1,2-1.3,3.8-1.8,5.4-1.8s3.1.1,4.1,1.1c2.2,2-.1,12.6-.5,14.9-.2,1.6-.9,6.5-1.1,7.3Z"/>
    <path class="st7" d="M227.3,1034.8c-.1,1.7-.4,3.4-.7,5.1-.6,4-4.1,5-7.9,5s-6.8-2.7-6.2-6.2c.5-3,2.6-6.1,6-7.2,1.6-.6,3.6-.6,5.3-1,.2-1.5,1.1-6.3,0-7.2-.3,0-.5,0-.7,0-2.7,0-4.2,2.7-6.1,2.7s-1.4-.9-1.3-1.9c.4-2.7,5.2-4.5,7.7-4.5,5.4,0,5.3,5.1,4.7,8.9-.3,2.1-.8,4.2-1,6.3ZM222.7,1039.4c.3-1.7.3-3.4.5-5-3,.2-6.2,1.1-6.7,4.3-.2,1.6,1.2,2.6,2.8,2.6s3,0,3.3-1.8Z"/>
    <path class="st7" d="M242.6,1038c1.3,0,1.6.9,1.4,2-.5,3-3.6,5-6.7,5s-4.2-1.3-5-2.8c-.6-1.2-.4-2.9-.2-4.2l2.1-14c-1.3,0-3.6,0-3.3-1.8,0-.6,1.3-2.1,2-2.1h2c0-1.7.2-3.5.5-5.2.1-.7.6-1.8,1.1-2.3.1-.5.8-.7,1.5-.7,1,0,2.2.5,2,1.5l-.7,4.3-.3,2.5c1,0,2-.1,3-.1s2.4.9,2.2,2c-.2,1-.9,1.4-1.9,1.5h-3.3c0,.1-.7.2-.7.2.2.1-1,7.6-1.3,9.5-.6,3.6-.8,3.6-.9,4.8-.1,1.9.2,3.5,1.8,3.5s2-1,2.6-2l.2-.2c.5-.6,1.1-1.1,1.9-1.1Z"/>
    <path class="st7" d="M255.7,1015.9c-.3,2.2-.7,4.7-1.6,6.9-.2.4-.7.7-1.2.7-.2,0-.3,0-.5,0-.9,0-1.6-.9-1.5-1.6.2-2.1.3-4.1.5-6.1.1-1,0-2,.2-2.9.2-1,1-1.5,2-1.5,2.8,0,2.5,2.7,2.2,4.6Z"/>
    <path class="st7" d="M268,1025.4c.2-1.3.3-2.8-1.7-2.8s-3.5.5-3.8,2c-.4,2.3,2.8,5.3,4.4,6.7,2,1.9,3.7,3.7,3.3,6.7-.6,3.6-2.6,6.8-7.1,6.8s-7.2-2.7-6.6-6.5c.2-1.2,1-2.9,2.6-2.9s1.9,1,1.7,2c-.3,2-.4,4.1,2.5,4.1s2.7-1.4,3.1-2.6c.5-3.7-4.7-6.1-6.2-9.1-.3-.6-.5-1.2-.9-1.7-.7-1.1-1-1.9-.8-3.4.2-1.5.9-3,2.5-4,1.5-.9,3.8-1.5,5.5-1.5s4.1.7,4.9,2.4c.5,1,.9,2.2.7,3.3-.2,1-.9,2.6-2.3,2.6s-1.9-1.1-1.7-2.1Z"/>
    <path class="st7" d="M297.3,1025.4c.2-1.3.3-2.8-1.7-2.8s-3.5.5-3.8,2c-.4,2.3,2.8,5.3,4.4,6.7,2,1.9,3.7,3.7,3.3,6.7-.6,3.6-2.6,6.8-7.1,6.8s-7.2-2.7-6.6-6.5c.2-1.2,1-2.9,2.6-2.9s1.9,1,1.7,2c-.3,2-.4,4.1,2.5,4.1s2.7-1.4,3.1-2.6c.5-3.7-4.7-6.1-6.2-9.1-.3-.6-.5-1.2-.9-1.7-.7-1.1-1-1.9-.8-3.4.2-1.5.9-3,2.5-4,1.5-.9,3.8-1.5,5.5-1.5s4.1.7,4.9,2.4c.5,1,.9,2.2.7,3.3-.2,1-.9,2.6-2.3,2.6s-1.9-1.1-1.7-2.1Z"/>
    <path class="st7" d="M317.7,1043.4c0,.6-1.5,1.2-2.1,1.2-2.3,0-1.6-3.4-1.4-4.9l1.7-10.6c.2-1.1,1.3-5.7-.9-5.7-4.4,0-5.5,2.9-5.9,5.9l-.9,5.4c-.4,2.5-.6,5-1,7.6-.2,1.1-1.2,1.6-2.2,1.8-1.1-.4-1.9-1.2-1.7-2.3,1.1-7.1,2-14.2,3-21.2l.5-3.7c.3-1.8.5-4.4.9-5.7.1-.5.7-.9,1.2-.9,2,0,2.8.6,2.5,2.4-.5,2.9-.9,5.7-1.4,9.1,2-1.3,3.8-1.8,5.4-1.8s3.1.1,4.1,1.1c2.2,2-.1,12.6-.5,14.9-.2,1.6-.9,6.5-1.1,7.3Z"/>
    <path class="st7" d="M337.3,1039.5c-.6,3.7-3.2,5.3-7.1,5.3s-5.7-.9-6.9-3.6c-1.1-2.5,0-8.6.4-11.5.8-4.9,2.1-10.5,8.8-10.5s6.2,2.4,6.1,6.9c0,1.4,0,3-.2,4.5-.1.9-1.7,1.8-3,1.8s-1.4-.2-2.1-.2c-2,0-4,0-5.9.1l-.5,3.9c-.5,3.3.7,4.9,4.4,4.9s1.6-1.1,2.2-2c.4-.9,1.4-1.9,2.6-1.9s1.3,1.4,1.2,2.2ZM329.9,1023.4c-1.2,1.3-1.6,2.4-1.8,3.9,0,.5-.2,1-.2,1.5h3.9s2.5,0,2.5,0c.1-1.1.8-5.1-.2-5.7-.5-.2-1.1-.4-1.7-.4s-1.9,0-2.4.7Z"/>
    <path class="st7" d="M369.9,1035.1c-.4,2.5-1.4,7.8-4.4,9.2-1,.5-3,.7-4,.7-2.4,0-5.1-.7-6.5-2.4-1.6-1.9-1.1-4.3-.9-6.7,0-1.5.2-3.1.5-4.7.3-2.1.4-4.3.7-6.3.2-1.4.7-5.4,3.1-5.4s2.1,1.1,1.9,2.1c-.6,3.9-1.3,7.8-1.8,11.6-.3,3.1-1.8,8.2,3.1,8.2s4.3-5,4.7-7.2c.6-4,.6-7.9,1.3-11.9.2-1.2.6-2.7,2.2-2.7s2.4.9,2.2,2.2c0,.5-.4,1-.4,1.4-.4,3.9-1,8-1.6,11.9Z"/>
    <path class="st7" d="M388.5,1019.5c4.3,1.7,3.9,5.3,3.3,9.3-.3,2.2-.5,4.4-.8,6.6-.8,4.8-2.9,9.5-9.3,9.5s-2.7-.2-3.8-.6c-.4,2.7-.6,5.4-1.1,8.1-.2,1.6-.6,5.6-1.8,6.8l-.9.4c-2,0-2.4-.9-2.2-2.6.4-2.7,1.1-5.4,1.5-8.1.5-3.2.7-6.4,1.1-9.5.3-2,.5-4,.6-6,0-2.1,0-4.3.4-6.4.2-1.5.6-3.1,1.7-4.5,1.7-2.4,5.4-3.5,8.2-3.5s2.1.1,3.1.5ZM387.1,1034.9c.4-2.9.5-3.3.5-3.6.2-2.6,1.8-8.9-2.5-8.9s-3.2.6-4.3,1.4c-.8.7-1.2,2.8-1.3,3.6-.2,1.4-.3,2.7-.3,4,0,2.9-2.4,9.5,2.8,9.5s4.4-2.1,5-6.1Z"/>
    <path class="st7" d="M418.3,1038c1.3,0,1.6.9,1.4,2-.5,3-3.6,5-6.7,5s-4.2-1.3-5-2.8c-.6-1.2-.4-2.9-.2-4.2l2.1-14c-1.3,0-3.6,0-3.3-1.8,0-.6,1.3-2.1,2-2.1h2c0-1.7.2-3.5.5-5.2.1-.7.6-1.8,1.1-2.3.1-.5.8-.7,1.5-.7,1,0,2.2.5,2,1.5l-.7,4.3-.3,2.5c1,0,2-.1,3-.1s2.4.9,2.2,2c-.2,1-.9,1.4-1.9,1.5h-3.3c0,.1-.7.2-.7.2.2.1-1,7.6-1.3,9.5-.6,3.6-.8,3.6-.9,4.8-.1,1.9.2,3.5,1.8,3.5s2-1,2.6-2l.2-.2c.5-.6,1.1-1.1,1.9-1.1Z"/>
    <path class="st7" d="M445.9,1028.9c.3,1.3.2,2.6,0,4-1,6.5-4.6,12-12.7,12s-11.9-5.7-10.9-12.3l.2-1.3c.8-5.4,7.5-11.9,13.8-11.9s9,4.9,9.6,9.5ZM437.8,1040.2c2.3-1.6,3.6-4.8,4-7.2.3-2.1.2-5.8-1.2-7.4-.4-.5-.8-.9-1.3-1.3-.8-.8-2.1-1.4-3.5-1.4-3.3,0-6,2.5-7.7,4.9-1.1,1.5-1.6,3.2-1.9,4.9-.7,4.5,1.8,7.6,6.5,8.4.3,0,.6,0,.9,0,1.3,0,3,0,4.2-.9Z"/>
    <path class="st7" d="M476.3,1022.6c-.1.8-1.2,1.7-2.1,1.7s-1.3-.3-1.8-.6c-.8-.3-1.7-.7-2.6-.7-1.7,0-2,1-2.2,2.3l-.4,2.5c-.4,2.8-.7,5.6-1.2,8.4-.3,2.1-.7,4.3-1.5,6.4-.3.9-1,1.6-2.1,1.6-2,0-1.8-1.8-1.6-3.1.5-3.1,1.1-6.2,1.6-9.3.3-2.2.5-4.3.8-6.5.6-3.6,3.6-6,7.6-6s4.3,1.3,5.4,2.7c0,0,0,.5,0,.6Z"/>
    <path class="st7" d="M476.1,1042.8l3.2-21.3c.2-1.2,1.1-2.4,2.6-2.4s1.7.8,1.6,1.8l-1.6,9.8c-.6,3.8-1,7.6-1.6,11.4-.2,1.3-1.1,2.4-2.6,2.4s-1.7-.8-1.5-1.7ZM480.2,1014.1c.1-.9.7-3.6,2.2-3.6,2.4,0,2.2,3.3,2,4.9-.2,1-.6,2.3-2,2.3-2.4,0-2.5-1.5-2.2-3.5Z"/>
    <path class="st7" d="M485.9,1034.2l.9-5.9c.2-1.3.5-2.7,1.1-4,1.5-3.1,6-5,9.4-5s7,2.4,6.3,6.5c-.7,4.3-1.2,8.6-1.9,12.8l-1.1,6c-.3,2-.5,3.9-.8,5.9-.8,5-2.8,8.8-9,8.8s-5.2-.8-6.3-2.7c-1.3-2.2-.9-5.1-.5-7.7.1-.9,1-1.5,1.8-1.9,5.4,0-2,8.7,5.6,8.7s2,0,2.7-.7c.8-.7,1.6-3.5,1.7-4.4.4-2.3.5-4.7.9-7-1.4.7-2.9,1.2-4.4,1.2-6.6,0-7.3-5.9-6.5-10.7ZM490.7,1029.9l-1.1,6.4c-.1.7-.2,1.6,0,2.3.4,1.4,1.6,2.8,3.3,2.8,2.6,0,4.5-2.4,4.8-4.5.1-.7.4-1.4.6-2.2l1.1-6.3c.4-2.5.9-5.6-2.7-5.6-5.3,0-5.3,3.6-5.9,7.2Z"/>
    <path class="st7" d="M520.4,1043.4c0,.6-1.5,1.2-2.1,1.2-2.3,0-1.6-3.4-1.4-4.9l1.7-10.6c.2-1.1,1.3-5.7-.9-5.7-4.4,0-5.5,2.9-5.9,5.9l-.9,5.4c-.4,2.5-.6,5-1,7.6-.2,1.1-1.2,1.6-2.2,1.8-1.1-.4-1.9-1.2-1.7-2.3,1.1-7.1,2-14.2,3-21.2l.5-3.7c.3-1.8.5-4.4.9-5.7.1-.5.7-.9,1.2-.9,2,0,2.8.6,2.5,2.4-.5,2.9-.9,5.7-1.4,9.1,2-1.3,3.8-1.8,5.4-1.8s3.1.1,4.1,1.1c2.2,2-.1,12.6-.5,14.9-.2,1.6-.9,6.5-1.1,7.3Z"/>
    <path class="st7" d="M537.2,1038c1.3,0,1.6.9,1.4,2-.5,3-3.6,5-6.7,5s-4.2-1.3-5-2.8c-.6-1.2-.4-2.9-.2-4.2l2.1-14c-1.3,0-3.6,0-3.3-1.8,0-.6,1.3-2.1,2-2.1h2c0-1.7.2-3.5.5-5.2.1-.7.6-1.8,1.1-2.3.1-.5.8-.7,1.5-.7,1,0,2.2.5,2,1.5l-.7,4.3-.3,2.5c1,0,2-.1,3-.1s2.4.9,2.2,2c-.2,1-.9,1.4-1.9,1.5h-3.3c0,.1-.7.2-.7.2.2.1-1,7.6-1.3,9.5-.6,3.6-.8,3.6-.9,4.8-.1,1.9.2,3.5,1.8,3.5s2-1,2.6-2l.2-.2c.5-.6,1.1-1.1,1.9-1.1Z"/>
    <path class="st7" d="M571,1026l-1.6,10.2c-.2,1.4-.2,2.9-.4,4.4-.2,1.5-.1,3.6-2.5,3.6s-1.7-3.2-1.5-4.6l.7-4.5c.5-3.2,1.4-6.6,1.4-9.9,0-1.5-.7-2.5-2.5-2.5s-3.8,1.2-4.1,2.2c-.3.8-.5,1.6-.6,2.4-.6,3.8-1,7.6-1.6,11.4-.2,1.2-.3,5.6-2.6,5.6s-2-2.8-1.8-4.3l1.5-9.6c.3-2.1.8-4.2,1.4-6.3.8-2.7,3-3.8,5.8-4.5,1-.2,2-.3,2.9-.3,5.2,0,6.1,2.4,5.5,6.6Z"/>
    <path class="st7" d="M597.3,1028.9c.3,1.3.2,2.6,0,4-1,6.5-4.6,12-12.7,12s-11.9-5.7-10.9-12.3l.2-1.3c.8-5.4,7.5-11.9,13.8-11.9s9,4.9,9.6,9.5ZM589.3,1040.2c2.3-1.6,3.6-4.8,4-7.2.3-2.1.2-5.8-1.2-7.4-.4-.5-.8-.9-1.3-1.3-.8-.8-2.1-1.4-3.5-1.4-3.3,0-6,2.5-7.7,4.9-1.1,1.5-1.6,3.2-1.9,4.9-.7,4.5,1.8,7.6,6.5,8.4.3,0,.6,0,.9,0,1.3,0,3,0,4.2-.9Z"/>
    <path class="st7" d="M625.5,1021.5c-.2,1.4-.8,2.6-1.5,3.8-2,5.4-4.2,9.7-4.9,11.5-.6,1.6-2.1,7.4-4.4,7.4s-1.6-1.6-1.6-3c0-1.8-.3-4.8-.5-6.5-.2-2.2-.2-4.3-.3-7.8-1.2,3.6-1.9,5.7-2.8,7.8-.7,1.7-1.8,4.6-2.4,6.5-.5,1.4-1.1,3-2.5,3s-1.9-1.9-1.9-3c-.2-2.9-.5-5.8-.7-8.8-.2-3.4-.7-6.5-.7-6.9-.3-1.1-.5-2.2-.4-3.2,0-.3,0-.6,0-.8.2-1,.9-1.5,2-1.5s1.5.3,1.7,1.3l1,9c.2,2,0,4.5-.1,8.3,1.3-4.1,2.4-7.1,3.3-9.5.8-2,1.6-7.5,4.5-7.4,1.9-.2,1.9,1.5,1.8,3.4,0,1.4,0,2.6.3,3.9.2,1,.4,1.7.3,2.8,0,1.4.3,2.8.1,6,2.4-6.1,3.7-11.8,6.2-16.5.4-.7,1.2-1.3,2.1-1.3,1.3,0,1.7.4,1.6,1.5Z"/>
    <path class="st7" d="M634.1,1041.5c-.2,1.3-.8,3.5-2.7,3.5s-1.9-2.9-1.7-4.2c0-.3.2-.6.5-.8h0c.4-.7,1-1.3,2-1.3s1.7.5,2.1.9c.1.3,0,1.4-.1,1.9ZM639.3,1010.3c1.8,0,4.3,0,5.7.9,2.3,1.3,2.5,4.7,2.1,7.1-.3,2.2-1.3,3.9-3.3,5.5-2.3,1.8-4.6,3.6-7,5.3h0c-1.7,2-1.6,4.8-2.2,7.1-.5.6-1,.8-1.7.8s-.9,0-1.3-.2c-.9-.4-.7-1.4-.6-2.2,0-1.1.2-2.2.4-3.3,1.1-6.8,7.8-6.3,11.1-11.9,0,0,.1-.2.2-.2h-.1c.2-.3.3-.7.3-1,.3-2-.3-4-2.9-4s-3.8,0-5.2,1.7c-.1,1-.5,2.2-.8,3.2-.3.9-1,1.3-2,1.3s-1.7-1.4-1.6-2.4l.4-2.5c.6-3.5,5.1-5,8.4-5Z"/>
    <path class="st7" d="M652.2,1039.4c1.9,0,1.5,2.5,1.3,3.7-.2,1.3-.6,2.4-1.5,3.6h0c-.8,1.1-3.2,3.4-4.7,3.4s-1.4-.8-1.3-1.5c.2-1.4,2.9-2.2,3.4-5.1,0,0-.2-.1-.3-.2-.2-.4-.4-.8-.3-1.4.2-1.4,1.9-2.5,3.4-2.5Z"/>
    <path class="st7" d="M683.2,1034.8c-.1,1.7-.4,3.4-.7,5.1-.6,4-4.1,5-7.9,5s-6.8-2.7-6.2-6.2c.5-3,2.6-6.1,6-7.2,1.6-.6,3.6-.6,5.3-1,.2-1.5,1.1-6.3,0-7.2-.3,0-.5,0-.7,0-2.7,0-4.2,2.7-6.1,2.7s-1.4-.9-1.3-1.9c.4-2.7,5.2-4.5,7.7-4.5,5.4,0,5.3,5.1,4.7,8.9-.3,2.1-.8,4.2-1,6.3ZM678.6,1039.4c.3-1.7.3-3.4.5-5-3,.2-6.2,1.1-6.7,4.3-.2,1.6,1.2,2.6,2.8,2.6s3,0,3.3-1.8Z"/>
    <path class="st7" d="M703.8,1026l-1.6,10.2c-.2,1.4-.2,2.9-.4,4.4-.2,1.5-.1,3.6-2.5,3.6s-1.7-3.2-1.5-4.6l.7-4.5c.5-3.2,1.4-6.6,1.4-9.9,0-1.5-.7-2.5-2.5-2.5s-3.8,1.2-4.1,2.2c-.3.8-.5,1.6-.6,2.4-.6,3.8-1,7.6-1.6,11.4-.2,1.2-.3,5.6-2.6,5.6s-2-2.8-1.8-4.3l1.5-9.6c.3-2.1.8-4.2,1.4-6.3.8-2.7,3-3.8,5.8-4.5,1-.2,2-.3,2.9-.3,5.2,0,6.1,2.4,5.5,6.6Z"/>
    <path class="st7" d="M723.5,1021.2c-.7,4.7-.8,9.4-1.5,14.1-.6,3.8-2.1,9.7-7.7,9.7s-7-.7-8-3.7c-.6-1.6.2-7.2.5-9.2.4-2.4.7-5.1,1.4-7.5,1-3.3,5.2-4.8,8.4-4.8s2.1,0,3.1.3c.3-1.7.5-3.4.6-5.1,0-.8-.1-1.7,0-2.5.2-1,.5-2.3,2-2.3,2.6,0,2.4,3.2,2.1,5,0,.6-.3,1.2-.4,1.8-.2,1.4-.1,2.8-.3,4.2ZM717.8,1035.6c.5-3,.8-6,1-9,0-.3.2-2.8-.3-2.8-.7,0-1.3-.5-2-.5s-1.3.2-1.9.3c-.4.1-1.7.5-2.2.9-.9,1.2-1.2,3.3-1.4,4.7l-1.2,7.6c0,.3,0,.7,0,1.1,0,2.2,1,3.8,3.7,3.8s3.8-3.4,4.2-6.1Z"/>
    <path class="st7" d="M148.1,1087.7c-.2,1.4-.8,2.6-1.5,3.8-2,5.4-4.2,9.7-4.9,11.5-.6,1.6-2.1,7.4-4.4,7.4s-1.6-1.6-1.6-3c0-1.8-.3-4.8-.5-6.5-.2-2.2-.2-4.3-.3-7.8-1.2,3.6-1.9,5.7-2.8,7.8-.7,1.7-1.8,4.6-2.4,6.5-.5,1.4-1.1,3-2.5,3s-1.9-1.9-1.9-3c-.2-2.9-.5-5.8-.7-8.8-.2-3.4-.7-6.5-.7-6.9-.3-1.1-.5-2.2-.4-3.2,0-.3,0-.6,0-.8.2-1,.9-1.5,2-1.5s1.5.3,1.7,1.3l1,9c.2,2,0,4.5-.1,8.3,1.3-4.1,2.4-7.1,3.3-9.5.8-2,1.6-7.5,4.5-7.4,1.9-.2,1.9,1.5,1.8,3.4,0,1.4,0,2.6.3,3.9.2,1,.4,1.7.3,2.8,0,1.4.3,2.8.1,6,2.4-6.1,3.7-11.8,6.2-16.5.4-.7,1.2-1.3,2.1-1.3,1.3,0,1.7.4,1.6,1.5Z"/>
    <path class="st7" d="M162.9,1109.5c0,.6-1.5,1.2-2.1,1.2-2.3,0-1.6-3.4-1.4-4.9l1.7-10.6c.2-1.1,1.3-5.7-.9-5.7-4.4,0-5.5,2.9-5.9,5.9l-.9,5.4c-.4,2.5-.6,5-1,7.6-.2,1.1-1.2,1.6-2.2,1.8-1.1-.4-1.9-1.2-1.7-2.3,1.1-7.1,2-14.2,3-21.2l.5-3.7c.3-1.8.5-4.4.9-5.7.1-.5.7-.9,1.2-.9,2,0,2.8.6,2.5,2.4-.5,2.9-.9,5.7-1.4,9.1,2-1.3,3.8-1.8,5.4-1.8s3.1.1,4.1,1.1c2.2,2-.1,12.6-.5,14.9-.2,1.6-.9,6.5-1.1,7.3Z"/>
    <path class="st7" d="M183.3,1108c-.5,2.9-.7,5.8-1.1,8.7-.3,2.2-1.1,5.3-2.9,7.1-1.4,1.4-4.7,2.8-6.7,2.8-5.7,0-7.7-2.2-6.9-7.5.2-1.3.8-2.7,2.6-2.7s2.2,1,2,1.9c-.3,1.9-1.3,4.6,1.8,4.6s4.3-.8,5-2.3c1-2.2,1.6-7,2-9.3,0-.6,0-1.2.1-1.8-1.4.9-3,1.6-4.7,1.6-6.2,0-6.8-5-6-9.7l1-6c.4-2.9.6-5.7,1.1-8.5.2-1.2.8-1.9,2.2-1.9,2.5,0,2.3,1.4,2,3.2l-2.1,12.7c-.4,2.3-1.3,6.5,2.3,6.5s4.9-3.6,5.4-6.2l.8-5.2c.3-1.7.4-3.5.7-5.2l.6-4.2c.2-1.3.3-2.2,2-2.2s2.3.9,2,2.6c-.3,3.6-.8,6.8-1.3,10l-.7,4.4c-.3,2.2-.9,4.3-1.2,6.5Z"/>
    <path class="st7" d="M202.4,1108.9l3.2-21.3c.2-1.2,1.1-2.4,2.6-2.4s1.7.8,1.6,1.8l-1.6,9.8c-.6,3.8-1,7.6-1.6,11.4-.2,1.3-1.1,2.4-2.6,2.4s-1.7-.8-1.5-1.7ZM206.5,1080.3c.1-.9.7-3.6,2.2-3.6,2.4,0,2.2,3.3,2,4.9-.2,1-.6,2.3-2,2.3-2.4,0-2.5-1.5-2.2-3.5Z"/>
    <path class="st7" d="M223.5,1091.6c.2-1.3.3-2.8-1.7-2.8s-3.5.5-3.8,2c-.4,2.3,2.8,5.3,4.4,6.7,2,1.9,3.7,3.7,3.3,6.7-.6,3.6-2.6,6.8-7.1,6.8s-7.2-2.7-6.6-6.5c.2-1.2,1-2.9,2.6-2.9s1.9,1,1.7,2c-.3,2-.4,4.1,2.5,4.1s2.7-1.4,3.1-2.6c.5-3.7-4.7-6.1-6.2-9.1-.3-.6-.5-1.2-.9-1.7-.7-1.1-1-1.9-.8-3.4.2-1.5.9-3,2.5-4,1.5-.9,3.8-1.5,5.5-1.5s4.1.7,4.9,2.4c.5,1,.9,2.2.7,3.3-.2,1-.9,2.6-2.3,2.6s-1.9-1.1-1.7-2.1Z"/>
    <path class="st7" d="M252.8,1091.6c.2-1.3.3-2.8-1.7-2.8s-3.5.5-3.8,2c-.4,2.3,2.8,5.3,4.4,6.7,2,1.9,3.7,3.7,3.3,6.7-.6,3.6-2.6,6.8-7.1,6.8s-7.2-2.7-6.6-6.5c.2-1.2,1-2.9,2.6-2.9s1.9,1,1.7,2c-.3,2-.4,4.1,2.5,4.1s2.7-1.4,3.1-2.6c.5-3.7-4.7-6.1-6.2-9.1-.3-.6-.5-1.2-.9-1.7-.7-1.1-1-1.9-.8-3.4.2-1.5.9-3,2.5-4,1.5-.9,3.8-1.5,5.5-1.5s4.1.7,4.9,2.4c.5,1,.9,2.2.7,3.3-.2,1-.9,2.6-2.3,2.6s-1.9-1.1-1.7-2.1Z"/>
    <path class="st7" d="M273.2,1109.5c0,.6-1.5,1.2-2.1,1.2-2.3,0-1.6-3.4-1.4-4.9l1.7-10.6c.2-1.1,1.3-5.7-.9-5.7-4.4,0-5.5,2.9-5.9,5.9l-.9,5.4c-.4,2.5-.6,5-1,7.6-.2,1.1-1.2,1.6-2.2,1.8-1.1-.4-1.9-1.2-1.7-2.3,1.1-7.1,2-14.2,3-21.2l.5-3.7c.3-1.8.5-4.4.9-5.7.1-.5.7-.9,1.2-.9,2,0,2.8.6,2.5,2.4-.5,2.9-.9,5.7-1.4,9.1,2-1.3,3.8-1.8,5.4-1.8s3.1.1,4.1,1.1c2.2,2-.1,12.6-.5,14.9-.2,1.6-.9,6.5-1.1,7.3Z"/>
    <path class="st7" d="M292.8,1105.7c-.6,3.7-3.2,5.3-7.1,5.3s-5.7-.9-6.9-3.6c-1.1-2.5,0-8.6.4-11.5.8-4.9,2.1-10.5,8.8-10.5s6.2,2.4,6.1,6.9c0,1.4,0,3-.2,4.5-.1.9-1.7,1.8-3,1.8s-1.4-.2-2.1-.2c-2,0-4,0-5.9.1l-.5,3.9c-.5,3.3.7,4.9,4.4,4.9s1.6-1.1,2.2-2c.4-.9,1.4-1.9,2.6-1.9s1.3,1.4,1.2,2.2ZM285.4,1089.6c-1.2,1.3-1.6,2.4-1.8,3.9,0,.5-.2,1-.2,1.5h3.9s2.5,0,2.5,0c.1-1.1.8-5.1-.2-5.7-.5-.2-1.1-.4-1.7-.4s-1.9,0-2.4.7Z"/>
    <path class="st7" d="M325.5,1092.2l-1.6,10.2c-.2,1.4-.2,2.9-.4,4.4-.2,1.5-.1,3.6-2.5,3.6s-1.7-3.2-1.5-4.6l.7-4.5c.5-3.2,1.4-6.6,1.4-9.9,0-1.5-.7-2.5-2.5-2.5s-3.8,1.2-4.1,2.2c-.3.8-.5,1.6-.6,2.4-.6,3.8-1,7.6-1.6,11.4-.2,1.2-.3,5.6-2.6,5.6s-2-2.8-1.8-4.3l1.5-9.6c.3-2.1.8-4.2,1.4-6.3.8-2.7,3-3.8,5.8-4.5,1-.2,2-.3,2.9-.3,5.2,0,6.1,2.4,5.5,6.6Z"/>
    <path class="st7" d="M351.9,1095.1c.3,1.3.2,2.6,0,4-1,6.5-4.6,12-12.7,12s-11.9-5.7-10.9-12.3l.2-1.3c.8-5.4,7.5-11.9,13.8-11.9s9,4.9,9.6,9.5ZM343.8,1106.4c2.3-1.6,3.6-4.8,4-7.2.3-2.1.2-5.8-1.2-7.4-.4-.5-.8-.9-1.3-1.3-.8-.8-2.1-1.4-3.5-1.4-3.3,0-6,2.5-7.7,4.9-1.1,1.5-1.6,3.2-1.9,4.9-.7,4.5,1.8,7.6,6.5,8.4.3,0,.6,0,.9,0,1.3,0,3,0,4.2-.9Z"/>
    <path class="st7" d="M366,1104.2c1.3,0,1.6.9,1.4,2-.5,3-3.6,5-6.7,5s-4.2-1.3-5-2.8c-.6-1.2-.4-2.9-.2-4.2l2.1-14c-1.3,0-3.6,0-3.3-1.8,0-.6,1.3-2.1,2-2.1h2c0-1.7.2-3.5.5-5.2.1-.7.6-1.8,1.1-2.3.1-.5.8-.7,1.5-.7,1,0,2.2.5,2,1.5l-.7,4.3-.3,2.5c1,0,2-.1,3-.1s2.4.9,2.2,2c-.2,1-.9,1.4-1.9,1.5h-3.3c0,.1-.7.2-.7.2.2.1-1,7.6-1.3,9.5-.6,3.6-.8,3.6-.9,4.8-.1,1.9.2,3.5,1.8,3.5s2-1,2.6-2l.2-.2c.5-.6,1.1-1.1,1.9-1.1Z"/>
    <path class="st7" d="M396.7,1100.9c-.1,1.7-.4,3.4-.7,5.1-.6,4-4.1,5-7.9,5s-6.8-2.7-6.2-6.2c.5-3,2.6-6.1,6-7.2,1.6-.6,3.6-.6,5.3-1,.2-1.5,1.1-6.3,0-7.2-.2,0-.5,0-.7,0-2.7,0-4.2,2.7-6.1,2.7s-1.4-.9-1.3-1.9c.4-2.7,5.2-4.5,7.7-4.5,5.4,0,5.3,5.1,4.7,8.9-.3,2.1-.8,4.2-1,6.3ZM392.1,1105.6c.3-1.7.3-3.4.5-5-3,.2-6.2,1.1-6.7,4.3-.2,1.6,1.2,2.6,2.8,2.6s3,0,3.3-1.8Z"/>
    <path class="st7" d="M417.3,1092.2l-1.6,10.2c-.2,1.4-.2,2.9-.4,4.4-.2,1.5-.1,3.6-2.5,3.6s-1.7-3.2-1.5-4.6l.7-4.5c.5-3.2,1.4-6.6,1.4-9.9,0-1.5-.7-2.5-2.5-2.5s-3.8,1.2-4.1,2.2c-.3.8-.5,1.6-.6,2.4-.6,3.8-1,7.6-1.6,11.4-.2,1.2-.3,5.6-2.6,5.6s-2-2.8-1.8-4.3l1.5-9.6c.3-2.1.8-4.2,1.4-6.3.8-2.7,3-3.8,5.8-4.5,1-.2,2-.3,2.9-.3,5.2,0,6.1,2.4,5.5,6.6Z"/>
    <path class="st7" d="M430.9,1091.6c.2-1.3.3-2.8-1.7-2.8s-3.5.5-3.8,2c-.4,2.3,2.8,5.3,4.4,6.7,2,1.9,3.7,3.7,3.3,6.7-.6,3.6-2.6,6.8-7.1,6.8s-7.2-2.7-6.6-6.5c.2-1.2,1-2.9,2.6-2.9s1.9,1,1.7,2c-.3,2-.4,4.1,2.5,4.1s2.7-1.4,3.1-2.6c.5-3.7-4.7-6.1-6.2-9.1-.3-.6-.5-1.2-.9-1.7-.7-1.1-1-1.9-.8-3.4.2-1.5.9-3,2.5-4,1.5-.9,3.8-1.5,5.5-1.5s4.1.7,4.9,2.4c.5,1,.9,2.2.7,3.3-.2,1-.9,2.6-2.3,2.6s-1.9-1.1-1.7-2.1Z"/>
    <path class="st7" d="M462.8,1087.7c-.2,1.4-.8,2.6-1.5,3.8-2,5.4-4.2,9.7-4.9,11.5-.6,1.6-2.1,7.4-4.4,7.4s-1.6-1.6-1.6-3c0-1.8-.3-4.8-.5-6.5-.2-2.2-.2-4.3-.3-7.8-1.2,3.6-1.9,5.7-2.8,7.8-.7,1.7-1.8,4.6-2.4,6.5-.5,1.4-1.1,3-2.5,3s-1.9-1.9-1.9-3c-.2-2.9-.5-5.8-.7-8.8-.2-3.4-.7-6.5-.7-6.9-.3-1.1-.5-2.2-.4-3.2,0-.3,0-.6,0-.8.2-1,.9-1.5,2-1.5s1.5.3,1.7,1.3l1,9c.2,2,0,4.5-.1,8.3,1.3-4.1,2.4-7.1,3.3-9.5.8-2,1.6-7.5,4.5-7.4,1.9-.2,1.9,1.5,1.8,3.4,0,1.4,0,2.6.3,3.9.2,1,.4,1.7.3,2.8,0,1.4.3,2.8.1,6,2.4-6.1,3.7-11.8,6.2-16.5.4-.7,1.2-1.3,2.1-1.3,1.3,0,1.7.4,1.6,1.5Z"/>
    <path class="st7" d="M477.6,1105.7c-.6,3.7-3.2,5.3-7.1,5.3s-5.7-.9-6.9-3.6c-1.1-2.5,0-8.6.4-11.5.8-4.9,2.1-10.5,8.8-10.5s6.2,2.4,6.1,6.9c0,1.4,0,3-.2,4.5-.1.9-1.7,1.8-3,1.8s-1.4-.2-2.1-.2c-2,0-4,0-5.9.1l-.5,3.9c-.5,3.3.7,4.9,4.4,4.9s1.6-1.1,2.2-2c.4-.9,1.4-1.9,2.6-1.9s1.3,1.4,1.2,2.2ZM470.2,1089.6c-1.2,1.3-1.6,2.4-1.8,3.9,0,.5-.2,1-.2,1.5h3.9s2.5,0,2.5,0c.1-1.1.8-5.1-.2-5.7-.5-.2-1.1-.4-1.7-.4s-1.9,0-2.4.7Z"/>
    <path class="st7" d="M496.1,1088.7c-.1.8-1.2,1.7-2.1,1.7s-1.3-.3-1.8-.6c-.8-.3-1.7-.7-2.6-.7-1.7,0-2,1-2.2,2.3l-.4,2.5c-.4,2.8-.7,5.6-1.2,8.4-.3,2.1-.7,4.3-1.5,6.4-.3.9-1,1.6-2.1,1.6-2,0-1.8-1.8-1.6-3.1.5-3.1,1.1-6.2,1.6-9.3.3-2.2.5-4.3.8-6.5.6-3.6,3.6-6,7.6-6s4.3,1.3,5.4,2.7c0,0,0,.5,0,.6Z"/>
    <path class="st7" d="M496,1108.9l3.2-21.3c.2-1.2,1.1-2.4,2.6-2.4s1.7.8,1.6,1.8l-1.6,9.8c-.6,3.8-1,7.6-1.6,11.4-.2,1.3-1.1,2.4-2.6,2.4s-1.7-.8-1.5-1.7ZM500.1,1080.3c.1-.9.7-3.6,2.2-3.6,2.4,0,2.2,3.3,2,4.9-.2,1-.6,2.3-2,2.3-2.4,0-2.5-1.5-2.2-3.5Z"/>
    <path class="st7" d="M522.9,1092.2l-1.6,10.2c-.2,1.4-.2,2.9-.4,4.4-.2,1.5-.1,3.6-2.5,3.6s-1.7-3.2-1.5-4.6l.7-4.5c.5-3.2,1.4-6.6,1.4-9.9,0-1.5-.7-2.5-2.5-2.5s-3.8,1.2-4.1,2.2c-.3.8-.5,1.6-.6,2.4-.6,3.8-1,7.6-1.6,11.4-.2,1.2-.3,5.6-2.6,5.6s-2-2.8-1.8-4.3l1.5-9.6c.3-2.1.8-4.2,1.4-6.3.8-2.7,3-3.8,5.8-4.5,1-.2,2-.3,2.9-.3,5.2,0,6.1,2.4,5.5,6.6Z"/>
    <path class="st7" d="M525.4,1100.3l.9-5.9c.2-1.3.5-2.7,1.1-4,1.5-3.1,6-5,9.4-5s7,2.4,6.3,6.5c-.7,4.3-1.2,8.6-1.9,12.8l-1.1,6c-.3,2-.5,3.9-.8,5.9-.8,5-2.8,8.8-9,8.8s-5.2-.8-6.3-2.7c-1.3-2.2-.9-5.1-.5-7.7.1-.9,1-1.5,1.9-1.9,5.4,0-2,8.7,5.6,8.7s2,0,2.7-.7c.8-.7,1.6-3.5,1.7-4.4.4-2.3.5-4.7.9-7-1.4.7-2.9,1.2-4.4,1.2-6.6,0-7.3-5.9-6.5-10.7ZM530.3,1096.1l-1.1,6.4c-.1.7-.2,1.6,0,2.3.4,1.4,1.6,2.8,3.3,2.8,2.6,0,4.5-2.4,4.8-4.5.1-.7.4-1.4.6-2.2l1.1-6.3c.4-2.5.9-5.6-2.7-5.6-5.3,0-5.3,3.6-5.9,7.2Z"/>
    <path class="st7" d="M572.3,1109.5c0,.6-1.5,1.2-2.1,1.2-2.3,0-1.6-3.4-1.4-4.9l1.7-10.6c.2-1.1,1.3-5.7-.9-5.7-4.4,0-5.5,2.9-5.9,5.9l-.9,5.4c-.4,2.5-.6,5-1,7.6-.2,1.1-1.2,1.6-2.2,1.8-1.1-.4-1.9-1.2-1.7-2.3,1.1-7.1,2-14.2,3-21.2l.5-3.7c.3-1.8.5-4.4.9-5.7.1-.5.7-.9,1.2-.9,2,0,2.8.6,2.5,2.4-.5,2.9-.9,5.7-1.4,9.1,2-1.3,3.8-1.8,5.4-1.8s3.1.1,4.1,1.1c2.2,2-.1,12.6-.5,14.9-.2,1.6-.9,6.5-1.1,7.3Z"/>
    <path class="st7" d="M591.9,1105.7c-.6,3.7-3.2,5.3-7.1,5.3s-5.7-.9-6.9-3.6c-1.1-2.5,0-8.6.4-11.5.8-4.9,2.1-10.5,8.8-10.5s6.2,2.4,6.1,6.9c0,1.4,0,3-.2,4.5-.1.9-1.7,1.8-3,1.8s-1.4-.2-2.1-.2c-2,0-4,0-5.9.1l-.5,3.9c-.5,3.3.7,4.9,4.4,4.9s1.6-1.1,2.2-2c.4-.9,1.4-1.9,2.6-1.9s1.3,1.4,1.2,2.2ZM584.5,1089.6c-1.2,1.3-1.6,2.4-1.8,3.9,0,.5-.2,1-.2,1.5h3.9s2.5,0,2.5,0c.1-1.1.8-5.1-.2-5.7-.5-.2-1.1-.4-1.7-.4s-1.9,0-2.4.7Z"/>
    <path class="st7" d="M610.5,1088.7c-.1.8-1.2,1.7-2.1,1.7s-1.3-.3-1.8-.6c-.8-.3-1.7-.7-2.6-.7-1.7,0-2,1-2.2,2.3l-.4,2.5c-.4,2.8-.7,5.6-1.2,8.4-.3,2.1-.7,4.3-1.5,6.4-.3.9-1,1.6-2.1,1.6-2,0-1.8-1.8-1.6-3.1.5-3.1,1.1-6.2,1.6-9.3.3-2.2.5-4.3.8-6.5.6-3.6,3.6-6,7.6-6s4.3,1.3,5.4,2.7c0,0,0,.5,0,.6Z"/>
    <path class="st7" d="M637.5,1085.7c4.3,1.7,3.9,5.3,3.3,9.3-.3,2.2-.5,4.4-.8,6.6-.8,4.8-2.9,9.5-9.3,9.5s-2.7-.2-3.8-.6c-.4,2.7-.6,5.4-1.1,8.1-.2,1.6-.6,5.6-1.8,6.8l-.9.4c-2,0-2.4-.9-2.2-2.6.4-2.7,1.1-5.4,1.5-8.1.5-3.2.7-6.4,1.1-9.5.3-2,.5-4,.6-6,0-2.1,0-4.3.4-6.4.2-1.5.6-3.1,1.7-4.5,1.7-2.4,5.4-3.5,8.2-3.5s2.1.1,3.1.5ZM636.1,1101.1c.4-2.9.5-3.3.5-3.6.2-2.6,1.8-8.9-2.5-8.9s-3.2.6-4.3,1.4c-.8.7-1.2,2.8-1.3,3.6-.2,1.4-.3,2.7-.3,4,0,2.9-2.4,9.5,2.8,9.5s4.4-2.2,5-6.1Z"/>
    <path class="st7" d="M657.8,1109.5c0,.6-1.5,1.2-2.1,1.2-2.3,0-1.6-3.4-1.4-4.9l1.7-10.6c.2-1.1,1.3-5.7-.9-5.7-4.4,0-5.5,2.9-5.9,5.9l-.9,5.4c-.4,2.5-.6,5-1,7.6-.2,1.1-1.2,1.6-2.2,1.8-1.1-.4-1.9-1.2-1.7-2.3,1.1-7.1,2-14.2,3-21.2l.5-3.7c.3-1.8.5-4.4.9-5.7.1-.5.7-.9,1.2-.9,2,0,2.8.6,2.5,2.4-.5,2.9-.9,5.7-1.4,9.1,2-1.3,3.8-1.8,5.4-1.8s3.1.1,4.1,1.1c2.2,2-.1,12.6-.5,14.9-.2,1.6-.9,6.5-1.1,7.3Z"/>
    <path class="st7" d="M686.6,1095.1c.3,1.3.2,2.6,0,4-1,6.5-4.6,12-12.7,12s-11.9-5.7-10.9-12.3l.2-1.3c.8-5.4,7.5-11.9,13.8-11.9s9,4.9,9.6,9.5ZM678.6,1106.4c2.3-1.6,3.6-4.8,4-7.2.3-2.1.2-5.8-1.2-7.4-.4-.5-.8-.9-1.3-1.3-.8-.8-2.1-1.4-3.5-1.4-3.3,0-6,2.5-7.7,4.9-1.1,1.5-1.6,3.2-1.9,4.9-.7,4.5,1.8,7.6,6.5,8.4.3,0,.6,0,.9,0,1.3,0,3,0,4.2-.9Z"/>
    <path class="st7" d="M706.3,1092.2l-1.6,10.2c-.2,1.4-.2,2.9-.4,4.4-.2,1.5-.1,3.6-2.5,3.6s-1.7-3.2-1.5-4.6l.7-4.5c.5-3.2,1.4-6.6,1.4-9.9,0-1.5-.7-2.5-2.5-2.5s-3.8,1.2-4.1,2.2c-.3.8-.5,1.6-.6,2.4-.6,3.8-1,7.6-1.6,11.4-.2,1.2-.3,5.6-2.6,5.6s-2-2.8-1.8-4.3l1.5-9.6c.3-2.1.8-4.2,1.4-6.3.8-2.7,3-3.8,5.8-4.5,1-.2,2-.3,2.9-.3,5.2,0,6.1,2.4,5.5,6.6Z"/>
    <path class="st7" d="M723.2,1105.7c-.6,3.7-3.2,5.3-7.1,5.3s-5.7-.9-6.9-3.6c-1.1-2.5,0-8.6.4-11.5.8-4.9,2.1-10.5,8.8-10.5s6.2,2.4,6.1,6.9c0,1.4,0,3-.2,4.5-.1.9-1.7,1.8-3,1.8s-1.4-.2-2.1-.2c-2,0-4,0-5.9.1l-.5,3.9c-.5,3.3.7,4.9,4.4,4.9s1.6-1.1,2.2-2c.4-.9,1.4-1.9,2.6-1.9s1.3,1.4,1.2,2.2ZM715.8,1089.6c-1.2,1.3-1.6,2.4-1.8,3.9,0,.5-.2,1-.2,1.5h3.9s2.5,0,2.5,0c.1-1.1.8-5.1-.2-5.7-.5-.2-1.1-.4-1.7-.4s-1.9,0-2.4.7Z"/>
    <path class="st7" d="M732.3,1107.7c-.2,1.3-.8,3.5-2.7,3.5s-1.9-2.9-1.7-4.2c0-.3.2-.6.5-.8h0c.4-.7,1-1.3,2-1.3s1.7.5,2.1.9c.1.3,0,1.4-.1,1.9ZM737.6,1076.5c1.8,0,4.3,0,5.7.9,2.3,1.3,2.5,4.7,2.1,7.1-.3,2.2-1.3,3.9-3.3,5.5-2.3,1.8-4.6,3.6-7,5.3h0c-1.7,2-1.6,4.8-2.2,7.1-.5.6-1,.8-1.7.8s-.9,0-1.3-.2c-.9-.4-.7-1.4-.6-2.2,0-1.1.2-2.2.4-3.3,1.1-6.8,7.8-6.3,11.1-11.9,0,0,.1-.2.2-.2h-.1c.2-.3.3-.7.3-1,.3-2-.3-4-2.9-4s-3.8,0-5.2,1.7c-.1,1-.5,2.2-.8,3.2-.3.9-1,1.3-2,1.3s-1.7-1.4-1.6-2.4l.4-2.5c.6-3.5,5.1-5,8.4-5Z"/>
  </g>
</svg>