<?xml version="1.0" encoding="UTF-8"?><svg id="Layer_1" xmlns="http://www.w3.org/2000/svg" viewBox="0 0 1036.43 282.03"><defs><style>.cls-1{fill:#e3785a;}.cls-2{fill:#732229;}.cls-3{fill:#30797f;}.cls-4{fill:#fdf7b4;}.cls-5{fill:#dadf50;}.cls-6{fill:#de9dc0;}.cls-7{fill:#297880;}.cls-8{fill:#6c91c4;}.cls-9{fill:#4859a3;}.cls-10{fill:#dc95bb;}.cls-11{fill:#7498c5;}</style></defs><polygon class="cls-2" points="794.7 0 207.56 0 0 262.95 1035.87 262.95 794.7 0"/><rect class="cls-4" y="262.95" width="1036.43" height="19.07"/><path class="cls-6" d="M357.35,158.24v82.57h27.06v-13.58l-14.78-.64-.44-21.05,12.62-.11-.62-16.61-9.62-.11s.21-8.94,0-16.19l12.21-.26-.52-14.92-25.9.9Z"/><path class="cls-1" d="M279.59,158.24v82.57h27.06v-13.58l-14.78-.64-.44-21.05,12.62-.11-.62-16.61-9.62-.11s.21-8.94,0-16.19l12.21-.26-.52-14.92-25.9.9Z"/><path class="cls-11" d="M247.78,158.01h-14.92l-1.99,57.12v25.3h15.79l.5-40.18,6.96-1.03v41.21l13.8-.75,1.49-41.33,1.12-40.33s-14.05-.66-14.3,0-.75,26.09-.75,26.09l-7.21-.51-.5-25.58Z"/><path class="cls-3" d="M331.89,201.22c2.18-.83,4.19-2.04,6.3-3.29,5.04-3.02,8.31-7.45,10.86-12.75.94-1.96,1.88-3.95,2.36-6.08.61-2.64.5-5.41-.09-8.06-1.65-7.42-6.68-15.86-14.12-15.86,0,0-20.99.65-20.99,0-.12.68-2.49,27.42-2.49,27.42l-1.07,58.71h13.33s.06-.06.06-.08c.29-.61.22-1.61.27-2.27.12-1.58.22-3.15.3-4.73.24-4.43.44-8.86.62-13.29l13.97,22.04,10.62-7.31-19.93-34.44ZM328.88,169.26c1.62,0,3.24-.5,4.8-.01,1.56.5,2.98,1.55,3.76,3.02,1.11,2.13.72,4.74.16,7.09-.31,1.37-.7,2.76-1.5,3.9-.53.77-1.23,1.39-1.95,1.97-1.76,1.43-4.04,3.21-6.27,3.21l1-19.17Z"/><polygon class="cls-4" points="166.25 158.03 175 240.12 184.47 240.12 195 194.57 202.32 239.33 216.61 240.12 225.18 158.03 211.43 158.03 209.11 196.03 201.97 158.03 191.25 158.03 182.14 188.91 179.64 158.03 166.25 158.03"/><polygon class="cls-11" points="417.11 225 417.11 170.71 408.73 170.71 408.73 156.19 440.37 156.48 440.37 170.07 431.38 170.39 431.69 225.28 440.37 225.28 440.37 240 408.73 240.37 408.73 225.28 417.11 225"/><path class="cls-6" d="M478.53,180.08h-13.17c-.17-1.23-.66-2.32-.83-3.55-.32-2.36-.79-5-2.69-6.37-.3-.22-.66-.4-1.03-.34-.27.05-.5.23-.7.43-.92.95-1.18,2.42-.97,3.74s.85,2.53,1.53,3.67c1.8,2.99,4.01,5.7,6.08,8.5,6.61,8.98,11.81,19.37,13.01,30.54.57,5.36.15,11.02-2.48,15.69-1.29,2.28-3.06,4.24-4.94,6.04-1.48,1.41-3.1,2.77-5.04,3.34-1.55.46-3.2.38-4.8.15-6.37-.9-12.75-4.59-15.16-10.69-.61-1.53-.94-3.16-1.28-4.78-.97-4.71-1.95-9.42-2.92-14.13-.39-1.87-.74-3.97.29-5.57h13.52c-.17,5.65,1.19,11.35,3.5,16.48.59,1.31,1.76,2.82,3.1,2.34.92-.33,1.29-1.45,1.4-2.43.4-3.63-.62-7.98-1.73-11.43-1.25-3.88-3.35-7.41-5.65-10.71-1.87-2.68-3.88-5.25-5.77-7.92-4.98-7.04-8.14-15.54-6.94-24.35.41-3.02,1.38-6.03,3.26-8.39,2.31-2.9,4.51-4.09,8.03-4.82,2.93-.61,5.91-1.23,8.9-.99s6.03,1.45,7.85,3.88c1.24,1.65,1.82,3.7,2.36,5.71,1.43,5.28,2.8,10.63,3.08,16.11"/><path class="cls-7" d="M520.64,184.72c-.15-.06-.3-.14-.41-.27-.43-.5-.08-1.88-.09-2.5-.02-1.45-.19-2.89-.41-4.31-.18-1.2-.47-2.42-1.17-3.39-.7-.97-1.91-1.65-3.07-1.4-2.08.45-2.61,3.19-2.68,5.37-.48,14.95-.09,30.09,3.6,44.57.39,1.54.91,3.2,2.21,4.07,2.14-1.19,2.56-4.11,2.59-6.6.06-3.67-.17-7.35-.67-10.98l13.09-.44c.21,6.86-.25,14.17-1.33,20.94-.52,3.23-1.31,6.66-3.69,8.85-1.11,1.02-2.5,1.69-3.93,2.16-7.49,2.45-16.42-1.06-20.39-8.01-1.54-2.69-2.36-5.74-3.02-8.79-1.73-7.99-2.05-16.02-2.48-24.15-.11-2.11.17-4.32.28-6.44.22-4.2.45-8.4.46-12.61,0-3.11,0-6.25.57-9.31.89-4.82,3.19-9.37,6.53-12.89,1.38-1.45,2.98-2.76,4.88-3.31,1.36-.39,2.81-.38,4.21-.18,4.87.66,9.35,3.42,12.54,7.24,3.41,4.09,4.81,8.7,5.11,14.03.12,2.18.2,4.36.22,6.54,0,.64,0,1.25-.03,1.88-.05.87-3.57.39-4.11.42-1.53.08-3.06-.03-4.58-.14-.78-.06-1.56-.11-2.35-.15-.62-.03-1.31.06-1.89-.2Z"/><path class="cls-8" d="M567.83,155.57c-.78.27-19.91,0-19.91,0l-7.1,85.36h13.43s.96-19.09.66-18.99c.37.08,9.64-.12,9.64-.12l1.77,18.49,12.41-.07s-10.11-84.94-10.9-84.67ZM555.52,210.31l3.43-37.21,5.16,37.21h-8.59Z"/><polygon class="cls-10" points="585.87 171.99 585.87 156.5 624.49 156.5 623.28 171.99 611.38 171.99 608.22 240 593.4 238.92 595.83 171.5 585.87 171.99"/><path class="cls-5" d="M653.41,155.57c-.78.27-19.91,0-19.91,0l-7.1,85.36h13.43s.96-19.09.66-18.99c.37.08,9.64-.12,9.64-.12l1.77,18.49,12.41-.07s-10.11-84.94-10.9-84.67ZM641.11,210.31l3.43-37.21,5.16,37.21h-8.59Z"/><polygon class="cls-1" points="702.83 239.61 702.83 226.79 686.76 226.79 686.76 156.9 673.02 156.9 673.02 239.61 702.83 239.61"/><polygon class="cls-7" points="738.83 238.6 736.72 156.72 751.88 156.72 763.4 187.94 763.4 156.72 776.83 156.72 775.87 238.6 761.29 238.6 750.35 199.33 751.69 239.78 738.83 238.6"/><path class="cls-9" d="M810.98,155.57c-.78.27-19.91,0-19.91,0l-7.1,85.36h13.43s.96-19.09.66-18.99c.37.08,9.64-.12,9.64-.12l1.77,18.49,12.41-.07s-10.11-84.94-10.9-84.67ZM798.67,210.31l3.43-37.21,5.16,37.21h-8.59Z"/><rect class="cls-10" x="709.97" y="156.33" width="15.95" height="83.84"/><path class="cls-1" d="M858.05,173.51c-1.8,2.99-4.01,5.7-6.08,8.5-6.61,8.98-11.81,19.37-13.01,30.54-.09.83-.15,1.66-.19,2.5,5,.11,10,.34,15.01.35.25-2.69.97-5.48,1.73-7.85,1.25-3.88,3.35-7.41,5.65-10.71,1.87-2.68,3.88-5.25,5.77-7.92,4.98-7.04,8.14-15.54,6.94-24.35-.41-3.02-1.38-6.03-3.26-8.39-2.31-2.9-4.51-4.09-8.03-4.82-2.93-.61-5.91-1.23-8.9-.99-4.09.33-9.18.34-12.62,2.96-2.16,1.64-4.06,3.62-5.64,5.85-1.46,2.07-1.71,4.13-2.28,6.58-.16.7-2.13,10.42-1.9,10.42,0,0,12.98,0,12.98,0,.67-5,2.4-9.34,7.41-11.35,1.26-.5,2.64-.79,3.98-.58,2.67.4,4.42,2.84,3.97,5.58-.21,1.32-.85,2.53-1.53,3.67Z"/><path class="cls-1" d="M837.75,227.32c-.02.56.07,1.09.22,1.61.26.94.74,1.75,1.28,2.53.72,1.05,1.51,2.04,2.33,3,.82.96,1.67,1.89,2.54,2.8.29.31.58.67.91.93.26.21.46.5.75.68.26.17.6.23.88.09.1-.05.18-.12.26-.19.59-.51,1.12-1.07,1.65-1.65.73-.79,1.45-1.58,2.15-2.4.7-.82,1.38-1.65,2.02-2.51.48-.64.94-1.29,1.34-1.99.24-.41.43-.84.59-1.29.13-.36.22-.74.28-1.11.07-.37.06-.75.04-1.12-.03-.94-.33-1.78-.86-2.52-.59-.84-1.37-1.43-2.31-1.78-.62-.23-1.26-.33-1.91-.26-.69.07-1.34.29-1.92.71-.66.47-1.16,1.09-1.53,1.82-.02.04-.03.09-.08.09-.05,0-.06-.04-.08-.08-.44-.87-1.05-1.56-1.91-2-.36-.19-.74-.3-1.15-.36-.23-.03-.46-.06-.69-.05-.36,0-.7.08-1.05.16-.49.12-.95.32-1.38.6-.94.6-1.64,1.42-2.06,2.49-.23.59-.35,1.19-.33,1.81Z"/></svg>