<?xml version="1.0" encoding="UTF-8"?><svg id="Layer_1" xmlns="http://www.w3.org/2000/svg" viewBox="0 0 201.04 171.6"><defs><style>.cls-1{fill:#f5e9e3;}.cls-2{fill:#894230;isolation:isolate;}.cls-3{fill:#a07e52;}.cls-4{fill:#9b5131;}.cls-5{fill:#794333;}.cls-6{fill:#efefee;}.cls-7{fill:#333;}</style></defs><path class="cls-3" d="M196.02,119.06c-.41-1.23-1.17-2.32-1.97-3.33-1.68-2.14-3.65-4.1-6.03-5.4s-5.23-1.89-7.87-1.23c-4.43,1.12-7.27,5.35-9.36,9.41-3.93,7.65-3.13,18.61,7.73,16,6.57-1.58,20.76-5.63,17.49-15.46Z"/><path class="cls-4" d="M75.87,154.84c-4.22-6.99-6.85-14.94-7.31-23.1-.42-7.38.81-15.29,5.04-21.5,3.47-5.08,8.59-8.52,13.61-11.91,4.24-2.86,9.49-5.22,12.92-9.12,3.13-3.56.96-8.85,3.94-12.16.59-.66,1.38-1.12,1.94-1.8,2.14-2.59.14-6.87,1.95-9.69.8-1.24,2.24-2.01,2.85-3.36,1.24-2.73-1.6-5.68-1.47-8.68.08-1.91,1.36-3.54,1.92-5.37.92-2.97-.42-5.8-.36-8.77.06-3.16.22-5.45-1.65-8.29-1.94-2.95-4.5-5.55-5.78-8.83-.86-2.21-1.14-4.73-2.64-6.58-3.34-4.15-10.55-2.6-14.37-6.31-1.49-1.44-2.29-3.55-3.99-4.74-3.35-2.34-8.01-.98-11.73-2.12S63-1.51,58.87-.19c-2.02.65-3.61,2.26-5.61,2.96-3.55,1.25-7.63-.58-11.17.67-2.95,1.04-4.9,3.99-7.82,5.11-2.63,1.01-5.98.51-7.92,2.55-1.34,1.41-1.54,3.6-2.81,5.08-1.76,2.04-4.8,1.78-6.69,3.54-1.4,1.31-2.57,3.96-3.65,5.57-.17.26-.28.42-.53.44-.04.4-.25.64-.46.96-.1.16-.13.38-.38.43-.01.19-.16.56-.32.66-2.32,1.53-3.85,7.16-3.46,9.8.31,2.13,3.52,7.21,6.05,7.93s7.37-1.96,10.28-2.05c5.2-.17,10.04,1.84,13.28,6.01.26.34.64.6.6,1.01.1.05.17.21.22.28.21.11.26.29.38.48l.74,1.22c.87,1.43,1.41,3.07,1.83,4.69.03.1-.06.3-.06.39.37.28.64,2,.59,2.65-.01.18,0,.54.08.7.22.44.09.93.11,1.41l.03.76c.12,3.07-.49,6.17-1.62,9.04.04.13.04.41,0,.55l-.67,1.76-.18.59c-1.06,2.56-2.04,5.23-3.49,7.55-.08.12-.16.3-.17.5,0,.21-.14.41-.35.46l-.09.5c-.04.22-.13.4-.37.46.01.1-.04.22-.07.31-.04.16-.15.27-.22.41l-.2.37c-.39,1.12-1.03,2.14-1.57,3.29l-2.76,5.92c-.07.16-.21.25-.3.29l-.1.48c-.05.24-.1.41-.24.59-.11.13-.14.4-.2.57-.9,2.45-1.88,4.87-2.55,7.49-.09.36-.08.69-.39.87.04.15.03.37,0,.53-.09.47-.14,1.01-.46,1.37v.59c-.3,1.53-.72,3.03-.69,4.72,0,.17-.13.34-.26.38l-.11,2.32-.06,1.81.05,2.59-.04.41.34,2.34-.04.41.7,4.36c.01.1.05.29.02.38l1.13,4.25c.05.21.17.57.09.77.25.08.27.4.25.61l-.04.37s.25.04.29.14c.5,1.6.99,3.13,1.64,4.59-.05.17.02.33,0,.47.25.11.35.37.48.68l1.09,2.43c1.1,2.47,2.68,4.66,4.17,6.87.38.16.56.6.83.95l1.3,1.64,2.63,2.86c.05.06.11.16.19.2.36.17.63.47.82.82.51.23.85.69,1.26,1.07.13.12.39.18.4.46.28.01.39.26.54.42.1.1.39.12.36.4.24-.05.38.13.55.21.53.27,1.1.56,1.33,1.14l.23.12c.18.1.36.2.43.4.08.03.18.06.27.06,2.51,1.59,4.99,3.2,7.76,4.55.3.15.77.06.66.53h.39c.23-.02.43.12.47.36l1.25.49,3.69,1.4.59.19,3.28.9c.51.14,1.05.09,1.39.46.22-.05.51.02.72.02.41,0,.84.02,1.3.17,1.32.42,2.65.39,4.03.52,2.91.27,5.7.34,8.49.05.21-.02.58.05.78.1.55-.29,1.2-.27,1.81-.31.15-.01.38.08.54.01.48-.2,1.04-.15,1.62-.25l1.84-.33c-4.34-3.79-8.09-8.26-11.07-13.2Z"/><path class="cls-2" d="M168.03,161.74c-1.21-1.56-2.73-2.88-4.47-3.82-1.73-.94-3.66-1.49-5.62-1.65-2.41-.19-4.75.43-7.15.54-.43.02-.98-.06-1.09-.47-.06-.2.03-.41.11-.61.73-1.7,2.14-3.17,3.04-4.82.48-.87.91-1.77,1.29-2.68.31-.73.98-1.88.98-2.68,1.11-3.57,1.66-7.08,1.66-10.81v-2.19l-.16-3.63s-.16-3.22-.16-3.22c-.8-8.11-1.46-16.22-2.09-24.35-.11-1.4-.21-2.82.1-4.19.97-4.23,3.62-3.82,2.47-8.71-.94-4-3.63-7.71-6.68-10.39-4.42-3.88-10.04-6.15-15.74-7.59-4.5-1.13-10.53-2.5-15.14-1.26-4.19,1.12-6.61,4.68-10.22,7.24-7.94,5.61-17.24,8.87-25.99,12.94-12.25,5.69-22.01,16.35-25.12,29.69-3.22,13.84,1.4,29.36,12.06,38.76,10.3,9.08,27.46,13.7,41.03,13.7,2.79,0,5.58,0,8.37,0,3.78,0,7.57,0,11.35,0,4.07,0,8.14,0,12.21,0h10.95c2.53,0,5.05,0,7.57,0,.69,0,1.63.14,2.24-.25.99-.63-.3-1.79.38-2.59.15-.17.4-.35.76-.35,1.51,0,3.9.43,5.12-.69,1.08-.98.05-2.41-.44-3.37-.46-.91-1-1.78-1.63-2.58Z"/><path class="cls-3" d="M144.46,80.28c.13.25.39,0,.15-.14l-.15.14Z"/><path class="cls-3" d="M156.78,132.56v2.19c0,3.72-.55,7.23-1.66,10.81-1.43,4.61-3.91,8.57-7.23,12.15-.89.96-1.56,1.92-2.76,2.4-.09.04-.19.07-.28.11-.26.08-.59-.14-.36-.45.2-.28.4-.57.59-.86.74-1.11,1.43-2.26,2.04-3.43.01-.02.02-.05.04-.07.24-.46.47-.92.68-1.39.98-2.1,1.73-4.3,2.2-6.57,0-.01,0-.02,0-.03.05-.24.1-.48.14-.73.05-.25.09-.51.13-.76.04-.22.06-.44.09-.66,0-.04,0-.07.01-.11.03-.23.06-.46.07-.69,0-.05,0-.09.01-.14.02-.24.04-.47.06-.71l.18-2.98-.17-2.78c-.41-6.74-3.21-12.88-7.58-18.05,0,0,.91.08,1.83.17.22.02.45.04.66.06.06,0,.11.01.17.02l.3.03c.42.04.71.06.71.06.28.03.56.04.84.06.4.02.8.02,1.19.01,1.48-.04,2.93-.27,4.35-.66.09-.02.18-.05.27-.07.06-.02.13-.04.19-.06.57-.17,1.14-.37,1.71-.59.37-.15.61.3.64.6l.62,6.29.16,3.22.16,3.63Z"/><path class="cls-6" d="M156.78,132.56v2.19c0,3.72-.55,7.23-1.66,10.81-1.43,4.61-3.91,8.57-7.23,12.15-.89.96-1.56,1.92-2.76,2.4-.03-.02-.06-.04-.08-.07-.2-.24-.15-.65.02-1.13.44-1.2,1.69-2.83,2.04-3.43.01-.02.02-.05.04-.07.24-.46.46-.92.68-1.39.97-2.1,1.73-4.31,2.2-6.57,0-.01,0-.02,0-.03.05-.24.09-.48.14-.73.05-.26.09-.51.13-.76.03-.22.06-.44.09-.66,0-.04,0-.07.01-.11.03-.23.06-.46.07-.69,0-.05,0-.09.01-.14.02-.24.04-.47.06-.71l.18-2.98-.17-2.78c-.41-6.74-3.21-12.88-7.58-18.05,0,0,.91.08,1.83.17.22.02.45.04.66.06.06,0,.11.01.17.02.11,0,.2.02.3.03.42.04.71.06.71.06.28.03.56.04.84.06.39.02.79.02,1.19.01,1.47-.03,2.94-.25,4.35-.66.09-.02.18-.05.27-.07.06-.02.13-.04.19-.06.57-.17,1.14-.37,1.71-.59.37-.15.61.3.64.6l.62,6.29.16,3.22.16,3.63Z"/><path class="cls-2" d="M187.86,119.32c1.37-2.36,1.28-5.46-.2-7.73-.71-1.08-1.43-1.56-2.53-2.17-1.59-.88-2.45-1.87-3.66-3.21-.87-.97-1.95-1.78-3.19-2.18-1.24-.41-2.64-.39-3.8.19-2.01,1-3.29,2.33-5.69,1.76-1.31-.31-3.55-1.1-5.31-2.11-.21.05-.44.03-.67-.11-2.55-1.58-4.34-3.98-6.55-5.97-1.95-1.76-4.16-2.74-6.78-2.89-4.59-.25-9.89,1.91-11.99,6.21-.11.23-.29.37-.48.45-1.62,3.68-1.32,7.75.39,11.53,1.56,3.46,4.15,6.43,7.36,8.46s6.68,2.25,10.39,3.07c.23.05.62-.18.83.11.19-.13.4-.07.6-.07l3.75.05c.36-.24.78-.3,1.17-.18l.23-.04c.43-.08.87-.17,1.31-.11.15-.13.35-.14.52-.04.33-.23.74-.31,1.12-.18.05-.07.1-.18.14-.25.26-.09.52-.13.79-.08.12-.14.36-.1.5-.13l1.42-.28c.2-.04.32-.07.52,0,.58-.31,1.35-.19,1.99-.14.08.01.23.1.3.16.63-.13,1.38.11,1.92.47l1.13.76c1.4.95,2.72,1.85,4.44,1.88.24-.25.61-.07.85-.1.12-.3.46-.28.77-.41,1.29-.52,2.31-1.54,3.05-2.72.83-1.3,3.87-1.45,5.34-3.99Z"/><path class="cls-2" d="M183.94,74.02c-.03-.53-.02-1.11-.13-1.61l-.51-2.36-.52-1.46-.59-1.41s-.51-1.09-.51-1.09c-.45-.97-.88-1.95-1.21-2.97s-.41-1.99-.71-2.97c-.39-1.3-.62-2.74-.81-4.08-.22-1.5-.74-2.89-.33-4.42.16-.61.14-1.2.32-1.8.51-1.73.74-3.52.96-5.3l.13-1.87c.08-1.19.14-2.31-.01-3.5l-.27-2.12-.33-2.44c-.1-.71-.17-1.34-.35-2.04l-.52-1.94-.52-1.44c-.55-1.53-.96-3.47-2.07-4.7-.49-.54-1.13-.57-1.8-.65-.73-.09-1.32.2-1.87.66-.6.5-1.25.97-1.72,1.59-.16.22-.33.43-.49.65-.78,1.03-1.61,2.01-2.23,3.14l-1.15,2.21c-.39.75-.7,1.46-.99,2.26,0,0-.48,1.33-.48,1.33-.04.68-.5,1.47-.81,2.07-.42.82-1.45.24-2.08.03-2.38-.76-4.93-1.2-7.43-1.38-2.89-.21-5.79-.04-8.62.52-1.63.32-3.13.79-4.72,1.28-.19.06-.34.29-.55.22-.62-.19-.88-1.26-1.19-2.17l-.56-1.69-.59-1.41s-.75-1.46-.75-1.46c-1.08-2.11-1.84-4.11-3.68-5.7-.87-.75-1.64-1.6-2.7-2.02-.52-.21-1.25-.26-1.61.01-.85.62-1.35,1.28-1.81,2.14-.16.31-.34.56-.47.91-1.24,3.19-2.19,6.51-2.51,9.93-.19,2.14-.26,4.21-.25,6.37.02,2.6.48,5.19,1.24,7.67.53,1.73.19,3.34-.18,5.06-.37,1.69-.51,3.45-.9,5.13-.35,1.5-1.04,2.91-1.61,4.34-.53,1.35-1.23,2.64-1.68,4.01-.53,1.65-.91,3.35-1.07,5.07-.29,3.17.47,6.56,2.66,8.86,3.35,3.51,8.6,4.01,12.79,6,2.69,1.28,5.16,2.63,7.98,3.61.23.08,1.82.64,1.82.64l1.39.45c1.12.36,2.13.58,3.33.58.77,0,1.55.2,2.37.1,1.63-.2,3.11-.46,4.7-.89.63-.17,1.27-.35,1.9-.52,1.16-.32,2.27-.71,3.41-1.1.45-.15.83-.32,1.29-.46.73-.22,1.46-.49,2.2-.66,2.33-.52,4.53-.79,6.75-1.7l1.18-.55c.64-.3,1.71-.89,2.26-1.27,0,0,2.08-1.42,2.08-1.42,3.79-2.58,5.4-7.93,5.14-12.29Z"/><path class="cls-1" d="M142.88,90.12c-2.09-1.33-3.74-3.26-4.64-5.74-1.16-3.21-.14-8.37,3.01-10.2,1-.58,2.18-1.09,3.36-.99,1.3.11,2.29.97,3.46,1.42,1.35.52,2.83.82,4.24.5.88-.2,1.68-.62,2.51-.96,3.58-1.44,8-1.67,10.41,1.84,1.76,2.57,2.09,6.05.84,8.9-1.51,3.45-4.69,5.69-8.24,6.68-3.06.85-6.55,1-9.68.51-1.91-.3-3.71-.96-5.28-1.96Z"/><path class="cls-3" d="M131.98,45.15l-.91,1.41c-.44.68-.85,1.56-1.52,2.04-.78.55-1.41-.6-1.82-1.68-.89-2.33-1.28-4.71-1.11-7.23.13-2.03.57-4.18,1.04-6.17.18-.76.39-1.5.62-2.25.23-.73.79-2.41,1.74-2.51s1.65,1.26,1.95,1.96c.59,1.34.81,2.57,1.07,3.97.27,1.48.62,2.94.69,4.45.05.98.43,3-.2,3.85l-1.01,1.36c-.19.26-.32.5-.52.81Z"/><path class="cls-1" d="M140.04,63.29c.08,1.47.6,4.17-.99,5.04-.42.23-.9.31-1.36.41-2.47.55-5.15,1.69-7.56.24-.61-.37-1.04-.97-1.43-1.56-1.16-1.73-1.05-3.49-.89-5.5.14-1.88.49-3.81,1.44-5.46.18-.31.37-.62.54-.95,1.02-2.02,2.98-2.27,4.93-1.48,1.73.7,2.92,2.21,3.85,3.77.98,1.64,1.37,3.6,1.47,5.49Z"/><path class="cls-5" d="M138.55,66.4c0,.39-.07.66-.23.69-1.06.18-2.07.35-3.14.43s-2.1.16-3.07-.22c-.57-.22-.91-.68-1.27-1.1-1.69-1.95-1.7-5.74.04-7.64.36-.4,1.01-.83,1.54-.95,3.38-.73,5.16,3.3,5.75,5.91.07.31.4,1.94.38,2.89ZM133.39,61.97c.69.17,1.29-.24,1.51-.76.26-.62,0-1.23-.46-1.58-.53-.4-1.23-.35-1.71.09-.42.38-.6.86-.4,1.41.13.36.53.7,1.07.83Z"/><path class="cls-7" d="M138.55,66.4c0,.39-.07.66-.23.69-1.06.18-2.07.35-3.14.43s-2.1.16-3.07-.22c-.57-.22-.91-.68-1.27-1.1-1.69-1.95-1.7-5.74.04-7.64.36-.4,1.01-.83,1.54-.95,3.38-.73,5.16,3.3,5.75,5.91.07.31.4,1.94.38,2.89ZM133.39,61.97c.69.17,1.29-.24,1.51-.76.26-.62,0-1.23-.46-1.58-.53-.4-1.23-.35-1.71.09-.42.38-.6.86-.4,1.41.13.36.53.7,1.07.83Z"/><path class="cls-5" d="M160.19,86.56c-1.47.47-3.11.57-4.62.24-.62-.13-1.22-.4-1.67-.84-.7-.7-.63-1.61-.69-2.52-.04-.57-.19-1.67.36-2.08.23-.17.51-.24.79-.32.73-.21,1.41-.56,2.08-.92,1.74-.95,3.02-2.51,3.32-4.51,0,0,.25-1.62.25-1.62.15-1-.47-1.9-1.24-2.52-.68-.55-1.5-.89-2.34-1.11-1.74-.45-3.73-.25-5.49.06-1.35.24-2.71.61-3.93,1.27-.55.3-1.09.66-1.51,1.12-.15.17-.26.38-.34.59-.32.88-.16,1.92.07,2.8.28,1.02.69,2.08,1.4,2.88.47.53,1.09.92,1.72,1.24.64.33,1.3.6,1.98.83.33.11,1.04.22,1.04.71l-.02,2.93c0,.82-1.04,1.58-1.83,1.82-1.5.45-3.17.38-4.66-.06-.29-.08-.67-.27-.98-.2s-.27.44-.11.65c.18.24.52.39.77.56.31.2.7.34,1.04.48.66.28,1.33.54,2.02.74.51.15,1.03.21,1.56.28,1.01.12,2,.22,3.02.21,1.03-.01,2.07-.09,3.09-.24,1.48-.21,2.84-.76,4.23-1.28.27-.1,1.97-.66,1.55-1.19-.05-.06-.21-.08-.29-.09-.19-.02-.38.02-.56.08ZM153.02,81.9c0-.19.06-.35.16-.48-.09.13-.16.29-.16.48Z"/><path class="cls-1" d="M164.56,63.29c-.08,1.47-.6,4.17.99,5.04.42.23.9.31,1.36.41,2.47.55,5.15,1.69,7.56.24.61-.37,1.04-.97,1.43-1.56,1.16-1.73,1.05-3.49.89-5.5-.14-1.88-.49-3.81-1.44-5.46-.18-.31-.37-.62-.54-.95-1.02-2.02-2.98-2.27-4.93-1.48-1.73.7-2.92,2.21-3.85,3.77-.98,1.64-1.37,3.6-1.47,5.49Z"/><path class="cls-3" d="M172.42,45.15l.91,1.41c.44.68.85,1.56,1.52,2.04.78.55,1.41-.6,1.82-1.68.89-2.33,1.28-4.71,1.11-7.23-.13-2.03-.57-4.18-1.04-6.17-.18-.76-.39-1.5-.62-2.25-.23-.73-.79-2.41-1.74-2.51s-1.65,1.26-1.95,1.96c-.59,1.34-.81,2.57-1.07,3.97-.27,1.48-.62,2.94-.69,4.45-.05.98-.43,3,.2,3.85l1.01,1.36c.19.26.32.5.52.81Z"/><path class="cls-7" d="M166.43,63.51c.59-2.61,2.37-6.63,5.75-5.91.53.12,1.18.55,1.54.95,1.74,1.9,1.72,5.69.04,7.64-.37.42-.7.88-1.27,1.1-.97.38-2.05.29-3.07.22-1.07-.07-2.09-.24-3.14-.43-.16-.03-.22-.3-.23-.69-.01-.95.31-2.59.38-2.89ZM172.28,61.14c.2-.55.01-1.03-.4-1.41-.48-.44-1.19-.49-1.71-.09-.46.35-.72.96-.46,1.58.22.52.81.93,1.51.76.54-.13.94-.47,1.07-.83Z"/></svg>