<?xml version="1.0" encoding="UTF-8"?><svg id="Layer_1" xmlns="http://www.w3.org/2000/svg" viewBox="0 0 201.04 171.6"><defs><style>.cls-1{fill:#894230;isolation:isolate;}.cls-2{fill:#a07e52;}.cls-3{fill:#9b5131;}.cls-4{fill:#efefee;}.cls-5{fill:#333;}</style></defs><path class="cls-2" d="M198.63,98.31c-.91-.93-2.06-1.57-3.23-2.13-2.45-1.18-5.08-2.08-7.79-2.2s-5.53.6-7.61,2.36c-3.48,2.95-4.18,8-4.26,12.57-.16,8.6,5.37,18.09,13.98,10.97,5.21-4.31,16.17-14.19,8.91-21.57Z"/><path class="cls-3" d="M74.44,154.3c-4.61-6.74-7.68-14.53-8.6-22.65-.83-7.34-.05-15.32,3.82-21.75,3.17-5.27,8.09-8.99,12.91-12.66,4.08-3.1,9.18-5.75,12.39-9.83,2.93-3.73.46-8.89,3.25-12.37.55-.69,1.31-1.19,1.83-1.91,1.99-2.71-.25-6.86,1.4-9.78.73-1.28,2.12-2.14,2.66-3.51,1.09-2.8-1.92-5.58-1.96-8.58-.03-1.91,1.15-3.61,1.62-5.47.75-3.02-.75-5.77-.86-8.74-.11-3.15-.09-5.45-2.12-8.18-2.11-2.83-4.8-5.28-6.27-8.5-.99-2.16-1.41-4.66-3-6.42-3.57-3.95-10.68-2-14.7-5.49-1.57-1.36-2.48-3.42-4.25-4.5-3.48-2.14-8.05-.53-11.83-1.46s-7.96-3.57-12.01-2.01c-1.98.76-3.48,2.46-5.43,3.28-3.47,1.45-7.65-.15-11.12,1.3-2.89,1.2-4.66,4.26-7.52,5.54-2.57,1.15-5.94.85-7.77,2.99-1.26,1.48-1.33,3.69-2.52,5.23-1.64,2.14-4.7,2.05-6.48,3.91-1.33,1.38-2.34,4.09-3.33,5.77-.16.27-.26.43-.5.47-.02.4-.21.66-.4.98-.09.16-.11.39-.36.45,0,.19-.13.57-.28.68-2.23,1.65-3.44,7.37-2.9,9.98.43,2.11,3.92,7,6.49,7.57s7.25-2.37,10.15-2.63c5.18-.46,10.13,1.27,13.6,5.25.28.33.67.57.65.98.11.04.18.2.24.27.22.1.27.27.4.46l.81,1.18c.95,1.38,1.58,2.98,2.1,4.58.03.1-.04.3-.04.39.39.26.76,1.96.74,2.61,0,.19.03.54.12.69.24.43.14.92.19,1.4l.07.75c.29,3.05-.14,6.19-1.11,9.12.05.13.07.41.02.55l-.57,1.8-.15.6c-.91,2.62-1.74,5.34-3.06,7.74-.07.13-.15.31-.14.51,0,.21-.11.42-.33.48l-.06.5c-.03.22-.11.41-.34.48.02.1-.03.22-.05.32-.03.17-.13.28-.2.42l-.18.38c-.33,1.14-.91,2.2-1.38,3.38l-2.42,6.06c-.06.17-.19.26-.28.31l-.07.49c-.04.24-.07.41-.21.61-.1.14-.11.41-.17.58-.76,2.5-1.6,4.96-2.12,7.62-.07.37-.04.69-.34.89.05.15.06.37.04.52-.06.48-.08,1.01-.38,1.39l.02.59c-.2,1.55-.54,3.06-.42,4.75.01.17-.11.34-.24.39l.02,2.32.04,1.81.19,2.58-.02.41.47,2.32-.02.41.94,4.31c.02.09.06.28.04.38l1.36,4.18c.06.21.2.56.13.77.25.06.29.38.28.59l-.02.37s.26.02.3.12c.59,1.57,1.17,3.07,1.9,4.49-.04.17.04.33.04.47.25.09.37.35.52.65l1.23,2.36c1.24,2.4,2.94,4.5,4.55,6.62.39.13.59.57.89.9l1.39,1.56,2.79,2.7c.06.06.12.16.2.19.37.15.66.43.87.77.52.21.89.64,1.32,1,.13.11.4.16.42.43.28,0,.4.24.56.39.11.1.39.1.38.38.24-.06.39.11.56.18.54.24,1.13.5,1.39,1.06l.24.11c.19.09.37.18.45.37.08.02.18.05.28.04,2.59,1.45,5.16,2.91,8.01,4.11.3.13.77.02.69.49l.39-.04c.23-.02.44.11.49.35l1.28.41,3.77,1.19.6.16,3.32.71c.51.11,1.06.03,1.41.38.21-.06.51,0,.72-.02.41-.02.84-.02,1.31.1,1.34.35,2.67.24,4.05.29,2.92.1,5.71.02,8.48-.43.21-.04.58.02.78.06.53-.32,1.18-.33,1.79-.41.15-.02.38.06.54-.02.47-.22,1.03-.2,1.6-.34l1.82-.44c-4.55-3.54-8.54-7.79-11.8-12.55Z"/><path class="cls-1" d="M168.03,161.74c-1.21-1.56-2.73-2.88-4.47-3.82-1.73-.94-3.66-1.49-5.62-1.65-2.41-.19-4.75.43-7.15.54-.43.02-.98-.06-1.09-.47-.06-.2.03-.41.11-.61.73-1.7,2.14-3.17,3.04-4.82.48-.87.91-1.77,1.29-2.68.31-.73.98-1.88.98-2.68,1.11-3.57,1.66-7.08,1.66-10.81v-2.19l-.16-3.63s-.16-3.22-.16-3.22c-.8-8.11-1.46-16.22-2.09-24.35-.11-1.4-.21-2.82.1-4.19.4-1.75,1.53-3.28,3.02-4.27.71-.47,1.57-.65,2.25-1.14s.92-1.45,1.91-1.57c8.36-1.05,15.55-3.2,22.54-7.99,1.7-1.46,3.02-3.4,3.23-5.59l-.02-1.96c-.2-.17-.16-.43-.19-.61l-.24-1.33-2.18-7.52c-.16-.56-.55-1.11-.58-1.7-.17-.07-.29-.21-.37-.45-1.8-4.63-4.26-8.81-7.31-12.62-.13-.1-.24-.22-.29-.43-.41-.12-.61-.53-.93-.88l-2.05-2.29c-.1,0-.22-.02-.31-.06-.24-.09-.36-.32-.54-.48l-.37-.34c-2.5-2.02-5.21-3.72-8.09-5.14-1.8-.89-3.76-1.6-5.67-2.18-.23.02-.45-.08-.61-.2-.09-.06-.3-.13-.42-.16-1.53-.24-2.92-.4-3.42-1.74l-1.88-5.04c-.03-.08-.03-.23-.03-.32-.43-.13-.48-.64-.57-1.04-.02-.08-.09-.22-.07-.3-.19-.09-.31-.27-.34-.46l-.03-.11c-.22-.09-.3-.29-.35-.51l-.07-.32c-.5-.44-.91-1.04-1.09-1.69-.33-.09-.58-.56-.6-.87-.31,0-.36-.3-.45-.43l-.37-.56-3.95-3.91c-.5-.49-1.15-.58-1.73-.5l-.18.24-.76,1.37c-.46.84-1.43.84-2.16.33l-2.21-1.54c-.56-.39-1.43-.47-1.84.15l-2.73,4.11c-.21.31-.45.76-.64,1.11-.61,1.15-1.21,2.27-1.6,3.59-.06.21-.28.36-.43.42l-.19,1.05c-.76,2.49-.84,5.06-.61,7.66v.45c.32,1.9.89,3.75,1.68,5.6.45,1.05-1.51,2.36-2.71,4.65-.13.26-.29.41-.53.41-.02.06,0,.17.06.24l-2.57,5.53c-.1.21-.31.33-.45.35-.01.15-.11.28-.17.39.01.26.02.56-.11.88l-.89,2.29c-.1.25-.23.37-.43.37,0,.05,0,.15.01.2.06.28-.04.59-.34.63l-.03.3c-1.3,3.02-3.3,5.63-5.45,8.21-8.4,10.04-22.31,14.64-33.83,19.99-12.25,5.69-22.01,16.35-25.12,29.69-3.22,13.84,1.4,29.36,12.06,38.76,10.3,9.08,27.46,13.7,41.03,13.7,2.79,0,5.58,0,8.37,0,3.78,0,7.57,0,11.35,0,4.07,0,8.14,0,12.21,0h10.95c2.53,0,5.05,0,7.57,0,.69,0,1.63.14,2.24-.25.99-.63-.3-1.79.38-2.59.15-.17.4-.35.76-.35,1.51,0,3.9.43,5.12-.69,1.08-.98.05-2.41-.44-3.37-.46-.91-1-1.78-1.63-2.58Z"/><path class="cls-2" d="M167.14,66.43c1.1-.22,2.29-.73,2.5-1.86.24-1.31-.16-2.6-.31-3.92-.46-4.18-3.35-8.22-7.7-8.81-1.02-.14-2.18-.28-3.14,0l-4.52,1.35c-1.78.53-1.49,3.13-1.1,5.43.17,2.5,1,4.98,2.92,6.7s4.4,2.48,6.84,2l4.51-.89Z"/><path class="cls-2" d="M144.72,80.55l2.94,2.74c2.69,2.51,4.61,7.2,6.02,7.77l3.66,1.46c.56.22.97-.7.99-1.08.11-1.99,1.58-3.09,3.43-3.31l7.77-.9c.41-.05,1.13.09,1.12-.59,0-.36-.44-.95-.2-1.47l3.4-.12c2.46-.44,4.83-1.29,6.77-2.86.98-.79-1.43-2.86-.97-5.14.55-2.74,4.1-1.76,5.09-2.96.49-.59.02-2.01-.49-3.1-1.06-.29-2.11.03-3.15.21-4.3.76-8.39,2.85-11.45,5.92-2.29,2.3-5.04,3.6-8.22,4.24-5.6,1.12-11.22.64-16.58-1.1-.01.13-.07.19-.11.29Z"/><path class="cls-2" d="M144.46,80.28c.13.25.39,0,.15-.14l-.15.14Z"/><path class="cls-2" d="M156.78,132.56v2.19c0,3.72-.55,7.23-1.66,10.81-1.43,4.61-3.91,8.57-7.23,12.15-.89.96-1.56,1.92-2.76,2.4-.09.04-.19.07-.28.11-.26.08-.59-.14-.36-.45.2-.28.4-.57.59-.86.74-1.11,1.43-2.26,2.04-3.43.01-.02.02-.05.04-.07.24-.46.47-.92.68-1.39.98-2.1,1.73-4.3,2.2-6.57,0-.01,0-.02,0-.03.05-.24.1-.48.14-.73.05-.25.09-.51.13-.76.04-.22.06-.44.09-.66,0-.04,0-.07.01-.11.03-.23.06-.46.07-.69,0-.05,0-.09.01-.14.02-.24.04-.47.06-.71l.18-2.98-.17-2.78c-.41-6.74-3.21-12.88-7.58-18.05,0,0,.91.08,1.83.17.22.02.45.04.66.06.06,0,.11.01.17.02l.3.03c.42.04.71.06.71.06.28.03.56.04.84.06.4.02.8.02,1.19.01,1.48-.04,2.93-.27,4.35-.66.09-.02.18-.05.27-.07.06-.02.13-.04.19-.06.57-.17,1.14-.37,1.71-.59.37-.15.61.3.64.6l.62,6.29.16,3.22.16,3.63Z"/><path class="cls-4" d="M156.78,132.56v2.19c0,3.72-.55,7.23-1.66,10.81-1.43,4.61-3.91,8.57-7.23,12.15-.89.96-1.56,1.92-2.76,2.4-.03-.02-.06-.04-.08-.07-.2-.24-.15-.65.02-1.13.44-1.2,1.69-2.83,2.04-3.43.01-.02.02-.05.04-.07.24-.46.46-.92.68-1.39.97-2.1,1.73-4.31,2.2-6.57,0-.01,0-.02,0-.03.05-.24.09-.48.14-.73.05-.26.09-.51.13-.76.03-.22.06-.44.09-.66,0-.04,0-.07.01-.11.03-.23.06-.46.07-.69,0-.05,0-.09.01-.14.02-.24.04-.47.06-.71l.18-2.98-.17-2.78c-.41-6.74-3.21-12.88-7.58-18.05,0,0,.91.08,1.83.17.22.02.45.04.66.06.06,0,.11.01.17.02.11,0,.2.02.3.03.42.04.71.06.71.06.28.03.56.04.84.06.39.02.79.02,1.19.01,1.47-.03,2.94-.25,4.35-.66.09-.02.18-.05.27-.07.06-.02.13-.04.19-.06.57-.17,1.14-.37,1.71-.59.37-.15.61.3.64.6l.62,6.29.16,3.22.16,3.63Z"/><path class="cls-4" d="M144.83,80.26c5.36,1.74,10.98,2.22,16.58,1.1,3.17-.64,5.93-1.94,8.22-4.24,3.05-3.07,7.14-5.16,11.45-5.92,1.04-.18,2.09-.51,3.15-.21.51,1.09.98,2.51.49,3.1-.99,1.2-4.54.21-5.09,2.96-.46,2.28,1.95,4.34.97,5.14-1.94,1.57-4.31,2.43-6.77,2.86l-3.4.12c-.24.52.2,1.11.2,1.47.02.68-.71.55-1.12.59l-7.77.9c-1.85.22-3.32,1.32-3.43,3.31-.02.38-.44,1.3-.99,1.08l-3.66-1.46c-1.41-.56-3.33-5.25-6.02-7.77l-2.94-2.74-.25-.27c.13.25.39,0,.15-.14l.22.12Z"/><path class="cls-4" d="M167.14,66.43l-4.51.89c-2.44.48-4.99-.33-6.84-2s-2.74-4.2-2.92-6.7c-.4-2.3-.68-4.9,1.1-5.43l4.52-1.35c.96-.29,2.12-.15,3.14,0,4.34.59,7.23,4.64,7.7,8.81.15,1.32.55,2.61.31,3.92-.21,1.13-1.4,1.64-2.5,1.86ZM166.82,64c.92-.46.7-1.67.55-2.33-.32-1.48-.65-2.74-1.35-4.01-1.54-2.82-4.7-4.03-7.76-2.89-.87.32-2.25.68-2.57,1.71-.86,2.77.79,7.5,4.58,8.32,2.12.46,4.55.2,6.54-.79Z"/><path class="cls-5" d="M166.82,64c-2,.99-4.42,1.25-6.54.79-3.79-.82-5.44-5.55-4.58-8.32.32-1.03,1.7-1.39,2.57-1.71,3.06-1.13,6.23.07,7.76,2.89.7,1.28,1.03,2.54,1.35,4.01.14.66.37,1.87-.55,2.33ZM161.89,58.77c.56-.59.61-1.39.09-1.99-.64-.06-1.38-.22-1.97.12-.47.28-.49,1.37-.08,1.69.57.44,1.35.36,1.96.18Z"/><path class="cls-4" d="M161.89,58.77c-.61.17-1.39.26-1.96-.18-.41-.32-.39-1.41.08-1.69.59-.35,1.33-.18,1.97-.12.53.6.48,1.4-.09,1.99Z"/><path class="cls-1" d="M191.42,102.13c.19-2.72-1.25-5.47-3.58-6.85-1.11-.66-1.97-.77-3.22-.84-1.82-.09-3.02-.6-4.69-1.28-1.21-.49-2.53-.74-3.82-.56-1.29.18-2.54.81-3.33,1.85-1.37,1.79-1.93,3.54-4.33,4.08-1.32.3-3.67.57-5.7.44-.16.14-.38.22-.65.19-2.99-.3-5.65-1.67-8.51-2.48-2.52-.72-4.94-.64-7.36.39-4.23,1.79-8.04,6.06-8.04,10.85,0,.25-.1.45-.23.61.16,4.02,2.22,7.54,5.42,10.18,2.92,2.42,6.56,3.95,10.33,4.36s6.99-.91,10.68-1.81c.22-.06.48-.43.79-.27.12-.21.33-.23.51-.32l3.39-1.61c.22-.37.57-.62.97-.67l.19-.14c.35-.26.7-.54,1.12-.68.07-.18.25-.28.45-.26.2-.35.53-.61.93-.66.02-.08.02-.2.01-.29.19-.19.42-.34.67-.42.05-.18.28-.25.4-.33l1.15-.88c.16-.13.26-.2.47-.24.38-.53,1.13-.76,1.73-1,.08-.02.26,0,.34.02.51-.39,1.29-.51,1.93-.42l1.35.19c1.67.23,3.25.46,4.81-.26.11-.33.51-.33.72-.46-.02-.32.29-.45.51-.71.93-1.03,1.39-2.4,1.54-3.78.17-1.53,2.84-3.01,3.05-5.93Z"/></svg>