<?xml version="1.0" encoding="UTF-8"?><svg id="Layer_1" xmlns="http://www.w3.org/2000/svg" viewBox="0 0 467.7 159.5"><defs><style>.cls-1{fill:#e3785a;}.cls-2{fill:#732229;}.cls-3{fill:#30797f;}.cls-4{fill:#297880;}.cls-5{fill:#dc95bb;}.cls-6{fill:#7498c5;}</style></defs><path class="cls-3" d="M187.51,38.06v93.46h31.33v-15.38l-17.11-.72-.51-23.83,14.61-.12-.72-18.8-11.14-.12s.24-10.12,0-18.33l14.13-.3-.6-16.89-29.99,1.02Z"/><polygon class="cls-6" points="80.41 114.53 80.41 53.07 70.71 53.07 70.71 36.64 107.35 36.97 107.35 52.35 96.93 52.71 97.29 114.85 107.35 114.85 107.35 131.52 70.71 131.92 70.71 114.85 80.41 114.53"/><polygon class="cls-1" points="175.86 131.29 158.3 131.29 158.59 76 147.65 96.52 136.46 74.98 134.03 130.58 116.13 130.66 119.98 50.83 120.54 44.49 121.13 37.66 127.97 37.5 131.71 37.4 137.02 37.27 147.36 61.43 163.24 37.27 175.87 37.27 176.27 43.49 176.95 54.01 176.95 54.05 175.86 131.29"/><path class="cls-1" d="M422.14,52.22c-1.92-8.4-7.74-17.96-16.36-17.96,0,0-24.31.73-24.31,0-.14.77-2.89,31.04-2.89,31.04l-1.23,66.46h15.44s.06-.08.06-.09c.34-.69.25-1.83.32-2.57.14-1.79.25-3.57.35-5.36.29-5.09.52-10.19.73-15.28.19-4.62.38-9.25.55-13.87.01-.58.44-7.07.15-7.06,4.55-.53,8.12-2.63,11.97-4.88,5.83-3.41,9.63-8.43,12.58-14.43,1.1-2.22,2.18-4.47,2.73-6.88.71-2.99.58-6.12-.1-9.12ZM406.25,61.63c-.37,1.55-.81,3.12-1.74,4.41-.62.87-1.42,1.58-2.26,2.23-2.04,1.61-4.67,3.63-7.26,3.63l1.16-21.7c1.88,0,3.76-.57,5.56-.01,1.8.57,3.45,1.75,4.35,3.41,1.29,2.41.83,5.37.19,8.03Z"/><path class="cls-5" d="M283.28,64.95h-15.25c-.19-1.4-.76-2.63-.96-4.02-.37-2.67-.91-5.66-3.12-7.21-.35-.25-.77-.46-1.19-.38-.31.06-.58.26-.81.49-1.06,1.08-1.37,2.74-1.12,4.23s.98,2.86,1.77,4.15c2.08,3.39,4.65,6.45,7.04,9.62,7.65,10.17,13.68,21.92,15.06,34.57.66,6.06.17,12.48-2.88,17.76-1.49,2.58-3.54,4.8-5.72,6.83-1.71,1.6-3.59,3.13-5.84,3.78-1.79.52-3.71.43-5.56.17-7.37-1.02-14.76-5.2-17.55-12.1-.7-1.74-1.09-3.58-1.48-5.41-1.13-5.33-2.26-10.67-3.39-16-.45-2.12-.85-4.5.34-6.3h15.65c-.2,6.4,1.38,12.85,4.06,18.66.69,1.49,2.04,3.19,3.59,2.64,1.06-.37,1.49-1.64,1.62-2.75.46-4.11-.72-9.03-2-12.94-1.44-4.39-3.88-8.38-6.54-12.13-2.16-3.04-4.49-5.94-6.68-8.96-5.77-7.96-9.42-17.59-8.03-27.56.48-3.42,1.59-6.82,3.77-9.49,2.68-3.28,5.22-4.62,9.3-5.46,3.4-.69,6.85-1.39,10.3-1.12s6.98,1.64,9.09,4.39c1.43,1.87,2.1,4.19,2.73,6.46,1.66,5.98,3.24,12.03,3.57,18.23"/><polygon class="cls-2" points="17.11 54.56 17.11 37.02 61.83 37.02 60.43 54.56 46.64 54.56 42.99 131.54 25.83 130.32 28.64 54 17.11 54.56"/><path class="cls-4" d="M323.4,36.47v72.51c.22,4.2-.61,9.29,1.67,12.83,1.31,2.03,3.18,3.62,5.03,5.17,1.82,1.53,3.67,3.08,5.86,4.01,3.48,1.47,7.43,1.21,11.18.74,2.14-.27,4.32-.61,6.26-1.54,4.62-2.2,7.11-7.24,8.89-12.03,2.32-6.24,3.15-13.39,3.15-20.06v-60.7l-16.56.66.22,66.7c-.15,2.88-1.85,6.97-3.59,9.33-.92,1.24-2.63,1.7-3.7.21-.42-.57-.56-1.3-.69-1.99-1.58-8.63-1.39-16.96-1.47-25.67-.08-8.32-.09-16.86.26-25.04.33-7.92.67-15.84,1-23.76l-17.51-1.37Z"/><polygon class="cls-6" points="236.57 44.36 239.68 27.9 227.23 27.9 227.23 44.36 236.57 44.36"/><polygon class="cls-6" points="438.48 104.76 436.84 48.86 436.84 27.4 457.72 27.4 452.91 104.76 438.48 104.76"/><rect class="cls-6" x="438.57" y="113.7" width="13.93" height="14.12" transform="translate(299.62 558.7) rotate(-86.74)"/></svg>