<?xml version="1.0" encoding="UTF-8"?><svg id="Layer_1" xmlns="http://www.w3.org/2000/svg" xmlns:xlink="http://www.w3.org/1999/xlink" viewBox="0 0 331.15 466.66"><defs><style>.cls-1{fill:#989798;stroke:#989798;stroke-width:.73px;}.cls-1,.cls-2,.cls-3{stroke-miterlimit:10;}.cls-4{fill:#732229;}.cls-5{fill:#7497c4;}.cls-6{fill:#e3785b;}.cls-7{fill:#fdf7b4;}.cls-8{fill:#fff;}.cls-2{stroke:#c55936;stroke-width:1.05px;}.cls-2,.cls-3{fill:none;}.cls-9{fill:#de9cc0;}.cls-10{opacity:.23;}.cls-3{stroke:#7497c4;stroke-width:1.98px;}.cls-11{fill:#add9e0;}.cls-12{clip-path:url(#clippath);}</style><clipPath id="clippath"><path class="cls-8" d="M310.5,456.57H42.91c-9.55,0-17.74-9.05-18.3-20.22L3.94,22.76C3.38,11.59,10.67,2.53,20.22,2.53h267.59c9.55,0,17.74,9.05,18.3,20.22l20.68,413.6c.56,11.17-6.73,20.22-16.28,20.22Z"/></clipPath></defs><path class="cls-8" d="M326.78,436.35l-18.83-376.6-1.85-36.99c-.56-11.17-8.75-20.23-18.3-20.23H20.22C10.67,2.53,3.38,11.58,3.94,22.76c0,0-7.5,302.71,20.68,413.59.56,11.17,8.75,20.23,18.3,20.23h267.59c9.55,0,16.84-9.06,16.28-20.23Z"/><rect class="cls-1" x="2.93" y="2.53" width="302.16" height="452.46" rx="25.56" ry="25.56"/><path class="cls-8" d="M310.5,456.57H42.91c-9.55,0-17.74-9.05-18.3-20.22L3.94,22.76C3.38,11.59,10.67,2.53,20.22,2.53h267.59c9.55,0,17.74,9.05,18.3,20.22l20.68,413.6c.56,11.17-6.73,20.22-16.28,20.22Z"/><g class="cls-12"><g class="cls-10"><path class="cls-3" d="M-28.36,103.45c3.55,0,3.55-.08,7.1-.08s3.55.22,7.1.22,3.55,0,7.1,0,3.55-.29,7.1-.29,3.55-.09,7.1-.09,3.55,0,7.1,0,3.55.06,7.1.06,3.55.28,7.1.28,3.55.09,7.1.09,3.55,0,7.1,0,3.55-.11,7.1-.11,3.55,0,7.1,0,3.55.06,7.1.06,3.55-.29,7.1-.29,3.55-.12,7.1-.12,3.55.25,7.1.25,3.55-.1,7.1-.1,3.55-.18,7.1-.18,3.55.43,7.1.43,3.55-.36,7.1-.36,3.55.24,7.1.24,3.55-.07,7.1-.07,3.55-.15,7.1-.15,3.55.12,7.1.12,3.55.23,7.1.23,3.55-.19,7.1-.19,3.55.21,7.1.21,3.55-.25,7.1-.25,3.55-.01,7.1-.01,3.55.14,7.1.14,3.55.09,7.1.09,3.55-.42,7.1-.42,3.55.34,7.1.34,3.55-.11,7.1-.11,3.55-.07,7.1-.07,3.55-.15,7.1-.15,3.55.39,7.11.39,3.55-.22,7.11-.22,3.55-.17,7.11-.17,3.55-.02,7.11-.02,3.55.44,7.11.44,3.55-.4,7.1-.4,3.55.17,7.11.17,3.55-.03,7.11-.03,3.55-.17,7.11-.17,3.55.16,7.11.16,3.55.25,7.1.25,3.55-.34,7.11-.34,3.56.22,7.11.22,3.56-.24,7.11-.24"/></g><g class="cls-10"><path class="cls-3" d="M-28.36,127.07c3.55,0,3.55.28,7.1.28s3.55-.3,7.1-.3,3.55.11,7.1.11,3.55-.07,7.1-.07,3.55.38,7.1.38,3.55-.2,7.1-.2,3.55.2,7.1.2,3.55-.21,7.1-.21,3.55.11,7.1.11,3.55-.31,7.1-.31,3.55.27,7.1.27,3.55-.1,7.1-.1,3.55-.2,7.1-.2,3.55.34,7.1.34,3.55-.22,7.1-.22,3.55-.12,7.1-.12,3.55.25,7.1.25,3.55.14,7.1.14,3.55-.18,7.1-.18,3.55.19,7.1.19,3.55.03,7.1.03,3.55-.1,7.1-.1,3.55-.19,7.1-.19,3.55-.15,7.1-.15,3.55.43,7.1.43,3.55-.15,7.1-.15,3.55-.15,7.1-.15,3.55.07,7.1.07,3.55.16,7.1.16,3.55-.04,7.1-.04,3.55.06,7.1.06,3.55-.27,7.1-.27,3.55.27,7.1.27,3.55-.26,7.1-.26,3.55-.14,7.1-.14,3.55.43,7.1.43,3.55,0,7.11,0,3.55.03,7.11.03,3.55-.31,7.11-.31,3.55.05,7.11.05,3.55,0,7.11,0,3.55-.05,7.1-.05,3.55-.15,7.11-.15,3.55.43,7.11.43,3.55-.02,7.11-.02,3.55-.12,7.11-.12,3.55-.04,7.1-.04,3.55.2,7.11.2,3.56-.01,7.11-.01,3.56-.26,7.11-.26"/></g><g class="cls-10"><path class="cls-3" d="M-28.36,175.9c3.55,0,3.55.06,7.1.06s3.55-.26,7.1-.26,3.55.07,7.1.07,3.55-.05,7.1-.05,3.55.18,7.1.18,3.55-.41,7.1-.41,3.55.11,7.1.11,3.55-.06,7.1-.06,3.55.2,7.1.2,3.55.2,7.1.2,3.55-.35,7.1-.35,3.55.25,7.1.25,3.55-.17,7.1-.17,3.55-.08,7.1-.08,3.55.08,7.1.08,3.55.07,7.1.07,3.55-.1,7.1-.1,3.55.08,7.1.08,3.55.18,7.1.18,3.55-.24,7.1-.24,3.55-.04,7.1-.04,3.55.21,7.1.21,3.55-.2,7.1-.2,3.55.07,7.1.07,3.55.23,7.1.23,3.55-.29,7.1-.29,3.55.07,7.1.07,3.55-.12,7.1-.12,3.55.18,7.1.18,3.55.09,7.1.09,3.55-.16,7.1-.16,3.55.25,7.1.25,3.55-.25,7.1-.25,3.55-.06,7.1-.06,3.55.17,7.1.17,3.55.14,7.1.14,3.55-.16,7.11-.16,3.55-.09,7.11-.09,3.55.14,7.11.14,3.55-.36,7.11-.36,3.55.42,7.11.42,3.55-.37,7.1-.37,3.55.41,7.11.41,3.55-.11,7.11-.11,3.55-.31,7.11-.31,3.55.31,7.11.31,3.55-.3,7.1-.3,3.55.26,7.11.26,3.56-.14,7.11-.14,3.56-.17,7.11-.17"/></g><g class="cls-10"><path class="cls-3" d="M-28.36,151.1c3.55,0,3.55.16,7.1.16s3.55-.35,7.1-.35,3.55.15,7.1.15,3.55.12,7.1.12,3.55-.06,7.1-.06,3.55.06,7.1.06,3.55-.14,7.1-.14,3.55.26,7.1.26,3.55-.43,7.1-.43,3.55.37,7.1.37,3.55-.36,7.1-.36,3.55,0,7.1,0,3.55.45,7.1.45,3.55-.19,7.1-.19,3.55.11,7.1.11,3.55-.02,7.1-.02,3.55-.07,7.1-.07,3.55.04,7.1.04,3.55-.23,7.1-.23,3.55.04,7.1.04,3.55.05,7.1.05,3.55-.13,7.1-.13,3.55.02,7.1.02,3.55.33,7.1.33,3.55-.34,7.1-.34,3.55.21,7.1.21,3.55-.09,7.1-.09,3.55.18,7.1.18,3.55-.38,7.1-.38,3.55.36,7.1.36,3.55,0,7.1,0,3.55-.14,7.1-.14,3.55-.08,7.1-.08,3.55.15,7.1.15,3.55-.09,7.1-.09,3.55.17,7.1.17,3.55-.34,7.11-.34,3.55-.05,7.11-.05,3.55.23,7.11.23,3.55.04,7.11.04,3.55-.08,7.11-.08,3.55.27,7.1.27,3.55-.26,7.11-.26,3.55.09,7.11.09,3.55-.25,7.11-.25,3.55.32,7.11.32,3.55-.03,7.1-.03,3.55-.14,7.11-.14,3.56.04,7.11.04,3.56-.22,7.11-.22"/></g><g class="cls-10"><path class="cls-3" d="M-28.36,200.57q3.55,0,7.1,0c3.55,0,3.55-.18,7.1-.18s3.55.05,7.1.05,3.55.07,7.1.07,3.55-.04,7.1-.04,3.55.07,7.1.07,3.55-.37,7.1-.37,3.55.46,7.1.46,3.55-.09,7.1-.09,3.55.1,7.1.1,3.55-.2,7.1-.2,3.55-.05,7.1-.05,3.55-.08,7.1-.08,3.55-.02,7.1-.02,3.55.03,7.1.03,3.55.2,7.1.2,3.55-.25,7.1-.25,3.55.2,7.1.2,3.55.04,7.1.04,3.55.05,7.1.05,3.55-.37,7.1-.37,3.55.23,7.1.23,3.55-.03,7.1-.03,3.55-.11,7.1-.11,3.55.04,7.1.04,3.55.31,7.1.31,3.55-.25,7.1-.25,3.55.03,7.1.03,3.55-.05,7.1-.05,3.55.06,7.1.06,3.55-.17,7.1-.17,3.55.03,7.1.03,3.55.07,7.1.07,3.55.1,7.1.1,3.55.08,7.1.08,3.55-.37,7.1-.37,3.55.28,7.11.28,3.55.09,7.11.09,3.55-.23,7.11-.23,3.55.3,7.11.3,3.55-.32,7.11-.32,3.55.24,7.1.24,3.55-.23,7.11-.23,3.55-.02,7.11-.02,3.55-.1,7.11-.1,3.55.06,7.11.06,3.55.1,7.1.1,3.55.04,7.11.04,3.56.24,7.11.24,3.56-.38,7.11-.38"/></g><g class="cls-10"><path class="cls-3" d="M-28.36,223.02c3.55,0,3.55.27,7.1.27s3.55-.24,7.1-.24,3.55-.1,7.1-.1,3.55.03,7.1.03,3.55.37,7.1.37,3.55-.33,7.1-.33,3.55.17,7.1.17,3.55-.22,7.1-.22,3.55.06,7.1.06,3.55-.12,7.1-.12,3.55.44,7.1.44,3.55-.29,7.1-.29,3.55.25,7.1.25,3.55-.36,7.1-.36,3.55.27,7.1.27,3.55.03,7.1.03,3.55.03,7.1.03,3.55.02,7.1.02,3.55-.17,7.1-.17,3.55-.23,7.1-.23,3.55.15,7.1.15,3.55.05,7.1.05,3.55.25,7.1.25,3.55-.16,7.1-.16,3.55,0,7.1,0,3.55-.17,7.1-.17,3.55.1,7.1.1,3.55-.2,7.1-.2,3.55.12,7.1.12,3.55,0,7.1,0,3.55.06,7.1.06,3.55-.15,7.1-.15,3.55.31,7.1.31,3.55-.14,7.1-.14,3.55-.13,7.1-.13,3.55.14,7.1.14,3.55-.11,7.11-.11,3.55-.08,7.11-.08,3.55.04,7.11.04,3.55-.06,7.11-.06,3.55.18,7.11.18,3.55-.23,7.1-.23,3.55.03,7.11.03,3.55.2,7.11.2,3.55-.16,7.11-.16,3.55-.04,7.11-.04,3.55.26,7.1.26,3.55.18,7.11.18,3.56-.12,7.11-.12,3.56-.17,7.11-.17"/></g><g class="cls-10"><path class="cls-3" d="M-28.36,247.05c3.55,0,3.55.03,7.1.03s3.55-.01,7.1-.01,3.55.03,7.1.03,3.55-.16,7.1-.16,3.55.17,7.1.17,3.55-.06,7.1-.06,3.55.13,7.1.13,3.55-.27,7.1-.27,3.55-.04,7.1-.04,3.55.13,7.1.13,3.55-.14,7.1-.14,3.55.17,7.1.17,3.55.15,7.1.15,3.55-.2,7.1-.2,3.55.04,7.1.04,3.55.09,7.1.09,3.55-.07,7.1-.07,3.55-.05,7.1-.05,3.55-.25,7.1-.25,3.55.13,7.1.13,3.55.22,7.1.22,3.55-.29,7.1-.29,3.55.3,7.1.3,3.55-.06,7.1-.06,3.55-.06,7.1-.06,3.55.03,7.1.03,3.55.13,7.1.13,3.55,0,7.1,0,3.55-.02,7.1-.02,3.55-.23,7.1-.23,3.55-.02,7.1-.02,3.55-.07,7.1-.07,3.55.36,7.1.36,3.55-.36,7.1-.36,3.55.28,7.1.28,3.55,0,7.1,0,3.55-.25,7.11-.25,3.55.26,7.11.26,3.55-.13,7.11-.13,3.55.11,7.11.11,3.55.08,7.11.08,3.55-.26,7.1-.26,3.55,0,7.11,0,3.55.23,7.11.23,3.55-.11,7.11-.11,3.55-.17,7.11-.17,3.55-.11,7.1-.11,3.55.4,7.11.4,3.56-.2,7.11-.2,3.56-.14,7.11-.14"/></g><g class="cls-10"><path class="cls-3" d="M-28.36,295.52c3.55,0,3.55.05,7.1.05s3.55,0,7.1,0,3.55-.36,7.1-.36,3.55.14,7.1.14,3.55.22,7.1.22,3.55-.1,7.1-.1,3.55-.04,7.1-.04,3.55-.02,7.1-.02,3.55.08,7.1.08,3.55-.27,7.1-.27,3.55.13,7.1.13,3.55.21,7.1.21,3.55.09,7.1.09,3.55-.12,7.1-.12,3.55-.11,7.1-.11,3.55-.11,7.1-.11,3.55.04,7.1.04,3.55.23,7.1.23,3.55-.12,7.1-.12,3.55-.17,7.1-.17,3.55.03,7.1.03,3.55.2,7.1.2,3.55.16,7.1.16,3.55-.23,7.1-.23,3.55-.13,7.1-.13,3.55.16,7.1.16,3.55.12,7.1.12,3.55-.21,7.1-.21,3.55.13,7.1.13,3.55.11,7.1.11,3.55-.19,7.1-.19,3.55.23,7.1.23,3.55-.22,7.1-.22,3.55-.08,7.1-.08,3.55-.09,7.1-.09,3.55.42,7.1.42,3.55,0,7.11,0,3.55-.08,7.11-.08,3.55-.27,7.11-.27,3.55.09,7.11.09,3.55.25,7.11.25,3.55-.3,7.1-.3,3.55-.11,7.11-.11,3.55.19,7.11.19,3.55-.23,7.11-.23,3.55.29,7.11.29,3.55.18,7.1.18,3.55-.45,7.11-.45,3.56.21,7.11.21,3.56-.2,7.11-.2"/></g><g class="cls-10"><path class="cls-3" d="M-28.36,270.73c3.55,0,3.55-.15,7.1-.15s3.55.17,7.1.17,3.55.13,7.1.13,3.55-.24,7.1-.24,3.55.32,7.1.32,3.55-.06,7.1-.06,3.55-.35,7.1-.35,3.55.27,7.1.27,3.55,0,7.1,0,3.55.07,7.1.07,3.55-.11,7.1-.11,3.55-.19,7.1-.19,3.55.09,7.1.09,3.55-.04,7.1-.04,3.55.36,7.1.36,3.55-.03,7.1-.03,3.55-.32,7.1-.32,3.55.34,7.1.34,3.55.03,7.1.03,3.55-.02,7.1-.02,3.55-.4,7.1-.4,3.55.11,7.1.11,3.55.24,7.1.24,3.55-.08,7.1-.08,3.55-.19,7.1-.19,3.55.28,7.1.28,3.55-.18,7.1-.18,3.55-.21,7.1-.21,3.55.23,7.1.23,3.55.11,7.1.11,3.55.07,7.1.07,3.55-.22,7.1-.22,3.55-.18,7.1-.18,3.55.42,7.1.42,3.55-.39,7.1-.39,3.55.09,7.1.09,3.55.17,7.11.17,3.55-.28,7.11-.28,3.55.25,7.11.25,3.55.01,7.11.01,3.55.02,7.11.02,3.55-.33,7.1-.33,3.55.3,7.11.3,3.55.11,7.11.11,3.55-.1,7.11-.1,3.55-.05,7.11-.05,3.55,0,7.1,0,3.55-.03,7.11-.03,3.56-.23,7.11-.23,3.56.16,7.11.16"/></g><g class="cls-10"><path class="cls-3" d="M-28.36,320.25c3.55,0,3.55-.24,7.1-.24s3.55,0,7.1,0,3.55-.02,7.1-.02,3.55.12,7.1.12,3.55-.09,7.1-.09,3.55.17,7.1.17,3.55.09,7.1.09,3.55.04,7.1.04,3.55.02,7.1.02,3.55-.17,7.1-.17,3.55-.25,7.1-.25,3.55,0,7.1,0,3.55.36,7.1.36,3.55-.3,7.1-.3,3.55.02,7.1.02,3.55.12,7.1.12,3.55-.08,7.1-.08,3.55.24,7.1.24,3.55-.31,7.1-.31,3.55.03,7.1.03,3.55.08,7.1.08,3.55.2,7.1.2,3.55,0,7.1,0,3.55-.3,7.1-.3,3.55.24,7.1.24,3.55.14,7.1.14,3.55-.3,7.1-.3,3.55.01,7.1.01,3.55.19,7.1.19,3.55-.08,7.1-.08,3.55.14,7.1.14,3.55-.19,7.1-.19,3.55-.05,7.1-.05,3.55-.1,7.1-.1,3.55,0,7.1,0,3.55-.03,7.1-.03,3.55.02,7.11.02,3.55.09,7.11.09,3.55,0,7.11,0,3.55.3,7.11.3,3.55-.25,7.11-.25,3.55.21,7.1.21,3.55-.04,7.11-.04,3.55.08,7.11.08,3.55-.27,7.11-.27,3.55-.13,7.11-.13,3.55.02,7.1.02,3.55.38,7.11.38,3.56-.15,7.11-.15,3.56-.32,7.11-.32"/></g><g class="cls-10"><path class="cls-3" d="M-28.36,344.8c3.55,0,3.55-.02,7.1-.02s3.55-.02,7.1-.02,3.55-.16,7.1-.16,3.55.18,7.1.18,3.55.16,7.1.16,3.55-.05,7.1-.05,3.55.1,7.1.1,3.55-.03,7.1-.03,3.55-.05,7.1-.05,3.55-.17,7.1-.17,3.55.2,7.1.2,3.55-.39,7.1-.39,3.55,0,7.1,0,3.55.37,7.1.37,3.55.07,7.1.07,3.55-.39,7.1-.39,3.55.04,7.1.04,3.55.3,7.1.3,3.55.07,7.1.07,3.55-.17,7.1-.17,3.55-.17,7.1-.17,3.55-.08,7.1-.08,3.55.4,7.1.4,3.55-.19,7.1-.19,3.55-.02,7.1-.02,3.55-.2,7.1-.2,3.55.05,7.1.05,3.55-.06,7.1-.06,3.55.21,7.1.21,3.55-.23,7.1-.23,3.55.1,7.1.1,3.55.36,7.1.36,3.55-.33,7.1-.33,3.55.05,7.1.05,3.55.24,7.1.24,3.55-.03,7.1-.03,3.55-.21,7.11-.21,3.55.27,7.11.27,3.55-.28,7.11-.28,3.55.15,7.11.15,3.55-.15,7.11-.15,3.55-.17,7.1-.17,3.55.11,7.11.11,3.55.35,7.11.35,3.55-.33,7.11-.33,3.55.22,7.11.22,3.55-.28,7.1-.28,3.55.39,7.11.39,3.56-.37,7.11-.37,3.56.36,7.11.36"/></g><g class="cls-10"><path class="cls-3" d="M-28.36,368.81c3.55,0,3.55-.12,7.1-.12s3.55-.26,7.1-.26,3.55.08,7.1.08,3.55.17,7.1.17,3.55-.13,7.1-.13,3.55-.06,7.1-.06,3.55.23,7.1.23,3.55,0,7.1,0,3.55-.05,7.1-.05,3.55-.04,7.1-.04,3.55.09,7.1.09,3.55-.32,7.1-.32,3.55.11,7.1.11,3.55.33,7.1.33,3.55-.3,7.1-.3,3.55.21,7.1.21,3.55-.26,7.1-.26,3.55.24,7.1.24,3.55-.2,7.1-.2,3.55.13,7.1.13,3.55.2,7.1.2,3.55-.19,7.1-.19,3.55-.16,7.1-.16,3.55,0,7.1,0,3.55.32,7.1.32,3.55-.34,7.1-.34,3.55.15,7.1.15,3.55.18,7.1.18,3.55-.35,7.1-.35,3.55-.06,7.1-.06,3.55.37,7.1.37,3.55-.3,7.1-.3,3.55.21,7.1.21,3.55-.11,7.1-.11,3.55.31,7.1.31,3.55,0,7.1,0,3.55-.18,7.11-.18,3.55-.18,7.11-.18,3.55.14,7.11.14,3.55-.1,7.11-.1,3.55-.13,7.11-.13,3.55.38,7.1.38,3.55.07,7.11.07,3.55-.45,7.11-.45,3.55.24,7.11.24,3.55-.14,7.11-.14,3.55.12,7.1.12,3.55.26,7.11.26,3.56-.43,7.11-.43,3.56.29,7.11.29"/></g><g class="cls-10"><path class="cls-3" d="M-28.36,417.17c3.55,0,3.55-.24,7.1-.24s3.55.02,7.1.02,3.55.29,7.1.29,3.55-.06,7.1-.06,3.55-.19,7.1-.19,3.55-.02,7.1-.02,3.55.02,7.1.02,3.55,0,7.1,0,3.55.04,7.1.04,3.55-.15,7.1-.15,3.55.25,7.1.25,3.55-.19,7.1-.19,3.55.32,7.1.32,3.55-.04,7.1-.04,3.55-.25,7.1-.25,3.55.11,7.1.11,3.55.17,7.1.17,3.55-.26,7.1-.26,3.55.07,7.1.07,3.55.07,7.1.07,3.55.05,7.1.05,3.55.02,7.1.02,3.55.02,7.1.02,3.55-.05,7.1-.05,3.55.06,7.1.06,3.55-.28,7.1-.28,3.55.26,7.1.26,3.55-.16,7.1-.16,3.55-.14,7.1-.14,3.55.36,7.1.36,3.55.03,7.1.03,3.55-.38,7.1-.38,3.55.14,7.1.14,3.55-.09,7.1-.09,3.55.1,7.1.1,3.55-.05,7.1-.05,3.55-.02,7.11-.02,3.55.35,7.11.35,3.55-.06,7.11-.06,3.55-.3,7.11-.3,3.55.36,7.11.36,3.55-.23,7.1-.23,3.55-.23,7.11-.23,3.55.04,7.11.04,3.55.19,7.11.19,3.55-.11,7.11-.11,3.55,0,7.1,0,3.55-.02,7.11-.02,3.56.07,7.11.07,3.56.08,7.11.08"/></g><g class="cls-10"><path class="cls-3" d="M-28.36,392.57c3.55,0,3.55-.11,7.1-.11s3.55.2,7.1.2,3.55-.37,7.1-.37,3.55.17,7.1.17,3.55.18,7.1.18,3.55-.39,7.1-.39,3.55.15,7.1.15,3.55.27,7.1.27,3.55-.3,7.1-.3,3.55.18,7.1.18,3.55.02,7.1.02,3.55-.12,7.1-.12,3.55.1,7.1.1,3.55-.21,7.1-.21,3.55.13,7.1.13,3.55-.02,7.1-.02,3.55-.12,7.1-.12,3.55.03,7.1.03,3.55-.16,7.1-.16,3.55,0,7.1,0,3.55.38,7.1.38,3.55-.06,7.1-.06,3.55,0,7.1,0,3.55-.14,7.1-.14,3.55.12,7.1.12,3.55-.18,7.1-.18,3.55.2,7.1.2,3.55-.31,7.1-.31,3.55.05,7.1.05,3.55.03,7.1.03,3.55.4,7.1.4,3.55-.02,7.1-.02,3.55-.34,7.1-.34,3.55,0,7.1,0,3.55-.14,7.1-.14,3.55.14,7.1.14,3.55-.1,7.11-.1,3.55.44,7.11.44,3.55-.44,7.11-.44,3.55.05,7.11.05,3.55.31,7.11.31,3.55-.18,7.1-.18,3.55.12,7.11.12,3.55.13,7.11.13,3.55-.24,7.11-.24,3.55.11,7.11.11,3.55-.2,7.1-.2,3.55.08,7.11.08,3.56-.07,7.11-.07,3.56.06,7.11.06"/></g><g class="cls-10"><path class="cls-3" d="M-28.36,441.79c3.55,0,3.55.18,7.1.18s3.55-.06,7.1-.06,3.55-.34,7.1-.34,3.55.14,7.1.14,3.55-.09,7.1-.09,3.55.08,7.1.08,3.55.03,7.1.03,3.55.04,7.1.04,3.55-.16,7.1-.16,3.55.3,7.1.3,3.55-.28,7.1-.28,3.55.16,7.1.16,3.55-.1,7.1-.1,3.55.02,7.1.02,3.55.27,7.1.27,3.55-.11,7.1-.11,3.55-.12,7.1-.12,3.55.03,7.1.03,3.55.12,7.1.12,3.55.08,7.1.08,3.55-.42,7.1-.42,3.55.37,7.1.37,3.55-.22,7.1-.22,3.55.29,7.1.29,3.55-.31,7.1-.31,3.55.25,7.1.25,3.55.05,7.1.05,3.55-.01,7.1-.01,3.55,0,7.1,0,3.55-.16,7.1-.16,3.55-.12,7.1-.12,3.55.05,7.1.05,3.55-.14,7.1-.14,3.55.2,7.1.2,3.55.18,7.1.18,3.55-.13,7.1-.13,3.55.01,7.11.01,3.55-.15,7.11-.15,3.55-.05,7.11-.05,3.55-.1,7.11-.1,3.55.02,7.11.02,3.55-.02,7.1-.02,3.55.08,7.11.08,3.55.32,7.11.32,3.55-.4,7.11-.4,3.55.47,7.11.47,3.55-.06,7.1-.06,3.55-.13,7.11-.13,3.56,0,7.11,0,3.56.18,7.11.18"/></g><g class="cls-10"><path class="cls-2" d="M60.55,455.62c-.11-1.89-.16-1.89-.27-3.78s0-1.9-.11-3.79-.06-1.89-.17-3.78-.16-1.89-.27-3.78-.05-1.9-.15-3.79-.09-1.89-.2-3.78-.08-1.89-.18-3.79-.24-1.89-.35-3.78,0-1.9-.11-3.79-.26-1.88-.37-3.78-.01-1.9-.12-3.79-.23-1.88-.34-3.78-.02-1.9-.13-3.79-.17-1.89-.28-3.78-.02-1.9-.13-3.79-.04-1.89-.15-3.79-.11-1.89-.22-3.78-.17-1.89-.27-3.78-.03-1.9-.14-3.79-.18-1.89-.29-3.78-.2-1.89-.31-3.78-.09-1.89-.2-3.79.05-1.9-.06-3.8-.18-1.89-.28-3.78-.09-1.89-.19-3.79-.23-1.88-.34-3.78-.13-1.89-.23-3.78.09-1.9-.02-3.79-.08-1.89-.18-3.78-.12-1.89-.23-3.78-.13-1.89-.23-3.78-.2-1.89-.31-3.78-.01-1.9-.12-3.79-.14-1.89-.25-3.78-.11-1.89-.21-3.79-.2-1.89-.3-3.78.02-1.9-.09-3.79-.15-1.89-.25-3.78-.15-1.89-.25-3.78.03-1.9-.07-3.79-.18-1.89-.29-3.78-.08-1.89-.19-3.79-.31-1.88-.42-3.77.1-1.9,0-3.8-.23-1.89-.33-3.78-.13-1.89-.23-3.78-.15-1.89-.26-3.78.08-1.9-.02-3.8-.21-1.89-.32-3.78-.14-1.89-.25-3.78-.18-1.89-.29-3.78.08-1.9-.03-3.8-.12-1.89-.23-3.79-.2-1.89-.3-3.78-.11-1.89-.21-3.79,0-1.9-.11-3.79-.09-1.89-.2-3.79-.3-1.88-.41-3.77-.04-1.9-.15-3.79-.19-1.89-.3-3.78-.04-1.9-.15-3.79-.11-1.89-.22-3.79.05-1.9-.05-3.79-.25-1.88-.35-3.78-.07-1.9-.18-3.79-.12-1.89-.22-3.79-.18-1.89-.29-3.78.09-1.9-.01-3.8-.18-1.89-.28-3.78-.13-1.89-.24-3.78-.18-1.89-.29-3.78-.17-1.89-.27-3.78.12-1.9.02-3.79-.27-1.88-.38-3.77-.05-1.9-.16-3.79-.01-1.9-.12-3.79-.23-1.89-.33-3.78-.18-1.89-.29-3.78.05-1.9-.06-3.79-.12-1.89-.23-3.78-.18-1.89-.29-3.78-.15-1.89-.26-3.78.06-1.9-.04-3.8-.09-1.89-.19-3.79-.26-1.88-.37-3.78.05-1.9-.06-3.79-.22-1.89-.32-3.78-.23-1.89-.33-3.78.02-1.9-.09-3.8-.22-1.89-.32-3.78.11-1.9,0-3.8-.26-1.88-.37-3.78-.14-1.89-.25-3.78.08-1.91-.03-3.8-.28-1.88-.39-3.78-.12-1.89-.23-3.79-.15-1.89-.25-3.79-.06-1.9-.17-3.79-.11-1.89-.22-3.79.07-1.9-.04-3.8-.12-1.89-.23-3.79-.14-1.89-.24-3.79-.19-1.89-.29-3.79-.22-1.89-.33-3.78-.04-1.9-.15-3.79-.03-1.9-.14-3.79-.13-1.89-.23-3.79-.23-1.89-.34-3.78,0-1.9-.11-3.79-.15-1.89-.26-3.78-.09-1.9-.2-3.79.03-1.9-.08-3.79-.28-1.89-.39-3.78-.05-1.9-.16-3.79.04-1.9-.07-3.8-.12-1.9-.23-3.79-.3-1.89-.41-3.78.05-1.9-.06-3.8-.07-1.9-.18-3.79-.09-1.9-.2-3.79-.1-1.9-.2-3.79-.2-1.89-.31-3.79-.11-1.9-.22-3.8"/></g></g><path class="cls-5" d="M307.95,59.75H5.78l-1.85-36.99C3.38,11.58,10.67,2.53,20.22,2.53h267.59c9.55,0,17.74,9.05,18.3,20.23l1.85,36.99Z"/><path class="cls-9" d="M187.57,25.61c-.58-3.01-1.22-6.1-2.94-8.63-1.45-2.13-3.32-4.6-5.9-4.6l-7.53.09-1.68,42.16c3.12,0,6.5,0,9.18-1.61,2.54-1.52,4.2-4.13,5.76-6.65.69-1.12,1.39-2.24,1.87-3.47.45-1.13.69-2.33.94-3.52.56-2.67,1.12-5.36,1.05-8.08-.04-1.92-.4-3.81-.76-5.7ZM180.63,34.38c-.13.81-.32,1.61-.51,2.4-.18.78-.36,1.56-.61,2.31-.51,1.58-1.12,3.44-2.16,4.74l.38-23.2c1.51,0,1.99,2.2,2.32,3.68.75,3.3,1.12,6.73.58,10.07Z"/><path class="cls-7" d="M209.51,16.77c-.73-2.15-2.19-4.16-4.29-5.03-2.43-1.01-5.36-.3-7.38,1.38-2.03,1.67-3.25,4.17-3.85,6.73-1.78,7.6-1.55,15.7-.89,23.49.15,1.77-.06,3.7.67,5.34.73,1.64,1.75,3.44,3.24,4.5,1.17.83,2.62,1.15,4.02,1.46,1.09.24,2.37.51,3.37-.03s1.92-1.41,2.77-2.22c.32-.3.64-.61.92-.95.64-.79.93-1.62,1.24-2.55.36-1.08.76-2.16.99-3.28.66-3.16.79-6.4.87-9.62.15-6.42.41-13.06-1.68-19.22ZM203.81,41.71c-.09,1.79-.19,3.62-.9,5.27-.17.4-.45.84-.89.87-.51.03-.85-.52-1.04-.99-1.2-3.05-1.23-6.42-1.24-9.69,0-3.75-.1-7.49,0-11.24.04-1.77.32-3.79,1-5.44.18-.42.4-.86.79-1.1,1.61-1.01,2.42,1.82,2.5,2.86.46,6.48.12,12.98-.21,19.46Z"/><path class="cls-6" d="M141.48,16.77c-.73-2.15-2.19-4.16-4.29-5.03-2.43-1.01-5.36-.3-7.38,1.38-2.03,1.67-3.25,4.17-3.85,6.73-1.78,7.6-1.55,15.7-.89,23.49.15,1.77-.06,3.7.67,5.34.73,1.64,1.75,3.44,3.24,4.5,1.17.83,2.62,1.15,4.02,1.46,1.09.24,2.37.51,3.37-.03s1.92-1.41,2.77-2.22c.32-.3.64-.61.92-.95.64-.79.93-1.62,1.24-2.55.36-1.08.76-2.16.99-3.28.66-3.16.79-6.4.87-9.62.15-6.42.41-13.06-1.68-19.22ZM135.78,41.71c-.09,1.79-.19,3.62-.9,5.27-.17.4-.45.84-.89.87-.51.03-.85-.52-1.04-.99-1.2-3.05-1.23-6.42-1.24-9.69,0-3.75-.1-7.49,0-11.24.04-1.77.32-3.79,1-5.44.18-.42.4-.86.79-1.1,1.61-1.01,2.42,1.82,2.5,2.86.46,6.48.12,12.98-.21,19.46Z"/><polygon class="cls-4" points="99.77 20.13 99.77 12.47 119.29 12.47 118.68 20.13 112.66 20.13 111.06 53.72 103.58 53.18 104.8 19.88 99.77 20.13"/><path class="cls-11" d="M223.95,20.59c-.31,1.2-.63,2.43-.51,3.67s.74,2.5,1.86,3.04c1.12.53,2.54.2,3.45-.65s1.33-2.13,1.32-3.37c-.01-1.51-.72-3.08-2.05-3.78s-3.27-.23-3.84,1.17"/><path class="cls-11" d="M223.95,36.88c-.31,1.2-.63,2.43-.51,3.67s.74,2.5,1.86,3.04c1.12.53,2.54.2,3.45-.65s1.33-2.13,1.32-3.37c-.01-1.51-.72-3.08-2.05-3.78s-3.27-.23-3.84,1.17"/></svg>