<?xml version="1.0" encoding="UTF-8"?><svg id="Layer_1" xmlns="http://www.w3.org/2000/svg" xmlns:xlink="http://www.w3.org/1999/xlink" viewBox="0 0 331.15 466.66"><defs><style>.cls-1{fill:#999;stroke:#999;stroke-width:.73px;}.cls-1,.cls-2,.cls-3{stroke-miterlimit:10;}.cls-2{stroke:#c55835;stroke-width:1.05px;}.cls-2,.cls-3{fill:none;}.cls-4{fill:#7d8ac1;}.cls-5{fill:#e3785a;}.cls-6{fill:#732229;}.cls-7{fill:#30797f;}.cls-8{fill:#fff;}.cls-9{fill:#de9dc0;}.cls-10{opacity:.23;}.cls-11{fill:#6c91c4;}.cls-12{clip-path:url(#clippath);}.cls-3{stroke:#7498c5;stroke-width:1.98px;}.cls-13{fill:#7498c5;}</style><clipPath id="clippath"><path class="cls-8" d="M314.84,466.66H47.26c-9.55,0-17.74-9.06-18.3-20.23L10.12,69.83l-1.85-36.99c-.55-11.17,6.73-20.23,16.28-20.23h267.59c9.55,0,17.74,9.05,18.3,20.23l1.85,36.99,18.83,376.6c.56,11.17-6.72,20.23-16.28,20.23Z"/></clipPath></defs><rect class="cls-1" x="7.27" y="12.62" width="302.16" height="452.46" rx="25.56" ry="25.56"/><path class="cls-8" d="M314.84,466.66H47.26c-9.55,0-17.74-9.05-18.3-20.22L8.28,32.84c-.56-11.17,6.73-20.22,16.28-20.22h267.59c9.55,0,17.74,9.05,18.3,20.22l20.68,413.6c.56,11.17-6.73,20.22-16.28,20.22Z"/><path class="cls-8" d="M314.84,466.66H47.26c-9.55,0-17.74-9.06-18.3-20.23L10.12,69.83l-1.85-36.99c-.55-11.17,6.73-20.23,16.28-20.23h267.59c9.55,0,17.74,9.05,18.3,20.23l1.85,36.99,18.83,376.6c.56,11.17-6.72,20.23-16.28,20.23Z"/><g class="cls-12"><g class="cls-10"><path class="cls-3" d="M-24.02,113.53c3.55,0,3.55-.29,7.1-.29s3.55.24,7.1.24,3.55.06,7.1.06,3.55.1,7.1.1,3.55-.38,7.1-.38,3.55.47,7.1.47,3.55-.12,7.1-.12,3.55-.31,7.1-.31,3.55.34,7.1.34,3.55-.37,7.1-.37,3.55.33,7.1.33,3.55-.18,7.1-.18,3.55.31,7.1.31,3.55-.23,7.1-.23,3.55.04,7.1.04,3.55.1,7.1.1,3.55-.18,7.1-.18,3.55-.14,7.1-.14,3.55.27,7.1.27,3.55-.06,7.1-.06,3.55.05,7.1.05,3.55.02,7.1.02,3.55,0,7.1,0,3.55-.33,7.1-.33,3.55.28,7.1.28,3.55.01,7.1.01,3.55-.07,7.1-.07,3.55,0,7.1,0,3.55,0,7.1,0,3.55-.1,7.1-.1,3.55.24,7.1.24,3.55-.17,7.1-.17,3.55-.11,7.1-.11,3.55.02,7.1.02,3.55-.02,7.1-.02,3.55-.02,7.1-.02,3.55.41,7.11.41,3.55-.2,7.11-.2,3.55-.21,7.11-.21,3.55-.04,7.11-.04,3.55.32,7.11.32,3.55-.04,7.1-.04,3.55-.13,7.11-.13,3.55-.19,7.11-.19,3.55.37,7.11.37,3.55-.29,7.11-.29,3.55-.06,7.1-.06,3.55.03,7.11.03,3.56.11,7.11.11,3.56,0,7.11,0"/></g><g class="cls-10"><path class="cls-3" d="M-24.02,137.33c3.55,0,3.55-.23,7.1-.23s3.55.05,7.1.05,3.55.1,7.1.1,3.55.17,7.1.17,3.55-.13,7.1-.13,3.55-.01,7.1-.01,3.55-.19,7.1-.19,3.55-.02,7.1-.02,3.55.17,7.1.17,3.55.18,7.1.18,3.55-.23,7.1-.23,3.55.14,7.1.14,3.55-.03,7.1-.03,3.55-.19,7.1-.19,3.55.03,7.1.03,3.55.15,7.1.15,3.55.14,7.1.14,3.55,0,7.1,0,3.55.05,7.1.05,3.55-.27,7.1-.27,3.55.24,7.1.24,3.55-.17,7.1-.17,3.55-.06,7.1-.06,3.55-.07,7.1-.07,3.55.39,7.1.39,3.55-.1,7.1-.1,3.55.11,7.1.11,3.55-.06,7.1-.06,3.55.05,7.1.05,3.55-.32,7.1-.32,3.55.04,7.1.04,3.55.29,7.1.29,3.55-.33,7.1-.33,3.55.25,7.1.25,3.55,0,7.1,0,3.55-.25,7.1-.25,3.55.31,7.11.31,3.55-.09,7.11-.09,3.55-.07,7.11-.07,3.55-.22,7.11-.22,3.55.31,7.11.31,3.55-.31,7.1-.31,3.55.03,7.11.03,3.55-.04,7.11-.04,3.55.09,7.11.09,3.55-.01,7.11-.01,3.55.14,7.1.14,3.55-.05,7.11-.05,3.56,0,7.11,0,3.56.2,7.11.2"/></g><g class="cls-10"><path class="cls-3" d="M-24.02,186.05c3.55,0,3.55-.33,7.1-.33s3.55-.07,7.1-.07,3.55-.04,7.1-.04,3.55-.01,7.1-.01,3.55.05,7.1.05,3.55.25,7.1.25,3.55,0,7.1,0,3.55.11,7.1.11,3.55-.35,7.1-.35,3.55.26,7.1.26,3.55-.11,7.1-.11,3.55.15,7.1.15,3.55.02,7.1.02,3.55-.31,7.1-.31,3.55.17,7.1.17,3.55-.05,7.1-.05,3.55-.21,7.1-.21,3.55.48,7.1.48,3.55-.32,7.1-.32,3.55-.15,7.1-.15,3.55.47,7.1.47,3.55-.24,7.1-.24,3.55-.02,7.1-.02,3.55-.21,7.1-.21,3.55.42,7.1.42,3.55-.3,7.1-.3,3.55.13,7.1.13,3.55.14,7.1.14,3.55-.04,7.1-.04,3.55-.1,7.1-.1,3.55.02,7.1.02,3.55.12,7.1.12,3.55-.3,7.1-.3,3.55.04,7.1.04,3.55.05,7.1.05,3.55.09,7.1.09,3.55-.24,7.11-.24,3.55-.04,7.11-.04,3.55.1,7.11.1,3.55,0,7.11,0,3.55.24,7.11.24,3.55.13,7.1.13,3.55-.04,7.11-.04,3.55-.04,7.11-.04,3.55-.27,7.11-.27,3.55.31,7.11.31,3.55-.4,7.1-.4,3.55.4,7.11.4,3.56-.37,7.11-.37,3.56.15,7.11.15"/></g><g class="cls-10"><path class="cls-3" d="M-24.02,161.21c3.55,0,3.55-.26,7.1-.26s3.55.12,7.1.12,3.55.29,7.1.29,3.55-.07,7.1-.07,3.55-.35,7.1-.35,3.55.06,7.1.06,3.55-.03,7.1-.03,3.55.26,7.1.26,3.55-.23,7.1-.23,3.55.31,7.1.31,3.55-.15,7.1-.15,3.55-.07,7.1-.07,3.55.29,7.1.29,3.55-.45,7.1-.45,3.55.09,7.1.09,3.55.17,7.1.17,3.55.07,7.1.07,3.55-.21,7.1-.21,3.55-.1,7.1-.1,3.55.06,7.1.06,3.55.32,7.1.32,3.55-.16,7.1-.16,3.55.17,7.1.17,3.55-.05,7.1-.05,3.55-.3,7.1-.3,3.55.3,7.1.3,3.55-.17,7.1-.17,3.55-.19,7.1-.19,3.55.03,7.1.03,3.55.13,7.1.13,3.55-.14,7.1-.14,3.55.43,7.1.43,3.55-.44,7.1-.44,3.55-.03,7.1-.03,3.55.21,7.1.21,3.55.15,7.1.15,3.55.02,7.11.02,3.55.1,7.11.1,3.55-.09,7.11-.09,3.55-.08,7.11-.08,3.55-.16,7.11-.16,3.55.31,7.1.31,3.55-.31,7.11-.31,3.55.2,7.11.2,3.55-.25,7.11-.25,3.55.07,7.11.07,3.55.04,7.1.04,3.55-.19,7.11-.19,3.56.2,7.11.2,3.56.08,7.11.08"/></g><g class="cls-10"><path class="cls-3" d="M-24.02,210.33c3.55,0,3.55.02,7.1.02s3.55.16,7.1.16,3.55-.26,7.1-.26,3.55.46,7.1.46,3.55-.09,7.1-.09,3.55-.15,7.1-.15,3.55-.17,7.1-.17,3.55.32,7.1.32,3.55.02,7.1.02,3.55-.21,7.1-.21,3.55.04,7.1.04,3.55.08,7.1.08,3.55-.22,7.1-.22,3.55-.03,7.1-.03,3.55-.02,7.1-.02,3.55.19,7.1.19,3.55-.12,7.1-.12,3.55.09,7.1.09,3.55.09,7.1.09,3.55.09,7.1.09,3.55.09,7.1.09,3.55-.37,7.1-.37,3.55.21,7.1.21,3.55-.16,7.1-.16,3.55.01,7.1.01,3.55.23,7.1.23,3.55-.3,7.1-.3,3.55.03,7.1.03,3.55.31,7.1.31,3.55-.36,7.1-.36,3.55.13,7.1.13,3.55.22,7.1.22,3.55-.02,7.1-.02,3.55-.15,7.1-.15,3.55-.22,7.1-.22,3.55.27,7.1.27,3.55.18,7.11.18,3.55,0,7.11,0,3.55-.29,7.11-.29,3.55-.19,7.11-.19,3.55.27,7.11.27,3.55.19,7.1.19,3.55-.13,7.11-.13,3.55-.29,7.11-.29,3.55.07,7.11.07,3.55.06,7.11.06,3.55-.09,7.1-.09,3.55.37,7.11.37,3.56-.18,7.11-.18,3.56-.04,7.11-.04"/></g><g class="cls-10"><path class="cls-3" d="M-24.02,233.16c3.55,0,3.55-.12,7.1-.12s3.55.39,7.1.39,3.55.02,7.1.02,3.55-.05,7.1-.05,3.55-.22,7.1-.22,3.55-.05,7.1-.05,3.55.14,7.1.14,3.55.04,7.1.04,3.55-.11,7.1-.11,3.55-.2,7.1-.2,3.55.19,7.1.19,3.55,0,7.1,0,3.55.04,7.1.04,3.55-.24,7.1-.24,3.55.28,7.1.28,3.55-.07,7.1-.07,3.55-.03,7.1-.03,3.55.19,7.1.19,3.55,0,7.1,0,3.55-.17,7.1-.17,3.55.2,7.1.2,3.55-.02,7.1-.02,3.55-.06,7.1-.06,3.55-.11,7.1-.11,3.55.1,7.1.1,3.55-.23,7.1-.23,3.55.26,7.1.26,3.55-.08,7.1-.08,3.55.17,7.1.17,3.55-.11,7.1-.11,3.55-.25,7.1-.25,3.55.33,7.1.33,3.55-.23,7.1-.23,3.55.16,7.1.16,3.55,0,7.1,0,3.55-.04,7.1-.04,3.55.1,7.11.1,3.55.05,7.11.05,3.55-.19,7.11-.19,3.55.11,7.11.11,3.55-.19,7.11-.19,3.55.25,7.1.25,3.55-.22,7.11-.22,3.55-.04,7.11-.04,3.55-.09,7.11-.09,3.55.31,7.11.31,3.55-.27,7.1-.27,3.55.33,7.11.33,3.56-.48,7.11-.48,3.56.27,7.11.27"/></g><g class="cls-10"><path class="cls-3" d="M-24.02,257.2c3.55,0,3.55-.39,7.1-.39s3.55.35,7.1.35,3.55.07,7.1.07,3.55-.09,7.1-.09,3.55,0,7.1,0,3.55-.34,7.1-.34,3.55.29,7.1.29,3.55-.02,7.1-.02,3.55.14,7.1.14,3.55-.17,7.1-.17,3.55,0,7.1,0,3.55-.14,7.1-.14,3.55.05,7.1.05,3.55.33,7.1.33,3.55-.1,7.1-.1,3.55-.08,7.1-.08,3.55.16,7.1.16,3.55-.11,7.1-.11,3.55-.19,7.1-.19,3.55.3,7.1.3,3.55-.06,7.1-.06,3.55-.3,7.1-.3,3.55-.1,7.1-.1,3.55,0,7.1,0,3.55.28,7.1.28,3.55-.16,7.1-.16,3.55-.11,7.1-.11,3.55.19,7.1.19,3.55-.11,7.1-.11,3.55.37,7.1.37,3.55-.02,7.1-.02,3.55-.45,7.1-.45,3.55.34,7.1.34,3.55-.22,7.1-.22,3.55-.06,7.1-.06,3.55.33,7.1.33,3.55-.06,7.11-.06,3.55.14,7.11.14,3.55-.48,7.11-.48,3.55.22,7.11.22,3.55-.13,7.11-.13,3.55.38,7.1.38,3.55-.4,7.11-.4,3.55-.04,7.11-.04,3.55.09,7.11.09,3.55.32,7.11.32,3.55-.14,7.1-.14,3.55-.22,7.11-.22,3.56.4,7.11.4,3.56-.11,7.11-.11"/></g><g class="cls-10"><path class="cls-3" d="M-24.02,305.55c3.55,0,3.55-.23,7.1-.23s3.55.05,7.1.05,3.55.1,7.1.1,3.55.17,7.1.17,3.55-.13,7.1-.13,3.55-.01,7.1-.01,3.55-.19,7.1-.19,3.55-.02,7.1-.02,3.55.17,7.1.17,3.55.18,7.1.18,3.55-.23,7.1-.23,3.55.14,7.1.14,3.55-.03,7.1-.03,3.55-.19,7.1-.19,3.55.03,7.1.03,3.55.15,7.1.15,3.55.14,7.1.14,3.55,0,7.1,0,3.55.05,7.1.05,3.55-.27,7.1-.27,3.55.24,7.1.24,3.55-.17,7.1-.17,3.55-.06,7.1-.06,3.55-.07,7.1-.07,3.55.39,7.1.39,3.55-.1,7.1-.1,3.55.11,7.1.11,3.55-.06,7.1-.06,3.55.05,7.1.05,3.55-.32,7.1-.32,3.55.04,7.1.04,3.55.29,7.1.29,3.55-.33,7.1-.33,3.55.25,7.1.25,3.55,0,7.1,0,3.55-.25,7.1-.25,3.55.31,7.11.31,3.55-.09,7.11-.09,3.55-.07,7.11-.07,3.55-.22,7.11-.22,3.55.31,7.11.31,3.55-.31,7.1-.31,3.55.03,7.11.03,3.55-.04,7.11-.04,3.55.09,7.11.09,3.55-.01,7.11-.01,3.55.14,7.1.14,3.55-.05,7.11-.05,3.56,0,7.11,0,3.56.2,7.11.2"/></g><g class="cls-10"><path class="cls-3" d="M-24.02,281.05c3.55,0,3.55-.06,7.1-.06s3.55-.13,7.1-.13,3.55.12,7.1.12,3.55.03,7.1.03,3.55-.01,7.1-.01,3.55,0,7.1,0,3.55-.12,7.1-.12,3.55.22,7.1.22,3.55-.26,7.1-.26,3.55-.06,7.1-.06,3.55.05,7.1.05,3.55.14,7.1.14,3.55,0,7.1,0,3.55.03,7.1.03,3.55-.09,7.1-.09,3.55-.21,7.1-.21,3.55.16,7.1.16,3.55-.1,7.1-.1,3.55.2,7.1.2,3.55-.29,7.1-.29,3.55.4,7.1.4,3.55.01,7.1.01,3.55.02,7.1.02,3.55-.36,7.1-.36,3.55-.02,7.1-.02,3.55-.06,7.1-.06,3.55.44,7.1.44,3.55-.44,7.1-.44,3.55.06,7.1.06,3.55.12,7.1.12,3.55.2,7.1.2,3.55-.24,7.1-.24,3.55-.05,7.1-.05,3.55-.07,7.1-.07,3.55.21,7.1.21,3.55.11,7.1.11,3.55-.11,7.11-.11,3.55-.07,7.11-.07,3.55.24,7.11.24,3.55-.12,7.11-.12,3.55-.13,7.11-.13,3.55-.02,7.1-.02,3.55.17,7.11.17,3.55-.18,7.11-.18,3.55.17,7.11.17,3.55-.33,7.11-.33,3.55.42,7.1.42,3.55.03,7.11.03,3.56-.01,7.11-.01,3.56-.23,7.11-.23"/></g><g class="cls-10"><path class="cls-3" d="M-24.02,330.08c3.55,0,3.55.09,7.1.09s3.55-.18,7.1-.18,3.55.12,7.1.12,3.55.09,7.1.09,3.55-.25,7.1-.25,3.55.2,7.1.2,3.55-.07,7.1-.07,3.55.05,7.1.05,3.55.24,7.1.24,3.55,0,7.1,0,3.55-.07,7.1-.07,3.55-.12,7.1-.12,3.55.18,7.1.18,3.55,0,7.1,0,3.55-.06,7.1-.06,3.55-.33,7.1-.33,3.55.15,7.1.15,3.55-.05,7.1-.05,3.55.2,7.1.2,3.55.14,7.1.14,3.55-.06,7.1-.06,3.55.04,7.1.04,3.55-.29,7.1-.29,3.55.19,7.1.19,3.55-.31,7.1-.31,3.55.32,7.1.32,3.55-.08,7.1-.08,3.55-.25,7.1-.25,3.55.33,7.1.33,3.55-.17,7.1-.17,3.55.17,7.1.17,3.55-.06,7.1-.06,3.55.14,7.1.14,3.55-.33,7.1-.33,3.55.17,7.1.17,3.55-.2,7.1-.2,3.55.13,7.11.13,3.55.07,7.11.07,3.55.11,7.11.11,3.55-.19,7.11-.19,3.55.28,7.11.28,3.55-.08,7.1-.08,3.55-.34,7.11-.34,3.55.15,7.11.15,3.55.24,7.11.24,3.55-.14,7.11-.14,3.55.18,7.1.18,3.55-.06,7.11-.06,3.56-.19,7.11-.19,3.56.13,7.11.13"/></g><g class="cls-10"><path class="cls-3" d="M-24.02,355.02c3.55,0,3.55-.39,7.1-.39s3.55.04,7.1.04,3.55.4,7.1.4,3.55-.43,7.1-.43,3.55.47,7.1.47,3.55-.46,7.1-.46,3.55.05,7.1.05,3.55.3,7.1.3,3.55-.14,7.1-.14,3.55.25,7.1.25,3.55-.28,7.1-.28,3.55.19,7.1.19,3.55-.36,7.1-.36,3.55.4,7.1.4,3.55.05,7.1.05,3.55-.28,7.1-.28,3.55.25,7.1.25,3.55-.36,7.1-.36,3.55.11,7.1.11,3.55.08,7.1.08,3.55,0,7.1,0,3.55.07,7.1.07,3.55-.27,7.1-.27,3.55.34,7.1.34,3.55.02,7.1.02,3.55.05,7.1.05,3.55-.15,7.1-.15,3.55.01,7.1.01,3.55-.04,7.1-.04,3.55-.22,7.1-.22,3.55.43,7.1.43,3.55-.45,7.1-.45,3.55.01,7.1.01,3.55.32,7.1.32,3.55-.06,7.1-.06,3.55.07,7.1.07,3.55-.24,7.11-.24,3.55.16,7.11.16,3.55-.14,7.11-.14,3.55.08,7.11.08,3.55-.03,7.11-.03,3.55.19,7.1.19,3.55.09,7.11.09,3.55-.06,7.11-.06,3.55-.11,7.11-.11,3.55-.1,7.11-.1,3.55-.03,7.1-.03,3.55.08,7.11.08,3.56.05,7.11.05,3.56.12,7.11.12"/></g><g class="cls-10"><path class="cls-3" d="M-24.02,378.84c3.55,0,3.55.1,7.1.1s3.55-.44,7.1-.44,3.55.05,7.1.05,3.55.09,7.1.09,3.55.15,7.1.15,3.55-.02,7.1-.02,3.55.14,7.1.14,3.55-.2,7.1-.2,3.55.12,7.1.12,3.55-.09,7.1-.09,3.55-.14,7.1-.14,3.55.15,7.1.15,3.55.17,7.1.17,3.55-.36,7.1-.36,3.55.14,7.1.14,3.55.18,7.1.18,3.55-.32,7.1-.32,3.55.18,7.1.18,3.55.17,7.1.17,3.55-.37,7.1-.37,3.55.29,7.1.29,3.55.05,7.1.05,3.55.04,7.1.04,3.55-.42,7.1-.42,3.55.29,7.1.29,3.55.07,7.1.07,3.55-.27,7.1-.27,3.55.33,7.1.33,3.55-.29,7.1-.29,3.55-.02,7.1-.02,3.55.26,7.1.26,3.55-.19,7.1-.19,3.55.26,7.1.26,3.55-.11,7.1-.11,3.55-.07,7.1-.07,3.55-.28,7.1-.28,3.55.17,7.11.17,3.55.1,7.11.1,3.55.19,7.11.19,3.55-.43,7.11-.43,3.55.01,7.11.01,3.55.34,7.1.34,3.55-.2,7.11-.2,3.55-.09,7.11-.09,3.55-.04,7.11-.04,3.55.04,7.11.04,3.55.27,7.1.27,3.55-.35,7.11-.35,3.56.22,7.11.22,3.56.13,7.11.13"/></g><g class="cls-10"><path class="cls-3" d="M-24.02,427.1c3.55,0,3.55.1,7.1.1s3.55-.2,7.1-.2,3.55-.02,7.1-.02,3.55.08,7.1.08,3.55.06,7.1.06,3.55.25,7.1.25,3.55-.15,7.1-.15,3.55.05,7.1.05,3.55-.01,7.1-.01,3.55-.17,7.1-.17,3.55.28,7.1.28,3.55-.08,7.1-.08,3.55.15,7.1.15,3.55-.23,7.1-.23,3.55-.15,7.1-.15,3.55.2,7.1.2,3.55-.28,7.1-.28,3.55.4,7.1.4,3.55-.35,7.1-.35,3.55.1,7.1.1,3.55.14,7.1.14,3.55.06,7.1.06,3.55-.11,7.1-.11,3.55-.04,7.1-.04,3.55-.09,7.1-.09,3.55.31,7.1.31,3.55.03,7.1.03,3.55-.07,7.1-.07,3.55.08,7.1.08,3.55-.37,7.1-.37,3.55.34,7.1.34,3.55-.32,7.1-.32,3.55-.11,7.1-.11,3.55.1,7.1.1,3.55.18,7.1.18,3.55.14,7.1.14,3.55-.28,7.11-.28,3.55.13,7.11.13,3.55-.22,7.11-.22,3.55.32,7.11.32,3.55-.25,7.11-.25,3.55.26,7.1.26,3.55-.06,7.11-.06,3.55-.32,7.11-.32,3.55.17,7.11.17,3.55.22,7.11.22,3.55-.13,7.1-.13,3.55-.13,7.11-.13,3.56.14,7.11.14,3.56.12,7.11.12"/></g><g class="cls-10"><path class="cls-3" d="M-24.02,402.44c3.55,0,3.55.11,7.1.11s3.55-.21,7.1-.21,3.55.33,7.1.33,3.55.06,7.1.06,3.55-.12,7.1-.12,3.55-.18,7.1-.18,3.55.25,7.1.25,3.55.05,7.1.05,3.55-.26,7.1-.26,3.55.17,7.1.17,3.55.14,7.1.14,3.55-.04,7.1-.04,3.55-.38,7.1-.38,3.55.03,7.1.03,3.55.25,7.1.25,3.55-.27,7.1-.27,3.55.28,7.1.28,3.55-.13,7.1-.13,3.55.08,7.1.08,3.55.06,7.1.06,3.55-.15,7.1-.15,3.55.08,7.1.08,3.55.06,7.1.06,3.55-.26,7.1-.26,3.55.13,7.1.13,3.55-.2,7.1-.2,3.55.15,7.1.15,3.55.1,7.1.1,3.55-.17,7.1-.17,3.55-.07,7.1-.07,3.55.02,7.1.02,3.55.41,7.1.41,3.55-.36,7.1-.36,3.55.04,7.1.04,3.55.19,7.1.19,3.55,0,7.1,0,3.55-.2,7.11-.2,3.55.19,7.11.19,3.55-.06,7.11-.06,3.55-.16,7.11-.16,3.55.2,7.11.2,3.55.11,7.1.11,3.55-.27,7.11-.27,3.55.21,7.11.21,3.55.1,7.11.1,3.55-.42,7.11-.42,3.55.06,7.1.06,3.55.29,7.11.29,3.56-.03,7.11-.03,3.56.12,7.11.12"/></g><g class="cls-10"><path class="cls-3" d="M-24.02,452.05c3.55,0,3.55-.06,7.1-.06s3.55-.13,7.1-.13,3.55.12,7.1.12,3.55.03,7.1.03,3.55-.01,7.1-.01,3.55,0,7.1,0,3.55-.12,7.1-.12,3.55.22,7.1.22,3.55-.26,7.1-.26,3.55-.06,7.1-.06,3.55.05,7.1.05,3.55.14,7.1.14,3.55,0,7.1,0,3.55.03,7.1.03,3.55-.09,7.1-.09,3.55-.21,7.1-.21,3.55.16,7.1.16,3.55-.1,7.1-.1,3.55.2,7.1.2,3.55-.29,7.1-.29,3.55.4,7.1.4,3.55.01,7.1.01,3.55.02,7.1.02,3.55-.36,7.1-.36,3.55-.02,7.1-.02,3.55-.06,7.1-.06,3.55.44,7.1.44,3.55-.44,7.1-.44,3.55.06,7.1.06,3.55.12,7.1.12,3.55.2,7.1.2,3.55-.24,7.1-.24,3.55-.05,7.1-.05,3.55-.07,7.1-.07,3.55.21,7.1.21,3.55.11,7.1.11,3.55-.11,7.11-.11,3.55-.07,7.11-.07,3.55.24,7.11.24,3.55-.12,7.11-.12,3.55-.13,7.11-.13,3.55-.02,7.1-.02,3.55.17,7.11.17,3.55-.18,7.11-.18,3.55.17,7.11.17,3.55-.33,7.11-.33,3.55.42,7.1.42,3.55.03,7.11.03,3.56-.01,7.11-.01,3.56-.23,7.11-.23"/></g><g class="cls-10"><path class="cls-2" d="M65,465.7c-.11-1.89-.26-1.88-.37-3.77s-.05-1.89-.16-3.78-.12-1.89-.23-3.78c-.11-1.89-.03-1.9-.13-3.79s-.08-1.89-.19-3.78-.12-1.89-.23-3.78-.16-1.89-.27-3.78q-.11-1.89-.21-3.79c-.11-1.89-.08-1.89-.19-3.79s-.16-1.89-.27-3.78-.02-1.9-.13-3.79-.22-1.89-.32-3.78.04-1.9-.06-3.79c-.11-1.89-.09-1.89-.2-3.78-.11-1.89-.19-1.89-.3-3.78-.11-1.89-.17-1.89-.27-3.78s-.1-1.89-.2-3.78c-.11-1.89-.06-1.89-.17-3.79-.11-1.89-.18-1.89-.29-3.78-.11-1.89-.13-1.89-.24-3.78s.13-1.91.03-3.8-.27-1.88-.38-3.78-.11-1.89-.22-3.79c-.11-1.89-.12-1.89-.23-3.78-.11-1.89-.04-1.9-.15-3.79s-.12-1.89-.23-3.78,0-1.9-.1-3.79c-.11-1.89-.16-1.89-.27-3.78s-.24-1.88-.35-3.78c-.11-1.89-.13-1.89-.24-3.78-.11-1.89-.14-1.89-.25-3.78-.11-1.89-.07-1.89-.18-3.79-.11-1.89.05-1.9-.06-3.79s-.19-1.89-.3-3.78-.1-1.89-.2-3.79-.15-1.89-.25-3.78.05-1.9-.06-3.79c-.11-1.89-.26-1.88-.37-3.78s-.11-1.89-.22-3.78c-.11-1.89-.13-1.89-.23-3.78-.11-1.89.06-1.9-.04-3.79-.11-1.89-.21-1.89-.32-3.78s-.03-1.9-.14-3.79c-.11-1.89-.25-1.88-.36-3.78s.08-1.9-.02-3.8-.24-1.89-.34-3.78-.2-1.89-.31-3.78,0-1.9-.1-3.79-.05-1.9-.16-3.79-.07-1.89-.18-3.79c-.11-1.89-.17-1.89-.27-3.78s-.2-1.89-.31-3.78-.05-1.9-.16-3.79,0-1.9-.11-3.79c-.11-1.89-.17-1.89-.28-3.78-.11-1.89-.17-1.89-.28-3.78-.11-1.89-.05-1.9-.15-3.79s-.16-1.89-.26-3.78-.1-1.89-.2-3.79c-.11-1.89-.19-1.89-.29-3.78s.03-1.9-.08-3.79c-.11-1.89-.12-1.89-.23-3.78s-.08-1.89-.18-3.79c-.11-1.89-.21-1.89-.32-3.78-.11-1.89-.03-1.9-.14-3.79-.11-1.89-.24-1.89-.34-3.78s-.08-1.89-.19-3.79-.07-1.89-.18-3.79-.16-1.89-.27-3.78c-.11-1.89-.02-1.9-.12-3.79-.11-1.89-.05-1.9-.16-3.79-.11-1.89-.19-1.89-.3-3.78s.02-1.9-.09-3.79-.24-1.88-.35-3.77c-.11-1.89.03-1.9-.08-3.79-.11-1.89-.31-1.88-.42-3.78-.11-1.89-.04-1.9-.15-3.79-.11-1.89-.04-1.9-.15-3.79s-.21-1.89-.31-3.78-.03-1.9-.13-3.79-.11-1.89-.21-3.78c-.11-1.89-.18-1.89-.29-3.78s-.1-1.89-.21-3.79c-.11-1.89-.11-1.89-.22-3.79-.11-1.89.09-1.9-.02-3.8-.11-1.89-.26-1.88-.37-3.78s-.17-1.89-.28-3.78c-.11-1.89.12-1.91.01-3.8s-.12-1.89-.23-3.79c-.11-1.89-.17-1.89-.28-3.78-.11-1.89-.22-1.89-.32-3.78-.11-1.89-.17-1.89-.28-3.78q-.11-1.89-.22-3.79c-.11-1.89.11-1.91,0-3.8-.11-1.89-.31-1.88-.42-3.78-.11-1.89,0-1.9-.11-3.79-.11-1.89-.14-1.89-.25-3.79-.11-1.89-.06-1.9-.17-3.79s-.12-1.89-.23-3.79c-.11-1.89-.07-1.9-.17-3.79-.11-1.89-.02-1.9-.12-3.79-.11-1.89-.27-1.88-.38-3.78s-.19-1.89-.3-3.78-.11-1.89-.21-3.79.07-1.9-.03-3.8-.24-1.89-.35-3.78c-.11-1.9.09-1.91-.02-3.8s-.2-1.89-.31-3.78c-.11-1.89-.12-1.89-.23-3.79s-.12-1.89-.23-3.78c-.11-1.89-.06-1.9-.17-3.79s-.25-1.89-.36-3.78-.07-1.9-.18-3.79,0-1.9-.11-3.79-.08-1.9-.19-3.79-.24-1.89-.35-3.78-.01-1.9-.12-3.8-.08-1.9-.19-3.79-.14-1.89-.24-3.79-.2-1.89-.31-3.79c-.11-1.9.1-1.91,0-3.8s-.15-1.9-.26-3.8-.21-1.89-.31-3.79"/></g></g><path class="cls-13" d="M312.29,69.83H10.12l-1.85-36.99c-.55-11.17,6.73-20.23,16.28-20.23h267.59c9.55,0,17.74,9.05,18.3,20.23l1.85,36.99Z"/><path class="cls-9" d="M205.92,99.19c-.82-4.29-1.73-8.69-4.18-12.3-2.06-3.04-4.73-6.55-8.41-6.55l-10.73.13-2.39,60.09c4.45,0,9.26,0,13.08-2.29,3.62-2.17,5.98-5.89,8.21-9.48.99-1.59,1.98-3.2,2.66-4.94.63-1.61.99-3.32,1.34-5.02.79-3.8,1.59-7.64,1.5-11.52-.06-2.73-.56-5.43-1.08-8.12ZM196.03,111.69c-.19,1.15-.45,2.29-.72,3.42-.26,1.1-.52,2.22-.87,3.3-.73,2.26-1.6,4.9-3.08,6.75l.54-33.07c2.15,0,2.84,3.14,3.31,5.24,1.07,4.7,1.6,9.59.82,14.35Z"/><path class="cls-4" d="M237.2,86.58c-1.04-3.06-3.13-5.93-6.12-7.17-3.46-1.44-7.63-.42-10.52,1.97-2.9,2.38-4.63,5.94-5.49,9.59-2.54,10.83-2.21,22.38-1.27,33.48.21,2.52-.08,5.27.96,7.61,1.04,2.34,2.49,4.91,4.62,6.41,1.67,1.18,3.74,1.65,5.74,2.08,1.56.34,3.38.73,4.81-.04s2.74-2,3.95-3.16c.45-.43.91-.86,1.31-1.35.92-1.13,1.33-2.3,1.77-3.64.51-1.55,1.08-3.08,1.41-4.67.95-4.5,1.13-9.12,1.24-13.71.22-9.14.58-18.62-2.4-27.39ZM229.06,122.13c-.13,2.55-.27,5.16-1.28,7.51-.24.57-.64,1.2-1.26,1.24-.73.04-1.21-.74-1.48-1.41-1.71-4.35-1.75-9.14-1.77-13.81,0-5.34-.15-10.68,0-16.02.06-2.52.45-5.41,1.42-7.75.25-.6.57-1.22,1.13-1.57,2.3-1.43,3.46,2.59,3.56,4.08.65,9.23.17,18.49-.31,27.73Z"/><path class="cls-5" d="M140.25,86.58c-1.04-3.06-3.13-5.93-6.12-7.17-3.46-1.44-7.63-.42-10.52,1.97-2.9,2.38-4.63,5.94-5.49,9.59-2.54,10.83-2.21,22.38-1.27,33.48.21,2.52-.08,5.27.96,7.61,1.04,2.34,2.49,4.91,4.62,6.41,1.67,1.18,3.74,1.65,5.74,2.08,1.56.34,3.38.73,4.81-.04s2.74-2,3.95-3.16c.45-.43.91-.86,1.31-1.35.92-1.13,1.33-2.3,1.77-3.64.51-1.55,1.08-3.08,1.41-4.67.95-4.5,1.13-9.12,1.24-13.71.22-9.14.58-18.62-2.4-27.39ZM132.12,122.13c-.13,2.55-.27,5.16-1.28,7.51-.24.57-.64,1.2-1.26,1.24-.73.04-1.21-.74-1.48-1.41-1.71-4.35-1.75-9.14-1.77-13.81,0-5.34-.15-10.68,0-16.02.06-2.52.45-5.41,1.42-7.75.25-.6.57-1.22,1.13-1.57,2.3-1.43,3.46,2.59,3.56,4.08.65,9.23.17,18.49-.31,27.73Z"/><polygon class="cls-6" points="80.8 91.37 80.8 80.46 108.62 80.46 107.74 91.37 99.17 91.37 96.9 139.24 86.23 138.48 87.98 91.02 80.8 91.37"/><path class="cls-7" d="M257.77,92.03c-.45,1.71-.89,3.47-.73,5.23s1.05,3.56,2.65,4.33c1.6.76,3.62.29,4.92-.92s1.9-3.03,1.89-4.81c-.02-2.15-1.02-4.39-2.92-5.39-1.9-1-4.65-.32-5.47,1.66"/><path class="cls-7" d="M257.77,115.24c-.45,1.71-.89,3.47-.73,5.23s1.05,3.56,2.65,4.33c1.6.76,3.62.29,4.92-.92s1.9-3.03,1.89-4.81c-.02-2.15-1.02-4.39-2.92-5.39-1.9-1-4.65-.32-5.47,1.66"/><path class="cls-11" d="M53.25,178.89c.03-.43.1-.86.17-1.32.51-3.23.79-3.4.91-4.19.22-1.38.33-2.8.55-4.19.15-.96.14-2.51,1.67-2.51.55,0,1.53.23,1.39.89-.42,1.95-.64,3.86-.95,5.8,4.22,0,6.18.26,6.66,4.38.07.69-.06,1.52-.17,2.24-.21,1.35-.61,2.7-.81,4.02-.4,2.57-.83,6.2-4.42,7.02-1.13.26-2.46.16-3.77.16-3.36-.36-2.58-3.53-2.21-5.83.34-2.18.75-4.32.99-6.49ZM54.75,188.12c.08.43.49.59.93.59,1.06,0,2.28.07,3.01-.86.72-1.12,1.55-6.13,1.79-7.71.32-2.01.46-4.29-2.35-4.29-.55,0-1.1.07-1.67.2-.25,1.15-.43,2.27-.61,3.43-.48,3.07-1.17,8.34-1.1,8.64Z"/><path class="cls-11" d="M75.77,175.49c-.09.59-.84,1.19-1.5,1.19-.51,0-.91-.23-1.28-.4-.55-.23-1.2-.49-1.85-.49-1.2,0-1.42.73-1.57,1.65l-.28,1.78c-.31,1.98-.51,3.92-.82,5.9-.23,1.48-.48,3.03-1.03,4.48-.24.63-.69,1.12-1.45,1.12-1.38,0-1.29-1.29-1.15-2.18.35-2.21.8-4.38,1.15-6.59.24-1.52.33-3.03.57-4.55.4-2.57,2.52-4.22,5.36-4.22,1.49,0,3.03.89,3.81,1.91.03.07.06.33.05.4Z"/><path class="cls-11" d="M85.04,184.1c-.08,1.22-.27,2.41-.46,3.63-.44,2.8-2.88,3.49-5.57,3.49s-4.76-1.88-4.37-4.35c.33-2.11,1.84-4.32,4.25-5.04,1.15-.4,2.54-.4,3.75-.69.17-1.05.8-4.42-.04-5.08-.18-.03-.32-.07-.5-.07-1.93,0-2.99,1.91-4.27,1.91-.91,0-.99-.63-.88-1.32.3-1.88,3.67-3.2,5.45-3.2,3.78,0,3.77,3.59,3.35,6.26-.23,1.48-.58,2.97-.7,4.45ZM81.83,187.36c.19-1.19.19-2.37.38-3.56-2.1.13-4.34.76-4.69,3-.18,1.12.84,1.81,2.01,1.81,1.46,0,2.1.07,2.31-1.25Z"/><path class="cls-11" d="M87.76,189.73l2.29-15c.13-.86.77-1.68,1.83-1.68.8,0,1.22.59,1.11,1.29l-1.12,6.89c-.42,2.67-.74,5.37-1.16,8.04-.14.89-.77,1.68-1.87,1.68-.73,0-1.19-.56-1.08-1.22ZM90.68,169.53c.1-.66.48-2.57,1.57-2.57,1.67,0,1.56,2.34,1.39,3.43-.11.69-.4,1.62-1.38,1.62-1.71,0-1.79-1.09-1.58-2.47Z"/><path class="cls-11" d="M106.76,177.9l-1.14,7.22c-.16,1.02-.14,2.08-.31,3.1-.17,1.09-.08,2.57-1.75,2.57s-1.21-2.27-1.05-3.26l.5-3.17c.36-2.27.99-4.68.98-6.96-.01-1.09-.49-1.75-1.76-1.75-.73,0-2.68.86-2.91,1.58-.2.56-.32,1.12-.41,1.68-.42,2.67-.73,5.34-1.15,8.01-.13.86-.22,3.96-1.82,3.96s-1.4-1.94-1.24-3l1.07-6.79c.23-1.48.54-2.97.95-4.45.56-1.91,2.14-2.7,4.11-3.2.68-.17,1.38-.23,2.07-.23,3.68,0,4.32,1.68,3.85,4.68Z"/><path class="cls-11" d="M116.32,177.5c.15-.92.23-1.94-1.19-1.94-.91,0-2.49.36-2.66,1.38-.26,1.65,2,3.72,3.11,4.75,1.43,1.32,2.64,2.64,2.31,4.75-.4,2.57-1.81,4.78-5.01,4.78-2.91,0-5.09-1.91-4.66-4.62.13-.82.69-2.08,1.82-2.08.87,0,1.31.69,1.2,1.42-.22,1.38-.27,2.87,1.73,2.87,1.06,0,1.9-.96,2.18-1.81.34-2.64-3.32-4.32-4.38-6.4-.19-.4-.38-.82-.61-1.22-.49-.79-.74-1.32-.57-2.37.17-1.09.63-2.14,1.75-2.8,1.08-.63,2.65-1.09,3.85-1.09,1.56,0,2.91.46,3.48,1.71.36.69.64,1.52.51,2.34-.11.73-.65,1.81-1.63,1.81-.84,0-1.33-.79-1.22-1.48Z"/><path class="cls-11" d="M129.05,186.37c.95,0,1.14.63,1.02,1.38-.33,2.11-2.52,3.53-4.74,3.53-1.42,0-2.99-.89-3.55-1.98-.41-.86-.27-2.01-.12-2.97l1.48-9.89c-.95,0-2.54-.07-2.35-1.25.07-.43.89-1.48,1.4-1.48l1.41.03c-.03-1.22.13-2.47.33-3.73.07-.46.45-1.25.77-1.65.09-.33.59-.53,1.03-.53.69,0,1.54.36,1.43,1.09l-.48,3.07-.2,1.75c.7-.03,1.4-.1,2.09-.1.76,0,1.68.63,1.57,1.38-.11.69-.63,1.02-1.37,1.05l-2.34.1-.48.03c.13.1-.69,5.34-.91,6.69-.4,2.54-.54,2.54-.61,3.4-.1,1.32.13,2.44,1.29,2.44.98,0,1.39-.73,1.86-1.42l.14-.16c.32-.43.74-.79,1.33-.79Z"/><path class="cls-11" d="M148.51,179.98c.19.89.11,1.85-.04,2.8-.72,4.55-3.26,8.44-8.93,8.44-5.31,0-8.39-4.02-7.66-8.67l.15-.92c.6-3.79,5.32-8.37,9.72-8.37,4.11,0,6.38,3.43,6.77,6.73ZM142.82,187.92c1.6-1.15,2.53-3.36,2.79-5.04.23-1.48.14-4.12-.85-5.21-.28-.33-.59-.63-.91-.92-.6-.59-1.51-1.02-2.5-1.02-2.29,0-4.21,1.78-5.45,3.43-.78,1.06-1.12,2.27-1.31,3.46-.5,3.16,1.3,5.37,4.6,5.9.21.03.43.03.65.03.95,0,2.12-.03,2.97-.63Z"/><path class="cls-11" d="M161.19,175.49c-.09.59-.84,1.19-1.5,1.19-.51,0-.91-.23-1.28-.4-.55-.23-1.2-.49-1.85-.49-1.2,0-1.42.73-1.57,1.65l-.28,1.78c-.31,1.98-.51,3.92-.82,5.9-.23,1.48-.48,3.03-1.03,4.48-.24.63-.69,1.12-1.45,1.12-1.38,0-1.29-1.29-1.15-2.18.35-2.21.8-4.38,1.15-6.59.24-1.52.33-3.03.57-4.55.4-2.57,2.52-4.22,5.36-4.22,1.49,0,3.03.89,3.81,1.91.03.07.06.33.05.4Z"/><path class="cls-11" d="M175.83,188.38c.02.36.07.73.01,1.09-.14.89-.75,1.55-1.81,1.55l-.79-.3c-.41-.4-.32-.96-.23-1.52l1.8-11.01c.16-.99.19-2.37-1.19-2.37-1.6,0-2.05,1.48-2.23,2.6l-1.12,7.15c-.2,1.29-.29,2.54-.49,3.79-.1.66-.74,1.68-1.57,1.68-1.71,0-1.06-3.66-.91-4.65.39-2.51.97-5.01,1.36-7.48.18-1.15.34-3.1-1.4-3.1-1.16,0-1.69.79-1.83,1.71l-.29,2.31c-.29,1.81-.68,3.63-.96,5.44-.21,1.32-.15,2.57-.36,3.89-.1.63-.78,1.71-1.58,1.71-1.02,0-1.35-.66-1.22-1.52.6-3.82.91-7.61,1.51-11.44.42-2.67,1.4-4.71,4.78-4.71,1.24,0,2.44.46,3.22,1.25,1.08-.86,2.51-1.12,3.82-1.12,3.82,0,3.35,3.43,2.95,6.03-.25,1.62-.73,3.23-.98,4.85-.19,1.19-.59,3.03-.47,4.15Z"/><path class="cls-11" d="M199.86,177.9l-1.14,7.22c-.16,1.02-.14,2.08-.31,3.1-.17,1.09-.08,2.57-1.75,2.57s-1.21-2.27-1.05-3.26l.5-3.17c.36-2.27.99-4.68.98-6.96-.01-1.09-.49-1.75-1.76-1.75-.73,0-2.68.86-2.91,1.58-.2.56-.32,1.12-.41,1.68-.42,2.67-.73,5.34-1.15,8.01-.13.86-.22,3.96-1.82,3.96s-1.4-1.94-1.24-3l1.07-6.79c.23-1.48.54-2.97.95-4.45.56-1.91,2.14-2.7,4.11-3.2.68-.17,1.38-.23,2.07-.23,3.68,0,4.32,1.68,3.85,4.68Z"/><path class="cls-11" d="M211.76,187.43c-.41,2.6-2.22,3.73-4.99,3.73-2.29,0-4.01-.66-4.88-2.54-.78-1.75-.06-6.07.26-8.11.54-3.43,1.46-7.42,6.23-7.42,3.86,0,4.35,1.71,4.33,4.88-.02,1.02,0,2.14-.18,3.2-.1.66-1.22,1.29-2.13,1.29-.51,0-.96-.17-1.47-.17-1.38,0-2.79-.07-4.16.1l-.36,2.74c-.37,2.34.47,3.46,3.13,3.46,1.56,0,1.1-.76,1.56-1.38.29-.66,1.01-1.32,1.81-1.32s.94.99.85,1.55ZM206.55,176.09c-.83.89-1.1,1.68-1.27,2.74-.06.36-.11.69-.13,1.05l2.72.03h1.75c.09-.79.53-3.63-.17-4.02-.34-.16-.8-.26-1.23-.26-.47,0-1.32.07-1.67.46Z"/><path class="cls-11" d="M232.39,174.73c-.15.96-.54,1.81-1.04,2.7-1.44,3.82-2.97,6.82-3.46,8.14-.44,1.15-1.52,5.24-3.12,5.24-1.13,0-1.13-1.15-1.16-2.11-.06-1.25-.24-3.36-.34-4.55-.12-1.52-.15-3-.23-5.51-.83,2.51-1.32,3.99-1.96,5.51-.52,1.22-1.24,3.26-1.7,4.55-.37.96-.77,2.11-1.79,2.11-1.09,0-1.32-1.35-1.37-2.14-.15-2.08-.37-4.12-.48-6.2-.13-2.41-.52-4.55-.51-4.88-.21-.76-.38-1.52-.26-2.27-.04-.2-.05-.4-.02-.59.11-.73.64-1.09,1.44-1.09.69,0,1.09.23,1.17.92l.68,6.33c.14,1.42,0,3.2-.08,5.83.89-2.9,1.66-5.01,2.33-6.69.59-1.42,1.16-5.31,3.18-5.21,1.37-.17,1.32,1.09,1.3,2.41,0,.96,0,1.81.19,2.74.15.69.25,1.19.2,1.98-.05,1.02.24,1.94.1,4.22,1.7-4.32,2.58-8.31,4.38-11.64.3-.53.83-.89,1.45-.89.91,0,1.23.3,1.1,1.09Z"/><path class="cls-11" d="M65.7,226.95c-.36,2.27-2.71,3.82-5.11,3.82-1.56,0-3.37-.76-4.18-1.88-.69-.96-.59-2.24-.41-3.43l.35-1.98c.21-1.35.24-2.67.45-4.02.49-3.13,1.31-6.73,5.79-6.73.4,0,2.06.07,2.38.17,1.46.43,2.42,2.18,2.2,3.59-.09.59-.63,1.25-1.36,1.25-2.22,0-.42-2.44-2.96-2.44-2,0-2.75,1.06-3.01,2.7-.27,1.71-.35,3.4-.62,5.11-.32,2.01-1.69,4.98,1.58,4.98,1.06,0,1.4-.59,1.86-1.38.35-.63.71-1.29,1.62-1.29,1.02,0,1.58.63,1.44,1.52Z"/><path class="cls-11" d="M84.55,219.53c.19.89.11,1.85-.04,2.8-.72,4.55-3.26,8.44-8.93,8.44-5.31,0-8.39-4.02-7.66-8.67l.15-.92c.6-3.79,5.32-8.37,9.72-8.37,4.11,0,6.38,3.43,6.77,6.73ZM78.86,227.48c1.6-1.15,2.53-3.36,2.79-5.04.23-1.48.14-4.12-.85-5.21-.28-.33-.59-.63-.91-.92-.6-.59-1.51-1.02-2.5-1.02-2.29,0-4.21,1.78-5.45,3.43-.78,1.05-1.12,2.27-1.31,3.46-.5,3.16,1.3,5.37,4.6,5.9.21.03.43.03.65.03.95,0,2.12-.03,2.97-.63Z"/><path class="cls-11" d="M91.67,229.85l-.36.69c-.34.3-.76.46-1.16.46-.58,0-1.02-.23-1.53-.46-2.31-1.06-1.71-5.31-1.4-7.32l.79-5.01c.5-3.2.86-6.4,1.36-9.59.17-1.06.84-1.65,2.01-1.65.8,0,1.19.56,1.08,1.25l-1.25,7.71c-.21,1.35-.34,2.83-.73,4.19-.25.92-.36,1.85-.51,2.77-.26,1.68-.99,4.91,1.07,5.67.18.23.84.92.64,1.29ZM99.46,230.05l-.36.66c-.34.3-.74.53-1.17.53-.58,0-1.02-.23-1.49-.46-2.72-1.22-1.72-5.5-1.34-7.91l.94-5.97c.5-3.2.86-6.4,1.36-9.59.14-.89.8-1.65,1.86-1.65.8,0,1.18.59,1.07,1.29l-2.54,15.89c-.28,1.78-1.03,5.14,1.06,5.97.15.23.76.96.6,1.25Z"/><path class="cls-11" d="M111.37,226.98c-.41,2.6-2.22,3.73-4.99,3.73-2.29,0-4.01-.66-4.88-2.54-.78-1.75-.07-6.07.26-8.11.54-3.43,1.46-7.42,6.23-7.42,3.86,0,4.35,1.71,4.33,4.88-.02,1.02,0,2.14-.18,3.2-.1.66-1.22,1.29-2.13,1.29-.51,0-.96-.17-1.47-.17-1.38,0-2.79-.07-4.16.1l-.36,2.74c-.37,2.34.48,3.46,3.13,3.46,1.57,0,1.1-.76,1.56-1.38.29-.66,1.01-1.32,1.81-1.32s.94.99.85,1.55ZM106.17,215.64c-.83.89-1.1,1.68-1.27,2.74-.06.36-.11.69-.13,1.05l2.72.03h1.75c.09-.79.53-3.63-.17-4.02-.34-.17-.8-.26-1.23-.26-.47,0-1.32.07-1.67.46Z"/><path class="cls-11" d="M123.46,226.95c-.36,2.27-2.71,3.82-5.11,3.82-1.56,0-3.37-.76-4.18-1.88-.69-.96-.59-2.24-.41-3.43l.35-1.98c.21-1.35.24-2.67.45-4.02.49-3.13,1.31-6.73,5.79-6.73.4,0,2.06.07,2.38.17,1.46.43,2.42,2.18,2.2,3.59-.09.59-.63,1.25-1.36,1.25-2.22,0-.42-2.44-2.96-2.44-2,0-2.75,1.06-3.01,2.7-.27,1.71-.35,3.4-.62,5.11-.32,2.01-1.69,4.98,1.58,4.98,1.06,0,1.4-.59,1.86-1.38.35-.63.71-1.29,1.62-1.29,1.02,0,1.58.63,1.44,1.52Z"/><path class="cls-11" d="M134.65,225.93c.95,0,1.14.63,1.02,1.38-.33,2.11-2.52,3.53-4.74,3.53-1.42,0-2.99-.89-3.55-1.98-.41-.86-.27-2.01-.12-2.97l1.48-9.89c-.95,0-2.54-.07-2.35-1.25.07-.43.89-1.48,1.4-1.48l1.41.03c-.03-1.22.13-2.47.33-3.73.07-.46.45-1.25.77-1.65.09-.33.59-.53,1.03-.53.69,0,1.54.36,1.43,1.09l-.48,3.07-.2,1.75c.7-.03,1.4-.1,2.09-.1.76,0,1.68.63,1.57,1.38-.11.69-.63,1.02-1.37,1.06l-2.34.1-.48.03c.13.1-.69,5.34-.91,6.69-.4,2.54-.54,2.54-.61,3.4-.1,1.32.13,2.44,1.29,2.44.98,0,1.39-.73,1.86-1.42l.14-.17c.32-.43.74-.79,1.33-.79Z"/><path class="cls-11" d="M137.76,229.29l2.29-15c.13-.86.77-1.68,1.83-1.68.8,0,1.22.59,1.11,1.29l-1.12,6.89c-.42,2.67-.74,5.37-1.16,8.04-.14.89-.77,1.68-1.87,1.68-.73,0-1.19-.56-1.08-1.22ZM140.68,209.08c.1-.66.48-2.57,1.57-2.57,1.67,0,1.56,2.34,1.39,3.43-.11.69-.4,1.62-1.38,1.62-1.71,0-1.79-1.09-1.58-2.47Z"/><path class="cls-11" d="M161.17,219.53c.19.89.11,1.85-.04,2.8-.72,4.55-3.26,8.44-8.93,8.44-5.31,0-8.39-4.02-7.66-8.67l.15-.92c.6-3.79,5.32-8.37,9.72-8.37,4.11,0,6.38,3.43,6.77,6.73ZM155.48,227.48c1.6-1.15,2.53-3.36,2.79-5.04.23-1.48.14-4.12-.85-5.21-.28-.33-.59-.63-.91-.92-.6-.59-1.51-1.02-2.5-1.02-2.29,0-4.21,1.78-5.45,3.43-.78,1.05-1.12,2.27-1.31,3.46-.5,3.16,1.3,5.37,4.6,5.9.21.03.43.03.65.03.95,0,2.12-.03,2.97-.63Z"/><path class="cls-11" d="M175.07,217.46l-1.14,7.22c-.16,1.02-.14,2.08-.31,3.1-.17,1.09-.08,2.57-1.75,2.57s-1.21-2.27-1.05-3.26l.5-3.16c.36-2.27.99-4.68.98-6.96-.01-1.09-.49-1.75-1.76-1.75-.73,0-2.68.86-2.91,1.58-.2.56-.32,1.12-.41,1.68-.42,2.67-.73,5.34-1.15,8.01-.13.86-.22,3.96-1.82,3.96s-1.4-1.94-1.24-3l1.07-6.79c.23-1.48.54-2.97.95-4.45.56-1.91,2.14-2.7,4.11-3.2.68-.17,1.38-.23,2.07-.23,3.68,0,4.32,1.68,3.85,4.68Z"/><path class="cls-11" d="M184.63,217.06c.15-.92.23-1.94-1.19-1.94-.91,0-2.5.36-2.66,1.38-.26,1.65,2,3.72,3.11,4.75,1.43,1.32,2.64,2.64,2.31,4.75-.4,2.57-1.81,4.78-5.01,4.78-2.91,0-5.09-1.91-4.66-4.62.13-.82.69-2.08,1.82-2.08.87,0,1.31.69,1.2,1.42-.22,1.38-.27,2.87,1.73,2.87,1.06,0,1.9-.96,2.18-1.81.34-2.64-3.32-4.32-4.38-6.4-.19-.4-.38-.82-.61-1.22-.49-.79-.74-1.32-.57-2.37.17-1.09.63-2.14,1.75-2.8,1.08-.63,2.65-1.09,3.85-1.09,1.56,0,2.91.46,3.48,1.71.36.69.64,1.52.51,2.34-.11.73-.65,1.81-1.63,1.81-.84,0-1.33-.79-1.22-1.48Z"/><path class="cls-11" d="M76.29,358.65c3.05,1.22,2.76,3.76,2.36,6.53-.21,1.55-.34,3.1-.59,4.65-.53,3.4-2.04,6.69-6.55,6.69-.95,0-1.87-.13-2.7-.43-.3,1.91-.45,3.79-.75,5.7-.18,1.12-.44,3.92-1.3,4.78l-.63.3c-1.38,0-1.72-.63-1.53-1.81.3-1.91.74-3.79,1.04-5.7.35-2.24.52-4.48.8-6.73.19-1.42.37-2.84.45-4.25.05-1.48.03-3,.27-4.48.17-1.09.42-2.21,1.19-3.17,1.17-1.68,3.8-2.44,5.77-2.44.76,0,1.51.1,2.16.36ZM75.27,369.56c.32-2.01.33-2.31.37-2.57.18-1.81,1.24-6.26-1.78-6.26-.91,0-2.25.43-3,1.02-.58.46-.82,1.94-.91,2.57-.15.96-.23,1.91-.23,2.84.04,2.04-1.71,6.72,2,6.72,2.37,0,3.11-1.52,3.55-4.32Z"/><path class="cls-11" d="M80.52,375.06l2.29-15c.13-.86.77-1.68,1.83-1.68.8,0,1.22.59,1.11,1.29l-1.12,6.89c-.42,2.67-.74,5.37-1.16,8.04-.14.89-.77,1.68-1.87,1.68-.73,0-1.19-.56-1.08-1.22ZM83.44,354.86c.1-.66.48-2.57,1.57-2.57,1.67,0,1.56,2.34,1.39,3.43-.11.69-.4,1.62-1.38,1.62-1.71,0-1.79-1.09-1.58-2.47Z"/><path class="cls-11" d="M96.44,371.7c.95,0,1.14.63,1.02,1.38-.33,2.11-2.52,3.53-4.74,3.53-1.42,0-2.99-.89-3.55-1.98-.41-.86-.27-2.01-.12-2.97l1.48-9.89c-.95,0-2.54-.07-2.35-1.25.07-.43.89-1.48,1.4-1.48l1.41.03c-.03-1.22.13-2.47.33-3.73.07-.46.45-1.25.77-1.65.09-.33.59-.53,1.03-.53.69,0,1.54.36,1.43,1.09l-.48,3.07-.2,1.75c.7-.03,1.4-.1,2.09-.1.76,0,1.68.63,1.57,1.38-.11.69-.63,1.02-1.37,1.06l-2.34.1-.48.03c.13.1-.69,5.34-.91,6.69-.4,2.54-.54,2.54-.61,3.4-.1,1.32.13,2.44,1.29,2.44.98,0,1.39-.73,1.86-1.42l.14-.17c.32-.43.74-.79,1.32-.79Z"/><path class="cls-11" d="M109.09,372.72c-.36,2.27-2.71,3.82-5.11,3.82-1.56,0-3.37-.76-4.18-1.88-.69-.96-.59-2.24-.41-3.43l.35-1.98c.21-1.35.24-2.67.45-4.02.49-3.13,1.31-6.73,5.79-6.73.4,0,2.06.07,2.38.17,1.46.43,2.42,2.18,2.2,3.59-.09.59-.63,1.25-1.36,1.25-2.22,0-.42-2.44-2.96-2.44-2,0-2.75,1.06-3.01,2.7-.27,1.71-.35,3.4-.62,5.11-.32,2.01-1.69,4.98,1.58,4.98,1.06,0,1.4-.59,1.86-1.38.35-.63.71-1.29,1.62-1.29,1.02,0,1.58.63,1.44,1.52Z"/><path class="cls-11" d="M121.4,375.49c-.06.4-1.08.86-1.48.86-1.6,0-1.15-2.41-.99-3.43l1.21-7.45c.12-.79.88-3.99-.61-3.99-3.09,0-3.85,2.01-4.19,4.19l-.6,3.82c-.28,1.78-.41,3.56-.69,5.34-.12.79-.84,1.15-1.59,1.29-.76-.26-1.32-.86-1.2-1.65.78-4.98,1.39-9.99,2.1-14.97l.34-2.6c.2-1.29.34-3.1.6-4.06.09-.33.46-.63.83-.63,1.42,0,1.94.4,1.74,1.68-.32,2.04-.66,3.99-1.01,6.4,1.38-.92,2.67-1.25,3.8-1.25,1.06,0,2.17.1,2.86.79,1.57,1.38-.08,8.87-.34,10.52-.18,1.12-.64,4.55-.77,5.14Z"/><path class="cls-11" d="M141.83,371.7c.95,0,1.14.63,1.02,1.38-.33,2.11-2.52,3.53-4.74,3.53-1.42,0-2.99-.89-3.55-1.98-.41-.86-.27-2.01-.12-2.97l1.48-9.89c-.95,0-2.54-.07-2.35-1.25.07-.43.89-1.48,1.4-1.48l1.41.03c-.03-1.22.13-2.47.33-3.73.07-.46.45-1.25.77-1.65.09-.33.59-.53,1.03-.53.69,0,1.54.36,1.43,1.09l-.48,3.07-.2,1.75c.7-.03,1.4-.1,2.09-.1.76,0,1.68.63,1.57,1.38-.11.69-.63,1.02-1.37,1.06l-2.34.1-.48.03c.13.1-.69,5.34-.91,6.69-.4,2.54-.54,2.54-.61,3.4-.1,1.32.13,2.44,1.29,2.44.98,0,1.39-.73,1.86-1.42l.14-.17c.32-.43.74-.79,1.32-.79Z"/><path class="cls-11" d="M161.29,365.31c.19.89.11,1.85-.04,2.8-.72,4.55-3.26,8.44-8.93,8.44-5.31,0-8.39-4.02-7.66-8.67l.15-.92c.6-3.79,5.32-8.37,9.72-8.37,4.11,0,6.38,3.43,6.77,6.73ZM155.6,373.25c1.6-1.15,2.53-3.36,2.79-5.04.23-1.48.14-4.12-.85-5.21-.28-.33-.59-.63-.91-.92-.6-.59-1.51-1.02-2.5-1.02-2.29,0-4.21,1.78-5.45,3.43-.78,1.05-1.12,2.27-1.31,3.46-.5,3.16,1.3,5.37,4.6,5.9.21.03.43.03.65.03.95,0,2.12-.03,2.97-.63Z"/><path class="cls-11" d="M181.52,372.72c-.36,2.27-2.71,3.82-5.11,3.82-1.56,0-3.37-.76-4.18-1.88-.69-.96-.59-2.24-.41-3.43l.35-1.98c.21-1.35.24-2.67.45-4.02.49-3.13,1.31-6.73,5.79-6.73.4,0,2.06.07,2.38.17,1.46.43,2.42,2.18,2.2,3.59-.09.59-.63,1.25-1.36,1.25-2.22,0-.42-2.44-2.96-2.44-2,0-2.75,1.06-3.01,2.7-.27,1.71-.35,3.4-.62,5.11-.32,2.01-1.69,4.98,1.58,4.98,1.06,0,1.4-.59,1.86-1.38.35-.63.71-1.29,1.62-1.29,1.02,0,1.58.63,1.44,1.52Z"/><path class="cls-11" d="M188.85,375.63c-.28.59-.62,1.15-1.38,1.15-.55,0-.98-.26-1.42-.46-2.37-1.12-1.82-5.11-1.47-7.32l1.17-7.42c.43-2.7.7-5.37,1.12-8.08.14-.89.74-1.68,1.83-1.68.8,0,1.22.56,1.11,1.25l-2.5,15.66c-.25,1.62-.95,4.91,1.08,5.6.39.3.49.79.45,1.29Z"/><path class="cls-11" d="M191.75,375.06l2.29-15c.13-.86.77-1.68,1.83-1.68.8,0,1.22.59,1.11,1.29l-1.12,6.89c-.42,2.67-.74,5.37-1.16,8.04-.14.89-.77,1.68-1.87,1.68-.73,0-1.19-.56-1.08-1.22ZM194.67,354.86c.1-.66.48-2.57,1.57-2.57,1.67,0,1.56,2.34,1.39,3.43-.11.69-.4,1.62-1.38,1.62-1.71,0-1.79-1.09-1.58-2.47Z"/><path class="cls-11" d="M208.74,372.76c-.41,2.6-2.22,3.73-4.99,3.73-2.29,0-4.01-.66-4.88-2.54-.78-1.75-.07-6.07.26-8.11.54-3.43,1.46-7.42,6.23-7.42,3.86,0,4.35,1.71,4.33,4.88-.02,1.02,0,2.14-.18,3.2-.1.66-1.22,1.29-2.13,1.29-.51,0-.96-.17-1.47-.17-1.38,0-2.79-.07-4.16.1l-.36,2.74c-.37,2.34.47,3.46,3.13,3.46,1.56,0,1.1-.76,1.56-1.38.29-.66,1.01-1.32,1.81-1.32s.94.99.85,1.55ZM203.54,361.42c-.83.89-1.1,1.68-1.27,2.74-.06.36-.11.69-.13,1.06l2.72.03h1.75c.09-.79.53-3.63-.17-4.02-.34-.17-.8-.26-1.23-.26-.47,0-1.32.07-1.67.46Z"/><path class="cls-11" d="M223.05,363.23l-1.14,7.22c-.16,1.02-.14,2.08-.31,3.1-.17,1.09-.08,2.57-1.75,2.57s-1.21-2.27-1.05-3.26l.5-3.16c.36-2.27.99-4.68.98-6.96-.01-1.09-.49-1.75-1.76-1.75-.73,0-2.68.86-2.91,1.58-.2.56-.32,1.12-.41,1.68-.42,2.67-.73,5.34-1.15,8.01-.13.86-.22,3.96-1.82,3.96s-1.4-1.94-1.24-3l1.07-6.79c.23-1.48.54-2.97.95-4.45.56-1.91,2.14-2.7,4.11-3.2.68-.17,1.38-.23,2.07-.23,3.68,0,4.32,1.68,3.85,4.68Z"/><path class="cls-11" d="M233.77,371.7c.95,0,1.14.63,1.02,1.38-.33,2.11-2.52,3.53-4.74,3.53-1.42,0-2.99-.89-3.55-1.98-.41-.86-.27-2.01-.12-2.97l1.48-9.89c-.95,0-2.54-.07-2.35-1.25.07-.43.89-1.48,1.4-1.48l1.41.03c-.03-1.22.13-2.47.33-3.73.07-.46.45-1.25.77-1.65.09-.33.59-.53,1.03-.53.69,0,1.54.36,1.43,1.09l-.48,3.07-.2,1.75c.7-.03,1.4-.1,2.09-.1.76,0,1.68.63,1.57,1.38-.11.69-.63,1.02-1.37,1.06l-2.34.1-.48.03c.13.1-.69,5.34-.91,6.69-.4,2.54-.54,2.54-.61,3.4-.1,1.32.13,2.44,1.29,2.44.98,0,1.39-.73,1.86-1.42l.14-.17c.32-.43.74-.79,1.32-.79Z"/><path class="cls-11" d="M244.7,362.83c.15-.92.23-1.94-1.19-1.94-.91,0-2.5.36-2.66,1.38-.26,1.65,2,3.73,3.11,4.75,1.43,1.32,2.64,2.64,2.31,4.75-.4,2.57-1.81,4.78-5.01,4.78-2.91,0-5.09-1.91-4.66-4.62.13-.82.69-2.08,1.82-2.08.87,0,1.31.69,1.2,1.42-.22,1.38-.27,2.87,1.73,2.87,1.06,0,1.9-.96,2.18-1.81.34-2.64-3.32-4.32-4.38-6.4-.19-.4-.38-.82-.61-1.22-.49-.79-.74-1.32-.57-2.37.17-1.09.63-2.14,1.75-2.8,1.08-.63,2.65-1.09,3.85-1.09,1.57,0,2.91.46,3.48,1.71.36.69.64,1.52.51,2.34-.11.73-.65,1.81-1.63,1.81-.84,0-1.33-.79-1.22-1.48Z"/><path class="cls-11" d="M63.37,296.74c-.28,1.78-.97,5.47-3.09,6.46-.71.33-2.08.5-2.84.5-1.71,0-3.59-.53-4.61-1.68-1.14-1.32-.76-3.07-.64-4.75.06-1.09.17-2.21.34-3.3.23-1.48.25-3,.48-4.45.16-1.02.49-3.82,2.17-3.82.8,0,1.45.76,1.34,1.45-.43,2.74-.93,5.47-1.25,8.21-.24,2.21-1.28,5.8,2.22,5.8,2.51,0,3.07-3.53,3.31-5.11.44-2.8.44-5.6.89-8.41.13-.82.4-1.88,1.57-1.88.98,0,1.68.66,1.54,1.55-.05.33-.26.73-.27,1.02-.25,2.77-.71,5.64-1.14,8.41Z"/><path class="cls-11" d="M76.53,285.7c3.05,1.22,2.76,3.76,2.36,6.53-.21,1.55-.34,3.1-.59,4.65-.53,3.4-2.03,6.69-6.55,6.69-.95,0-1.87-.13-2.7-.43-.3,1.91-.45,3.79-.75,5.7-.18,1.12-.44,3.92-1.3,4.78l-.63.3c-1.38,0-1.72-.63-1.53-1.81.3-1.91.74-3.79,1.04-5.7.35-2.24.52-4.48.8-6.73.19-1.42.37-2.83.45-4.25.05-1.48.03-3,.27-4.48.17-1.09.42-2.21,1.19-3.16,1.17-1.68,3.8-2.44,5.77-2.44.76,0,1.51.1,2.16.36ZM75.51,296.61c.32-2.01.33-2.31.37-2.57.18-1.81,1.24-6.26-1.78-6.26-.91,0-2.25.43-3,1.02-.58.46-.81,1.94-.91,2.57-.15.96-.23,1.91-.23,2.83.04,2.04-1.71,6.73,2,6.73,2.37,0,3.11-1.52,3.55-4.32Z"/><path class="cls-11" d="M93.13,286.88c-.52,3.33-.57,6.63-1.09,9.96-.42,2.67-1.52,6.86-5.45,6.86-2.26,0-4.94-.5-5.67-2.6-.4-1.15.14-5.08.36-6.46.27-1.71.49-3.59,1.01-5.27.73-2.31,3.66-3.4,5.96-3.4.76,0,1.45.03,2.15.2.19-1.19.38-2.41.42-3.59.01-.56-.1-1.22-.02-1.75.11-.73.33-1.65,1.39-1.65,1.86,0,1.68,2.27,1.49,3.49-.07.43-.24.86-.31,1.29-.16.99-.09,1.94-.24,2.93ZM89.16,297.04c.33-2.11.6-4.25.71-6.36.04-.23.13-1.98-.2-1.98-.51,0-.89-.33-1.4-.33-.44,0-.89.13-1.35.23-.31.1-1.22.33-1.52.66-.64.86-.84,2.31-.99,3.3l-.84,5.34c-.04.23.03.53.03.76.04,1.58.67,2.67,2.6,2.67,2.11,0,2.67-2.37,2.97-4.29Z"/><path class="cls-11" d="M104.25,296.48c-.08,1.22-.27,2.41-.46,3.63-.44,2.8-2.88,3.49-5.57,3.49s-4.76-1.88-4.37-4.35c.33-2.11,1.84-4.32,4.25-5.04,1.15-.4,2.54-.4,3.75-.69.17-1.05.8-4.42-.04-5.08-.18-.03-.32-.07-.5-.07-1.93,0-2.99,1.91-4.27,1.91-.91,0-.99-.63-.88-1.32.3-1.88,3.67-3.2,5.45-3.2,3.78,0,3.77,3.59,3.35,6.26-.23,1.48-.58,2.97-.7,4.45ZM101.04,299.74c.19-1.19.19-2.37.38-3.56-2.09.13-4.34.76-4.69,3-.18,1.12.84,1.81,2.01,1.81,1.46,0,2.1.07,2.31-1.25Z"/><path class="cls-11" d="M115.06,298.75c.95,0,1.14.63,1.02,1.38-.33,2.11-2.52,3.53-4.74,3.53-1.42,0-2.99-.89-3.55-1.98-.41-.86-.27-2.01-.12-2.97l1.48-9.89c-.95,0-2.54-.07-2.35-1.25.07-.43.89-1.48,1.4-1.48l1.41.03c-.03-1.22.13-2.47.33-3.73.07-.46.45-1.25.77-1.65.09-.33.59-.53,1.03-.53.69,0,1.54.36,1.43,1.09l-.48,3.07-.2,1.75c.7-.03,1.4-.1,2.09-.1.76,0,1.68.63,1.57,1.38-.11.69-.63,1.02-1.37,1.05l-2.34.1-.48.03c.13.1-.69,5.34-.91,6.69-.4,2.54-.54,2.54-.61,3.4-.1,1.32.13,2.44,1.29,2.44.98,0,1.39-.73,1.86-1.42l.14-.16c.32-.43.74-.79,1.33-.79Z"/><path class="cls-11" d="M128.33,299.81c-.41,2.6-2.22,3.73-4.99,3.73-2.29,0-4.01-.66-4.88-2.54-.78-1.75-.07-6.07.26-8.11.54-3.43,1.46-7.42,6.23-7.42,3.86,0,4.35,1.71,4.33,4.88-.02,1.02,0,2.14-.18,3.2-.1.66-1.22,1.29-2.13,1.29-.51,0-.96-.17-1.47-.17-1.38,0-2.79-.07-4.16.1l-.36,2.74c-.37,2.34.47,3.46,3.13,3.46,1.56,0,1.1-.76,1.56-1.38.29-.66,1.01-1.32,1.81-1.32s.94.99.85,1.55ZM123.12,288.47c-.83.89-1.1,1.68-1.27,2.74-.06.36-.11.69-.13,1.06l2.72.03h1.75c.09-.79.53-3.63-.17-4.02-.34-.17-.8-.26-1.23-.26-.47,0-1.32.07-1.67.46Z"/><path class="cls-11" d="M154.2,300.76c.02.36.07.73.01,1.09-.14.89-.75,1.55-1.81,1.55l-.79-.3c-.41-.4-.32-.96-.23-1.52l1.8-11.01c.16-.99.19-2.37-1.19-2.37-1.6,0-2.05,1.48-2.23,2.6l-1.12,7.15c-.2,1.29-.29,2.54-.49,3.79-.1.66-.74,1.68-1.57,1.68-1.71,0-1.06-3.66-.91-4.65.39-2.51.97-5.01,1.36-7.48.18-1.15.34-3.1-1.4-3.1-1.16,0-1.69.79-1.83,1.71l-.29,2.31c-.29,1.81-.68,3.63-.96,5.44-.21,1.32-.15,2.57-.36,3.89-.1.63-.78,1.71-1.58,1.71-1.02,0-1.35-.66-1.22-1.52.6-3.82.91-7.61,1.51-11.44.42-2.67,1.4-4.71,4.78-4.71,1.24,0,2.44.46,3.22,1.25,1.08-.86,2.51-1.12,3.82-1.12,3.82,0,3.35,3.43,2.95,6.03-.25,1.62-.73,3.23-.98,4.85-.19,1.19-.59,3.03-.47,4.15Z"/><path class="cls-11" d="M168.47,301.42c-.32,2.04-.47,4.12-.79,6.16-.24,1.55-.77,3.73-2.02,5.01-1,1.02-3.33,1.95-4.71,1.95-4.04,0-5.43-1.58-4.85-5.27.15-.92.59-1.91,1.83-1.91.65,0,1.53.69,1.43,1.32-.21,1.35-.91,3.26,1.27,3.26,1.13,0,3-.56,3.5-1.65.72-1.58,1.14-4.91,1.4-6.59.07-.43.06-.86.09-1.25-1.01.66-2.15,1.15-3.31,1.15-4.37,0-4.76-3.53-4.24-6.82l.7-4.22c.32-2.01.45-3.99.76-6,.13-.82.57-1.32,1.52-1.32,1.75,0,1.63.99,1.43,2.27l-1.48,8.93c-.25,1.62-.94,4.58,1.65,4.58s3.49-2.51,3.78-4.35l.58-3.66c.19-1.22.28-2.47.47-3.69l.39-2.97c.14-.89.24-1.55,1.44-1.55,1.46,0,1.61.66,1.43,1.81-.18,2.54-.54,4.81-.9,7.09l-.49,3.1c-.24,1.55-.63,3.07-.87,4.62Z"/><path class="cls-11" d="M191.94,285.7c3.05,1.22,2.76,3.76,2.36,6.53-.21,1.55-.34,3.1-.59,4.65-.53,3.4-2.03,6.69-6.55,6.69-.95,0-1.87-.13-2.7-.43-.3,1.91-.45,3.79-.75,5.7-.18,1.12-.44,3.92-1.3,4.78l-.63.3c-1.38,0-1.72-.63-1.53-1.81.3-1.91.74-3.79,1.04-5.7.35-2.24.52-4.48.8-6.73.19-1.42.37-2.83.45-4.25.05-1.48.03-3,.27-4.48.17-1.09.42-2.21,1.19-3.16,1.17-1.68,3.8-2.44,5.77-2.44.76,0,1.51.1,2.16.36ZM190.92,296.61c.32-2.01.33-2.31.37-2.57.18-1.81,1.24-6.26-1.78-6.26-.91,0-2.25.43-3,1.02-.58.46-.81,1.94-.91,2.57-.15.96-.23,1.91-.23,2.83.04,2.04-1.71,6.73,2,6.73,2.37,0,3.11-1.52,3.55-4.32Z"/><path class="cls-11" d="M212.84,292.36c.19.89.11,1.85-.04,2.8-.72,4.55-3.26,8.44-8.93,8.44-5.31,0-8.39-4.02-7.66-8.67l.15-.92c.6-3.79,5.32-8.37,9.72-8.37,4.11,0,6.38,3.43,6.77,6.72ZM207.15,300.3c1.6-1.15,2.53-3.36,2.79-5.04.23-1.48.14-4.12-.85-5.21-.28-.33-.59-.63-.91-.92-.6-.59-1.51-1.02-2.5-1.02-2.29,0-4.21,1.78-5.45,3.43-.78,1.06-1.12,2.27-1.31,3.46-.5,3.16,1.3,5.37,4.6,5.9.21.03.43.03.65.03.95,0,2.12-.03,2.97-.63Z"/><path class="cls-11" d="M225.52,287.87c-.09.59-.84,1.19-1.5,1.19-.51,0-.91-.23-1.28-.4-.55-.23-1.2-.49-1.85-.49-1.2,0-1.42.73-1.57,1.65l-.28,1.78c-.31,1.98-.51,3.92-.82,5.9-.23,1.48-.48,3.03-1.03,4.48-.24.63-.69,1.12-1.45,1.12-1.38,0-1.29-1.29-1.15-2.18.35-2.21.8-4.38,1.15-6.59.24-1.52.33-3.03.57-4.55.4-2.57,2.52-4.22,5.36-4.22,1.49,0,3.03.89,3.81,1.91.03.07.06.33.05.4Z"/><path class="cls-11" d="M234.08,298.75c.95,0,1.14.63,1.02,1.38-.33,2.11-2.52,3.53-4.74,3.53-1.42,0-2.99-.89-3.55-1.98-.41-.86-.27-2.01-.12-2.97l1.48-9.89c-.95,0-2.54-.07-2.35-1.25.07-.43.89-1.48,1.4-1.48l1.41.03c-.03-1.22.13-2.47.33-3.73.07-.46.45-1.25.77-1.65.09-.33.59-.53,1.03-.53.69,0,1.54.36,1.43,1.09l-.48,3.07-.2,1.75c.7-.03,1.4-.1,2.09-.1.76,0,1.68.63,1.57,1.38-.11.69-.63,1.02-1.37,1.05l-2.34.1-.48.03c.13.1-.69,5.34-.91,6.69-.4,2.54-.54,2.54-.61,3.4-.1,1.32.13,2.44,1.29,2.44.98,0,1.39-.73,1.86-1.42l.14-.16c.32-.43.74-.79,1.33-.79Z"/><path class="cls-11" d="M250.38,282.57c.07.23.03.49-.01.76-.12.79-.75,1.09-1.55,1.09-.91,0-1.11-.33-1.18-1.05-.07-.69-.88-1.58-1.72-1.58s-1.68.49-2.25,1.09c-.61.63-1.19,4.09-1.33,4.98-.16,1.02-.18,2.04-.34,3.07,1.2,0,4.85-.53,4.58,1.22-.16.99-.97,1.29-1.95,1.29s-1.99-.1-3.03.03c-.24,1.52-.33,3-.56,4.48l-.5,3.17c-.12.76-.35,1.55-.89,2.21-.09.1-.52.3-.77.3-1.6,0-1.58-1.09-1.39-2.24.17-1.09.6-2.21.78-3.33.29-1.85.33-3.69.62-5.54l.96-5.87c.2-1.29.45-3.56,1.32-4.71,1.38-1.81,3.03-2.6,5.32-2.6,2.04,0,3.76,1.52,3.89,3.26Z"/><path class="cls-11" d="M264.82,292.36c.19.89.11,1.85-.04,2.8-.72,4.55-3.26,8.44-8.93,8.44-5.31,0-8.39-4.02-7.66-8.67l.15-.92c.6-3.79,5.32-8.37,9.72-8.37,4.11,0,6.38,3.43,6.77,6.72ZM259.13,300.3c1.6-1.15,2.53-3.36,2.79-5.04.23-1.48.14-4.12-.85-5.21-.28-.33-.59-.63-.91-.92-.6-.59-1.51-1.02-2.5-1.02-2.29,0-4.21,1.78-5.45,3.43-.78,1.06-1.12,2.27-1.31,3.46-.5,3.16,1.3,5.37,4.6,5.9.21.03.43.03.65.03.95,0,2.12-.03,2.97-.63Z"/><path class="cls-11" d="M271.75,302.67c-.28.59-.62,1.15-1.38,1.15-.55,0-.98-.26-1.42-.46-2.37-1.12-1.82-5.11-1.47-7.32l1.17-7.42c.43-2.7.7-5.37,1.12-8.08.14-.89.74-1.68,1.83-1.68.8,0,1.22.56,1.11,1.25l-2.5,15.66c-.25,1.62-.95,4.91,1.08,5.6.39.3.49.79.45,1.29Z"/><path class="cls-11" d="M274.64,302.11l2.29-15c.13-.86.77-1.68,1.83-1.68.8,0,1.22.59,1.11,1.29l-1.12,6.89c-.42,2.67-.74,5.37-1.16,8.04-.14.89-.77,1.68-1.87,1.68-.73,0-1.19-.56-1.08-1.22ZM277.56,281.91c.1-.66.48-2.57,1.57-2.57,1.67,0,1.56,2.34,1.39,3.43-.11.69-.4,1.62-1.38,1.62-1.71,0-1.79-1.09-1.58-2.47Z"/><path class="cls-11" d="M298.05,292.36c.19.89.11,1.85-.04,2.8-.72,4.55-3.26,8.44-8.93,8.44-5.31,0-8.39-4.02-7.66-8.67l.15-.92c.6-3.79,5.32-8.37,9.72-8.37,4.11,0,6.38,3.43,6.77,6.72ZM292.36,300.3c1.6-1.15,2.53-3.36,2.79-5.04.23-1.48.14-4.12-.85-5.21-.28-.33-.59-.63-.91-.92-.6-.59-1.51-1.02-2.5-1.02-2.29,0-4.21,1.78-5.45,3.43-.78,1.06-1.12,2.27-1.31,3.46-.5,3.16,1.3,5.37,4.6,5.9.21.03.43.03.65.03.95,0,2.12-.03,2.97-.63Z"/></svg>